solid ascii
  facet normal 8.314702e-001 5.555694e-001 -0.000000e+000
    outer loop
      vertex   1.579817e+001 7.052878e+001 -6.500000e+001
      vertex   1.550553e+001 7.096675e+001 -6.800000e+001
      vertex   1.550553e+001 7.096675e+001 -6.200000e+001
    endloop
  endfacet
  facet normal 9.876886e-001 -1.564329e-001 0.000000e+000
    outer loop
      vertex   2.385317e+001 7.107294e+001 -6.750000e+001
      vertex   2.400000e+001 7.200000e+001 -6.800000e+001
      vertex   2.400000e+001 7.200000e+001 -6.700000e+001
    endloop
  endfacet
  facet normal 0.000000e+000 0.000000e+000 -1.000000e+000
    outer loop
      vertex   2.370634e+001 7.014590e+001 -6.800000e+001
      vertex   2.049447e+001 7.303324e+001 -6.800000e+001
      vertex   1.990919e+001 7.390919e+001 -6.800000e+001
    endloop
  endfacet
  facet normal 9.876881e-001 -1.564361e-001 0.000000e+000
    outer loop
      vertex   2.385317e+001 7.107294e+001 -6.750000e+001
      vertex   2.370634e+001 7.014590e+001 -6.700000e+001
      vertex   2.370634e+001 7.014590e+001 -6.800000e+001
    endloop
  endfacet
  facet normal 8.910066e-001 -4.539904e-001 1.714592e-006
    outer loop
      vertex   2.328022e+001 6.930959e+001 -6.750000e+001
      vertex   2.285410e+001 6.847329e+001 -6.800000e+001
      vertex   2.370634e+001 7.014590e+001 -6.800000e+001
    endloop
  endfacet
  facet normal 8.910062e-001 -4.539912e-001 0.000000e+000
    outer loop
      vertex   2.328022e+001 6.930959e+001 -6.750000e+001
      vertex   2.370634e+001 7.014590e+001 -6.800000e+001
      vertex   2.370634e+001 7.014590e+001 -6.700000e+001
    endloop
  endfacet
  facet normal 9.807854e-001 1.950898e-001 1.555900e-007
    outer loop
      vertex   1.540276e+001 7.148338e+001 -6.500000e+001
      vertex   1.550553e+001 7.096675e+001 -6.800000e+001
      vertex   1.530000e+001 7.200000e+001 -6.800000e+001
    endloop
  endfacet
  facet normal 8.910069e-001 -4.539896e-001 0.000000e+000
    outer loop
      vertex   2.328022e+001 6.930959e+001 -6.750000e+001
      vertex   2.285410e+001 6.847329e+001 -6.700000e+001
      vertex   2.285410e+001 6.847329e+001 -6.800000e+001
    endloop
  endfacet
  facet normal 7.071073e-001 -7.071063e-001 1.333568e-006
    outer loop
      vertex   2.219041e+001 6.780959e+001 -6.750000e+001
      vertex   2.152671e+001 6.714590e+001 -6.800000e+001
      vertex   2.285410e+001 6.847329e+001 -6.800000e+001
    endloop
  endfacet
  facet normal 7.071068e-001 -7.071068e-001 0.000000e+000
    outer loop
      vertex   2.219041e+001 6.780959e+001 -6.750000e+001
      vertex   2.285410e+001 6.847329e+001 -6.800000e+001
      vertex   2.285410e+001 6.847329e+001 -6.700000e+001
    endloop
  endfacet
  facet normal 0.000000e+000 0.000000e+000 -1.000000e+000
    outer loop
      vertex   2.370634e+001 7.014590e+001 -6.800000e+001
      vertex   1.990919e+001 7.390919e+001 -6.800000e+001
      vertex   1.614590e+001 7.770634e+001 -6.800000e+001
    endloop
  endfacet
  facet normal 7.071078e-001 -7.071058e-001 0.000000e+000
    outer loop
      vertex   2.219041e+001 6.780959e+001 -6.750000e+001
      vertex   2.152671e+001 6.714590e+001 -6.700000e+001
      vertex   2.152671e+001 6.714590e+001 -6.800000e+001
    endloop
  endfacet
  facet normal 4.539888e-001 -8.910074e-001 0.000000e+000
    outer loop
      vertex   2.069041e+001 6.671978e+001 -6.750000e+001
      vertex   1.985410e+001 6.629366e+001 -6.800000e+001
      vertex   2.152671e+001 6.714590e+001 -6.800000e+001
    endloop
  endfacet
  facet normal 4.539888e-001 -8.910074e-001 0.000000e+000
    outer loop
      vertex   2.069041e+001 6.671978e+001 -6.750000e+001
      vertex   2.152671e+001 6.714590e+001 -6.800000e+001
      vertex   2.152671e+001 6.714590e+001 -6.700000e+001
    endloop
  endfacet
  facet normal 9.807851e-001 -1.950912e-001 4.031226e-007
    outer loop
      vertex   1.540276e+001 7.251662e+001 -6.500000e+001
      vertex   1.530000e+001 7.200000e+001 -6.800000e+001
      vertex   1.550553e+001 7.303324e+001 -6.800000e+001
    endloop
  endfacet
  facet normal 4.539888e-001 -8.910074e-001 0.000000e+000
    outer loop
      vertex   2.069041e+001 6.671978e+001 -6.750000e+001
      vertex   1.985410e+001 6.629366e+001 -6.700000e+001
      vertex   1.985410e+001 6.629366e+001 -6.800000e+001
    endloop
  endfacet
  facet normal 1.564356e-001 -9.876882e-001 -7.842662e-006
    outer loop
      vertex   1.892705e+001 6.614683e+001 -6.750000e+001
      vertex   1.800000e+001 6.600000e+001 -6.800000e+001
      vertex   1.985410e+001 6.629366e+001 -6.800000e+001
    endloop
  endfacet
  facet normal 1.564398e-001 -9.876875e-001 0.000000e+000
    outer loop
      vertex   1.892705e+001 6.614683e+001 -6.750000e+001
      vertex   1.985410e+001 6.629366e+001 -6.800000e+001
      vertex   1.985410e+001 6.629366e+001 -6.700000e+001
    endloop
  endfacet
  facet normal 0.000000e+000 0.000000e+000 -1.000000e+000
    outer loop
      vertex   1.990919e+001 7.390919e+001 -6.800000e+001
      vertex   1.903325e+001 7.449448e+001 -6.800000e+001
      vertex   1.614590e+001 7.770634e+001 -6.800000e+001
    endloop
  endfacet
  facet normal 1.564315e-001 -9.876888e-001 0.000000e+000
    outer loop
      vertex   1.892705e+001 6.614683e+001 -6.750000e+001
      vertex   1.800000e+001 6.600000e+001 -6.700000e+001
      vertex   1.800000e+001 6.600000e+001 -6.800000e+001
    endloop
  endfacet
  facet normal -1.564356e-001 -9.876882e-001 -7.842662e-006
    outer loop
      vertex   1.707295e+001 6.614683e+001 -6.750000e+001
      vertex   1.614590e+001 6.629366e+001 -6.800000e+001
      vertex   1.800000e+001 6.600000e+001 -6.800000e+001
    endloop
  endfacet
  facet normal -1.564315e-001 -9.876888e-001 0.000000e+000
    outer loop
      vertex   1.707295e+001 6.614683e+001 -6.750000e+001
      vertex   1.800000e+001 6.600000e+001 -6.800000e+001
      vertex   1.800000e+001 6.600000e+001 -6.700000e+001
    endloop
  endfacet
  facet normal 8.314702e-001 -5.555694e-001 0.000000e+000
    outer loop
      vertex   1.579817e+001 7.347121e+001 -6.500000e+001
      vertex   1.550553e+001 7.303324e+001 -6.800000e+001
      vertex   1.609081e+001 7.390919e+001 -6.800000e+001
    endloop
  endfacet
  facet normal -1.564398e-001 -9.876875e-001 -0.000000e+000
    outer loop
      vertex   1.707295e+001 6.614683e+001 -6.750000e+001
      vertex   1.614590e+001 6.629366e+001 -6.700000e+001
      vertex   1.614590e+001 6.629366e+001 -6.800000e+001
    endloop
  endfacet
  facet normal -4.539890e-001 -8.910073e-001 -4.445234e-007
    outer loop
      vertex   1.530959e+001 6.671978e+001 -6.750000e+001
      vertex   1.447329e+001 6.714590e+001 -6.800000e+001
      vertex   1.614590e+001 6.629366e+001 -6.800000e+001
    endloop
  endfacet
  facet normal -4.539888e-001 -8.910074e-001 0.000000e+000
    outer loop
      vertex   1.530959e+001 6.671978e+001 -6.750000e+001
      vertex   1.614590e+001 6.629366e+001 -6.800000e+001
      vertex   1.614590e+001 6.629366e+001 -6.700000e+001
    endloop
  endfacet
  facet normal 0.000000e+000 0.000000e+000 -1.000000e+000
    outer loop
      vertex   1.614590e+001 7.770634e+001 -6.800000e+001
      vertex   1.903325e+001 7.449448e+001 -6.800000e+001
      vertex   1.447329e+001 7.685410e+001 -6.800000e+001
    endloop
  endfacet
  facet normal -4.539892e-001 -8.910072e-001 -0.000000e+000
    outer loop
      vertex   1.530959e+001 6.671978e+001 -6.750000e+001
      vertex   1.447329e+001 6.714590e+001 -6.700000e+001
      vertex   1.447329e+001 6.714590e+001 -6.800000e+001
    endloop
  endfacet
  facet normal -7.071073e-001 -7.071063e-001 0.000000e+000
    outer loop
      vertex   1.380959e+001 6.780959e+001 -6.750000e+001
      vertex   1.314590e+001 6.847329e+001 -6.800000e+001
      vertex   1.447329e+001 6.714590e+001 -6.800000e+001
    endloop
  endfacet
  facet normal -7.071073e-001 -7.071063e-001 0.000000e+000
    outer loop
      vertex   1.380959e+001 6.780959e+001 -6.750000e+001
      vertex   1.447329e+001 6.714590e+001 -6.800000e+001
      vertex   1.447329e+001 6.714590e+001 -6.700000e+001
    endloop
  endfacet
  facet normal 5.555723e-001 -8.314682e-001 -1.056129e-006
    outer loop
      vertex   1.652878e+001 7.420183e+001 -6.500000e+001
      vertex   1.609081e+001 7.390919e+001 -6.800000e+001
      vertex   1.696675e+001 7.449448e+001 -6.800000e+001
    endloop
  endfacet
  facet normal -7.071073e-001 -7.071063e-001 -0.000000e+000
    outer loop
      vertex   1.380959e+001 6.780959e+001 -6.750000e+001
      vertex   1.314590e+001 6.847329e+001 -6.700000e+001
      vertex   1.314590e+001 6.847329e+001 -6.800000e+001
    endloop
  endfacet
  facet normal -8.910064e-001 -4.539908e-001 8.890474e-007
    outer loop
      vertex   1.271978e+001 6.930959e+001 -6.750000e+001
      vertex   1.229366e+001 7.014590e+001 -6.800000e+001
      vertex   1.314590e+001 6.847329e+001 -6.800000e+001
    endloop
  endfacet
  facet normal -8.910066e-001 -4.539904e-001 0.000000e+000
    outer loop
      vertex   1.271978e+001 6.930959e+001 -6.750000e+001
      vertex   1.314590e+001 6.847329e+001 -6.800000e+001
      vertex   1.314590e+001 6.847329e+001 -6.700000e+001
    endloop
  endfacet
  facet normal 0.000000e+000 0.000000e+000 -1.000000e+000
    outer loop
      vertex   2.049447e+001 7.303324e+001 -6.800000e+001
      vertex   2.285410e+001 6.847329e+001 -6.800000e+001
      vertex   2.070000e+001 7.200000e+001 -6.800000e+001
    endloop
  endfacet
  facet normal -8.910062e-001 -4.539912e-001 -0.000000e+000
    outer loop
      vertex   1.271978e+001 6.930959e+001 -6.750000e+001
      vertex   1.229366e+001 7.014590e+001 -6.700000e+001
      vertex   1.229366e+001 7.014590e+001 -6.800000e+001
    endloop
  endfacet
  facet normal -9.876883e-001 -1.564345e-001 -1.174811e-006
    outer loop
      vertex   1.214683e+001 7.107294e+001 -6.750000e+001
      vertex   1.200000e+001 7.200000e+001 -6.800000e+001
      vertex   1.229366e+001 7.014590e+001 -6.800000e+001
    endloop
  endfacet
  facet normal -9.876882e-001 -1.564351e-001 0.000000e+000
    outer loop
      vertex   1.214683e+001 7.107294e+001 -6.750000e+001
      vertex   1.229366e+001 7.014590e+001 -6.800000e+001
      vertex   1.229366e+001 7.014590e+001 -6.700000e+001
    endloop
  endfacet
  facet normal 1.950861e-001 -9.807861e-001 0.000000e+000
    outer loop
      vertex   1.748338e+001 7.459724e+001 -6.500000e+001
      vertex   1.696675e+001 7.449448e+001 -6.800000e+001
      vertex   1.800000e+001 7.470000e+001 -6.800000e+001
    endloop
  endfacet
  facet normal -9.876884e-001 -1.564339e-001 -0.000000e+000
    outer loop
      vertex   1.214683e+001 7.107294e+001 -6.750000e+001
      vertex   1.200000e+001 7.200000e+001 -6.700000e+001
      vertex   1.200000e+001 7.200000e+001 -6.800000e+001
    endloop
  endfacet
  facet normal -9.876883e-001 1.564345e-001 1.174811e-006
    outer loop
      vertex   1.214683e+001 7.292705e+001 -6.750000e+001
      vertex   1.229366e+001 7.385410e+001 -6.800000e+001
      vertex   1.200000e+001 7.200000e+001 -6.800000e+001
    endloop
  endfacet
  facet normal -9.876882e-001 1.564351e-001 0.000000e+000
    outer loop
      vertex   1.214683e+001 7.292705e+001 -6.750000e+001
      vertex   1.200000e+001 7.200000e+001 -6.800000e+001
      vertex   1.200000e+001 7.200000e+001 -6.700000e+001
    endloop
  endfacet
  facet normal 0.000000e+000 0.000000e+000 -1.000000e+000
    outer loop
      vertex   1.903325e+001 7.449448e+001 -6.800000e+001
      vertex   1.800000e+001 7.470000e+001 -6.800000e+001
      vertex   1.447329e+001 7.685410e+001 -6.800000e+001
    endloop
  endfacet
  facet normal -9.876884e-001 1.564339e-001 0.000000e+000
    outer loop
      vertex   1.214683e+001 7.292705e+001 -6.750000e+001
      vertex   1.229366e+001 7.385410e+001 -6.700000e+001
      vertex   1.229366e+001 7.385410e+001 -6.800000e+001
    endloop
  endfacet
  facet normal -8.910064e-001 4.539908e-001 8.255441e-007
    outer loop
      vertex   1.271978e+001 7.469041e+001 -6.750000e+001
      vertex   1.314590e+001 7.552671e+001 -6.800000e+001
      vertex   1.229366e+001 7.385410e+001 -6.800000e+001
    endloop
  endfacet
  facet normal -8.910062e-001 4.539912e-001 0.000000e+000
    outer loop
      vertex   1.271978e+001 7.469041e+001 -6.750000e+001
      vertex   1.229366e+001 7.385410e+001 -6.800000e+001
      vertex   1.229366e+001 7.385410e+001 -6.700000e+001
    endloop
  endfacet
  facet normal -1.950861e-001 -9.807861e-001 0.000000e+000
    outer loop
      vertex   1.851662e+001 7.459724e+001 -6.500000e+001
      vertex   1.800000e+001 7.470000e+001 -6.800000e+001
      vertex   1.903325e+001 7.449448e+001 -6.800000e+001
    endloop
  endfacet
  facet normal -8.910066e-001 4.539904e-001 0.000000e+000
    outer loop
      vertex   1.271978e+001 7.469041e+001 -6.750000e+001
      vertex   1.314590e+001 7.552671e+001 -6.700000e+001
      vertex   1.314590e+001 7.552671e+001 -6.800000e+001
    endloop
  endfacet
  facet normal -7.071073e-001 7.071063e-001 0.000000e+000
    outer loop
      vertex   1.380959e+001 7.619041e+001 -6.750000e+001
      vertex   1.447329e+001 7.685410e+001 -6.800000e+001
      vertex   1.314590e+001 7.552671e+001 -6.800000e+001
    endloop
  endfacet
  facet normal -7.071073e-001 7.071063e-001 0.000000e+000
    outer loop
      vertex   1.380959e+001 7.619041e+001 -6.750000e+001
      vertex   1.314590e+001 7.552671e+001 -6.800000e+001
      vertex   1.314590e+001 7.552671e+001 -6.700000e+001
    endloop
  endfacet
  facet normal 0.000000e+000 0.000000e+000 -1.000000e+000
    outer loop
      vertex   2.070000e+001 7.200000e+001 -6.800000e+001
      vertex   2.285410e+001 6.847329e+001 -6.800000e+001
      vertex   2.049447e+001 7.096675e+001 -6.800000e+001
    endloop
  endfacet
  facet normal -7.071073e-001 7.071063e-001 0.000000e+000
    outer loop
      vertex   1.380959e+001 7.619041e+001 -6.750000e+001
      vertex   1.447329e+001 7.685410e+001 -6.700000e+001
      vertex   1.447329e+001 7.685410e+001 -6.800000e+001
    endloop
  endfacet
  facet normal -4.539890e-001 8.910073e-001 -3.810201e-007
    outer loop
      vertex   1.530959e+001 7.728022e+001 -6.750000e+001
      vertex   1.614590e+001 7.770634e+001 -6.800000e+001
      vertex   1.447329e+001 7.685410e+001 -6.800000e+001
    endloop
  endfacet
  facet normal -4.539892e-001 8.910072e-001 0.000000e+000
    outer loop
      vertex   1.530959e+001 7.728022e+001 -6.750000e+001
      vertex   1.447329e+001 7.685410e+001 -6.800000e+001
      vertex   1.447329e+001 7.685410e+001 -6.700000e+001
    endloop
  endfacet
  facet normal -5.555714e-001 -8.314688e-001 -1.235292e-006
    outer loop
      vertex   1.947122e+001 7.420183e+001 -6.500000e+001
      vertex   1.903325e+001 7.449448e+001 -6.800000e+001
      vertex   1.990919e+001 7.390919e+001 -6.800000e+001
    endloop
  endfacet
  facet normal -4.539888e-001 8.910074e-001 0.000000e+000
    outer loop
      vertex   1.530959e+001 7.728022e+001 -6.750000e+001
      vertex   1.614590e+001 7.770634e+001 -6.700000e+001
      vertex   1.614590e+001 7.770634e+001 -6.800000e+001
    endloop
  endfacet
  facet normal -1.564356e-001 9.876882e-001 -7.842662e-006
    outer loop
      vertex   1.707295e+001 7.785317e+001 -6.750000e+001
      vertex   1.800000e+001 7.800000e+001 -6.800000e+001
      vertex   1.614590e+001 7.770634e+001 -6.800000e+001
    endloop
  endfacet
  facet normal -1.564398e-001 9.876875e-001 0.000000e+000
    outer loop
      vertex   1.707295e+001 7.785317e+001 -6.750000e+001
      vertex   1.614590e+001 7.770634e+001 -6.800000e+001
      vertex   1.614590e+001 7.770634e+001 -6.700000e+001
    endloop
  endfacet
  facet normal 0.000000e+000 0.000000e+000 -1.000000e+000
    outer loop
      vertex   1.800000e+001 7.470000e+001 -6.800000e+001
      vertex   1.696675e+001 7.449448e+001 -6.800000e+001
      vertex   1.447329e+001 7.685410e+001 -6.800000e+001
    endloop
  endfacet
  facet normal -1.564315e-001 9.876888e-001 0.000000e+000
    outer loop
      vertex   1.707295e+001 7.785317e+001 -6.750000e+001
      vertex   1.800000e+001 7.800000e+001 -6.700000e+001
      vertex   1.800000e+001 7.800000e+001 -6.800000e+001
    endloop
  endfacet
  facet normal 1.564356e-001 9.876882e-001 -7.842662e-006
    outer loop
      vertex   1.892705e+001 7.785317e+001 -6.750000e+001
      vertex   1.985410e+001 7.770634e+001 -6.800000e+001
      vertex   1.800000e+001 7.800000e+001 -6.800000e+001
    endloop
  endfacet
  facet normal 1.564315e-001 9.876888e-001 -0.000000e+000
    outer loop
      vertex   1.892705e+001 7.785317e+001 -6.750000e+001
      vertex   1.800000e+001 7.800000e+001 -6.800000e+001
      vertex   1.800000e+001 7.800000e+001 -6.700000e+001
    endloop
  endfacet
  facet normal -8.314710e-001 -5.555681e-001 0.000000e+000
    outer loop
      vertex   2.020183e+001 7.347121e+001 -6.500000e+001
      vertex   1.990919e+001 7.390919e+001 -6.800000e+001
      vertex   2.049447e+001 7.303324e+001 -6.800000e+001
    endloop
  endfacet
  facet normal 1.564398e-001 9.876875e-001 0.000000e+000
    outer loop
      vertex   1.892705e+001 7.785317e+001 -6.750000e+001
      vertex   1.985410e+001 7.770634e+001 -6.700000e+001
      vertex   1.985410e+001 7.770634e+001 -6.800000e+001
    endloop
  endfacet
  facet normal 4.539888e-001 8.910074e-001 0.000000e+000
    outer loop
      vertex   2.069041e+001 7.728022e+001 -6.750000e+001
      vertex   2.152671e+001 7.685410e+001 -6.800000e+001
      vertex   1.985410e+001 7.770634e+001 -6.800000e+001
    endloop
  endfacet
  facet normal 4.539888e-001 8.910074e-001 -0.000000e+000
    outer loop
      vertex   2.069041e+001 7.728022e+001 -6.750000e+001
      vertex   1.985410e+001 7.770634e+001 -6.800000e+001
      vertex   1.985410e+001 7.770634e+001 -6.700000e+001
    endloop
  endfacet
  facet normal 0.000000e+000 0.000000e+000 -1.000000e+000
    outer loop
      vertex   2.285410e+001 6.847329e+001 -6.800000e+001
      vertex   2.152671e+001 6.714590e+001 -6.800000e+001
      vertex   2.049447e+001 7.096675e+001 -6.800000e+001
    endloop
  endfacet
  facet normal 4.539888e-001 8.910074e-001 0.000000e+000
    outer loop
      vertex   2.069041e+001 7.728022e+001 -6.750000e+001
      vertex   2.152671e+001 7.685410e+001 -6.700000e+001
      vertex   2.152671e+001 7.685410e+001 -6.800000e+001
    endloop
  endfacet
  facet normal 7.071073e-001 7.071063e-001 1.333568e-006
    outer loop
      vertex   2.219041e+001 7.619041e+001 -6.750000e+001
      vertex   2.285410e+001 7.552671e+001 -6.800000e+001
      vertex   2.152671e+001 7.685410e+001 -6.800000e+001
    endloop
  endfacet
  facet normal 7.071078e-001 7.071058e-001 -0.000000e+000
    outer loop
      vertex   2.219041e+001 7.619041e+001 -6.750000e+001
      vertex   2.152671e+001 7.685410e+001 -6.800000e+001
      vertex   2.152671e+001 7.685410e+001 -6.700000e+001
    endloop
  endfacet
  facet normal -9.807850e-001 -1.950920e-001 -6.365092e-008
    outer loop
      vertex   2.059724e+001 7.251662e+001 -6.500000e+001
      vertex   2.049447e+001 7.303324e+001 -6.800000e+001
      vertex   2.070000e+001 7.200000e+001 -6.800000e+001
    endloop
  endfacet
  facet normal 7.071068e-001 7.071068e-001 0.000000e+000
    outer loop
      vertex   2.219041e+001 7.619041e+001 -6.750000e+001
      vertex   2.285410e+001 7.552671e+001 -6.700000e+001
      vertex   2.285410e+001 7.552671e+001 -6.800000e+001
    endloop
  endfacet
  facet normal 8.910066e-001 4.539904e-001 1.714592e-006
    outer loop
      vertex   2.328022e+001 7.469041e+001 -6.750000e+001
      vertex   2.370634e+001 7.385410e+001 -6.800000e+001
      vertex   2.285410e+001 7.552671e+001 -6.800000e+001
    endloop
  endfacet
  facet normal 8.910069e-001 4.539896e-001 -0.000000e+000
    outer loop
      vertex   2.328022e+001 7.469041e+001 -6.750000e+001
      vertex   2.285410e+001 7.552671e+001 -6.800000e+001
      vertex   2.285410e+001 7.552671e+001 -6.700000e+001
    endloop
  endfacet
  facet normal -9.807848e-001 -1.950924e-001 0.000000e+000
    outer loop
      vertex   2.059724e+001 7.251662e+001 -6.500000e+001
      vertex   2.070000e+001 7.200000e+001 -6.800000e+001
      vertex   2.070000e+001 7.200000e+001 -6.200000e+001
    endloop
  endfacet
  facet normal 8.910062e-001 4.539912e-001 0.000000e+000
    outer loop
      vertex   2.328022e+001 7.469041e+001 -6.750000e+001
      vertex   2.370634e+001 7.385410e+001 -6.700000e+001
      vertex   2.370634e+001 7.385410e+001 -6.800000e+001
    endloop
  endfacet
  facet normal 9.876883e-001 1.564345e-001 -6.985360e-007
    outer loop
      vertex   2.385317e+001 7.292705e+001 -6.750000e+001
      vertex   2.400000e+001 7.200000e+001 -6.800000e+001
      vertex   2.370634e+001 7.385410e+001 -6.800000e+001
    endloop
  endfacet
  facet normal 9.876883e-001 1.564348e-001 -0.000000e+000
    outer loop
      vertex   2.385317e+001 7.292705e+001 -6.750000e+001
      vertex   2.370634e+001 7.385410e+001 -6.800000e+001
      vertex   2.370634e+001 7.385410e+001 -6.700000e+001
    endloop
  endfacet
  facet normal 0.000000e+000 0.000000e+000 -1.000000e+000
    outer loop
      vertex   2.152671e+001 6.714590e+001 -6.800000e+001
      vertex   1.985410e+001 6.629366e+001 -6.800000e+001
      vertex   1.903325e+001 6.950552e+001 -6.800000e+001
    endloop
  endfacet
  facet normal 9.876884e-001 1.564341e-001 0.000000e+000
    outer loop
      vertex   2.385317e+001 7.292705e+001 -6.750000e+001
      vertex   2.400000e+001 7.200000e+001 -6.700000e+001
      vertex   2.400000e+001 7.200000e+001 -6.800000e+001
    endloop
  endfacet
  facet normal 0.000000e+000 0.000000e+000 -1.000000e+000
    outer loop
      vertex   2.285410e+001 7.552671e+001 -6.800000e+001
      vertex   2.370634e+001 7.385410e+001 -6.800000e+001
      vertex   2.152671e+001 7.685410e+001 -6.800000e+001
    endloop
  endfacet
  facet normal -9.807848e-001 1.950924e-001 0.000000e+000
    outer loop
      vertex   2.059724e+001 7.148338e+001 -6.500000e+001
      vertex   2.070000e+001 7.200000e+001 -6.200000e+001
      vertex   2.070000e+001 7.200000e+001 -6.800000e+001
    endloop
  endfacet
  facet normal -9.807852e-001 1.950907e-001 -3.111801e-007
    outer loop
      vertex   2.059724e+001 7.148338e+001 -6.500000e+001
      vertex   2.070000e+001 7.200000e+001 -6.800000e+001
      vertex   2.049447e+001 7.096675e+001 -6.800000e+001
    endloop
  endfacet
  facet normal -9.807856e-001 1.950889e-001 0.000000e+000
    outer loop
      vertex   2.059724e+001 7.148338e+001 -6.500000e+001
      vertex   2.049447e+001 7.096675e+001 -6.800000e+001
      vertex   2.049447e+001 7.096675e+001 -6.200000e+001
    endloop
  endfacet
  facet normal 0.000000e+000 0.000000e+000 -1.000000e+000
    outer loop
      vertex   2.152671e+001 7.685410e+001 -6.800000e+001
      vertex   2.370634e+001 7.385410e+001 -6.800000e+001
      vertex   1.985410e+001 7.770634e+001 -6.800000e+001
    endloop
  endfacet
  facet normal -8.314710e-001 5.555681e-001 0.000000e+000
    outer loop
      vertex   2.020183e+001 7.052878e+001 -6.500000e+001
      vertex   2.049447e+001 7.096675e+001 -6.200000e+001
      vertex   2.049447e+001 7.096675e+001 -6.800000e+001
    endloop
  endfacet
  facet normal -8.314688e-001 5.555714e-001 7.072330e-007
    outer loop
      vertex   2.020183e+001 7.052878e+001 -6.500000e+001
      vertex   2.049447e+001 7.096675e+001 -6.800000e+001
      vertex   1.990919e+001 7.009081e+001 -6.800000e+001
    endloop
  endfacet
  facet normal -8.314666e-001 5.555748e-001 0.000000e+000
    outer loop
      vertex   2.020183e+001 7.052878e+001 -6.500000e+001
      vertex   1.990919e+001 7.009081e+001 -6.800000e+001
      vertex   1.990919e+001 7.009081e+001 -6.200000e+001
    endloop
  endfacet
  facet normal 0.000000e+000 0.000000e+000 -1.000000e+000
    outer loop
      vertex   2.370634e+001 7.385410e+001 -6.800000e+001
      vertex   2.400000e+001 7.200000e+001 -6.800000e+001
      vertex   1.985410e+001 7.770634e+001 -6.800000e+001
    endloop
  endfacet
  facet normal -5.555756e-001 8.314660e-001 0.000000e+000
    outer loop
      vertex   1.947122e+001 6.979816e+001 -6.500000e+001
      vertex   1.990919e+001 7.009081e+001 -6.200000e+001
      vertex   1.990919e+001 7.009081e+001 -6.800000e+001
    endloop
  endfacet
  facet normal -5.555714e-001 8.314688e-001 8.769632e-007
    outer loop
      vertex   1.947122e+001 6.979816e+001 -6.500000e+001
      vertex   1.990919e+001 7.009081e+001 -6.800000e+001
      vertex   1.903325e+001 6.950552e+001 -6.800000e+001
    endloop
  endfacet
  facet normal -5.555673e-001 8.314716e-001 0.000000e+000
    outer loop
      vertex   1.947122e+001 6.979816e+001 -6.500000e+001
      vertex   1.903325e+001 6.950552e+001 -6.800000e+001
      vertex   1.903325e+001 6.950552e+001 -6.200000e+001
    endloop
  endfacet
  facet normal 0.000000e+000 0.000000e+000 -1.000000e+000
    outer loop
      vertex   1.985410e+001 7.770634e+001 -6.800000e+001
      vertex   2.400000e+001 7.200000e+001 -6.800000e+001
      vertex   1.800000e+001 7.800000e+001 -6.800000e+001
    endloop
  endfacet
  facet normal -1.950861e-001 9.807861e-001 0.000000e+000
    outer loop
      vertex   1.851662e+001 6.940276e+001 -6.500000e+001
      vertex   1.903325e+001 6.950552e+001 -6.200000e+001
      vertex   1.903325e+001 6.950552e+001 -6.800000e+001
    endloop
  endfacet
  facet normal -1.950931e-001 9.807848e-001 -1.247082e-006
    outer loop
      vertex   1.851662e+001 6.940276e+001 -6.500000e+001
      vertex   1.903325e+001 6.950552e+001 -6.800000e+001
      vertex   1.800000e+001 6.930000e+001 -6.800000e+001
    endloop
  endfacet
  facet normal -1.951001e-001 9.807833e-001 0.000000e+000
    outer loop
      vertex   1.851662e+001 6.940276e+001 -6.500000e+001
      vertex   1.800000e+001 6.930000e+001 -6.800000e+001
      vertex   1.800000e+001 6.930000e+001 -6.200000e+001
    endloop
  endfacet
  facet normal 0.000000e+000 0.000000e+000 -1.000000e+000
    outer loop
      vertex   2.400000e+001 7.200000e+001 -6.800000e+001
      vertex   2.370634e+001 7.014590e+001 -6.800000e+001
      vertex   1.800000e+001 7.800000e+001 -6.800000e+001
    endloop
  endfacet
  facet normal 1.951001e-001 9.807833e-001 0.000000e+000
    outer loop
      vertex   1.748338e+001 6.940276e+001 -6.500000e+001
      vertex   1.800000e+001 6.930000e+001 -6.200000e+001
      vertex   1.800000e+001 6.930000e+001 -6.800000e+001
    endloop
  endfacet
  facet normal 1.950931e-001 9.807848e-001 -1.247082e-006
    outer loop
      vertex   1.748338e+001 6.940276e+001 -6.500000e+001
      vertex   1.800000e+001 6.930000e+001 -6.800000e+001
      vertex   1.696675e+001 6.950552e+001 -6.800000e+001
    endloop
  endfacet
  facet normal 1.950861e-001 9.807861e-001 -0.000000e+000
    outer loop
      vertex   1.748338e+001 6.940276e+001 -6.500000e+001
      vertex   1.696675e+001 6.950552e+001 -6.800000e+001
      vertex   1.696675e+001 6.950552e+001 -6.200000e+001
    endloop
  endfacet
  facet normal 0.000000e+000 0.000000e+000 -1.000000e+000
    outer loop
      vertex   1.800000e+001 7.800000e+001 -6.800000e+001
      vertex   2.370634e+001 7.014590e+001 -6.800000e+001
      vertex   1.614590e+001 7.770634e+001 -6.800000e+001
    endloop
  endfacet
  facet normal 5.555673e-001 8.314716e-001 0.000000e+000
    outer loop
      vertex   1.652878e+001 6.979816e+001 -6.500000e+001
      vertex   1.696675e+001 6.950552e+001 -6.200000e+001
      vertex   1.696675e+001 6.950552e+001 -6.800000e+001
    endloop
  endfacet
  facet normal 5.555723e-001 8.314682e-001 1.056129e-006
    outer loop
      vertex   1.652878e+001 6.979816e+001 -6.500000e+001
      vertex   1.696675e+001 6.950552e+001 -6.800000e+001
      vertex   1.609081e+001 7.009081e+001 -6.800000e+001
    endloop
  endfacet
  facet normal 5.555773e-001 8.314649e-001 -0.000000e+000
    outer loop
      vertex   1.652878e+001 6.979816e+001 -6.500000e+001
      vertex   1.609081e+001 7.009081e+001 -6.800000e+001
      vertex   1.609081e+001 7.009081e+001 -6.200000e+001
    endloop
  endfacet
  facet normal 0.000000e+000 0.000000e+000 -1.000000e+000
    outer loop
      vertex   2.370634e+001 7.014590e+001 -6.800000e+001
      vertex   2.285410e+001 6.847329e+001 -6.800000e+001
      vertex   2.049447e+001 7.303324e+001 -6.800000e+001
    endloop
  endfacet
  facet normal 8.314657e-001 5.555760e-001 0.000000e+000
    outer loop
      vertex   1.579817e+001 7.052878e+001 -6.500000e+001
      vertex   1.609081e+001 7.009081e+001 -6.200000e+001
      vertex   1.609081e+001 7.009081e+001 -6.800000e+001
    endloop
  endfacet
  facet normal 8.314679e-001 5.555727e-001 7.072322e-007
    outer loop
      vertex   1.579817e+001 7.052878e+001 -6.500000e+001
      vertex   1.609081e+001 7.009081e+001 -6.800000e+001
      vertex   1.550553e+001 7.096675e+001 -6.800000e+001
    endloop
  endfacet
  facet normal 0.000000e+000 0.000000e+000 -1.000000e+000
    outer loop
      vertex   1.229366e+001 7.014590e+001 -6.800000e+001
      vertex   1.447329e+001 6.714590e+001 -6.800000e+001
      vertex   1.314590e+001 6.847329e+001 -6.800000e+001
    endloop
  endfacet
  facet normal -5.555656e-001 -8.314728e-001 0.000000e+000
    outer loop
      vertex   1.947122e+001 7.420183e+001 -6.500000e+001
      vertex   1.990919e+001 7.390919e+001 -6.800000e+001
      vertex   1.990919e+001 7.390919e+001 -6.200000e+001
    endloop
  endfacet
  facet normal 9.807852e-001 1.950907e-001 0.000000e+000
    outer loop
      vertex   1.540276e+001 7.148338e+001 -6.500000e+001
      vertex   1.550553e+001 7.096675e+001 -6.200000e+001
      vertex   1.550553e+001 7.096675e+001 -6.800000e+001
    endloop
  endfacet
  facet normal 0.000000e+000 0.000000e+000 -1.000000e+000
    outer loop
      vertex   1.903325e+001 6.950552e+001 -6.800000e+001
      vertex   1.985410e+001 6.629366e+001 -6.800000e+001
      vertex   1.800000e+001 6.930000e+001 -6.800000e+001
    endloop
  endfacet
  facet normal 9.807856e-001 1.950889e-001 -0.000000e+000
    outer loop
      vertex   1.540276e+001 7.148338e+001 -6.500000e+001
      vertex   1.530000e+001 7.200000e+001 -6.800000e+001
      vertex   1.530000e+001 7.200000e+001 -6.200000e+001
    endloop
  endfacet
  facet normal 0.000000e+000 0.000000e+000 -1.000000e+000
    outer loop
      vertex   1.550553e+001 7.303324e+001 -6.800000e+001
      vertex   1.530000e+001 7.200000e+001 -6.800000e+001
      vertex   1.314590e+001 7.552671e+001 -6.800000e+001
    endloop
  endfacet
  facet normal 9.807856e-001 -1.950889e-001 0.000000e+000
    outer loop
      vertex   1.540276e+001 7.251662e+001 -6.500000e+001
      vertex   1.530000e+001 7.200000e+001 -6.200000e+001
      vertex   1.530000e+001 7.200000e+001 -6.800000e+001
    endloop
  endfacet
  facet normal 9.876883e-001 -1.564345e-001 -3.079909e-006
    outer loop
      vertex   2.385317e+001 7.107294e+001 -6.750000e+001
      vertex   2.370634e+001 7.014590e+001 -6.800000e+001
      vertex   2.400000e+001 7.200000e+001 -6.800000e+001
    endloop
  endfacet
  facet normal 9.807847e-001 -1.950934e-001 0.000000e+000
    outer loop
      vertex   1.540276e+001 7.251662e+001 -6.500000e+001
      vertex   1.550553e+001 7.303324e+001 -6.800000e+001
      vertex   1.550553e+001 7.303324e+001 -6.200000e+001
    endloop
  endfacet
  facet normal 0.000000e+000 0.000000e+000 -1.000000e+000
    outer loop
      vertex   1.990919e+001 7.009081e+001 -6.800000e+001
      vertex   2.152671e+001 6.714590e+001 -6.800000e+001
      vertex   1.903325e+001 6.950552e+001 -6.800000e+001
    endloop
  endfacet
  facet normal 8.314702e-001 -5.555694e-001 0.000000e+000
    outer loop
      vertex   1.579817e+001 7.347121e+001 -6.500000e+001
      vertex   1.550553e+001 7.303324e+001 -6.200000e+001
      vertex   1.550553e+001 7.303324e+001 -6.800000e+001
    endloop
  endfacet
  facet normal -8.314710e-001 -5.555681e-001 -0.000000e+000
    outer loop
      vertex   2.020183e+001 7.347121e+001 -6.500000e+001
      vertex   1.990919e+001 7.390919e+001 -6.200000e+001
      vertex   1.990919e+001 7.390919e+001 -6.800000e+001
    endloop
  endfacet
  facet normal 8.314702e-001 -5.555694e-001 0.000000e+000
    outer loop
      vertex   1.579817e+001 7.347121e+001 -6.500000e+001
      vertex   1.609081e+001 7.390919e+001 -6.800000e+001
      vertex   1.609081e+001 7.390919e+001 -6.200000e+001
    endloop
  endfacet
  facet normal 0.000000e+000 0.000000e+000 -1.000000e+000
    outer loop
      vertex   1.609081e+001 7.390919e+001 -6.800000e+001
      vertex   1.550553e+001 7.303324e+001 -6.800000e+001
      vertex   1.314590e+001 7.552671e+001 -6.800000e+001
    endloop
  endfacet
  facet normal 5.555673e-001 -8.314716e-001 0.000000e+000
    outer loop
      vertex   1.652878e+001 7.420183e+001 -6.500000e+001
      vertex   1.609081e+001 7.390919e+001 -6.200000e+001
      vertex   1.609081e+001 7.390919e+001 -6.800000e+001
    endloop
  endfacet
  facet normal -8.314710e-001 -5.555681e-001 0.000000e+000
    outer loop
      vertex   2.020183e+001 7.347121e+001 -6.500000e+001
      vertex   2.049447e+001 7.303324e+001 -6.800000e+001
      vertex   2.049447e+001 7.303324e+001 -6.200000e+001
    endloop
  endfacet
  facet normal 5.555773e-001 -8.314649e-001 0.000000e+000
    outer loop
      vertex   1.652878e+001 7.420183e+001 -6.500000e+001
      vertex   1.696675e+001 7.449448e+001 -6.800000e+001
      vertex   1.696675e+001 7.449448e+001 -6.200000e+001
    endloop
  endfacet
  facet normal 0.000000e+000 0.000000e+000 -1.000000e+000
    outer loop
      vertex   1.530000e+001 7.200000e+001 -6.800000e+001
      vertex   1.550553e+001 7.096675e+001 -6.800000e+001
      vertex   1.229366e+001 7.385410e+001 -6.800000e+001
    endloop
  endfacet
  facet normal 1.950861e-001 -9.807861e-001 0.000000e+000
    outer loop
      vertex   1.748338e+001 7.459724e+001 -6.500000e+001
      vertex   1.696675e+001 7.449448e+001 -6.200000e+001
      vertex   1.696675e+001 7.449448e+001 -6.800000e+001
    endloop
  endfacet
  facet normal 0.000000e+000 0.000000e+000 -1.000000e+000
    outer loop
      vertex   1.800000e+001 6.930000e+001 -6.800000e+001
      vertex   1.985410e+001 6.629366e+001 -6.800000e+001
      vertex   1.696675e+001 6.950552e+001 -6.800000e+001
    endloop
  endfacet
  facet normal 1.950861e-001 -9.807861e-001 0.000000e+000
    outer loop
      vertex   1.748338e+001 7.459724e+001 -6.500000e+001
      vertex   1.800000e+001 7.470000e+001 -6.800000e+001
      vertex   1.800000e+001 7.470000e+001 -6.200000e+001
    endloop
  endfacet
  facet normal -9.807850e-001 -1.950917e-001 -0.000000e+000
    outer loop
      vertex   2.059724e+001 7.251662e+001 -6.500000e+001
      vertex   2.049447e+001 7.303324e+001 -6.200000e+001
      vertex   2.049447e+001 7.303324e+001 -6.800000e+001
    endloop
  endfacet
  facet normal -1.950861e-001 -9.807861e-001 -0.000000e+000
    outer loop
      vertex   1.851662e+001 7.459724e+001 -6.500000e+001
      vertex   1.800000e+001 7.470000e+001 -6.200000e+001
      vertex   1.800000e+001 7.470000e+001 -6.800000e+001
    endloop
  endfacet
  facet normal 0.000000e+000 0.000000e+000 -1.000000e+000
    outer loop
      vertex   1.696675e+001 6.950552e+001 -6.800000e+001
      vertex   1.985410e+001 6.629366e+001 -6.800000e+001
      vertex   1.609081e+001 7.009081e+001 -6.800000e+001
    endloop
  endfacet
  facet normal -1.950861e-001 -9.807861e-001 0.000000e+000
    outer loop
      vertex   1.851662e+001 7.459724e+001 -6.500000e+001
      vertex   1.903325e+001 7.449448e+001 -6.800000e+001
      vertex   1.903325e+001 7.449448e+001 -6.200000e+001
    endloop
  endfacet
  facet normal 0.000000e+000 0.000000e+000 -1.000000e+000
    outer loop
      vertex   1.550553e+001 7.096675e+001 -6.800000e+001
      vertex   1.609081e+001 7.009081e+001 -6.800000e+001
      vertex   1.229366e+001 7.385410e+001 -6.800000e+001
    endloop
  endfacet
  facet normal -5.555773e-001 -8.314649e-001 -0.000000e+000
    outer loop
      vertex   1.947122e+001 7.420183e+001 -6.500000e+001
      vertex   1.903325e+001 7.449448e+001 -6.200000e+001
      vertex   1.903325e+001 7.449448e+001 -6.800000e+001
    endloop
  endfacet
  facet normal 0.000000e+000 0.000000e+000 -1.000000e+000
    outer loop
      vertex   1.985410e+001 6.629366e+001 -6.800000e+001
      vertex   1.800000e+001 6.600000e+001 -6.800000e+001
      vertex   1.609081e+001 7.009081e+001 -6.800000e+001
    endloop
  endfacet
  facet normal 0.000000e+000 0.000000e+000 -1.000000e+000
    outer loop
      vertex   1.314590e+001 7.552671e+001 -6.800000e+001
      vertex   1.530000e+001 7.200000e+001 -6.800000e+001
      vertex   1.229366e+001 7.385410e+001 -6.800000e+001
    endloop
  endfacet
  facet normal 0.000000e+000 0.000000e+000 -1.000000e+000
    outer loop
      vertex   1.696675e+001 7.449448e+001 -6.800000e+001
      vertex   1.609081e+001 7.390919e+001 -6.800000e+001
      vertex   1.447329e+001 7.685410e+001 -6.800000e+001
    endloop
  endfacet
  facet normal 0.000000e+000 0.000000e+000 -1.000000e+000
    outer loop
      vertex   1.614590e+001 6.629366e+001 -6.800000e+001
      vertex   1.447329e+001 6.714590e+001 -6.800000e+001
      vertex   1.229366e+001 7.014590e+001 -6.800000e+001
    endloop
  endfacet
  facet normal 0.000000e+000 0.000000e+000 -1.000000e+000
    outer loop
      vertex   1.447329e+001 7.685410e+001 -6.800000e+001
      vertex   1.609081e+001 7.390919e+001 -6.800000e+001
      vertex   1.314590e+001 7.552671e+001 -6.800000e+001
    endloop
  endfacet
  facet normal 0.000000e+000 0.000000e+000 -1.000000e+000
    outer loop
      vertex   1.200000e+001 7.200000e+001 -6.800000e+001
      vertex   1.614590e+001 6.629366e+001 -6.800000e+001
      vertex   1.229366e+001 7.014590e+001 -6.800000e+001
    endloop
  endfacet
  facet normal 0.000000e+000 0.000000e+000 -1.000000e+000
    outer loop
      vertex   1.609081e+001 7.009081e+001 -6.800000e+001
      vertex   1.800000e+001 6.600000e+001 -6.800000e+001
      vertex   1.229366e+001 7.385410e+001 -6.800000e+001
    endloop
  endfacet
  facet normal 0.000000e+000 0.000000e+000 -1.000000e+000
    outer loop
      vertex   1.800000e+001 6.600000e+001 -6.800000e+001
      vertex   1.614590e+001 6.629366e+001 -6.800000e+001
      vertex   1.200000e+001 7.200000e+001 -6.800000e+001
    endloop
  endfacet
  facet normal 0.000000e+000 0.000000e+000 -1.000000e+000
    outer loop
      vertex   1.229366e+001 7.385410e+001 -6.800000e+001
      vertex   1.800000e+001 6.600000e+001 -6.800000e+001
      vertex   1.200000e+001 7.200000e+001 -6.800000e+001
    endloop
  endfacet
  facet normal 0.000000e+000 0.000000e+000 -1.000000e+000
    outer loop
      vertex   2.049447e+001 7.096675e+001 -6.800000e+001
      vertex   2.152671e+001 6.714590e+001 -6.800000e+001
      vertex   1.990919e+001 7.009081e+001 -6.800000e+001
    endloop
  endfacet
  facet normal 8.910066e-001 4.539904e-001 -1.714592e-006
    outer loop
      vertex   2.328022e+001 7.469041e+001 -6.750000e+001
      vertex   2.285410e+001 7.552671e+001 -6.700000e+001
      vertex   2.370634e+001 7.385410e+001 -6.700000e+001
    endloop
  endfacet
  facet normal -9.876883e-001 -1.564345e-001 1.206562e-006
    outer loop
      vertex   1.214683e+001 7.107294e+001 -6.750000e+001
      vertex   1.229366e+001 7.014590e+001 -6.700000e+001
      vertex   1.200000e+001 7.200000e+001 -6.700000e+001
    endloop
  endfacet
  facet normal 1.564356e-001 -9.876882e-001 7.842662e-006
    outer loop
      vertex   1.892705e+001 6.614683e+001 -6.750000e+001
      vertex   1.985410e+001 6.629366e+001 -6.700000e+001
      vertex   1.800000e+001 6.600000e+001 -6.700000e+001
    endloop
  endfacet
  facet normal 1.564356e-001 9.876882e-001 7.842662e-006
    outer loop
      vertex   1.892705e+001 7.785317e+001 -6.750000e+001
      vertex   1.800000e+001 7.800000e+001 -6.700000e+001
      vertex   1.985410e+001 7.770634e+001 -6.700000e+001
    endloop
  endfacet
  facet normal -1.564356e-001 -9.876882e-001 7.842662e-006
    outer loop
      vertex   1.707295e+001 6.614683e+001 -6.750000e+001
      vertex   1.800000e+001 6.600000e+001 -6.700000e+001
      vertex   1.614590e+001 6.629366e+001 -6.700000e+001
    endloop
  endfacet
  facet normal -4.539890e-001 8.910073e-001 4.445234e-007
    outer loop
      vertex   1.530959e+001 7.728022e+001 -6.750000e+001
      vertex   1.447329e+001 7.685410e+001 -6.700000e+001
      vertex   1.614590e+001 7.770634e+001 -6.700000e+001
    endloop
  endfacet
  facet normal -7.071073e-001 7.071063e-001 0.000000e+000
    outer loop
      vertex   1.380959e+001 7.619041e+001 -6.750000e+001
      vertex   1.314590e+001 7.552671e+001 -6.700000e+001
      vertex   1.447329e+001 7.685410e+001 -6.700000e+001
    endloop
  endfacet
  facet normal -8.910064e-001 4.539908e-001 -8.890474e-007
    outer loop
      vertex   1.271978e+001 7.469041e+001 -6.750000e+001
      vertex   1.229366e+001 7.385410e+001 -6.700000e+001
      vertex   1.314590e+001 7.552671e+001 -6.700000e+001
    endloop
  endfacet
  facet normal -9.876883e-001 1.564345e-001 -1.206562e-006
    outer loop
      vertex   1.214683e+001 7.292705e+001 -6.750000e+001
      vertex   1.200000e+001 7.200000e+001 -6.700000e+001
      vertex   1.229366e+001 7.385410e+001 -6.700000e+001
    endloop
  endfacet
  facet normal 7.071073e-001 7.071063e-001 -1.333568e-006
    outer loop
      vertex   2.219041e+001 7.619041e+001 -6.750000e+001
      vertex   2.152671e+001 7.685410e+001 -6.700000e+001
      vertex   2.285410e+001 7.552671e+001 -6.700000e+001
    endloop
  endfacet
  facet normal -7.071073e-001 -7.071063e-001 0.000000e+000
    outer loop
      vertex   1.380959e+001 6.780959e+001 -6.750000e+001
      vertex   1.447329e+001 6.714590e+001 -6.700000e+001
      vertex   1.314590e+001 6.847329e+001 -6.700000e+001
    endloop
  endfacet
  facet normal -8.910064e-001 -4.539908e-001 -8.255441e-007
    outer loop
      vertex   1.271978e+001 6.930959e+001 -6.750000e+001
      vertex   1.314590e+001 6.847329e+001 -6.700000e+001
      vertex   1.229366e+001 7.014590e+001 -6.700000e+001
    endloop
  endfacet
  facet normal 4.539888e-001 8.910074e-001 0.000000e+000
    outer loop
      vertex   2.069041e+001 7.728022e+001 -6.750000e+001
      vertex   1.985410e+001 7.770634e+001 -6.700000e+001
      vertex   2.152671e+001 7.685410e+001 -6.700000e+001
    endloop
  endfacet
  facet normal 4.539888e-001 -8.910074e-001 0.000000e+000
    outer loop
      vertex   2.069041e+001 6.671978e+001 -6.750000e+001
      vertex   2.152671e+001 6.714590e+001 -6.700000e+001
      vertex   1.985410e+001 6.629366e+001 -6.700000e+001
    endloop
  endfacet
  facet normal 7.071073e-001 -7.071063e-001 -1.333568e-006
    outer loop
      vertex   2.219041e+001 6.780959e+001 -6.750000e+001
      vertex   2.285410e+001 6.847329e+001 -6.700000e+001
      vertex   2.152671e+001 6.714590e+001 -6.700000e+001
    endloop
  endfacet
  facet normal 8.910066e-001 -4.539904e-001 -1.714592e-006
    outer loop
      vertex   2.328022e+001 6.930959e+001 -6.750000e+001
      vertex   2.370634e+001 7.014590e+001 -6.700000e+001
      vertex   2.285410e+001 6.847329e+001 -6.700000e+001
    endloop
  endfacet
  facet normal 9.876883e-001 -1.564345e-001 3.079909e-006
    outer loop
      vertex   2.385317e+001 7.107294e+001 -6.750000e+001
      vertex   2.400000e+001 7.200000e+001 -6.700000e+001
      vertex   2.370634e+001 7.014590e+001 -6.700000e+001
    endloop
  endfacet
  facet normal -1.564356e-001 9.876882e-001 7.842662e-006
    outer loop
      vertex   1.707295e+001 7.785317e+001 -6.750000e+001
      vertex   1.614590e+001 7.770634e+001 -6.700000e+001
      vertex   1.800000e+001 7.800000e+001 -6.700000e+001
    endloop
  endfacet
  facet normal -4.539890e-001 -8.910073e-001 3.810201e-007
    outer loop
      vertex   1.530959e+001 6.671978e+001 -6.750000e+001
      vertex   1.614590e+001 6.629366e+001 -6.700000e+001
      vertex   1.447329e+001 6.714590e+001 -6.700000e+001
    endloop
  endfacet
  facet normal 9.876883e-001 1.564345e-001 6.985360e-007
    outer loop
      vertex   2.385317e+001 7.292705e+001 -6.750000e+001
      vertex   2.370634e+001 7.385410e+001 -6.700000e+001
      vertex   2.400000e+001 7.200000e+001 -6.700000e+001
    endloop
  endfacet
  facet normal -4.457398e-001 8.951626e-001 -1.280446e-006
    outer loop
      vertex   1.633504e+001 7.534370e+001 -6.450000e+001
      vertex   1.696008e+001 7.565494e+001 -6.700000e+001
      vertex   1.570999e+001 7.503246e+001 -6.700000e+001
    endloop
  endfacet
  facet normal -4.457357e-001 -8.951646e-001 0.000000e+000
    outer loop
      vertex   1.633504e+001 6.865630e+001 -6.450000e+001
      vertex   1.696008e+001 6.834506e+001 -6.700000e+001
      vertex   1.696008e+001 6.834506e+001 -6.200000e+001
    endloop
  endfacet
  facet normal -9.227420e-002 -9.957336e-001 -0.000000e+000
    outer loop
      vertex   1.765535e+001 6.828063e+001 -6.450000e+001
      vertex   1.696008e+001 6.834506e+001 -6.200000e+001
      vertex   1.696008e+001 6.834506e+001 -6.700000e+001
    endloop
  endfacet
  facet normal -4.457439e-001 -8.951605e-001 -0.000000e+000
    outer loop
      vertex   1.633504e+001 6.865630e+001 -6.450000e+001
      vertex   1.570999e+001 6.896754e+001 -6.200000e+001
      vertex   1.570999e+001 6.896754e+001 -6.700000e+001
    endloop
  endfacet
  facet normal -7.390079e-001 -6.736968e-001 -8.877776e-007
    outer loop
      vertex   1.523958e+001 6.948354e+001 -6.450000e+001
      vertex   1.476917e+001 6.999956e+001 -6.700000e+001
      vertex   1.570999e+001 6.896754e+001 -6.700000e+001
    endloop
  endfacet
  facet normal -7.390057e-001 -6.736991e-001 0.000000e+000
    outer loop
      vertex   1.523958e+001 6.948354e+001 -6.450000e+001
      vertex   1.570999e+001 6.896754e+001 -6.700000e+001
      vertex   1.570999e+001 6.896754e+001 -6.200000e+001
    endloop
  endfacet
  facet normal -9.226311e-002 -9.957346e-001 0.000000e+000
    outer loop
      vertex   1.765535e+001 6.828063e+001 -6.450000e+001
      vertex   1.835062e+001 6.821621e+001 -6.700000e+001
      vertex   1.835062e+001 6.821621e+001 -6.200000e+001
    endloop
  endfacet
  facet normal -7.390100e-001 -6.736945e-001 -0.000000e+000
    outer loop
      vertex   1.523958e+001 6.948354e+001 -6.450000e+001
      vertex   1.476917e+001 6.999956e+001 -6.200000e+001
      vertex   1.476917e+001 6.999956e+001 -6.700000e+001
    endloop
  endfacet
  facet normal -9.324723e-001 -3.612414e-001 -3.670618e-007
    outer loop
      vertex   1.451694e+001 7.065065e+001 -6.450000e+001
      vertex   1.426470e+001 7.130175e+001 -6.700000e+001
      vertex   1.476917e+001 6.999956e+001 -6.700000e+001
    endloop
  endfacet
  facet normal -9.324719e-001 -3.612427e-001 0.000000e+000
    outer loop
      vertex   1.451694e+001 7.065065e+001 -6.450000e+001
      vertex   1.476917e+001 6.999956e+001 -6.700000e+001
      vertex   1.476917e+001 6.999956e+001 -6.200000e+001
    endloop
  endfacet
  facet normal -9.226865e-002 -9.957341e-001 -1.555743e-006
    outer loop
      vertex   1.765535e+001 6.828063e+001 -6.450000e+001
      vertex   1.696008e+001 6.834506e+001 -6.700000e+001
      vertex   1.835062e+001 6.821621e+001 -6.700000e+001
    endloop
  endfacet
  facet normal -9.324728e-001 -3.612402e-001 -0.000000e+000
    outer loop
      vertex   1.451694e+001 7.065065e+001 -6.450000e+001
      vertex   1.426470e+001 7.130175e+001 -6.200000e+001
      vertex   1.426470e+001 7.130175e+001 -6.700000e+001
    endloop
  endfacet
  facet normal -1.000000e+000 0.000000e+000 0.000000e+000
    outer loop
      vertex   1.426470e+001 7.200000e+001 -6.450000e+001
      vertex   1.426470e+001 7.269825e+001 -6.700000e+001
      vertex   1.426470e+001 7.130175e+001 -6.700000e+001
    endloop
  endfacet
  facet normal -1.000000e+000 0.000000e+000 0.000000e+000
    outer loop
      vertex   1.426470e+001 7.200000e+001 -6.450000e+001
      vertex   1.426470e+001 7.130175e+001 -6.700000e+001
      vertex   1.426470e+001 7.130175e+001 -6.200000e+001
    endloop
  endfacet
  facet normal 2.736646e-001 -9.618252e-001 0.000000e+000
    outer loop
      vertex   1.902221e+001 6.840730e+001 -6.450000e+001
      vertex   1.969381e+001 6.859838e+001 -6.700000e+001
      vertex   1.969381e+001 6.859838e+001 -6.200000e+001
    endloop
  endfacet
  facet normal -1.000000e+000 0.000000e+000 -0.000000e+000
    outer loop
      vertex   1.426470e+001 7.200000e+001 -6.450000e+001
      vertex   1.426470e+001 7.269825e+001 -6.200000e+001
      vertex   1.426470e+001 7.269825e+001 -6.700000e+001
    endloop
  endfacet
  facet normal -9.324723e-001 3.612414e-001 7.255874e-007
    outer loop
      vertex   1.451694e+001 7.334934e+001 -6.450000e+001
      vertex   1.476917e+001 7.400044e+001 -6.700000e+001
      vertex   1.426470e+001 7.269825e+001 -6.700000e+001
    endloop
  endfacet
  facet normal -9.324713e-001 3.612439e-001 0.000000e+000
    outer loop
      vertex   1.451694e+001 7.334934e+001 -6.450000e+001
      vertex   1.426470e+001 7.269825e+001 -6.700000e+001
      vertex   1.426470e+001 7.269825e+001 -6.200000e+001
    endloop
  endfacet
  facet normal 2.736646e-001 -9.618252e-001 0.000000e+000
    outer loop
      vertex   1.902221e+001 6.840730e+001 -6.450000e+001
      vertex   1.835062e+001 6.821621e+001 -6.700000e+001
      vertex   1.969381e+001 6.859838e+001 -6.700000e+001
    endloop
  endfacet
  facet normal -9.324732e-001 3.612390e-001 0.000000e+000
    outer loop
      vertex   1.451694e+001 7.334934e+001 -6.450000e+001
      vertex   1.476917e+001 7.400044e+001 -6.200000e+001
      vertex   1.476917e+001 7.400044e+001 -6.700000e+001
    endloop
  endfacet
  facet normal -7.390079e-001 6.736968e-001 -8.877776e-007
    outer loop
      vertex   1.523958e+001 7.451646e+001 -6.450000e+001
      vertex   1.570999e+001 7.503246e+001 -6.700000e+001
      vertex   1.476917e+001 7.400044e+001 -6.700000e+001
    endloop
  endfacet
  facet normal -7.390100e-001 6.736945e-001 0.000000e+000
    outer loop
      vertex   1.523958e+001 7.451646e+001 -6.450000e+001
      vertex   1.476917e+001 7.400044e+001 -6.700000e+001
      vertex   1.476917e+001 7.400044e+001 -6.200000e+001
    endloop
  endfacet
  facet normal 6.026300e-001 -7.980207e-001 0.000000e+000
    outer loop
      vertex   2.025102e+001 6.901917e+001 -6.450000e+001
      vertex   1.969381e+001 6.859838e+001 -6.200000e+001
      vertex   1.969381e+001 6.859838e+001 -6.700000e+001
    endloop
  endfacet
  facet normal -7.390057e-001 6.736991e-001 0.000000e+000
    outer loop
      vertex   1.523958e+001 7.451646e+001 -6.450000e+001
      vertex   1.570999e+001 7.503246e+001 -6.200000e+001
      vertex   1.570999e+001 7.503246e+001 -6.700000e+001
    endloop
  endfacet
  facet normal -4.457398e-001 -8.951626e-001 -1.280446e-006
    outer loop
      vertex   1.633504e+001 6.865630e+001 -6.450000e+001
      vertex   1.570999e+001 6.896754e+001 -6.700000e+001
      vertex   1.696008e+001 6.834506e+001 -6.700000e+001
    endloop
  endfacet
  facet normal -4.457439e-001 8.951605e-001 0.000000e+000
    outer loop
      vertex   1.633504e+001 7.534370e+001 -6.450000e+001
      vertex   1.570999e+001 7.503246e+001 -6.700000e+001
      vertex   1.570999e+001 7.503246e+001 -6.200000e+001
    endloop
  endfacet
  facet normal 6.026383e-001 -7.980145e-001 0.000000e+000
    outer loop
      vertex   2.025102e+001 6.901917e+001 -6.450000e+001
      vertex   2.080823e+001 6.943996e+001 -6.700000e+001
      vertex   2.080823e+001 6.943996e+001 -6.200000e+001
    endloop
  endfacet
  facet normal -4.457357e-001 8.951646e-001 0.000000e+000
    outer loop
      vertex   1.633504e+001 7.534370e+001 -6.450000e+001
      vertex   1.696008e+001 7.565494e+001 -6.200000e+001
      vertex   1.696008e+001 7.565494e+001 -6.700000e+001
    endloop
  endfacet
  facet normal -9.226865e-002 9.957341e-001 1.485318e-006
    outer loop
      vertex   1.765535e+001 7.571936e+001 -6.450000e+001
      vertex   1.835062e+001 7.578379e+001 -6.700000e+001
      vertex   1.696008e+001 7.565494e+001 -6.700000e+001
    endloop
  endfacet
  facet normal -9.226336e-002 9.957346e-001 0.000000e+000
    outer loop
      vertex   1.765535e+001 7.571936e+001 -6.450000e+001
      vertex   1.696008e+001 7.565494e+001 -6.700000e+001
      vertex   1.696008e+001 7.565494e+001 -6.200000e+001
    endloop
  endfacet
  facet normal 6.026341e-001 -7.980176e-001 -1.451174e-006
    outer loop
      vertex   2.025102e+001 6.901917e+001 -6.450000e+001
      vertex   1.969381e+001 6.859838e+001 -6.700000e+001
      vertex   2.080823e+001 6.943996e+001 -6.700000e+001
    endloop
  endfacet
  facet normal -9.227394e-002 9.957336e-001 0.000000e+000
    outer loop
      vertex   1.765535e+001 7.571936e+001 -6.450000e+001
      vertex   1.835062e+001 7.578379e+001 -6.200000e+001
      vertex   1.835062e+001 7.578379e+001 -6.700000e+001
    endloop
  endfacet
  facet normal 2.736646e-001 9.618252e-001 0.000000e+000
    outer loop
      vertex   1.902221e+001 7.559270e+001 -6.450000e+001
      vertex   1.969381e+001 7.540162e+001 -6.700000e+001
      vertex   1.835062e+001 7.578379e+001 -6.700000e+001
    endloop
  endfacet
  facet normal 2.736646e-001 9.618252e-001 -0.000000e+000
    outer loop
      vertex   1.902221e+001 7.559270e+001 -6.450000e+001
      vertex   1.835062e+001 7.578379e+001 -6.700000e+001
      vertex   1.835062e+001 7.578379e+001 -6.200000e+001
    endloop
  endfacet
  facet normal 8.502154e-001 -5.264350e-001 0.000000e+000
    outer loop
      vertex   2.117581e+001 7.003362e+001 -6.450000e+001
      vertex   2.080823e+001 6.943996e+001 -6.200000e+001
      vertex   2.080823e+001 6.943996e+001 -6.700000e+001
    endloop
  endfacet
  facet normal 2.736646e-001 9.618252e-001 0.000000e+000
    outer loop
      vertex   1.902221e+001 7.559270e+001 -6.450000e+001
      vertex   1.969381e+001 7.540162e+001 -6.200000e+001
      vertex   1.969381e+001 7.540162e+001 -6.700000e+001
    endloop
  endfacet
  facet normal 6.026341e-001 7.980176e-001 -1.442638e-006
    outer loop
      vertex   2.025102e+001 7.498083e+001 -6.450000e+001
      vertex   2.080823e+001 7.456004e+001 -6.700000e+001
      vertex   1.969381e+001 7.540162e+001 -6.700000e+001
    endloop
  endfacet
  facet normal 6.026300e-001 7.980207e-001 -0.000000e+000
    outer loop
      vertex   2.025102e+001 7.498083e+001 -6.450000e+001
      vertex   1.969381e+001 7.540162e+001 -6.700000e+001
      vertex   1.969381e+001 7.540162e+001 -6.200000e+001
    endloop
  endfacet
  facet normal 8.502184e-001 -5.264300e-001 0.000000e+000
    outer loop
      vertex   2.117581e+001 7.003362e+001 -6.450000e+001
      vertex   2.154339e+001 7.062728e+001 -6.700000e+001
      vertex   2.154339e+001 7.062728e+001 -6.200000e+001
    endloop
  endfacet
  facet normal 6.026383e-001 7.980145e-001 0.000000e+000
    outer loop
      vertex   2.025102e+001 7.498083e+001 -6.450000e+001
      vertex   2.080823e+001 7.456004e+001 -6.200000e+001
      vertex   2.080823e+001 7.456004e+001 -6.700000e+001
    endloop
  endfacet
  facet normal 8.502170e-001 5.264325e-001 8.024136e-007
    outer loop
      vertex   2.117581e+001 7.396638e+001 -6.450000e+001
      vertex   2.154339e+001 7.337272e+001 -6.700000e+001
      vertex   2.080823e+001 7.456004e+001 -6.700000e+001
    endloop
  endfacet
  facet normal 8.502184e-001 5.264300e-001 -0.000000e+000
    outer loop
      vertex   2.117581e+001 7.396638e+001 -6.450000e+001
      vertex   2.080823e+001 7.456004e+001 -6.700000e+001
      vertex   2.080823e+001 7.456004e+001 -6.200000e+001
    endloop
  endfacet
  facet normal 8.502170e-001 -5.264325e-001 -8.024136e-007
    outer loop
      vertex   2.117581e+001 7.003362e+001 -6.450000e+001
      vertex   2.080823e+001 6.943996e+001 -6.700000e+001
      vertex   2.154339e+001 7.062728e+001 -6.700000e+001
    endloop
  endfacet
  facet normal 8.502154e-001 5.264350e-001 0.000000e+000
    outer loop
      vertex   2.117581e+001 7.396638e+001 -6.450000e+001
      vertex   2.154339e+001 7.337272e+001 -6.200000e+001
      vertex   2.154339e+001 7.337272e+001 -6.700000e+001
    endloop
  endfacet
  facet normal 9.829732e-001 1.837492e-001 -9.389941e-008
    outer loop
      vertex   2.167170e+001 7.268636e+001 -6.450000e+001
      vertex   2.180000e+001 7.200000e+001 -6.700000e+001
      vertex   2.154339e+001 7.337272e+001 -6.700000e+001
    endloop
  endfacet
  facet normal 9.829731e-001 1.837495e-001 -0.000000e+000
    outer loop
      vertex   2.167170e+001 7.268636e+001 -6.450000e+001
      vertex   2.154339e+001 7.337272e+001 -6.700000e+001
      vertex   2.154339e+001 7.337272e+001 -6.200000e+001
    endloop
  endfacet
  facet normal 9.829728e-001 -1.837515e-001 0.000000e+000
    outer loop
      vertex   2.167170e+001 7.131364e+001 -6.450000e+001
      vertex   2.154339e+001 7.062728e+001 -6.200000e+001
      vertex   2.154339e+001 7.062728e+001 -6.700000e+001
    endloop
  endfacet
  facet normal 9.829732e-001 1.837489e-001 0.000000e+000
    outer loop
      vertex   2.167170e+001 7.268636e+001 -6.450000e+001
      vertex   2.180000e+001 7.200000e+001 -6.200000e+001
      vertex   2.180000e+001 7.200000e+001 -6.700000e+001
    endloop
  endfacet
  facet normal 9.829736e-001 -1.837469e-001 0.000000e+000
    outer loop
      vertex   2.167170e+001 7.131364e+001 -6.450000e+001
      vertex   2.180000e+001 7.200000e+001 -6.700000e+001
      vertex   2.180000e+001 7.200000e+001 -6.200000e+001
    endloop
  endfacet
  facet normal 9.829732e-001 -1.837492e-001 -6.530277e-007
    outer loop
      vertex   2.167170e+001 7.131364e+001 -6.450000e+001
      vertex   2.154339e+001 7.062728e+001 -6.700000e+001
      vertex   2.180000e+001 7.200000e+001 -6.700000e+001
    endloop
  endfacet
  facet normal 2.736646e-001 -9.618252e-001 0.000000e+000
    outer loop
      vertex   1.902221e+001 6.840730e+001 -6.450000e+001
      vertex   1.835062e+001 6.821621e+001 -6.200000e+001
      vertex   1.835062e+001 6.821621e+001 -6.700000e+001
    endloop
  endfacet
  facet normal 0.000000e+000 0.000000e+000 1.000000e+000
    outer loop
      vertex   1.696008e+001 7.565494e+001 -6.700000e+001
      vertex   1.447329e+001 7.685410e+001 -6.700000e+001
      vertex   1.570999e+001 7.503246e+001 -6.700000e+001
    endloop
  endfacet
  facet normal -0.000000e+000 0.000000e+000 1.000000e+000
    outer loop
      vertex   1.614590e+001 7.770634e+001 -6.700000e+001
      vertex   1.447329e+001 7.685410e+001 -6.700000e+001
      vertex   1.696008e+001 7.565494e+001 -6.700000e+001
    endloop
  endfacet
  facet normal -0.000000e+000 0.000000e+000 1.000000e+000
    outer loop
      vertex   1.447329e+001 7.685410e+001 -6.700000e+001
      vertex   1.314590e+001 7.552671e+001 -6.700000e+001
      vertex   1.570999e+001 7.503246e+001 -6.700000e+001
    endloop
  endfacet
  facet normal 0.000000e+000 0.000000e+000 1.000000e+000
    outer loop
      vertex   2.285410e+001 7.552671e+001 -6.700000e+001
      vertex   2.152671e+001 7.685410e+001 -6.700000e+001
      vertex   2.370634e+001 7.385410e+001 -6.700000e+001
    endloop
  endfacet
  facet normal 0.000000e+000 0.000000e+000 1.000000e+000
    outer loop
      vertex   2.152671e+001 7.685410e+001 -6.700000e+001
      vertex   1.985410e+001 7.770634e+001 -6.700000e+001
      vertex   2.370634e+001 7.385410e+001 -6.700000e+001
    endloop
  endfacet
  facet normal 0.000000e+000 0.000000e+000 1.000000e+000
    outer loop
      vertex   2.370634e+001 7.385410e+001 -6.700000e+001
      vertex   1.985410e+001 7.770634e+001 -6.700000e+001
      vertex   2.400000e+001 7.200000e+001 -6.700000e+001
    endloop
  endfacet
  facet normal 0.000000e+000 0.000000e+000 1.000000e+000
    outer loop
      vertex   1.985410e+001 7.770634e+001 -6.700000e+001
      vertex   1.800000e+001 7.800000e+001 -6.700000e+001
      vertex   2.400000e+001 7.200000e+001 -6.700000e+001
    endloop
  endfacet
  facet normal 0.000000e+000 0.000000e+000 1.000000e+000
    outer loop
      vertex   2.400000e+001 7.200000e+001 -6.700000e+001
      vertex   2.080823e+001 7.456004e+001 -6.700000e+001
      vertex   2.370634e+001 7.014590e+001 -6.700000e+001
    endloop
  endfacet
  facet normal 0.000000e+000 0.000000e+000 1.000000e+000
    outer loop
      vertex   2.400000e+001 7.200000e+001 -6.700000e+001
      vertex   1.800000e+001 7.800000e+001 -6.700000e+001
      vertex   2.080823e+001 7.456004e+001 -6.700000e+001
    endloop
  endfacet
  facet normal -0.000000e+000 0.000000e+000 1.000000e+000
    outer loop
      vertex   1.800000e+001 7.800000e+001 -6.700000e+001
      vertex   1.614590e+001 7.770634e+001 -6.700000e+001
      vertex   1.969381e+001 7.540162e+001 -6.700000e+001
    endloop
  endfacet
  facet normal -0.000000e+000 -0.000000e+000 1.000000e+000
    outer loop
      vertex   1.800000e+001 7.800000e+001 -6.700000e+001
      vertex   1.969381e+001 7.540162e+001 -6.700000e+001
      vertex   2.080823e+001 7.456004e+001 -6.700000e+001
    endloop
  endfacet
  facet normal -0.000000e+000 -0.000000e+000 1.000000e+000
    outer loop
      vertex   2.080823e+001 7.456004e+001 -6.700000e+001
      vertex   2.154339e+001 7.337272e+001 -6.700000e+001
      vertex   2.370634e+001 7.014590e+001 -6.700000e+001
    endloop
  endfacet
  facet normal 0.000000e+000 0.000000e+000 1.000000e+000
    outer loop
      vertex   1.969381e+001 7.540162e+001 -6.700000e+001
      vertex   1.614590e+001 7.770634e+001 -6.700000e+001
      vertex   1.835062e+001 7.578379e+001 -6.700000e+001
    endloop
  endfacet
  facet normal -0.000000e+000 -0.000000e+000 1.000000e+000
    outer loop
      vertex   2.154339e+001 7.337272e+001 -6.700000e+001
      vertex   2.180000e+001 7.200000e+001 -6.700000e+001
      vertex   2.370634e+001 7.014590e+001 -6.700000e+001
    endloop
  endfacet
  facet normal 0.000000e+000 0.000000e+000 1.000000e+000
    outer loop
      vertex   2.370634e+001 7.014590e+001 -6.700000e+001
      vertex   2.180000e+001 7.200000e+001 -6.700000e+001
      vertex   2.285410e+001 6.847329e+001 -6.700000e+001
    endloop
  endfacet
  facet normal 0.000000e+000 0.000000e+000 1.000000e+000
    outer loop
      vertex   1.835062e+001 7.578379e+001 -6.700000e+001
      vertex   1.614590e+001 7.770634e+001 -6.700000e+001
      vertex   1.696008e+001 7.565494e+001 -6.700000e+001
    endloop
  endfacet
  facet normal -0.000000e+000 0.000000e+000 1.000000e+000
    outer loop
      vertex   2.180000e+001 7.200000e+001 -6.700000e+001
      vertex   2.154339e+001 7.062728e+001 -6.700000e+001
      vertex   2.285410e+001 6.847329e+001 -6.700000e+001
    endloop
  endfacet
  facet normal -0.000000e+000 0.000000e+000 1.000000e+000
    outer loop
      vertex   2.154339e+001 7.062728e+001 -6.700000e+001
      vertex   2.080823e+001 6.943996e+001 -6.700000e+001
      vertex   2.285410e+001 6.847329e+001 -6.700000e+001
    endloop
  endfacet
  facet normal 0.000000e+000 0.000000e+000 1.000000e+000
    outer loop
      vertex   2.285410e+001 6.847329e+001 -6.700000e+001
      vertex   2.080823e+001 6.943996e+001 -6.700000e+001
      vertex   2.152671e+001 6.714590e+001 -6.700000e+001
    endloop
  endfacet
  facet normal 0.000000e+000 0.000000e+000 1.000000e+000
    outer loop
      vertex   1.426470e+001 7.130175e+001 -6.700000e+001
      vertex   1.200000e+001 7.200000e+001 -6.700000e+001
      vertex   1.476917e+001 6.999956e+001 -6.700000e+001
    endloop
  endfacet
  facet normal 0.000000e+000 0.000000e+000 1.000000e+000
    outer loop
      vertex   1.570999e+001 7.503246e+001 -6.700000e+001
      vertex   1.314590e+001 7.552671e+001 -6.700000e+001
      vertex   1.476917e+001 7.400044e+001 -6.700000e+001
    endloop
  endfacet
  facet normal -0.000000e+000 0.000000e+000 1.000000e+000
    outer loop
      vertex   2.080823e+001 6.943996e+001 -6.700000e+001
      vertex   1.969381e+001 6.859838e+001 -6.700000e+001
      vertex   2.152671e+001 6.714590e+001 -6.700000e+001
    endloop
  endfacet
  facet normal 0.000000e+000 0.000000e+000 1.000000e+000
    outer loop
      vertex   2.152671e+001 6.714590e+001 -6.700000e+001
      vertex   1.969381e+001 6.859838e+001 -6.700000e+001
      vertex   1.985410e+001 6.629366e+001 -6.700000e+001
    endloop
  endfacet
  facet normal 0.000000e+000 0.000000e+000 1.000000e+000
    outer loop
      vertex   1.476917e+001 7.400044e+001 -6.700000e+001
      vertex   1.314590e+001 7.552671e+001 -6.700000e+001
      vertex   1.426470e+001 7.269825e+001 -6.700000e+001
    endloop
  endfacet
  facet normal -0.000000e+000 0.000000e+000 1.000000e+000
    outer loop
      vertex   1.969381e+001 6.859838e+001 -6.700000e+001
      vertex   1.835062e+001 6.821621e+001 -6.700000e+001
      vertex   1.985410e+001 6.629366e+001 -6.700000e+001
    endloop
  endfacet
  facet normal -0.000000e+000 0.000000e+000 1.000000e+000
    outer loop
      vertex   1.314590e+001 7.552671e+001 -6.700000e+001
      vertex   1.229366e+001 7.385410e+001 -6.700000e+001
      vertex   1.426470e+001 7.269825e+001 -6.700000e+001
    endloop
  endfacet
  facet normal 0.000000e+000 0.000000e+000 1.000000e+000
    outer loop
      vertex   1.426470e+001 7.269825e+001 -6.700000e+001
      vertex   1.229366e+001 7.385410e+001 -6.700000e+001
      vertex   1.426470e+001 7.130175e+001 -6.700000e+001
    endloop
  endfacet
  facet normal 0.000000e+000 0.000000e+000 1.000000e+000
    outer loop
      vertex   1.835062e+001 6.821621e+001 -6.700000e+001
      vertex   1.696008e+001 6.834506e+001 -6.700000e+001
      vertex   1.985410e+001 6.629366e+001 -6.700000e+001
    endloop
  endfacet
  facet normal 0.000000e+000 0.000000e+000 1.000000e+000
    outer loop
      vertex   1.985410e+001 6.629366e+001 -6.700000e+001
      vertex   1.696008e+001 6.834506e+001 -6.700000e+001
      vertex   1.800000e+001 6.600000e+001 -6.700000e+001
    endloop
  endfacet
  facet normal -0.000000e+000 0.000000e+000 1.000000e+000
    outer loop
      vertex   1.229366e+001 7.385410e+001 -6.700000e+001
      vertex   1.200000e+001 7.200000e+001 -6.700000e+001
      vertex   1.426470e+001 7.130175e+001 -6.700000e+001
    endloop
  endfacet
  facet normal -0.000000e+000 -0.000000e+000 1.000000e+000
    outer loop
      vertex   1.229366e+001 7.014590e+001 -6.700000e+001
      vertex   1.314590e+001 6.847329e+001 -6.700000e+001
      vertex   1.447329e+001 6.714590e+001 -6.700000e+001
    endloop
  endfacet
  facet normal 0.000000e+000 0.000000e+000 1.000000e+000
    outer loop
      vertex   1.614590e+001 6.629366e+001 -6.700000e+001
      vertex   1.229366e+001 7.014590e+001 -6.700000e+001
      vertex   1.447329e+001 6.714590e+001 -6.700000e+001
    endloop
  endfacet
  facet normal -0.000000e+000 -0.000000e+000 1.000000e+000
    outer loop
      vertex   1.200000e+001 7.200000e+001 -6.700000e+001
      vertex   1.229366e+001 7.014590e+001 -6.700000e+001
      vertex   1.614590e+001 6.629366e+001 -6.700000e+001
    endloop
  endfacet
  facet normal 0.000000e+000 0.000000e+000 1.000000e+000
    outer loop
      vertex   1.800000e+001 6.600000e+001 -6.700000e+001
      vertex   1.200000e+001 7.200000e+001 -6.700000e+001
      vertex   1.614590e+001 6.629366e+001 -6.700000e+001
    endloop
  endfacet
  facet normal 0.000000e+000 0.000000e+000 1.000000e+000
    outer loop
      vertex   1.570999e+001 6.896754e+001 -6.700000e+001
      vertex   1.200000e+001 7.200000e+001 -6.700000e+001
      vertex   1.800000e+001 6.600000e+001 -6.700000e+001
    endloop
  endfacet
  facet normal 0.000000e+000 0.000000e+000 1.000000e+000
    outer loop
      vertex   1.476917e+001 6.999956e+001 -6.700000e+001
      vertex   1.200000e+001 7.200000e+001 -6.700000e+001
      vertex   1.570999e+001 6.896754e+001 -6.700000e+001
    endloop
  endfacet
  facet normal 0.000000e+000 0.000000e+000 1.000000e+000
    outer loop
      vertex   1.696008e+001 6.834506e+001 -6.700000e+001
      vertex   1.570999e+001 6.896754e+001 -6.700000e+001
      vertex   1.800000e+001 6.600000e+001 -6.700000e+001
    endloop
  endfacet
  facet normal -8.314688e-001 5.555714e-001 -7.072330e-007
    outer loop
      vertex   2.020183e+001 7.052878e+001 -6.500000e+001
      vertex   1.990919e+001 7.009081e+001 -6.200000e+001
      vertex   2.049447e+001 7.096675e+001 -6.200000e+001
    endloop
  endfacet
  facet normal -1.950931e-001 9.807848e-001 1.247082e-006
    outer loop
      vertex   1.851662e+001 6.940276e+001 -6.500000e+001
      vertex   1.800000e+001 6.930000e+001 -6.200000e+001
      vertex   1.903325e+001 6.950552e+001 -6.200000e+001
    endloop
  endfacet
  facet normal 1.950931e-001 9.807848e-001 1.247082e-006
    outer loop
      vertex   1.748338e+001 6.940276e+001 -6.500000e+001
      vertex   1.696675e+001 6.950552e+001 -6.200000e+001
      vertex   1.800000e+001 6.930000e+001 -6.200000e+001
    endloop
  endfacet
  facet normal 5.555723e-001 8.314682e-001 -1.056129e-006
    outer loop
      vertex   1.652878e+001 6.979816e+001 -6.500000e+001
      vertex   1.609081e+001 7.009081e+001 -6.200000e+001
      vertex   1.696675e+001 6.950552e+001 -6.200000e+001
    endloop
  endfacet
  facet normal 8.314679e-001 5.555727e-001 -7.072322e-007
    outer loop
      vertex   1.579817e+001 7.052878e+001 -6.500000e+001
      vertex   1.550553e+001 7.096675e+001 -6.200000e+001
      vertex   1.609081e+001 7.009081e+001 -6.200000e+001
    endloop
  endfacet
  facet normal 9.807854e-001 1.950898e-001 -1.555900e-007
    outer loop
      vertex   1.540276e+001 7.148338e+001 -6.500000e+001
      vertex   1.530000e+001 7.200000e+001 -6.200000e+001
      vertex   1.550553e+001 7.096675e+001 -6.200000e+001
    endloop
  endfacet
  facet normal 9.807851e-001 -1.950912e-001 -4.031226e-007
    outer loop
      vertex   1.540276e+001 7.251662e+001 -6.500000e+001
      vertex   1.550553e+001 7.303324e+001 -6.200000e+001
      vertex   1.530000e+001 7.200000e+001 -6.200000e+001
    endloop
  endfacet
  facet normal 8.314702e-001 -5.555694e-001 0.000000e+000
    outer loop
      vertex   1.579817e+001 7.347121e+001 -6.500000e+001
      vertex   1.609081e+001 7.390919e+001 -6.200000e+001
      vertex   1.550553e+001 7.303324e+001 -6.200000e+001
    endloop
  endfacet
  facet normal 5.555723e-001 -8.314682e-001 1.056129e-006
    outer loop
      vertex   1.652878e+001 7.420183e+001 -6.500000e+001
      vertex   1.696675e+001 7.449448e+001 -6.200000e+001
      vertex   1.609081e+001 7.390919e+001 -6.200000e+001
    endloop
  endfacet
  facet normal 1.950861e-001 -9.807861e-001 0.000000e+000
    outer loop
      vertex   1.748338e+001 7.459724e+001 -6.500000e+001
      vertex   1.800000e+001 7.470000e+001 -6.200000e+001
      vertex   1.696675e+001 7.449448e+001 -6.200000e+001
    endloop
  endfacet
  facet normal -1.950861e-001 -9.807861e-001 0.000000e+000
    outer loop
      vertex   1.851662e+001 7.459724e+001 -6.500000e+001
      vertex   1.903325e+001 7.449448e+001 -6.200000e+001
      vertex   1.800000e+001 7.470000e+001 -6.200000e+001
    endloop
  endfacet
  facet normal -5.555714e-001 -8.314688e-001 1.235292e-006
    outer loop
      vertex   1.947122e+001 7.420183e+001 -6.500000e+001
      vertex   1.990919e+001 7.390919e+001 -6.200000e+001
      vertex   1.903325e+001 7.449448e+001 -6.200000e+001
    endloop
  endfacet
  facet normal -8.314710e-001 -5.555681e-001 0.000000e+000
    outer loop
      vertex   2.020183e+001 7.347121e+001 -6.500000e+001
      vertex   2.049447e+001 7.303324e+001 -6.200000e+001
      vertex   1.990919e+001 7.390919e+001 -6.200000e+001
    endloop
  endfacet
  facet normal -9.807850e-001 -1.950920e-001 6.365092e-008
    outer loop
      vertex   2.059724e+001 7.251662e+001 -6.500000e+001
      vertex   2.070000e+001 7.200000e+001 -6.200000e+001
      vertex   2.049447e+001 7.303324e+001 -6.200000e+001
    endloop
  endfacet
  facet normal -5.555714e-001 8.314688e-001 -8.769632e-007
    outer loop
      vertex   1.947122e+001 6.979816e+001 -6.500000e+001
      vertex   1.903325e+001 6.950552e+001 -6.200000e+001
      vertex   1.990919e+001 7.009081e+001 -6.200000e+001
    endloop
  endfacet
  facet normal -9.807852e-001 1.950907e-001 3.111801e-007
    outer loop
      vertex   2.059724e+001 7.148338e+001 -6.500000e+001
      vertex   2.049447e+001 7.096675e+001 -6.200000e+001
      vertex   2.070000e+001 7.200000e+001 -6.200000e+001
    endloop
  endfacet
  facet normal 9.829732e-001 -1.837492e-001 6.530277e-007
    outer loop
      vertex   2.167170e+001 7.131364e+001 -6.450000e+001
      vertex   2.180000e+001 7.200000e+001 -6.200000e+001
      vertex   2.154339e+001 7.062728e+001 -6.200000e+001
    endloop
  endfacet
  facet normal 8.502170e-001 -5.264325e-001 8.024136e-007
    outer loop
      vertex   2.117581e+001 7.003362e+001 -6.450000e+001
      vertex   2.154339e+001 7.062728e+001 -6.200000e+001
      vertex   2.080823e+001 6.943996e+001 -6.200000e+001
    endloop
  endfacet
  facet normal 6.026341e-001 -7.980176e-001 1.442638e-006
    outer loop
      vertex   2.025102e+001 6.901917e+001 -6.450000e+001
      vertex   2.080823e+001 6.943996e+001 -6.200000e+001
      vertex   1.969381e+001 6.859838e+001 -6.200000e+001
    endloop
  endfacet
  facet normal 2.736646e-001 -9.618252e-001 0.000000e+000
    outer loop
      vertex   1.902221e+001 6.840730e+001 -6.450000e+001
      vertex   1.969381e+001 6.859838e+001 -6.200000e+001
      vertex   1.835062e+001 6.821621e+001 -6.200000e+001
    endloop
  endfacet
  facet normal -9.226865e-002 -9.957341e-001 1.553609e-006
    outer loop
      vertex   1.765535e+001 6.828063e+001 -6.450000e+001
      vertex   1.835062e+001 6.821621e+001 -6.200000e+001
      vertex   1.696008e+001 6.834506e+001 -6.200000e+001
    endloop
  endfacet
  facet normal -4.457398e-001 -8.951626e-001 1.280446e-006
    outer loop
      vertex   1.633504e+001 6.865630e+001 -6.450000e+001
      vertex   1.696008e+001 6.834506e+001 -6.200000e+001
      vertex   1.570999e+001 6.896754e+001 -6.200000e+001
    endloop
  endfacet
  facet normal -7.390079e-001 -6.736968e-001 8.877776e-007
    outer loop
      vertex   1.523958e+001 6.948354e+001 -6.450000e+001
      vertex   1.570999e+001 6.896754e+001 -6.200000e+001
      vertex   1.476917e+001 6.999956e+001 -6.200000e+001
    endloop
  endfacet
  facet normal -9.324723e-001 -3.612414e-001 3.755982e-007
    outer loop
      vertex   1.451694e+001 7.065065e+001 -6.450000e+001
      vertex   1.476917e+001 6.999956e+001 -6.200000e+001
      vertex   1.426470e+001 7.130175e+001 -6.200000e+001
    endloop
  endfacet
  facet normal -1.000000e+000 0.000000e+000 0.000000e+000
    outer loop
      vertex   1.426470e+001 7.200000e+001 -6.450000e+001
      vertex   1.426470e+001 7.130175e+001 -6.200000e+001
      vertex   1.426470e+001 7.269825e+001 -6.200000e+001
    endloop
  endfacet
  facet normal -9.324723e-001 3.612414e-001 -7.341237e-007
    outer loop
      vertex   1.451694e+001 7.334934e+001 -6.450000e+001
      vertex   1.426470e+001 7.269825e+001 -6.200000e+001
      vertex   1.476917e+001 7.400044e+001 -6.200000e+001
    endloop
  endfacet
  facet normal -7.390079e-001 6.736968e-001 8.877776e-007
    outer loop
      vertex   1.523958e+001 7.451646e+001 -6.450000e+001
      vertex   1.476917e+001 7.400044e+001 -6.200000e+001
      vertex   1.570999e+001 7.503246e+001 -6.200000e+001
    endloop
  endfacet
  facet normal -4.457398e-001 8.951626e-001 1.280446e-006
    outer loop
      vertex   1.633504e+001 7.534370e+001 -6.450000e+001
      vertex   1.570999e+001 7.503246e+001 -6.200000e+001
      vertex   1.696008e+001 7.565494e+001 -6.200000e+001
    endloop
  endfacet
  facet normal 6.026341e-001 7.980176e-001 1.451174e-006
    outer loop
      vertex   2.025102e+001 7.498083e+001 -6.450000e+001
      vertex   1.969381e+001 7.540162e+001 -6.200000e+001
      vertex   2.080823e+001 7.456004e+001 -6.200000e+001
    endloop
  endfacet
  facet normal 8.502170e-001 5.264325e-001 -8.024136e-007
    outer loop
      vertex   2.117581e+001 7.396638e+001 -6.450000e+001
      vertex   2.080823e+001 7.456004e+001 -6.200000e+001
      vertex   2.154339e+001 7.337272e+001 -6.200000e+001
    endloop
  endfacet
  facet normal -9.226865e-002 9.957341e-001 -1.483184e-006
    outer loop
      vertex   1.765535e+001 7.571936e+001 -6.450000e+001
      vertex   1.696008e+001 7.565494e+001 -6.200000e+001
      vertex   1.835062e+001 7.578379e+001 -6.200000e+001
    endloop
  endfacet
  facet normal 9.829732e-001 1.837492e-001 9.389941e-008
    outer loop
      vertex   2.167170e+001 7.268636e+001 -6.450000e+001
      vertex   2.154339e+001 7.337272e+001 -6.200000e+001
      vertex   2.180000e+001 7.200000e+001 -6.200000e+001
    endloop
  endfacet
  facet normal 2.736646e-001 9.618252e-001 0.000000e+000
    outer loop
      vertex   1.902221e+001 7.559270e+001 -6.450000e+001
      vertex   1.835062e+001 7.578379e+001 -6.200000e+001
      vertex   1.969381e+001 7.540162e+001 -6.200000e+001
    endloop
  endfacet
  facet normal 0.000000e+000 0.000000e+000 1.000000e+000
    outer loop
      vertex   1.530000e+001 7.200000e+001 -6.200000e+001
      vertex   1.426470e+001 7.269825e+001 -6.200000e+001
      vertex   1.550553e+001 7.096675e+001 -6.200000e+001
    endloop
  endfacet
  facet normal 0.000000e+000 0.000000e+000 1.000000e+000
    outer loop
      vertex   1.609081e+001 7.009081e+001 -6.200000e+001
      vertex   1.426470e+001 7.130175e+001 -6.200000e+001
      vertex   1.696008e+001 6.834506e+001 -6.200000e+001
    endloop
  endfacet
  facet normal -0.000000e+000 0.000000e+000 1.000000e+000
    outer loop
      vertex   1.426470e+001 7.269825e+001 -6.200000e+001
      vertex   1.426470e+001 7.130175e+001 -6.200000e+001
      vertex   1.550553e+001 7.096675e+001 -6.200000e+001
    endloop
  endfacet
  facet normal 0.000000e+000 0.000000e+000 1.000000e+000
    outer loop
      vertex   1.800000e+001 6.930000e+001 -6.200000e+001
      vertex   1.696675e+001 6.950552e+001 -6.200000e+001
      vertex   1.835062e+001 6.821621e+001 -6.200000e+001
    endloop
  endfacet
  facet normal -0.000000e+000 0.000000e+000 1.000000e+000
    outer loop
      vertex   1.550553e+001 7.303324e+001 -6.200000e+001
      vertex   1.426470e+001 7.269825e+001 -6.200000e+001
      vertex   1.530000e+001 7.200000e+001 -6.200000e+001
    endloop
  endfacet
  facet normal 0.000000e+000 0.000000e+000 1.000000e+000
    outer loop
      vertex   1.969381e+001 6.859838e+001 -6.200000e+001
      vertex   1.800000e+001 6.930000e+001 -6.200000e+001
      vertex   1.835062e+001 6.821621e+001 -6.200000e+001
    endloop
  endfacet
  facet normal 0.000000e+000 0.000000e+000 1.000000e+000
    outer loop
      vertex   1.476917e+001 7.400044e+001 -6.200000e+001
      vertex   1.426470e+001 7.269825e+001 -6.200000e+001
      vertex   1.550553e+001 7.303324e+001 -6.200000e+001
    endloop
  endfacet
  facet normal -0.000000e+000 0.000000e+000 1.000000e+000
    outer loop
      vertex   1.903325e+001 6.950552e+001 -6.200000e+001
      vertex   1.800000e+001 6.930000e+001 -6.200000e+001
      vertex   1.969381e+001 6.859838e+001 -6.200000e+001
    endloop
  endfacet
  facet normal 0.000000e+000 0.000000e+000 1.000000e+000
    outer loop
      vertex   1.609081e+001 7.390919e+001 -6.200000e+001
      vertex   1.476917e+001 7.400044e+001 -6.200000e+001
      vertex   1.550553e+001 7.303324e+001 -6.200000e+001
    endloop
  endfacet
  facet normal -0.000000e+000 0.000000e+000 1.000000e+000
    outer loop
      vertex   1.990919e+001 7.009081e+001 -6.200000e+001
      vertex   1.903325e+001 6.950552e+001 -6.200000e+001
      vertex   1.969381e+001 6.859838e+001 -6.200000e+001
    endloop
  endfacet
  facet normal 0.000000e+000 0.000000e+000 1.000000e+000
    outer loop
      vertex   2.080823e+001 6.943996e+001 -6.200000e+001
      vertex   1.990919e+001 7.009081e+001 -6.200000e+001
      vertex   1.969381e+001 6.859838e+001 -6.200000e+001
    endloop
  endfacet
  facet normal -0.000000e+000 0.000000e+000 1.000000e+000
    outer loop
      vertex   1.570999e+001 7.503246e+001 -6.200000e+001
      vertex   1.476917e+001 7.400044e+001 -6.200000e+001
      vertex   1.609081e+001 7.390919e+001 -6.200000e+001
    endloop
  endfacet
  facet normal 0.000000e+000 0.000000e+000 1.000000e+000
    outer loop
      vertex   1.696675e+001 7.449448e+001 -6.200000e+001
      vertex   1.570999e+001 7.503246e+001 -6.200000e+001
      vertex   1.609081e+001 7.390919e+001 -6.200000e+001
    endloop
  endfacet
  facet normal -0.000000e+000 0.000000e+000 1.000000e+000
    outer loop
      vertex   2.049447e+001 7.096675e+001 -6.200000e+001
      vertex   1.990919e+001 7.009081e+001 -6.200000e+001
      vertex   2.080823e+001 6.943996e+001 -6.200000e+001
    endloop
  endfacet
  facet normal 0.000000e+000 0.000000e+000 1.000000e+000
    outer loop
      vertex   2.154339e+001 7.062728e+001 -6.200000e+001
      vertex   2.049447e+001 7.096675e+001 -6.200000e+001
      vertex   2.080823e+001 6.943996e+001 -6.200000e+001
    endloop
  endfacet
  facet normal -0.000000e+000 0.000000e+000 1.000000e+000
    outer loop
      vertex   1.696008e+001 7.565494e+001 -6.200000e+001
      vertex   1.570999e+001 7.503246e+001 -6.200000e+001
      vertex   1.696675e+001 7.449448e+001 -6.200000e+001
    endloop
  endfacet
  facet normal 0.000000e+000 0.000000e+000 1.000000e+000
    outer loop
      vertex   1.800000e+001 7.470000e+001 -6.200000e+001
      vertex   1.696008e+001 7.565494e+001 -6.200000e+001
      vertex   1.696675e+001 7.449448e+001 -6.200000e+001
    endloop
  endfacet
  facet normal -0.000000e+000 0.000000e+000 1.000000e+000
    outer loop
      vertex   2.070000e+001 7.200000e+001 -6.200000e+001
      vertex   2.049447e+001 7.096675e+001 -6.200000e+001
      vertex   2.154339e+001 7.062728e+001 -6.200000e+001
    endloop
  endfacet
  facet normal 0.000000e+000 0.000000e+000 1.000000e+000
    outer loop
      vertex   1.903325e+001 7.449448e+001 -6.200000e+001
      vertex   1.696008e+001 7.565494e+001 -6.200000e+001
      vertex   1.800000e+001 7.470000e+001 -6.200000e+001
    endloop
  endfacet
  facet normal -0.000000e+000 -0.000000e+000 1.000000e+000
    outer loop
      vertex   2.049447e+001 7.303324e+001 -6.200000e+001
      vertex   2.070000e+001 7.200000e+001 -6.200000e+001
      vertex   2.154339e+001 7.062728e+001 -6.200000e+001
    endloop
  endfacet
  facet normal 0.000000e+000 0.000000e+000 1.000000e+000
    outer loop
      vertex   2.180000e+001 7.200000e+001 -6.200000e+001
      vertex   1.990919e+001 7.390919e+001 -6.200000e+001
      vertex   2.049447e+001 7.303324e+001 -6.200000e+001
    endloop
  endfacet
  facet normal 0.000000e+000 0.000000e+000 1.000000e+000
    outer loop
      vertex   2.180000e+001 7.200000e+001 -6.200000e+001
      vertex   2.049447e+001 7.303324e+001 -6.200000e+001
      vertex   2.154339e+001 7.062728e+001 -6.200000e+001
    endloop
  endfacet
  facet normal -0.000000e+000 -0.000000e+000 1.000000e+000
    outer loop
      vertex   1.835062e+001 7.578379e+001 -6.200000e+001
      vertex   1.990919e+001 7.390919e+001 -6.200000e+001
      vertex   2.180000e+001 7.200000e+001 -6.200000e+001
    endloop
  endfacet
  facet normal -0.000000e+000 -0.000000e+000 1.000000e+000
    outer loop
      vertex   1.835062e+001 7.578379e+001 -6.200000e+001
      vertex   1.903325e+001 7.449448e+001 -6.200000e+001
      vertex   1.990919e+001 7.390919e+001 -6.200000e+001
    endloop
  endfacet
  facet normal -0.000000e+000 0.000000e+000 1.000000e+000
    outer loop
      vertex   1.835062e+001 7.578379e+001 -6.200000e+001
      vertex   1.696008e+001 7.565494e+001 -6.200000e+001
      vertex   1.903325e+001 7.449448e+001 -6.200000e+001
    endloop
  endfacet
  facet normal 0.000000e+000 0.000000e+000 1.000000e+000
    outer loop
      vertex   2.154339e+001 7.337272e+001 -6.200000e+001
      vertex   1.835062e+001 7.578379e+001 -6.200000e+001
      vertex   2.180000e+001 7.200000e+001 -6.200000e+001
    endloop
  endfacet
  facet normal 0.000000e+000 0.000000e+000 1.000000e+000
    outer loop
      vertex   1.969381e+001 7.540162e+001 -6.200000e+001
      vertex   1.835062e+001 7.578379e+001 -6.200000e+001
      vertex   2.154339e+001 7.337272e+001 -6.200000e+001
    endloop
  endfacet
  facet normal 0.000000e+000 0.000000e+000 1.000000e+000
    outer loop
      vertex   2.080823e+001 7.456004e+001 -6.200000e+001
      vertex   1.969381e+001 7.540162e+001 -6.200000e+001
      vertex   2.154339e+001 7.337272e+001 -6.200000e+001
    endloop
  endfacet
  facet normal -0.000000e+000 -0.000000e+000 1.000000e+000
    outer loop
      vertex   1.426470e+001 7.130175e+001 -6.200000e+001
      vertex   1.476917e+001 6.999956e+001 -6.200000e+001
      vertex   1.696008e+001 6.834506e+001 -6.200000e+001
    endloop
  endfacet
  facet normal 0.000000e+000 0.000000e+000 1.000000e+000
    outer loop
      vertex   1.696008e+001 6.834506e+001 -6.200000e+001
      vertex   1.476917e+001 6.999956e+001 -6.200000e+001
      vertex   1.570999e+001 6.896754e+001 -6.200000e+001
    endloop
  endfacet
  facet normal 0.000000e+000 0.000000e+000 1.000000e+000
    outer loop
      vertex   1.550553e+001 7.096675e+001 -6.200000e+001
      vertex   1.426470e+001 7.130175e+001 -6.200000e+001
      vertex   1.609081e+001 7.009081e+001 -6.200000e+001
    endloop
  endfacet
  facet normal 0.000000e+000 0.000000e+000 1.000000e+000
    outer loop
      vertex   1.835062e+001 6.821621e+001 -6.200000e+001
      vertex   1.696675e+001 6.950552e+001 -6.200000e+001
      vertex   1.696008e+001 6.834506e+001 -6.200000e+001
    endloop
  endfacet
  facet normal 0.000000e+000 0.000000e+000 1.000000e+000
    outer loop
      vertex   1.696675e+001 6.950552e+001 -6.200000e+001
      vertex   1.609081e+001 7.009081e+001 -6.200000e+001
      vertex   1.696008e+001 6.834506e+001 -6.200000e+001
    endloop
  endfacet
endsolid
