solid Umlenkrolle - ascii
 facet normal 0.000000 0.000000 1.000000
  outer loop
   vertex 27.478210 46.387711 6.700001
   vertex 29.370590 49.828270 6.700001
   vertex 27.600000 47.000000 6.700001
  endloop
 endfacet
 facet normal 0.195070 0.980789 0.000000
  outer loop
   vertex 25.693859 45.460899 5.150001
   vertex 25.387711 45.521790 3.600001
   vertex 25.387711 45.521790 6.700001
  endloop
 endfacet
 facet normal 0.195084 0.980787 0.000003
  outer loop
   vertex 25.693859 45.460899 5.150001
   vertex 25.387711 45.521790 6.700001
   vertex 26.000000 45.400002 6.700001
  endloop
 endfacet
 facet normal 0.195098 0.980784 0.000000
  outer loop
   vertex 25.693859 45.460899 5.150001
   vertex 26.000000 45.400002 6.700001
   vertex 26.000000 45.400002 3.600001
  endloop
 endfacet
 facet normal 0.000000 0.000000 1.000000
  outer loop
   vertex 25.387711 45.521790 6.700001
   vertex 24.868629 45.868629 6.700001
   vertex 22.629410 44.171730 6.700001
  endloop
 endfacet
 facet normal 0.555571 0.831469 0.000000
  outer loop
   vertex 25.128170 45.695210 5.150001
   vertex 24.868629 45.868629 3.600001
   vertex 24.868629 45.868629 6.700001
  endloop
 endfacet
 facet normal 0.555571 0.831469 0.000000
  outer loop
   vertex 25.128170 45.695210 5.150001
   vertex 24.868629 45.868629 6.700001
   vertex 25.387711 45.521790 6.700001
  endloop
 endfacet
 facet normal 0.555571 0.831469 0.000000
  outer loop
   vertex 25.128170 45.695210 5.150001
   vertex 25.387711 45.521790 6.700001
   vertex 25.387711 45.521790 3.600001
  endloop
 endfacet
 facet normal 0.000000 0.000000 1.000000
  outer loop
   vertex 27.131371 48.131371 6.700001
   vertex 28.200001 50.810509 6.700001
   vertex 26.612289 48.478210 6.700001
  endloop
 endfacet
 facet normal 0.831469 0.555571 0.000000
  outer loop
   vertex 24.695210 46.128170 5.150001
   vertex 24.521790 46.387711 3.600001
   vertex 24.521790 46.387711 6.700001
  endloop
 endfacet
 facet normal 0.831469 0.555571 0.000000
  outer loop
   vertex 24.695210 46.128170 5.150001
   vertex 24.521790 46.387711 6.700001
   vertex 24.868629 45.868629 6.700001
  endloop
 endfacet
 facet normal 0.831469 0.555571 0.000000
  outer loop
   vertex 24.695210 46.128170 5.150001
   vertex 24.868629 45.868629 6.700001
   vertex 24.868629 45.868629 3.600001
  endloop
 endfacet
 facet normal 0.000000 0.000000 1.000000
  outer loop
   vertex 24.868629 45.868629 6.700001
   vertex 24.521790 46.387711 6.700001
   vertex 22.629410 44.171730 6.700001
  endloop
 endfacet
 facet normal 0.980783 0.195104 0.000000
  outer loop
   vertex 24.460899 46.693859 5.150001
   vertex 24.400000 47.000000 3.600001
   vertex 24.400000 47.000000 6.700001
  endloop
 endfacet
 facet normal 0.980786 0.195087 0.000003
  outer loop
   vertex 24.460899 46.693859 5.150001
   vertex 24.400000 47.000000 6.700001
   vertex 24.521790 46.387711 6.700001
  endloop
 endfacet
 facet normal 0.980789 0.195070 0.000000
  outer loop
   vertex 24.460899 46.693859 5.150001
   vertex 24.521790 46.387711 6.700001
   vertex 24.521790 46.387711 3.600001
  endloop
 endfacet
 facet normal 0.000000 0.000000 1.000000
  outer loop
   vertex 23.799999 43.189491 6.700001
   vertex 25.387711 45.521790 6.700001
   vertex 22.629410 44.171730 6.700001
  endloop
 endfacet
 facet normal 0.980789 -0.195070 0.000000
  outer loop
   vertex 24.460899 47.306141 5.150001
   vertex 24.521790 47.612289 3.600001
   vertex 24.521790 47.612289 6.700001
  endloop
 endfacet
 facet normal 0.980786 -0.195087 0.000003
  outer loop
   vertex 24.460899 47.306141 5.150001
   vertex 24.521790 47.612289 6.700001
   vertex 24.400000 47.000000 6.700001
  endloop
 endfacet
 facet normal 0.980783 -0.195104 0.000000
  outer loop
   vertex 24.460899 47.306141 5.150001
   vertex 24.400000 47.000000 6.700001
   vertex 24.400000 47.000000 3.600001
  endloop
 endfacet
 facet normal 0.956252 0.168611 0.239065
  outer loop
   vertex 30.558281 47.803749 5.500001
   vertex 30.134649 48.504890 6.700001
   vertex 30.400000 47.000000 6.700001
  endloop
 endfacet
 facet normal 0.831469 -0.555571 0.000000
  outer loop
   vertex 24.695210 47.871830 5.150001
   vertex 24.868629 48.131371 3.600001
   vertex 24.868629 48.131371 6.700001
  endloop
 endfacet
 facet normal 0.831469 -0.555571 0.000000
  outer loop
   vertex 24.695210 47.871830 5.150001
   vertex 24.868629 48.131371 6.700001
   vertex 24.521790 47.612289 6.700001
  endloop
 endfacet
 facet normal 0.831469 -0.555571 0.000000
  outer loop
   vertex 24.695210 47.871830 5.150001
   vertex 24.521790 47.612289 6.700001
   vertex 24.521790 47.612289 3.600001
  endloop
 endfacet
 facet normal 0.956253 0.168609 0.239063
  outer loop
   vertex 30.558281 47.803749 5.500001
   vertex 30.400000 47.000000 6.700001
   vertex 31.000000 47.000000 4.300001
  endloop
 endfacet
 facet normal 0.555571 -0.831469 0.000000
  outer loop
   vertex 25.128170 48.304790 5.150001
   vertex 25.387711 48.478210 3.600001
   vertex 25.387711 48.478210 6.700001
  endloop
 endfacet
 facet normal 0.555571 -0.831469 0.000000
  outer loop
   vertex 25.128170 48.304790 5.150001
   vertex 25.387711 48.478210 6.700001
   vertex 24.868629 48.131371 6.700001
  endloop
 endfacet
 facet normal 0.555571 -0.831469 0.000000
  outer loop
   vertex 25.128170 48.304790 5.150001
   vertex 24.868629 48.131371 6.700001
   vertex 24.868629 48.131371 3.600001
  endloop
 endfacet
 facet normal 0.956252 0.168618 0.239061
  outer loop
   vertex 30.558281 47.803749 5.500001
   vertex 30.698460 48.710098 4.300001
   vertex 30.134649 48.504890 6.700001
  endloop
 endfacet
 facet normal 0.195098 -0.980784 0.000000
  outer loop
   vertex 25.693859 48.539101 5.150001
   vertex 26.000000 48.599998 3.600001
   vertex 26.000000 48.599998 6.700001
  endloop
 endfacet
 facet normal 0.195084 -0.980787 0.000003
  outer loop
   vertex 25.693859 48.539101 5.150001
   vertex 26.000000 48.599998 6.700001
   vertex 25.387711 48.478210 6.700001
  endloop
 endfacet
 facet normal 0.195070 -0.980789 0.000000
  outer loop
   vertex 25.693859 48.539101 5.150001
   vertex 25.387711 48.478210 6.700001
   vertex 25.387711 48.478210 3.600001
  endloop
 endfacet
 facet normal 0.000000 0.000000 1.000000
  outer loop
   vertex 26.000000 45.400002 6.700001
   vertex 25.387711 45.521790 6.700001
   vertex 23.799999 43.189491 6.700001
  endloop
 endfacet
 facet normal -0.195070 -0.980789 0.000000
  outer loop
   vertex 26.306141 48.539101 5.150001
   vertex 26.612289 48.478210 3.600001
   vertex 26.612289 48.478210 6.700001
  endloop
 endfacet
 facet normal -0.195084 -0.980787 0.000003
  outer loop
   vertex 26.306141 48.539101 5.150001
   vertex 26.612289 48.478210 6.700001
   vertex 26.000000 48.599998 6.700001
  endloop
 endfacet
 facet normal -0.195098 -0.980784 0.000000
  outer loop
   vertex 26.306141 48.539101 5.150001
   vertex 26.000000 48.599998 6.700001
   vertex 26.000000 48.599998 3.600001
  endloop
 endfacet
 facet normal 0.840913 0.485505 0.239063
  outer loop
   vertex 30.008480 49.314301 5.500001
   vertex 29.370590 49.828270 6.700001
   vertex 30.134649 48.504890 6.700001
  endloop
 endfacet
 facet normal -0.555571 -0.831469 0.000000
  outer loop
   vertex 26.871830 48.304790 5.150001
   vertex 27.131371 48.131371 3.600001
   vertex 27.131371 48.131371 6.700001
  endloop
 endfacet
 facet normal -0.555571 -0.831469 0.000000
  outer loop
   vertex 26.871830 48.304790 5.150001
   vertex 27.131371 48.131371 6.700001
   vertex 26.612289 48.478210 6.700001
  endloop
 endfacet
 facet normal -0.555571 -0.831469 0.000000
  outer loop
   vertex 26.871830 48.304790 5.150001
   vertex 26.612289 48.478210 6.700001
   vertex 26.612289 48.478210 3.600001
  endloop
 endfacet
 facet normal 0.840915 0.485502 0.239061
  outer loop
   vertex 30.008480 49.314301 5.500001
   vertex 30.134649 48.504890 6.700001
   vertex 30.698460 48.710098 4.300001
  endloop
 endfacet
 facet normal -0.831469 -0.555571 0.000000
  outer loop
   vertex 27.304790 47.871830 5.150001
   vertex 27.478210 47.612289 3.600001
   vertex 27.478210 47.612289 6.700001
  endloop
 endfacet
 facet normal -0.831469 -0.555571 0.000000
  outer loop
   vertex 27.304790 47.871830 5.150001
   vertex 27.478210 47.612289 6.700001
   vertex 27.131371 48.131371 6.700001
  endloop
 endfacet
 facet normal -0.831469 -0.555571 0.000000
  outer loop
   vertex 27.304790 47.871830 5.150001
   vertex 27.131371 48.131371 6.700001
   vertex 27.131371 48.131371 3.600001
  endloop
 endfacet
 facet normal 0.000000 0.000000 1.000000
  outer loop
   vertex 27.600000 47.000000 6.700001
   vertex 29.370590 49.828270 6.700001
   vertex 27.478210 47.612289 6.700001
  endloop
 endfacet
 facet normal -0.980783 -0.195104 0.000000
  outer loop
   vertex 27.539101 47.306141 5.150001
   vertex 27.600000 47.000000 3.600001
   vertex 27.600000 47.000000 6.700001
  endloop
 endfacet
 facet normal -0.980786 -0.195087 0.000003
  outer loop
   vertex 27.539101 47.306141 5.150001
   vertex 27.600000 47.000000 6.700001
   vertex 27.478210 47.612289 6.700001
  endloop
 endfacet
 facet normal -0.980789 -0.195070 0.000000
  outer loop
   vertex 27.539101 47.306141 5.150001
   vertex 27.478210 47.612289 6.700001
   vertex 27.478210 47.612289 3.600001
  endloop
 endfacet
 facet normal 0.840913 0.485503 0.239063
  outer loop
   vertex 30.008480 49.314301 5.500001
   vertex 29.830219 50.213940 4.300001
   vertex 29.370590 49.828270 6.700001
  endloop
 endfacet
 facet normal -0.980789 0.195070 0.000000
  outer loop
   vertex 27.539101 46.693859 5.150001
   vertex 27.478210 46.387711 3.600001
   vertex 27.478210 46.387711 6.700001
  endloop
 endfacet
 facet normal -0.980786 0.195087 0.000003
  outer loop
   vertex 27.539101 46.693859 5.150001
   vertex 27.478210 46.387711 6.700001
   vertex 27.600000 47.000000 6.700001
  endloop
 endfacet
 facet normal -0.980783 0.195104 0.000000
  outer loop
   vertex 27.539101 46.693859 5.150001
   vertex 27.600000 47.000000 6.700001
   vertex 27.600000 47.000000 3.600001
  endloop
 endfacet
 facet normal 0.624149 0.743833 0.239062
  outer loop
   vertex 28.975201 50.545712 5.500001
   vertex 28.200001 50.810509 6.700001
   vertex 29.370590 49.828270 6.700001
  endloop
 endfacet
 facet normal -0.831469 0.555571 0.000000
  outer loop
   vertex 27.304790 46.128170 5.150001
   vertex 27.131371 45.868629 3.600001
   vertex 27.131371 45.868629 6.700001
  endloop
 endfacet
 facet normal -0.831469 0.555571 0.000000
  outer loop
   vertex 27.304790 46.128170 5.150001
   vertex 27.131371 45.868629 6.700001
   vertex 27.478210 46.387711 6.700001
  endloop
 endfacet
 facet normal -0.831469 0.555571 0.000000
  outer loop
   vertex 27.304790 46.128170 5.150001
   vertex 27.478210 46.387711 6.700001
   vertex 27.478210 46.387711 3.600001
  endloop
 endfacet
 facet normal 0.624148 0.743833 0.239063
  outer loop
   vertex 28.975201 50.545712 5.500001
   vertex 29.370590 49.828270 6.700001
   vertex 29.830219 50.213940 4.300001
  endloop
 endfacet
 facet normal -0.555571 0.831469 0.000000
  outer loop
   vertex 26.871830 45.695210 5.150001
   vertex 26.612289 45.521790 3.600001
   vertex 26.612289 45.521790 6.700001
  endloop
 endfacet
 facet normal -0.555571 0.831469 0.000000
  outer loop
   vertex 26.871830 45.695210 5.150001
   vertex 26.612289 45.521790 6.700001
   vertex 27.131371 45.868629 6.700001
  endloop
 endfacet
 facet normal -0.555571 0.831469 0.000000
  outer loop
   vertex 26.871830 45.695210 5.150001
   vertex 27.131371 45.868629 6.700001
   vertex 27.131371 45.868629 3.600001
  endloop
 endfacet
 facet normal 0.000000 0.000000 1.000000
  outer loop
   vertex 26.612289 45.521790 6.700001
   vertex 26.000000 45.400002 6.700001
   vertex 23.799999 43.189491 6.700001
  endloop
 endfacet
 facet normal -0.195098 0.980784 0.000000
  outer loop
   vertex 26.306141 45.460899 5.150001
   vertex 26.000000 45.400002 3.600001
   vertex 26.000000 45.400002 6.700001
  endloop
 endfacet
 facet normal -0.195084 0.980787 0.000003
  outer loop
   vertex 26.306141 45.460899 5.150001
   vertex 26.000000 45.400002 6.700001
   vertex 26.612289 45.521790 6.700001
  endloop
 endfacet
 facet normal -0.195070 0.980789 0.000000
  outer loop
   vertex 26.306141 45.460899 5.150001
   vertex 26.612289 45.521790 6.700001
   vertex 26.612289 45.521790 3.600001
  endloop
 endfacet
 facet normal 0.624151 0.743830 0.239065
  outer loop
   vertex 28.975201 50.545712 5.500001
   vertex 28.500000 51.330132 4.300001
   vertex 28.200001 50.810509 6.700001
  endloop
 endfacet
 facet normal 0.332101 0.912445 0.239067
  outer loop
   vertex 27.583071 51.349461 5.500001
   vertex 26.764050 51.333149 6.700001
   vertex 28.200001 50.810509 6.700001
  endloop
 endfacet
 facet normal 0.000001 -0.000001 1.000000
  outer loop
   vertex 21.865351 48.504890 6.700001
   vertex 23.799999 50.810509 6.700001
   vertex 22.629410 49.828270 6.700001
  endloop
 endfacet
 facet normal 0.000000 0.000000 1.000000
  outer loop
   vertex 25.235950 51.333149 6.700001
   vertex 23.799999 50.810509 6.700001
   vertex 21.865351 48.504890 6.700001
  endloop
 endfacet
 facet normal 0.332104 0.912444 0.239066
  outer loop
   vertex 27.583071 51.349461 5.500001
   vertex 28.200001 50.810509 6.700001
   vertex 28.500000 51.330132 4.300001
  endloop
 endfacet
 facet normal 0.000007 -0.971003 0.239066
  outer loop
   vertex 26.000000 42.371399 5.500000
   vertex 26.868240 42.075958 4.300000
   vertex 26.764050 42.666851 6.700001
  endloop
 endfacet
 facet normal 0.332099 0.912446 0.239066
  outer loop
   vertex 27.583071 51.349461 5.500001
   vertex 26.868240 51.924042 4.300001
   vertex 26.764050 51.333149 6.700001
  endloop
 endfacet
 facet normal 0.000000 0.000000 1.000000
  outer loop
   vertex 21.600000 47.000000 6.700001
   vertex 25.235950 51.333149 6.700001
   vertex 21.865351 48.504890 6.700001
  endloop
 endfacet
 facet normal 0.000000 0.000000 1.000000
  outer loop
   vertex 26.764050 51.333149 6.700001
   vertex 25.235950 51.333149 6.700001
   vertex 21.600000 47.000000 6.700001
  endloop
 endfacet
 facet normal 0.000000 0.968583 0.248692
  outer loop
   vertex 26.000000 51.702881 5.260001
   vertex 25.235950 51.333149 6.700001
   vertex 26.764050 51.333149 6.700001
  endloop
 endfacet
 facet normal 0.000000 0.000000 1.000000
  outer loop
   vertex 27.131371 45.868629 6.700001
   vertex 26.612289 45.521790 6.700001
   vertex 23.799999 43.189491 6.700001
  endloop
 endfacet
 facet normal 0.017846 0.970669 0.239758
  outer loop
   vertex 26.000000 51.702881 5.260001
   vertex 26.764050 51.333149 6.700001
   vertex 26.868240 51.924042 4.300001
  endloop
 endfacet
 facet normal 0.000000 0.000000 1.000000
  outer loop
   vertex 21.865351 45.495110 6.700001
   vertex 26.764050 51.333149 6.700001
   vertex 21.600000 47.000000 6.700001
  endloop
 endfacet
 facet normal 0.000000 0.000000 1.000000
  outer loop
   vertex 24.868629 48.131371 6.700001
   vertex 26.764050 51.333149 6.700001
   vertex 21.865351 45.495110 6.700001
  endloop
 endfacet
 facet normal -0.017846 0.970669 0.239758
  outer loop
   vertex 26.000000 51.702881 5.260001
   vertex 25.131760 51.924042 4.300001
   vertex 25.235950 51.333149 6.700001
  endloop
 endfacet
 facet normal 0.000000 0.000000 1.000000
  outer loop
   vertex 30.134649 48.504890 6.700001
   vertex 27.478210 46.387711 6.700001
   vertex 27.131371 45.868629 6.700001
  endloop
 endfacet
 facet normal -0.332101 0.912445 0.239067
  outer loop
   vertex 24.416929 51.349461 5.500001
   vertex 23.799999 50.810509 6.700001
   vertex 25.235950 51.333149 6.700001
  endloop
 endfacet
 facet normal 0.000000 0.000000 1.000000
  outer loop
   vertex 24.521790 47.612289 6.700001
   vertex 24.868629 48.131371 6.700001
   vertex 21.865351 45.495110 6.700001
  endloop
 endfacet
 facet normal 0.000000 0.000000 1.000000
  outer loop
   vertex 25.387711 48.478210 6.700001
   vertex 26.764050 51.333149 6.700001
   vertex 24.868629 48.131371 6.700001
  endloop
 endfacet
 facet normal -0.332099 0.912446 0.239066
  outer loop
   vertex 24.416929 51.349461 5.500001
   vertex 25.235950 51.333149 6.700001
   vertex 25.131760 51.924042 4.300001
  endloop
 endfacet
 facet normal -0.332104 0.912444 0.239066
  outer loop
   vertex 24.416929 51.349461 5.500001
   vertex 23.500000 51.330132 4.300001
   vertex 23.799999 50.810509 6.700001
  endloop
 endfacet
 facet normal 0.000000 0.000000 1.000000
  outer loop
   vertex 30.134649 48.504890 6.700001
   vertex 29.370590 49.828270 6.700001
   vertex 27.478210 46.387711 6.700001
  endloop
 endfacet
 facet normal 0.000000 0.000000 1.000000
  outer loop
   vertex 24.400000 47.000000 6.700001
   vertex 24.521790 47.612289 6.700001
   vertex 21.865351 45.495110 6.700001
  endloop
 endfacet
 facet normal 0.000000 0.000000 1.000000
  outer loop
   vertex 26.000000 48.599998 6.700001
   vertex 26.764050 51.333149 6.700001
   vertex 25.387711 48.478210 6.700001
  endloop
 endfacet
 facet normal -0.624149 0.743833 0.239062
  outer loop
   vertex 23.024799 50.545712 5.500001
   vertex 22.629410 49.828270 6.700001
   vertex 23.799999 50.810509 6.700001
  endloop
 endfacet
 facet normal -0.624151 0.743830 0.239065
  outer loop
   vertex 23.024799 50.545712 5.500001
   vertex 23.799999 50.810509 6.700001
   vertex 23.500000 51.330132 4.300001
  endloop
 endfacet
 facet normal 0.000000 0.000000 1.000000
  outer loop
   vertex 25.235950 42.666851 6.700001
   vertex 30.134649 48.504890 6.700001
   vertex 27.131371 45.868629 6.700001
  endloop
 endfacet
 facet normal 0.000000 0.000000 1.000000
  outer loop
   vertex 28.200001 50.810509 6.700001
   vertex 26.764050 51.333149 6.700001
   vertex 26.000000 48.599998 6.700001
  endloop
 endfacet
 facet normal 0.000000 0.000000 1.000000
  outer loop
   vertex 24.521790 46.387711 6.700001
   vertex 24.400000 47.000000 6.700001
   vertex 21.865351 45.495110 6.700001
  endloop
 endfacet
 facet normal -0.624148 0.743833 0.239063
  outer loop
   vertex 23.024799 50.545712 5.500001
   vertex 22.169781 50.213940 4.300001
   vertex 22.629410 49.828270 6.700001
  endloop
 endfacet
 facet normal -0.840913 0.485505 0.239063
  outer loop
   vertex 21.991520 49.314301 5.500001
   vertex 21.865351 48.504890 6.700001
   vertex 22.629410 49.828270 6.700001
  endloop
 endfacet
 facet normal -0.840913 0.485503 0.239063
  outer loop
   vertex 21.991520 49.314301 5.500001
   vertex 22.629410 49.828270 6.700001
   vertex 22.169781 50.213940 4.300001
  endloop
 endfacet
 facet normal 0.000000 0.000000 1.000000
  outer loop
   vertex 22.629410 44.171730 6.700001
   vertex 24.521790 46.387711 6.700001
   vertex 21.865351 45.495110 6.700001
  endloop
 endfacet
 facet normal 0.000000 0.000000 1.000000
  outer loop
   vertex 26.612289 48.478210 6.700001
   vertex 28.200001 50.810509 6.700001
   vertex 26.000000 48.599998 6.700001
  endloop
 endfacet
 facet normal 0.000000 0.000000 1.000000
  outer loop
   vertex 25.235950 42.666851 6.700001
   vertex 27.131371 45.868629 6.700001
   vertex 23.799999 43.189491 6.700001
  endloop
 endfacet
 facet normal -0.840915 0.485502 0.239061
  outer loop
   vertex 21.991520 49.314301 5.500001
   vertex 21.301540 48.710098 4.300001
   vertex 21.865351 48.504890 6.700001
  endloop
 endfacet
 facet normal -0.956252 0.168611 0.239065
  outer loop
   vertex 21.441719 47.803749 5.500001
   vertex 21.600000 47.000000 6.700001
   vertex 21.865351 48.504890 6.700001
  endloop
 endfacet
 facet normal 0.956253 -0.168609 0.239063
  outer loop
   vertex 30.558281 46.196251 5.500000
   vertex 31.000000 47.000000 4.300001
   vertex 30.400000 47.000000 6.700001
  endloop
 endfacet
 facet normal -0.840913 -0.485503 0.239063
  outer loop
   vertex 21.991520 44.685699 5.500000
   vertex 22.169781 43.786060 4.300001
   vertex 22.629410 44.171730 6.700001
  endloop
 endfacet
 facet normal -0.956252 0.168618 0.239061
  outer loop
   vertex 21.441719 47.803749 5.500001
   vertex 21.865351 48.504890 6.700001
   vertex 21.301540 48.710098 4.300001
  endloop
 endfacet
 facet normal 0.000000 0.000000 1.000000
  outer loop
   vertex 30.400000 47.000000 6.700001
   vertex 30.134649 48.504890 6.700001
   vertex 25.235950 42.666851 6.700001
  endloop
 endfacet
 facet normal -0.956253 0.168609 0.239063
  outer loop
   vertex 21.441719 47.803749 5.500001
   vertex 21.000000 47.000000 4.300001
   vertex 21.600000 47.000000 6.700001
  endloop
 endfacet
 facet normal 0.956252 -0.168618 0.239061
  outer loop
   vertex 30.558281 46.196251 5.500000
   vertex 30.134649 45.495110 6.700001
   vertex 30.698460 45.289902 4.300001
  endloop
 endfacet
 facet normal 0.956252 -0.168611 0.239065
  outer loop
   vertex 30.558281 46.196251 5.500000
   vertex 30.400000 47.000000 6.700001
   vertex 30.134649 45.495110 6.700001
  endloop
 endfacet
 facet normal -0.956252 -0.168611 0.239065
  outer loop
   vertex 21.441719 46.196251 5.500000
   vertex 21.865351 45.495110 6.700001
   vertex 21.600000 47.000000 6.700001
  endloop
 endfacet
 facet normal -0.956253 -0.168609 0.239063
  outer loop
   vertex 21.441719 46.196251 5.500000
   vertex 21.600000 47.000000 6.700001
   vertex 21.000000 47.000000 4.300001
  endloop
 endfacet
 facet normal 0.000000 0.000000 1.000000
  outer loop
   vertex 26.764050 42.666851 6.700001
   vertex 30.400000 47.000000 6.700001
   vertex 25.235950 42.666851 6.700001
  endloop
 endfacet
 facet normal 0.840915 -0.485502 0.239061
  outer loop
   vertex 30.008480 44.685699 5.500000
   vertex 30.698460 45.289902 4.300001
   vertex 30.134649 45.495110 6.700001
  endloop
 endfacet
 facet normal 0.000000 0.000000 1.000000
  outer loop
   vertex 29.370590 49.828270 6.700001
   vertex 28.200001 50.810509 6.700001
   vertex 27.131371 48.131371 6.700001
  endloop
 endfacet
 facet normal 0.000000 0.000000 1.000000
  outer loop
   vertex 27.478210 47.612289 6.700001
   vertex 29.370590 49.828270 6.700001
   vertex 27.131371 48.131371 6.700001
  endloop
 endfacet
 facet normal -0.956252 -0.168618 0.239061
  outer loop
   vertex 21.441719 46.196251 5.500000
   vertex 21.301540 45.289902 4.300001
   vertex 21.865351 45.495110 6.700001
  endloop
 endfacet
 facet normal -0.840913 -0.485505 0.239063
  outer loop
   vertex 21.991520 44.685699 5.500000
   vertex 22.629410 44.171730 6.700001
   vertex 21.865351 45.495110 6.700001
  endloop
 endfacet
 facet normal 0.840913 -0.485503 0.239063
  outer loop
   vertex 30.008480 44.685699 5.500000
   vertex 29.370590 44.171730 6.700001
   vertex 29.830219 43.786060 4.300001
  endloop
 endfacet
 facet normal 0.840913 -0.485505 0.239063
  outer loop
   vertex 30.008480 44.685699 5.500000
   vertex 30.134649 45.495110 6.700001
   vertex 29.370590 44.171730 6.700001
  endloop
 endfacet
 facet normal -0.840915 -0.485502 0.239061
  outer loop
   vertex 21.991520 44.685699 5.500000
   vertex 21.865351 45.495110 6.700001
   vertex 21.301540 45.289902 4.300001
  endloop
 endfacet
 facet normal 0.000000 0.000000 1.000000
  outer loop
   vertex 30.134649 45.495110 6.700001
   vertex 30.400000 47.000000 6.700001
   vertex 26.764050 42.666851 6.700001
  endloop
 endfacet
 facet normal -0.332101 -0.912445 0.239067
  outer loop
   vertex 24.416929 42.650539 5.500000
   vertex 25.235950 42.666851 6.700001
   vertex 23.799999 43.189491 6.700001
  endloop
 endfacet
 facet normal 0.624148 -0.743833 0.239063
  outer loop
   vertex 28.975201 43.454288 5.500000
   vertex 29.830219 43.786060 4.300001
   vertex 29.370590 44.171730 6.700001
  endloop
 endfacet
 facet normal -0.332104 -0.912444 0.239066
  outer loop
   vertex 24.416929 42.650539 5.500000
   vertex 23.799999 43.189491 6.700001
   vertex 23.500000 42.669868 4.300001
  endloop
 endfacet
 facet normal -0.624149 -0.743833 0.239062
  outer loop
   vertex 23.024799 43.454288 5.500000
   vertex 23.799999 43.189491 6.700001
   vertex 22.629410 44.171730 6.700001
  endloop
 endfacet
 facet normal -0.624148 -0.743833 0.239063
  outer loop
   vertex 23.024799 43.454288 5.500000
   vertex 22.629410 44.171730 6.700001
   vertex 22.169781 43.786060 4.300001
  endloop
 endfacet
 facet normal 0.000000 0.000000 1.000000
  outer loop
   vertex 28.200001 43.189491 6.700001
   vertex 30.134649 45.495110 6.700001
   vertex 26.764050 42.666851 6.700001
  endloop
 endfacet
 facet normal 0.624151 -0.743830 0.239065
  outer loop
   vertex 28.975201 43.454288 5.500000
   vertex 28.200001 43.189491 6.700001
   vertex 28.500000 42.669868 4.300001
  endloop
 endfacet
 facet normal 0.624149 -0.743833 0.239062
  outer loop
   vertex 28.975201 43.454288 5.500000
   vertex 29.370590 44.171730 6.700001
   vertex 28.200001 43.189491 6.700001
  endloop
 endfacet
 facet normal -0.624151 -0.743830 0.239065
  outer loop
   vertex 23.024799 43.454288 5.500000
   vertex 23.500000 42.669868 4.300001
   vertex 23.799999 43.189491 6.700001
  endloop
 endfacet
 facet normal -0.332099 -0.912446 0.239066
  outer loop
   vertex 24.416929 42.650539 5.500000
   vertex 25.131760 42.075958 4.300000
   vertex 25.235950 42.666851 6.700001
  endloop
 endfacet
 facet normal 0.332104 -0.912444 0.239066
  outer loop
   vertex 27.583071 42.650539 5.500000
   vertex 28.500000 42.669868 4.300001
   vertex 28.200001 43.189491 6.700001
  endloop
 endfacet
 facet normal 0.332101 -0.912445 0.239067
  outer loop
   vertex 27.583071 42.650539 5.500000
   vertex 28.200001 43.189491 6.700001
   vertex 26.764050 42.666851 6.700001
  endloop
 endfacet
 facet normal 0.000000 0.000000 1.000000
  outer loop
   vertex 29.370590 44.171730 6.700001
   vertex 30.134649 45.495110 6.700001
   vertex 28.200001 43.189491 6.700001
  endloop
 endfacet
 facet normal 0.332099 -0.912446 0.239066
  outer loop
   vertex 27.583071 42.650539 5.500000
   vertex 26.764050 42.666851 6.700001
   vertex 26.868240 42.075958 4.300000
  endloop
 endfacet
 facet normal 0.000000 -0.971002 0.239071
  outer loop
   vertex 26.000000 42.371399 5.500000
   vertex 26.764050 42.666851 6.700001
   vertex 25.235950 42.666851 6.700001
  endloop
 endfacet
 facet normal -0.000007 -0.971003 0.239066
  outer loop
   vertex 26.000000 42.371399 5.500000
   vertex 25.235950 42.666851 6.700001
   vertex 25.131760 42.075958 4.300000
  endloop
 endfacet
 facet normal 0.624151 -0.743830 0.239066
  outer loop
   vertex 28.975201 43.454288 5.500000
   vertex 28.500000 42.669868 4.300001
   vertex 29.830219 43.786060 4.300001
  endloop
 endfacet
 facet normal 0.332102 -0.912445 0.239064
  outer loop
   vertex 27.583071 42.650539 5.500000
   vertex 26.868240 42.075958 4.300000
   vertex 28.500000 42.669868 4.300001
  endloop
 endfacet
 facet normal 0.956253 -0.168615 0.239059
  outer loop
   vertex 30.558281 46.196251 5.500000
   vertex 30.698460 45.289902 4.300001
   vertex 31.000000 47.000000 4.300001
  endloop
 endfacet
 facet normal 0.840915 -0.485501 0.239061
  outer loop
   vertex 30.008480 44.685699 5.500000
   vertex 29.830219 43.786060 4.300001
   vertex 30.698460 45.289902 4.300001
  endloop
 endfacet
 facet normal -0.624151 -0.743830 0.239066
  outer loop
   vertex 23.024799 43.454288 5.500000
   vertex 22.169781 43.786060 4.300001
   vertex 23.500000 42.669868 4.300001
  endloop
 endfacet
 facet normal 0.956253 0.168615 0.239059
  outer loop
   vertex 30.558281 47.803749 5.500001
   vertex 31.000000 47.000000 4.300001
   vertex 30.698460 48.710098 4.300001
  endloop
 endfacet
 facet normal 0.000000 -0.971004 0.239062
  outer loop
   vertex 26.000000 42.371399 5.500000
   vertex 25.131760 42.075958 4.300000
   vertex 26.868240 42.075958 4.300000
  endloop
 endfacet
 facet normal 0.840915 0.485501 0.239061
  outer loop
   vertex 30.008480 49.314301 5.500001
   vertex 30.698460 48.710098 4.300001
   vertex 29.830219 50.213940 4.300001
  endloop
 endfacet
 facet normal 0.624151 0.743830 0.239066
  outer loop
   vertex 28.975201 50.545712 5.500001
   vertex 29.830219 50.213940 4.300001
   vertex 28.500000 51.330132 4.300001
  endloop
 endfacet
 facet normal 0.332102 0.912445 0.239064
  outer loop
   vertex 27.583071 51.349461 5.500001
   vertex 28.500000 51.330132 4.300001
   vertex 26.868240 51.924042 4.300001
  endloop
 endfacet
 facet normal -0.840915 -0.485501 0.239061
  outer loop
   vertex 21.991520 44.685699 5.500000
   vertex 21.301540 45.289902 4.300001
   vertex 22.169781 43.786060 4.300001
  endloop
 endfacet
 facet normal -0.332102 0.912445 0.239064
  outer loop
   vertex 24.416929 51.349461 5.500001
   vertex 25.131760 51.924042 4.300001
   vertex 23.500000 51.330132 4.300001
  endloop
 endfacet
 facet normal -0.624151 0.743830 0.239066
  outer loop
   vertex 23.024799 50.545712 5.500001
   vertex 23.500000 51.330132 4.300001
   vertex 22.169781 50.213940 4.300001
  endloop
 endfacet
 facet normal -0.840915 0.485501 0.239061
  outer loop
   vertex 21.991520 49.314301 5.500001
   vertex 22.169781 50.213940 4.300001
   vertex 21.301540 48.710098 4.300001
  endloop
 endfacet
 facet normal -0.956253 0.168615 0.239059
  outer loop
   vertex 21.441719 47.803749 5.500001
   vertex 21.301540 48.710098 4.300001
   vertex 21.000000 47.000000 4.300001
  endloop
 endfacet
 facet normal -0.332102 -0.912445 0.239064
  outer loop
   vertex 24.416929 42.650539 5.500000
   vertex 23.500000 42.669868 4.300001
   vertex 25.131760 42.075958 4.300000
  endloop
 endfacet
 facet normal -0.956253 -0.168615 0.239059
  outer loop
   vertex 21.441719 46.196251 5.500000
   vertex 21.000000 47.000000 4.300001
   vertex 21.301540 45.289902 4.300001
  endloop
 endfacet
 facet normal 0.083284 0.951974 0.294635
  outer loop
   vertex 26.000000 51.702881 5.260001
   vertex 26.868240 51.924042 4.300001
   vertex 26.000000 52.000000 4.300001
  endloop
 endfacet
 facet normal -0.083284 0.951974 0.294635
  outer loop
   vertex 26.000000 51.702881 5.260001
   vertex 26.000000 52.000000 4.300001
   vertex 25.131760 51.924042 4.300001
  endloop
 endfacet
 facet normal 0.831469 0.555571 0.000000
  outer loop
   vertex 24.695210 46.128170 5.150001
   vertex 24.868629 45.868629 3.600001
   vertex 24.521790 46.387711 3.600001
  endloop
 endfacet
 facet normal 0.980786 -0.195087 -0.000003
  outer loop
   vertex 24.460899 47.306141 5.150001
   vertex 24.400000 47.000000 3.600001
   vertex 24.521790 47.612289 3.600001
  endloop
 endfacet
 facet normal 0.831469 -0.555571 0.000000
  outer loop
   vertex 24.695210 47.871830 5.150001
   vertex 24.521790 47.612289 3.600001
   vertex 24.868629 48.131371 3.600001
  endloop
 endfacet
 facet normal 0.195084 -0.980787 -0.000003
  outer loop
   vertex 25.693859 48.539101 5.150001
   vertex 25.387711 48.478210 3.600001
   vertex 26.000000 48.599998 3.600001
  endloop
 endfacet
 facet normal -0.195084 -0.980787 -0.000003
  outer loop
   vertex 26.306141 48.539101 5.150001
   vertex 26.000000 48.599998 3.600001
   vertex 26.612289 48.478210 3.600001
  endloop
 endfacet
 facet normal 0.555571 -0.831469 0.000000
  outer loop
   vertex 25.128170 48.304790 5.150001
   vertex 24.868629 48.131371 3.600001
   vertex 25.387711 48.478210 3.600001
  endloop
 endfacet
 facet normal -0.555571 -0.831469 0.000000
  outer loop
   vertex 26.871830 48.304790 5.150001
   vertex 26.612289 48.478210 3.600001
   vertex 27.131371 48.131371 3.600001
  endloop
 endfacet
 facet normal -0.831469 -0.555571 0.000000
  outer loop
   vertex 27.304790 47.871830 5.150001
   vertex 27.131371 48.131371 3.600001
   vertex 27.478210 47.612289 3.600001
  endloop
 endfacet
 facet normal 0.195084 0.980787 -0.000003
  outer loop
   vertex 25.693859 45.460899 5.150001
   vertex 26.000000 45.400002 3.600001
   vertex 25.387711 45.521790 3.600001
  endloop
 endfacet
 facet normal -0.980786 -0.195087 -0.000003
  outer loop
   vertex 27.539101 47.306141 5.150001
   vertex 27.478210 47.612289 3.600001
   vertex 27.600000 47.000000 3.600001
  endloop
 endfacet
 facet normal -0.980786 0.195087 -0.000003
  outer loop
   vertex 27.539101 46.693859 5.150001
   vertex 27.600000 47.000000 3.600001
   vertex 27.478210 46.387711 3.600001
  endloop
 endfacet
 facet normal -0.831469 0.555571 0.000000
  outer loop
   vertex 27.304790 46.128170 5.150001
   vertex 27.478210 46.387711 3.600001
   vertex 27.131371 45.868629 3.600001
  endloop
 endfacet
 facet normal -0.555571 0.831469 0.000000
  outer loop
   vertex 26.871830 45.695210 5.150001
   vertex 27.131371 45.868629 3.600001
   vertex 26.612289 45.521790 3.600001
  endloop
 endfacet
 facet normal 0.980786 0.195087 -0.000003
  outer loop
   vertex 24.460899 46.693859 5.150001
   vertex 24.521790 46.387711 3.600001
   vertex 24.400000 47.000000 3.600001
  endloop
 endfacet
 facet normal -0.195084 0.980787 -0.000003
  outer loop
   vertex 26.306141 45.460899 5.150001
   vertex 26.612289 45.521790 3.600001
   vertex 26.000000 45.400002 3.600001
  endloop
 endfacet
 facet normal 0.555571 0.831469 0.000000
  outer loop
   vertex 25.128170 45.695210 5.150001
   vertex 25.387711 45.521790 3.600001
   vertex 24.868629 45.868629 3.600001
  endloop
 endfacet
 facet normal -0.445920 0.075997 0.891841
  outer loop
   vertex 20.108360 48.222569 4.000001
   vertex 19.500000 47.000000 3.800001
   vertex 20.500000 47.000000 4.300001
  endloop
 endfacet
 facet normal -0.441605 0.077866 0.893824
  outer loop
   vertex 20.108360 48.222569 4.000001
   vertex 20.500000 47.000000 4.300001
   vertex 20.831690 48.881111 4.300001
  endloop
 endfacet
 facet normal -0.441605 -0.077867 0.893824
  outer loop
   vertex 20.108360 45.777431 4.000000
   vertex 20.831690 45.118889 4.300001
   vertex 20.500000 47.000000 4.300001
  endloop
 endfacet
 facet normal 0.445920 -0.075998 0.891840
  outer loop
   vertex 31.891640 45.777431 4.000000
   vertex 32.500000 47.000000 3.800001
   vertex 31.500000 47.000000 4.300001
  endloop
 endfacet
 facet normal -0.444688 0.082124 0.891913
  outer loop
   vertex 20.108360 48.222569 4.000001
   vertex 20.831690 48.881111 4.300001
   vertex 19.892000 49.223129 3.800001
  endloop
 endfacet
 facet normal -0.388210 0.231267 0.892081
  outer loop
   vertex 20.854509 50.127659 4.000001
   vertex 21.786751 50.535332 4.300001
   vertex 21.020710 51.178120 3.800001
  endloop
 endfacet
 facet normal 0.150971 -0.414792 0.897304
  outer loop
   vertex 28.018480 41.321629 4.000000
   vertex 28.750000 42.236858 4.300001
   vertex 26.955070 41.583561 4.300000
  endloop
 endfacet
 facet normal -0.295392 0.341900 0.892103
  outer loop
   vertex 22.197371 51.672871 4.000001
   vertex 21.020710 51.178120 3.800001
   vertex 21.786751 50.535332 4.300001
  endloop
 endfacet
 facet normal 0.444687 -0.082123 0.891913
  outer loop
   vertex 31.891640 45.777431 4.000000
   vertex 31.168310 45.118889 4.300001
   vertex 32.108002 44.776871 3.800001
  endloop
 endfacet
 facet normal -0.284367 0.350922 0.892182
  outer loop
   vertex 22.197371 51.672871 4.000001
   vertex 23.250000 51.763142 4.300001
   vertex 22.750000 52.629169 3.800001
  endloop
 endfacet
 facet normal -0.393861 0.221880 0.891988
  outer loop
   vertex 20.854509 50.127659 4.000001
   vertex 19.892000 49.223129 3.800001
   vertex 20.831690 48.881111 4.300001
  endloop
 endfacet
 facet normal -0.385494 0.222564 0.895466
  outer loop
   vertex 20.854509 50.127659 4.000001
   vertex 20.831690 48.881111 4.300001
   vertex 21.786751 50.535332 4.300001
  endloop
 endfacet
 facet normal -0.146488 0.427166 0.892228
  outer loop
   vertex 23.981520 52.678379 4.000001
   vertex 25.044930 52.416439 4.300001
   vertex 24.871290 53.401249 3.800002
  endloop
 endfacet
 facet normal 0.441605 -0.077867 0.893824
  outer loop
   vertex 31.891640 45.777431 4.000000
   vertex 31.500000 47.000000 4.300001
   vertex 31.168310 45.118889 4.300001
  endloop
 endfacet
 facet normal -0.150970 0.414788 0.897307
  outer loop
   vertex 23.981520 52.678379 4.000001
   vertex 23.250000 51.763142 4.300001
   vertex 25.044930 52.416439 4.300001
  endloop
 endfacet
 facet normal 0.000000 0.000000 1.000000
  outer loop
   vertex 28.750000 51.763142 4.300001
   vertex 26.955070 52.416439 4.300001
   vertex 26.868240 51.924042 4.300001
  endloop
 endfacet
 facet normal -0.385494 -0.222564 0.895466
  outer loop
   vertex 20.854509 43.872341 4.000000
   vertex 21.786751 43.464668 4.300001
   vertex 20.831690 45.118889 4.300001
  endloop
 endfacet
 facet normal -0.445920 -0.075998 0.891840
  outer loop
   vertex 20.108360 45.777431 4.000000
   vertex 20.500000 47.000000 4.300001
   vertex 19.500000 47.000000 3.800001
  endloop
 endfacet
 facet normal -0.161740 -0.421721 0.892184
  outer loop
   vertex 23.981520 41.321629 4.000000
   vertex 23.250000 42.236858 4.300001
   vertex 22.750000 41.370831 3.800000
  endloop
 endfacet
 facet normal 0.393860 -0.221880 0.891988
  outer loop
   vertex 31.145491 43.872341 4.000000
   vertex 32.108002 44.776871 3.800001
   vertex 31.168310 45.118889 4.300001
  endloop
 endfacet
 facet normal 0.146488 0.427166 0.892228
  outer loop
   vertex 28.018480 52.678379 4.000001
   vertex 27.128710 53.401249 3.800002
   vertex 26.955070 52.416439 4.300001
  endloop
 endfacet
 facet normal 0.161743 0.421719 0.892184
  outer loop
   vertex 28.018480 52.678379 4.000001
   vertex 28.750000 51.763142 4.300001
   vertex 29.250000 52.629169 3.800001
  endloop
 endfacet
 facet normal 0.150970 0.414788 0.897307
  outer loop
   vertex 28.018480 52.678379 4.000001
   vertex 26.955070 52.416439 4.300001
   vertex 28.750000 51.763142 4.300001
  endloop
 endfacet
 facet normal 0.284367 0.350922 0.892182
  outer loop
   vertex 29.802629 51.672871 4.000001
   vertex 29.250000 52.629169 3.800001
   vertex 28.750000 51.763142 4.300001
  endloop
 endfacet
 facet normal 0.146491 -0.427166 0.892227
  outer loop
   vertex 28.018480 41.321629 4.000000
   vertex 26.955070 41.583561 4.300000
   vertex 27.128710 40.598751 3.800000
  endloop
 endfacet
 facet normal 0.161740 -0.421721 0.892184
  outer loop
   vertex 28.018480 41.321629 4.000000
   vertex 29.250000 41.370831 3.800000
   vertex 28.750000 42.236858 4.300001
  endloop
 endfacet
 facet normal 0.295392 0.341900 0.892103
  outer loop
   vertex 29.802629 51.672871 4.000001
   vertex 30.213249 50.535332 4.300001
   vertex 30.979290 51.178120 3.800001
  endloop
 endfacet
 facet normal 0.284627 0.339206 0.896620
  outer loop
   vertex 29.802629 51.672871 4.000001
   vertex 28.750000 51.763142 4.300001
   vertex 30.213249 50.535332 4.300001
  endloop
 endfacet
 facet normal 0.388210 0.231267 0.892081
  outer loop
   vertex 31.145491 50.127659 4.000001
   vertex 30.979290 51.178120 3.800001
   vertex 30.213249 50.535332 4.300001
  endloop
 endfacet
 facet normal 0.393860 0.221880 0.891988
  outer loop
   vertex 31.145491 50.127659 4.000001
   vertex 31.168310 48.881111 4.300001
   vertex 32.108002 49.223129 3.800001
  endloop
 endfacet
 facet normal 0.388210 -0.231267 0.892081
  outer loop
   vertex 31.145491 43.872341 4.000000
   vertex 30.213249 43.464668 4.300001
   vertex 30.979290 42.821880 3.800001
  endloop
 endfacet
 facet normal 0.385494 0.222564 0.895466
  outer loop
   vertex 31.145491 50.127659 4.000001
   vertex 30.213249 50.535332 4.300001
   vertex 31.168310 48.881111 4.300001
  endloop
 endfacet
 facet normal 0.444687 0.082123 0.891913
  outer loop
   vertex 31.891640 48.222569 4.000001
   vertex 32.108002 49.223129 3.800001
   vertex 31.168310 48.881111 4.300001
  endloop
 endfacet
 facet normal 0.445920 0.075997 0.891841
  outer loop
   vertex 31.891640 48.222569 4.000001
   vertex 31.500000 47.000000 4.300001
   vertex 32.500000 47.000000 3.800001
  endloop
 endfacet
 facet normal 0.441605 0.077866 0.893824
  outer loop
   vertex 31.891640 48.222569 4.000001
   vertex 31.168310 48.881111 4.300001
   vertex 31.500000 47.000000 4.300001
  endloop
 endfacet
 facet normal -0.393861 -0.221880 0.891988
  outer loop
   vertex 20.854509 43.872341 4.000000
   vertex 20.831690 45.118889 4.300001
   vertex 19.892000 44.776871 3.800001
  endloop
 endfacet
 facet normal 0.385494 -0.222564 0.895466
  outer loop
   vertex 31.145491 43.872341 4.000000
   vertex 31.168310 45.118889 4.300001
   vertex 30.213249 43.464668 4.300001
  endloop
 endfacet
 facet normal -0.388210 -0.231267 0.892081
  outer loop
   vertex 20.854509 43.872341 4.000000
   vertex 21.020710 42.821880 3.800001
   vertex 21.786751 43.464668 4.300001
  endloop
 endfacet
 facet normal 0.008421 -0.451510 0.892227
  outer loop
   vertex 26.000000 40.972919 4.000000
   vertex 27.128710 40.598751 3.800000
   vertex 26.955070 41.583561 4.300000
  endloop
 endfacet
 facet normal -0.295392 -0.341900 0.892103
  outer loop
   vertex 22.197371 42.327129 4.000000
   vertex 21.786751 43.464668 4.300001
   vertex 21.020710 42.821880 3.800001
  endloop
 endfacet
 facet normal -0.284627 -0.339206 0.896620
  outer loop
   vertex 22.197371 42.327129 4.000000
   vertex 23.250000 42.236858 4.300001
   vertex 21.786751 43.464668 4.300001
  endloop
 endfacet
 facet normal 0.295392 -0.341900 0.892103
  outer loop
   vertex 29.802629 42.327129 4.000000
   vertex 30.979290 42.821880 3.800001
   vertex 30.213249 43.464668 4.300001
  endloop
 endfacet
 facet normal -0.008421 -0.451510 0.892227
  outer loop
   vertex 26.000000 40.972919 4.000000
   vertex 25.044930 41.583561 4.300000
   vertex 24.871290 40.598751 3.800000
  endloop
 endfacet
 facet normal -0.284367 -0.350922 0.892182
  outer loop
   vertex 22.197371 42.327129 4.000000
   vertex 22.750000 41.370831 3.800000
   vertex 23.250000 42.236858 4.300001
  endloop
 endfacet
 facet normal -0.150971 -0.414792 0.897304
  outer loop
   vertex 23.981520 41.321629 4.000000
   vertex 25.044930 41.583561 4.300000
   vertex 23.250000 42.236858 4.300001
  endloop
 endfacet
 facet normal -0.008420 0.451509 0.892227
  outer loop
   vertex 26.000000 53.027081 4.000001
   vertex 24.871290 53.401249 3.800002
   vertex 25.044930 52.416439 4.300001
  endloop
 endfacet
 facet normal -0.146491 -0.427166 0.892227
  outer loop
   vertex 23.981520 41.321629 4.000000
   vertex 24.871290 40.598751 3.800000
   vertex 25.044930 41.583561 4.300000
  endloop
 endfacet
 facet normal 0.284627 -0.339206 0.896620
  outer loop
   vertex 29.802629 42.327129 4.000000
   vertex 30.213249 43.464668 4.300001
   vertex 28.750000 42.236858 4.300001
  endloop
 endfacet
 facet normal 0.000000 -0.440946 0.897533
  outer loop
   vertex 26.000000 40.972919 4.000000
   vertex 26.955070 41.583561 4.300000
   vertex 25.044930 41.583561 4.300000
  endloop
 endfacet
 facet normal 0.008420 0.451509 0.892227
  outer loop
   vertex 26.000000 53.027081 4.000001
   vertex 26.955070 52.416439 4.300001
   vertex 27.128710 53.401249 3.800002
  endloop
 endfacet
 facet normal 0.000000 0.440946 0.897533
  outer loop
   vertex 26.000000 53.027081 4.000001
   vertex 25.044930 52.416439 4.300001
   vertex 26.955070 52.416439 4.300001
  endloop
 endfacet
 facet normal -0.284627 0.339206 0.896620
  outer loop
   vertex 22.197371 51.672871 4.000001
   vertex 21.786751 50.535332 4.300001
   vertex 23.250000 51.763142 4.300001
  endloop
 endfacet
 facet normal 0.284367 -0.350922 0.892182
  outer loop
   vertex 29.802629 42.327129 4.000000
   vertex 28.750000 42.236858 4.300001
   vertex 29.250000 41.370831 3.800000
  endloop
 endfacet
 facet normal -0.161743 0.421719 0.892184
  outer loop
   vertex 23.981520 52.678379 4.000001
   vertex 22.750000 52.629169 3.800001
   vertex 23.250000 51.763142 4.300001
  endloop
 endfacet
 facet normal -0.444688 -0.082124 0.891913
  outer loop
   vertex 20.108360 45.777431 4.000000
   vertex 19.892000 44.776871 3.800001
   vertex 20.831690 45.118889 4.300001
  endloop
 endfacet
 facet normal 0.000000 0.000000 1.000000
  outer loop
   vertex 28.500000 51.330132 4.300001
   vertex 28.750000 51.763142 4.300001
   vertex 26.868240 51.924042 4.300001
  endloop
 endfacet
 facet normal 0.000000 0.000000 1.000000
  outer loop
   vertex 20.831690 45.118889 4.300001
   vertex 21.000000 47.000000 4.300001
   vertex 20.500000 47.000000 4.300001
  endloop
 endfacet
 facet normal 0.000000 0.000000 1.000000
  outer loop
   vertex 26.868240 51.924042 4.300001
   vertex 26.955070 52.416439 4.300001
   vertex 26.000000 52.000000 4.300001
  endloop
 endfacet
 facet normal 0.000000 0.000000 1.000000
  outer loop
   vertex 21.301540 45.289902 4.300001
   vertex 21.000000 47.000000 4.300001
   vertex 20.831690 45.118889 4.300001
  endloop
 endfacet
 facet normal 0.000000 0.000000 1.000000
  outer loop
   vertex 26.000000 52.000000 4.300001
   vertex 25.044930 52.416439 4.300001
   vertex 25.131760 51.924042 4.300001
  endloop
 endfacet
 facet normal 0.000000 0.000000 1.000000
  outer loop
   vertex 21.000000 47.000000 4.300001
   vertex 21.301540 48.710098 4.300001
   vertex 20.500000 47.000000 4.300001
  endloop
 endfacet
 facet normal 0.000000 0.000000 1.000000
  outer loop
   vertex 26.955070 52.416439 4.300001
   vertex 25.044930 52.416439 4.300001
   vertex 26.000000 52.000000 4.300001
  endloop
 endfacet
 facet normal 0.000000 0.000000 1.000000
  outer loop
   vertex 20.500000 47.000000 4.300001
   vertex 21.301540 48.710098 4.300001
   vertex 20.831690 48.881111 4.300001
  endloop
 endfacet
 facet normal 0.000000 0.000000 1.000000
  outer loop
   vertex 25.044930 52.416439 4.300001
   vertex 23.250000 51.763142 4.300001
   vertex 23.500000 51.330132 4.300001
  endloop
 endfacet
 facet normal 0.000000 0.000000 1.000000
  outer loop
   vertex 25.131760 51.924042 4.300001
   vertex 25.044930 52.416439 4.300001
   vertex 23.500000 51.330132 4.300001
  endloop
 endfacet
 facet normal 0.000000 0.000000 1.000000
  outer loop
   vertex 23.500000 51.330132 4.300001
   vertex 23.250000 51.763142 4.300001
   vertex 22.169781 50.213940 4.300001
  endloop
 endfacet
 facet normal 0.000000 0.000000 1.000000
  outer loop
   vertex 22.169781 50.213940 4.300001
   vertex 23.250000 51.763142 4.300001
   vertex 20.831690 48.881111 4.300001
  endloop
 endfacet
 facet normal 0.000000 0.000000 1.000000
  outer loop
   vertex 21.301540 48.710098 4.300001
   vertex 22.169781 50.213940 4.300001
   vertex 20.831690 48.881111 4.300001
  endloop
 endfacet
 facet normal 0.000000 0.000000 1.000000
  outer loop
   vertex 21.786751 43.464668 4.300001
   vertex 21.301540 45.289902 4.300001
   vertex 20.831690 45.118889 4.300001
  endloop
 endfacet
 facet normal 0.000000 0.000000 1.000000
  outer loop
   vertex 22.169781 43.786060 4.300001
   vertex 21.301540 45.289902 4.300001
   vertex 21.786751 43.464668 4.300001
  endloop
 endfacet
 facet normal 0.000000 0.000000 1.000000
  outer loop
   vertex 20.831690 48.881111 4.300001
   vertex 23.250000 51.763142 4.300001
   vertex 21.786751 50.535332 4.300001
  endloop
 endfacet
 facet normal 0.000000 0.000000 1.000000
  outer loop
   vertex 30.213249 50.535332 4.300001
   vertex 28.750000 51.763142 4.300001
   vertex 29.830219 50.213940 4.300001
  endloop
 endfacet
 facet normal 0.000000 0.000000 1.000000
  outer loop
   vertex 23.500000 42.669868 4.300001
   vertex 22.169781 43.786060 4.300001
   vertex 21.786751 43.464668 4.300001
  endloop
 endfacet
 facet normal 0.000000 0.000000 1.000000
  outer loop
   vertex 29.830219 50.213940 4.300001
   vertex 28.750000 51.763142 4.300001
   vertex 28.500000 51.330132 4.300001
  endloop
 endfacet
 facet normal 0.000000 0.000000 1.000000
  outer loop
   vertex 30.698460 48.710098 4.300001
   vertex 30.213249 50.535332 4.300001
   vertex 29.830219 50.213940 4.300001
  endloop
 endfacet
 facet normal 0.000000 0.000000 1.000000
  outer loop
   vertex 31.168310 48.881111 4.300001
   vertex 30.213249 50.535332 4.300001
   vertex 30.698460 48.710098 4.300001
  endloop
 endfacet
 facet normal 0.000000 0.000000 1.000000
  outer loop
   vertex 23.250000 42.236858 4.300001
   vertex 23.500000 42.669868 4.300001
   vertex 21.786751 43.464668 4.300001
  endloop
 endfacet
 facet normal 0.000000 0.000000 1.000000
  outer loop
   vertex 25.044930 41.583561 4.300000
   vertex 25.131760 42.075958 4.300000
   vertex 23.250000 42.236858 4.300001
  endloop
 endfacet
 facet normal 0.000000 0.000000 1.000000
  outer loop
   vertex 31.000000 47.000000 4.300001
   vertex 31.168310 48.881111 4.300001
   vertex 30.698460 48.710098 4.300001
  endloop
 endfacet
 facet normal 0.000000 0.000000 1.000000
  outer loop
   vertex 25.131760 42.075958 4.300000
   vertex 23.500000 42.669868 4.300001
   vertex 23.250000 42.236858 4.300001
  endloop
 endfacet
 facet normal 0.000000 0.000000 1.000000
  outer loop
   vertex 31.500000 47.000000 4.300001
   vertex 31.168310 48.881111 4.300001
   vertex 31.000000 47.000000 4.300001
  endloop
 endfacet
 facet normal 0.000000 0.000000 1.000000
  outer loop
   vertex 26.955070 41.583561 4.300000
   vertex 26.868240 42.075958 4.300000
   vertex 25.044930 41.583561 4.300000
  endloop
 endfacet
 facet normal 0.000000 0.000000 1.000000
  outer loop
   vertex 26.868240 42.075958 4.300000
   vertex 25.131760 42.075958 4.300000
   vertex 25.044930 41.583561 4.300000
  endloop
 endfacet
 facet normal 0.000000 0.000000 1.000000
  outer loop
   vertex 28.500000 42.669868 4.300001
   vertex 26.868240 42.075958 4.300000
   vertex 26.955070 41.583561 4.300000
  endloop
 endfacet
 facet normal 0.000000 0.000000 1.000000
  outer loop
   vertex 31.168310 45.118889 4.300001
   vertex 30.698460 45.289902 4.300001
   vertex 29.830219 43.786060 4.300001
  endloop
 endfacet
 facet normal 0.000000 0.000000 1.000000
  outer loop
   vertex 30.698460 45.289902 4.300001
   vertex 31.500000 47.000000 4.300001
   vertex 31.000000 47.000000 4.300001
  endloop
 endfacet
 facet normal 0.000000 0.000000 1.000000
  outer loop
   vertex 28.750000 42.236858 4.300001
   vertex 31.168310 45.118889 4.300001
   vertex 29.830219 43.786060 4.300001
  endloop
 endfacet
 facet normal 0.000000 0.000000 1.000000
  outer loop
   vertex 28.750000 42.236858 4.300001
   vertex 29.830219 43.786060 4.300001
   vertex 28.500000 42.669868 4.300001
  endloop
 endfacet
 facet normal 0.000000 0.000000 1.000000
  outer loop
   vertex 31.168310 45.118889 4.300001
   vertex 31.500000 47.000000 4.300001
   vertex 30.698460 45.289902 4.300001
  endloop
 endfacet
 facet normal 0.000000 0.000000 1.000000
  outer loop
   vertex 30.213249 43.464668 4.300001
   vertex 31.168310 45.118889 4.300001
   vertex 28.750000 42.236858 4.300001
  endloop
 endfacet
 facet normal 0.000000 0.000000 1.000000
  outer loop
   vertex 28.750000 42.236858 4.300001
   vertex 28.500000 42.669868 4.300001
   vertex 26.955070 41.583561 4.300000
  endloop
 endfacet
 facet normal 0.433351 0.068635 0.898608
  outer loop
   vertex 31.891640 48.222569 4.000001
   vertex 32.500000 47.000000 3.800001
   vertex 32.181870 49.008610 3.800001
  endloop
 endfacet
 facet normal 0.375815 0.199825 0.904894
  outer loop
   vertex 31.145491 50.127659 4.000001
   vertex 32.108002 49.223129 3.800001
   vertex 31.258610 50.820599 3.800001
  endloop
 endfacet
 facet normal 0.284909 0.222590 0.932352
  outer loop
   vertex 31.145491 50.127659 4.000001
   vertex 31.258610 50.820599 3.800001
   vertex 30.979290 51.178120 3.800001
  endloop
 endfacet
 facet normal 0.333636 0.114884 0.935676
  outer loop
   vertex 31.891640 48.222569 4.000001
   vertex 32.181870 49.008610 3.800001
   vertex 32.108002 49.223129 3.800001
  endloop
 endfacet
 facet normal 0.201919 0.310922 0.928739
  outer loop
   vertex 29.802629 51.672871 4.000001
   vertex 29.820601 52.258610 3.800001
   vertex 29.250000 52.629169 3.800001
  endloop
 endfacet
 facet normal 0.163386 0.366971 0.915771
  outer loop
   vertex 28.018480 52.678379 4.000001
   vertex 29.250000 52.629169 3.800001
   vertex 28.008610 53.181870 3.800002
  endloop
 endfacet
 facet normal 0.281872 0.302273 0.910593
  outer loop
   vertex 29.802629 51.672871 4.000001
   vertex 30.979290 51.178120 3.800001
   vertex 29.820601 52.258610 3.800001
  endloop
 endfacet
 facet normal 0.034058 0.389279 0.920490
  outer loop
   vertex 26.000000 53.027081 4.000001
   vertex 27.128710 53.401249 3.800002
   vertex 26.000000 53.500000 3.800002
  endloop
 endfacet
 facet normal -0.034058 0.389279 0.920490
  outer loop
   vertex 26.000000 53.027081 4.000001
   vertex 26.000000 53.500000 3.800002
   vertex 24.871290 53.401249 3.800002
  endloop
 endfacet
 facet normal 0.092040 0.369158 0.924798
  outer loop
   vertex 28.018480 52.678379 4.000001
   vertex 28.008610 53.181870 3.800002
   vertex 27.128710 53.401249 3.800002
  endloop
 endfacet
 facet normal -0.163386 0.366971 0.915771
  outer loop
   vertex 23.981520 52.678379 4.000001
   vertex 23.991390 53.181870 3.800002
   vertex 22.750000 52.629169 3.800001
  endloop
 endfacet
 facet normal -0.201919 0.310922 0.928739
  outer loop
   vertex 22.197371 51.672871 4.000001
   vertex 22.750000 52.629169 3.800001
   vertex 22.179399 52.258610 3.800001
  endloop
 endfacet
 facet normal -0.092040 0.369158 0.924798
  outer loop
   vertex 23.981520 52.678379 4.000001
   vertex 24.871290 53.401249 3.800002
   vertex 23.991390 53.181870 3.800002
  endloop
 endfacet
 facet normal -0.284909 0.222590 0.932352
  outer loop
   vertex 20.854509 50.127659 4.000001
   vertex 21.020710 51.178120 3.800001
   vertex 20.741390 50.820599 3.800001
  endloop
 endfacet
 facet normal -0.375816 0.199825 0.904894
  outer loop
   vertex 20.854509 50.127659 4.000001
   vertex 20.741390 50.820599 3.800001
   vertex 19.892000 49.223129 3.800001
  endloop
 endfacet
 facet normal -0.281872 0.302273 0.910593
  outer loop
   vertex 22.197371 51.672871 4.000001
   vertex 22.179399 52.258610 3.800001
   vertex 21.020710 51.178120 3.800001
  endloop
 endfacet
 facet normal -0.433351 0.068635 0.898608
  outer loop
   vertex 20.108360 48.222569 4.000001
   vertex 19.818130 49.008610 3.800001
   vertex 19.500000 47.000000 3.800001
  endloop
 endfacet
 facet normal -0.433350 -0.068635 0.898608
  outer loop
   vertex 20.108360 45.777431 4.000000
   vertex 19.500000 47.000000 3.800001
   vertex 19.818130 44.991390 3.800001
  endloop
 endfacet
 facet normal -0.333632 0.114886 0.935677
  outer loop
   vertex 20.108360 48.222569 4.000001
   vertex 19.892000 49.223129 3.800001
   vertex 19.818130 49.008610 3.800001
  endloop
 endfacet
 facet normal -0.375816 -0.199825 0.904894
  outer loop
   vertex 20.854509 43.872341 4.000000
   vertex 19.892000 44.776871 3.800001
   vertex 20.741390 43.179401 3.800001
  endloop
 endfacet
 facet normal -0.284909 -0.222590 0.932352
  outer loop
   vertex 20.854509 43.872341 4.000000
   vertex 20.741390 43.179401 3.800001
   vertex 21.020710 42.821880 3.800001
  endloop
 endfacet
 facet normal -0.333632 -0.114886 0.935677
  outer loop
   vertex 20.108360 45.777431 4.000000
   vertex 19.818130 44.991390 3.800001
   vertex 19.892000 44.776871 3.800001
  endloop
 endfacet
 facet normal -0.201919 -0.310922 0.928739
  outer loop
   vertex 22.197371 42.327129 4.000000
   vertex 22.179399 41.741390 3.800000
   vertex 22.750000 41.370831 3.800000
  endloop
 endfacet
 facet normal -0.163384 -0.366967 0.915773
  outer loop
   vertex 23.981520 41.321629 4.000000
   vertex 22.750000 41.370831 3.800000
   vertex 23.991390 40.818130 3.800000
  endloop
 endfacet
 facet normal -0.281873 -0.302273 0.910593
  outer loop
   vertex 22.197371 42.327129 4.000000
   vertex 21.020710 42.821880 3.800001
   vertex 22.179399 41.741390 3.800000
  endloop
 endfacet
 facet normal -0.034058 -0.389279 0.920490
  outer loop
   vertex 26.000000 40.972919 4.000000
   vertex 24.871290 40.598751 3.800000
   vertex 26.000000 40.500000 3.800000
  endloop
 endfacet
 facet normal 0.034058 -0.389279 0.920490
  outer loop
   vertex 26.000000 40.972919 4.000000
   vertex 26.000000 40.500000 3.800000
   vertex 27.128710 40.598751 3.800000
  endloop
 endfacet
 facet normal -0.092039 -0.369154 0.924800
  outer loop
   vertex 23.981520 41.321629 4.000000
   vertex 23.991390 40.818130 3.800000
   vertex 24.871290 40.598751 3.800000
  endloop
 endfacet
 facet normal 0.163384 -0.366967 0.915773
  outer loop
   vertex 28.018480 41.321629 4.000000
   vertex 28.008610 40.818130 3.800000
   vertex 29.250000 41.370831 3.800000
  endloop
 endfacet
 facet normal 0.201919 -0.310922 0.928739
  outer loop
   vertex 29.802629 42.327129 4.000000
   vertex 29.250000 41.370831 3.800000
   vertex 29.820601 41.741390 3.800000
  endloop
 endfacet
 facet normal 0.092039 -0.369154 0.924800
  outer loop
   vertex 28.018480 41.321629 4.000000
   vertex 27.128710 40.598751 3.800000
   vertex 28.008610 40.818130 3.800000
  endloop
 endfacet
 facet normal 0.284909 -0.222590 0.932352
  outer loop
   vertex 31.145491 43.872341 4.000000
   vertex 30.979290 42.821880 3.800001
   vertex 31.258610 43.179401 3.800001
  endloop
 endfacet
 facet normal 0.375815 -0.199825 0.904894
  outer loop
   vertex 31.145491 43.872341 4.000000
   vertex 31.258610 43.179401 3.800001
   vertex 32.108002 44.776871 3.800001
  endloop
 endfacet
 facet normal 0.433350 -0.068635 0.898608
  outer loop
   vertex 31.891640 45.777431 4.000000
   vertex 32.181870 44.991390 3.800001
   vertex 32.500000 47.000000 3.800001
  endloop
 endfacet
 facet normal 0.281873 -0.302273 0.910593
  outer loop
   vertex 29.802629 42.327129 4.000000
   vertex 29.820601 41.741390 3.800000
   vertex 30.979290 42.821880 3.800001
  endloop
 endfacet
 facet normal 0.333636 -0.114884 0.935676
  outer loop
   vertex 31.891640 45.777431 4.000000
   vertex 32.108002 44.776871 3.800001
   vertex 32.181870 44.991390 3.800001
  endloop
 endfacet
 facet normal 0.888554 -0.458773 0.000000
  outer loop
   vertex 31.797791 44.223690 3.720001
   vertex 31.258610 43.179401 3.800001
   vertex 31.258610 43.179401 3.600001
  endloop
 endfacet
 facet normal 0.987688 -0.156438 0.000000
  outer loop
   vertex 32.340931 45.995701 3.700001
   vertex 32.500000 47.000000 3.600001
   vertex 32.500000 47.000000 3.800001
  endloop
 endfacet
 facet normal 0.894321 -0.447427 0.000000
  outer loop
   vertex 31.797791 44.223690 3.720001
   vertex 32.181870 44.991390 3.600001
   vertex 32.181870 44.991390 3.800001
  endloop
 endfacet
 facet normal 0.545674 -0.187898 -0.816660
  outer loop
   vertex 31.797791 44.223690 3.720001
   vertex 32.181870 44.991390 3.800001
   vertex 32.108002 44.776871 3.800001
  endloop
 endfacet
 facet normal 0.869364 -0.462250 -0.174731
  outer loop
   vertex 31.797791 44.223690 3.720001
   vertex 32.108002 44.776871 3.800001
   vertex 31.258610 43.179401 3.800001
  endloop
 endfacet
 facet normal 0.642726 -0.689242 -0.334437
  outer loop
   vertex 30.627541 42.532688 3.720001
   vertex 30.979290 42.821880 3.800001
   vertex 29.820601 41.741390 3.800000
  endloop
 endfacet
 facet normal 0.715710 -0.698397 0.000000
  outer loop
   vertex 30.627541 42.532688 3.720001
   vertex 31.258610 43.179401 3.600001
   vertex 31.258610 43.179401 3.800001
  endloop
 endfacet
 facet normal 0.494853 -0.386613 -0.778236
  outer loop
   vertex 30.627541 42.532688 3.720001
   vertex 31.258610 43.179401 3.800001
   vertex 30.979290 42.821880 3.800001
  endloop
 endfacet
 facet normal 0.373192 -0.574654 -0.728354
  outer loop
   vertex 28.981689 41.297981 3.720000
   vertex 29.820601 41.741390 3.800000
   vertex 29.250000 41.370831 3.800000
  endloop
 endfacet
 facet normal 0.700153 -0.713993 0.000000
  outer loop
   vertex 30.627541 42.532688 3.720001
   vertex 29.820601 41.741390 3.800000
   vertex 29.820601 41.741390 3.600000
  endloop
 endfacet
 facet normal 0.467295 -0.884102 0.000000
  outer loop
   vertex 28.981689 41.297981 3.720000
   vertex 29.820601 41.741390 3.600000
   vertex 29.820601 41.741390 3.800000
  endloop
 endfacet
 facet normal 0.172119 -0.985076 0.000000
  outer loop
   vertex 27.029190 40.646999 3.720000
   vertex 28.008610 40.818130 3.600000
   vertex 28.008610 40.818130 3.800000
  endloop
 endfacet
 facet normal 0.359045 -0.806432 -0.469845
  outer loop
   vertex 28.981689 41.297981 3.720000
   vertex 29.250000 41.370831 3.800000
   vertex 28.008610 40.818130 3.800000
  endloop
 endfacet
 facet normal 0.442275 -0.896880 0.000000
  outer loop
   vertex 28.981689 41.297981 3.720000
   vertex 28.008610 40.818130 3.800000
   vertex 28.008610 40.818130 3.600000
  endloop
 endfacet
 facet normal 0.141395 -0.989953 0.000000
  outer loop
   vertex 27.029190 40.646999 3.720000
   vertex 26.000000 40.500000 3.800000
   vertex 26.000000 40.500000 3.600000
  endloop
 endfacet
 facet normal 0.181059 -0.726201 -0.663212
  outer loop
   vertex 27.029190 40.646999 3.720000
   vertex 28.008610 40.818130 3.800000
   vertex 27.128710 40.598751 3.800000
  endloop
 endfacet
 facet normal 0.071092 -0.812574 -0.578506
  outer loop
   vertex 27.029190 40.646999 3.720000
   vertex 27.128710 40.598751 3.800000
   vertex 26.000000 40.500000 3.800000
  endloop
 endfacet
 facet normal -0.181059 -0.726201 -0.663212
  outer loop
   vertex 24.970810 40.646999 3.720000
   vertex 24.871290 40.598751 3.800000
   vertex 23.991390 40.818130 3.800000
  endloop
 endfacet
 facet normal -0.141395 -0.989953 0.000000
  outer loop
   vertex 24.970810 40.646999 3.720000
   vertex 26.000000 40.500000 3.600000
   vertex 26.000000 40.500000 3.800000
  endloop
 endfacet
 facet normal -0.071092 -0.812574 -0.578506
  outer loop
   vertex 24.970810 40.646999 3.720000
   vertex 26.000000 40.500000 3.800000
   vertex 24.871290 40.598751 3.800000
  endloop
 endfacet
 facet normal -0.359045 -0.806432 -0.469845
  outer loop
   vertex 23.018311 41.297981 3.720000
   vertex 23.991390 40.818130 3.800000
   vertex 22.750000 41.370831 3.800000
  endloop
 endfacet
 facet normal -0.172119 -0.985076 0.000000
  outer loop
   vertex 24.970810 40.646999 3.720000
   vertex 23.991390 40.818130 3.800000
   vertex 23.991390 40.818130 3.600000
  endloop
 endfacet
 facet normal -0.442275 -0.896880 0.000000
  outer loop
   vertex 23.018311 41.297981 3.720000
   vertex 23.991390 40.818130 3.600000
   vertex 23.991390 40.818130 3.800000
  endloop
 endfacet
 facet normal -0.642726 -0.689242 -0.334437
  outer loop
   vertex 21.372459 42.532688 3.720001
   vertex 22.179399 41.741390 3.800000
   vertex 21.020710 42.821880 3.800001
  endloop
 endfacet
 facet normal -0.467295 -0.884102 0.000000
  outer loop
   vertex 23.018311 41.297981 3.720000
   vertex 22.179399 41.741390 3.800000
   vertex 22.179399 41.741390 3.600000
  endloop
 endfacet
 facet normal -0.700153 -0.713993 0.000000
  outer loop
   vertex 21.372459 42.532688 3.720001
   vertex 22.179399 41.741390 3.600000
   vertex 22.179399 41.741390 3.800000
  endloop
 endfacet
 facet normal -0.888554 -0.458773 0.000000
  outer loop
   vertex 20.202209 44.223690 3.720001
   vertex 20.741390 43.179401 3.600001
   vertex 20.741390 43.179401 3.800001
  endloop
 endfacet
 facet normal -0.494853 -0.386613 -0.778236
  outer loop
   vertex 21.372459 42.532688 3.720001
   vertex 21.020710 42.821880 3.800001
   vertex 20.741390 43.179401 3.800001
  endloop
 endfacet
 facet normal -0.715710 -0.698397 0.000000
  outer loop
   vertex 21.372459 42.532688 3.720001
   vertex 20.741390 43.179401 3.800001
   vertex 20.741390 43.179401 3.600001
  endloop
 endfacet
 facet normal -0.894321 -0.447427 0.000000
  outer loop
   vertex 20.202209 44.223690 3.720001
   vertex 19.818130 44.991390 3.800001
   vertex 19.818130 44.991390 3.600001
  endloop
 endfacet
 facet normal -0.869366 -0.462251 -0.174718
  outer loop
   vertex 20.202209 44.223690 3.720001
   vertex 20.741390 43.179401 3.800001
   vertex 19.892000 44.776871 3.800001
  endloop
 endfacet
 facet normal -0.545694 -0.187910 -0.816644
  outer loop
   vertex 20.202209 44.223690 3.720001
   vertex 19.892000 44.776871 3.800001
   vertex 19.818130 44.991390 3.800001
  endloop
 endfacet
 facet normal -0.987688 -0.156438 0.000000
  outer loop
   vertex 19.659069 45.995701 3.700001
   vertex 19.500000 47.000000 3.800001
   vertex 19.500000 47.000000 3.600001
  endloop
 endfacet
 facet normal -0.987689 -0.156429 0.000000
  outer loop
   vertex 19.659069 45.995701 3.700001
   vertex 19.818130 44.991390 3.600001
   vertex 19.818130 44.991390 3.800001
  endloop
 endfacet
 facet normal -0.987688 -0.156433 -0.000047
  outer loop
   vertex 19.659069 45.995701 3.700001
   vertex 19.818130 44.991390 3.800001
   vertex 19.500000 47.000000 3.800001
  endloop
 endfacet
 facet normal -0.987689 0.156429 0.000000
  outer loop
   vertex 19.659069 48.004299 3.700001
   vertex 19.818130 49.008610 3.800001
   vertex 19.818130 49.008610 3.600001
  endloop
 endfacet
 facet normal -0.987688 0.156438 0.000000
  outer loop
   vertex 19.659069 48.004299 3.700001
   vertex 19.500000 47.000000 3.600001
   vertex 19.500000 47.000000 3.800001
  endloop
 endfacet
 facet normal -0.987689 0.156433 -0.000047
  outer loop
   vertex 19.659069 48.004299 3.700001
   vertex 19.500000 47.000000 3.800001
   vertex 19.818130 49.008610 3.800001
  endloop
 endfacet
 facet normal -0.869366 0.462251 -0.174718
  outer loop
   vertex 20.202209 49.776310 3.720001
   vertex 19.892000 49.223129 3.800001
   vertex 20.741390 50.820599 3.800001
  endloop
 endfacet
 facet normal -0.894321 0.447427 0.000000
  outer loop
   vertex 20.202209 49.776310 3.720001
   vertex 19.818130 49.008610 3.600001
   vertex 19.818130 49.008610 3.800001
  endloop
 endfacet
 facet normal -0.545694 0.187910 -0.816644
  outer loop
   vertex 20.202209 49.776310 3.720001
   vertex 19.818130 49.008610 3.800001
   vertex 19.892000 49.223129 3.800001
  endloop
 endfacet
 facet normal -0.494853 0.386613 -0.778236
  outer loop
   vertex 21.372459 51.467312 3.720001
   vertex 20.741390 50.820599 3.800001
   vertex 21.020710 51.178120 3.800001
  endloop
 endfacet
 facet normal -0.888554 0.458773 0.000000
  outer loop
   vertex 20.202209 49.776310 3.720001
   vertex 20.741390 50.820599 3.800001
   vertex 20.741390 50.820599 3.600001
  endloop
 endfacet
 facet normal -0.715710 0.698397 0.000000
  outer loop
   vertex 21.372459 51.467312 3.720001
   vertex 20.741390 50.820599 3.600001
   vertex 20.741390 50.820599 3.800001
  endloop
 endfacet
 facet normal -0.373215 0.574689 -0.728316
  outer loop
   vertex 23.018311 52.702030 3.720001
   vertex 22.179399 52.258610 3.800001
   vertex 22.750000 52.629169 3.800001
  endloop
 endfacet
 facet normal -0.642726 0.689243 -0.334437
  outer loop
   vertex 21.372459 51.467312 3.720001
   vertex 21.020710 51.178120 3.800001
   vertex 22.179399 52.258610 3.800001
  endloop
 endfacet
 facet normal -0.467304 0.884097 0.000000
  outer loop
   vertex 23.018311 52.702030 3.720001
   vertex 22.179399 52.258610 3.600001
   vertex 22.179399 52.258610 3.800001
  endloop
 endfacet
 facet normal 0.987688 0.156438 0.000000
  outer loop
   vertex 32.340931 48.004299 3.700001
   vertex 32.500000 47.000000 3.800001
   vertex 32.500000 47.000000 3.600001
  endloop
 endfacet
 facet normal -0.359064 0.806476 -0.469755
  outer loop
   vertex 23.018311 52.702030 3.720001
   vertex 22.750000 52.629169 3.800001
   vertex 23.991390 53.181870 3.800002
  endloop
 endfacet
 facet normal -0.442266 0.896884 0.000000
  outer loop
   vertex 23.018311 52.702030 3.720001
   vertex 23.991390 53.181870 3.800002
   vertex 23.991390 53.181870 3.600002
  endloop
 endfacet
 facet normal -0.172119 0.985076 0.000000
  outer loop
   vertex 24.970810 53.353001 3.720002
   vertex 23.991390 53.181870 3.600002
   vertex 23.991390 53.181870 3.800002
  endloop
 endfacet
 facet normal 0.987689 0.156433 -0.000047
  outer loop
   vertex 32.340931 48.004299 3.700001
   vertex 32.181870 49.008610 3.800001
   vertex 32.500000 47.000000 3.800001
  endloop
 endfacet
 facet normal 0.987689 0.156429 0.000000
  outer loop
   vertex 32.340931 48.004299 3.700001
   vertex 32.181870 49.008610 3.600001
   vertex 32.181870 49.008610 3.800001
  endloop
 endfacet
 facet normal 0.869364 0.462250 -0.174731
  outer loop
   vertex 31.797791 49.776310 3.720001
   vertex 31.258610 50.820599 3.800001
   vertex 32.108002 49.223129 3.800001
  endloop
 endfacet
 facet normal 0.894321 0.447427 0.000000
  outer loop
   vertex 31.797791 49.776310 3.720001
   vertex 32.181870 49.008610 3.800001
   vertex 32.181870 49.008610 3.600001
  endloop
 endfacet
 facet normal 0.545674 0.187898 -0.816660
  outer loop
   vertex 31.797791 49.776310 3.720001
   vertex 32.108002 49.223129 3.800001
   vertex 32.181870 49.008610 3.800001
  endloop
 endfacet
 facet normal 0.715710 0.698397 0.000000
  outer loop
   vertex 30.627541 51.467312 3.720001
   vertex 31.258610 50.820599 3.800001
   vertex 31.258610 50.820599 3.600001
  endloop
 endfacet
 facet normal 0.888554 0.458773 0.000000
  outer loop
   vertex 31.797791 49.776310 3.720001
   vertex 31.258610 50.820599 3.600001
   vertex 31.258610 50.820599 3.800001
  endloop
 endfacet
 facet normal -0.181059 0.726201 -0.663212
  outer loop
   vertex 24.970810 53.353001 3.720002
   vertex 23.991390 53.181870 3.800002
   vertex 24.871290 53.401249 3.800002
  endloop
 endfacet
 facet normal 0.700153 0.713993 0.000000
  outer loop
   vertex 30.627541 51.467312 3.720001
   vertex 29.820601 52.258610 3.600001
   vertex 29.820601 52.258610 3.800001
  endloop
 endfacet
 facet normal 0.494853 0.386613 -0.778236
  outer loop
   vertex 30.627541 51.467312 3.720001
   vertex 30.979290 51.178120 3.800001
   vertex 31.258610 50.820599 3.800001
  endloop
 endfacet
 facet normal 0.642726 0.689243 -0.334437
  outer loop
   vertex 30.627541 51.467312 3.720001
   vertex 29.820601 52.258610 3.800001
   vertex 30.979290 51.178120 3.800001
  endloop
 endfacet
 facet normal 0.373215 0.574689 -0.728316
  outer loop
   vertex 28.981689 52.702030 3.720001
   vertex 29.250000 52.629169 3.800001
   vertex 29.820601 52.258610 3.800001
  endloop
 endfacet
 facet normal -0.071092 0.812574 -0.578506
  outer loop
   vertex 24.970810 53.353001 3.720002
   vertex 24.871290 53.401249 3.800002
   vertex 26.000000 53.500000 3.800002
  endloop
 endfacet
 facet normal 0.467304 0.884097 0.000000
  outer loop
   vertex 28.981689 52.702030 3.720001
   vertex 29.820601 52.258610 3.800001
   vertex 29.820601 52.258610 3.600001
  endloop
 endfacet
 facet normal -0.141395 0.989953 0.000000
  outer loop
   vertex 24.970810 53.353001 3.720002
   vertex 26.000000 53.500000 3.800002
   vertex 26.000000 53.500000 3.600002
  endloop
 endfacet
 facet normal 0.359064 0.806476 -0.469755
  outer loop
   vertex 28.981689 52.702030 3.720001
   vertex 28.008610 53.181870 3.800002
   vertex 29.250000 52.629169 3.800001
  endloop
 endfacet
 facet normal 0.442266 0.896884 0.000000
  outer loop
   vertex 28.981689 52.702030 3.720001
   vertex 28.008610 53.181870 3.600002
   vertex 28.008610 53.181870 3.800002
  endloop
 endfacet
 facet normal 0.071092 0.812574 -0.578506
  outer loop
   vertex 27.029190 53.353001 3.720002
   vertex 26.000000 53.500000 3.800002
   vertex 27.128710 53.401249 3.800002
  endloop
 endfacet
 facet normal 0.172119 0.985076 0.000000
  outer loop
   vertex 27.029190 53.353001 3.720002
   vertex 28.008610 53.181870 3.800002
   vertex 28.008610 53.181870 3.600002
  endloop
 endfacet
 facet normal 0.181059 0.726201 -0.663212
  outer loop
   vertex 27.029190 53.353001 3.720002
   vertex 27.128710 53.401249 3.800002
   vertex 28.008610 53.181870 3.800002
  endloop
 endfacet
 facet normal 0.987689 -0.156429 0.000000
  outer loop
   vertex 32.340931 45.995701 3.700001
   vertex 32.181870 44.991390 3.800001
   vertex 32.181870 44.991390 3.600001
  endloop
 endfacet
 facet normal 0.141395 0.989953 0.000000
  outer loop
   vertex 27.029190 53.353001 3.720002
   vertex 26.000000 53.500000 3.600002
   vertex 26.000000 53.500000 3.800002
  endloop
 endfacet
 facet normal 0.987688 -0.156433 -0.000047
  outer loop
   vertex 32.340931 45.995701 3.700001
   vertex 32.500000 47.000000 3.800001
   vertex 32.181870 44.991390 3.800001
  endloop
 endfacet
 facet normal -0.373192 -0.574654 -0.728354
  outer loop
   vertex 23.018311 41.297981 3.720000
   vertex 22.750000 41.370831 3.800000
   vertex 22.179399 41.741390 3.800000
  endloop
 endfacet
 facet normal -0.700153 0.713993 0.000000
  outer loop
   vertex 21.372459 51.467312 3.720001
   vertex 22.179399 52.258610 3.800001
   vertex 22.179399 52.258610 3.600001
  endloop
 endfacet
 facet normal -0.889775 0.453366 -0.052542
  outer loop
   vertex 20.202209 49.776310 3.720001
   vertex 20.741390 50.820599 3.600001
   vertex 19.818130 49.008610 3.600001
  endloop
 endfacet
 facet normal 0.704122 -0.704121 -0.091789
  outer loop
   vertex 30.627541 42.532688 3.720001
   vertex 29.820601 41.741390 3.600000
   vertex 31.258610 43.179401 3.600001
  endloop
 endfacet
 facet normal 0.450837 -0.884814 -0.117684
  outer loop
   vertex 28.981689 41.297981 3.720000
   vertex 28.008610 40.818130 3.600000
   vertex 29.820601 41.741390 3.600000
  endloop
 endfacet
 facet normal 0.155093 -0.979226 -0.130623
  outer loop
   vertex 27.029190 40.646999 3.720000
   vertex 26.000000 40.500000 3.600000
   vertex 28.008610 40.818130 3.600000
  endloop
 endfacet
 facet normal -0.155093 -0.979226 -0.130623
  outer loop
   vertex 24.970810 40.646999 3.720000
   vertex 23.991390 40.818130 3.600000
   vertex 26.000000 40.500000 3.600000
  endloop
 endfacet
 facet normal -0.450837 -0.884814 -0.117684
  outer loop
   vertex 23.018311 41.297981 3.720000
   vertex 22.179399 41.741390 3.600000
   vertex 23.991390 40.818130 3.600000
  endloop
 endfacet
 facet normal -0.704122 -0.704121 -0.091789
  outer loop
   vertex 21.372459 42.532688 3.720001
   vertex 20.741390 43.179401 3.600001
   vertex 22.179399 41.741390 3.600000
  endloop
 endfacet
 facet normal -0.889775 -0.453366 -0.052542
  outer loop
   vertex 20.202209 44.223690 3.720001
   vertex 19.818130 44.991390 3.600001
   vertex 20.741390 43.179401 3.600001
  endloop
 endfacet
 facet normal 0.889775 -0.453366 -0.052542
  outer loop
   vertex 31.797791 44.223690 3.720001
   vertex 31.258610 43.179401 3.600001
   vertex 32.181870 44.991390 3.600001
  endloop
 endfacet
 facet normal -0.704122 0.704121 -0.091790
  outer loop
   vertex 21.372459 51.467312 3.720001
   vertex 22.179399 52.258610 3.600001
   vertex 20.741390 50.820599 3.600001
  endloop
 endfacet
 facet normal -0.450833 0.884805 -0.117767
  outer loop
   vertex 23.018311 52.702030 3.720001
   vertex 23.991390 53.181870 3.600002
   vertex 22.179399 52.258610 3.600001
  endloop
 endfacet
 facet normal -0.155093 0.979226 -0.130623
  outer loop
   vertex 24.970810 53.353001 3.720002
   vertex 26.000000 53.500000 3.600002
   vertex 23.991390 53.181870 3.600002
  endloop
 endfacet
 facet normal 0.155093 0.979226 -0.130623
  outer loop
   vertex 27.029190 53.353001 3.720002
   vertex 28.008610 53.181870 3.600002
   vertex 26.000000 53.500000 3.600002
  endloop
 endfacet
 facet normal 0.450833 0.884805 -0.117767
  outer loop
   vertex 28.981689 52.702030 3.720001
   vertex 29.820601 52.258610 3.600001
   vertex 28.008610 53.181870 3.600002
  endloop
 endfacet
 facet normal 0.704122 0.704121 -0.091790
  outer loop
   vertex 30.627541 51.467312 3.720001
   vertex 31.258610 50.820599 3.600001
   vertex 29.820601 52.258610 3.600001
  endloop
 endfacet
 facet normal 0.889775 0.453366 -0.052542
  outer loop
   vertex 31.797791 49.776310 3.720001
   vertex 32.181870 49.008610 3.600001
   vertex 31.258610 50.820599 3.600001
  endloop
 endfacet
 facet normal 0.987688 -0.156433 0.000047
  outer loop
   vertex 32.340931 45.995701 3.700001
   vertex 32.181870 44.991390 3.600001
   vertex 32.500000 47.000000 3.600001
  endloop
 endfacet
 facet normal -0.987688 -0.156433 0.000047
  outer loop
   vertex 19.659069 45.995701 3.700001
   vertex 19.500000 47.000000 3.600001
   vertex 19.818130 44.991390 3.600001
  endloop
 endfacet
 facet normal -0.987689 0.156433 0.000047
  outer loop
   vertex 19.659069 48.004299 3.700001
   vertex 19.818130 49.008610 3.600001
   vertex 19.500000 47.000000 3.600001
  endloop
 endfacet
 facet normal 0.987689 0.156433 0.000047
  outer loop
   vertex 32.340931 48.004299 3.700001
   vertex 32.500000 47.000000 3.600001
   vertex 32.181870 49.008610 3.600001
  endloop
 endfacet
 facet normal 0.000000 0.000000 -1.000000
  outer loop
   vertex 26.612289 48.478210 3.600001
   vertex 26.000000 48.599998 3.600001
   vertex 29.820601 52.258610 3.600001
  endloop
 endfacet
 facet normal 0.000000 0.000000 -1.000000
  outer loop
   vertex 24.521790 46.387711 3.600001
   vertex 20.741390 43.179401 3.600001
   vertex 24.400000 47.000000 3.600001
  endloop
 endfacet
 facet normal 0.000000 0.000000 -1.000000
  outer loop
   vertex 29.820601 52.258610 3.600001
   vertex 26.000000 48.599998 3.600001
   vertex 28.008610 53.181870 3.600002
  endloop
 endfacet
 facet normal 0.000000 0.000000 -1.000000
  outer loop
   vertex 26.000000 48.599998 3.600001
   vertex 25.387711 48.478210 3.600001
   vertex 28.008610 53.181870 3.600002
  endloop
 endfacet
 facet normal 0.000000 0.000000 -1.000000
  outer loop
   vertex 24.400000 47.000000 3.600001
   vertex 20.741390 43.179401 3.600001
   vertex 24.521790 47.612289 3.600001
  endloop
 endfacet
 facet normal 0.000000 0.000000 -1.000000
  outer loop
   vertex 20.741390 43.179401 3.600001
   vertex 19.818130 44.991390 3.600001
   vertex 24.521790 47.612289 3.600001
  endloop
 endfacet
 facet normal 0.000000 0.000000 -1.000000
  outer loop
   vertex 24.868629 45.868629 3.600001
   vertex 20.741390 43.179401 3.600001
   vertex 24.521790 46.387711 3.600001
  endloop
 endfacet
 facet normal 0.000000 0.000000 -1.000000
  outer loop
   vertex 22.179399 41.741390 3.600000
   vertex 20.741390 43.179401 3.600001
   vertex 25.387711 45.521790 3.600001
  endloop
 endfacet
 facet normal 0.000001 0.000000 -1.000000
  outer loop
   vertex 31.258610 43.179401 3.600001
   vertex 29.820601 41.741390 3.600000
   vertex 32.181870 44.991390 3.600001
  endloop
 endfacet
 facet normal 0.000000 0.000000 -1.000000
  outer loop
   vertex 24.868629 48.131371 3.600001
   vertex 19.818130 44.991390 3.600001
   vertex 28.008610 53.181870 3.600002
  endloop
 endfacet
 facet normal 0.000000 0.000000 -1.000000
  outer loop
   vertex 28.008610 53.181870 3.600002
   vertex 19.818130 44.991390 3.600001
   vertex 26.000000 53.500000 3.600002
  endloop
 endfacet
 facet normal 0.000000 0.000000 -1.000000
  outer loop
   vertex 25.387711 45.521790 3.600001
   vertex 20.741390 43.179401 3.600001
   vertex 24.868629 45.868629 3.600001
  endloop
 endfacet
 facet normal 0.000000 0.000000 -1.000000
  outer loop
   vertex 27.131371 48.131371 3.600001
   vertex 26.612289 48.478210 3.600001
   vertex 29.820601 52.258610 3.600001
  endloop
 endfacet
 facet normal 0.000000 0.000000 -1.000000
  outer loop
   vertex 19.500000 47.000000 3.600001
   vertex 19.818130 49.008610 3.600001
   vertex 23.991390 53.181870 3.600002
  endloop
 endfacet
 facet normal 0.000000 0.000000 -1.000000
  outer loop
   vertex 23.991390 53.181870 3.600002
   vertex 19.818130 49.008610 3.600001
   vertex 22.179399 52.258610 3.600001
  endloop
 endfacet
 facet normal -0.000001 0.000000 -1.000000
  outer loop
   vertex 27.478210 47.612289 3.600001
   vertex 27.131371 48.131371 3.600001
   vertex 29.820601 52.258610 3.600001
  endloop
 endfacet
 facet normal 0.000000 0.000000 -1.000000
  outer loop
   vertex 26.000000 53.500000 3.600002
   vertex 19.500000 47.000000 3.600001
   vertex 23.991390 53.181870 3.600002
  endloop
 endfacet
 facet normal 0.000000 0.000000 -1.000000
  outer loop
   vertex 26.000000 45.400002 3.600001
   vertex 22.179399 41.741390 3.600000
   vertex 25.387711 45.521790 3.600001
  endloop
 endfacet
 facet normal 0.000000 0.000000 -1.000000
  outer loop
   vertex 27.600000 47.000000 3.600001
   vertex 27.478210 47.612289 3.600001
   vertex 29.820601 52.258610 3.600001
  endloop
 endfacet
 facet normal 0.000000 0.000000 -1.000000
  outer loop
   vertex 31.258610 50.820599 3.600001
   vertex 27.600000 47.000000 3.600001
   vertex 29.820601 52.258610 3.600001
  endloop
 endfacet
 facet normal 0.000000 0.000000 -1.000000
  outer loop
   vertex 26.612289 45.521790 3.600001
   vertex 22.179399 41.741390 3.600000
   vertex 26.000000 45.400002 3.600001
  endloop
 endfacet
 facet normal 0.000000 0.000000 -1.000000
  outer loop
   vertex 27.478210 46.387711 3.600001
   vertex 27.600000 47.000000 3.600001
   vertex 31.258610 50.820599 3.600001
  endloop
 endfacet
 facet normal 0.000001 0.000000 -1.000000
  outer loop
   vertex 27.131371 45.868629 3.600001
   vertex 27.478210 46.387711 3.600001
   vertex 31.258610 50.820599 3.600001
  endloop
 endfacet
 facet normal 0.000000 0.000001 -1.000000
  outer loop
   vertex 27.131371 45.868629 3.600001
   vertex 22.179399 41.741390 3.600000
   vertex 26.612289 45.521790 3.600001
  endloop
 endfacet
 facet normal 0.000000 0.000000 -1.000000
  outer loop
   vertex 23.991390 40.818130 3.600000
   vertex 27.131371 45.868629 3.600001
   vertex 31.258610 50.820599 3.600001
  endloop
 endfacet
 facet normal 0.000000 0.000000 -1.000000
  outer loop
   vertex 19.818130 44.991390 3.600001
   vertex 19.500000 47.000000 3.600001
   vertex 26.000000 53.500000 3.600002
  endloop
 endfacet
 facet normal 0.000000 0.000000 -1.000000
  outer loop
   vertex 19.818130 49.008610 3.600001
   vertex 20.741390 50.820599 3.600001
   vertex 22.179399 52.258610 3.600001
  endloop
 endfacet
 facet normal 0.000000 0.000000 -1.000000
  outer loop
   vertex 23.991390 40.818130 3.600000
   vertex 22.179399 41.741390 3.600000
   vertex 27.131371 45.868629 3.600001
  endloop
 endfacet
 facet normal 0.000000 0.000000 -1.000000
  outer loop
   vertex 32.181870 49.008610 3.600001
   vertex 23.991390 40.818130 3.600000
   vertex 31.258610 50.820599 3.600001
  endloop
 endfacet
 facet normal 0.000000 0.000000 -1.000000
  outer loop
   vertex 26.000000 40.500000 3.600000
   vertex 23.991390 40.818130 3.600000
   vertex 32.181870 49.008610 3.600001
  endloop
 endfacet
 facet normal 0.000000 0.000000 -1.000000
  outer loop
   vertex 32.500000 47.000000 3.600001
   vertex 26.000000 40.500000 3.600000
   vertex 32.181870 49.008610 3.600001
  endloop
 endfacet
 facet normal 0.000000 0.000000 -1.000000
  outer loop
   vertex 28.008610 40.818130 3.600000
   vertex 26.000000 40.500000 3.600000
   vertex 32.500000 47.000000 3.600001
  endloop
 endfacet
 facet normal 0.000000 0.000000 -1.000000
  outer loop
   vertex 32.181870 44.991390 3.600001
   vertex 28.008610 40.818130 3.600000
   vertex 32.500000 47.000000 3.600001
  endloop
 endfacet
 facet normal 0.000000 0.000000 -1.000000
  outer loop
   vertex 29.820601 41.741390 3.600000
   vertex 28.008610 40.818130 3.600000
   vertex 32.181870 44.991390 3.600001
  endloop
 endfacet
 facet normal 0.000000 0.000000 -1.000000
  outer loop
   vertex 25.387711 48.478210 3.600001
   vertex 24.868629 48.131371 3.600001
   vertex 28.008610 53.181870 3.600002
  endloop
 endfacet
 facet normal -0.000001 0.000001 -1.000000
  outer loop
   vertex 24.521790 47.612289 3.600001
   vertex 19.818130 44.991390 3.600001
   vertex 24.868629 48.131371 3.600001
  endloop
 endfacet
endsolid Umlenkrolle - ascii
