solid ascii
  facet normal 1.000000e+000 0.000000e+000 0.000000e+000
    outer loop
      vertex   1.800000e+001 6.400000e+001 1.000000e+000
      vertex   1.800000e+001 6.200000e+001 0.000000e+000
      vertex   1.800000e+001 6.600000e+001 0.000000e+000
    endloop
  endfacet
  facet normal 0.000000e+000 -0.000000e+000 -1.000000e+000
    outer loop
      vertex   1.600000e+001 6.400000e+001 0.000000e+000
      vertex   1.800000e+001 6.600000e+001 0.000000e+000
      vertex   1.800000e+001 6.200000e+001 0.000000e+000
    endloop
  endfacet
  facet normal 0.000000e+000 0.000000e+000 -1.000000e+000
    outer loop
      vertex   1.600000e+001 6.400000e+001 0.000000e+000
      vertex   1.800000e+001 6.200000e+001 0.000000e+000
      vertex   1.400000e+001 6.200000e+001 0.000000e+000
    endloop
  endfacet
  facet normal 0.000000e+000 0.000000e+000 -1.000000e+000
    outer loop
      vertex   1.600000e+001 6.400000e+001 0.000000e+000
      vertex   1.400000e+001 6.200000e+001 0.000000e+000
      vertex   1.400000e+001 6.600000e+001 0.000000e+000
    endloop
  endfacet
  facet normal 0.000000e+000 1.000000e+000 0.000000e+000
    outer loop
      vertex   1.600000e+001 6.600000e+001 1.000000e+000
      vertex   1.800000e+001 6.600000e+001 0.000000e+000
      vertex   1.400000e+001 6.600000e+001 0.000000e+000
    endloop
  endfacet
  facet normal 0.000000e+000 1.000000e+000 0.000000e+000
    outer loop
      vertex   1.600000e+001 6.600000e+001 1.000000e+000
      vertex   1.400000e+001 6.600000e+001 0.000000e+000
      vertex   1.400000e+001 6.600000e+001 2.000000e+000
    endloop
  endfacet
  facet normal 1.000000e+000 0.000000e+000 0.000000e+000
    outer loop
      vertex   1.800000e+001 6.400000e+001 1.000000e+000
      vertex   1.800000e+001 6.200000e+001 2.000000e+000
      vertex   1.800000e+001 6.200000e+001 0.000000e+000
    endloop
  endfacet
  facet normal 0.000000e+000 1.000000e+000 0.000000e+000
    outer loop
      vertex   1.600000e+001 6.600000e+001 1.000000e+000
      vertex   1.800000e+001 6.600000e+001 2.000000e+000
      vertex   1.800000e+001 6.600000e+001 0.000000e+000
    endloop
  endfacet
  facet normal -1.000000e+000 0.000000e+000 0.000000e+000
    outer loop
      vertex   1.400000e+001 6.400000e+001 1.000000e+000
      vertex   1.400000e+001 6.600000e+001 0.000000e+000
      vertex   1.400000e+001 6.200000e+001 0.000000e+000
    endloop
  endfacet
  facet normal 0.000000e+000 -1.000000e+000 0.000000e+000
    outer loop
      vertex   1.600000e+001 6.200000e+001 1.000000e+000
      vertex   1.800000e+001 6.200000e+001 0.000000e+000
      vertex   1.800000e+001 6.200000e+001 2.000000e+000
    endloop
  endfacet
  facet normal 0.000000e+000 -1.000000e+000 0.000000e+000
    outer loop
      vertex   1.600000e+001 6.200000e+001 1.000000e+000
      vertex   1.400000e+001 6.200000e+001 0.000000e+000
      vertex   1.800000e+001 6.200000e+001 0.000000e+000
    endloop
  endfacet
  facet normal 0.000000e+000 0.000000e+000 -1.000000e+000
    outer loop
      vertex   1.600000e+001 6.400000e+001 0.000000e+000
      vertex   1.400000e+001 6.600000e+001 0.000000e+000
      vertex   1.800000e+001 6.600000e+001 0.000000e+000
    endloop
  endfacet
  facet normal 1.000000e+000 0.000000e+000 -0.000000e+000
    outer loop
      vertex   1.800000e+001 6.400000e+001 1.000000e+000
      vertex   1.800000e+001 6.600000e+001 0.000000e+000
      vertex   1.800000e+001 6.600000e+001 2.000000e+000
    endloop
  endfacet
  facet normal -1.000000e+000 0.000000e+000 -0.000000e+000
    outer loop
      vertex   1.400000e+001 6.400000e+001 1.000000e+000
      vertex   1.400000e+001 6.600000e+001 2.000000e+000
      vertex   1.400000e+001 6.600000e+001 0.000000e+000
    endloop
  endfacet
  facet normal 0.000000e+000 -1.000000e+000 0.000000e+000
    outer loop
      vertex   1.600000e+001 6.200000e+001 1.000000e+000
      vertex   1.400000e+001 6.200000e+001 2.000000e+000
      vertex   1.400000e+001 6.200000e+001 0.000000e+000
    endloop
  endfacet
  facet normal -1.000000e+000 0.000000e+000 0.000000e+000
    outer loop
      vertex   1.400000e+001 6.400000e+001 1.000000e+000
      vertex   1.400000e+001 6.200000e+001 0.000000e+000
      vertex   1.400000e+001 6.200000e+001 2.000000e+000
    endloop
  endfacet
  facet normal -0.000000e+000 -1.000000e+000 0.000000e+000
    outer loop
      vertex   1.600000e+001 6.200000e+001 1.000000e+000
      vertex   1.800000e+001 6.200000e+001 2.000000e+000
      vertex   1.400000e+001 6.200000e+001 2.000000e+000
    endloop
  endfacet
  facet normal 1.000000e+000 0.000000e+000 0.000000e+000
    outer loop
      vertex   1.800000e+001 6.400000e+001 1.000000e+000
      vertex   1.800000e+001 6.600000e+001 2.000000e+000
      vertex   1.800000e+001 6.200000e+001 2.000000e+000
    endloop
  endfacet
  facet normal -1.000000e+000 0.000000e+000 0.000000e+000
    outer loop
      vertex   1.400000e+001 6.400000e+001 1.000000e+000
      vertex   1.400000e+001 6.200000e+001 2.000000e+000
      vertex   1.400000e+001 6.600000e+001 2.000000e+000
    endloop
  endfacet
  facet normal -0.000000e+000 1.000000e+000 0.000000e+000
    outer loop
      vertex   1.600000e+001 6.600000e+001 1.000000e+000
      vertex   1.400000e+001 6.600000e+001 2.000000e+000
      vertex   1.800000e+001 6.600000e+001 2.000000e+000
    endloop
  endfacet
  facet normal 0.000000e+000 0.000000e+000 1.000000e+000
    outer loop
      vertex   1.600000e+001 6.400000e+001 2.000000e+000
      vertex   1.800000e+001 6.600000e+001 2.000000e+000
      vertex   1.400000e+001 6.600000e+001 2.000000e+000
    endloop
  endfacet
  facet normal 0.000000e+000 0.000000e+000 1.000000e+000
    outer loop
      vertex   1.600000e+001 6.400000e+001 2.000000e+000
      vertex   1.400000e+001 6.600000e+001 2.000000e+000
      vertex   1.400000e+001 6.200000e+001 2.000000e+000
    endloop
  endfacet
  facet normal 0.000000e+000 -0.000000e+000 1.000000e+000
    outer loop
      vertex   1.600000e+001 6.400000e+001 2.000000e+000
      vertex   1.800000e+001 6.200000e+001 2.000000e+000
      vertex   1.800000e+001 6.600000e+001 2.000000e+000
    endloop
  endfacet
  facet normal 0.000000e+000 0.000000e+000 1.000000e+000
    outer loop
      vertex   1.600000e+001 6.400000e+001 2.000000e+000
      vertex   1.400000e+001 6.200000e+001 2.000000e+000
      vertex   1.800000e+001 6.200000e+001 2.000000e+000
    endloop
  endfacet
endsolid
