999
DXF created by Inkscape
  0
SECTION
  2
HEADER
  9
$ACADVER
  1
AC1014
  9
$HANDSEED
  5
FFFF
  9
$MEASUREMENT
 70
     1
  0
ENDSEC
  0
SECTION
  2
TABLES
  0
TABLE
  2
VPORT
  5
8
330
0
100
AcDbSymbolTable
 70
     4
  0
VPORT
  5
2E
330
8
100
AcDbSymbolTableRecord
100
AcDbViewportTableRecord
  2
*ACTIVE
 70
     0
 10
0.0
 20
0.0
 11
1.0
 21
1.0
 12
210.0
 22
148.5
 13
0.0
 23
0.0
 14
10.0
 24
10.0
 15
10.0
 25
10.0
 16
0.0
 26
0.0
 36
1.0
 17
0.0
 27
0.0
 37
0.0
 40
341.0
 41
1.24
 42
50.0
 43
0.0
 44
0.0
 50
0.0
 51
0.0
 71
     0
 72
   100
 73
     1
 74
     3
 75
     0
 76
     0
 77
     0
 78
     0
  0
ENDTAB
  0
TABLE
  2
LTYPE
  5
5
330
0
100
AcDbSymbolTable
 70
     1
  0
LTYPE
  5
14
330
5
100
AcDbSymbolTableRecord
100
AcDbLinetypeTableRecord
  2
BYBLOCK
 70
     0
  3

 72
    65
 73
     0
 40
0.0
  0
LTYPE
  5
15
330
5
100
AcDbSymbolTableRecord
100
AcDbLinetypeTableRecord
  2
BYLAYER
 70
     0
  3

 72
    65
 73
     0
 40
0.0
  0
LTYPE
  5
16
330
5
100
AcDbSymbolTableRecord
100
AcDbLinetypeTableRecord
  2
CONTINUOUS
 70
     0
  3
Solid line
 72
    65
 73
     0
 40
0.0
  0
ENDTAB
  0
TABLE
  2
LAYER
  5
2
100
AcDbSymbolTable
 70
6
  0
LAYER
  5
50
100
AcDbSymbolTableRecord
100
AcDbLayerTableRecord
  2
0
 70
0
  6
CONTINUOUS
  0
LAYER
  5
51
100
AcDbSymbolTableRecord
100
AcDbLayerTableRecord
  2
Layer_1
 70
0
  6
CONTINUOUS
  0
LAYER
  5
52
100
AcDbSymbolTableRecord
100
AcDbLayerTableRecord
  2
CC
 70
0
  6
CONTINUOUS
  0
LAYER
  5
53
100
AcDbSymbolTableRecord
100
AcDbLayerTableRecord
  2
Holes
 70
0
  6
CONTINUOUS
  0
LAYER
  5
54
100
AcDbSymbolTableRecord
100
AcDbLayerTableRecord
  2
Supports
 70
0
  6
CONTINUOUS
  0
LAYER
  5
55
100
AcDbSymbolTableRecord
100
AcDbLayerTableRecord
  2
Lines
 70
0
  6
CONTINUOUS
  0
ENDTAB
  0
TABLE
  2
STYLE
  5
3
330
0
100
AcDbSymbolTable
 70
     1
  0
STYLE
  5
11
330
3
100
AcDbSymbolTableRecord
100
AcDbTextStyleTableRecord
  2
STANDARD
 70
     0
 40
0.0
 41
1.0
 50
0.0
 71
     0
 42
2.5
  3
txt
  4

  0
ENDTAB
  0
TABLE
  2
VIEW
  5
6
330
0
100
AcDbSymbolTable
 70
     0
  0
ENDTAB
  0
TABLE
  2
UCS
  5
7
330
0
100
AcDbSymbolTable
 70
     0
  0
ENDTAB
  0
TABLE
  2
APPID
  5
9
330
0
100
AcDbSymbolTable
 70
     2
  0
APPID
  5
12
330
9
100
AcDbSymbolTableRecord
100
AcDbRegAppTableRecord
  2
ACAD
 70
     0
  0
ENDTAB
  0
TABLE
  2
DIMSTYLE
  5
A
330
0
100
AcDbSymbolTable
 70
     1
  0
DIMSTYLE
105
27
330
A
100
AcDbSymbolTableRecord
100
AcDbDimStyleTableRecord
  2
ISO-25
 70
     0
  3

  4

  5

  6

  7

 40
1.0
 41
2.5
 42
0.625
 43
3.75
 44
1.25
 45
0.0
 46
0.0
 47
0.0
 48
0.0
140
2.5
141
2.5
142
0.0
143
0.03937007874016
144
1.0
145
0.0
146
1.0
147
0.625
 71
     0
 72
     0
 73
     0
 74
     0
 75
     0
 76
     0
 77
     1
 78
     8
170
     0
171
     3
172
     1
173
     0
174
     0
175
     0
176
     0
177
     0
178
     0
270
     2
271
     2
272
     2
273
     2
274
     3
340
11
275
     0
280
     0
281
     0
282
     0
283
     0
284
     8
285
     0
286
     0
287
     3
288
     0
  0
ENDTAB
  0
TABLE
  2
BLOCK_RECORD
  5
1
330
0
100
AcDbSymbolTable
 70
     1
  0
BLOCK_RECORD
  5
1F
330
1
100
AcDbSymbolTableRecord
100
AcDbBlockTableRecord
  2
*MODEL_SPACE
  0
BLOCK_RECORD
  5
1B
330
1
100
AcDbSymbolTableRecord
100
AcDbBlockTableRecord
  2
*PAPER_SPACE
  0
ENDTAB
  0
ENDSEC
  0
SECTION
  2
BLOCKS
  0
BLOCK
  5
20
330
1F
100
AcDbEntity
  8
0
100
AcDbBlockBegin
  2
*MODEL_SPACE
 70
     0
 10
0.0
 20
0.0
 30
0.0
  3
*MODEL_SPACE
  1

  0
ENDBLK
  5
21
330
1F
100
AcDbEntity
  8
0
100
AcDbBlockEnd
  0
BLOCK
  5
1C
330
1B
100
AcDbEntity
 67
     1
  8
0
100
AcDbBlockBegin
  2
*PAPER_SPACE
  1

  0
ENDBLK
  5
1D
330
1B
100
AcDbEntity
 67
     1
  8
0
100
AcDbBlockEnd
  0
ENDSEC
  0
SECTION
  2
ENTITIES
  0
LINE
  5
100
100
AcDbEntity
  8
CC
 62
7
100
AcDbLine
 10
44.602741
 20
32.588049
 30
0.0
 11
44.156074
 21
33.158880
 31
0.0
  0
LINE
  5
101
100
AcDbEntity
  8
CC
 62
7
100
AcDbLine
 10
44.156074
 20
33.158880
 30
0.0
 11
43.265728
 21
32.983677
 31
0.0
  0
LINE
  5
102
100
AcDbEntity
  8
CC
 62
7
100
AcDbLine
 10
43.265728
 20
32.983677
 30
0.0
 11
42.212153
 21
32.628999
 31
0.0
  0
LINE
  5
103
100
AcDbEntity
  8
CC
 62
7
100
AcDbLine
 10
42.212153
 20
32.628999
 30
0.0
 11
41.033014
 21
32.067070
 31
0.0
  0
LINE
  5
104
100
AcDbEntity
  8
CC
 62
7
100
AcDbLine
 10
41.033014
 20
32.067070
 30
0.0
 11
37.583039
 21
29.938273
 31
0.0
  0
LINE
  5
105
100
AcDbEntity
  8
CC
 62
7
100
AcDbLine
 10
37.583039
 20
29.938273
 30
0.0
 11
35.720748
 21
28.733328
 31
0.0
  0
LINE
  5
106
100
AcDbEntity
  8
CC
 62
7
100
AcDbLine
 10
35.720748
 20
28.733328
 30
0.0
 11
35.641246
 21
28.317347
 31
0.0
  0
LINE
  5
107
100
AcDbEntity
  8
CC
 62
7
100
AcDbLine
 10
35.641246
 20
28.317347
 30
0.0
 11
35.601456
 21
27.379889
 31
0.0
  0
LINE
  5
108
100
AcDbEntity
  8
CC
 62
7
100
AcDbLine
 10
35.601456
 20
27.379889
 30
0.0
 11
35.540180
 21
26.463381
 31
0.0
  0
LINE
  5
109
100
AcDbEntity
  8
CC
 62
7
100
AcDbLine
 10
35.540180
 20
26.463381
 30
0.0
 11
37.032892
 21
26.317963
 31
0.0
  0
LINE
  5
10a
100
AcDbEntity
  8
CC
 62
7
100
AcDbLine
 10
37.032892
 20
26.317963
 30
0.0
 11
39.429583
 21
26.401475
 31
0.0
  0
LINE
  5
10b
100
AcDbEntity
  8
CC
 62
7
100
AcDbLine
 10
39.429583
 20
26.401475
 30
0.0
 11
41.338884
 21
26.692187
 31
0.0
  0
LINE
  5
10c
100
AcDbEntity
  8
CC
 62
7
100
AcDbLine
 10
41.338884
 20
26.692187
 30
0.0
 11
42.961949
 21
27.143026
 31
0.0
  0
LINE
  5
10d
100
AcDbEntity
  8
CC
 62
7
100
AcDbLine
 10
42.961949
 20
27.143026
 30
0.0
 11
44.286130
 21
27.749456
 31
0.0
  0
LINE
  5
10e
100
AcDbEntity
  8
CC
 62
7
100
AcDbLine
 10
44.286130
 20
27.749456
 30
0.0
 11
45.298781
 21
28.506941
 31
0.0
  0
LINE
  5
10f
100
AcDbEntity
  8
CC
 62
7
100
AcDbLine
 10
45.298781
 20
28.506941
 30
0.0
 11
46.007765
 21
29.438551
 31
0.0
  0
LINE
  5
110
100
AcDbEntity
  8
CC
 62
7
100
AcDbLine
 10
46.007765
 20
29.438551
 30
0.0
 11
46.019223
 21
29.898460
 31
0.0
  0
LINE
  5
111
100
AcDbEntity
  8
CC
 62
7
100
AcDbLine
 10
46.019223
 20
29.898460
 30
0.0
 11
45.907556
 21
30.371763
 31
0.0
  0
LINE
  5
112
100
AcDbEntity
  8
CC
 62
7
100
AcDbLine
 10
45.907556
 20
30.371763
 30
0.0
 11
45.454209
 21
31.293925
 31
0.0
  0
LINE
  5
113
100
AcDbEntity
  8
CC
 62
7
100
AcDbLine
 10
45.454209
 20
31.293925
 30
0.0
 11
44.602753
 21
32.588049
 31
0.0
  0
LINE
  5
114
100
AcDbEntity
  8
CC
 62
7
100
AcDbLine
 10
44.602753
 20
32.588049
 30
0.0
 11
44.602753
 21
32.588049
 31
0.0
  0
LINE
  5
115
100
AcDbEntity
  8
CC
 62
7
100
AcDbLine
 10
56.754875
 20
12.654027
 30
0.0
 11
56.039052
 21
12.925469
 31
0.0
  0
LINE
  5
116
100
AcDbEntity
  8
CC
 62
7
100
AcDbLine
 10
56.039052
 20
12.925469
 30
0.0
 11
54.268771
 21
13.596311
 31
0.0
  0
LINE
  5
117
100
AcDbEntity
  8
CC
 62
7
100
AcDbLine
 10
54.268771
 20
13.596311
 30
0.0
 11
52.242144
 21
14.084922
 31
0.0
  0
LINE
  5
118
100
AcDbEntity
  8
CC
 62
7
100
AcDbLine
 10
52.242144
 20
14.084922
 30
0.0
 11
49.453470
 21
14.221885
 31
0.0
  0
LINE
  5
119
100
AcDbEntity
  8
CC
 62
7
100
AcDbLine
 10
49.453470
 20
14.221885
 30
0.0
 11
47.980312
 21
14.147039
 31
0.0
  0
LINE
  5
11a
100
AcDbEntity
  8
CC
 62
7
100
AcDbLine
 10
47.980312
 20
14.147039
 30
0.0
 11
46.903787
 21
13.985072
 31
0.0
  0
LINE
  5
11b
100
AcDbEntity
  8
CC
 62
7
100
AcDbLine
 10
46.903787
 20
13.985072
 30
0.0
 11
46.593802
 21
13.288745
 31
0.0
  0
LINE
  5
11c
100
AcDbEntity
  8
CC
 62
7
100
AcDbLine
 10
46.593802
 20
13.288745
 30
0.0
 11
44.970418
 21
11.043188
 31
0.0
  0
LINE
  5
11d
100
AcDbEntity
  8
CC
 62
7
100
AcDbLine
 10
44.970418
 20
11.043188
 30
0.0
 11
43.782166
 21
9.139740
 31
0.0
  0
LINE
  5
11e
100
AcDbEntity
  8
CC
 62
7
100
AcDbLine
 10
43.782166
 20
9.139740
 30
0.0
 11
43.245944
 21
8.471212
 31
0.0
  0
LINE
  5
11f
100
AcDbEntity
  8
CC
 62
7
100
AcDbLine
 10
43.245944
 20
8.471212
 30
0.0
 11
42.232741
 21
7.635411
 31
0.0
  0
LINE
  5
120
100
AcDbEntity
  8
CC
 62
7
100
AcDbLine
 10
42.232741
 20
7.635411
 30
0.0
 11
40.637737
 21
6.524753
 31
0.0
  0
LINE
  5
121
100
AcDbEntity
  8
CC
 62
7
100
AcDbLine
 10
40.637737
 20
6.524753
 30
0.0
 11
40.192525
 21
6.298157
 31
0.0
  0
LINE
  5
122
100
AcDbEntity
  8
CC
 62
7
100
AcDbLine
 10
40.192525
 20
6.298157
 30
0.0
 11
39.816995
 21
6.034336
 31
0.0
  0
LINE
  5
123
100
AcDbEntity
  8
CC
 62
7
100
AcDbLine
 10
39.816995
 20
6.034336
 30
0.0
 11
32.609358
 21
1.032427
 31
0.0
  0
LINE
  5
124
100
AcDbEntity
  8
CC
 62
7
100
AcDbLine
 10
32.609358
 20
1.032427
 30
0.0
 11
24.170715
 21
6.364649
 31
0.0
  0
LINE
  5
125
100
AcDbEntity
  8
CC
 62
7
100
AcDbLine
 10
24.170715
 20
6.364649
 30
0.0
 11
23.239865
 21
7.121936
 31
0.0
  0
LINE
  5
126
100
AcDbEntity
  8
CC
 62
7
100
AcDbLine
 10
23.239865
 20
7.121936
 30
0.0
 11
22.128854
 21
8.320336
 31
0.0
  0
LINE
  5
127
100
AcDbEntity
  8
CC
 62
7
100
AcDbLine
 10
22.128854
 20
8.320336
 30
0.0
 11
20.930918
 21
10.106436
 31
0.0
  0
LINE
  5
128
100
AcDbEntity
  8
CC
 62
7
100
AcDbLine
 10
20.930918
 20
10.106436
 30
0.0
 11
19.931089
 21
11.963288
 31
0.0
  0
LINE
  5
129
100
AcDbEntity
  8
CC
 62
7
100
AcDbLine
 10
19.931089
 20
11.963288
 30
0.0
 11
19.198889
 21
13.443713
 31
0.0
  0
LINE
  5
12a
100
AcDbEntity
  8
CC
 62
7
100
AcDbLine
 10
19.198889
 20
13.443713
 30
0.0
 11
18.803838
 21
14.100501
 31
0.0
  0
LINE
  5
12b
100
AcDbEntity
  8
CC
 62
7
100
AcDbLine
 10
18.803838
 20
14.100501
 30
0.0
 11
17.092604
 21
14.459262
 31
0.0
  0
LINE
  5
12c
100
AcDbEntity
  8
CC
 62
7
100
AcDbLine
 10
17.092604
 20
14.459262
 30
0.0
 11
15.306498
 21
14.582847
 31
0.0
  0
LINE
  5
12d
100
AcDbEntity
  8
CC
 62
7
100
AcDbLine
 10
15.306498
 20
14.582847
 30
0.0
 11
13.440653
 21
14.453392
 31
0.0
  0
LINE
  5
12e
100
AcDbEntity
  8
CC
 62
7
100
AcDbLine
 10
13.440653
 20
14.453392
 30
0.0
 11
11.543877
 21
14.077500
 31
0.0
  0
LINE
  5
12f
100
AcDbEntity
  8
CC
 62
7
100
AcDbLine
 10
11.543877
 20
14.077500
 30
0.0
 11
9.664975
 21
13.461691
 31
0.0
  0
LINE
  5
130
100
AcDbEntity
  8
CC
 62
7
100
AcDbLine
 10
9.664975
 20
13.461691
 30
0.0
 11
8.474993
 21
13.142102
 31
0.0
  0
LINE
  5
131
100
AcDbEntity
  8
CC
 62
7
100
AcDbLine
 10
8.474993
 20
13.142102
 30
0.0
 11
7.674550
 21
12.893295
 31
0.0
  0
LINE
  5
132
100
AcDbEntity
  8
CC
 62
7
100
AcDbLine
 10
7.674550
 20
12.893295
 30
0.0
 11
6.669148
 21
10.292307
 31
0.0
  0
LINE
  5
133
100
AcDbEntity
  8
CC
 62
7
100
AcDbLine
 10
6.669148
 20
10.292307
 30
0.0
 11
6.274517
 21
10.250962
 31
0.0
  0
LINE
  5
134
100
AcDbEntity
  8
CC
 62
7
100
AcDbLine
 10
6.274517
 20
10.250962
 30
0.0
 11
5.615248
 21
10.529458
 31
0.0
  0
LINE
  5
135
100
AcDbEntity
  8
CC
 62
7
100
AcDbLine
 10
5.615248
 20
10.529458
 30
0.0
 11
4.832521
 21
11.049538
 31
0.0
  0
LINE
  5
136
100
AcDbEntity
  8
CC
 62
7
100
AcDbLine
 10
4.832521
 20
11.049538
 30
0.0
 11
4.067517
 21
11.733080
 31
0.0
  0
LINE
  5
137
100
AcDbEntity
  8
CC
 62
7
100
AcDbLine
 10
4.067517
 20
11.733080
 30
0.0
 11
3.238076
 21
12.783934
 31
0.0
  0
LINE
  5
138
100
AcDbEntity
  8
CC
 62
7
100
AcDbLine
 10
3.238076
 20
12.783934
 30
0.0
 11
2.644573
 21
13.961252
 31
0.0
  0
LINE
  5
139
100
AcDbEntity
  8
CC
 62
7
100
AcDbLine
 10
2.644573
 20
13.961252
 30
0.0
 11
2.286998
 21
15.265082
 31
0.0
  0
LINE
  5
13a
100
AcDbEntity
  8
CC
 62
7
100
AcDbLine
 10
2.286998
 20
15.265082
 30
0.0
 11
2.165340
 21
16.695419
 31
0.0
  0
LINE
  5
13b
100
AcDbEntity
  8
CC
 62
7
100
AcDbLine
 10
2.165340
 20
16.695419
 30
0.0
 11
2.188876
 21
17.250671
 31
0.0
  0
LINE
  5
13c
100
AcDbEntity
  8
CC
 62
7
100
AcDbLine
 10
2.188876
 20
17.250671
 30
0.0
 11
2.327332
 21
17.823108
 31
0.0
  0
LINE
  5
13d
100
AcDbEntity
  8
CC
 62
7
100
AcDbLine
 10
2.327332
 20
17.823108
 30
0.0
 11
3.337010
 21
20.170246
 31
0.0
  0
LINE
  5
13e
100
AcDbEntity
  8
CC
 62
7
100
AcDbLine
 10
3.337010
 20
20.170246
 30
0.0
 11
5.336865
 21
24.356708
 31
0.0
  0
LINE
  5
13f
100
AcDbEntity
  8
CC
 62
7
100
AcDbLine
 10
5.336865
 20
24.356708
 30
0.0
 11
7.656242
 21
28.868126
 31
0.0
  0
LINE
  5
140
100
AcDbEntity
  8
CC
 62
7
100
AcDbLine
 10
7.656242
 20
28.868126
 30
0.0
 11
10.052498
 21
33.247055
 31
0.0
  0
LINE
  5
141
100
AcDbEntity
  8
CC
 62
7
100
AcDbLine
 10
10.052498
 20
33.247055
 30
0.0
 11
12.282993
 21
37.036038
 31
0.0
  0
LINE
  5
142
100
AcDbEntity
  8
CC
 62
7
100
AcDbLine
 10
12.282993
 20
37.036038
 30
0.0
 11
13.594550
 21
39.156588
 31
0.0
  0
LINE
  5
143
100
AcDbEntity
  8
CC
 62
7
100
AcDbLine
 10
13.594550
 20
39.156588
 30
0.0
 11
13.743207
 21
40.386763
 31
0.0
  0
LINE
  5
144
100
AcDbEntity
  8
CC
 62
7
100
AcDbLine
 10
13.743207
 20
40.386763
 30
0.0
 11
14.421122
 21
44.466410
 31
0.0
  0
LINE
  5
145
100
AcDbEntity
  8
CC
 62
7
100
AcDbLine
 10
14.421122
 20
44.466410
 30
0.0
 11
15.420817
 21
48.301302
 31
0.0
  0
LINE
  5
146
100
AcDbEntity
  8
CC
 62
7
100
AcDbLine
 10
15.420817
 20
48.301302
 30
0.0
 11
16.697096
 21
51.746860
 31
0.0
  0
LINE
  5
147
100
AcDbEntity
  8
CC
 62
7
100
AcDbLine
 10
16.697096
 20
51.746860
 30
0.0
 11
18.204762
 21
54.658510
 31
0.0
  0
LINE
  5
148
100
AcDbEntity
  8
CC
 62
7
100
AcDbLine
 10
18.204762
 20
54.658510
 30
0.0
 11
19.611065
 21
56.625932
 31
0.0
  0
LINE
  5
149
100
AcDbEntity
  8
CC
 62
7
100
AcDbLine
 10
19.611065
 20
56.625932
 30
0.0
 11
21.120977
 21
58.083031
 31
0.0
  0
LINE
  5
14a
100
AcDbEntity
  8
CC
 62
7
100
AcDbLine
 10
21.120977
 20
58.083031
 30
0.0
 11
22.861694
 21
59.127696
 31
0.0
  0
LINE
  5
14b
100
AcDbEntity
  8
CC
 62
7
100
AcDbLine
 10
22.861694
 20
59.127696
 30
0.0
 11
24.960412
 21
59.857822
 31
0.0
  0
LINE
  5
14c
100
AcDbEntity
  8
CC
 62
7
100
AcDbLine
 10
24.960412
 20
59.857822
 30
0.0
 11
30.733131
 21
60.356178
 31
0.0
  0
LINE
  5
14d
100
AcDbEntity
  8
CC
 62
7
100
AcDbLine
 10
30.733131
 20
60.356178
 30
0.0
 11
31.435983
 21
60.399164
 31
0.0
  0
LINE
  5
14e
100
AcDbEntity
  8
CC
 62
7
100
AcDbLine
 10
31.435983
 20
60.399164
 30
0.0
 11
34.702519
 21
60.379465
 31
0.0
  0
LINE
  5
14f
100
AcDbEntity
  8
CC
 62
7
100
AcDbLine
 10
34.702519
 20
60.379465
 30
0.0
 11
35.577100
 21
60.334552
 31
0.0
  0
LINE
  5
150
100
AcDbEntity
  8
CC
 62
7
100
AcDbLine
 10
35.577100
 20
60.334552
 30
0.0
 11
37.844710
 21
60.257358
 31
0.0
  0
LINE
  5
151
100
AcDbEntity
  8
CC
 62
7
100
AcDbLine
 10
37.844710
 20
60.257358
 30
0.0
 11
40.305922
 21
59.974724
 31
0.0
  0
LINE
  5
152
100
AcDbEntity
  8
CC
 62
7
100
AcDbLine
 10
40.305922
 20
59.974724
 30
0.0
 11
42.231937
 21
59.417064
 31
0.0
  0
LINE
  5
153
100
AcDbEntity
  8
CC
 62
7
100
AcDbLine
 10
42.231937
 20
59.417064
 30
0.0
 11
43.975107
 21
58.612068
 31
0.0
  0
LINE
  5
154
100
AcDbEntity
  8
CC
 62
7
100
AcDbLine
 10
43.975107
 20
58.612068
 30
0.0
 11
45.381314
 21
57.551426
 31
0.0
  0
LINE
  5
155
100
AcDbEntity
  8
CC
 62
7
100
AcDbLine
 10
45.381314
 20
57.551426
 30
0.0
 11
46.707465
 21
56.077444
 31
0.0
  0
LINE
  5
156
100
AcDbEntity
  8
CC
 62
7
100
AcDbLine
 10
46.707465
 20
56.077444
 30
0.0
 11
47.935955
 21
54.229320
 31
0.0
  0
LINE
  5
157
100
AcDbEntity
  8
CC
 62
7
100
AcDbLine
 10
47.935955
 20
54.229320
 30
0.0
 11
49.049186
 21
52.046241
 31
0.0
  0
LINE
  5
158
100
AcDbEntity
  8
CC
 62
7
100
AcDbLine
 10
49.049186
 20
52.046241
 30
0.0
 11
50.029556
 21
49.567401
 31
0.0
  0
LINE
  5
159
100
AcDbEntity
  8
CC
 62
7
100
AcDbLine
 10
50.029556
 20
49.567401
 30
0.0
 11
50.859467
 21
46.831994
 31
0.0
  0
LINE
  5
15a
100
AcDbEntity
  8
CC
 62
7
100
AcDbLine
 10
50.859467
 20
46.831994
 30
0.0
 11
51.521318
 21
43.879207
 31
0.0
  0
LINE
  5
15b
100
AcDbEntity
  8
CC
 62
7
100
AcDbLine
 10
51.521318
 20
43.879207
 30
0.0
 11
51.997506
 21
40.748234
 31
0.0
  0
LINE
  5
15c
100
AcDbEntity
  8
CC
 62
7
100
AcDbLine
 10
51.997506
 20
40.748234
 30
0.0
 11
52.216623
 21
38.886718
 31
0.0
  0
LINE
  5
15d
100
AcDbEntity
  8
CC
 62
7
100
AcDbLine
 10
52.216623
 20
38.886718
 30
0.0
 11
53.073949
 21
37.459557
 31
0.0
  0
LINE
  5
15e
100
AcDbEntity
  8
CC
 62
7
100
AcDbLine
 10
53.073949
 20
37.459557
 30
0.0
 11
55.552710
 21
33.100590
 31
0.0
  0
LINE
  5
15f
100
AcDbEntity
  8
CC
 62
7
100
AcDbLine
 10
55.552710
 20
33.100590
 30
0.0
 11
58.154212
 21
28.123595
 31
0.0
  0
LINE
  5
160
100
AcDbEntity
  8
CC
 62
7
100
AcDbLine
 10
58.154212
 20
28.123595
 30
0.0
 11
60.636791
 21
23.008298
 31
0.0
  0
LINE
  5
161
100
AcDbEntity
  8
CC
 62
7
100
AcDbLine
 10
60.636791
 20
23.008298
 30
0.0
 11
62.758780
 21
18.234413
 31
0.0
  0
LINE
  5
162
100
AcDbEntity
  8
CC
 62
7
100
AcDbLine
 10
62.758780
 20
18.234413
 30
0.0
 11
63.160910
 21
17.106328
 31
0.0
  0
LINE
  5
163
100
AcDbEntity
  8
CC
 62
7
100
AcDbLine
 10
63.160910
 20
17.106328
 30
0.0
 11
63.246327
 21
16.124697
 31
0.0
  0
LINE
  5
164
100
AcDbEntity
  8
CC
 62
7
100
AcDbLine
 10
63.246327
 20
16.124697
 30
0.0
 11
63.123451
 21
14.773008
 31
0.0
  0
LINE
  5
165
100
AcDbEntity
  8
CC
 62
7
100
AcDbLine
 10
63.123451
 20
14.773008
 30
0.0
 11
62.769135
 21
13.501992
 31
0.0
  0
LINE
  5
166
100
AcDbEntity
  8
CC
 62
7
100
AcDbLine
 10
62.769135
 20
13.501992
 30
0.0
 11
62.196520
 21
12.346095
 31
0.0
  0
LINE
  5
167
100
AcDbEntity
  8
CC
 62
7
100
AcDbLine
 10
62.196520
 20
12.346095
 30
0.0
 11
61.418755
 21
11.339747
 31
0.0
  0
LINE
  5
168
100
AcDbEntity
  8
CC
 62
7
100
AcDbLine
 10
61.418755
 20
11.339747
 30
0.0
 11
60.077590
 21
10.269927
 31
0.0
  0
LINE
  5
169
100
AcDbEntity
  8
CC
 62
7
100
AcDbLine
 10
60.077590
 20
10.269927
 30
0.0
 11
59.411534
 21
9.918278
 31
0.0
  0
LINE
  5
16a
100
AcDbEntity
  8
CC
 62
7
100
AcDbLine
 10
59.411534
 20
9.918278
 30
0.0
 11
58.904093
 21
9.785041
 31
0.0
  0
LINE
  5
16b
100
AcDbEntity
  8
CC
 62
7
100
AcDbLine
 10
58.904093
 20
9.785041
 30
0.0
 11
58.697639
 21
9.816142
 31
0.0
  0
LINE
  5
16c
100
AcDbEntity
  8
CC
 62
7
100
AcDbLine
 10
58.697639
 20
9.816142
 30
0.0
 11
58.537839
 21
9.989511
 31
0.0
  0
LINE
  5
16d
100
AcDbEntity
  8
CC
 62
7
100
AcDbLine
 10
58.537839
 20
9.989511
 30
0.0
 11
58.090150
 21
11.243227
 31
0.0
  0
LINE
  5
16e
100
AcDbEntity
  8
CC
 62
7
100
AcDbLine
 10
58.090150
 20
11.243227
 30
0.0
 11
57.808859
 21
12.117043
 31
0.0
  0
LINE
  5
16f
100
AcDbEntity
  8
CC
 62
7
100
AcDbLine
 10
57.808859
 20
12.117043
 30
0.0
 11
56.754875
 21
12.654027
 31
0.0
  0
LINE
  5
170
100
AcDbEntity
  8
CC
 62
7
100
AcDbLine
 10
21.155013
 20
32.913115
 30
0.0
 11
20.866940
 21
32.472713
 31
0.0
  0
LINE
  5
171
100
AcDbEntity
  8
CC
 62
7
100
AcDbLine
 10
20.866940
 20
32.472713
 30
0.0
 11
20.092146
 21
31.253756
 31
0.0
  0
LINE
  5
172
100
AcDbEntity
  8
CC
 62
7
100
AcDbLine
 10
20.092146
 20
31.253756
 30
0.0
 11
19.639040
 21
30.088974
 31
0.0
  0
LINE
  5
173
100
AcDbEntity
  8
CC
 62
7
100
AcDbLine
 10
19.639040
 20
30.088974
 30
0.0
 11
19.663249
 21
29.635195
 31
0.0
  0
LINE
  5
174
100
AcDbEntity
  8
CC
 62
7
100
AcDbLine
 10
19.663249
 20
29.635195
 30
0.0
 11
19.873382
 21
29.171484
 31
0.0
  0
LINE
  5
175
100
AcDbEntity
  8
CC
 62
7
100
AcDbLine
 10
19.873382
 20
29.171484
 30
0.0
 11
20.787847
 21
28.260290
 31
0.0
  0
LINE
  5
176
100
AcDbEntity
  8
CC
 62
7
100
AcDbLine
 10
20.787847
 20
28.260290
 30
0.0
 11
22.255288
 21
27.447416
 31
0.0
  0
LINE
  5
177
100
AcDbEntity
  8
CC
 62
7
100
AcDbLine
 10
22.255288
 20
27.447416
 30
0.0
 11
24.148563
 21
26.824893
 31
0.0
  0
LINE
  5
178
100
AcDbEntity
  8
CC
 62
7
100
AcDbLine
 10
24.148563
 20
26.824893
 30
0.0
 11
25.670490
 21
26.549529
 31
0.0
  0
LINE
  5
179
100
AcDbEntity
  8
CC
 62
7
100
AcDbLine
 10
25.670490
 20
26.549529
 30
0.0
 11
27.806134
 21
26.486283
 31
0.0
  0
LINE
  5
17a
100
AcDbEntity
  8
CC
 62
7
100
AcDbLine
 10
27.806134
 20
26.486283
 30
0.0
 11
30.096827
 21
26.476631
 31
0.0
  0
LINE
  5
17b
100
AcDbEntity
  8
CC
 62
7
100
AcDbLine
 10
30.096827
 20
26.476631
 30
0.0
 11
30.026048
 21
27.717641
 31
0.0
  0
LINE
  5
17c
100
AcDbEntity
  8
CC
 62
7
100
AcDbLine
 10
30.026048
 20
27.717641
 30
0.0
 11
30.006406
 21
28.224953
 31
0.0
  0
LINE
  5
17d
100
AcDbEntity
  8
CC
 62
7
100
AcDbLine
 10
30.006406
 20
28.224953
 30
0.0
 11
29.975302
 21
28.660803
 31
0.0
  0
LINE
  5
17e
100
AcDbEntity
  8
CC
 62
7
100
AcDbLine
 10
29.975302
 20
28.660803
 30
0.0
 11
27.678870
 21
30.268956
 31
0.0
  0
LINE
  5
17f
100
AcDbEntity
  8
CC
 62
7
100
AcDbLine
 10
27.678870
 20
30.268956
 30
0.0
 11
25.651402
 21
31.617487
 31
0.0
  0
LINE
  5
180
100
AcDbEntity
  8
CC
 62
7
100
AcDbLine
 10
25.651402
 20
31.617487
 30
0.0
 11
24.073727
 21
32.525229
 31
0.0
  0
LINE
  5
181
100
AcDbEntity
  8
CC
 62
7
100
AcDbLine
 10
24.073727
 20
32.525229
 30
0.0
 11
22.757039
 21
33.072433
 31
0.0
  0
LINE
  5
182
100
AcDbEntity
  8
CC
 62
7
100
AcDbLine
 10
22.757039
 20
33.072433
 30
0.0
 11
21.512536
 21
33.339341
 31
0.0
  0
LINE
  5
183
100
AcDbEntity
  8
CC
 62
7
100
AcDbLine
 10
21.512536
 20
33.339341
 30
0.0
 11
21.155012
 21
32.913115
 31
0.0
  0
LINE
  5
184
100
AcDbEntity
  8
Supports
 62
7
100
AcDbLine
 10
12.382500
 20
40.292431
 30
0.0
 11
12.382500
 21
36.905764
 31
0.0
  0
LINE
  5
185
100
AcDbEntity
  8
Supports
 62
7
100
AcDbLine
 10
12.382500
 20
36.905764
 30
0.0
 11
26.740556
 21
36.905764
 31
0.0
  0
LINE
  5
186
100
AcDbEntity
  8
Supports
 62
7
100
AcDbLine
 10
26.740556
 20
36.905764
 30
0.0
 11
26.740556
 21
34.118819
 31
0.0
  0
LINE
  5
187
100
AcDbEntity
  8
Supports
 62
7
100
AcDbLine
 10
26.740556
 20
34.118819
 30
0.0
 11
30.991528
 21
34.118819
 31
0.0
  0
LINE
  5
188
100
AcDbEntity
  8
Supports
 62
7
100
AcDbLine
 10
30.991528
 20
34.118819
 30
0.0
 11
30.991528
 21
29.074097
 31
0.0
  0
LINE
  5
189
100
AcDbEntity
  8
Supports
 62
7
100
AcDbLine
 10
30.991528
 20
29.074097
 30
0.0
 11
29.800903
 21
29.074097
 31
0.0
  0
LINE
  5
18a
100
AcDbEntity
  8
Supports
 62
7
100
AcDbLine
 10
29.800903
 20
29.074097
 30
0.0
 11
29.800903
 21
26.234236
 31
0.0
  0
LINE
  5
18b
100
AcDbEntity
  8
Supports
 62
7
100
AcDbLine
 10
29.800903
 20
26.234236
 30
0.0
 11
30.427083
 21
26.234236
 31
0.0
  0
LINE
  5
18c
100
AcDbEntity
  8
Supports
 62
7
100
AcDbLine
 10
30.427083
 20
26.234236
 30
0.0
 11
30.427083
 21
21.921528
 31
0.0
  0
LINE
  5
18d
100
AcDbEntity
  8
Supports
 62
7
100
AcDbLine
 10
30.427083
 20
21.921528
 30
0.0
 11
28.275139
 21
21.921528
 31
0.0
  0
LINE
  5
18e
100
AcDbEntity
  8
Supports
 62
7
100
AcDbLine
 10
28.275139
 20
21.921528
 30
0.0
 11
28.275139
 21
19.646111
 31
0.0
  0
LINE
  5
18f
100
AcDbEntity
  8
Supports
 62
7
100
AcDbLine
 10
28.275139
 20
19.646111
 30
0.0
 11
30.427083
 21
19.646111
 31
0.0
  0
LINE
  5
190
100
AcDbEntity
  8
Supports
 62
7
100
AcDbLine
 10
30.427083
 20
19.646111
 30
0.0
 11
30.427083
 21
14.142778
 31
0.0
  0
LINE
  5
191
100
AcDbEntity
  8
Supports
 62
7
100
AcDbLine
 10
30.427083
 20
14.142778
 30
0.0
 11
18.794236
 21
14.142778
 31
0.0
  0
LINE
  5
192
100
AcDbEntity
  8
Supports
 62
7
100
AcDbLine
 10
18.794236
 20
14.142778
 30
0.0
 11
18.882431
 21
13.692972
 31
0.0
  0
LINE
  5
193
100
AcDbEntity
  8
Supports
 62
7
100
AcDbLine
 10
18.882431
 20
13.692972
 30
0.0
 11
19.111736
 21
13.181472
 31
0.0
  0
LINE
  5
194
100
AcDbEntity
  8
Supports
 62
7
100
AcDbLine
 10
19.111736
 20
13.181472
 30
0.0
 11
19.808472
 21
12.043750
 31
0.0
  0
LINE
  5
195
100
AcDbEntity
  8
Supports
 62
7
100
AcDbLine
 10
19.808472
 20
12.043750
 30
0.0
 11
20.514028
 21
10.906028
 31
0.0
  0
LINE
  5
196
100
AcDbEntity
  8
Supports
 62
7
100
AcDbLine
 10
20.514028
 20
10.906028
 30
0.0
 11
20.743333
 21
10.394528
 31
0.0
  0
LINE
  5
197
100
AcDbEntity
  8
Supports
 62
7
100
AcDbLine
 10
20.743333
 20
10.394528
 30
0.0
 11
20.831528
 21
9.944722
 31
0.0
  0
LINE
  5
198
100
AcDbEntity
  8
Supports
 62
7
100
AcDbLine
 10
20.831528
 20
9.944722
 30
0.0
 11
30.550556
 21
9.847694
 31
0.0
  0
LINE
  5
199
100
AcDbEntity
  8
Supports
 62
7
100
AcDbLine
 10
30.550556
 20
9.847694
 30
0.0
 11
30.532917
 21
2.298250
 31
0.0
  0
LINE
  5
19a
100
AcDbEntity
  8
Supports
 62
7
100
AcDbLine
 10
30.532917
 20
2.298250
 30
0.0
 11
32.640764
 21
0.860694
 31
0.0
  0
LINE
  5
19b
100
AcDbEntity
  8
Supports
 62
7
100
AcDbLine
 10
32.640764
 20
0.860694
 30
0.0
 11
34.678056
 21
2.315917
 31
0.0
  0
LINE
  5
19c
100
AcDbEntity
  8
Supports
 62
7
100
AcDbLine
 10
34.678056
 20
2.315917
 30
0.0
 11
34.678056
 21
9.812416
 31
0.0
  0
LINE
  5
19d
100
AcDbEntity
  8
Supports
 62
7
100
AcDbLine
 10
34.678056
 20
9.812416
 30
0.0
 11
44.670486
 21
9.715417
 31
0.0
  0
LINE
  5
19e
100
AcDbEntity
  8
Supports
 62
7
100
AcDbLine
 10
44.670486
 20
9.715417
 30
0.0
 11
44.776319
 21
10.174028
 31
0.0
  0
LINE
  5
19f
100
AcDbEntity
  8
Supports
 62
7
100
AcDbLine
 10
44.776319
 20
10.174028
 30
0.0
 11
45.040903
 21
10.712028
 31
0.0
  0
LINE
  5
1a0
100
AcDbEntity
  8
Supports
 62
7
100
AcDbLine
 10
45.040903
 20
10.712028
 30
0.0
 11
45.861111
 21
11.929083
 31
0.0
  0
LINE
  5
1a1
100
AcDbEntity
  8
Supports
 62
7
100
AcDbLine
 10
45.861111
 20
11.929083
 30
0.0
 11
46.690139
 21
13.146195
 31
0.0
  0
LINE
  5
1a2
100
AcDbEntity
  8
Supports
 62
7
100
AcDbLine
 10
46.690139
 20
13.146195
 30
0.0
 11
46.954722
 21
13.684167
 31
0.0
  0
LINE
  5
1a3
100
AcDbEntity
  8
Supports
 62
7
100
AcDbLine
 10
46.954722
 20
13.684167
 30
0.0
 11
47.060556
 21
14.142778
 31
0.0
  0
LINE
  5
1a4
100
AcDbEntity
  8
Supports
 62
7
100
AcDbLine
 10
47.060556
 20
14.142778
 30
0.0
 11
34.854444
 21
14.142778
 31
0.0
  0
LINE
  5
1a5
100
AcDbEntity
  8
Supports
 62
7
100
AcDbLine
 10
34.854444
 20
14.142778
 30
0.0
 11
34.854444
 21
19.646111
 31
0.0
  0
LINE
  5
1a6
100
AcDbEntity
  8
Supports
 62
7
100
AcDbLine
 10
34.854444
 20
19.646111
 30
0.0
 11
36.671250
 21
19.646111
 31
0.0
  0
LINE
  5
1a7
100
AcDbEntity
  8
Supports
 62
7
100
AcDbLine
 10
36.671250
 20
19.646111
 30
0.0
 11
36.671250
 21
21.921528
 31
0.0
  0
LINE
  5
1a8
100
AcDbEntity
  8
Supports
 62
7
100
AcDbLine
 10
36.671250
 20
21.921528
 30
0.0
 11
34.854444
 21
21.921528
 31
0.0
  0
LINE
  5
1a9
100
AcDbEntity
  8
Supports
 62
7
100
AcDbLine
 10
34.854444
 20
21.921528
 30
0.0
 11
34.854444
 21
26.234236
 31
0.0
  0
LINE
  5
1aa
100
AcDbEntity
  8
Supports
 62
7
100
AcDbLine
 10
34.854444
 20
26.234236
 30
0.0
 11
35.648194
 21
26.234236
 31
0.0
  0
LINE
  5
1ab
100
AcDbEntity
  8
Supports
 62
7
100
AcDbLine
 10
35.648194
 20
26.234236
 30
0.0
 11
35.648194
 21
29.074097
 31
0.0
  0
LINE
  5
1ac
100
AcDbEntity
  8
Supports
 62
7
100
AcDbLine
 10
35.648194
 20
29.074097
 30
0.0
 11
34.342917
 21
29.074097
 31
0.0
  0
LINE
  5
1ad
100
AcDbEntity
  8
Supports
 62
7
100
AcDbLine
 10
34.342917
 20
29.074097
 30
0.0
 11
34.342917
 21
34.118819
 31
0.0
  0
LINE
  5
1ae
100
AcDbEntity
  8
Supports
 62
7
100
AcDbLine
 10
34.342917
 20
34.118819
 30
0.0
 11
39.052500
 21
34.118819
 31
0.0
  0
LINE
  5
1af
100
AcDbEntity
  8
Supports
 62
7
100
AcDbLine
 10
39.052500
 20
34.118819
 30
0.0
 11
39.052500
 21
36.905764
 31
0.0
  0
LINE
  5
1b0
100
AcDbEntity
  8
Supports
 62
7
100
AcDbLine
 10
39.052500
 20
36.905764
 30
0.0
 11
53.242986
 21
36.905764
 31
0.0
  0
LINE
  5
1b1
100
AcDbEntity
  8
Supports
 62
7
100
AcDbLine
 10
53.242986
 20
36.905764
 30
0.0
 11
53.242986
 21
40.292431
 31
0.0
  0
LINE
  5
1b2
100
AcDbEntity
  8
Supports
 62
7
100
AcDbLine
 10
53.242986
 20
40.292431
 30
0.0
 11
12.382500
 21
40.292431
 31
0.0
  0
LINE
  5
1b3
100
AcDbEntity
  8
Supports
 62
7
100
AcDbLine
 10
12.382500
 20
40.292431
 30
0.0
 11
12.382500
 21
40.292431
 31
0.0
  0
LINE
  5
1b4
100
AcDbEntity
  8
Supports
 62
7
100
AcDbLine
 10
56.532639
 20
31.393611
 30
0.0
 11
51.055764
 21
31.252500
 31
0.0
  0
LINE
  5
1b5
100
AcDbEntity
  8
Supports
 62
7
100
AcDbLine
 10
51.055764
 20
31.252500
 30
0.0
 11
45.578889
 21
31.111389
 31
0.0
  0
LINE
  5
1b6
100
AcDbEntity
  8
Supports
 62
7
100
AcDbLine
 10
45.578889
 20
31.111389
 30
0.0
 11
45.720000
 21
29.550347
 31
0.0
  0
LINE
  5
1b7
100
AcDbEntity
  8
Supports
 62
7
100
AcDbLine
 10
45.720000
 20
29.550347
 30
0.0
 11
45.869931
 21
27.989306
 31
0.0
  0
LINE
  5
1b8
100
AcDbEntity
  8
Supports
 62
7
100
AcDbLine
 10
45.869931
 20
27.989306
 30
0.0
 11
58.128958
 21
28.051042
 31
0.0
  0
LINE
  5
1b9
100
AcDbEntity
  8
Supports
 62
7
100
AcDbLine
 10
58.128958
 20
28.051042
 30
0.0
 11
57.961389
 21
28.871250
 31
0.0
  0
LINE
  5
1ba
100
AcDbEntity
  8
Supports
 62
7
100
AcDbLine
 10
57.961389
 20
28.871250
 30
0.0
 11
57.546875
 21
29.726736
 31
0.0
  0
LINE
  5
1bb
100
AcDbEntity
  8
Supports
 62
7
100
AcDbLine
 10
57.546875
 20
29.726736
 30
0.0
 11
56.532639
 21
31.393611
 31
0.0
  0
LINE
  5
1bc
100
AcDbEntity
  8
Supports
 62
7
100
AcDbLine
 10
56.532639
 20
31.393611
 30
0.0
 11
56.532639
 21
31.393611
 31
0.0
  0
LINE
  5
1bd
100
AcDbEntity
  8
Supports
 62
7
100
AcDbLine
 10
8.572500
 20
31.340694
 30
0.0
 11
7.152569
 21
27.936389
 31
0.0
  0
LINE
  5
1be
100
AcDbEntity
  8
Supports
 62
7
100
AcDbLine
 10
7.152569
 20
27.936389
 30
0.0
 11
19.702639
 21
27.989306
 31
0.0
  0
LINE
  5
1bf
100
AcDbEntity
  8
Supports
 62
7
100
AcDbLine
 10
19.702639
 20
27.989306
 30
0.0
 11
19.843750
 21
29.612083
 31
0.0
  0
LINE
  5
1c0
100
AcDbEntity
  8
Supports
 62
7
100
AcDbLine
 10
19.843750
 20
29.612083
 30
0.0
 11
19.984861
 21
31.226042
 31
0.0
  0
LINE
  5
1c1
100
AcDbEntity
  8
Supports
 62
7
100
AcDbLine
 10
19.984861
 20
31.226042
 30
0.0
 11
8.572500
 21
31.340694
 31
0.0
  0
LINE
  5
1c2
100
AcDbEntity
  8
Supports
 62
7
100
AcDbLine
 10
8.572500
 20
31.340694
 30
0.0
 11
8.572500
 21
31.340694
 31
0.0
  0
LINE
  5
1c3
100
AcDbEntity
  8
Lines
 62
7
100
AcDbLine
 10
41.308796
 20
11.634979
 30
0.0
 11
41.112437
 21
12.840858
 31
0.0
  0
LINE
  5
1c4
100
AcDbEntity
  8
Lines
 62
7
100
AcDbLine
 10
41.112437
 20
12.840858
 30
0.0
 11
40.650758
 21
14.529253
 31
0.0
  0
LINE
  5
1c5
100
AcDbEntity
  8
Lines
 62
7
100
AcDbLine
 10
40.650758
 20
14.529253
 30
0.0
 11
39.909502
 21
16.191745
 31
0.0
  0
LINE
  5
1c6
100
AcDbEntity
  8
Lines
 62
7
100
AcDbLine
 10
39.909502
 20
16.191745
 30
0.0
 11
38.968268
 21
17.679310
 31
0.0
  0
LINE
  5
1c7
100
AcDbEntity
  8
Lines
 62
7
100
AcDbLine
 10
38.968268
 20
17.679310
 30
0.0
 11
37.906647
 21
18.842929
 31
0.0
  0
LINE
  5
1c8
100
AcDbEntity
  8
Lines
 62
7
100
AcDbLine
 10
37.906647
 20
18.842929
 30
0.0
 11
36.189127
 21
19.935948
 31
0.0
  0
LINE
  5
1c9
100
AcDbEntity
  8
Lines
 62
7
100
AcDbLine
 10
36.189127
 20
19.935948
 30
0.0
 11
35.508057
 21
20.294805
 31
0.0
  0
LINE
  5
1ca
100
AcDbEntity
  8
Lines
 62
7
100
AcDbLine
 10
35.508057
 20
20.294805
 30
0.0
 11
35.249000
 21
20.596602
 31
0.0
  0
LINE
  5
1cb
100
AcDbEntity
  8
Lines
 62
7
100
AcDbLine
 10
35.249000
 20
20.596602
 30
0.0
 11
35.395129
 21
20.937041
 31
0.0
  0
LINE
  5
1cc
100
AcDbEntity
  8
Lines
 62
7
100
AcDbLine
 10
35.395129
 20
20.937041
 30
0.0
 11
35.929612
 21
21.411832
 31
0.0
  0
LINE
  5
1cd
100
AcDbEntity
  8
Lines
 62
7
100
AcDbLine
 10
35.929612
 20
21.411832
 30
0.0
 11
37.176696
 21
22.095272
 31
0.0
  0
LINE
  5
1ce
100
AcDbEntity
  8
Lines
 62
7
100
AcDbLine
 10
37.176696
 20
22.095272
 30
0.0
 11
38.777508
 21
22.481773
 31
0.0
  0
LINE
  5
1cf
100
AcDbEntity
  8
Lines
 62
7
100
AcDbLine
 10
38.777508
 20
22.481773
 30
0.0
 11
40.652522
 21
22.560688
 31
0.0
  0
LINE
  5
1d0
100
AcDbEntity
  8
Lines
 62
7
100
AcDbLine
 10
40.652522
 20
22.560688
 30
0.0
 11
42.722210
 21
22.321366
 31
0.0
  0
LINE
  5
1d1
100
AcDbEntity
  8
Lines
 62
7
100
AcDbLine
 10
42.722210
 20
22.321366
 30
0.0
 11
44.230188
 21
22.038165
 31
0.0
  0
LINE
  5
1d2
100
AcDbEntity
  8
Lines
 62
7
100
AcDbLine
 10
44.230188
 20
22.038165
 30
0.0
 11
44.740782
 21
22.398212
 31
0.0
  0
LINE
  5
1d3
100
AcDbEntity
  8
Lines
 62
7
100
AcDbLine
 10
44.740782
 20
22.398212
 30
0.0
 11
45.859124
 21
23.165476
 31
0.0
  0
LINE
  5
1d4
100
AcDbEntity
  8
Lines
 62
7
100
AcDbLine
 10
45.859124
 20
23.165476
 30
0.0
 11
46.227148
 21
23.316716
 31
0.0
  0
LINE
  5
1d5
100
AcDbEntity
  8
Lines
 62
7
100
AcDbLine
 10
46.227148
 20
23.316716
 30
0.0
 11
46.399219
 21
23.059716
 31
0.0
  0
LINE
  5
1d6
100
AcDbEntity
  8
Lines
 62
7
100
AcDbLine
 10
46.399219
 20
23.059716
 30
0.0
 11
46.137850
 21
22.582151
 31
0.0
  0
LINE
  5
1d7
100
AcDbEntity
  8
Lines
 62
7
100
AcDbLine
 10
46.137850
 20
22.582151
 30
0.0
 11
45.538082
 21
21.876615
 31
0.0
  0
LINE
  5
1d8
100
AcDbEntity
  8
Lines
 62
7
100
AcDbLine
 10
45.538082
 20
21.876615
 30
0.0
 11
44.876432
 21
21.237799
 31
0.0
  0
LINE
  5
1d9
100
AcDbEntity
  8
Lines
 62
7
100
AcDbLine
 10
44.876432
 20
21.237799
 30
0.0
 11
44.429418
 21
20.960400
 31
0.0
  0
LINE
  5
1da
100
AcDbEntity
  8
Lines
 62
7
100
AcDbLine
 10
44.429418
 20
20.960400
 30
0.0
 11
43.396543
 21
21.199163
 31
0.0
  0
LINE
  5
1db
100
AcDbEntity
  8
Lines
 62
7
100
AcDbLine
 10
43.396543
 20
21.199163
 30
0.0
 11
41.834503
 21
21.541623
 31
0.0
  0
LINE
  5
1dc
100
AcDbEntity
  8
Lines
 62
7
100
AcDbLine
 10
41.834503
 20
21.541623
 30
0.0
 11
40.239275
 21
21.651554
 31
0.0
  0
LINE
  5
1dd
100
AcDbEntity
  8
Lines
 62
7
100
AcDbLine
 10
40.239275
 20
21.651554
 30
0.0
 11
38.744841
 21
21.529482
 31
0.0
  0
LINE
  5
1de
100
AcDbEntity
  8
Lines
 62
7
100
AcDbLine
 10
38.744841
 20
21.529482
 30
0.0
 11
37.485176
 21
21.175936
 31
0.0
  0
LINE
  5
1df
100
AcDbEntity
  8
Lines
 62
7
100
AcDbLine
 10
37.485176
 20
21.175936
 30
0.0
 11
36.820596
 21
20.891902
 31
0.0
  0
LINE
  5
1e0
100
AcDbEntity
  8
Lines
 62
7
100
AcDbLine
 10
36.820596
 20
20.891902
 30
0.0
 11
37.567749
 21
20.408137
 31
0.0
  0
LINE
  5
1e1
100
AcDbEntity
  8
Lines
 62
7
100
AcDbLine
 10
37.567749
 20
20.408137
 30
0.0
 11
38.973227
 21
19.313837
 31
0.0
  0
LINE
  5
1e2
100
AcDbEntity
  8
Lines
 62
7
100
AcDbLine
 10
38.973227
 20
19.313837
 30
0.0
 11
40.150469
 21
18.021908
 31
0.0
  0
LINE
  5
1e3
100
AcDbEntity
  8
Lines
 62
7
100
AcDbLine
 10
40.150469
 20
18.021908
 30
0.0
 11
41.046888
 21
16.601145
 31
0.0
  0
LINE
  5
1e4
100
AcDbEntity
  8
Lines
 62
7
100
AcDbLine
 10
41.046888
 20
16.601145
 30
0.0
 11
41.609893
 21
15.120345
 31
0.0
  0
LINE
  5
1e5
100
AcDbEntity
  8
Lines
 62
7
100
AcDbLine
 10
41.609893
 20
15.120345
 30
0.0
 11
41.891260
 21
13.389724
 31
0.0
  0
LINE
  5
1e6
100
AcDbEntity
  8
Lines
 62
7
100
AcDbLine
 10
41.891260
 20
13.389724
 30
0.0
 11
41.892954
 21
11.977654
 31
0.0
  0
LINE
  5
1e7
100
AcDbEntity
  8
Lines
 62
7
100
AcDbLine
 10
41.892954
 20
11.977654
 30
0.0
 11
41.770503
 21
11.626597
 31
0.0
  0
LINE
  5
1e8
100
AcDbEntity
  8
Lines
 62
7
100
AcDbLine
 10
41.770503
 20
11.626597
 30
0.0
 11
41.557533
 21
11.527142
 31
0.0
  0
LINE
  5
1e9
100
AcDbEntity
  8
Lines
 62
7
100
AcDbLine
 10
41.557533
 20
11.527142
 30
0.0
 11
41.308776
 21
11.634979
 31
0.0
  0
LINE
  5
1ea
100
AcDbEntity
  8
Lines
 62
7
100
AcDbLine
 10
41.308776
 20
11.634979
 30
0.0
 11
41.308776
 21
11.634979
 31
0.0
  0
LINE
  5
1eb
100
AcDbEntity
  8
Lines
 62
7
100
AcDbLine
 10
37.931959
 20
9.178828
 30
0.0
 11
37.918638
 21
10.673448
 31
0.0
  0
LINE
  5
1ec
100
AcDbEntity
  8
Lines
 62
7
100
AcDbLine
 10
37.918638
 20
10.673448
 30
0.0
 11
37.694306
 21
11.798160
 31
0.0
  0
LINE
  5
1ed
100
AcDbEntity
  8
Lines
 62
7
100
AcDbLine
 10
37.694306
 20
11.798160
 30
0.0
 11
37.229460
 21
12.573396
 31
0.0
  0
LINE
  5
1ee
100
AcDbEntity
  8
Lines
 62
7
100
AcDbLine
 10
37.229460
 20
12.573396
 30
0.0
 11
36.728152
 21
13.377927
 31
0.0
  0
LINE
  5
1ef
100
AcDbEntity
  8
Lines
 62
7
100
AcDbLine
 10
36.728152
 20
13.377927
 30
0.0
 11
36.601756
 21
13.527420
 31
0.0
  0
LINE
  5
1f0
100
AcDbEntity
  8
Lines
 62
7
100
AcDbLine
 10
36.601756
 20
13.527420
 30
0.0
 11
36.533294
 21
13.499170
 31
0.0
  0
LINE
  5
1f1
100
AcDbEntity
  8
Lines
 62
7
100
AcDbLine
 10
36.533294
 20
13.499170
 30
0.0
 11
36.465236
 21
11.470698
 31
0.0
  0
LINE
  5
1f2
100
AcDbEntity
  8
Lines
 62
7
100
AcDbLine
 10
36.465236
 20
11.470698
 30
0.0
 11
36.329205
 21
9.338735
 31
0.0
  0
LINE
  5
1f3
100
AcDbEntity
  8
Lines
 62
7
100
AcDbLine
 10
36.329205
 20
9.338735
 30
0.0
 11
36.509046
 21
9.086089
 31
0.0
  0
LINE
  5
1f4
100
AcDbEntity
  8
Lines
 62
7
100
AcDbLine
 10
36.509046
 20
9.086089
 30
0.0
 11
37.062602
 21
9.063794
 31
0.0
  0
LINE
  5
1f5
100
AcDbEntity
  8
Lines
 62
7
100
AcDbLine
 10
37.062602
 20
9.063794
 30
0.0
 11
37.582258
 21
9.080163
 31
0.0
  0
LINE
  5
1f6
100
AcDbEntity
  8
Lines
 62
7
100
AcDbLine
 10
37.582258
 20
9.080163
 30
0.0
 11
37.931965
 21
9.178969
 31
0.0
  0
LINE
  5
1f7
100
AcDbEntity
  8
Lines
 62
7
100
AcDbLine
 10
37.931965
 20
9.178969
 30
0.0
 11
37.931959
 21
9.178969
 31
0.0
  0
LINE
  5
1f8
100
AcDbEntity
  8
Lines
 62
7
100
AcDbLine
 10
35.532616
 20
9.213880
 30
0.0
 11
35.565853
 21
12.074710
 31
0.0
  0
LINE
  5
1f9
100
AcDbEntity
  8
Lines
 62
7
100
AcDbLine
 10
35.565853
 20
12.074710
 30
0.0
 11
35.520020
 21
14.781997
 31
0.0
  0
LINE
  5
1fa
100
AcDbEntity
  8
Lines
 62
7
100
AcDbLine
 10
35.520020
 20
14.781997
 30
0.0
 11
35.063935
 21
15.261106
 31
0.0
  0
LINE
  5
1fb
100
AcDbEntity
  8
Lines
 62
7
100
AcDbLine
 10
35.063935
 20
15.261106
 30
0.0
 11
34.588523
 21
15.693592
 31
0.0
  0
LINE
  5
1fc
100
AcDbEntity
  8
Lines
 62
7
100
AcDbLine
 10
34.588523
 20
15.693592
 30
0.0
 11
34.440244
 21
15.707421
 31
0.0
  0
LINE
  5
1fd
100
AcDbEntity
  8
Lines
 62
7
100
AcDbLine
 10
34.440244
 20
15.707421
 30
0.0
 11
34.339400
 21
15.547291
 31
0.0
  0
LINE
  5
1fe
100
AcDbEntity
  8
Lines
 62
7
100
AcDbLine
 10
34.339400
 20
15.547291
 30
0.0
 11
34.243504
 21
14.588096
 31
0.0
  0
LINE
  5
1ff
100
AcDbEntity
  8
Lines
 62
7
100
AcDbLine
 10
34.243504
 20
14.588096
 30
0.0
 11
34.227784
 21
12.581920
 31
0.0
  0
LINE
  5
200
100
AcDbEntity
  8
Lines
 62
7
100
AcDbLine
 10
34.227784
 20
12.581920
 30
0.0
 11
34.320065
 21
9.239534
 31
0.0
  0
LINE
  5
201
100
AcDbEntity
  8
Lines
 62
7
100
AcDbLine
 10
34.320065
 20
9.239534
 30
0.0
 11
34.542516
 21
9.109457
 31
0.0
  0
LINE
  5
202
100
AcDbEntity
  8
Lines
 62
7
100
AcDbLine
 10
34.542516
 20
9.109457
 30
0.0
 11
34.927283
 21
9.059504
 31
0.0
  0
LINE
  5
203
100
AcDbEntity
  8
Lines
 62
7
100
AcDbLine
 10
34.927283
 20
9.059504
 30
0.0
 11
35.311582
 21
9.093173
 31
0.0
  0
LINE
  5
204
100
AcDbEntity
  8
Lines
 62
7
100
AcDbLine
 10
35.311582
 20
9.093173
 30
0.0
 11
35.532624
 21
9.213851
 31
0.0
  0
LINE
  5
205
100
AcDbEntity
  8
Lines
 62
7
100
AcDbLine
 10
35.532624
 20
9.213851
 30
0.0
 11
35.532624
 21
9.213880
 31
0.0
  0
LINE
  5
206
100
AcDbEntity
  8
Lines
 62
7
100
AcDbLine
 10
23.783652
 20
11.772309
 30
0.0
 11
23.980011
 21
12.978216
 31
0.0
  0
LINE
  5
207
100
AcDbEntity
  8
Lines
 62
7
100
AcDbLine
 10
23.980011
 20
12.978216
 30
0.0
 11
24.441690
 21
14.666582
 31
0.0
  0
LINE
  5
208
100
AcDbEntity
  8
Lines
 62
7
100
AcDbLine
 10
24.441690
 20
14.666582
 30
0.0
 11
25.182945
 21
16.329080
 31
0.0
  0
LINE
  5
209
100
AcDbEntity
  8
Lines
 62
7
100
AcDbLine
 10
25.182945
 20
16.329080
 30
0.0
 11
26.124180
 21
17.816642
 31
0.0
  0
LINE
  5
20a
100
AcDbEntity
  8
Lines
 62
7
100
AcDbLine
 10
26.124180
 20
17.816642
 30
0.0
 11
27.185801
 21
18.980261
 31
0.0
  0
LINE
  5
20b
100
AcDbEntity
  8
Lines
 62
7
100
AcDbLine
 10
27.185801
 20
18.980261
 30
0.0
 11
28.903320
 21
20.073280
 31
0.0
  0
LINE
  5
20c
100
AcDbEntity
  8
Lines
 62
7
100
AcDbLine
 10
28.903320
 20
20.073280
 30
0.0
 11
29.584390
 21
20.432137
 31
0.0
  0
LINE
  5
20d
100
AcDbEntity
  8
Lines
 62
7
100
AcDbLine
 10
29.584390
 20
20.432137
 30
0.0
 11
29.843448
 21
20.733934
 31
0.0
  0
LINE
  5
20e
100
AcDbEntity
  8
Lines
 62
7
100
AcDbLine
 10
29.843448
 20
20.733934
 30
0.0
 11
29.697319
 21
21.074373
 31
0.0
  0
LINE
  5
20f
100
AcDbEntity
  8
Lines
 62
7
100
AcDbLine
 10
29.697319
 20
21.074373
 30
0.0
 11
29.162835
 21
21.549164
 31
0.0
  0
LINE
  5
210
100
AcDbEntity
  8
Lines
 62
7
100
AcDbLine
 10
29.162835
 20
21.549164
 30
0.0
 11
27.915753
 21
22.232604
 31
0.0
  0
LINE
  5
211
100
AcDbEntity
  8
Lines
 62
7
100
AcDbLine
 10
27.915753
 20
22.232604
 30
0.0
 11
26.314940
 21
22.619105
 31
0.0
  0
LINE
  5
212
100
AcDbEntity
  8
Lines
 62
7
100
AcDbLine
 10
26.314940
 20
22.619105
 30
0.0
 11
24.439925
 21
22.698020
 31
0.0
  0
LINE
  5
213
100
AcDbEntity
  8
Lines
 62
7
100
AcDbLine
 10
24.439925
 20
22.698020
 30
0.0
 11
22.370238
 21
22.458698
 31
0.0
  0
LINE
  5
214
100
AcDbEntity
  8
Lines
 62
7
100
AcDbLine
 10
22.370238
 20
22.458698
 30
0.0
 11
20.862260
 21
22.175497
 31
0.0
  0
LINE
  5
215
100
AcDbEntity
  8
Lines
 62
7
100
AcDbLine
 10
20.862260
 20
22.175497
 30
0.0
 11
20.351666
 21
22.535545
 31
0.0
  0
LINE
  5
216
100
AcDbEntity
  8
Lines
 62
7
100
AcDbLine
 10
20.351666
 20
22.535545
 30
0.0
 11
19.233323
 21
23.302808
 31
0.0
  0
LINE
  5
217
100
AcDbEntity
  8
Lines
 62
7
100
AcDbLine
 10
19.233323
 20
23.302808
 30
0.0
 11
18.865300
 21
23.454048
 31
0.0
  0
LINE
  5
218
100
AcDbEntity
  8
Lines
 62
7
100
AcDbLine
 10
18.865300
 20
23.454048
 30
0.0
 11
18.693229
 21
23.197048
 31
0.0
  0
LINE
  5
219
100
AcDbEntity
  8
Lines
 62
7
100
AcDbLine
 10
18.693229
 20
23.197048
 30
0.0
 11
18.954599
 21
22.719486
 31
0.0
  0
LINE
  5
21a
100
AcDbEntity
  8
Lines
 62
7
100
AcDbLine
 10
18.954599
 20
22.719486
 30
0.0
 11
19.554366
 21
22.013947
 31
0.0
  0
LINE
  5
21b
100
AcDbEntity
  8
Lines
 62
7
100
AcDbLine
 10
19.554366
 20
22.013947
 30
0.0
 11
20.216015
 21
21.375131
 31
0.0
  0
LINE
  5
21c
100
AcDbEntity
  8
Lines
 62
7
100
AcDbLine
 10
20.216015
 20
21.375131
 30
0.0
 11
20.663030
 21
21.097732
 31
0.0
  0
LINE
  5
21d
100
AcDbEntity
  8
Lines
 62
7
100
AcDbLine
 10
20.663030
 20
21.097732
 30
0.0
 11
21.695904
 21
21.336495
 31
0.0
  0
LINE
  5
21e
100
AcDbEntity
  8
Lines
 62
7
100
AcDbLine
 10
21.695904
 20
21.336495
 30
0.0
 11
23.257945
 21
21.678955
 31
0.0
  0
LINE
  5
21f
100
AcDbEntity
  8
Lines
 62
7
100
AcDbLine
 10
23.257945
 20
21.678955
 30
0.0
 11
24.853172
 21
21.788883
 31
0.0
  0
LINE
  5
220
100
AcDbEntity
  8
Lines
 62
7
100
AcDbLine
 10
24.853172
 20
21.788883
 30
0.0
 11
26.347607
 21
21.666814
 31
0.0
  0
LINE
  5
221
100
AcDbEntity
  8
Lines
 62
7
100
AcDbLine
 10
26.347607
 20
21.666814
 30
0.0
 11
27.607272
 21
21.313268
 31
0.0
  0
LINE
  5
222
100
AcDbEntity
  8
Lines
 62
7
100
AcDbLine
 10
27.607272
 20
21.313268
 30
0.0
 11
28.271851
 21
21.029234
 31
0.0
  0
LINE
  5
223
100
AcDbEntity
  8
Lines
 62
7
100
AcDbLine
 10
28.271851
 20
21.029234
 30
0.0
 11
27.524699
 21
20.545469
 31
0.0
  0
LINE
  5
224
100
AcDbEntity
  8
Lines
 62
7
100
AcDbLine
 10
27.524699
 20
20.545469
 30
0.0
 11
26.119222
 21
19.451169
 31
0.0
  0
LINE
  5
225
100
AcDbEntity
  8
Lines
 62
7
100
AcDbLine
 10
26.119222
 20
19.451169
 30
0.0
 11
24.941979
 21
18.159240
 31
0.0
  0
LINE
  5
226
100
AcDbEntity
  8
Lines
 62
7
100
AcDbLine
 10
24.941979
 20
18.159240
 30
0.0
 11
24.045560
 21
16.738480
 31
0.0
  0
LINE
  5
227
100
AcDbEntity
  8
Lines
 62
7
100
AcDbLine
 10
24.045560
 20
16.738480
 30
0.0
 11
23.482555
 21
15.257680
 31
0.0
  0
LINE
  5
228
100
AcDbEntity
  8
Lines
 62
7
100
AcDbLine
 10
23.482555
 20
15.257680
 30
0.0
 11
23.201187
 21
13.527054
 31
0.0
  0
LINE
  5
229
100
AcDbEntity
  8
Lines
 62
7
100
AcDbLine
 10
23.201187
 20
13.527054
 30
0.0
 11
23.199466
 21
12.114983
 31
0.0
  0
LINE
  5
22a
100
AcDbEntity
  8
Lines
 62
7
100
AcDbLine
 10
23.199466
 20
12.114983
 30
0.0
 11
23.321916
 21
11.763927
 31
0.0
  0
LINE
  5
22b
100
AcDbEntity
  8
Lines
 62
7
100
AcDbLine
 10
23.321916
 20
11.763927
 30
0.0
 11
23.534887
 21
11.664472
 31
0.0
  0
LINE
  5
22c
100
AcDbEntity
  8
Lines
 62
7
100
AcDbLine
 10
23.534887
 20
11.664472
 30
0.0
 11
23.783643
 21
11.772309
 31
0.0
  0
LINE
  5
22d
100
AcDbEntity
  8
Lines
 62
7
100
AcDbLine
 10
23.783643
 20
11.772309
 30
0.0
 11
23.783643
 21
11.772309
 31
0.0
  0
LINE
  5
22e
100
AcDbEntity
  8
Lines
 62
7
100
AcDbLine
 10
29.833305
 20
9.281500
 30
0.0
 11
29.800070
 21
12.117551
 31
0.0
  0
LINE
  5
22f
100
AcDbEntity
  8
Lines
 62
7
100
AcDbLine
 10
29.800070
 20
12.117551
 30
0.0
 11
29.845900
 21
14.801372
 31
0.0
  0
LINE
  5
230
100
AcDbEntity
  8
Lines
 62
7
100
AcDbLine
 10
29.845900
 20
14.801372
 30
0.0
 11
30.301986
 21
15.276329
 31
0.0
  0
LINE
  5
231
100
AcDbEntity
  8
Lines
 62
7
100
AcDbLine
 10
30.301986
 20
15.276329
 30
0.0
 11
30.777397
 21
15.705067
 31
0.0
  0
LINE
  5
232
100
AcDbEntity
  8
Lines
 62
7
100
AcDbLine
 10
30.777397
 20
15.705067
 30
0.0
 11
30.925680
 21
15.718783
 31
0.0
  0
LINE
  5
233
100
AcDbEntity
  8
Lines
 62
7
100
AcDbLine
 10
30.925680
 20
15.718783
 30
0.0
 11
31.026521
 21
15.560039
 31
0.0
  0
LINE
  5
234
100
AcDbEntity
  8
Lines
 62
7
100
AcDbLine
 10
31.026521
 20
15.560039
 30
0.0
 11
31.122417
 21
14.609150
 31
0.0
  0
LINE
  5
235
100
AcDbEntity
  8
Lines
 62
7
100
AcDbLine
 10
31.122417
 20
14.609150
 30
0.0
 11
31.138137
 21
12.620358
 31
0.0
  0
LINE
  5
236
100
AcDbEntity
  8
Lines
 62
7
100
AcDbLine
 10
31.138137
 20
12.620358
 30
0.0
 11
31.045856
 21
9.306928
 31
0.0
  0
LINE
  5
237
100
AcDbEntity
  8
Lines
 62
7
100
AcDbLine
 10
31.045856
 20
9.306928
 30
0.0
 11
30.823405
 21
9.177981
 31
0.0
  0
LINE
  5
238
100
AcDbEntity
  8
Lines
 62
7
100
AcDbLine
 10
30.823405
 20
9.177981
 30
0.0
 11
30.438638
 21
9.128479
 31
0.0
  0
LINE
  5
239
100
AcDbEntity
  8
Lines
 62
7
100
AcDbLine
 10
30.438638
 20
9.128479
 30
0.0
 11
30.054338
 21
9.161866
 31
0.0
  0
LINE
  5
23a
100
AcDbEntity
  8
Lines
 62
7
100
AcDbLine
 10
30.054338
 20
9.161866
 30
0.0
 11
29.833296
 21
9.281528
 31
0.0
  0
LINE
  5
23b
100
AcDbEntity
  8
Lines
 62
7
100
AcDbLine
 10
29.833296
 20
9.281528
 30
0.0
 11
29.833296
 21
9.281500
 31
0.0
  0
LINE
  5
23c
100
AcDbEntity
  8
Lines
 62
7
100
AcDbLine
 10
31.972936
 20
9.196297
 30
0.0
 11
31.942543
 21
13.329188
 31
0.0
  0
LINE
  5
23d
100
AcDbEntity
  8
Lines
 62
7
100
AcDbLine
 10
31.942543
 20
13.329188
 30
0.0
 11
31.976187
 21
17.299349
 31
0.0
  0
LINE
  5
23e
100
AcDbEntity
  8
Lines
 62
7
100
AcDbLine
 10
31.976187
 20
17.299349
 30
0.0
 11
33.455125
 21
17.280553
 31
0.0
  0
LINE
  5
23f
100
AcDbEntity
  8
Lines
 62
7
100
AcDbLine
 10
33.455125
 20
17.280553
 30
0.0
 11
33.439687
 21
13.017840
 31
0.0
  0
LINE
  5
240
100
AcDbEntity
  8
Lines
 62
7
100
AcDbLine
 10
33.439687
 20
13.017840
 30
0.0
 11
33.376057
 21
9.108667
 31
0.0
  0
LINE
  5
241
100
AcDbEntity
  8
Lines
 62
7
100
AcDbLine
 10
33.376057
 20
9.108667
 30
0.0
 11
32.706516
 21
9.071103
 31
0.0
  0
LINE
  5
242
100
AcDbEntity
  8
Lines
 62
7
100
AcDbLine
 10
32.706516
 20
9.071103
 30
0.0
 11
32.182379
 21
9.081546
 31
0.0
  0
LINE
  5
243
100
AcDbEntity
  8
Lines
 62
7
100
AcDbLine
 10
32.182379
 20
9.081546
 30
0.0
 11
31.972939
 21
9.196156
 31
0.0
  0
LINE
  5
244
100
AcDbEntity
  8
Lines
 62
7
100
AcDbLine
 10
31.972939
 20
9.196156
 30
0.0
 11
31.972936
 21
9.196184
 31
0.0
  0
LINE
  5
245
100
AcDbEntity
  8
Lines
 62
7
100
AcDbLine
 10
27.416453
 20
9.099890
 30
0.0
 11
27.505779
 21
10.505103
 31
0.0
  0
LINE
  5
246
100
AcDbEntity
  8
Lines
 62
7
100
AcDbLine
 10
27.505779
 20
10.505103
 30
0.0
 11
27.568693
 21
11.533266
 31
0.0
  0
LINE
  5
247
100
AcDbEntity
  8
Lines
 62
7
100
AcDbLine
 10
27.568693
 20
11.533266
 30
0.0
 11
27.894551
 21
12.228464
 31
0.0
  0
LINE
  5
248
100
AcDbEntity
  8
Lines
 62
7
100
AcDbLine
 10
27.894551
 20
12.228464
 30
0.0
 11
28.377151
 21
13.098979
 31
0.0
  0
LINE
  5
249
100
AcDbEntity
  8
Lines
 62
7
100
AcDbLine
 10
28.377151
 20
13.098979
 30
0.0
 11
28.636809
 21
13.308868
 31
0.0
  0
LINE
  5
24a
100
AcDbEntity
  8
Lines
 62
7
100
AcDbLine
 10
28.636809
 20
13.308868
 30
0.0
 11
28.777624
 21
12.770444
 31
0.0
  0
LINE
  5
24b
100
AcDbEntity
  8
Lines
 62
7
100
AcDbLine
 10
28.777624
 20
12.770444
 30
0.0
 11
28.903699
 21
11.396050
 31
0.0
  0
LINE
  5
24c
100
AcDbEntity
  8
Lines
 62
7
100
AcDbLine
 10
28.903699
 20
11.396050
 30
0.0
 11
29.010243
 21
10.144733
 31
0.0
  0
LINE
  5
24d
100
AcDbEntity
  8
Lines
 62
7
100
AcDbLine
 10
29.010243
 20
10.144733
 30
0.0
 11
28.993366
 21
9.438528
 31
0.0
  0
LINE
  5
24e
100
AcDbEntity
  8
Lines
 62
7
100
AcDbLine
 10
28.993366
 20
9.438528
 30
0.0
 11
28.745440
 21
9.133446
 31
0.0
  0
LINE
  5
24f
100
AcDbEntity
  8
Lines
 62
7
100
AcDbLine
 10
28.745440
 20
9.133446
 30
0.0
 11
28.158805
 21
9.085525
 31
0.0
  0
LINE
  5
250
100
AcDbEntity
  8
Lines
 62
7
100
AcDbLine
 10
28.158805
 20
9.085525
 30
0.0
 11
27.416442
 21
9.099918
 31
0.0
  0
LINE
  5
251
100
AcDbEntity
  8
Lines
 62
7
100
AcDbLine
 10
27.416442
 20
9.099918
 30
0.0
 11
27.416442
 21
9.099890
 31
0.0
  0
LINE
  5
252
100
AcDbEntity
  8
Lines
 62
7
100
AcDbLine
 10
26.953755
 20
7.377685
 30
0.0
 11
24.823793
 21
7.426961
 31
0.0
  0
LINE
  5
253
100
AcDbEntity
  8
Lines
 62
7
100
AcDbLine
 10
24.823793
 20
7.426961
 30
0.0
 11
24.746526
 21
7.852016
 31
0.0
  0
LINE
  5
254
100
AcDbEntity
  8
Lines
 62
7
100
AcDbLine
 10
24.746526
 20
7.852016
 30
0.0
 11
24.752397
 21
8.462745
 31
0.0
  0
LINE
  5
255
100
AcDbEntity
  8
Lines
 62
7
100
AcDbLine
 10
24.752397
 20
8.462745
 30
0.0
 11
25.592722
 21
8.614468
 31
0.0
  0
LINE
  5
256
100
AcDbEntity
  8
Lines
 62
7
100
AcDbLine
 10
25.592722
 20
8.614468
 30
0.0
 11
27.998066
 21
8.666989
 31
0.0
  0
LINE
  5
257
100
AcDbEntity
  8
Lines
 62
7
100
AcDbLine
 10
27.998066
 20
8.666989
 30
0.0
 11
36.125918
 21
8.532172
 31
0.0
  0
LINE
  5
258
100
AcDbEntity
  8
Lines
 62
7
100
AcDbLine
 10
36.125918
 20
8.532172
 30
0.0
 11
40.115363
 21
8.473639
 31
0.0
  0
LINE
  5
259
100
AcDbEntity
  8
Lines
 62
7
100
AcDbLine
 10
40.115363
 20
8.473639
 30
0.0
 11
40.171387
 21
7.436811
 31
0.0
  0
LINE
  5
25a
100
AcDbEntity
  8
Lines
 62
7
100
AcDbLine
 10
40.171387
 20
7.436811
 30
0.0
 11
38.993837
 21
7.325813
 31
0.0
  0
LINE
  5
25b
100
AcDbEntity
  8
Lines
 62
7
100
AcDbLine
 10
38.993837
 20
7.325813
 30
0.0
 11
36.053291
 21
7.277412
 31
0.0
  0
LINE
  5
25c
100
AcDbEntity
  8
Lines
 62
7
100
AcDbLine
 10
36.053291
 20
7.277412
 30
0.0
 11
26.953769
 21
7.377685
 31
0.0
  0
LINE
  5
25d
100
AcDbEntity
  8
Lines
 62
7
100
AcDbLine
 10
26.953769
 20
7.377685
 30
0.0
 11
26.953755
 21
7.377685
 31
0.0
  0
LINE
  5
25e
100
AcDbEntity
  8
Lines
 62
7
100
AcDbLine
 10
29.771278
 20
3.792560
 30
0.0
 11
28.594465
 21
4.564946
 31
0.0
  0
LINE
  5
25f
100
AcDbEntity
  8
Lines
 62
7
100
AcDbLine
 10
28.594465
 20
4.564946
 30
0.0
 11
27.352498
 21
5.262627
 31
0.0
  0
LINE
  5
260
100
AcDbEntity
  8
Lines
 62
7
100
AcDbLine
 10
27.352498
 20
5.262627
 30
0.0
 11
26.136273
 21
5.943545
 31
0.0
  0
LINE
  5
261
100
AcDbEntity
  8
Lines
 62
7
100
AcDbLine
 10
26.136273
 20
5.943545
 30
0.0
 11
25.036682
 21
6.665582
 31
0.0
  0
LINE
  5
262
100
AcDbEntity
  8
Lines
 62
7
100
AcDbLine
 10
25.036682
 20
6.665582
 30
0.0
 11
26.937384
 21
6.631772
 31
0.0
  0
LINE
  5
263
100
AcDbEntity
  8
Lines
 62
7
100
AcDbLine
 10
26.937384
 20
6.631772
 30
0.0
 11
32.623466
 21
6.650116
 31
0.0
  0
LINE
  5
264
100
AcDbEntity
  8
Lines
 62
7
100
AcDbLine
 10
32.623466
 20
6.650116
 30
0.0
 11
38.608621
 21
6.650060
 31
0.0
  0
LINE
  5
265
100
AcDbEntity
  8
Lines
 62
7
100
AcDbLine
 10
38.608621
 20
6.650060
 30
0.0
 11
39.572128
 21
6.641311
 31
0.0
  0
LINE
  5
266
100
AcDbEntity
  8
Lines
 62
7
100
AcDbLine
 10
39.572128
 20
6.641311
 30
0.0
 11
39.709039
 21
6.600897
 31
0.0
  0
LINE
  5
267
100
AcDbEntity
  8
Lines
 62
7
100
AcDbLine
 10
39.709039
 20
6.600897
 30
0.0
 11
36.234105
 21
4.405998
 31
0.0
  0
LINE
  5
268
100
AcDbEntity
  8
Lines
 62
7
100
AcDbLine
 10
36.234105
 20
4.405998
 30
0.0
 11
33.889394
 21
2.870512
 31
0.0
  0
LINE
  5
269
100
AcDbEntity
  8
Lines
 62
7
100
AcDbLine
 10
33.889394
 20
2.870512
 30
0.0
 11
32.817520
 21
2.073940
 31
0.0
  0
LINE
  5
26a
100
AcDbEntity
  8
Lines
 62
7
100
AcDbLine
 10
32.817520
 20
2.073940
 30
0.0
 11
29.771278
 21
3.792701
 31
0.0
  0
LINE
  5
26b
100
AcDbEntity
  8
Lines
 62
7
100
AcDbLine
 10
29.771278
 20
3.792701
 30
0.0
 11
29.771278
 21
3.792560
 31
0.0
  0
LINE
  5
26c
100
AcDbEntity
  8
Lines
 62
7
100
AcDbLine
 10
12.294893
 20
31.404067
 30
0.0
 11
14.994369
 21
34.211586
 31
0.0
  0
LINE
  5
26d
100
AcDbEntity
  8
Lines
 62
7
100
AcDbLine
 10
14.994369
 20
34.211586
 30
0.0
 11
17.369525
 21
36.331825
 31
0.0
  0
LINE
  5
26e
100
AcDbEntity
  8
Lines
 62
7
100
AcDbLine
 10
17.369525
 20
36.331825
 30
0.0
 11
19.214804
 21
37.430598
 31
0.0
  0
LINE
  5
26f
100
AcDbEntity
  8
Lines
 62
7
100
AcDbLine
 10
19.214804
 20
37.430598
 30
0.0
 11
20.192236
 21
37.807557
 31
0.0
  0
LINE
  5
270
100
AcDbEntity
  8
Lines
 62
7
100
AcDbLine
 10
20.192236
 20
37.807557
 30
0.0
 11
21.250975
 21
37.929689
 31
0.0
  0
LINE
  5
271
100
AcDbEntity
  8
Lines
 62
7
100
AcDbLine
 10
21.250975
 20
37.929689
 30
0.0
 11
22.271680
 21
37.917553
 31
0.0
  0
LINE
  5
272
100
AcDbEntity
  8
Lines
 62
7
100
AcDbLine
 10
22.271680
 20
37.917553
 30
0.0
 11
23.159884
 21
37.770157
 31
0.0
  0
LINE
  5
273
100
AcDbEntity
  8
Lines
 62
7
100
AcDbLine
 10
23.159884
 20
37.770157
 30
0.0
 11
25.502043
 21
36.848930
 31
0.0
  0
LINE
  5
274
100
AcDbEntity
  8
Lines
 62
7
100
AcDbLine
 10
25.502043
 20
36.848930
 30
0.0
 11
28.178165
 21
35.371505
 31
0.0
  0
LINE
  5
275
100
AcDbEntity
  8
Lines
 62
7
100
AcDbLine
 10
28.178165
 20
35.371505
 30
0.0
 11
29.737106
 21
34.479787
 31
0.0
  0
LINE
  5
276
100
AcDbEntity
  8
Lines
 62
7
100
AcDbLine
 10
29.737106
 20
34.479787
 30
0.0
 11
29.904693
 21
34.718110
 31
0.0
  0
LINE
  5
277
100
AcDbEntity
  8
Lines
 62
7
100
AcDbLine
 10
29.904693
 20
34.718110
 30
0.0
 11
29.434511
 21
35.200766
 31
0.0
  0
LINE
  5
278
100
AcDbEntity
  8
Lines
 62
7
100
AcDbLine
 10
29.434511
 20
35.200766
 30
0.0
 11
28.277939
 21
36.014294
 31
0.0
  0
LINE
  5
279
100
AcDbEntity
  8
Lines
 62
7
100
AcDbLine
 10
28.277939
 20
36.014294
 30
0.0
 11
25.429462
 21
37.639299
 31
0.0
  0
LINE
  5
27a
100
AcDbEntity
  8
Lines
 62
7
100
AcDbLine
 10
25.429462
 20
37.639299
 30
0.0
 11
23.846711
 21
38.273701
 31
0.0
  0
LINE
  5
27b
100
AcDbEntity
  8
Lines
 62
7
100
AcDbLine
 10
23.846711
 20
38.273701
 30
0.0
 11
22.454650
 21
38.614436
 31
0.0
  0
LINE
  5
27c
100
AcDbEntity
  8
Lines
 62
7
100
AcDbLine
 10
22.454650
 20
38.614436
 30
0.0
 11
21.178855
 21
38.672636
 31
0.0
  0
LINE
  5
27d
100
AcDbEntity
  8
Lines
 62
7
100
AcDbLine
 10
21.178855
 20
38.672636
 30
0.0
 11
19.944902
 21
38.459428
 31
0.0
  0
LINE
  5
27e
100
AcDbEntity
  8
Lines
 62
7
100
AcDbLine
 10
19.944902
 20
38.459428
 30
0.0
 11
18.226266
 21
37.732969
 31
0.0
  0
LINE
  5
27f
100
AcDbEntity
  8
Lines
 62
7
100
AcDbLine
 10
18.226266
 20
37.732969
 30
0.0
 11
16.382180
 21
36.505006
 31
0.0
  0
LINE
  5
280
100
AcDbEntity
  8
Lines
 62
7
100
AcDbLine
 10
16.382180
 20
36.505006
 30
0.0
 11
14.496730
 21
34.840750
 31
0.0
  0
LINE
  5
281
100
AcDbEntity
  8
Lines
 62
7
100
AcDbLine
 10
14.496730
 20
34.840750
 30
0.0
 11
12.654004
 21
32.805408
 31
0.0
  0
LINE
  5
282
100
AcDbEntity
  8
Lines
 62
7
100
AcDbLine
 10
12.654004
 20
32.805408
 30
0.0
 11
11.350376
 21
31.137382
 31
0.0
  0
LINE
  5
283
100
AcDbEntity
  8
Lines
 62
7
100
AcDbLine
 10
11.350376
 20
31.137382
 30
0.0
 11
10.945185
 21
30.415483
 31
0.0
  0
LINE
  5
284
100
AcDbEntity
  8
Lines
 62
7
100
AcDbLine
 10
10.945185
 20
30.415483
 30
0.0
 11
11.023176
 21
30.259315
 31
0.0
  0
LINE
  5
285
100
AcDbEntity
  8
Lines
 62
7
100
AcDbLine
 10
11.023176
 20
30.259315
 30
0.0
 11
11.269932
 21
30.368955
 31
0.0
  0
LINE
  5
286
100
AcDbEntity
  8
Lines
 62
7
100
AcDbLine
 10
11.269932
 20
30.368955
 30
0.0
 11
12.294893
 21
31.404079
 31
0.0
  0
LINE
  5
287
100
AcDbEntity
  8
Lines
 62
7
100
AcDbLine
 10
12.294893
 20
31.404079
 30
0.0
 11
12.294893
 21
31.404079
 31
0.0
  0
LINE
  5
288
100
AcDbEntity
  8
Lines
 62
7
100
AcDbLine
 10
54.371934
 20
30.059121
 30
0.0
 11
54.030900
 21
30.708404
 31
0.0
  0
LINE
  5
289
100
AcDbEntity
  8
Lines
 62
7
100
AcDbLine
 10
54.030900
 20
30.708404
 30
0.0
 11
53.139560
 21
31.860141
 31
0.0
  0
LINE
  5
28a
100
AcDbEntity
  8
Lines
 62
7
100
AcDbLine
 10
53.139560
 20
31.860141
 30
0.0
 11
50.496574
 21
34.720097
 31
0.0
  0
LINE
  5
28b
100
AcDbEntity
  8
Lines
 62
7
100
AcDbLine
 10
50.496574
 20
34.720097
 30
0.0
 11
48.965045
 21
36.115897
 31
0.0
  0
LINE
  5
28c
100
AcDbEntity
  8
Lines
 62
7
100
AcDbLine
 10
48.965045
 20
36.115897
 30
0.0
 11
47.586186
 21
37.144324
 31
0.0
  0
LINE
  5
28d
100
AcDbEntity
  8
Lines
 62
7
100
AcDbLine
 10
47.586186
 20
37.144324
 30
0.0
 11
46.277039
 21
37.859175
 31
0.0
  0
LINE
  5
28e
100
AcDbEntity
  8
Lines
 62
7
100
AcDbLine
 10
46.277039
 20
37.859175
 30
0.0
 11
44.954650
 21
38.314256
 31
0.0
  0
LINE
  5
28f
100
AcDbEntity
  8
Lines
 62
7
100
AcDbLine
 10
44.954650
 20
38.314256
 30
0.0
 11
43.848917
 21
38.459538
 31
0.0
  0
LINE
  5
290
100
AcDbEntity
  8
Lines
 62
7
100
AcDbLine
 10
43.848917
 20
38.459538
 30
0.0
 11
42.635198
 21
38.347863
 31
0.0
  0
LINE
  5
291
100
AcDbEntity
  8
Lines
 62
7
100
AcDbLine
 10
42.635198
 20
38.347863
 30
0.0
 11
41.260875
 21
37.969262
 31
0.0
  0
LINE
  5
292
100
AcDbEntity
  8
Lines
 62
7
100
AcDbLine
 10
41.260875
 20
37.969262
 30
0.0
 11
39.673335
 21
37.313770
 31
0.0
  0
LINE
  5
293
100
AcDbEntity
  8
Lines
 62
7
100
AcDbLine
 10
39.673335
 20
37.313770
 30
0.0
 11
37.018121
 21
35.799108
 31
0.0
  0
LINE
  5
294
100
AcDbEntity
  8
Lines
 62
7
100
AcDbLine
 10
37.018121
 20
35.799108
 30
0.0
 11
35.879885
 21
35.026971
 31
0.0
  0
LINE
  5
295
100
AcDbEntity
  8
Lines
 62
7
100
AcDbLine
 10
35.879885
 20
35.026971
 30
0.0
 11
35.410106
 21
34.591217
 31
0.0
  0
LINE
  5
296
100
AcDbEntity
  8
Lines
 62
7
100
AcDbLine
 10
35.410106
 20
34.591217
 30
0.0
 11
35.474190
 21
34.393233
 31
0.0
  0
LINE
  5
297
100
AcDbEntity
  8
Lines
 62
7
100
AcDbLine
 10
35.474190
 20
34.393233
 30
0.0
 11
35.695041
 21
34.384399
 31
0.0
  0
LINE
  5
298
100
AcDbEntity
  8
Lines
 62
7
100
AcDbLine
 10
35.695041
 20
34.384399
 30
0.0
 11
36.778568
 21
34.983339
 31
0.0
  0
LINE
  5
299
100
AcDbEntity
  8
Lines
 62
7
100
AcDbLine
 10
36.778568
 20
34.983339
 30
0.0
 11
39.429428
 21
36.460948
 31
0.0
  0
LINE
  5
29a
100
AcDbEntity
  8
Lines
 62
7
100
AcDbLine
 10
39.429428
 20
36.460948
 30
0.0
 11
41.446329
 21
37.312240
 31
0.0
  0
LINE
  5
29b
100
AcDbEntity
  8
Lines
 62
7
100
AcDbLine
 10
41.446329
 20
37.312240
 30
0.0
 11
43.174658
 21
37.717827
 31
0.0
  0
LINE
  5
29c
100
AcDbEntity
  8
Lines
 62
7
100
AcDbLine
 10
43.174658
 20
37.717827
 30
0.0
 11
44.700642
 21
37.687655
 31
0.0
  0
LINE
  5
29d
100
AcDbEntity
  8
Lines
 62
7
100
AcDbLine
 10
44.700642
 20
37.687655
 30
0.0
 11
46.110500
 21
37.231671
 31
0.0
  0
LINE
  5
29e
100
AcDbEntity
  8
Lines
 62
7
100
AcDbLine
 10
46.110500
 20
37.231671
 30
0.0
 11
47.948870
 21
36.125603
 31
0.0
  0
LINE
  5
29f
100
AcDbEntity
  8
Lines
 62
7
100
AcDbLine
 10
47.948870
 20
36.125603
 30
0.0
 11
50.263981
 21
34.051540
 31
0.0
  0
LINE
  5
2a0
100
AcDbEntity
  8
Lines
 62
7
100
AcDbLine
 10
50.263981
 20
34.051540
 30
0.0
 11
52.681846
 21
31.442786
 31
0.0
  0
LINE
  5
2a1
100
AcDbEntity
  8
Lines
 62
7
100
AcDbLine
 10
52.681846
 20
31.442786
 30
0.0
 11
53.879194
 21
30.042122
 31
0.0
  0
LINE
  5
2a2
100
AcDbEntity
  8
Lines
 62
7
100
AcDbLine
 10
53.879194
 20
30.042122
 30
0.0
 11
54.213862
 21
29.875363
 31
0.0
  0
LINE
  5
2a3
100
AcDbEntity
  8
Lines
 62
7
100
AcDbLine
 10
54.213862
 20
29.875363
 30
0.0
 11
54.371934
 21
30.059112
 31
0.0
  0
LINE
  5
2a4
100
AcDbEntity
  8
Lines
 62
7
100
AcDbLine
 10
54.371934
 20
30.059112
 30
0.0
 11
54.371934
 21
30.059123
 31
0.0
  0
LINE
  5
2a5
100
AcDbEntity
  8
Lines
 62
7
100
AcDbLine
 10
30.733080
 20
60.356226
 30
0.0
 11
30.815051
 21
59.239318
 31
0.0
  0
LINE
  5
2a6
100
AcDbEntity
  8
Lines
 62
7
100
AcDbLine
 10
30.815051
 20
59.239318
 30
0.0
 11
30.741448
 21
54.833736
 31
0.0
  0
LINE
  5
2a7
100
AcDbEntity
  8
Lines
 62
7
100
AcDbLine
 10
30.741448
 20
54.833736
 30
0.0
 11
30.807304
 21
45.771391
 31
0.0
  0
LINE
  5
2a8
100
AcDbEntity
  8
Lines
 62
7
100
AcDbLine
 10
30.807304
 20
45.771391
 30
0.0
 11
30.896546
 21
40.288446
 31
0.0
  0
LINE
  5
2a9
100
AcDbEntity
  8
Lines
 62
7
100
AcDbLine
 10
30.896546
 20
40.288446
 30
0.0
 11
31.045483
 21
37.557756
 31
0.0
  0
LINE
  5
2aa
100
AcDbEntity
  8
Lines
 62
7
100
AcDbLine
 10
31.045483
 20
37.557756
 30
0.0
 11
31.103166
 21
37.571247
 31
0.0
  0
LINE
  5
2ab
100
AcDbEntity
  8
Lines
 62
7
100
AcDbLine
 10
31.103166
 20
37.571247
 30
0.0
 11
31.161056
 21
37.902494
 31
0.0
  0
LINE
  5
2ac
100
AcDbEntity
  8
Lines
 62
7
100
AcDbLine
 10
31.161056
 20
37.902494
 30
0.0
 11
31.274478
 21
39.367439
 31
0.0
  0
LINE
  5
2ad
100
AcDbEntity
  8
Lines
 62
7
100
AcDbLine
 10
31.274478
 20
39.367439
 30
0.0
 11
31.470992
 21
44.451243
 31
0.0
  0
LINE
  5
2ae
100
AcDbEntity
  8
Lines
 62
7
100
AcDbLine
 10
31.470992
 20
44.451243
 30
0.0
 11
31.575654
 21
54.787519
 31
0.0
  0
LINE
  5
2af
100
AcDbEntity
  8
Lines
 62
7
100
AcDbLine
 10
31.575654
 20
54.787519
 30
0.0
 11
31.450819
 21
60.406662
 31
0.0
  0
LINE
  5
2b0
100
AcDbEntity
  8
Lines
 62
7
100
AcDbLine
 10
31.450819
 20
60.406662
 30
0.0
 11
30.733080
 21
60.356232
 31
0.0
  0
LINE
  5
2b1
100
AcDbEntity
  8
Lines
 62
7
100
AcDbLine
 10
34.709913
 20
60.372290
 30
0.0
 11
34.587770
 21
55.516293
 31
0.0
  0
LINE
  5
2b2
100
AcDbEntity
  8
Lines
 62
7
100
AcDbLine
 10
34.587770
 20
55.516293
 30
0.0
 11
34.827580
 21
45.207113
 31
0.0
  0
LINE
  5
2b3
100
AcDbEntity
  8
Lines
 62
7
100
AcDbLine
 10
34.827580
 20
45.207113
 30
0.0
 11
35.036605
 21
37.388883
 31
0.0
  0
LINE
  5
2b4
100
AcDbEntity
  8
Lines
 62
7
100
AcDbLine
 10
35.036605
 20
37.388883
 30
0.0
 11
35.246719
 21
39.819567
 31
0.0
  0
LINE
  5
2b5
100
AcDbEntity
  8
Lines
 62
7
100
AcDbLine
 10
35.246719
 20
39.819567
 30
0.0
 11
35.398069
 21
45.350313
 31
0.0
  0
LINE
  5
2b6
100
AcDbEntity
  8
Lines
 62
7
100
AcDbLine
 10
35.398069
 20
45.350313
 30
0.0
 11
35.530598
 21
55.385974
 31
0.0
  0
LINE
  5
2b7
100
AcDbEntity
  8
Lines
 62
7
100
AcDbLine
 10
35.530598
 20
55.385974
 30
0.0
 11
35.591936
 21
60.327160
 31
0.0
  0
LINE
  5
2b8
100
AcDbEntity
  8
Lines
 62
7
100
AcDbLine
 10
35.591936
 20
60.327160
 30
0.0
 11
34.709913
 21
60.372290
 31
0.0
  0
LINE
  5
2b9
100
AcDbEntity
  8
Lines
 62
7
100
AcDbLine
 10
57.798609
 20
12.264391
 30
0.0
 11
54.624673
 21
21.550609
 31
0.0
  0
LINE
  5
2ba
100
AcDbEntity
  8
Lines
 62
7
100
AcDbLine
 10
54.624673
 20
21.550609
 30
0.0
 11
53.237167
 21
25.152275
 31
0.0
  0
LINE
  5
2bb
100
AcDbEntity
  8
Lines
 62
7
100
AcDbLine
 10
53.237167
 20
25.152275
 30
0.0
 11
52.235058
 21
27.345500
 31
0.0
  0
LINE
  5
2bc
100
AcDbEntity
  8
Lines
 62
7
100
AcDbLine
 10
52.235058
 20
27.345500
 30
0.0
 11
50.936920
 21
29.494244
 31
0.0
  0
LINE
  5
2bd
100
AcDbEntity
  8
Lines
 62
7
100
AcDbLine
 10
50.936920
 20
29.494244
 30
0.0
 11
49.697462
 21
31.175174
 31
0.0
  0
LINE
  5
2be
100
AcDbEntity
  8
Lines
 62
7
100
AcDbLine
 10
49.697462
 20
31.175174
 30
0.0
 11
48.441731
 21
32.364896
 31
0.0
  0
LINE
  5
2bf
100
AcDbEntity
  8
Lines
 62
7
100
AcDbLine
 10
48.441731
 20
32.364896
 30
0.0
 11
47.784343
 21
32.768251
 31
0.0
  0
LINE
  5
2c0
100
AcDbEntity
  8
Lines
 62
7
100
AcDbLine
 10
47.784343
 20
32.768251
 30
0.0
 11
47.094783
 21
33.040031
 31
0.0
  0
LINE
  5
2c1
100
AcDbEntity
  8
Lines
 62
7
100
AcDbLine
 10
47.094783
 20
33.040031
 30
0.0
 11
45.755523
 21
33.230827
 31
0.0
  0
LINE
  5
2c2
100
AcDbEntity
  8
Lines
 62
7
100
AcDbLine
 10
45.755523
 20
33.230827
 30
0.0
 11
44.210419
 21
33.164632
 31
0.0
  0
LINE
  5
2c3
100
AcDbEntity
  8
Lines
 62
7
100
AcDbLine
 10
44.210419
 20
33.164632
 30
0.0
 11
44.627851
 21
32.569422
 31
0.0
  0
LINE
  5
2c4
100
AcDbEntity
  8
Lines
 62
7
100
AcDbLine
 10
44.627851
 20
32.569422
 30
0.0
 11
44.834965
 21
32.639106
 31
0.0
  0
LINE
  5
2c5
100
AcDbEntity
  8
Lines
 62
7
100
AcDbLine
 10
44.834965
 20
32.639106
 30
0.0
 11
45.469175
 21
32.764641
 31
0.0
  0
LINE
  5
2c6
100
AcDbEntity
  8
Lines
 62
7
100
AcDbLine
 10
45.469175
 20
32.764641
 30
0.0
 11
46.286488
 21
32.685232
 31
0.0
  0
LINE
  5
2c7
100
AcDbEntity
  8
Lines
 62
7
100
AcDbLine
 10
46.286488
 20
32.685232
 30
0.0
 11
47.179399
 21
32.421030
 31
0.0
  0
LINE
  5
2c8
100
AcDbEntity
  8
Lines
 62
7
100
AcDbLine
 10
47.179399
 20
32.421030
 30
0.0
 11
48.040400
 21
31.992179
 31
0.0
  0
LINE
  5
2c9
100
AcDbEntity
  8
Lines
 62
7
100
AcDbLine
 10
48.040400
 20
31.992179
 30
0.0
 11
48.960318
 21
31.122765
 31
0.0
  0
LINE
  5
2ca
100
AcDbEntity
  8
Lines
 62
7
100
AcDbLine
 10
48.960318
 20
31.122765
 30
0.0
 11
49.861405
 21
30.013319
 31
0.0
  0
LINE
  5
2cb
100
AcDbEntity
  8
Lines
 62
7
100
AcDbLine
 10
49.861405
 20
30.013319
 30
0.0
 11
51.315956
 21
27.834464
 31
0.0
  0
LINE
  5
2cc
100
AcDbEntity
  8
Lines
 62
7
100
AcDbLine
 10
51.315956
 20
27.834464
 30
0.0
 11
52.285934
 21
26.012889
 31
0.0
  0
LINE
  5
2cd
100
AcDbEntity
  8
Lines
 62
7
100
AcDbLine
 10
52.285934
 20
26.012889
 30
0.0
 11
53.256756
 21
23.754124
 31
0.0
  0
LINE
  5
2ce
100
AcDbEntity
  8
Lines
 62
7
100
AcDbLine
 10
53.256756
 20
23.754124
 30
0.0
 11
55.115652
 21
18.506721
 31
0.0
  0
LINE
  5
2cf
100
AcDbEntity
  8
Lines
 62
7
100
AcDbLine
 10
55.115652
 20
18.506721
 30
0.0
 11
56.820881
 21
13.347222
 31
0.0
  0
LINE
  5
2d0
100
AcDbEntity
  8
Lines
 62
7
100
AcDbLine
 10
56.820881
 20
13.347222
 30
0.0
 11
56.926802
 21
12.600292
 31
0.0
  0
LINE
  5
2d1
100
AcDbEntity
  8
Lines
 62
7
100
AcDbLine
 10
56.926802
 20
12.600292
 30
0.0
 11
57.784441
 21
12.179386
 31
0.0
  0
LINE
  5
2d2
100
AcDbEntity
  8
Lines
 62
7
100
AcDbLine
 10
57.784441
 20
12.179386
 30
0.0
 11
57.798609
 21
12.264391
 31
0.0
  0
LINE
  5
2d3
100
AcDbEntity
  8
Lines
 62
7
100
AcDbLine
 10
41.325583
 20
8.414626
 30
0.0
 11
44.099198
 21
11.692299
 31
0.0
  0
LINE
  5
2d4
100
AcDbEntity
  8
Lines
 62
7
100
AcDbLine
 10
44.099198
 20
11.692299
 30
0.0
 11
45.272672
 21
13.283270
 31
0.0
  0
LINE
  5
2d5
100
AcDbEntity
  8
Lines
 62
7
100
AcDbLine
 10
45.272672
 20
13.283270
 30
0.0
 11
45.922466
 21
14.558660
 31
0.0
  0
LINE
  5
2d6
100
AcDbEntity
  8
Lines
 62
7
100
AcDbLine
 10
45.922466
 20
14.558660
 30
0.0
 11
46.712705
 21
15.883208
 31
0.0
  0
LINE
  5
2d7
100
AcDbEntity
  8
Lines
 62
7
100
AcDbLine
 10
46.712705
 20
15.883208
 30
0.0
 11
47.268960
 21
17.054490
 31
0.0
  0
LINE
  5
2d8
100
AcDbEntity
  8
Lines
 62
7
100
AcDbLine
 10
47.268960
 20
17.054490
 30
0.0
 11
47.690501
 21
18.255142
 31
0.0
  0
LINE
  5
2d9
100
AcDbEntity
  8
Lines
 62
7
100
AcDbLine
 10
47.690501
 20
18.255142
 30
0.0
 11
46.868320
 21
17.024786
 31
0.0
  0
LINE
  5
2da
100
AcDbEntity
  8
Lines
 62
7
100
AcDbLine
 10
46.868320
 20
17.024786
 30
0.0
 11
44.678882
 21
14.017669
 31
0.0
  0
LINE
  5
2db
100
AcDbEntity
  8
Lines
 62
7
100
AcDbLine
 10
44.678882
 20
14.017669
 30
0.0
 11
41.514514
 21
9.863668
 31
0.0
  0
LINE
  5
2dc
100
AcDbEntity
  8
Lines
 62
7
100
AcDbLine
 10
41.514514
 20
9.863668
 30
0.0
 11
40.459242
 21
10.965351
 31
0.0
  0
LINE
  5
2dd
100
AcDbEntity
  8
Lines
 62
7
100
AcDbLine
 10
40.459242
 20
10.965351
 30
0.0
 11
38.108422
 21
13.756331
 31
0.0
  0
LINE
  5
2de
100
AcDbEntity
  8
Lines
 62
7
100
AcDbLine
 10
38.108422
 20
13.756331
 30
0.0
 11
35.603536
 21
16.798162
 31
0.0
  0
LINE
  5
2df
100
AcDbEntity
  8
Lines
 62
7
100
AcDbLine
 10
35.603536
 20
16.798162
 30
0.0
 11
34.587378
 21
17.851660
 31
0.0
  0
LINE
  5
2e0
100
AcDbEntity
  8
Lines
 62
7
100
AcDbLine
 10
34.587378
 20
17.851660
 30
0.0
 11
34.399917
 21
18.023136
 31
0.0
  0
LINE
  5
2e1
100
AcDbEntity
  8
Lines
 62
7
100
AcDbLine
 10
34.399917
 20
18.023136
 30
0.0
 11
34.305517
 21
18.299375
 31
0.0
  0
LINE
  5
2e2
100
AcDbEntity
  8
Lines
 62
7
100
AcDbLine
 10
34.305517
 20
18.299375
 30
0.0
 11
34.181429
 21
18.896918
 31
0.0
  0
LINE
  5
2e3
100
AcDbEntity
  8
Lines
 62
7
100
AcDbLine
 10
34.181429
 20
18.896918
 30
0.0
 11
33.941010
 21
19.232145
 31
0.0
  0
LINE
  5
2e4
100
AcDbEntity
  8
Lines
 62
7
100
AcDbLine
 10
33.941010
 20
19.232145
 30
0.0
 11
33.555601
 21
19.454561
 31
0.0
  0
LINE
  5
2e5
100
AcDbEntity
  8
Lines
 62
7
100
AcDbLine
 10
33.555601
 20
19.454561
 30
0.0
 11
32.351644
 21
19.560310
 31
0.0
  0
LINE
  5
2e6
100
AcDbEntity
  8
Lines
 62
7
100
AcDbLine
 10
32.351644
 20
19.560310
 30
0.0
 11
31.787282
 21
19.447438
 31
0.0
  0
LINE
  5
2e7
100
AcDbEntity
  8
Lines
 62
7
100
AcDbLine
 10
31.787282
 20
19.447438
 30
0.0
 11
31.380396
 21
19.214480
 31
0.0
  0
LINE
  5
2e8
100
AcDbEntity
  8
Lines
 62
7
100
AcDbLine
 10
31.380396
 20
19.214480
 30
0.0
 11
31.134030
 21
18.864161
 31
0.0
  0
LINE
  5
2e9
100
AcDbEntity
  8
Lines
 62
7
100
AcDbLine
 10
31.134030
 20
18.864161
 30
0.0
 11
31.051232
 21
18.399197
 31
0.0
  0
LINE
  5
2ea
100
AcDbEntity
  8
Lines
 62
7
100
AcDbLine
 10
31.051232
 20
18.399197
 30
0.0
 11
30.996066
 21
18.048694
 31
0.0
  0
LINE
  5
2eb
100
AcDbEntity
  8
Lines
 62
7
100
AcDbLine
 10
30.996066
 20
18.048694
 30
0.0
 11
30.817865
 21
17.878689
 31
0.0
  0
LINE
  5
2ec
100
AcDbEntity
  8
Lines
 62
7
100
AcDbLine
 10
30.817865
 20
17.878689
 30
0.0
 11
30.055388
 21
17.173811
 31
0.0
  0
LINE
  5
2ed
100
AcDbEntity
  8
Lines
 62
7
100
AcDbLine
 10
30.055388
 20
17.173811
 30
0.0
 11
26.794006
 21
13.259930
 31
0.0
  0
LINE
  5
2ee
100
AcDbEntity
  8
Lines
 62
7
100
AcDbLine
 10
26.794006
 20
13.259930
 30
0.0
 11
23.570955
 21
9.598972
 31
0.0
  0
LINE
  5
2ef
100
AcDbEntity
  8
Lines
 62
7
100
AcDbLine
 10
23.570955
 20
9.598972
 30
0.0
 11
22.949972
 21
10.747870
 31
0.0
  0
LINE
  5
2f0
100
AcDbEntity
  8
Lines
 62
7
100
AcDbLine
 10
22.949972
 20
10.747870
 30
0.0
 11
21.354260
 21
13.636894
 31
0.0
  0
LINE
  5
2f1
100
AcDbEntity
  8
Lines
 62
7
100
AcDbLine
 10
21.354260
 20
13.636894
 30
0.0
 11
20.340743
 21
15.151155
 31
0.0
  0
LINE
  5
2f2
100
AcDbEntity
  8
Lines
 62
7
100
AcDbLine
 10
20.340743
 20
15.151155
 30
0.0
 11
19.424737
 21
16.338729
 31
0.0
  0
LINE
  5
2f3
100
AcDbEntity
  8
Lines
 62
7
100
AcDbLine
 10
19.424737
 20
16.338729
 30
0.0
 11
18.421195
 21
17.501273
 31
0.0
  0
LINE
  5
2f4
100
AcDbEntity
  8
Lines
 62
7
100
AcDbLine
 10
18.421195
 20
17.501273
 30
0.0
 11
18.400412
 21
17.482533
 31
0.0
  0
LINE
  5
2f5
100
AcDbEntity
  8
Lines
 62
7
100
AcDbLine
 10
18.400412
 20
17.482533
 30
0.0
 11
18.583879
 21
17.111581
 31
0.0
  0
LINE
  5
2f6
100
AcDbEntity
  8
Lines
 62
7
100
AcDbLine
 10
18.583879
 20
17.111581
 30
0.0
 11
19.445804
 21
15.492071
 31
0.0
  0
LINE
  5
2f7
100
AcDbEntity
  8
Lines
 62
7
100
AcDbLine
 10
19.445804
 20
15.492071
 30
0.0
 11
22.325323
 21
9.995776
 31
0.0
  0
LINE
  5
2f8
100
AcDbEntity
  8
Lines
 62
7
100
AcDbLine
 10
22.325323
 20
9.995776
 30
0.0
 11
23.655755
 21
8.381211
 31
0.0
  0
LINE
  5
2f9
100
AcDbEntity
  8
Lines
 62
7
100
AcDbLine
 10
23.655755
 20
8.381211
 30
0.0
 11
23.704303
 21
8.408304
 31
0.0
  0
LINE
  5
2fa
100
AcDbEntity
  8
Lines
 62
7
100
AcDbLine
 10
23.704303
 20
8.408304
 30
0.0
 11
24.172202
 21
8.824949
 31
0.0
  0
LINE
  5
2fb
100
AcDbEntity
  8
Lines
 62
7
100
AcDbLine
 10
24.172202
 20
8.824949
 30
0.0
 11
29.660088
 21
15.659544
 31
0.0
  0
LINE
  5
2fc
100
AcDbEntity
  8
Lines
 62
7
100
AcDbLine
 10
29.660088
 20
15.659544
 30
0.0
 11
31.952503
 21
18.352712
 31
0.0
  0
LINE
  5
2fd
100
AcDbEntity
  8
Lines
 62
7
100
AcDbLine
 10
31.952503
 20
18.352712
 30
0.0
 11
33.251527
 21
18.328385
 31
0.0
  0
LINE
  5
2fe
100
AcDbEntity
  8
Lines
 62
7
100
AcDbLine
 10
33.251527
 20
18.328385
 30
0.0
 11
37.090536
 21
13.793612
 31
0.0
  0
LINE
  5
2ff
100
AcDbEntity
  8
Lines
 62
7
100
AcDbLine
 10
37.090536
 20
13.793612
 30
0.0
 11
39.022570
 21
11.298683
 31
0.0
  0
LINE
  5
300
100
AcDbEntity
  8
Lines
 62
7
100
AcDbLine
 10
39.022570
 20
11.298683
 30
0.0
 11
40.813183
 21
8.737037
 31
0.0
  0
LINE
  5
301
100
AcDbEntity
  8
Lines
 62
7
100
AcDbLine
 10
40.813183
 20
8.737037
 30
0.0
 11
41.240352
 21
8.478267
 31
0.0
  0
LINE
  5
302
100
AcDbEntity
  8
Lines
 62
7
100
AcDbLine
 10
41.240352
 20
8.478267
 30
0.0
 11
41.325583
 21
8.414626
 31
0.0
  0
LINE
  5
303
100
AcDbEntity
  8
Lines
 62
7
100
AcDbLine
 10
8.504680
 20
13.197898
 30
0.0
 11
10.438409
 21
18.771694
 31
0.0
  0
LINE
  5
304
100
AcDbEntity
  8
Lines
 62
7
100
AcDbLine
 10
10.438409
 20
18.771694
 30
0.0
 11
12.200487
 21
23.290938
 31
0.0
  0
LINE
  5
305
100
AcDbEntity
  8
Lines
 62
7
100
AcDbLine
 10
12.200487
 20
23.290938
 30
0.0
 11
13.849007
 21
26.982568
 31
0.0
  0
LINE
  5
306
100
AcDbEntity
  8
Lines
 62
7
100
AcDbLine
 10
13.849007
 20
26.982568
 30
0.0
 11
15.329595
 21
29.802087
 31
0.0
  0
LINE
  5
307
100
AcDbEntity
  8
Lines
 62
7
100
AcDbLine
 10
15.329595
 20
29.802087
 30
0.0
 11
15.920125
 21
30.693150
 31
0.0
  0
LINE
  5
308
100
AcDbEntity
  8
Lines
 62
7
100
AcDbLine
 10
15.920125
 20
30.693150
 30
0.0
 11
16.614375
 21
31.471674
 31
0.0
  0
LINE
  5
309
100
AcDbEntity
  8
Lines
 62
7
100
AcDbLine
 10
16.614375
 20
31.471674
 30
0.0
 11
17.426894
 21
32.183396
 31
0.0
  0
LINE
  5
30a
100
AcDbEntity
  8
Lines
 62
7
100
AcDbLine
 10
17.426894
 20
32.183396
 30
0.0
 11
18.126455
 21
32.576117
 31
0.0
  0
LINE
  5
30b
100
AcDbEntity
  8
Lines
 62
7
100
AcDbLine
 10
18.126455
 20
32.576117
 30
0.0
 11
18.885370
 21
32.758181
 31
0.0
  0
LINE
  5
30c
100
AcDbEntity
  8
Lines
 62
7
100
AcDbLine
 10
18.885370
 20
32.758181
 30
0.0
 11
19.875953
 21
32.837934
 31
0.0
  0
LINE
  5
30d
100
AcDbEntity
  8
Lines
 62
7
100
AcDbLine
 10
19.875953
 20
32.837934
 30
0.0
 11
21.109919
 21
32.927396
 31
0.0
  0
LINE
  5
30e
100
AcDbEntity
  8
Lines
 62
7
100
AcDbLine
 10
21.109919
 20
32.927396
 30
0.0
 11
21.439563
 21
33.343547
 31
0.0
  0
LINE
  5
30f
100
AcDbEntity
  8
Lines
 62
7
100
AcDbLine
 10
21.439563
 20
33.343547
 30
0.0
 11
20.297711
 21
33.406293
 31
0.0
  0
LINE
  5
310
100
AcDbEntity
  8
Lines
 62
7
100
AcDbLine
 10
20.297711
 20
33.406293
 30
0.0
 11
19.277081
 21
33.371041
 31
0.0
  0
LINE
  5
311
100
AcDbEntity
  8
Lines
 62
7
100
AcDbLine
 10
19.277081
 20
33.371041
 30
0.0
 11
18.472987
 21
33.232165
 31
0.0
  0
LINE
  5
312
100
AcDbEntity
  8
Lines
 62
7
100
AcDbLine
 10
18.472987
 20
33.232165
 30
0.0
 11
17.756546
 21
32.954340
 31
0.0
  0
LINE
  5
313
100
AcDbEntity
  8
Lines
 62
7
100
AcDbLine
 10
17.756546
 20
32.954340
 30
0.0
 11
16.998872
 21
32.502245
 31
0.0
  0
LINE
  5
314
100
AcDbEntity
  8
Lines
 62
7
100
AcDbLine
 10
16.998872
 20
32.502245
 30
0.0
 11
16.107716
 21
31.712186
 31
0.0
  0
LINE
  5
315
100
AcDbEntity
  8
Lines
 62
7
100
AcDbLine
 10
16.107716
 20
31.712186
 30
0.0
 11
15.157096
 21
30.491042
 31
0.0
  0
LINE
  5
316
100
AcDbEntity
  8
Lines
 62
7
100
AcDbLine
 10
15.157096
 20
30.491042
 30
0.0
 11
14.139739
 21
28.823608
 31
0.0
  0
LINE
  5
317
100
AcDbEntity
  8
Lines
 62
7
100
AcDbLine
 10
14.139739
 20
28.823608
 30
0.0
 11
13.048377
 21
26.694682
 31
0.0
  0
LINE
  5
318
100
AcDbEntity
  8
Lines
 62
7
100
AcDbLine
 10
13.048377
 20
26.694682
 30
0.0
 11
10.614551
 21
20.991532
 31
0.0
  0
LINE
  5
319
100
AcDbEntity
  8
Lines
 62
7
100
AcDbLine
 10
10.614551
 20
20.991532
 30
0.0
 11
7.797454
 21
13.259958
 31
0.0
  0
LINE
  5
31a
100
AcDbEntity
  8
Lines
 62
7
100
AcDbLine
 10
7.797454
 20
13.259958
 30
0.0
 11
7.683944
 21
12.944265
 31
0.0
  0
LINE
  5
31b
100
AcDbEntity
  8
Lines
 62
7
100
AcDbLine
 10
7.683944
 20
12.944265
 30
0.0
 11
8.504680
 21
13.197898
 31
0.0
  0
ENDSEC
  0
SECTION
  2
OBJECTS
  0
DICTIONARY
  5
C
330
0
100
AcDbDictionary
  3
ACAD_GROUP
350
D
  3
ACAD_MLINESTYLE
350
17
  0
DICTIONARY
  5
D
330
C
100
AcDbDictionary
  0
DICTIONARY
  5
1A
330
C
100
AcDbDictionary
  0
DICTIONARY
  5
17
330
C
100
AcDbDictionary
  3
STANDARD
350
18
  0
DICTIONARY
  5
19
330
C
100
AcDbDictionary
  0
ENDSEC
  0
EOF
