solid ascii
  facet normal -1.000000e+000 0.000000e+000 0.000000e+000
    outer loop
      vertex   -7.499999e+000 3.205000e+001 -1.880000e+001
      vertex   -7.499999e+000 4.430000e+001 -2.480000e+001
      vertex   -7.499999e+000 1.980000e+001 -2.480000e+001
    endloop
  endfacet
  facet normal 0.000000e+000 1.000000e+000 0.000000e+000
    outer loop
      vertex   2.210000e+001 4.430000e+001 -1.880000e+001
      vertex   5.170000e+001 4.430000e+001 -1.280000e+001
      vertex   5.170000e+001 4.430000e+001 -2.480000e+001
    endloop
  endfacet
  facet normal 0.000000e+000 1.000000e+000 0.000000e+000
    outer loop
      vertex   2.210000e+001 4.430000e+001 -1.880000e+001
      vertex   5.170000e+001 4.430000e+001 -2.480000e+001
      vertex   -7.499999e+000 4.430000e+001 -2.480000e+001
    endloop
  endfacet
  facet normal 0.000000e+000 1.000000e+000 0.000000e+000
    outer loop
      vertex   2.210000e+001 4.430000e+001 -1.880000e+001
      vertex   -7.499999e+000 4.430000e+001 -2.480000e+001
      vertex   -7.499999e+000 4.430000e+001 -1.280000e+001
    endloop
  endfacet
  facet normal 0.000000e+000 0.000000e+000 -1.000000e+000
    outer loop
      vertex   -3.499999e+000 4.030000e+001 -2.480000e+001
      vertex   -3.499999e+000 1.980000e+001 -2.480000e+001
      vertex   -7.499999e+000 1.980000e+001 -2.480000e+001
    endloop
  endfacet
  facet normal 1.000000e+000 0.000000e+000 0.000000e+000
    outer loop
      vertex   -3.499999e+000 3.005000e+001 -1.880000e+001
      vertex   -3.499999e+000 1.980000e+001 -1.280000e+001
      vertex   -3.499999e+000 1.980000e+001 -2.480000e+001
    endloop
  endfacet
  facet normal 1.000000e+000 0.000000e+000 0.000000e+000
    outer loop
      vertex   -3.499999e+000 3.005000e+001 -1.880000e+001
      vertex   -3.499999e+000 1.980000e+001 -2.480000e+001
      vertex   -3.499999e+000 4.030000e+001 -2.480000e+001
    endloop
  endfacet
  facet normal 1.000000e+000 0.000000e+000 -0.000000e+000
    outer loop
      vertex   -3.499999e+000 3.005000e+001 -1.880000e+001
      vertex   -3.499999e+000 4.030000e+001 -2.480000e+001
      vertex   -3.499999e+000 4.030000e+001 -1.280000e+001
    endloop
  endfacet
  facet normal -1.000000e+000 0.000000e+000 -0.000000e+000
    outer loop
      vertex   -7.499999e+000 3.205000e+001 -1.880000e+001
      vertex   -7.499999e+000 4.430000e+001 -1.280000e+001
      vertex   -7.499999e+000 4.430000e+001 -2.480000e+001
    endloop
  endfacet
  facet normal -1.000000e+000 0.000000e+000 -0.000000e+000
    outer loop
      vertex   4.770000e+001 3.005000e+001 -1.880000e+001
      vertex   4.770000e+001 4.030000e+001 -1.280000e+001
      vertex   4.770000e+001 4.030000e+001 -2.480000e+001
    endloop
  endfacet
  facet normal -1.000000e+000 0.000000e+000 0.000000e+000
    outer loop
      vertex   4.770000e+001 3.005000e+001 -1.880000e+001
      vertex   4.770000e+001 4.030000e+001 -2.480000e+001
      vertex   4.770000e+001 1.980000e+001 -2.480000e+001
    endloop
  endfacet
  facet normal -1.000000e+000 0.000000e+000 0.000000e+000
    outer loop
      vertex   4.770000e+001 3.005000e+001 -1.880000e+001
      vertex   4.770000e+001 1.980000e+001 -2.480000e+001
      vertex   4.770000e+001 1.980000e+001 -1.280000e+001
    endloop
  endfacet
  facet normal -1.000000e+000 0.000000e+000 0.000000e+000
    outer loop
      vertex   -7.499999e+000 3.205000e+001 -1.880000e+001
      vertex   -7.499999e+000 1.980000e+001 -2.480000e+001
      vertex   -7.499999e+000 1.980000e+001 -1.280000e+001
    endloop
  endfacet
  facet normal 1.000000e+000 0.000000e+000 0.000000e+000
    outer loop
      vertex   5.170000e+001 3.205000e+001 -1.880000e+001
      vertex   5.170000e+001 1.980000e+001 -1.280000e+001
      vertex   5.170000e+001 1.980000e+001 -2.480000e+001
    endloop
  endfacet
  facet normal 1.000000e+000 0.000000e+000 0.000000e+000
    outer loop
      vertex   5.170000e+001 3.205000e+001 -1.880000e+001
      vertex   5.170000e+001 1.980000e+001 -2.480000e+001
      vertex   5.170000e+001 4.430000e+001 -2.480000e+001
    endloop
  endfacet
  facet normal 1.000000e+000 0.000000e+000 -0.000000e+000
    outer loop
      vertex   5.170000e+001 3.205000e+001 -1.880000e+001
      vertex   5.170000e+001 4.430000e+001 -2.480000e+001
      vertex   5.170000e+001 4.430000e+001 -1.280000e+001
    endloop
  endfacet
  facet normal 0.000000e+000 -1.000000e+000 0.000000e+000
    outer loop
      vertex   2.210000e+001 4.030000e+001 -1.880000e+001
      vertex   -3.499999e+000 4.030000e+001 -1.280000e+001
      vertex   -3.499999e+000 4.030000e+001 -2.480000e+001
    endloop
  endfacet
  facet normal 0.000000e+000 -1.000000e+000 0.000000e+000
    outer loop
      vertex   -5.499999e+000 1.980000e+001 -1.880000e+001
      vertex   -7.499999e+000 1.980000e+001 -1.280000e+001
      vertex   -7.499999e+000 1.980000e+001 -2.480000e+001
    endloop
  endfacet
  facet normal 0.000000e+000 -1.000000e+000 0.000000e+000
    outer loop
      vertex   -5.499999e+000 1.980000e+001 -1.880000e+001
      vertex   -7.499999e+000 1.980000e+001 -2.480000e+001
      vertex   -3.499999e+000 1.980000e+001 -2.480000e+001
    endloop
  endfacet
  facet normal 0.000000e+000 -1.000000e+000 0.000000e+000
    outer loop
      vertex   -5.499999e+000 1.980000e+001 -1.880000e+001
      vertex   -3.499999e+000 1.980000e+001 -2.480000e+001
      vertex   -3.499999e+000 1.980000e+001 -1.280000e+001
    endloop
  endfacet
  facet normal -0.000000e+000 0.000000e+000 -1.000000e+000
    outer loop
      vertex   -7.499999e+000 4.430000e+001 -2.480000e+001
      vertex   -3.499999e+000 4.030000e+001 -2.480000e+001
      vertex   -7.499999e+000 1.980000e+001 -2.480000e+001
    endloop
  endfacet
  facet normal 0.000000e+000 0.000000e+000 -1.000000e+000
    outer loop
      vertex   4.770000e+001 4.030000e+001 -2.480000e+001
      vertex   -3.499999e+000 4.030000e+001 -2.480000e+001
      vertex   -7.499999e+000 4.430000e+001 -2.480000e+001
    endloop
  endfacet
  facet normal 0.000000e+000 -1.000000e+000 0.000000e+000
    outer loop
      vertex   2.210000e+001 4.030000e+001 -1.880000e+001
      vertex   4.770000e+001 4.030000e+001 -2.480000e+001
      vertex   4.770000e+001 4.030000e+001 -1.280000e+001
    endloop
  endfacet
  facet normal 0.000000e+000 0.000000e+000 -1.000000e+000
    outer loop
      vertex   4.770000e+001 4.030000e+001 -2.480000e+001
      vertex   5.170000e+001 1.980000e+001 -2.480000e+001
      vertex   4.770000e+001 1.980000e+001 -2.480000e+001
    endloop
  endfacet
  facet normal 0.000000e+000 -1.000000e+000 0.000000e+000
    outer loop
      vertex   4.970000e+001 1.980000e+001 -1.880000e+001
      vertex   5.170000e+001 1.980000e+001 -2.480000e+001
      vertex   5.170000e+001 1.980000e+001 -1.280000e+001
    endloop
  endfacet
  facet normal 0.000000e+000 -1.000000e+000 0.000000e+000
    outer loop
      vertex   2.210000e+001 4.030000e+001 -1.880000e+001
      vertex   -3.499999e+000 4.030000e+001 -2.480000e+001
      vertex   4.770000e+001 4.030000e+001 -2.480000e+001
    endloop
  endfacet
  facet normal 0.000000e+000 0.000000e+000 -1.000000e+000
    outer loop
      vertex   5.170000e+001 4.430000e+001 -2.480000e+001
      vertex   5.170000e+001 1.980000e+001 -2.480000e+001
      vertex   4.770000e+001 4.030000e+001 -2.480000e+001
    endloop
  endfacet
  facet normal 0.000000e+000 -1.000000e+000 0.000000e+000
    outer loop
      vertex   4.970000e+001 1.980000e+001 -1.880000e+001
      vertex   4.770000e+001 1.980000e+001 -2.480000e+001
      vertex   5.170000e+001 1.980000e+001 -2.480000e+001
    endloop
  endfacet
  facet normal 0.000000e+000 -1.000000e+000 0.000000e+000
    outer loop
      vertex   4.970000e+001 1.980000e+001 -1.880000e+001
      vertex   4.770000e+001 1.980000e+001 -1.280000e+001
      vertex   4.770000e+001 1.980000e+001 -2.480000e+001
    endloop
  endfacet
  facet normal 0.000000e+000 0.000000e+000 -1.000000e+000
    outer loop
      vertex   5.170000e+001 4.430000e+001 -2.480000e+001
      vertex   4.770000e+001 4.030000e+001 -2.480000e+001
      vertex   -7.499999e+000 4.430000e+001 -2.480000e+001
    endloop
  endfacet
  facet normal 1.000000e+000 0.000000e+000 0.000000e+000
    outer loop
      vertex   -3.499999e+000 3.005000e+001 -1.880000e+001
      vertex   -3.499999e+000 4.030000e+001 -1.280000e+001
      vertex   -3.499999e+000 1.980000e+001 -1.280000e+001
    endloop
  endfacet
  facet normal -0.000000e+000 -1.000000e+000 0.000000e+000
    outer loop
      vertex   -5.499999e+000 1.980000e+001 -1.880000e+001
      vertex   -3.499999e+000 1.980000e+001 -1.280000e+001
      vertex   -7.499999e+000 1.980000e+001 -1.280000e+001
    endloop
  endfacet
  facet normal 1.000000e+000 0.000000e+000 0.000000e+000
    outer loop
      vertex   5.170000e+001 3.205000e+001 -1.880000e+001
      vertex   5.170000e+001 4.430000e+001 -1.280000e+001
      vertex   5.170000e+001 1.980000e+001 -1.280000e+001
    endloop
  endfacet
  facet normal -1.000000e+000 0.000000e+000 0.000000e+000
    outer loop
      vertex   4.770000e+001 3.005000e+001 -1.880000e+001
      vertex   4.770000e+001 1.980000e+001 -1.280000e+001
      vertex   4.770000e+001 4.030000e+001 -1.280000e+001
    endloop
  endfacet
  facet normal -0.000000e+000 -1.000000e+000 0.000000e+000
    outer loop
      vertex   4.970000e+001 1.980000e+001 -1.880000e+001
      vertex   5.170000e+001 1.980000e+001 -1.280000e+001
      vertex   4.770000e+001 1.980000e+001 -1.280000e+001
    endloop
  endfacet
  facet normal -0.000000e+000 1.000000e+000 0.000000e+000
    outer loop
      vertex   2.210000e+001 4.430000e+001 -1.880000e+001
      vertex   -7.499999e+000 4.430000e+001 -1.280000e+001
      vertex   5.170000e+001 4.430000e+001 -1.280000e+001
    endloop
  endfacet
  facet normal -1.000000e+000 0.000000e+000 0.000000e+000
    outer loop
      vertex   -7.499999e+000 3.205000e+001 -1.880000e+001
      vertex   -7.499999e+000 1.980000e+001 -1.280000e+001
      vertex   -7.499999e+000 4.430000e+001 -1.280000e+001
    endloop
  endfacet
  facet normal -0.000000e+000 -1.000000e+000 0.000000e+000
    outer loop
      vertex   2.210000e+001 4.030000e+001 -1.880000e+001
      vertex   4.770000e+001 4.030000e+001 -1.280000e+001
      vertex   -3.499999e+000 4.030000e+001 -1.280000e+001
    endloop
  endfacet
  facet normal -0.000000e+000 0.000000e+000 1.000000e+000
    outer loop
      vertex   5.170000e+001 4.430000e+001 -1.280000e+001
      vertex   -7.499999e+000 4.430000e+001 -1.280000e+001
      vertex   4.770000e+001 4.030000e+001 -1.280000e+001
    endloop
  endfacet
  facet normal 0.000000e+000 0.000000e+000 1.000000e+000
    outer loop
      vertex   4.770000e+001 4.030000e+001 -1.280000e+001
      vertex   -7.499999e+000 4.430000e+001 -1.280000e+001
      vertex   -3.499999e+000 4.030000e+001 -1.280000e+001
    endloop
  endfacet
  facet normal 0.000000e+000 0.000000e+000 1.000000e+000
    outer loop
      vertex   4.770000e+001 4.030000e+001 -1.280000e+001
      vertex   4.770000e+001 1.980000e+001 -1.280000e+001
      vertex   5.170000e+001 1.980000e+001 -1.280000e+001
    endloop
  endfacet
  facet normal 0.000000e+000 0.000000e+000 1.000000e+000
    outer loop
      vertex   -7.499999e+000 4.430000e+001 -1.280000e+001
      vertex   -7.499999e+000 1.980000e+001 -1.280000e+001
      vertex   -3.499999e+000 4.030000e+001 -1.280000e+001
    endloop
  endfacet
  facet normal 0.000000e+000 0.000000e+000 1.000000e+000
    outer loop
      vertex   -3.499999e+000 4.030000e+001 -1.280000e+001
      vertex   -7.499999e+000 1.980000e+001 -1.280000e+001
      vertex   -3.499999e+000 1.980000e+001 -1.280000e+001
    endloop
  endfacet
  facet normal -0.000000e+000 0.000000e+000 1.000000e+000
    outer loop
      vertex   5.170000e+001 4.430000e+001 -1.280000e+001
      vertex   4.770000e+001 4.030000e+001 -1.280000e+001
      vertex   5.170000e+001 1.980000e+001 -1.280000e+001
    endloop
  endfacet
endsolid
