solid ascii
  facet normal 8.314672e-001 -5.555738e-001 0.000000e+000
    outer loop
      vertex   4.095352e+001 9.333469e+001 3.750000e+000
      vertex   4.062836e+001 9.284805e+001 7.500000e+000
      vertex   4.062836e+001 9.284805e+001 0.000000e+000
    endloop
  endfacet
  facet normal 9.888312e-001 1.490402e-001 0.000000e+000
    outer loop
      vertex   5.260452e+001 9.429692e+001 3.750000e+000
      vertex   5.280000e+001 9.300000e+001 7.500000e+000
      vertex   5.280000e+001 9.300000e+001 0.000000e+000
    endloop
  endfacet
  facet normal 9.888310e-001 1.490412e-001 -3.514424e-007
    outer loop
      vertex   5.260452e+001 9.429692e+001 3.750000e+000
      vertex   5.280000e+001 9.300000e+001 0.000000e+000
      vertex   5.240904e+001 9.559385e+001 0.000000e+000
    endloop
  endfacet
  facet normal 9.888309e-001 1.490421e-001 -0.000000e+000
    outer loop
      vertex   5.260452e+001 9.429692e+001 3.750000e+000
      vertex   5.240904e+001 9.559385e+001 0.000000e+000
      vertex   5.240904e+001 9.559385e+001 7.500000e+000
    endloop
  endfacet
  facet normal 9.807865e-001 -1.950845e-001 0.000000e+000
    outer loop
      vertex   4.051418e+001 9.227402e+001 3.750000e+000
      vertex   4.062836e+001 9.284805e+001 0.000000e+000
      vertex   4.062836e+001 9.284805e+001 7.500000e+000
    endloop
  endfacet
  facet normal 9.009681e-001 4.338852e-001 0.000000e+000
    outer loop
      vertex   5.183997e+001 9.677553e+001 3.750000e+000
      vertex   5.240904e+001 9.559385e+001 7.500000e+000
      vertex   5.240904e+001 9.559385e+001 0.000000e+000
    endloop
  endfacet
  facet normal 9.009682e-001 4.338853e-001 -1.211874e-008
    outer loop
      vertex   5.183997e+001 9.677553e+001 3.750000e+000
      vertex   5.240904e+001 9.559385e+001 0.000000e+000
      vertex   5.127090e+001 9.795721e+001 0.000000e+000
    endloop
  endfacet
  facet normal 9.009681e-001 4.338853e-001 -0.000000e+000
    outer loop
      vertex   5.183997e+001 9.677553e+001 3.750000e+000
      vertex   5.127090e+001 9.795721e+001 0.000000e+000
      vertex   5.127090e+001 9.795721e+001 7.500000e+000
    endloop
  endfacet
  facet normal 9.807852e-001 -1.950907e-001 0.000000e+000
    outer loop
      vertex   4.051418e+001 9.227402e+001 3.750000e+000
      vertex   4.040000e+001 9.170000e+001 7.500000e+000
      vertex   4.040000e+001 9.170000e+001 0.000000e+000
    endloop
  endfacet
  facet normal 7.330547e-001 6.801698e-001 0.000000e+000
    outer loop
      vertex   5.037881e+001 9.891867e+001 3.750000e+000
      vertex   5.127090e+001 9.795721e+001 7.500000e+000
      vertex   5.127090e+001 9.795721e+001 0.000000e+000
    endloop
  endfacet
  facet normal 7.330526e-001 6.801719e-001 -1.066446e-006
    outer loop
      vertex   5.037881e+001 9.891867e+001 3.750000e+000
      vertex   5.127090e+001 9.795721e+001 0.000000e+000
      vertex   4.948671e+001 9.988012e+001 0.000000e+000
    endloop
  endfacet
  facet normal 7.330505e-001 6.801742e-001 -0.000000e+000
    outer loop
      vertex   5.037881e+001 9.891867e+001 3.750000e+000
      vertex   4.948671e+001 9.988012e+001 0.000000e+000
      vertex   4.948671e+001 9.988012e+001 7.500000e+000
    endloop
  endfacet
  facet normal 9.807847e-001 1.950932e-001 -0.000000e+000
    outer loop
      vertex   4.051418e+001 9.112598e+001 3.750000e+000
      vertex   4.040000e+001 9.170000e+001 0.000000e+000
      vertex   4.040000e+001 9.170000e+001 7.500000e+000
    endloop
  endfacet
  facet normal 4.999985e-001 8.660262e-001 0.000000e+000
    outer loop
      vertex   4.835085e+001 1.005359e+002 3.750000e+000
      vertex   4.948671e+001 9.988012e+001 7.500000e+000
      vertex   4.948671e+001 9.988012e+001 0.000000e+000
    endloop
  endfacet
  facet normal 4.999992e-001 8.660259e-001 2.544932e-007
    outer loop
      vertex   4.835085e+001 1.005359e+002 3.750000e+000
      vertex   4.948671e+001 9.988012e+001 0.000000e+000
      vertex   4.721500e+001 1.011917e+002 0.000000e+000
    endloop
  endfacet
  facet normal 4.999998e-001 8.660255e-001 -0.000000e+000
    outer loop
      vertex   4.835085e+001 1.005359e+002 3.750000e+000
      vertex   4.721500e+001 1.011917e+002 0.000000e+000
      vertex   4.721500e+001 1.011917e+002 7.500000e+000
    endloop
  endfacet
  facet normal 9.807865e-001 1.950845e-001 0.000000e+000
    outer loop
      vertex   4.051418e+001 9.112598e+001 3.750000e+000
      vertex   4.062836e+001 9.055195e+001 7.500000e+000
      vertex   4.062836e+001 9.055195e+001 0.000000e+000
    endloop
  endfacet
  facet normal 2.225170e-001 9.749288e-001 0.000000e+000
    outer loop
      vertex   4.593631e+001 1.014835e+002 3.750000e+000
      vertex   4.721500e+001 1.011917e+002 7.500000e+000
      vertex   4.721500e+001 1.011917e+002 0.000000e+000
    endloop
  endfacet
  facet normal 2.225200e-001 9.749281e-001 1.102803e-006
    outer loop
      vertex   4.593631e+001 1.014835e+002 3.750000e+000
      vertex   4.721500e+001 1.011917e+002 0.000000e+000
      vertex   4.465762e+001 1.017754e+002 0.000000e+000
    endloop
  endfacet
  facet normal 2.225231e-001 9.749274e-001 -0.000000e+000
    outer loop
      vertex   4.593631e+001 1.014835e+002 3.750000e+000
      vertex   4.465762e+001 1.017754e+002 0.000000e+000
      vertex   4.465762e+001 1.017754e+002 7.500000e+000
    endloop
  endfacet
  facet normal 8.314672e-001 5.555738e-001 -0.000000e+000
    outer loop
      vertex   4.095352e+001 9.006532e+001 3.750000e+000
      vertex   4.062836e+001 9.055195e+001 0.000000e+000
      vertex   4.062836e+001 9.055195e+001 7.500000e+000
    endloop
  endfacet
  facet normal -7.472509e-002 9.972042e-001 0.000000e+000
    outer loop
      vertex   4.334972e+001 1.016774e+002 3.750000e+000
      vertex   4.465762e+001 1.017754e+002 7.500000e+000
      vertex   4.465762e+001 1.017754e+002 0.000000e+000
    endloop
  endfacet
  facet normal -7.472798e-002 9.972039e-001 -1.014944e-006
    outer loop
      vertex   4.334972e+001 1.016774e+002 3.750000e+000
      vertex   4.465762e+001 1.017754e+002 0.000000e+000
      vertex   4.204182e+001 1.015794e+002 0.000000e+000
    endloop
  endfacet
  facet normal -7.473088e-002 9.972038e-001 0.000000e+000
    outer loop
      vertex   4.334972e+001 1.016774e+002 3.750000e+000
      vertex   4.204182e+001 1.015794e+002 0.000000e+000
      vertex   4.204182e+001 1.015794e+002 7.500000e+000
    endloop
  endfacet
  facet normal 8.314703e-001 5.555693e-001 0.000000e+000
    outer loop
      vertex   4.095352e+001 9.006532e+001 3.750000e+000
      vertex   4.127868e+001 8.957868e+001 7.500000e+000
      vertex   4.127868e+001 8.957868e+001 0.000000e+000
    endloop
  endfacet
  facet normal -3.653412e-001 9.308738e-001 0.000000e+000
    outer loop
      vertex   4.082091e+001 1.011002e+002 3.750000e+000
      vertex   4.204182e+001 1.015794e+002 7.500000e+000
      vertex   4.204182e+001 1.015794e+002 0.000000e+000
    endloop
  endfacet
  facet normal -3.653412e-001 9.308738e-001 0.000000e+000
    outer loop
      vertex   4.082091e+001 1.011002e+002 3.750000e+000
      vertex   4.204182e+001 1.015794e+002 0.000000e+000
      vertex   3.960000e+001 1.006210e+002 0.000000e+000
    endloop
  endfacet
  facet normal -3.653412e-001 9.308738e-001 0.000000e+000
    outer loop
      vertex   4.082091e+001 1.011002e+002 3.750000e+000
      vertex   3.960000e+001 1.006210e+002 0.000000e+000
      vertex   3.960000e+001 1.006210e+002 7.500000e+000
    endloop
  endfacet
  facet normal 5.555693e-001 8.314703e-001 -0.000000e+000
    outer loop
      vertex   4.176531e+001 8.925352e+001 3.750000e+000
      vertex   4.127868e+001 8.957868e+001 0.000000e+000
      vertex   4.127868e+001 8.957868e+001 7.500000e+000
    endloop
  endfacet
  facet normal -6.234919e-001 7.818298e-001 0.000000e+000
    outer loop
      vertex   3.857457e+001 9.980327e+001 3.750000e+000
      vertex   3.960000e+001 1.006210e+002 7.500000e+000
      vertex   3.960000e+001 1.006210e+002 0.000000e+000
    endloop
  endfacet
  facet normal -6.234908e-001 7.818306e-001 4.726301e-007
    outer loop
      vertex   3.857457e+001 9.980327e+001 3.750000e+000
      vertex   3.960000e+001 1.006210e+002 0.000000e+000
      vertex   3.754914e+001 9.898552e+001 0.000000e+000
    endloop
  endfacet
  facet normal -6.234897e-001 7.818315e-001 0.000000e+000
    outer loop
      vertex   3.857457e+001 9.980327e+001 3.750000e+000
      vertex   3.754914e+001 9.898552e+001 0.000000e+000
      vertex   3.754914e+001 9.898552e+001 7.500000e+000
    endloop
  endfacet
  facet normal 5.555753e-001 8.314663e-001 0.000000e+000
    outer loop
      vertex   4.176531e+001 8.925352e+001 3.750000e+000
      vertex   4.225195e+001 8.892836e+001 7.500000e+000
      vertex   4.225195e+001 8.892836e+001 0.000000e+000
    endloop
  endfacet
  facet normal -8.262389e-001 5.633199e-001 0.000000e+000
    outer loop
      vertex   3.681031e+001 9.790185e+001 3.750000e+000
      vertex   3.754914e+001 9.898552e+001 7.500000e+000
      vertex   3.754914e+001 9.898552e+001 0.000000e+000
    endloop
  endfacet
  facet normal -8.262382e-001 5.633209e-001 4.241549e-007
    outer loop
      vertex   3.681031e+001 9.790185e+001 3.750000e+000
      vertex   3.754914e+001 9.898552e+001 0.000000e+000
      vertex   3.607147e+001 9.681818e+001 0.000000e+000
    endloop
  endfacet
  facet normal -8.262376e-001 5.633219e-001 0.000000e+000
    outer loop
      vertex   3.681031e+001 9.790185e+001 3.750000e+000
      vertex   3.607147e+001 9.681818e+001 0.000000e+000
      vertex   3.607147e+001 9.681818e+001 7.500000e+000
    endloop
  endfacet
  facet normal 1.950920e-001 9.807850e-001 -0.000000e+000
    outer loop
      vertex   4.282597e+001 8.881418e+001 3.750000e+000
      vertex   4.225195e+001 8.892836e+001 0.000000e+000
      vertex   4.225195e+001 8.892836e+001 7.500000e+000
    endloop
  endfacet
  facet normal -9.555736e-001 2.947525e-001 0.000000e+000
    outer loop
      vertex   3.568488e+001 9.556487e+001 3.750000e+000
      vertex   3.607147e+001 9.681818e+001 7.500000e+000
      vertex   3.607147e+001 9.681818e+001 0.000000e+000
    endloop
  endfacet
  facet normal -9.555733e-001 2.947538e-001 4.847486e-007
    outer loop
      vertex   3.568488e+001 9.556487e+001 3.750000e+000
      vertex   3.607147e+001 9.681818e+001 0.000000e+000
      vertex   3.529829e+001 9.431157e+001 0.000000e+000
    endloop
  endfacet
  facet normal -9.555728e-001 2.947551e-001 0.000000e+000
    outer loop
      vertex   3.568488e+001 9.556487e+001 3.750000e+000
      vertex   3.529829e+001 9.431157e+001 0.000000e+000
      vertex   3.529829e+001 9.431157e+001 7.500000e+000
    endloop
  endfacet
  facet normal 1.950907e-001 9.807852e-001 0.000000e+000
    outer loop
      vertex   4.282597e+001 8.881418e+001 3.750000e+000
      vertex   4.340000e+001 8.870000e+001 7.500000e+000
      vertex   4.340000e+001 8.870000e+001 0.000000e+000
    endloop
  endfacet
  facet normal -1.000000e+000 0.000000e+000 -0.000000e+000
    outer loop
      vertex   3.529829e+001 9.300000e+001 3.750000e+000
      vertex   3.529829e+001 9.431157e+001 7.500000e+000
      vertex   3.529829e+001 9.431157e+001 0.000000e+000
    endloop
  endfacet
  facet normal -1.000000e+000 0.000000e+000 0.000000e+000
    outer loop
      vertex   3.529829e+001 9.300000e+001 3.750000e+000
      vertex   3.529829e+001 9.431157e+001 0.000000e+000
      vertex   3.529829e+001 9.168843e+001 0.000000e+000
    endloop
  endfacet
  facet normal -1.000000e+000 0.000000e+000 0.000000e+000
    outer loop
      vertex   3.529829e+001 9.300000e+001 3.750000e+000
      vertex   3.529829e+001 9.168843e+001 0.000000e+000
      vertex   3.529829e+001 9.168843e+001 7.500000e+000
    endloop
  endfacet
  facet normal -1.950920e-001 9.807850e-001 0.000000e+000
    outer loop
      vertex   4.397403e+001 8.881418e+001 3.750000e+000
      vertex   4.340000e+001 8.870000e+001 0.000000e+000
      vertex   4.340000e+001 8.870000e+001 7.500000e+000
    endloop
  endfacet
  facet normal -9.555728e-001 -2.947551e-001 -0.000000e+000
    outer loop
      vertex   3.568488e+001 9.043513e+001 3.750000e+000
      vertex   3.529829e+001 9.168843e+001 7.500000e+000
      vertex   3.529829e+001 9.168843e+001 0.000000e+000
    endloop
  endfacet
  facet normal -9.555733e-001 -2.947538e-001 4.847486e-007
    outer loop
      vertex   3.568488e+001 9.043513e+001 3.750000e+000
      vertex   3.529829e+001 9.168843e+001 0.000000e+000
      vertex   3.607147e+001 8.918182e+001 0.000000e+000
    endloop
  endfacet
  facet normal -9.555736e-001 -2.947525e-001 0.000000e+000
    outer loop
      vertex   3.568488e+001 9.043513e+001 3.750000e+000
      vertex   3.607147e+001 8.918182e+001 0.000000e+000
      vertex   3.607147e+001 8.918182e+001 7.500000e+000
    endloop
  endfacet
  facet normal -1.950920e-001 9.807850e-001 0.000000e+000
    outer loop
      vertex   4.397403e+001 8.881418e+001 3.750000e+000
      vertex   4.454805e+001 8.892836e+001 7.500000e+000
      vertex   4.454805e+001 8.892836e+001 0.000000e+000
    endloop
  endfacet
  facet normal -8.262376e-001 -5.633219e-001 -0.000000e+000
    outer loop
      vertex   3.681031e+001 8.809815e+001 3.750000e+000
      vertex   3.607147e+001 8.918182e+001 7.500000e+000
      vertex   3.607147e+001 8.918182e+001 0.000000e+000
    endloop
  endfacet
  facet normal -8.262382e-001 -5.633209e-001 4.120362e-007
    outer loop
      vertex   3.681031e+001 8.809815e+001 3.750000e+000
      vertex   3.607147e+001 8.918182e+001 0.000000e+000
      vertex   3.754914e+001 8.701448e+001 0.000000e+000
    endloop
  endfacet
  facet normal -8.262389e-001 -5.633199e-001 0.000000e+000
    outer loop
      vertex   3.681031e+001 8.809815e+001 3.750000e+000
      vertex   3.754914e+001 8.701448e+001 0.000000e+000
      vertex   3.754914e+001 8.701448e+001 7.500000e+000
    endloop
  endfacet
  facet normal -5.555783e-001 8.314642e-001 0.000000e+000
    outer loop
      vertex   4.503468e+001 8.925352e+001 3.750000e+000
      vertex   4.454805e+001 8.892836e+001 0.000000e+000
      vertex   4.454805e+001 8.892836e+001 7.500000e+000
    endloop
  endfacet
  facet normal -6.234897e-001 -7.818315e-001 -0.000000e+000
    outer loop
      vertex   3.857457e+001 8.619673e+001 3.750000e+000
      vertex   3.754914e+001 8.701448e+001 7.500000e+000
      vertex   3.754914e+001 8.701448e+001 0.000000e+000
    endloop
  endfacet
  facet normal -6.234908e-001 -7.818306e-001 4.847489e-007
    outer loop
      vertex   3.857457e+001 8.619673e+001 3.750000e+000
      vertex   3.754914e+001 8.701448e+001 0.000000e+000
      vertex   3.960000e+001 8.537897e+001 0.000000e+000
    endloop
  endfacet
  facet normal -6.234919e-001 -7.818298e-001 0.000000e+000
    outer loop
      vertex   3.857457e+001 8.619673e+001 3.750000e+000
      vertex   3.960000e+001 8.537897e+001 0.000000e+000
      vertex   3.960000e+001 8.537897e+001 7.500000e+000
    endloop
  endfacet
  facet normal -5.555663e-001 8.314723e-001 0.000000e+000
    outer loop
      vertex   4.503468e+001 8.925352e+001 3.750000e+000
      vertex   4.552132e+001 8.957868e+001 7.500000e+000
      vertex   4.552132e+001 8.957868e+001 0.000000e+000
    endloop
  endfacet
  facet normal -3.653412e-001 -9.308738e-001 -0.000000e+000
    outer loop
      vertex   4.082091e+001 8.489980e+001 3.750000e+000
      vertex   3.960000e+001 8.537897e+001 7.500000e+000
      vertex   3.960000e+001 8.537897e+001 0.000000e+000
    endloop
  endfacet
  facet normal -3.653412e-001 -9.308738e-001 0.000000e+000
    outer loop
      vertex   4.082091e+001 8.489980e+001 3.750000e+000
      vertex   3.960000e+001 8.537897e+001 0.000000e+000
      vertex   4.204182e+001 8.442063e+001 0.000000e+000
    endloop
  endfacet
  facet normal -3.653412e-001 -9.308738e-001 0.000000e+000
    outer loop
      vertex   4.082091e+001 8.489980e+001 3.750000e+000
      vertex   4.204182e+001 8.442063e+001 0.000000e+000
      vertex   4.204182e+001 8.442063e+001 7.500000e+000
    endloop
  endfacet
  facet normal -8.314672e-001 5.555738e-001 0.000000e+000
    outer loop
      vertex   4.584648e+001 9.006532e+001 3.750000e+000
      vertex   4.552132e+001 8.957868e+001 0.000000e+000
      vertex   4.552132e+001 8.957868e+001 7.500000e+000
    endloop
  endfacet
  facet normal -7.473088e-002 -9.972038e-001 -0.000000e+000
    outer loop
      vertex   4.334972e+001 8.432262e+001 3.750000e+000
      vertex   4.204182e+001 8.442063e+001 7.500000e+000
      vertex   4.204182e+001 8.442063e+001 0.000000e+000
    endloop
  endfacet
  facet normal -7.472798e-002 -9.972039e-001 -1.011914e-006
    outer loop
      vertex   4.334972e+001 8.432262e+001 3.750000e+000
      vertex   4.204182e+001 8.442063e+001 0.000000e+000
      vertex   4.465762e+001 8.422461e+001 0.000000e+000
    endloop
  endfacet
  facet normal -7.472509e-002 -9.972042e-001 0.000000e+000
    outer loop
      vertex   4.334972e+001 8.432262e+001 3.750000e+000
      vertex   4.465762e+001 8.422461e+001 0.000000e+000
      vertex   4.465762e+001 8.422461e+001 7.500000e+000
    endloop
  endfacet
  facet normal -8.314703e-001 5.555693e-001 0.000000e+000
    outer loop
      vertex   4.584648e+001 9.006532e+001 3.750000e+000
      vertex   4.617164e+001 9.055195e+001 7.500000e+000
      vertex   4.617164e+001 9.055195e+001 0.000000e+000
    endloop
  endfacet
  facet normal 2.225231e-001 -9.749274e-001 0.000000e+000
    outer loop
      vertex   4.593631e+001 8.451646e+001 3.750000e+000
      vertex   4.465762e+001 8.422461e+001 7.500000e+000
      vertex   4.465762e+001 8.422461e+001 0.000000e+000
    endloop
  endfacet
  facet normal 2.225200e-001 -9.749281e-001 1.102803e-006
    outer loop
      vertex   4.593631e+001 8.451646e+001 3.750000e+000
      vertex   4.465762e+001 8.422461e+001 0.000000e+000
      vertex   4.721500e+001 8.480831e+001 0.000000e+000
    endloop
  endfacet
  facet normal 2.225170e-001 -9.749288e-001 0.000000e+000
    outer loop
      vertex   4.593631e+001 8.451646e+001 3.750000e+000
      vertex   4.721500e+001 8.480831e+001 0.000000e+000
      vertex   4.721500e+001 8.480831e+001 7.500000e+000
    endloop
  endfacet
  facet normal -9.807852e-001 1.950907e-001 0.000000e+000
    outer loop
      vertex   4.628582e+001 9.112598e+001 3.750000e+000
      vertex   4.617164e+001 9.055195e+001 0.000000e+000
      vertex   4.617164e+001 9.055195e+001 7.500000e+000
    endloop
  endfacet
  facet normal 4.999998e-001 -8.660255e-001 0.000000e+000
    outer loop
      vertex   4.835085e+001 8.546410e+001 3.750000e+000
      vertex   4.721500e+001 8.480831e+001 7.500000e+000
      vertex   4.721500e+001 8.480831e+001 0.000000e+000
    endloop
  endfacet
  facet normal 4.999992e-001 -8.660259e-001 2.544932e-007
    outer loop
      vertex   4.835085e+001 8.546410e+001 3.750000e+000
      vertex   4.721500e+001 8.480831e+001 0.000000e+000
      vertex   4.948671e+001 8.611988e+001 0.000000e+000
    endloop
  endfacet
  facet normal 4.999985e-001 -8.660262e-001 0.000000e+000
    outer loop
      vertex   4.835085e+001 8.546410e+001 3.750000e+000
      vertex   4.948671e+001 8.611988e+001 0.000000e+000
      vertex   4.948671e+001 8.611988e+001 7.500000e+000
    endloop
  endfacet
  facet normal -9.807847e-001 1.950932e-001 0.000000e+000
    outer loop
      vertex   4.628582e+001 9.112598e+001 3.750000e+000
      vertex   4.640000e+001 9.170000e+001 7.500000e+000
      vertex   4.640000e+001 9.170000e+001 0.000000e+000
    endloop
  endfacet
  facet normal 7.330505e-001 -6.801742e-001 0.000000e+000
    outer loop
      vertex   5.037881e+001 8.708133e+001 3.750000e+000
      vertex   4.948671e+001 8.611988e+001 7.500000e+000
      vertex   4.948671e+001 8.611988e+001 0.000000e+000
    endloop
  endfacet
  facet normal 7.330526e-001 -6.801719e-001 -1.066446e-006
    outer loop
      vertex   5.037881e+001 8.708133e+001 3.750000e+000
      vertex   4.948671e+001 8.611988e+001 0.000000e+000
      vertex   5.127090e+001 8.804279e+001 0.000000e+000
    endloop
  endfacet
  facet normal 7.330547e-001 -6.801698e-001 0.000000e+000
    outer loop
      vertex   5.037881e+001 8.708133e+001 3.750000e+000
      vertex   5.127090e+001 8.804279e+001 0.000000e+000
      vertex   5.127090e+001 8.804279e+001 7.500000e+000
    endloop
  endfacet
  facet normal 0.000000e+000 0.000000e+000 -1.000000e+000
    outer loop
      vertex   4.204182e+001 8.442063e+001 0.000000e+000
      vertex   3.960000e+001 8.537897e+001 0.000000e+000
      vertex   3.607147e+001 8.918182e+001 0.000000e+000
    endloop
  endfacet
  facet normal 9.009681e-001 -4.338853e-001 0.000000e+000
    outer loop
      vertex   5.183997e+001 8.922447e+001 3.750000e+000
      vertex   5.127090e+001 8.804279e+001 7.500000e+000
      vertex   5.127090e+001 8.804279e+001 0.000000e+000
    endloop
  endfacet
  facet normal 9.009682e-001 -4.338853e-001 -2.423748e-008
    outer loop
      vertex   5.183997e+001 8.922447e+001 3.750000e+000
      vertex   5.127090e+001 8.804279e+001 0.000000e+000
      vertex   5.240904e+001 9.040615e+001 0.000000e+000
    endloop
  endfacet
  facet normal 9.009681e-001 -4.338852e-001 0.000000e+000
    outer loop
      vertex   5.183997e+001 8.922447e+001 3.750000e+000
      vertex   5.240904e+001 9.040615e+001 0.000000e+000
      vertex   5.240904e+001 9.040615e+001 7.500000e+000
    endloop
  endfacet
  facet normal 0.000000e+000 0.000000e+000 -1.000000e+000
    outer loop
      vertex   4.465762e+001 8.422461e+001 0.000000e+000
      vertex   4.204182e+001 8.442063e+001 0.000000e+000
      vertex   3.529829e+001 9.168843e+001 0.000000e+000
    endloop
  endfacet
  facet normal 9.888309e-001 -1.490421e-001 0.000000e+000
    outer loop
      vertex   5.260452e+001 9.170308e+001 3.750000e+000
      vertex   5.240904e+001 9.040615e+001 7.500000e+000
      vertex   5.240904e+001 9.040615e+001 0.000000e+000
    endloop
  endfacet
  facet normal 9.888310e-001 -1.490412e-001 -3.514424e-007
    outer loop
      vertex   5.260452e+001 9.170308e+001 3.750000e+000
      vertex   5.240904e+001 9.040615e+001 0.000000e+000
      vertex   5.280000e+001 9.300000e+001 0.000000e+000
    endloop
  endfacet
  facet normal 9.888312e-001 -1.490402e-001 0.000000e+000
    outer loop
      vertex   5.260452e+001 9.170308e+001 3.750000e+000
      vertex   5.280000e+001 9.300000e+001 0.000000e+000
      vertex   5.280000e+001 9.300000e+001 7.500000e+000
    endloop
  endfacet
  facet normal -9.807852e-001 -1.950907e-001 0.000000e+000
    outer loop
      vertex   4.628582e+001 9.227402e+001 3.750000e+000
      vertex   4.617164e+001 9.284805e+001 0.000000e+000
      vertex   4.640000e+001 9.170000e+001 0.000000e+000
    endloop
  endfacet
  facet normal -9.807852e-001 -1.950907e-001 0.000000e+000
    outer loop
      vertex   4.628582e+001 9.227402e+001 3.750000e+000
      vertex   4.640000e+001 9.170000e+001 0.000000e+000
      vertex   4.640000e+001 9.170000e+001 7.500000e+000
    endloop
  endfacet
  facet normal 0.000000e+000 0.000000e+000 -1.000000e+000
    outer loop
      vertex   4.062836e+001 9.055195e+001 0.000000e+000
      vertex   4.127868e+001 8.957868e+001 0.000000e+000
      vertex   3.529829e+001 9.431157e+001 0.000000e+000
    endloop
  endfacet
  facet normal -9.807852e-001 -1.950907e-001 -0.000000e+000
    outer loop
      vertex   4.628582e+001 9.227402e+001 3.750000e+000
      vertex   4.617164e+001 9.284805e+001 7.500000e+000
      vertex   4.617164e+001 9.284805e+001 0.000000e+000
    endloop
  endfacet
  facet normal -8.314688e-001 -5.555716e-001 4.209443e-007
    outer loop
      vertex   4.584648e+001 9.333469e+001 3.750000e+000
      vertex   4.552132e+001 9.382132e+001 0.000000e+000
      vertex   4.617164e+001 9.284805e+001 0.000000e+000
    endloop
  endfacet
  facet normal -8.314703e-001 -5.555693e-001 0.000000e+000
    outer loop
      vertex   4.584648e+001 9.333469e+001 3.750000e+000
      vertex   4.617164e+001 9.284805e+001 0.000000e+000
      vertex   4.617164e+001 9.284805e+001 7.500000e+000
    endloop
  endfacet
  facet normal 0.000000e+000 0.000000e+000 -1.000000e+000
    outer loop
      vertex   4.040000e+001 9.170000e+001 0.000000e+000
      vertex   4.062836e+001 9.055195e+001 0.000000e+000
      vertex   3.529829e+001 9.431157e+001 0.000000e+000
    endloop
  endfacet
  facet normal -8.314672e-001 -5.555738e-001 -0.000000e+000
    outer loop
      vertex   4.584648e+001 9.333469e+001 3.750000e+000
      vertex   4.552132e+001 9.382132e+001 7.500000e+000
      vertex   4.552132e+001 9.382132e+001 0.000000e+000
    endloop
  endfacet
  facet normal -5.555723e-001 -8.314682e-001 5.635197e-007
    outer loop
      vertex   4.503468e+001 9.414648e+001 3.750000e+000
      vertex   4.454805e+001 9.447164e+001 0.000000e+000
      vertex   4.552132e+001 9.382132e+001 0.000000e+000
    endloop
  endfacet
  facet normal -5.555753e-001 -8.314663e-001 0.000000e+000
    outer loop
      vertex   4.503468e+001 9.414648e+001 3.750000e+000
      vertex   4.552132e+001 9.382132e+001 0.000000e+000
      vertex   4.552132e+001 9.382132e+001 7.500000e+000
    endloop
  endfacet
  facet normal 0.000000e+000 0.000000e+000 -1.000000e+000
    outer loop
      vertex   4.721500e+001 8.480831e+001 0.000000e+000
      vertex   4.465762e+001 8.422461e+001 0.000000e+000
      vertex   4.340000e+001 8.870000e+001 0.000000e+000
    endloop
  endfacet
  facet normal -5.555693e-001 -8.314703e-001 -0.000000e+000
    outer loop
      vertex   4.503468e+001 9.414648e+001 3.750000e+000
      vertex   4.454805e+001 9.447164e+001 7.500000e+000
      vertex   4.454805e+001 9.447164e+001 0.000000e+000
    endloop
  endfacet
  facet normal -1.950857e-001 -9.807863e-001 -9.946508e-007
    outer loop
      vertex   4.397403e+001 9.458582e+001 3.750000e+000
      vertex   4.340000e+001 9.470000e+001 0.000000e+000
      vertex   4.454805e+001 9.447164e+001 0.000000e+000
    endloop
  endfacet
  facet normal -1.950794e-001 -9.807874e-001 0.000000e+000
    outer loop
      vertex   4.397403e+001 9.458582e+001 3.750000e+000
      vertex   4.454805e+001 9.447164e+001 0.000000e+000
      vertex   4.454805e+001 9.447164e+001 7.500000e+000
    endloop
  endfacet
  facet normal 0.000000e+000 0.000000e+000 -1.000000e+000
    outer loop
      vertex   4.062836e+001 9.284805e+001 0.000000e+000
      vertex   4.040000e+001 9.170000e+001 0.000000e+000
      vertex   3.607147e+001 9.681818e+001 0.000000e+000
    endloop
  endfacet
  facet normal -1.950920e-001 -9.807850e-001 -0.000000e+000
    outer loop
      vertex   4.397403e+001 9.458582e+001 3.750000e+000
      vertex   4.340000e+001 9.470000e+001 7.500000e+000
      vertex   4.340000e+001 9.470000e+001 0.000000e+000
    endloop
  endfacet
  facet normal 1.950851e-001 -9.807863e-001 -8.995959e-007
    outer loop
      vertex   4.282597e+001 9.458582e+001 3.750000e+000
      vertex   4.225195e+001 9.447164e+001 0.000000e+000
      vertex   4.340000e+001 9.470000e+001 0.000000e+000
    endloop
  endfacet
  facet normal 1.950907e-001 -9.807852e-001 0.000000e+000
    outer loop
      vertex   4.282597e+001 9.458582e+001 3.750000e+000
      vertex   4.340000e+001 9.470000e+001 0.000000e+000
      vertex   4.340000e+001 9.470000e+001 7.500000e+000
    endloop
  endfacet
  facet normal 0.000000e+000 0.000000e+000 -1.000000e+000
    outer loop
      vertex   4.127868e+001 9.382132e+001 0.000000e+000
      vertex   4.062836e+001 9.284805e+001 0.000000e+000
      vertex   3.607147e+001 9.681818e+001 0.000000e+000
    endloop
  endfacet
  facet normal 1.950794e-001 -9.807874e-001 0.000000e+000
    outer loop
      vertex   4.282597e+001 9.458582e+001 3.750000e+000
      vertex   4.225195e+001 9.447164e+001 7.500000e+000
      vertex   4.225195e+001 9.447164e+001 0.000000e+000
    endloop
  endfacet
  facet normal 5.555723e-001 -8.314682e-001 1.127039e-006
    outer loop
      vertex   4.176531e+001 9.414648e+001 3.750000e+000
      vertex   4.127868e+001 9.382132e+001 0.000000e+000
      vertex   4.225195e+001 9.447164e+001 0.000000e+000
    endloop
  endfacet
  facet normal 5.555663e-001 -8.314723e-001 0.000000e+000
    outer loop
      vertex   4.176531e+001 9.414648e+001 3.750000e+000
      vertex   4.225195e+001 9.447164e+001 0.000000e+000
      vertex   4.225195e+001 9.447164e+001 7.500000e+000
    endloop
  endfacet
  facet normal 0.000000e+000 0.000000e+000 -1.000000e+000
    outer loop
      vertex   4.948671e+001 8.611988e+001 0.000000e+000
      vertex   4.721500e+001 8.480831e+001 0.000000e+000
      vertex   4.552132e+001 8.957868e+001 0.000000e+000
    endloop
  endfacet
  facet normal 5.555783e-001 -8.314642e-001 0.000000e+000
    outer loop
      vertex   4.176531e+001 9.414648e+001 3.750000e+000
      vertex   4.127868e+001 9.382132e+001 7.500000e+000
      vertex   4.127868e+001 9.382132e+001 0.000000e+000
    endloop
  endfacet
  facet normal 8.314688e-001 -5.555716e-001 -4.209443e-007
    outer loop
      vertex   4.095352e+001 9.333469e+001 3.750000e+000
      vertex   4.062836e+001 9.284805e+001 0.000000e+000
      vertex   4.127868e+001 9.382132e+001 0.000000e+000
    endloop
  endfacet
  facet normal 8.314703e-001 -5.555693e-001 0.000000e+000
    outer loop
      vertex   4.095352e+001 9.333469e+001 3.750000e+000
      vertex   4.127868e+001 9.382132e+001 0.000000e+000
      vertex   4.127868e+001 9.382132e+001 7.500000e+000
    endloop
  endfacet
  facet normal 0.000000e+000 0.000000e+000 -1.000000e+000
    outer loop
      vertex   4.225195e+001 9.447164e+001 0.000000e+000
      vertex   4.127868e+001 9.382132e+001 0.000000e+000
      vertex   3.754914e+001 9.898552e+001 0.000000e+000
    endloop
  endfacet
  facet normal 0.000000e+000 0.000000e+000 -1.000000e+000
    outer loop
      vertex   4.948671e+001 9.988012e+001 0.000000e+000
      vertex   5.127090e+001 9.795721e+001 0.000000e+000
      vertex   4.721500e+001 1.011917e+002 0.000000e+000
    endloop
  endfacet
  facet normal 9.807858e-001 -1.950876e-001 -4.990192e-007
    outer loop
      vertex   4.051418e+001 9.227402e+001 3.750000e+000
      vertex   4.040000e+001 9.170000e+001 0.000000e+000
      vertex   4.062836e+001 9.284805e+001 0.000000e+000
    endloop
  endfacet
  facet normal 0.000000e+000 0.000000e+000 -1.000000e+000
    outer loop
      vertex   3.607147e+001 8.918182e+001 0.000000e+000
      vertex   3.960000e+001 8.537897e+001 0.000000e+000
      vertex   3.754914e+001 8.701448e+001 0.000000e+000
    endloop
  endfacet
  facet normal 0.000000e+000 0.000000e+000 -1.000000e+000
    outer loop
      vertex   5.127090e+001 9.795721e+001 0.000000e+000
      vertex   5.240904e+001 9.559385e+001 0.000000e+000
      vertex   4.721500e+001 1.011917e+002 0.000000e+000
    endloop
  endfacet
  facet normal 0.000000e+000 0.000000e+000 -1.000000e+000
    outer loop
      vertex   4.721500e+001 1.011917e+002 0.000000e+000
      vertex   5.240904e+001 9.559385e+001 0.000000e+000
      vertex   4.465762e+001 1.017754e+002 0.000000e+000
    endloop
  endfacet
  facet normal 9.807856e-001 1.950888e-001 -6.959156e-007
    outer loop
      vertex   4.051418e+001 9.112598e+001 3.750000e+000
      vertex   4.062836e+001 9.055195e+001 0.000000e+000
      vertex   4.040000e+001 9.170000e+001 0.000000e+000
    endloop
  endfacet
  facet normal 0.000000e+000 0.000000e+000 -1.000000e+000
    outer loop
      vertex   4.465762e+001 1.017754e+002 0.000000e+000
      vertex   5.280000e+001 9.300000e+001 0.000000e+000
      vertex   4.204182e+001 1.015794e+002 0.000000e+000
    endloop
  endfacet
  facet normal 0.000000e+000 0.000000e+000 -1.000000e+000
    outer loop
      vertex   5.280000e+001 9.300000e+001 0.000000e+000
      vertex   5.240904e+001 9.040615e+001 0.000000e+000
      vertex   4.204182e+001 1.015794e+002 0.000000e+000
    endloop
  endfacet
  facet normal 0.000000e+000 0.000000e+000 -1.000000e+000
    outer loop
      vertex   4.204182e+001 1.015794e+002 0.000000e+000
      vertex   5.240904e+001 9.040615e+001 0.000000e+000
      vertex   3.960000e+001 1.006210e+002 0.000000e+000
    endloop
  endfacet
  facet normal 8.314688e-001 5.555716e-001 -4.277337e-007
    outer loop
      vertex   4.095352e+001 9.006532e+001 3.750000e+000
      vertex   4.127868e+001 8.957868e+001 0.000000e+000
      vertex   4.062836e+001 9.055195e+001 0.000000e+000
    endloop
  endfacet
  facet normal 0.000000e+000 0.000000e+000 -1.000000e+000
    outer loop
      vertex   5.240904e+001 9.040615e+001 0.000000e+000
      vertex   5.127090e+001 8.804279e+001 0.000000e+000
      vertex   3.960000e+001 1.006210e+002 0.000000e+000
    endloop
  endfacet
  facet normal 0.000000e+000 0.000000e+000 -1.000000e+000
    outer loop
      vertex   3.960000e+001 1.006210e+002 0.000000e+000
      vertex   4.454805e+001 9.447164e+001 0.000000e+000
      vertex   3.754914e+001 9.898552e+001 0.000000e+000
    endloop
  endfacet
  facet normal 0.000000e+000 0.000000e+000 -1.000000e+000
    outer loop
      vertex   3.960000e+001 1.006210e+002 0.000000e+000
      vertex   4.552132e+001 9.382132e+001 0.000000e+000
      vertex   4.454805e+001 9.447164e+001 0.000000e+000
    endloop
  endfacet
  facet normal 5.555723e-001 8.314682e-001 -5.635197e-007
    outer loop
      vertex   4.176531e+001 8.925352e+001 3.750000e+000
      vertex   4.225195e+001 8.892836e+001 0.000000e+000
      vertex   4.127868e+001 8.957868e+001 0.000000e+000
    endloop
  endfacet
  facet normal 0.000000e+000 0.000000e+000 -1.000000e+000
    outer loop
      vertex   3.960000e+001 1.006210e+002 0.000000e+000
      vertex   5.127090e+001 8.804279e+001 0.000000e+000
      vertex   4.552132e+001 9.382132e+001 0.000000e+000
    endloop
  endfacet
  facet normal 0.000000e+000 0.000000e+000 -1.000000e+000
    outer loop
      vertex   5.127090e+001 8.804279e+001 0.000000e+000
      vertex   4.948671e+001 8.611988e+001 0.000000e+000
      vertex   4.617164e+001 9.284805e+001 0.000000e+000
    endloop
  endfacet
  facet normal 0.000000e+000 0.000000e+000 -1.000000e+000
    outer loop
      vertex   5.127090e+001 8.804279e+001 0.000000e+000
      vertex   4.617164e+001 9.284805e+001 0.000000e+000
      vertex   4.552132e+001 9.382132e+001 0.000000e+000
    endloop
  endfacet
  facet normal 1.950913e-001 9.807850e-001 9.844621e-008
    outer loop
      vertex   4.282597e+001 8.881418e+001 3.750000e+000
      vertex   4.340000e+001 8.870000e+001 0.000000e+000
      vertex   4.225195e+001 8.892836e+001 0.000000e+000
    endloop
  endfacet
  facet normal 0.000000e+000 0.000000e+000 -1.000000e+000
    outer loop
      vertex   4.617164e+001 9.284805e+001 0.000000e+000
      vertex   4.948671e+001 8.611988e+001 0.000000e+000
      vertex   4.640000e+001 9.170000e+001 0.000000e+000
    endloop
  endfacet
  facet normal 0.000000e+000 0.000000e+000 -1.000000e+000
    outer loop
      vertex   3.529829e+001 9.168843e+001 0.000000e+000
      vertex   4.204182e+001 8.442063e+001 0.000000e+000
      vertex   3.607147e+001 8.918182e+001 0.000000e+000
    endloop
  endfacet
  facet normal 0.000000e+000 0.000000e+000 -1.000000e+000
    outer loop
      vertex   4.340000e+001 9.470000e+001 0.000000e+000
      vertex   4.225195e+001 9.447164e+001 0.000000e+000
      vertex   3.754914e+001 9.898552e+001 0.000000e+000
    endloop
  endfacet
  facet normal -1.950920e-001 9.807850e-001 0.000000e+000
    outer loop
      vertex   4.397403e+001 8.881418e+001 3.750000e+000
      vertex   4.454805e+001 8.892836e+001 0.000000e+000
      vertex   4.340000e+001 8.870000e+001 0.000000e+000
    endloop
  endfacet
  facet normal 0.000000e+000 0.000000e+000 -1.000000e+000
    outer loop
      vertex   4.640000e+001 9.170000e+001 0.000000e+000
      vertex   4.948671e+001 8.611988e+001 0.000000e+000
      vertex   4.617164e+001 9.055195e+001 0.000000e+000
    endloop
  endfacet
  facet normal 0.000000e+000 0.000000e+000 -1.000000e+000
    outer loop
      vertex   4.617164e+001 9.055195e+001 0.000000e+000
      vertex   4.948671e+001 8.611988e+001 0.000000e+000
      vertex   4.552132e+001 8.957868e+001 0.000000e+000
    endloop
  endfacet
  facet normal 0.000000e+000 0.000000e+000 -1.000000e+000
    outer loop
      vertex   3.754914e+001 9.898552e+001 0.000000e+000
      vertex   4.127868e+001 9.382132e+001 0.000000e+000
      vertex   3.607147e+001 9.681818e+001 0.000000e+000
    endloop
  endfacet
  facet normal -5.555723e-001 8.314682e-001 -1.127039e-006
    outer loop
      vertex   4.503468e+001 8.925352e+001 3.750000e+000
      vertex   4.552132e+001 8.957868e+001 0.000000e+000
      vertex   4.454805e+001 8.892836e+001 0.000000e+000
    endloop
  endfacet
  facet normal 0.000000e+000 0.000000e+000 -1.000000e+000
    outer loop
      vertex   4.552132e+001 8.957868e+001 0.000000e+000
      vertex   4.721500e+001 8.480831e+001 0.000000e+000
      vertex   4.454805e+001 8.892836e+001 0.000000e+000
    endloop
  endfacet
  facet normal 0.000000e+000 0.000000e+000 -1.000000e+000
    outer loop
      vertex   4.454805e+001 8.892836e+001 0.000000e+000
      vertex   4.721500e+001 8.480831e+001 0.000000e+000
      vertex   4.340000e+001 8.870000e+001 0.000000e+000
    endloop
  endfacet
  facet normal 0.000000e+000 0.000000e+000 -1.000000e+000
    outer loop
      vertex   4.454805e+001 9.447164e+001 0.000000e+000
      vertex   4.340000e+001 9.470000e+001 0.000000e+000
      vertex   3.754914e+001 9.898552e+001 0.000000e+000
    endloop
  endfacet
  facet normal -8.314688e-001 5.555716e-001 4.277337e-007
    outer loop
      vertex   4.584648e+001 9.006532e+001 3.750000e+000
      vertex   4.617164e+001 9.055195e+001 0.000000e+000
      vertex   4.552132e+001 8.957868e+001 0.000000e+000
    endloop
  endfacet
  facet normal 0.000000e+000 0.000000e+000 -1.000000e+000
    outer loop
      vertex   3.607147e+001 9.681818e+001 0.000000e+000
      vertex   4.040000e+001 9.170000e+001 0.000000e+000
      vertex   3.529829e+001 9.431157e+001 0.000000e+000
    endloop
  endfacet
  facet normal 0.000000e+000 0.000000e+000 -1.000000e+000
    outer loop
      vertex   4.340000e+001 8.870000e+001 0.000000e+000
      vertex   4.465762e+001 8.422461e+001 0.000000e+000
      vertex   4.225195e+001 8.892836e+001 0.000000e+000
    endloop
  endfacet
  facet normal 0.000000e+000 0.000000e+000 -1.000000e+000
    outer loop
      vertex   4.225195e+001 8.892836e+001 0.000000e+000
      vertex   4.465762e+001 8.422461e+001 0.000000e+000
      vertex   4.127868e+001 8.957868e+001 0.000000e+000
    endloop
  endfacet
  facet normal -9.807850e-001 1.950920e-001 -1.968931e-007
    outer loop
      vertex   4.628582e+001 9.112598e+001 3.750000e+000
      vertex   4.640000e+001 9.170000e+001 0.000000e+000
      vertex   4.617164e+001 9.055195e+001 0.000000e+000
    endloop
  endfacet
  facet normal 0.000000e+000 0.000000e+000 -1.000000e+000
    outer loop
      vertex   4.127868e+001 8.957868e+001 0.000000e+000
      vertex   4.465762e+001 8.422461e+001 0.000000e+000
      vertex   3.529829e+001 9.431157e+001 0.000000e+000
    endloop
  endfacet
  facet normal 0.000000e+000 0.000000e+000 -1.000000e+000
    outer loop
      vertex   5.240904e+001 9.559385e+001 0.000000e+000
      vertex   5.280000e+001 9.300000e+001 0.000000e+000
      vertex   4.465762e+001 1.017754e+002 0.000000e+000
    endloop
  endfacet
  facet normal 0.000000e+000 0.000000e+000 -1.000000e+000
    outer loop
      vertex   3.529829e+001 9.431157e+001 0.000000e+000
      vertex   4.465762e+001 8.422461e+001 0.000000e+000
      vertex   3.529829e+001 9.168843e+001 0.000000e+000
    endloop
  endfacet
  facet normal 2.225200e-001 -9.749281e-001 -1.102803e-006
    outer loop
      vertex   4.593631e+001 8.451646e+001 3.750000e+000
      vertex   4.721500e+001 8.480831e+001 7.500000e+000
      vertex   4.465762e+001 8.422461e+001 7.500000e+000
    endloop
  endfacet
  facet normal -3.653412e-001 -9.308738e-001 0.000000e+000
    outer loop
      vertex   4.082091e+001 8.489980e+001 3.750000e+000
      vertex   4.204182e+001 8.442063e+001 7.500000e+000
      vertex   3.960000e+001 8.537897e+001 7.500000e+000
    endloop
  endfacet
  facet normal 9.888310e-001 -1.490412e-001 3.514424e-007
    outer loop
      vertex   5.260452e+001 9.170308e+001 3.750000e+000
      vertex   5.280000e+001 9.300000e+001 7.500000e+000
      vertex   5.240904e+001 9.040615e+001 7.500000e+000
    endloop
  endfacet
  facet normal -9.807850e-001 1.950920e-001 2.002878e-007
    outer loop
      vertex   4.628582e+001 9.112598e+001 3.750000e+000
      vertex   4.617164e+001 9.055195e+001 7.500000e+000
      vertex   4.640000e+001 9.170000e+001 7.500000e+000
    endloop
  endfacet
  facet normal 4.999992e-001 -8.660259e-001 -2.544932e-007
    outer loop
      vertex   4.835085e+001 8.546410e+001 3.750000e+000
      vertex   4.948671e+001 8.611988e+001 7.500000e+000
      vertex   4.721500e+001 8.480831e+001 7.500000e+000
    endloop
  endfacet
  facet normal -8.314688e-001 5.555716e-001 -4.209443e-007
    outer loop
      vertex   4.584648e+001 9.006532e+001 3.750000e+000
      vertex   4.552132e+001 8.957868e+001 7.500000e+000
      vertex   4.617164e+001 9.055195e+001 7.500000e+000
    endloop
  endfacet
  facet normal -9.807852e-001 -1.950907e-001 0.000000e+000
    outer loop
      vertex   4.628582e+001 9.227402e+001 3.750000e+000
      vertex   4.640000e+001 9.170000e+001 7.500000e+000
      vertex   4.617164e+001 9.284805e+001 7.500000e+000
    endloop
  endfacet
  facet normal -7.472798e-002 -9.972039e-001 1.014944e-006
    outer loop
      vertex   4.334972e+001 8.432262e+001 3.750000e+000
      vertex   4.465762e+001 8.422461e+001 7.500000e+000
      vertex   4.204182e+001 8.442063e+001 7.500000e+000
    endloop
  endfacet
  facet normal -8.314688e-001 -5.555716e-001 -4.277337e-007
    outer loop
      vertex   4.584648e+001 9.333469e+001 3.750000e+000
      vertex   4.617164e+001 9.284805e+001 7.500000e+000
      vertex   4.552132e+001 9.382132e+001 7.500000e+000
    endloop
  endfacet
  facet normal -5.555723e-001 8.314682e-001 1.127039e-006
    outer loop
      vertex   4.503468e+001 8.925352e+001 3.750000e+000
      vertex   4.454805e+001 8.892836e+001 7.500000e+000
      vertex   4.552132e+001 8.957868e+001 7.500000e+000
    endloop
  endfacet
  facet normal -5.555723e-001 -8.314682e-001 -5.635197e-007
    outer loop
      vertex   4.503468e+001 9.414648e+001 3.750000e+000
      vertex   4.552132e+001 9.382132e+001 7.500000e+000
      vertex   4.454805e+001 9.447164e+001 7.500000e+000
    endloop
  endfacet
  facet normal -6.234908e-001 -7.818306e-001 -4.726301e-007
    outer loop
      vertex   3.857457e+001 8.619673e+001 3.750000e+000
      vertex   3.960000e+001 8.537897e+001 7.500000e+000
      vertex   3.754914e+001 8.701448e+001 7.500000e+000
    endloop
  endfacet
  facet normal -1.950857e-001 -9.807863e-001 9.980455e-007
    outer loop
      vertex   4.397403e+001 9.458582e+001 3.750000e+000
      vertex   4.454805e+001 9.447164e+001 7.500000e+000
      vertex   4.340000e+001 9.470000e+001 7.500000e+000
    endloop
  endfacet
  facet normal -8.262382e-001 -5.633209e-001 -4.241549e-007
    outer loop
      vertex   3.681031e+001 8.809815e+001 3.750000e+000
      vertex   3.754914e+001 8.701448e+001 7.500000e+000
      vertex   3.607147e+001 8.918182e+001 7.500000e+000
    endloop
  endfacet
  facet normal 1.950851e-001 -9.807863e-001 8.995959e-007
    outer loop
      vertex   4.282597e+001 9.458582e+001 3.750000e+000
      vertex   4.340000e+001 9.470000e+001 7.500000e+000
      vertex   4.225195e+001 9.447164e+001 7.500000e+000
    endloop
  endfacet
  facet normal -1.950920e-001 9.807850e-001 0.000000e+000
    outer loop
      vertex   4.397403e+001 8.881418e+001 3.750000e+000
      vertex   4.340000e+001 8.870000e+001 7.500000e+000
      vertex   4.454805e+001 8.892836e+001 7.500000e+000
    endloop
  endfacet
  facet normal 5.555723e-001 -8.314682e-001 -1.127039e-006
    outer loop
      vertex   4.176531e+001 9.414648e+001 3.750000e+000
      vertex   4.225195e+001 9.447164e+001 7.500000e+000
      vertex   4.127868e+001 9.382132e+001 7.500000e+000
    endloop
  endfacet
  facet normal -9.555733e-001 -2.947538e-001 -4.847486e-007
    outer loop
      vertex   3.568488e+001 9.043513e+001 3.750000e+000
      vertex   3.607147e+001 8.918182e+001 7.500000e+000
      vertex   3.529829e+001 9.168843e+001 7.500000e+000
    endloop
  endfacet
  facet normal 9.888310e-001 1.490412e-001 3.514424e-007
    outer loop
      vertex   5.260452e+001 9.429692e+001 3.750000e+000
      vertex   5.240904e+001 9.559385e+001 7.500000e+000
      vertex   5.280000e+001 9.300000e+001 7.500000e+000
    endloop
  endfacet
  facet normal -9.555733e-001 2.947538e-001 -4.847486e-007
    outer loop
      vertex   3.568488e+001 9.556487e+001 3.750000e+000
      vertex   3.529829e+001 9.431157e+001 7.500000e+000
      vertex   3.607147e+001 9.681818e+001 7.500000e+000
    endloop
  endfacet
  facet normal -1.000000e+000 0.000000e+000 0.000000e+000
    outer loop
      vertex   3.529829e+001 9.300000e+001 3.750000e+000
      vertex   3.529829e+001 9.168843e+001 7.500000e+000
      vertex   3.529829e+001 9.431157e+001 7.500000e+000
    endloop
  endfacet
  facet normal 1.950913e-001 9.807850e-001 -1.018409e-007
    outer loop
      vertex   4.282597e+001 8.881418e+001 3.750000e+000
      vertex   4.225195e+001 8.892836e+001 7.500000e+000
      vertex   4.340000e+001 8.870000e+001 7.500000e+000
    endloop
  endfacet
  facet normal -8.262382e-001 5.633209e-001 -4.120362e-007
    outer loop
      vertex   3.681031e+001 9.790185e+001 3.750000e+000
      vertex   3.607147e+001 9.681818e+001 7.500000e+000
      vertex   3.754914e+001 9.898552e+001 7.500000e+000
    endloop
  endfacet
  facet normal 5.555723e-001 8.314682e-001 5.635197e-007
    outer loop
      vertex   4.176531e+001 8.925352e+001 3.750000e+000
      vertex   4.127868e+001 8.957868e+001 7.500000e+000
      vertex   4.225195e+001 8.892836e+001 7.500000e+000
    endloop
  endfacet
  facet normal -6.234908e-001 7.818306e-001 -4.847489e-007
    outer loop
      vertex   3.857457e+001 9.980327e+001 3.750000e+000
      vertex   3.754914e+001 9.898552e+001 7.500000e+000
      vertex   3.960000e+001 1.006210e+002 7.500000e+000
    endloop
  endfacet
  facet normal -3.653412e-001 9.308738e-001 0.000000e+000
    outer loop
      vertex   4.082091e+001 1.011002e+002 3.750000e+000
      vertex   3.960000e+001 1.006210e+002 7.500000e+000
      vertex   4.204182e+001 1.015794e+002 7.500000e+000
    endloop
  endfacet
  facet normal 8.314688e-001 5.555716e-001 4.209443e-007
    outer loop
      vertex   4.095352e+001 9.006532e+001 3.750000e+000
      vertex   4.062836e+001 9.055195e+001 7.500000e+000
      vertex   4.127868e+001 8.957868e+001 7.500000e+000
    endloop
  endfacet
  facet normal -7.472798e-002 9.972039e-001 1.011914e-006
    outer loop
      vertex   4.334972e+001 1.016774e+002 3.750000e+000
      vertex   4.204182e+001 1.015794e+002 7.500000e+000
      vertex   4.465762e+001 1.017754e+002 7.500000e+000
    endloop
  endfacet
  facet normal 2.225200e-001 9.749281e-001 -1.102803e-006
    outer loop
      vertex   4.593631e+001 1.014835e+002 3.750000e+000
      vertex   4.465762e+001 1.017754e+002 7.500000e+000
      vertex   4.721500e+001 1.011917e+002 7.500000e+000
    endloop
  endfacet
  facet normal 9.807856e-001 1.950888e-001 6.959156e-007
    outer loop
      vertex   4.051418e+001 9.112598e+001 3.750000e+000
      vertex   4.040000e+001 9.170000e+001 7.500000e+000
      vertex   4.062836e+001 9.055195e+001 7.500000e+000
    endloop
  endfacet
  facet normal 4.999992e-001 8.660259e-001 -2.544932e-007
    outer loop
      vertex   4.835085e+001 1.005359e+002 3.750000e+000
      vertex   4.721500e+001 1.011917e+002 7.500000e+000
      vertex   4.948671e+001 9.988012e+001 7.500000e+000
    endloop
  endfacet
  facet normal 7.330526e-001 6.801719e-001 1.066446e-006
    outer loop
      vertex   5.037881e+001 9.891867e+001 3.750000e+000
      vertex   4.948671e+001 9.988012e+001 7.500000e+000
      vertex   5.127090e+001 9.795721e+001 7.500000e+000
    endloop
  endfacet
  facet normal 9.009682e-001 -4.338853e-001 1.211874e-008
    outer loop
      vertex   5.183997e+001 8.922447e+001 3.750000e+000
      vertex   5.240904e+001 9.040615e+001 7.500000e+000
      vertex   5.127090e+001 8.804279e+001 7.500000e+000
    endloop
  endfacet
  facet normal 9.807858e-001 -1.950876e-001 4.990192e-007
    outer loop
      vertex   4.051418e+001 9.227402e+001 3.750000e+000
      vertex   4.062836e+001 9.284805e+001 7.500000e+000
      vertex   4.040000e+001 9.170000e+001 7.500000e+000
    endloop
  endfacet
  facet normal 9.009682e-001 4.338853e-001 2.423748e-008
    outer loop
      vertex   5.183997e+001 9.677553e+001 3.750000e+000
      vertex   5.127090e+001 9.795721e+001 7.500000e+000
      vertex   5.240904e+001 9.559385e+001 7.500000e+000
    endloop
  endfacet
  facet normal 7.330526e-001 -6.801719e-001 1.066446e-006
    outer loop
      vertex   5.037881e+001 8.708133e+001 3.750000e+000
      vertex   5.127090e+001 8.804279e+001 7.500000e+000
      vertex   4.948671e+001 8.611988e+001 7.500000e+000
    endloop
  endfacet
  facet normal 8.314688e-001 -5.555716e-001 4.277337e-007
    outer loop
      vertex   4.095352e+001 9.333469e+001 3.750000e+000
      vertex   4.127868e+001 9.382132e+001 7.500000e+000
      vertex   4.062836e+001 9.284805e+001 7.500000e+000
    endloop
  endfacet
  facet normal 0.000000e+000 0.000000e+000 1.000000e+000
    outer loop
      vertex   4.225195e+001 9.447164e+001 7.500000e+000
      vertex   3.754914e+001 9.898552e+001 7.500000e+000
      vertex   4.127868e+001 9.382132e+001 7.500000e+000
    endloop
  endfacet
  facet normal 0.000000e+000 0.000000e+000 1.000000e+000
    outer loop
      vertex   4.204182e+001 8.442063e+001 7.500000e+000
      vertex   3.607147e+001 8.918182e+001 7.500000e+000
      vertex   3.960000e+001 8.537897e+001 7.500000e+000
    endloop
  endfacet
  facet normal -0.000000e+000 -0.000000e+000 1.000000e+000
    outer loop
      vertex   3.529829e+001 9.168843e+001 7.500000e+000
      vertex   3.607147e+001 8.918182e+001 7.500000e+000
      vertex   4.204182e+001 8.442063e+001 7.500000e+000
    endloop
  endfacet
  facet normal 0.000000e+000 0.000000e+000 1.000000e+000
    outer loop
      vertex   4.465762e+001 8.422461e+001 7.500000e+000
      vertex   3.529829e+001 9.168843e+001 7.500000e+000
      vertex   4.204182e+001 8.442063e+001 7.500000e+000
    endloop
  endfacet
  facet normal -0.000000e+000 0.000000e+000 1.000000e+000
    outer loop
      vertex   3.529829e+001 9.431157e+001 7.500000e+000
      vertex   3.529829e+001 9.168843e+001 7.500000e+000
      vertex   4.465762e+001 8.422461e+001 7.500000e+000
    endloop
  endfacet
  facet normal 0.000000e+000 0.000000e+000 1.000000e+000
    outer loop
      vertex   4.127868e+001 8.957868e+001 7.500000e+000
      vertex   3.529829e+001 9.431157e+001 7.500000e+000
      vertex   4.465762e+001 8.422461e+001 7.500000e+000
    endloop
  endfacet
  facet normal 0.000000e+000 0.000000e+000 1.000000e+000
    outer loop
      vertex   4.062836e+001 9.055195e+001 7.500000e+000
      vertex   3.529829e+001 9.431157e+001 7.500000e+000
      vertex   4.127868e+001 8.957868e+001 7.500000e+000
    endloop
  endfacet
  facet normal 0.000000e+000 0.000000e+000 1.000000e+000
    outer loop
      vertex   4.225195e+001 8.892836e+001 7.500000e+000
      vertex   4.127868e+001 8.957868e+001 7.500000e+000
      vertex   4.465762e+001 8.422461e+001 7.500000e+000
    endloop
  endfacet
  facet normal 0.000000e+000 0.000000e+000 1.000000e+000
    outer loop
      vertex   4.040000e+001 9.170000e+001 7.500000e+000
      vertex   3.529829e+001 9.431157e+001 7.500000e+000
      vertex   4.062836e+001 9.055195e+001 7.500000e+000
    endloop
  endfacet
  facet normal 0.000000e+000 0.000000e+000 1.000000e+000
    outer loop
      vertex   4.340000e+001 8.870000e+001 7.500000e+000
      vertex   4.225195e+001 8.892836e+001 7.500000e+000
      vertex   4.465762e+001 8.422461e+001 7.500000e+000
    endloop
  endfacet
  facet normal 0.000000e+000 0.000000e+000 1.000000e+000
    outer loop
      vertex   4.721500e+001 8.480831e+001 7.500000e+000
      vertex   4.340000e+001 8.870000e+001 7.500000e+000
      vertex   4.465762e+001 8.422461e+001 7.500000e+000
    endloop
  endfacet
  facet normal -0.000000e+000 0.000000e+000 1.000000e+000
    outer loop
      vertex   3.607147e+001 9.681818e+001 7.500000e+000
      vertex   3.529829e+001 9.431157e+001 7.500000e+000
      vertex   4.040000e+001 9.170000e+001 7.500000e+000
    endloop
  endfacet
  facet normal 0.000000e+000 0.000000e+000 1.000000e+000
    outer loop
      vertex   4.062836e+001 9.284805e+001 7.500000e+000
      vertex   3.607147e+001 9.681818e+001 7.500000e+000
      vertex   4.040000e+001 9.170000e+001 7.500000e+000
    endloop
  endfacet
  facet normal -0.000000e+000 0.000000e+000 1.000000e+000
    outer loop
      vertex   4.454805e+001 8.892836e+001 7.500000e+000
      vertex   4.340000e+001 8.870000e+001 7.500000e+000
      vertex   4.721500e+001 8.480831e+001 7.500000e+000
    endloop
  endfacet
  facet normal 0.000000e+000 0.000000e+000 1.000000e+000
    outer loop
      vertex   4.127868e+001 9.382132e+001 7.500000e+000
      vertex   3.607147e+001 9.681818e+001 7.500000e+000
      vertex   4.062836e+001 9.284805e+001 7.500000e+000
    endloop
  endfacet
  facet normal -0.000000e+000 0.000000e+000 1.000000e+000
    outer loop
      vertex   4.552132e+001 8.957868e+001 7.500000e+000
      vertex   4.454805e+001 8.892836e+001 7.500000e+000
      vertex   4.721500e+001 8.480831e+001 7.500000e+000
    endloop
  endfacet
  facet normal 0.000000e+000 0.000000e+000 1.000000e+000
    outer loop
      vertex   4.948671e+001 8.611988e+001 7.500000e+000
      vertex   4.552132e+001 8.957868e+001 7.500000e+000
      vertex   4.721500e+001 8.480831e+001 7.500000e+000
    endloop
  endfacet
  facet normal -0.000000e+000 0.000000e+000 1.000000e+000
    outer loop
      vertex   3.754914e+001 9.898552e+001 7.500000e+000
      vertex   3.607147e+001 9.681818e+001 7.500000e+000
      vertex   4.127868e+001 9.382132e+001 7.500000e+000
    endloop
  endfacet
  facet normal -0.000000e+000 -0.000000e+000 1.000000e+000
    outer loop
      vertex   3.607147e+001 8.918182e+001 7.500000e+000
      vertex   3.754914e+001 8.701448e+001 7.500000e+000
      vertex   3.960000e+001 8.537897e+001 7.500000e+000
    endloop
  endfacet
  facet normal -0.000000e+000 0.000000e+000 1.000000e+000
    outer loop
      vertex   4.617164e+001 9.055195e+001 7.500000e+000
      vertex   4.552132e+001 8.957868e+001 7.500000e+000
      vertex   4.948671e+001 8.611988e+001 7.500000e+000
    endloop
  endfacet
  facet normal 0.000000e+000 0.000000e+000 1.000000e+000
    outer loop
      vertex   4.340000e+001 9.470000e+001 7.500000e+000
      vertex   3.754914e+001 9.898552e+001 7.500000e+000
      vertex   4.225195e+001 9.447164e+001 7.500000e+000
    endloop
  endfacet
  facet normal -0.000000e+000 0.000000e+000 1.000000e+000
    outer loop
      vertex   4.640000e+001 9.170000e+001 7.500000e+000
      vertex   4.617164e+001 9.055195e+001 7.500000e+000
      vertex   4.948671e+001 8.611988e+001 7.500000e+000
    endloop
  endfacet
  facet normal 0.000000e+000 0.000000e+000 1.000000e+000
    outer loop
      vertex   4.454805e+001 9.447164e+001 7.500000e+000
      vertex   3.754914e+001 9.898552e+001 7.500000e+000
      vertex   4.340000e+001 9.470000e+001 7.500000e+000
    endloop
  endfacet
  facet normal -0.000000e+000 -0.000000e+000 1.000000e+000
    outer loop
      vertex   4.617164e+001 9.284805e+001 7.500000e+000
      vertex   4.640000e+001 9.170000e+001 7.500000e+000
      vertex   4.948671e+001 8.611988e+001 7.500000e+000
    endloop
  endfacet
  facet normal 0.000000e+000 0.000000e+000 1.000000e+000
    outer loop
      vertex   5.127090e+001 8.804279e+001 7.500000e+000
      vertex   4.552132e+001 9.382132e+001 7.500000e+000
      vertex   4.617164e+001 9.284805e+001 7.500000e+000
    endloop
  endfacet
  facet normal 0.000000e+000 0.000000e+000 1.000000e+000
    outer loop
      vertex   5.127090e+001 8.804279e+001 7.500000e+000
      vertex   4.617164e+001 9.284805e+001 7.500000e+000
      vertex   4.948671e+001 8.611988e+001 7.500000e+000
    endloop
  endfacet
  facet normal -0.000000e+000 -0.000000e+000 1.000000e+000
    outer loop
      vertex   3.960000e+001 1.006210e+002 7.500000e+000
      vertex   4.552132e+001 9.382132e+001 7.500000e+000
      vertex   5.127090e+001 8.804279e+001 7.500000e+000
    endloop
  endfacet
  facet normal -0.000000e+000 -0.000000e+000 1.000000e+000
    outer loop
      vertex   3.960000e+001 1.006210e+002 7.500000e+000
      vertex   4.454805e+001 9.447164e+001 7.500000e+000
      vertex   4.552132e+001 9.382132e+001 7.500000e+000
    endloop
  endfacet
  facet normal -0.000000e+000 0.000000e+000 1.000000e+000
    outer loop
      vertex   3.960000e+001 1.006210e+002 7.500000e+000
      vertex   3.754914e+001 9.898552e+001 7.500000e+000
      vertex   4.454805e+001 9.447164e+001 7.500000e+000
    endloop
  endfacet
  facet normal 0.000000e+000 0.000000e+000 1.000000e+000
    outer loop
      vertex   5.240904e+001 9.040615e+001 7.500000e+000
      vertex   3.960000e+001 1.006210e+002 7.500000e+000
      vertex   5.127090e+001 8.804279e+001 7.500000e+000
    endloop
  endfacet
  facet normal -0.000000e+000 0.000000e+000 1.000000e+000
    outer loop
      vertex   4.204182e+001 1.015794e+002 7.500000e+000
      vertex   3.960000e+001 1.006210e+002 7.500000e+000
      vertex   5.240904e+001 9.040615e+001 7.500000e+000
    endloop
  endfacet
  facet normal 0.000000e+000 0.000000e+000 1.000000e+000
    outer loop
      vertex   5.280000e+001 9.300000e+001 7.500000e+000
      vertex   4.204182e+001 1.015794e+002 7.500000e+000
      vertex   5.240904e+001 9.040615e+001 7.500000e+000
    endloop
  endfacet
  facet normal -0.000000e+000 0.000000e+000 1.000000e+000
    outer loop
      vertex   4.465762e+001 1.017754e+002 7.500000e+000
      vertex   4.204182e+001 1.015794e+002 7.500000e+000
      vertex   5.280000e+001 9.300000e+001 7.500000e+000
    endloop
  endfacet
  facet normal 0.000000e+000 0.000000e+000 1.000000e+000
    outer loop
      vertex   5.240904e+001 9.559385e+001 7.500000e+000
      vertex   4.465762e+001 1.017754e+002 7.500000e+000
      vertex   5.280000e+001 9.300000e+001 7.500000e+000
    endloop
  endfacet
  facet normal 0.000000e+000 0.000000e+000 1.000000e+000
    outer loop
      vertex   4.721500e+001 1.011917e+002 7.500000e+000
      vertex   4.465762e+001 1.017754e+002 7.500000e+000
      vertex   5.240904e+001 9.559385e+001 7.500000e+000
    endloop
  endfacet
  facet normal 0.000000e+000 0.000000e+000 1.000000e+000
    outer loop
      vertex   5.127090e+001 9.795721e+001 7.500000e+000
      vertex   4.721500e+001 1.011917e+002 7.500000e+000
      vertex   5.240904e+001 9.559385e+001 7.500000e+000
    endloop
  endfacet
  facet normal 0.000000e+000 0.000000e+000 1.000000e+000
    outer loop
      vertex   4.948671e+001 9.988012e+001 7.500000e+000
      vertex   4.721500e+001 1.011917e+002 7.500000e+000
      vertex   5.127090e+001 9.795721e+001 7.500000e+000
    endloop
  endfacet
endsolid
