solid ascii
  facet normal -9.555728e-001 -2.947551e-001 0.000000e+000
    outer loop
      vertex   5.684881e+000 9.043513e+001 3.750000e+000
      vertex   6.071474e+000 8.918182e+001 0.000000e+000
      vertex   6.071474e+000 8.918182e+001 7.500000e+000
    endloop
  endfacet
  facet normal -9.807852e-001 -1.950907e-001 0.000000e+000
    outer loop
      vertex   1.608582e+001 9.227402e+001 3.750000e+000
      vertex   1.620000e+001 9.170000e+001 0.000000e+000
      vertex   1.620000e+001 9.170000e+001 7.500000e+000
    endloop
  endfacet
  facet normal -6.234919e-001 7.818298e-001 0.000000e+000
    outer loop
      vertex   8.574572e+000 9.980327e+001 3.750000e+000
      vertex   9.600000e+000 1.006210e+002 7.500000e+000
      vertex   9.600000e+000 1.006210e+002 0.000000e+000
    endloop
  endfacet
  facet normal -9.807855e-001 -1.950892e-001 -0.000000e+000
    outer loop
      vertex   1.608582e+001 9.227402e+001 3.750000e+000
      vertex   1.597164e+001 9.284805e+001 7.500000e+000
      vertex   1.597164e+001 9.284805e+001 0.000000e+000
    endloop
  endfacet
  facet normal -8.314688e-001 -5.555716e-001 0.000000e+000
    outer loop
      vertex   1.564648e+001 9.333469e+001 3.750000e+000
      vertex   1.532132e+001 9.382132e+001 0.000000e+000
      vertex   1.597164e+001 9.284805e+001 0.000000e+000
    endloop
  endfacet
  facet normal -8.314688e-001 -5.555716e-001 0.000000e+000
    outer loop
      vertex   1.564648e+001 9.333469e+001 3.750000e+000
      vertex   1.597164e+001 9.284805e+001 0.000000e+000
      vertex   1.597164e+001 9.284805e+001 7.500000e+000
    endloop
  endfacet
  facet normal -6.234885e-001 7.818325e-001 0.000000e+000
    outer loop
      vertex   8.574572e+000 9.980327e+001 3.750000e+000
      vertex   7.549143e+000 9.898552e+001 0.000000e+000
      vertex   7.549143e+000 9.898552e+001 7.500000e+000
    endloop
  endfacet
  facet normal -8.314688e-001 -5.555716e-001 -0.000000e+000
    outer loop
      vertex   1.564648e+001 9.333469e+001 3.750000e+000
      vertex   1.532132e+001 9.382132e+001 7.500000e+000
      vertex   1.532132e+001 9.382132e+001 0.000000e+000
    endloop
  endfacet
  facet normal -5.555723e-001 -8.314682e-001 8.418848e-007
    outer loop
      vertex   1.483469e+001 9.414648e+001 3.750000e+000
      vertex   1.434805e+001 9.447164e+001 0.000000e+000
      vertex   1.532132e+001 9.382132e+001 0.000000e+000
    endloop
  endfacet
  facet normal -5.555768e-001 -8.314652e-001 0.000000e+000
    outer loop
      vertex   1.483469e+001 9.414648e+001 3.750000e+000
      vertex   1.532132e+001 9.382132e+001 0.000000e+000
      vertex   1.532132e+001 9.382132e+001 7.500000e+000
    endloop
  endfacet
  facet normal -8.262387e-001 5.633201e-001 0.000000e+000
    outer loop
      vertex   6.810308e+000 9.790185e+001 3.750000e+000
      vertex   7.549143e+000 9.898552e+001 7.500000e+000
      vertex   7.549143e+000 9.898552e+001 0.000000e+000
    endloop
  endfacet
  facet normal -5.555677e-001 -8.314712e-001 -0.000000e+000
    outer loop
      vertex   1.483469e+001 9.414648e+001 3.750000e+000
      vertex   1.434805e+001 9.447164e+001 7.500000e+000
      vertex   1.434805e+001 9.447164e+001 0.000000e+000
    endloop
  endfacet
  facet normal -1.950854e-001 -9.807863e-001 -9.980439e-007
    outer loop
      vertex   1.377402e+001 9.458582e+001 3.750000e+000
      vertex   1.320000e+001 9.470000e+001 0.000000e+000
      vertex   1.434805e+001 9.447164e+001 0.000000e+000
    endloop
  endfacet
  facet normal -1.950791e-001 -9.807875e-001 0.000000e+000
    outer loop
      vertex   1.377402e+001 9.458582e+001 3.750000e+000
      vertex   1.434805e+001 9.447164e+001 0.000000e+000
      vertex   1.434805e+001 9.447164e+001 7.500000e+000
    endloop
  endfacet
  facet normal -8.262389e-001 5.633199e-001 0.000000e+000
    outer loop
      vertex   6.810308e+000 9.790185e+001 3.750000e+000
      vertex   6.071474e+000 9.681818e+001 0.000000e+000
      vertex   6.071474e+000 9.681818e+001 7.500000e+000
    endloop
  endfacet
  facet normal -1.950917e-001 -9.807850e-001 -0.000000e+000
    outer loop
      vertex   1.377402e+001 9.458582e+001 3.750000e+000
      vertex   1.320000e+001 9.470000e+001 7.500000e+000
      vertex   1.320000e+001 9.470000e+001 0.000000e+000
    endloop
  endfacet
  facet normal 1.950854e-001 -9.807863e-001 -9.980439e-007
    outer loop
      vertex   1.262597e+001 9.458582e+001 3.750000e+000
      vertex   1.205195e+001 9.447164e+001 0.000000e+000
      vertex   1.320000e+001 9.470000e+001 0.000000e+000
    endloop
  endfacet
  facet normal 1.950917e-001 -9.807850e-001 0.000000e+000
    outer loop
      vertex   1.262597e+001 9.458582e+001 3.750000e+000
      vertex   1.320000e+001 9.470000e+001 0.000000e+000
      vertex   1.320000e+001 9.470000e+001 7.500000e+000
    endloop
  endfacet
  facet normal -9.555728e-001 2.947551e-001 0.000000e+000
    outer loop
      vertex   5.684881e+000 9.556487e+001 3.750000e+000
      vertex   6.071474e+000 9.681818e+001 7.500000e+000
      vertex   6.071474e+000 9.681818e+001 0.000000e+000
    endloop
  endfacet
  facet normal 1.950791e-001 -9.807875e-001 0.000000e+000
    outer loop
      vertex   1.262597e+001 9.458582e+001 3.750000e+000
      vertex   1.205195e+001 9.447164e+001 7.500000e+000
      vertex   1.205195e+001 9.447164e+001 0.000000e+000
    endloop
  endfacet
  facet normal 5.555726e-001 -8.314680e-001 7.807808e-007
    outer loop
      vertex   1.156532e+001 9.414648e+001 3.750000e+000
      vertex   1.107868e+001 9.382132e+001 0.000000e+000
      vertex   1.205195e+001 9.447164e+001 0.000000e+000
    endloop
  endfacet
  facet normal 5.555685e-001 -8.314708e-001 0.000000e+000
    outer loop
      vertex   1.156532e+001 9.414648e+001 3.750000e+000
      vertex   1.205195e+001 9.447164e+001 0.000000e+000
      vertex   1.205195e+001 9.447164e+001 7.500000e+000
    endloop
  endfacet
  facet normal -9.555729e-001 2.947548e-001 0.000000e+000
    outer loop
      vertex   5.684881e+000 9.556487e+001 3.750000e+000
      vertex   5.298289e+000 9.431157e+001 0.000000e+000
      vertex   5.298289e+000 9.431157e+001 7.500000e+000
    endloop
  endfacet
  facet normal 5.555768e-001 -8.314652e-001 0.000000e+000
    outer loop
      vertex   1.156532e+001 9.414648e+001 3.750000e+000
      vertex   1.107868e+001 9.382132e+001 7.500000e+000
      vertex   1.107868e+001 9.382132e+001 0.000000e+000
    endloop
  endfacet
  facet normal 8.314684e-001 -5.555721e-001 -1.086307e-007
    outer loop
      vertex   1.075352e+001 9.333469e+001 3.750000e+000
      vertex   1.042836e+001 9.284805e+001 0.000000e+000
      vertex   1.107868e+001 9.382132e+001 0.000000e+000
    endloop
  endfacet
  facet normal 8.314688e-001 -5.555716e-001 0.000000e+000
    outer loop
      vertex   1.075352e+001 9.333469e+001 3.750000e+000
      vertex   1.107868e+001 9.382132e+001 0.000000e+000
      vertex   1.107868e+001 9.382132e+001 7.500000e+000
    endloop
  endfacet
  facet normal -1.000000e+000 0.000000e+000 -0.000000e+000
    outer loop
      vertex   5.298289e+000 9.300000e+001 3.750000e+000
      vertex   5.298289e+000 9.431157e+001 7.500000e+000
      vertex   5.298289e+000 9.431157e+001 0.000000e+000
    endloop
  endfacet
  facet normal 8.314680e-001 -5.555727e-001 0.000000e+000
    outer loop
      vertex   1.075352e+001 9.333469e+001 3.750000e+000
      vertex   1.042836e+001 9.284805e+001 7.500000e+000
      vertex   1.042836e+001 9.284805e+001 0.000000e+000
    endloop
  endfacet
  facet normal 9.807855e-001 -1.950892e-001 0.000000e+000
    outer loop
      vertex   1.031418e+001 9.227402e+001 3.750000e+000
      vertex   1.020000e+001 9.170000e+001 0.000000e+000
      vertex   1.042836e+001 9.284805e+001 0.000000e+000
    endloop
  endfacet
  facet normal 9.807855e-001 -1.950892e-001 0.000000e+000
    outer loop
      vertex   1.031418e+001 9.227402e+001 3.750000e+000
      vertex   1.042836e+001 9.284805e+001 0.000000e+000
      vertex   1.042836e+001 9.284805e+001 7.500000e+000
    endloop
  endfacet
  facet normal -1.000000e+000 0.000000e+000 0.000000e+000
    outer loop
      vertex   5.298289e+000 9.300000e+001 3.750000e+000
      vertex   5.298289e+000 9.168843e+001 0.000000e+000
      vertex   5.298289e+000 9.168843e+001 7.500000e+000
    endloop
  endfacet
  facet normal 9.807855e-001 -1.950892e-001 0.000000e+000
    outer loop
      vertex   1.031418e+001 9.227402e+001 3.750000e+000
      vertex   1.020000e+001 9.170000e+001 7.500000e+000
      vertex   1.020000e+001 9.170000e+001 0.000000e+000
    endloop
  endfacet
  facet normal 9.807853e-001 1.950904e-001 -1.968931e-007
    outer loop
      vertex   1.031418e+001 9.112598e+001 3.750000e+000
      vertex   1.042836e+001 9.055195e+001 0.000000e+000
      vertex   1.020000e+001 9.170000e+001 0.000000e+000
    endloop
  endfacet
  facet normal 9.807850e-001 1.950916e-001 -0.000000e+000
    outer loop
      vertex   1.031418e+001 9.112598e+001 3.750000e+000
      vertex   1.020000e+001 9.170000e+001 0.000000e+000
      vertex   1.020000e+001 9.170000e+001 7.500000e+000
    endloop
  endfacet
  facet normal -9.555729e-001 -2.947548e-001 -0.000000e+000
    outer loop
      vertex   5.684881e+000 9.043513e+001 3.750000e+000
      vertex   5.298289e+000 9.168843e+001 7.500000e+000
      vertex   5.298289e+000 9.168843e+001 0.000000e+000
    endloop
  endfacet
  facet normal 9.807855e-001 1.950892e-001 0.000000e+000
    outer loop
      vertex   1.031418e+001 9.112598e+001 3.750000e+000
      vertex   1.042836e+001 9.055195e+001 7.500000e+000
      vertex   1.042836e+001 9.055195e+001 0.000000e+000
    endloop
  endfacet
  facet normal 8.314684e-001 5.555721e-001 -1.018413e-007
    outer loop
      vertex   1.075352e+001 9.006532e+001 3.750000e+000
      vertex   1.107868e+001 8.957868e+001 0.000000e+000
      vertex   1.042836e+001 9.055195e+001 0.000000e+000
    endloop
  endfacet
  facet normal 8.314680e-001 5.555727e-001 -0.000000e+000
    outer loop
      vertex   1.075352e+001 9.006532e+001 3.750000e+000
      vertex   1.042836e+001 9.055195e+001 0.000000e+000
      vertex   1.042836e+001 9.055195e+001 7.500000e+000
    endloop
  endfacet
  facet normal -9.807853e-001 -1.950899e-001 -1.256034e-007
    outer loop
      vertex   1.608582e+001 9.227402e+001 3.750000e+000
      vertex   1.597164e+001 9.284805e+001 0.000000e+000
      vertex   1.620000e+001 9.170000e+001 0.000000e+000
    endloop
  endfacet
  facet normal 8.314688e-001 5.555716e-001 0.000000e+000
    outer loop
      vertex   1.075352e+001 9.006532e+001 3.750000e+000
      vertex   1.107868e+001 8.957868e+001 7.500000e+000
      vertex   1.107868e+001 8.957868e+001 0.000000e+000
    endloop
  endfacet
  facet normal 5.555726e-001 8.314680e-001 -9.165688e-007
    outer loop
      vertex   1.156532e+001 8.925352e+001 3.750000e+000
      vertex   1.205195e+001 8.892836e+001 0.000000e+000
      vertex   1.107868e+001 8.957868e+001 0.000000e+000
    endloop
  endfacet
  facet normal 5.555677e-001 8.314712e-001 -0.000000e+000
    outer loop
      vertex   1.156532e+001 8.925352e+001 3.750000e+000
      vertex   1.107868e+001 8.957868e+001 0.000000e+000
      vertex   1.107868e+001 8.957868e+001 7.500000e+000
    endloop
  endfacet
  facet normal -8.262389e-001 -5.633199e-001 -0.000000e+000
    outer loop
      vertex   6.810308e+000 8.809815e+001 3.750000e+000
      vertex   6.071474e+000 8.918182e+001 7.500000e+000
      vertex   6.071474e+000 8.918182e+001 0.000000e+000
    endloop
  endfacet
  facet normal 5.555775e-001 8.314647e-001 0.000000e+000
    outer loop
      vertex   1.156532e+001 8.925352e+001 3.750000e+000
      vertex   1.205195e+001 8.892836e+001 7.500000e+000
      vertex   1.205195e+001 8.892836e+001 0.000000e+000
    endloop
  endfacet
  facet normal 1.950917e-001 9.807850e-001 0.000000e+000
    outer loop
      vertex   1.262597e+001 8.881418e+001 3.750000e+000
      vertex   1.320000e+001 8.870000e+001 0.000000e+000
      vertex   1.205195e+001 8.892836e+001 0.000000e+000
    endloop
  endfacet
  facet normal 1.950917e-001 9.807850e-001 -0.000000e+000
    outer loop
      vertex   1.262597e+001 8.881418e+001 3.750000e+000
      vertex   1.205195e+001 8.892836e+001 0.000000e+000
      vertex   1.205195e+001 8.892836e+001 7.500000e+000
    endloop
  endfacet
  facet normal -8.262387e-001 -5.633201e-001 0.000000e+000
    outer loop
      vertex   6.810308e+000 8.809815e+001 3.750000e+000
      vertex   7.549143e+000 8.701448e+001 0.000000e+000
      vertex   7.549143e+000 8.701448e+001 7.500000e+000
    endloop
  endfacet
  facet normal 1.950917e-001 9.807850e-001 0.000000e+000
    outer loop
      vertex   1.262597e+001 8.881418e+001 3.750000e+000
      vertex   1.320000e+001 8.870000e+001 7.500000e+000
      vertex   1.320000e+001 8.870000e+001 0.000000e+000
    endloop
  endfacet
  facet normal -1.950917e-001 9.807850e-001 0.000000e+000
    outer loop
      vertex   1.377402e+001 8.881418e+001 3.750000e+000
      vertex   1.434805e+001 8.892836e+001 0.000000e+000
      vertex   1.320000e+001 8.870000e+001 0.000000e+000
    endloop
  endfacet
  facet normal -1.950917e-001 9.807850e-001 0.000000e+000
    outer loop
      vertex   1.377402e+001 8.881418e+001 3.750000e+000
      vertex   1.320000e+001 8.870000e+001 0.000000e+000
      vertex   1.320000e+001 8.870000e+001 7.500000e+000
    endloop
  endfacet
  facet normal -6.234885e-001 -7.818325e-001 -0.000000e+000
    outer loop
      vertex   8.574572e+000 8.619673e+001 3.750000e+000
      vertex   7.549143e+000 8.701448e+001 7.500000e+000
      vertex   7.549143e+000 8.701448e+001 0.000000e+000
    endloop
  endfacet
  facet normal -1.950917e-001 9.807850e-001 0.000000e+000
    outer loop
      vertex   1.377402e+001 8.881418e+001 3.750000e+000
      vertex   1.434805e+001 8.892836e+001 7.500000e+000
      vertex   1.434805e+001 8.892836e+001 0.000000e+000
    endloop
  endfacet
  facet normal -5.555723e-001 8.314682e-001 -8.418848e-007
    outer loop
      vertex   1.483469e+001 8.925352e+001 3.750000e+000
      vertex   1.532132e+001 8.957868e+001 0.000000e+000
      vertex   1.434805e+001 8.892836e+001 0.000000e+000
    endloop
  endfacet
  facet normal -5.555768e-001 8.314652e-001 0.000000e+000
    outer loop
      vertex   1.483469e+001 8.925352e+001 3.750000e+000
      vertex   1.434805e+001 8.892836e+001 0.000000e+000
      vertex   1.434805e+001 8.892836e+001 7.500000e+000
    endloop
  endfacet
  facet normal -6.234919e-001 -7.818298e-001 0.000000e+000
    outer loop
      vertex   8.574572e+000 8.619673e+001 3.750000e+000
      vertex   9.600000e+000 8.537897e+001 0.000000e+000
      vertex   9.600000e+000 8.537897e+001 7.500000e+000
    endloop
  endfacet
  facet normal -5.555677e-001 8.314712e-001 0.000000e+000
    outer loop
      vertex   1.483469e+001 8.925352e+001 3.750000e+000
      vertex   1.532132e+001 8.957868e+001 7.500000e+000
      vertex   1.532132e+001 8.957868e+001 0.000000e+000
    endloop
  endfacet
  facet normal -8.314688e-001 5.555716e-001 0.000000e+000
    outer loop
      vertex   1.564648e+001 9.006532e+001 3.750000e+000
      vertex   1.597164e+001 9.055195e+001 0.000000e+000
      vertex   1.532132e+001 8.957868e+001 0.000000e+000
    endloop
  endfacet
  facet normal -8.314688e-001 5.555716e-001 0.000000e+000
    outer loop
      vertex   1.564648e+001 9.006532e+001 3.750000e+000
      vertex   1.532132e+001 8.957868e+001 0.000000e+000
      vertex   1.532132e+001 8.957868e+001 7.500000e+000
    endloop
  endfacet
  facet normal -3.653417e-001 -9.308735e-001 -0.000000e+000
    outer loop
      vertex   1.082091e+001 8.489980e+001 3.750000e+000
      vertex   9.600000e+000 8.537897e+001 7.500000e+000
      vertex   9.600000e+000 8.537897e+001 0.000000e+000
    endloop
  endfacet
  facet normal -8.314688e-001 5.555716e-001 0.000000e+000
    outer loop
      vertex   1.564648e+001 9.006532e+001 3.750000e+000
      vertex   1.597164e+001 9.055195e+001 7.500000e+000
      vertex   1.597164e+001 9.055195e+001 0.000000e+000
    endloop
  endfacet
  facet normal -9.807851e-001 1.950912e-001 -3.224973e-007
    outer loop
      vertex   1.608582e+001 9.112598e+001 3.750000e+000
      vertex   1.620000e+001 9.170000e+001 0.000000e+000
      vertex   1.597164e+001 9.055195e+001 0.000000e+000
    endloop
  endfacet
  facet normal -9.807855e-001 1.950892e-001 0.000000e+000
    outer loop
      vertex   1.608582e+001 9.112598e+001 3.750000e+000
      vertex   1.597164e+001 9.055195e+001 0.000000e+000
      vertex   1.597164e+001 9.055195e+001 7.500000e+000
    endloop
  endfacet
  facet normal -3.653415e-001 -9.308736e-001 0.000000e+000
    outer loop
      vertex   1.082091e+001 8.489980e+001 3.750000e+000
      vertex   1.204182e+001 8.442063e+001 0.000000e+000
      vertex   1.204182e+001 8.442063e+001 7.500000e+000
    endloop
  endfacet
  facet normal -9.807847e-001 1.950932e-001 0.000000e+000
    outer loop
      vertex   1.608582e+001 9.112598e+001 3.750000e+000
      vertex   1.620000e+001 9.170000e+001 7.500000e+000
      vertex   1.620000e+001 9.170000e+001 0.000000e+000
    endloop
  endfacet
  facet normal 0.000000e+000 0.000000e+000 -1.000000e+000
    outer loop
      vertex   2.127090e+001 9.795721e+001 0.000000e+000
      vertex   2.240904e+001 9.559385e+001 0.000000e+000
      vertex   1.721500e+001 1.011917e+002 0.000000e+000
    endloop
  endfacet
  facet normal 9.888307e-001 1.490430e-001 0.000000e+000
    outer loop
      vertex   2.260452e+001 9.429692e+001 3.750000e+000
      vertex   2.280000e+001 9.300000e+001 7.500000e+000
      vertex   2.280000e+001 9.300000e+001 0.000000e+000
    endloop
  endfacet
  facet normal 9.888309e-001 1.490419e-001 3.999172e-007
    outer loop
      vertex   2.260452e+001 9.429692e+001 3.750000e+000
      vertex   2.280000e+001 9.300000e+001 0.000000e+000
      vertex   2.240904e+001 9.559385e+001 0.000000e+000
    endloop
  endfacet
  facet normal 9.888310e-001 1.490407e-001 -0.000000e+000
    outer loop
      vertex   2.260452e+001 9.429692e+001 3.750000e+000
      vertex   2.240904e+001 9.559385e+001 0.000000e+000
      vertex   2.240904e+001 9.559385e+001 7.500000e+000
    endloop
  endfacet
  facet normal -7.473081e-002 -9.972037e-001 -0.000000e+000
    outer loop
      vertex   1.334972e+001 8.432262e+001 3.750000e+000
      vertex   1.204182e+001 8.442063e+001 7.500000e+000
      vertex   1.204182e+001 8.442063e+001 0.000000e+000
    endloop
  endfacet
  facet normal 9.009675e-001 4.338864e-001 0.000000e+000
    outer loop
      vertex   2.183997e+001 9.677553e+001 3.750000e+000
      vertex   2.240904e+001 9.559385e+001 7.500000e+000
      vertex   2.240904e+001 9.559385e+001 0.000000e+000
    endloop
  endfacet
  facet normal 9.009684e-001 4.338847e-001 6.786496e-007
    outer loop
      vertex   2.183997e+001 9.677553e+001 3.750000e+000
      vertex   2.240904e+001 9.559385e+001 0.000000e+000
      vertex   2.127090e+001 9.795721e+001 0.000000e+000
    endloop
  endfacet
  facet normal 9.009693e-001 4.338830e-001 -0.000000e+000
    outer loop
      vertex   2.183997e+001 9.677553e+001 3.750000e+000
      vertex   2.127090e+001 9.795721e+001 0.000000e+000
      vertex   2.127090e+001 9.795721e+001 7.500000e+000
    endloop
  endfacet
  facet normal -7.472498e-002 -9.972042e-001 0.000000e+000
    outer loop
      vertex   1.334972e+001 8.432262e+001 3.750000e+000
      vertex   1.465763e+001 8.422461e+001 0.000000e+000
      vertex   1.465763e+001 8.422461e+001 7.500000e+000
    endloop
  endfacet
  facet normal 7.330539e-001 6.801705e-001 0.000000e+000
    outer loop
      vertex   2.037881e+001 9.891867e+001 3.750000e+000
      vertex   2.127090e+001 9.795721e+001 7.500000e+000
      vertex   2.127090e+001 9.795721e+001 0.000000e+000
    endloop
  endfacet
  facet normal 7.330526e-001 6.801719e-001 -6.907661e-007
    outer loop
      vertex   2.037881e+001 9.891867e+001 3.750000e+000
      vertex   2.127090e+001 9.795721e+001 0.000000e+000
      vertex   1.948671e+001 9.988012e+001 0.000000e+000
    endloop
  endfacet
  facet normal 7.330512e-001 6.801733e-001 -0.000000e+000
    outer loop
      vertex   2.037881e+001 9.891867e+001 3.750000e+000
      vertex   1.948671e+001 9.988012e+001 0.000000e+000
      vertex   1.948671e+001 9.988012e+001 7.500000e+000
    endloop
  endfacet
  facet normal 2.225229e-001 -9.749274e-001 0.000000e+000
    outer loop
      vertex   1.593631e+001 8.451646e+001 3.750000e+000
      vertex   1.465763e+001 8.422461e+001 7.500000e+000
      vertex   1.465763e+001 8.422461e+001 0.000000e+000
    endloop
  endfacet
  facet normal 4.999992e-001 8.660259e-001 0.000000e+000
    outer loop
      vertex   1.835085e+001 1.005359e+002 3.750000e+000
      vertex   1.948671e+001 9.988012e+001 7.500000e+000
      vertex   1.948671e+001 9.988012e+001 0.000000e+000
    endloop
  endfacet
  facet normal 4.999992e-001 8.660259e-001 0.000000e+000
    outer loop
      vertex   1.835085e+001 1.005359e+002 3.750000e+000
      vertex   1.948671e+001 9.988012e+001 0.000000e+000
      vertex   1.721500e+001 1.011917e+002 0.000000e+000
    endloop
  endfacet
  facet normal 4.999992e-001 8.660259e-001 -0.000000e+000
    outer loop
      vertex   1.835085e+001 1.005359e+002 3.750000e+000
      vertex   1.721500e+001 1.011917e+002 0.000000e+000
      vertex   1.721500e+001 1.011917e+002 7.500000e+000
    endloop
  endfacet
  facet normal 2.225174e-001 -9.749287e-001 0.000000e+000
    outer loop
      vertex   1.593631e+001 8.451646e+001 3.750000e+000
      vertex   1.721500e+001 8.480831e+001 0.000000e+000
      vertex   1.721500e+001 8.480831e+001 7.500000e+000
    endloop
  endfacet
  facet normal 2.225174e-001 9.749287e-001 0.000000e+000
    outer loop
      vertex   1.593631e+001 1.014835e+002 3.750000e+000
      vertex   1.721500e+001 1.011917e+002 7.500000e+000
      vertex   1.721500e+001 1.011917e+002 0.000000e+000
    endloop
  endfacet
  facet normal 2.225202e-001 9.749281e-001 9.876762e-007
    outer loop
      vertex   1.593631e+001 1.014835e+002 3.750000e+000
      vertex   1.721500e+001 1.011917e+002 0.000000e+000
      vertex   1.465763e+001 1.017754e+002 0.000000e+000
    endloop
  endfacet
  facet normal 2.225229e-001 9.749274e-001 -0.000000e+000
    outer loop
      vertex   1.593631e+001 1.014835e+002 3.750000e+000
      vertex   1.465763e+001 1.017754e+002 0.000000e+000
      vertex   1.465763e+001 1.017754e+002 7.500000e+000
    endloop
  endfacet
  facet normal 4.999992e-001 -8.660259e-001 0.000000e+000
    outer loop
      vertex   1.835085e+001 8.546410e+001 3.750000e+000
      vertex   1.721500e+001 8.480831e+001 7.500000e+000
      vertex   1.721500e+001 8.480831e+001 0.000000e+000
    endloop
  endfacet
  facet normal -7.472498e-002 9.972042e-001 0.000000e+000
    outer loop
      vertex   1.334972e+001 1.016774e+002 3.750000e+000
      vertex   1.465763e+001 1.017754e+002 7.500000e+000
      vertex   1.465763e+001 1.017754e+002 0.000000e+000
    endloop
  endfacet
  facet normal -7.472790e-002 9.972039e-001 -1.024032e-006
    outer loop
      vertex   1.334972e+001 1.016774e+002 3.750000e+000
      vertex   1.465763e+001 1.017754e+002 0.000000e+000
      vertex   1.204182e+001 1.015794e+002 0.000000e+000
    endloop
  endfacet
  facet normal -7.473081e-002 9.972037e-001 0.000000e+000
    outer loop
      vertex   1.334972e+001 1.016774e+002 3.750000e+000
      vertex   1.204182e+001 1.015794e+002 0.000000e+000
      vertex   1.204182e+001 1.015794e+002 7.500000e+000
    endloop
  endfacet
  facet normal 4.999992e-001 -8.660259e-001 0.000000e+000
    outer loop
      vertex   1.835085e+001 8.546410e+001 3.750000e+000
      vertex   1.948671e+001 8.611988e+001 0.000000e+000
      vertex   1.948671e+001 8.611988e+001 7.500000e+000
    endloop
  endfacet
  facet normal -3.653415e-001 9.308736e-001 0.000000e+000
    outer loop
      vertex   1.082091e+001 1.011002e+002 3.750000e+000
      vertex   1.204182e+001 1.015794e+002 7.500000e+000
      vertex   1.204182e+001 1.015794e+002 0.000000e+000
    endloop
  endfacet
  facet normal -3.653415e-001 9.308736e-001 -4.847487e-008
    outer loop
      vertex   1.082091e+001 1.011002e+002 3.750000e+000
      vertex   1.204182e+001 1.015794e+002 0.000000e+000
      vertex   9.600000e+000 1.006210e+002 0.000000e+000
    endloop
  endfacet
  facet normal -3.653417e-001 9.308735e-001 0.000000e+000
    outer loop
      vertex   1.082091e+001 1.011002e+002 3.750000e+000
      vertex   9.600000e+000 1.006210e+002 0.000000e+000
      vertex   9.600000e+000 1.006210e+002 7.500000e+000
    endloop
  endfacet
  facet normal 7.330512e-001 -6.801733e-001 0.000000e+000
    outer loop
      vertex   2.037881e+001 8.708133e+001 3.750000e+000
      vertex   1.948671e+001 8.611988e+001 7.500000e+000
      vertex   1.948671e+001 8.611988e+001 0.000000e+000
    endloop
  endfacet
  facet normal 0.000000e+000 0.000000e+000 -1.000000e+000
    outer loop
      vertex   1.948671e+001 9.988012e+001 0.000000e+000
      vertex   2.127090e+001 9.795721e+001 0.000000e+000
      vertex   1.721500e+001 1.011917e+002 0.000000e+000
    endloop
  endfacet
  facet normal -6.234903e-001 7.818312e-001 7.513601e-007
    outer loop
      vertex   8.574572e+000 9.980327e+001 3.750000e+000
      vertex   9.600000e+000 1.006210e+002 0.000000e+000
      vertex   7.549143e+000 9.898552e+001 0.000000e+000
    endloop
  endfacet
  facet normal 7.330526e-001 -6.801719e-001 -6.907661e-007
    outer loop
      vertex   2.037881e+001 8.708133e+001 3.750000e+000
      vertex   1.948671e+001 8.611988e+001 0.000000e+000
      vertex   2.127090e+001 8.804279e+001 0.000000e+000
    endloop
  endfacet
  facet normal 7.330539e-001 -6.801705e-001 0.000000e+000
    outer loop
      vertex   2.037881e+001 8.708133e+001 3.750000e+000
      vertex   2.127090e+001 8.804279e+001 0.000000e+000
      vertex   2.127090e+001 8.804279e+001 7.500000e+000
    endloop
  endfacet
  facet normal 0.000000e+000 0.000000e+000 -1.000000e+000
    outer loop
      vertex   1.465763e+001 1.017754e+002 0.000000e+000
      vertex   2.280000e+001 9.300000e+001 0.000000e+000
      vertex   1.204182e+001 1.015794e+002 0.000000e+000
    endloop
  endfacet
  facet normal -8.262388e-001 5.633200e-001 -6.059360e-008
    outer loop
      vertex   6.810308e+000 9.790185e+001 3.750000e+000
      vertex   7.549143e+000 9.898552e+001 0.000000e+000
      vertex   6.071474e+000 9.681818e+001 0.000000e+000
    endloop
  endfacet
  facet normal 0.000000e+000 0.000000e+000 -1.000000e+000
    outer loop
      vertex   2.240904e+001 9.559385e+001 0.000000e+000
      vertex   2.280000e+001 9.300000e+001 0.000000e+000
      vertex   1.465763e+001 1.017754e+002 0.000000e+000
    endloop
  endfacet
  facet normal 0.000000e+000 0.000000e+000 -1.000000e+000
    outer loop
      vertex   2.280000e+001 9.300000e+001 0.000000e+000
      vertex   2.240904e+001 9.040615e+001 0.000000e+000
      vertex   1.204182e+001 1.015794e+002 0.000000e+000
    endloop
  endfacet
  facet normal 0.000000e+000 0.000000e+000 -1.000000e+000
    outer loop
      vertex   1.204182e+001 1.015794e+002 0.000000e+000
      vertex   2.240904e+001 9.040615e+001 0.000000e+000
      vertex   9.600000e+000 1.006210e+002 0.000000e+000
    endloop
  endfacet
  facet normal -9.555729e-001 2.947550e-001 -6.059355e-008
    outer loop
      vertex   5.684881e+000 9.556487e+001 3.750000e+000
      vertex   6.071474e+000 9.681818e+001 0.000000e+000
      vertex   5.298289e+000 9.431157e+001 0.000000e+000
    endloop
  endfacet
  facet normal 0.000000e+000 0.000000e+000 -1.000000e+000
    outer loop
      vertex   9.600000e+000 1.006210e+002 0.000000e+000
      vertex   1.434805e+001 9.447164e+001 0.000000e+000
      vertex   7.549143e+000 9.898552e+001 0.000000e+000
    endloop
  endfacet
  facet normal 0.000000e+000 0.000000e+000 -1.000000e+000
    outer loop
      vertex   9.600000e+000 1.006210e+002 0.000000e+000
      vertex   1.532132e+001 9.382132e+001 0.000000e+000
      vertex   1.434805e+001 9.447164e+001 0.000000e+000
    endloop
  endfacet
  facet normal 0.000000e+000 0.000000e+000 -1.000000e+000
    outer loop
      vertex   9.600000e+000 1.006210e+002 0.000000e+000
      vertex   2.127090e+001 8.804279e+001 0.000000e+000
      vertex   1.532132e+001 9.382132e+001 0.000000e+000
    endloop
  endfacet
  facet normal -1.000000e+000 0.000000e+000 0.000000e+000
    outer loop
      vertex   5.298289e+000 9.300000e+001 3.750000e+000
      vertex   5.298289e+000 9.431157e+001 0.000000e+000
      vertex   5.298289e+000 9.168843e+001 0.000000e+000
    endloop
  endfacet
  facet normal 0.000000e+000 0.000000e+000 -1.000000e+000
    outer loop
      vertex   2.127090e+001 8.804279e+001 0.000000e+000
      vertex   1.948671e+001 8.611988e+001 0.000000e+000
      vertex   1.597164e+001 9.284805e+001 0.000000e+000
    endloop
  endfacet
  facet normal 0.000000e+000 0.000000e+000 -1.000000e+000
    outer loop
      vertex   2.127090e+001 8.804279e+001 0.000000e+000
      vertex   1.597164e+001 9.284805e+001 0.000000e+000
      vertex   1.532132e+001 9.382132e+001 0.000000e+000
    endloop
  endfacet
  facet normal 0.000000e+000 0.000000e+000 -1.000000e+000
    outer loop
      vertex   1.597164e+001 9.284805e+001 0.000000e+000
      vertex   1.948671e+001 8.611988e+001 0.000000e+000
      vertex   1.620000e+001 9.170000e+001 0.000000e+000
    endloop
  endfacet
  facet normal -9.555729e-001 -2.947550e-001 -6.059355e-008
    outer loop
      vertex   5.684881e+000 9.043513e+001 3.750000e+000
      vertex   5.298289e+000 9.168843e+001 0.000000e+000
      vertex   6.071474e+000 8.918182e+001 0.000000e+000
    endloop
  endfacet
  facet normal 0.000000e+000 0.000000e+000 -1.000000e+000
    outer loop
      vertex   1.434805e+001 9.447164e+001 0.000000e+000
      vertex   1.320000e+001 9.470000e+001 0.000000e+000
      vertex   7.549143e+000 9.898552e+001 0.000000e+000
    endloop
  endfacet
  facet normal 0.000000e+000 0.000000e+000 -1.000000e+000
    outer loop
      vertex   1.620000e+001 9.170000e+001 0.000000e+000
      vertex   1.948671e+001 8.611988e+001 0.000000e+000
      vertex   1.597164e+001 9.055195e+001 0.000000e+000
    endloop
  endfacet
  facet normal 0.000000e+000 0.000000e+000 -1.000000e+000
    outer loop
      vertex   1.320000e+001 9.470000e+001 0.000000e+000
      vertex   1.205195e+001 9.447164e+001 0.000000e+000
      vertex   7.549143e+000 9.898552e+001 0.000000e+000
    endloop
  endfacet
  facet normal -8.262388e-001 -5.633200e-001 -4.847488e-008
    outer loop
      vertex   6.810308e+000 8.809815e+001 3.750000e+000
      vertex   6.071474e+000 8.918182e+001 0.000000e+000
      vertex   7.549143e+000 8.701448e+001 0.000000e+000
    endloop
  endfacet
  facet normal 0.000000e+000 0.000000e+000 -1.000000e+000
    outer loop
      vertex   1.597164e+001 9.055195e+001 0.000000e+000
      vertex   1.948671e+001 8.611988e+001 0.000000e+000
      vertex   1.532132e+001 8.957868e+001 0.000000e+000
    endloop
  endfacet
  facet normal 9.009693e-001 -4.338830e-001 0.000000e+000
    outer loop
      vertex   2.183997e+001 8.922447e+001 3.750000e+000
      vertex   2.127090e+001 8.804279e+001 7.500000e+000
      vertex   2.127090e+001 8.804279e+001 0.000000e+000
    endloop
  endfacet
  facet normal 0.000000e+000 0.000000e+000 -1.000000e+000
    outer loop
      vertex   1.948671e+001 8.611988e+001 0.000000e+000
      vertex   1.721500e+001 8.480831e+001 0.000000e+000
      vertex   1.532132e+001 8.957868e+001 0.000000e+000
    endloop
  endfacet
  facet normal -6.234903e-001 -7.818312e-001 7.513601e-007
    outer loop
      vertex   8.574572e+000 8.619673e+001 3.750000e+000
      vertex   7.549143e+000 8.701448e+001 0.000000e+000
      vertex   9.600000e+000 8.537897e+001 0.000000e+000
    endloop
  endfacet
  facet normal 0.000000e+000 0.000000e+000 -1.000000e+000
    outer loop
      vertex   7.549143e+000 9.898552e+001 0.000000e+000
      vertex   1.107868e+001 9.382132e+001 0.000000e+000
      vertex   6.071474e+000 9.681818e+001 0.000000e+000
    endloop
  endfacet
  facet normal 0.000000e+000 0.000000e+000 -1.000000e+000
    outer loop
      vertex   1.532132e+001 8.957868e+001 0.000000e+000
      vertex   1.721500e+001 8.480831e+001 0.000000e+000
      vertex   1.434805e+001 8.892836e+001 0.000000e+000
    endloop
  endfacet
  facet normal 0.000000e+000 0.000000e+000 -1.000000e+000
    outer loop
      vertex   1.107868e+001 9.382132e+001 0.000000e+000
      vertex   1.042836e+001 9.284805e+001 0.000000e+000
      vertex   6.071474e+000 9.681818e+001 0.000000e+000
    endloop
  endfacet
  facet normal -3.653415e-001 -9.308736e-001 -4.847487e-008
    outer loop
      vertex   1.082091e+001 8.489980e+001 3.750000e+000
      vertex   9.600000e+000 8.537897e+001 0.000000e+000
      vertex   1.204182e+001 8.442063e+001 0.000000e+000
    endloop
  endfacet
  facet normal 0.000000e+000 0.000000e+000 -1.000000e+000
    outer loop
      vertex   1.721500e+001 1.011917e+002 0.000000e+000
      vertex   2.240904e+001 9.559385e+001 0.000000e+000
      vertex   1.465763e+001 1.017754e+002 0.000000e+000
    endloop
  endfacet
  facet normal 9.009684e-001 -4.338847e-001 6.665309e-007
    outer loop
      vertex   2.183997e+001 8.922447e+001 3.750000e+000
      vertex   2.127090e+001 8.804279e+001 0.000000e+000
      vertex   2.240904e+001 9.040615e+001 0.000000e+000
    endloop
  endfacet
  facet normal 9.009675e-001 -4.338864e-001 0.000000e+000
    outer loop
      vertex   2.183997e+001 8.922447e+001 3.750000e+000
      vertex   2.240904e+001 9.040615e+001 0.000000e+000
      vertex   2.240904e+001 9.040615e+001 7.500000e+000
    endloop
  endfacet
  facet normal -7.472790e-002 -9.972039e-001 -1.024032e-006
    outer loop
      vertex   1.334972e+001 8.432262e+001 3.750000e+000
      vertex   1.204182e+001 8.442063e+001 0.000000e+000
      vertex   1.465763e+001 8.422461e+001 0.000000e+000
    endloop
  endfacet
  facet normal 0.000000e+000 0.000000e+000 -1.000000e+000
    outer loop
      vertex   1.042836e+001 9.284805e+001 0.000000e+000
      vertex   1.020000e+001 9.170000e+001 0.000000e+000
      vertex   6.071474e+000 9.681818e+001 0.000000e+000
    endloop
  endfacet
  facet normal 0.000000e+000 0.000000e+000 -1.000000e+000
    outer loop
      vertex   6.071474e+000 9.681818e+001 0.000000e+000
      vertex   1.020000e+001 9.170000e+001 0.000000e+000
      vertex   5.298289e+000 9.431157e+001 0.000000e+000
    endloop
  endfacet
  facet normal 0.000000e+000 0.000000e+000 -1.000000e+000
    outer loop
      vertex   1.721500e+001 8.480831e+001 0.000000e+000
      vertex   1.465763e+001 8.422461e+001 0.000000e+000
      vertex   1.320000e+001 8.870000e+001 0.000000e+000
    endloop
  endfacet
  facet normal 2.225202e-001 -9.749281e-001 9.937356e-007
    outer loop
      vertex   1.593631e+001 8.451646e+001 3.750000e+000
      vertex   1.465763e+001 8.422461e+001 0.000000e+000
      vertex   1.721500e+001 8.480831e+001 0.000000e+000
    endloop
  endfacet
  facet normal 0.000000e+000 0.000000e+000 -1.000000e+000
    outer loop
      vertex   1.320000e+001 8.870000e+001 0.000000e+000
      vertex   1.465763e+001 8.422461e+001 0.000000e+000
      vertex   1.205195e+001 8.892836e+001 0.000000e+000
    endloop
  endfacet
  facet normal 0.000000e+000 0.000000e+000 -1.000000e+000
    outer loop
      vertex   1.020000e+001 9.170000e+001 0.000000e+000
      vertex   1.042836e+001 9.055195e+001 0.000000e+000
      vertex   5.298289e+000 9.431157e+001 0.000000e+000
    endloop
  endfacet
  facet normal 0.000000e+000 0.000000e+000 -1.000000e+000
    outer loop
      vertex   1.205195e+001 8.892836e+001 0.000000e+000
      vertex   1.465763e+001 8.422461e+001 0.000000e+000
      vertex   1.107868e+001 8.957868e+001 0.000000e+000
    endloop
  endfacet
  facet normal 4.999992e-001 -8.660259e-001 0.000000e+000
    outer loop
      vertex   1.835085e+001 8.546410e+001 3.750000e+000
      vertex   1.721500e+001 8.480831e+001 0.000000e+000
      vertex   1.948671e+001 8.611988e+001 0.000000e+000
    endloop
  endfacet
  facet normal 0.000000e+000 0.000000e+000 -1.000000e+000
    outer loop
      vertex   1.042836e+001 9.055195e+001 0.000000e+000
      vertex   1.107868e+001 8.957868e+001 0.000000e+000
      vertex   5.298289e+000 9.431157e+001 0.000000e+000
    endloop
  endfacet
  facet normal 0.000000e+000 0.000000e+000 -1.000000e+000
    outer loop
      vertex   1.107868e+001 8.957868e+001 0.000000e+000
      vertex   1.465763e+001 8.422461e+001 0.000000e+000
      vertex   5.298289e+000 9.431157e+001 0.000000e+000
    endloop
  endfacet
  facet normal 0.000000e+000 0.000000e+000 -1.000000e+000
    outer loop
      vertex   5.298289e+000 9.431157e+001 0.000000e+000
      vertex   1.465763e+001 8.422461e+001 0.000000e+000
      vertex   5.298289e+000 9.168843e+001 0.000000e+000
    endloop
  endfacet
  facet normal 0.000000e+000 0.000000e+000 -1.000000e+000
    outer loop
      vertex   2.240904e+001 9.040615e+001 0.000000e+000
      vertex   2.127090e+001 8.804279e+001 0.000000e+000
      vertex   9.600000e+000 1.006210e+002 0.000000e+000
    endloop
  endfacet
  facet normal 0.000000e+000 0.000000e+000 -1.000000e+000
    outer loop
      vertex   1.205195e+001 9.447164e+001 0.000000e+000
      vertex   1.107868e+001 9.382132e+001 0.000000e+000
      vertex   7.549143e+000 9.898552e+001 0.000000e+000
    endloop
  endfacet
  facet normal 0.000000e+000 0.000000e+000 -1.000000e+000
    outer loop
      vertex   1.434805e+001 8.892836e+001 0.000000e+000
      vertex   1.721500e+001 8.480831e+001 0.000000e+000
      vertex   1.320000e+001 8.870000e+001 0.000000e+000
    endloop
  endfacet
  facet normal 9.888310e-001 -1.490407e-001 0.000000e+000
    outer loop
      vertex   2.260452e+001 9.170308e+001 3.750000e+000
      vertex   2.240904e+001 9.040615e+001 7.500000e+000
      vertex   2.240904e+001 9.040615e+001 0.000000e+000
    endloop
  endfacet
  facet normal 0.000000e+000 0.000000e+000 -1.000000e+000
    outer loop
      vertex   5.298289e+000 9.168843e+001 0.000000e+000
      vertex   1.204182e+001 8.442063e+001 0.000000e+000
      vertex   6.071474e+000 8.918182e+001 0.000000e+000
    endloop
  endfacet
  facet normal 0.000000e+000 0.000000e+000 -1.000000e+000
    outer loop
      vertex   1.465763e+001 8.422461e+001 0.000000e+000
      vertex   1.204182e+001 8.442063e+001 0.000000e+000
      vertex   5.298289e+000 9.168843e+001 0.000000e+000
    endloop
  endfacet
  facet normal 0.000000e+000 0.000000e+000 -1.000000e+000
    outer loop
      vertex   6.071474e+000 8.918182e+001 0.000000e+000
      vertex   9.600000e+000 8.537897e+001 0.000000e+000
      vertex   7.549143e+000 8.701448e+001 0.000000e+000
    endloop
  endfacet
  facet normal 9.888309e-001 -1.490419e-001 4.059766e-007
    outer loop
      vertex   2.260452e+001 9.170308e+001 3.750000e+000
      vertex   2.240904e+001 9.040615e+001 0.000000e+000
      vertex   2.280000e+001 9.300000e+001 0.000000e+000
    endloop
  endfacet
  facet normal 9.888307e-001 -1.490430e-001 0.000000e+000
    outer loop
      vertex   2.260452e+001 9.170308e+001 3.750000e+000
      vertex   2.280000e+001 9.300000e+001 0.000000e+000
      vertex   2.280000e+001 9.300000e+001 7.500000e+000
    endloop
  endfacet
  facet normal 0.000000e+000 0.000000e+000 -1.000000e+000
    outer loop
      vertex   1.204182e+001 8.442063e+001 0.000000e+000
      vertex   9.600000e+000 8.537897e+001 0.000000e+000
      vertex   6.071474e+000 8.918182e+001 0.000000e+000
    endloop
  endfacet
  facet normal -8.314688e-001 5.555716e-001 0.000000e+000
    outer loop
      vertex   1.564648e+001 9.006532e+001 3.750000e+000
      vertex   1.532132e+001 8.957868e+001 7.500000e+000
      vertex   1.597164e+001 9.055195e+001 7.500000e+000
    endloop
  endfacet
  facet normal 9.888309e-001 1.490419e-001 -4.059766e-007
    outer loop
      vertex   2.260452e+001 9.429692e+001 3.750000e+000
      vertex   2.240904e+001 9.559385e+001 7.500000e+000
      vertex   2.280000e+001 9.300000e+001 7.500000e+000
    endloop
  endfacet
  facet normal -6.234903e-001 7.818312e-001 -7.513601e-007
    outer loop
      vertex   8.574572e+000 9.980327e+001 3.750000e+000
      vertex   7.549143e+000 9.898552e+001 7.500000e+000
      vertex   9.600000e+000 1.006210e+002 7.500000e+000
    endloop
  endfacet
  facet normal 7.330526e-001 -6.801719e-001 6.907661e-007
    outer loop
      vertex   2.037881e+001 8.708133e+001 3.750000e+000
      vertex   2.127090e+001 8.804279e+001 7.500000e+000
      vertex   1.948671e+001 8.611988e+001 7.500000e+000
    endloop
  endfacet
  facet normal -3.653415e-001 9.308736e-001 4.847487e-008
    outer loop
      vertex   1.082091e+001 1.011002e+002 3.750000e+000
      vertex   9.600000e+000 1.006210e+002 7.500000e+000
      vertex   1.204182e+001 1.015794e+002 7.500000e+000
    endloop
  endfacet
  facet normal -7.472790e-002 9.972039e-001 1.024032e-006
    outer loop
      vertex   1.334972e+001 1.016774e+002 3.750000e+000
      vertex   1.204182e+001 1.015794e+002 7.500000e+000
      vertex   1.465763e+001 1.017754e+002 7.500000e+000
    endloop
  endfacet
  facet normal 4.999992e-001 -8.660259e-001 0.000000e+000
    outer loop
      vertex   1.835085e+001 8.546410e+001 3.750000e+000
      vertex   1.948671e+001 8.611988e+001 7.500000e+000
      vertex   1.721500e+001 8.480831e+001 7.500000e+000
    endloop
  endfacet
  facet normal 2.225202e-001 9.749281e-001 -9.937356e-007
    outer loop
      vertex   1.593631e+001 1.014835e+002 3.750000e+000
      vertex   1.465763e+001 1.017754e+002 7.500000e+000
      vertex   1.721500e+001 1.011917e+002 7.500000e+000
    endloop
  endfacet
  facet normal 4.999992e-001 8.660259e-001 0.000000e+000
    outer loop
      vertex   1.835085e+001 1.005359e+002 3.750000e+000
      vertex   1.721500e+001 1.011917e+002 7.500000e+000
      vertex   1.948671e+001 9.988012e+001 7.500000e+000
    endloop
  endfacet
  facet normal 2.225202e-001 -9.749281e-001 -9.876762e-007
    outer loop
      vertex   1.593631e+001 8.451646e+001 3.750000e+000
      vertex   1.721500e+001 8.480831e+001 7.500000e+000
      vertex   1.465763e+001 8.422461e+001 7.500000e+000
    endloop
  endfacet
  facet normal 7.330526e-001 6.801719e-001 6.907661e-007
    outer loop
      vertex   2.037881e+001 9.891867e+001 3.750000e+000
      vertex   1.948671e+001 9.988012e+001 7.500000e+000
      vertex   2.127090e+001 9.795721e+001 7.500000e+000
    endloop
  endfacet
  facet normal 9.009684e-001 4.338847e-001 -6.665309e-007
    outer loop
      vertex   2.183997e+001 9.677553e+001 3.750000e+000
      vertex   2.127090e+001 9.795721e+001 7.500000e+000
      vertex   2.240904e+001 9.559385e+001 7.500000e+000
    endloop
  endfacet
  facet normal 9.888309e-001 -1.490419e-001 -3.999172e-007
    outer loop
      vertex   2.260452e+001 9.170308e+001 3.750000e+000
      vertex   2.280000e+001 9.300000e+001 7.500000e+000
      vertex   2.240904e+001 9.040615e+001 7.500000e+000
    endloop
  endfacet
  facet normal -3.653415e-001 -9.308736e-001 4.847487e-008
    outer loop
      vertex   1.082091e+001 8.489980e+001 3.750000e+000
      vertex   1.204182e+001 8.442063e+001 7.500000e+000
      vertex   9.600000e+000 8.537897e+001 7.500000e+000
    endloop
  endfacet
  facet normal -5.555723e-001 8.314682e-001 8.486742e-007
    outer loop
      vertex   1.483469e+001 8.925352e+001 3.750000e+000
      vertex   1.434805e+001 8.892836e+001 7.500000e+000
      vertex   1.532132e+001 8.957868e+001 7.500000e+000
    endloop
  endfacet
  facet normal 1.950917e-001 9.807850e-001 0.000000e+000
    outer loop
      vertex   1.262597e+001 8.881418e+001 3.750000e+000
      vertex   1.205195e+001 8.892836e+001 7.500000e+000
      vertex   1.320000e+001 8.870000e+001 7.500000e+000
    endloop
  endfacet
  facet normal -1.950917e-001 9.807850e-001 0.000000e+000
    outer loop
      vertex   1.377402e+001 8.881418e+001 3.750000e+000
      vertex   1.320000e+001 8.870000e+001 7.500000e+000
      vertex   1.434805e+001 8.892836e+001 7.500000e+000
    endloop
  endfacet
  facet normal -6.234903e-001 -7.818312e-001 -7.513601e-007
    outer loop
      vertex   8.574572e+000 8.619673e+001 3.750000e+000
      vertex   9.600000e+000 8.537897e+001 7.500000e+000
      vertex   7.549143e+000 8.701448e+001 7.500000e+000
    endloop
  endfacet
  facet normal 5.555726e-001 8.314680e-001 9.165688e-007
    outer loop
      vertex   1.156532e+001 8.925352e+001 3.750000e+000
      vertex   1.107868e+001 8.957868e+001 7.500000e+000
      vertex   1.205195e+001 8.892836e+001 7.500000e+000
    endloop
  endfacet
  facet normal -9.807853e-001 -1.950899e-001 1.256034e-007
    outer loop
      vertex   1.608582e+001 9.227402e+001 3.750000e+000
      vertex   1.620000e+001 9.170000e+001 7.500000e+000
      vertex   1.597164e+001 9.284805e+001 7.500000e+000
    endloop
  endfacet
  facet normal 8.314684e-001 5.555721e-001 1.086307e-007
    outer loop
      vertex   1.075352e+001 9.006532e+001 3.750000e+000
      vertex   1.042836e+001 9.055195e+001 7.500000e+000
      vertex   1.107868e+001 8.957868e+001 7.500000e+000
    endloop
  endfacet
  facet normal 9.807853e-001 1.950904e-001 1.968931e-007
    outer loop
      vertex   1.031418e+001 9.112598e+001 3.750000e+000
      vertex   1.020000e+001 9.170000e+001 7.500000e+000
      vertex   1.042836e+001 9.055195e+001 7.500000e+000
    endloop
  endfacet
  facet normal -9.555729e-001 -2.947550e-001 6.059355e-008
    outer loop
      vertex   5.684881e+000 9.043513e+001 3.750000e+000
      vertex   6.071474e+000 8.918182e+001 7.500000e+000
      vertex   5.298289e+000 9.168843e+001 7.500000e+000
    endloop
  endfacet
  facet normal 9.807855e-001 -1.950892e-001 0.000000e+000
    outer loop
      vertex   1.031418e+001 9.227402e+001 3.750000e+000
      vertex   1.042836e+001 9.284805e+001 7.500000e+000
      vertex   1.020000e+001 9.170000e+001 7.500000e+000
    endloop
  endfacet
  facet normal 8.314684e-001 -5.555721e-001 1.018413e-007
    outer loop
      vertex   1.075352e+001 9.333469e+001 3.750000e+000
      vertex   1.107868e+001 9.382132e+001 7.500000e+000
      vertex   1.042836e+001 9.284805e+001 7.500000e+000
    endloop
  endfacet
  facet normal -1.000000e+000 0.000000e+000 0.000000e+000
    outer loop
      vertex   5.298289e+000 9.300000e+001 3.750000e+000
      vertex   5.298289e+000 9.168843e+001 7.500000e+000
      vertex   5.298289e+000 9.431157e+001 7.500000e+000
    endloop
  endfacet
  facet normal 5.555726e-001 -8.314680e-001 -7.807808e-007
    outer loop
      vertex   1.156532e+001 9.414648e+001 3.750000e+000
      vertex   1.205195e+001 9.447164e+001 7.500000e+000
      vertex   1.107868e+001 9.382132e+001 7.500000e+000
    endloop
  endfacet
  facet normal 1.950854e-001 -9.807863e-001 9.980439e-007
    outer loop
      vertex   1.262597e+001 9.458582e+001 3.750000e+000
      vertex   1.320000e+001 9.470000e+001 7.500000e+000
      vertex   1.205195e+001 9.447164e+001 7.500000e+000
    endloop
  endfacet
  facet normal 9.009684e-001 -4.338847e-001 -6.786496e-007
    outer loop
      vertex   2.183997e+001 8.922447e+001 3.750000e+000
      vertex   2.240904e+001 9.040615e+001 7.500000e+000
      vertex   2.127090e+001 8.804279e+001 7.500000e+000
    endloop
  endfacet
  facet normal -9.555729e-001 2.947550e-001 6.059355e-008
    outer loop
      vertex   5.684881e+000 9.556487e+001 3.750000e+000
      vertex   5.298289e+000 9.431157e+001 7.500000e+000
      vertex   6.071474e+000 9.681818e+001 7.500000e+000
    endloop
  endfacet
  facet normal -1.950854e-001 -9.807863e-001 9.980439e-007
    outer loop
      vertex   1.377402e+001 9.458582e+001 3.750000e+000
      vertex   1.434805e+001 9.447164e+001 7.500000e+000
      vertex   1.320000e+001 9.470000e+001 7.500000e+000
    endloop
  endfacet
  facet normal -8.314688e-001 -5.555716e-001 0.000000e+000
    outer loop
      vertex   1.564648e+001 9.333469e+001 3.750000e+000
      vertex   1.597164e+001 9.284805e+001 7.500000e+000
      vertex   1.532132e+001 9.382132e+001 7.500000e+000
    endloop
  endfacet
  facet normal -5.555723e-001 -8.314682e-001 -8.486742e-007
    outer loop
      vertex   1.483469e+001 9.414648e+001 3.750000e+000
      vertex   1.532132e+001 9.382132e+001 7.500000e+000
      vertex   1.434805e+001 9.447164e+001 7.500000e+000
    endloop
  endfacet
  facet normal -8.262388e-001 5.633200e-001 4.847488e-008
    outer loop
      vertex   6.810308e+000 9.790185e+001 3.750000e+000
      vertex   6.071474e+000 9.681818e+001 7.500000e+000
      vertex   7.549143e+000 9.898552e+001 7.500000e+000
    endloop
  endfacet
  facet normal -9.807851e-001 1.950912e-001 3.224973e-007
    outer loop
      vertex   1.608582e+001 9.112598e+001 3.750000e+000
      vertex   1.597164e+001 9.055195e+001 7.500000e+000
      vertex   1.620000e+001 9.170000e+001 7.500000e+000
    endloop
  endfacet
  facet normal -7.472790e-002 -9.972039e-001 1.024032e-006
    outer loop
      vertex   1.334972e+001 8.432262e+001 3.750000e+000
      vertex   1.465763e+001 8.422461e+001 7.500000e+000
      vertex   1.204182e+001 8.442063e+001 7.500000e+000
    endloop
  endfacet
  facet normal -8.262388e-001 -5.633200e-001 6.059360e-008
    outer loop
      vertex   6.810308e+000 8.809815e+001 3.750000e+000
      vertex   7.549143e+000 8.701448e+001 7.500000e+000
      vertex   6.071474e+000 8.918182e+001 7.500000e+000
    endloop
  endfacet
  facet normal 0.000000e+000 0.000000e+000 1.000000e+000
    outer loop
      vertex   1.205195e+001 9.447164e+001 7.500000e+000
      vertex   7.549143e+000 9.898552e+001 7.500000e+000
      vertex   1.107868e+001 9.382132e+001 7.500000e+000
    endloop
  endfacet
  facet normal 0.000000e+000 0.000000e+000 1.000000e+000
    outer loop
      vertex   1.204182e+001 8.442063e+001 7.500000e+000
      vertex   6.071474e+000 8.918182e+001 7.500000e+000
      vertex   9.600000e+000 8.537897e+001 7.500000e+000
    endloop
  endfacet
  facet normal -0.000000e+000 -0.000000e+000 1.000000e+000
    outer loop
      vertex   5.298289e+000 9.168843e+001 7.500000e+000
      vertex   6.071474e+000 8.918182e+001 7.500000e+000
      vertex   1.204182e+001 8.442063e+001 7.500000e+000
    endloop
  endfacet
  facet normal 0.000000e+000 0.000000e+000 1.000000e+000
    outer loop
      vertex   1.465763e+001 8.422461e+001 7.500000e+000
      vertex   5.298289e+000 9.168843e+001 7.500000e+000
      vertex   1.204182e+001 8.442063e+001 7.500000e+000
    endloop
  endfacet
  facet normal -0.000000e+000 0.000000e+000 1.000000e+000
    outer loop
      vertex   5.298289e+000 9.431157e+001 7.500000e+000
      vertex   5.298289e+000 9.168843e+001 7.500000e+000
      vertex   1.465763e+001 8.422461e+001 7.500000e+000
    endloop
  endfacet
  facet normal 0.000000e+000 0.000000e+000 1.000000e+000
    outer loop
      vertex   1.107868e+001 8.957868e+001 7.500000e+000
      vertex   5.298289e+000 9.431157e+001 7.500000e+000
      vertex   1.465763e+001 8.422461e+001 7.500000e+000
    endloop
  endfacet
  facet normal 0.000000e+000 0.000000e+000 1.000000e+000
    outer loop
      vertex   1.042836e+001 9.055195e+001 7.500000e+000
      vertex   5.298289e+000 9.431157e+001 7.500000e+000
      vertex   1.107868e+001 8.957868e+001 7.500000e+000
    endloop
  endfacet
  facet normal 0.000000e+000 0.000000e+000 1.000000e+000
    outer loop
      vertex   1.205195e+001 8.892836e+001 7.500000e+000
      vertex   1.107868e+001 8.957868e+001 7.500000e+000
      vertex   1.465763e+001 8.422461e+001 7.500000e+000
    endloop
  endfacet
  facet normal 0.000000e+000 0.000000e+000 1.000000e+000
    outer loop
      vertex   1.020000e+001 9.170000e+001 7.500000e+000
      vertex   5.298289e+000 9.431157e+001 7.500000e+000
      vertex   1.042836e+001 9.055195e+001 7.500000e+000
    endloop
  endfacet
  facet normal 0.000000e+000 0.000000e+000 1.000000e+000
    outer loop
      vertex   1.320000e+001 8.870000e+001 7.500000e+000
      vertex   1.205195e+001 8.892836e+001 7.500000e+000
      vertex   1.465763e+001 8.422461e+001 7.500000e+000
    endloop
  endfacet
  facet normal 0.000000e+000 0.000000e+000 1.000000e+000
    outer loop
      vertex   1.721500e+001 8.480831e+001 7.500000e+000
      vertex   1.320000e+001 8.870000e+001 7.500000e+000
      vertex   1.465763e+001 8.422461e+001 7.500000e+000
    endloop
  endfacet
  facet normal -0.000000e+000 0.000000e+000 1.000000e+000
    outer loop
      vertex   6.071474e+000 9.681818e+001 7.500000e+000
      vertex   5.298289e+000 9.431157e+001 7.500000e+000
      vertex   1.020000e+001 9.170000e+001 7.500000e+000
    endloop
  endfacet
  facet normal 0.000000e+000 0.000000e+000 1.000000e+000
    outer loop
      vertex   1.042836e+001 9.284805e+001 7.500000e+000
      vertex   6.071474e+000 9.681818e+001 7.500000e+000
      vertex   1.020000e+001 9.170000e+001 7.500000e+000
    endloop
  endfacet
  facet normal -0.000000e+000 0.000000e+000 1.000000e+000
    outer loop
      vertex   1.434805e+001 8.892836e+001 7.500000e+000
      vertex   1.320000e+001 8.870000e+001 7.500000e+000
      vertex   1.721500e+001 8.480831e+001 7.500000e+000
    endloop
  endfacet
  facet normal 0.000000e+000 0.000000e+000 1.000000e+000
    outer loop
      vertex   1.107868e+001 9.382132e+001 7.500000e+000
      vertex   6.071474e+000 9.681818e+001 7.500000e+000
      vertex   1.042836e+001 9.284805e+001 7.500000e+000
    endloop
  endfacet
  facet normal -0.000000e+000 0.000000e+000 1.000000e+000
    outer loop
      vertex   1.532132e+001 8.957868e+001 7.500000e+000
      vertex   1.434805e+001 8.892836e+001 7.500000e+000
      vertex   1.721500e+001 8.480831e+001 7.500000e+000
    endloop
  endfacet
  facet normal 0.000000e+000 0.000000e+000 1.000000e+000
    outer loop
      vertex   1.948671e+001 8.611988e+001 7.500000e+000
      vertex   1.532132e+001 8.957868e+001 7.500000e+000
      vertex   1.721500e+001 8.480831e+001 7.500000e+000
    endloop
  endfacet
  facet normal -0.000000e+000 0.000000e+000 1.000000e+000
    outer loop
      vertex   7.549143e+000 9.898552e+001 7.500000e+000
      vertex   6.071474e+000 9.681818e+001 7.500000e+000
      vertex   1.107868e+001 9.382132e+001 7.500000e+000
    endloop
  endfacet
  facet normal -0.000000e+000 -0.000000e+000 1.000000e+000
    outer loop
      vertex   6.071474e+000 8.918182e+001 7.500000e+000
      vertex   7.549143e+000 8.701448e+001 7.500000e+000
      vertex   9.600000e+000 8.537897e+001 7.500000e+000
    endloop
  endfacet
  facet normal -0.000000e+000 0.000000e+000 1.000000e+000
    outer loop
      vertex   1.597164e+001 9.055195e+001 7.500000e+000
      vertex   1.532132e+001 8.957868e+001 7.500000e+000
      vertex   1.948671e+001 8.611988e+001 7.500000e+000
    endloop
  endfacet
  facet normal 0.000000e+000 0.000000e+000 1.000000e+000
    outer loop
      vertex   1.320000e+001 9.470000e+001 7.500000e+000
      vertex   7.549143e+000 9.898552e+001 7.500000e+000
      vertex   1.205195e+001 9.447164e+001 7.500000e+000
    endloop
  endfacet
  facet normal -0.000000e+000 0.000000e+000 1.000000e+000
    outer loop
      vertex   1.620000e+001 9.170000e+001 7.500000e+000
      vertex   1.597164e+001 9.055195e+001 7.500000e+000
      vertex   1.948671e+001 8.611988e+001 7.500000e+000
    endloop
  endfacet
  facet normal 0.000000e+000 0.000000e+000 1.000000e+000
    outer loop
      vertex   1.434805e+001 9.447164e+001 7.500000e+000
      vertex   7.549143e+000 9.898552e+001 7.500000e+000
      vertex   1.320000e+001 9.470000e+001 7.500000e+000
    endloop
  endfacet
  facet normal -0.000000e+000 -0.000000e+000 1.000000e+000
    outer loop
      vertex   1.597164e+001 9.284805e+001 7.500000e+000
      vertex   1.620000e+001 9.170000e+001 7.500000e+000
      vertex   1.948671e+001 8.611988e+001 7.500000e+000
    endloop
  endfacet
  facet normal 0.000000e+000 0.000000e+000 1.000000e+000
    outer loop
      vertex   2.127090e+001 8.804279e+001 7.500000e+000
      vertex   1.532132e+001 9.382132e+001 7.500000e+000
      vertex   1.597164e+001 9.284805e+001 7.500000e+000
    endloop
  endfacet
  facet normal 0.000000e+000 0.000000e+000 1.000000e+000
    outer loop
      vertex   2.127090e+001 8.804279e+001 7.500000e+000
      vertex   1.597164e+001 9.284805e+001 7.500000e+000
      vertex   1.948671e+001 8.611988e+001 7.500000e+000
    endloop
  endfacet
  facet normal -0.000000e+000 -0.000000e+000 1.000000e+000
    outer loop
      vertex   9.600000e+000 1.006210e+002 7.500000e+000
      vertex   1.532132e+001 9.382132e+001 7.500000e+000
      vertex   2.127090e+001 8.804279e+001 7.500000e+000
    endloop
  endfacet
  facet normal -0.000000e+000 -0.000000e+000 1.000000e+000
    outer loop
      vertex   9.600000e+000 1.006210e+002 7.500000e+000
      vertex   1.434805e+001 9.447164e+001 7.500000e+000
      vertex   1.532132e+001 9.382132e+001 7.500000e+000
    endloop
  endfacet
  facet normal -0.000000e+000 0.000000e+000 1.000000e+000
    outer loop
      vertex   9.600000e+000 1.006210e+002 7.500000e+000
      vertex   7.549143e+000 9.898552e+001 7.500000e+000
      vertex   1.434805e+001 9.447164e+001 7.500000e+000
    endloop
  endfacet
  facet normal 0.000000e+000 0.000000e+000 1.000000e+000
    outer loop
      vertex   2.240904e+001 9.040615e+001 7.500000e+000
      vertex   9.600000e+000 1.006210e+002 7.500000e+000
      vertex   2.127090e+001 8.804279e+001 7.500000e+000
    endloop
  endfacet
  facet normal -0.000000e+000 0.000000e+000 1.000000e+000
    outer loop
      vertex   1.204182e+001 1.015794e+002 7.500000e+000
      vertex   9.600000e+000 1.006210e+002 7.500000e+000
      vertex   2.240904e+001 9.040615e+001 7.500000e+000
    endloop
  endfacet
  facet normal 0.000000e+000 0.000000e+000 1.000000e+000
    outer loop
      vertex   2.280000e+001 9.300000e+001 7.500000e+000
      vertex   1.204182e+001 1.015794e+002 7.500000e+000
      vertex   2.240904e+001 9.040615e+001 7.500000e+000
    endloop
  endfacet
  facet normal -0.000000e+000 0.000000e+000 1.000000e+000
    outer loop
      vertex   1.465763e+001 1.017754e+002 7.500000e+000
      vertex   1.204182e+001 1.015794e+002 7.500000e+000
      vertex   2.280000e+001 9.300000e+001 7.500000e+000
    endloop
  endfacet
  facet normal 0.000000e+000 0.000000e+000 1.000000e+000
    outer loop
      vertex   2.240904e+001 9.559385e+001 7.500000e+000
      vertex   1.465763e+001 1.017754e+002 7.500000e+000
      vertex   2.280000e+001 9.300000e+001 7.500000e+000
    endloop
  endfacet
  facet normal 0.000000e+000 0.000000e+000 1.000000e+000
    outer loop
      vertex   1.721500e+001 1.011917e+002 7.500000e+000
      vertex   1.465763e+001 1.017754e+002 7.500000e+000
      vertex   2.240904e+001 9.559385e+001 7.500000e+000
    endloop
  endfacet
  facet normal 0.000000e+000 0.000000e+000 1.000000e+000
    outer loop
      vertex   2.127090e+001 9.795721e+001 7.500000e+000
      vertex   1.721500e+001 1.011917e+002 7.500000e+000
      vertex   2.240904e+001 9.559385e+001 7.500000e+000
    endloop
  endfacet
  facet normal 0.000000e+000 0.000000e+000 1.000000e+000
    outer loop
      vertex   1.948671e+001 9.988012e+001 7.500000e+000
      vertex   1.721500e+001 1.011917e+002 7.500000e+000
      vertex   2.127090e+001 9.795721e+001 7.500000e+000
    endloop
  endfacet
endsolid
