solid ascii
  facet normal 8.314708e-001 -5.555685e-001 0.000000e+000
    outer loop
      vertex   9.053520e+000 6.023469e+001 3.750000e+000
      vertex   8.728361e+000 5.974805e+001 7.500000e+000
      vertex   8.728361e+000 5.974805e+001 0.000000e+000
    endloop
  endfacet
  facet normal 9.888307e-001 1.490430e-001 0.000000e+000
    outer loop
      vertex   2.260452e+001 6.429692e+001 3.750000e+000
      vertex   2.280000e+001 6.300000e+001 7.500000e+000
      vertex   2.280000e+001 6.300000e+001 0.000000e+000
    endloop
  endfacet
  facet normal 9.888309e-001 1.490419e-001 3.999172e-007
    outer loop
      vertex   2.260452e+001 6.429692e+001 3.750000e+000
      vertex   2.280000e+001 6.300000e+001 0.000000e+000
      vertex   2.240904e+001 6.559385e+001 0.000000e+000
    endloop
  endfacet
  facet normal 9.888310e-001 1.490407e-001 -0.000000e+000
    outer loop
      vertex   2.260452e+001 6.429692e+001 3.750000e+000
      vertex   2.240904e+001 6.559385e+001 0.000000e+000
      vertex   2.240904e+001 6.559385e+001 7.500000e+000
    endloop
  endfacet
  facet normal 9.807853e-001 -1.950904e-001 0.000000e+000
    outer loop
      vertex   8.614181e+000 5.917403e+001 3.750000e+000
      vertex   8.728361e+000 5.974805e+001 0.000000e+000
      vertex   8.728361e+000 5.974805e+001 7.500000e+000
    endloop
  endfacet
  facet normal 9.009675e-001 4.338864e-001 0.000000e+000
    outer loop
      vertex   2.183997e+001 6.677553e+001 3.750000e+000
      vertex   2.240904e+001 6.559385e+001 7.500000e+000
      vertex   2.240904e+001 6.559385e+001 0.000000e+000
    endloop
  endfacet
  facet normal 9.009684e-001 4.338847e-001 6.786496e-007
    outer loop
      vertex   2.183997e+001 6.677553e+001 3.750000e+000
      vertex   2.240904e+001 6.559385e+001 0.000000e+000
      vertex   2.127090e+001 6.795721e+001 0.000000e+000
    endloop
  endfacet
  facet normal 9.009693e-001 4.338830e-001 -0.000000e+000
    outer loop
      vertex   2.183997e+001 6.677553e+001 3.750000e+000
      vertex   2.127090e+001 6.795721e+001 0.000000e+000
      vertex   2.127090e+001 6.795721e+001 7.500000e+000
    endloop
  endfacet
  facet normal 9.807855e-001 -1.950892e-001 0.000000e+000
    outer loop
      vertex   8.614181e+000 5.917403e+001 3.750000e+000
      vertex   8.500000e+000 5.860000e+001 7.500000e+000
      vertex   8.500000e+000 5.860000e+001 0.000000e+000
    endloop
  endfacet
  facet normal 7.330539e-001 6.801705e-001 0.000000e+000
    outer loop
      vertex   2.037881e+001 6.891867e+001 3.750000e+000
      vertex   2.127090e+001 6.795721e+001 7.500000e+000
      vertex   2.127090e+001 6.795721e+001 0.000000e+000
    endloop
  endfacet
  facet normal 7.330526e-001 6.801719e-001 -6.907661e-007
    outer loop
      vertex   2.037881e+001 6.891867e+001 3.750000e+000
      vertex   2.127090e+001 6.795721e+001 0.000000e+000
      vertex   1.948671e+001 6.988012e+001 0.000000e+000
    endloop
  endfacet
  facet normal 7.330512e-001 6.801733e-001 -0.000000e+000
    outer loop
      vertex   2.037881e+001 6.891867e+001 3.750000e+000
      vertex   1.948671e+001 6.988012e+001 0.000000e+000
      vertex   1.948671e+001 6.988012e+001 7.500000e+000
    endloop
  endfacet
  facet normal 9.807853e-001 1.950904e-001 -0.000000e+000
    outer loop
      vertex   8.614181e+000 5.802597e+001 3.750000e+000
      vertex   8.500000e+000 5.860000e+001 0.000000e+000
      vertex   8.500000e+000 5.860000e+001 7.500000e+000
    endloop
  endfacet
  facet normal 4.999992e-001 8.660259e-001 0.000000e+000
    outer loop
      vertex   1.835085e+001 7.053590e+001 3.750000e+000
      vertex   1.948671e+001 6.988012e+001 7.500000e+000
      vertex   1.948671e+001 6.988012e+001 0.000000e+000
    endloop
  endfacet
  facet normal 4.999992e-001 8.660259e-001 0.000000e+000
    outer loop
      vertex   1.835085e+001 7.053590e+001 3.750000e+000
      vertex   1.948671e+001 6.988012e+001 0.000000e+000
      vertex   1.721500e+001 7.119169e+001 0.000000e+000
    endloop
  endfacet
  facet normal 4.999992e-001 8.660259e-001 -0.000000e+000
    outer loop
      vertex   1.835085e+001 7.053590e+001 3.750000e+000
      vertex   1.721500e+001 7.119169e+001 0.000000e+000
      vertex   1.721500e+001 7.119169e+001 7.500000e+000
    endloop
  endfacet
  facet normal 9.807853e-001 1.950904e-001 0.000000e+000
    outer loop
      vertex   8.614181e+000 5.802597e+001 3.750000e+000
      vertex   8.728361e+000 5.745195e+001 7.500000e+000
      vertex   8.728361e+000 5.745195e+001 0.000000e+000
    endloop
  endfacet
  facet normal 2.225174e-001 9.749287e-001 0.000000e+000
    outer loop
      vertex   1.593631e+001 7.148354e+001 3.750000e+000
      vertex   1.721500e+001 7.119169e+001 7.500000e+000
      vertex   1.721500e+001 7.119169e+001 0.000000e+000
    endloop
  endfacet
  facet normal 2.225202e-001 9.749281e-001 9.876762e-007
    outer loop
      vertex   1.593631e+001 7.148354e+001 3.750000e+000
      vertex   1.721500e+001 7.119169e+001 0.000000e+000
      vertex   1.465763e+001 7.177539e+001 0.000000e+000
    endloop
  endfacet
  facet normal 2.225229e-001 9.749274e-001 -0.000000e+000
    outer loop
      vertex   1.593631e+001 7.148354e+001 3.750000e+000
      vertex   1.465763e+001 7.177539e+001 0.000000e+000
      vertex   1.465763e+001 7.177539e+001 7.500000e+000
    endloop
  endfacet
  facet normal 8.314688e-001 5.555716e-001 -0.000000e+000
    outer loop
      vertex   9.053520e+000 5.696532e+001 3.750000e+000
      vertex   8.728361e+000 5.745195e+001 0.000000e+000
      vertex   8.728361e+000 5.745195e+001 7.500000e+000
    endloop
  endfacet
  facet normal -7.472498e-002 9.972042e-001 0.000000e+000
    outer loop
      vertex   1.334972e+001 7.167738e+001 3.750000e+000
      vertex   1.465763e+001 7.177539e+001 7.500000e+000
      vertex   1.465763e+001 7.177539e+001 0.000000e+000
    endloop
  endfacet
  facet normal -7.472790e-002 9.972039e-001 -1.024032e-006
    outer loop
      vertex   1.334972e+001 7.167738e+001 3.750000e+000
      vertex   1.465763e+001 7.177539e+001 0.000000e+000
      vertex   1.204182e+001 7.157937e+001 0.000000e+000
    endloop
  endfacet
  facet normal -7.473081e-002 9.972037e-001 0.000000e+000
    outer loop
      vertex   1.334972e+001 7.167738e+001 3.750000e+000
      vertex   1.204182e+001 7.157937e+001 0.000000e+000
      vertex   1.204182e+001 7.157937e+001 7.500000e+000
    endloop
  endfacet
  facet normal 8.314708e-001 5.555685e-001 0.000000e+000
    outer loop
      vertex   9.053520e+000 5.696532e+001 3.750000e+000
      vertex   9.378679e+000 5.647868e+001 7.500000e+000
      vertex   9.378679e+000 5.647868e+001 0.000000e+000
    endloop
  endfacet
  facet normal -3.653415e-001 9.308736e-001 0.000000e+000
    outer loop
      vertex   1.082091e+001 7.110020e+001 3.750000e+000
      vertex   1.204182e+001 7.157937e+001 7.500000e+000
      vertex   1.204182e+001 7.157937e+001 0.000000e+000
    endloop
  endfacet
  facet normal -3.653415e-001 9.308736e-001 -4.847487e-008
    outer loop
      vertex   1.082091e+001 7.110020e+001 3.750000e+000
      vertex   1.204182e+001 7.157937e+001 0.000000e+000
      vertex   9.600000e+000 7.062103e+001 0.000000e+000
    endloop
  endfacet
  facet normal -3.653417e-001 9.308735e-001 0.000000e+000
    outer loop
      vertex   1.082091e+001 7.110020e+001 3.750000e+000
      vertex   9.600000e+000 7.062103e+001 0.000000e+000
      vertex   9.600000e+000 7.062103e+001 7.500000e+000
    endloop
  endfacet
  facet normal 5.555723e-001 8.314682e-001 -0.000000e+000
    outer loop
      vertex   9.865314e+000 5.615352e+001 3.750000e+000
      vertex   9.378679e+000 5.647868e+001 0.000000e+000
      vertex   9.378679e+000 5.647868e+001 7.500000e+000
    endloop
  endfacet
  facet normal -6.234919e-001 7.818298e-001 0.000000e+000
    outer loop
      vertex   8.574572e+000 6.980327e+001 3.750000e+000
      vertex   9.600000e+000 7.062103e+001 7.500000e+000
      vertex   9.600000e+000 7.062103e+001 0.000000e+000
    endloop
  endfacet
  facet normal -6.234903e-001 7.818312e-001 7.513601e-007
    outer loop
      vertex   8.574572e+000 6.980327e+001 3.750000e+000
      vertex   9.600000e+000 7.062103e+001 0.000000e+000
      vertex   7.549143e+000 6.898552e+001 0.000000e+000
    endloop
  endfacet
  facet normal -6.234885e-001 7.818325e-001 0.000000e+000
    outer loop
      vertex   8.574572e+000 6.980327e+001 3.750000e+000
      vertex   7.549143e+000 6.898552e+001 0.000000e+000
      vertex   7.549143e+000 6.898552e+001 7.500000e+000
    endloop
  endfacet
  facet normal 5.555677e-001 8.314712e-001 0.000000e+000
    outer loop
      vertex   9.865314e+000 5.615352e+001 3.750000e+000
      vertex   1.035195e+001 5.582836e+001 7.500000e+000
      vertex   1.035195e+001 5.582836e+001 0.000000e+000
    endloop
  endfacet
  facet normal -8.262387e-001 5.633201e-001 0.000000e+000
    outer loop
      vertex   6.810308e+000 6.790185e+001 3.750000e+000
      vertex   7.549143e+000 6.898552e+001 7.500000e+000
      vertex   7.549143e+000 6.898552e+001 0.000000e+000
    endloop
  endfacet
  facet normal -8.262388e-001 5.633200e-001 -6.059360e-008
    outer loop
      vertex   6.810308e+000 6.790185e+001 3.750000e+000
      vertex   7.549143e+000 6.898552e+001 0.000000e+000
      vertex   6.071474e+000 6.681818e+001 0.000000e+000
    endloop
  endfacet
  facet normal -8.262389e-001 5.633199e-001 0.000000e+000
    outer loop
      vertex   6.810308e+000 6.790185e+001 3.750000e+000
      vertex   6.071474e+000 6.681818e+001 0.000000e+000
      vertex   6.071474e+000 6.681818e+001 7.500000e+000
    endloop
  endfacet
  facet normal 1.950917e-001 9.807850e-001 -0.000000e+000
    outer loop
      vertex   1.092597e+001 5.571418e+001 3.750000e+000
      vertex   1.035195e+001 5.582836e+001 0.000000e+000
      vertex   1.035195e+001 5.582836e+001 7.500000e+000
    endloop
  endfacet
  facet normal -9.555728e-001 2.947551e-001 0.000000e+000
    outer loop
      vertex   5.684881e+000 6.556487e+001 3.750000e+000
      vertex   6.071474e+000 6.681818e+001 7.500000e+000
      vertex   6.071474e+000 6.681818e+001 0.000000e+000
    endloop
  endfacet
  facet normal -9.555729e-001 2.947550e-001 -6.059355e-008
    outer loop
      vertex   5.684881e+000 6.556487e+001 3.750000e+000
      vertex   6.071474e+000 6.681818e+001 0.000000e+000
      vertex   5.298289e+000 6.431157e+001 0.000000e+000
    endloop
  endfacet
  facet normal -9.555729e-001 2.947548e-001 0.000000e+000
    outer loop
      vertex   5.684881e+000 6.556487e+001 3.750000e+000
      vertex   5.298289e+000 6.431157e+001 0.000000e+000
      vertex   5.298289e+000 6.431157e+001 7.500000e+000
    endloop
  endfacet
  facet normal 1.950917e-001 9.807850e-001 0.000000e+000
    outer loop
      vertex   1.092597e+001 5.571418e+001 3.750000e+000
      vertex   1.150000e+001 5.560000e+001 7.500000e+000
      vertex   1.150000e+001 5.560000e+001 0.000000e+000
    endloop
  endfacet
  facet normal -1.000000e+000 0.000000e+000 -0.000000e+000
    outer loop
      vertex   5.298289e+000 6.300000e+001 3.750000e+000
      vertex   5.298289e+000 6.431157e+001 7.500000e+000
      vertex   5.298289e+000 6.431157e+001 0.000000e+000
    endloop
  endfacet
  facet normal -1.000000e+000 0.000000e+000 0.000000e+000
    outer loop
      vertex   5.298289e+000 6.300000e+001 3.750000e+000
      vertex   5.298289e+000 6.431157e+001 0.000000e+000
      vertex   5.298289e+000 6.168843e+001 0.000000e+000
    endloop
  endfacet
  facet normal -1.000000e+000 0.000000e+000 0.000000e+000
    outer loop
      vertex   5.298289e+000 6.300000e+001 3.750000e+000
      vertex   5.298289e+000 6.168843e+001 0.000000e+000
      vertex   5.298289e+000 6.168843e+001 7.500000e+000
    endloop
  endfacet
  facet normal -1.950917e-001 9.807850e-001 0.000000e+000
    outer loop
      vertex   1.207403e+001 5.571418e+001 3.750000e+000
      vertex   1.150000e+001 5.560000e+001 0.000000e+000
      vertex   1.150000e+001 5.560000e+001 7.500000e+000
    endloop
  endfacet
  facet normal -9.555727e-001 -2.947556e-001 -0.000000e+000
    outer loop
      vertex   5.684881e+000 6.043513e+001 3.750000e+000
      vertex   5.298289e+000 6.168843e+001 7.500000e+000
      vertex   5.298289e+000 6.168843e+001 0.000000e+000
    endloop
  endfacet
  facet normal -9.555727e-001 -2.947553e-001 8.483109e-008
    outer loop
      vertex   5.684881e+000 6.043513e+001 3.750000e+000
      vertex   5.298289e+000 6.168843e+001 0.000000e+000
      vertex   6.071474e+000 5.918182e+001 0.000000e+000
    endloop
  endfacet
  facet normal -9.555728e-001 -2.947551e-001 0.000000e+000
    outer loop
      vertex   5.684881e+000 6.043513e+001 3.750000e+000
      vertex   6.071474e+000 5.918182e+001 0.000000e+000
      vertex   6.071474e+000 5.918182e+001 7.500000e+000
    endloop
  endfacet
  facet normal -1.950917e-001 9.807850e-001 0.000000e+000
    outer loop
      vertex   1.207403e+001 5.571418e+001 3.750000e+000
      vertex   1.264805e+001 5.582836e+001 7.500000e+000
      vertex   1.264805e+001 5.582836e+001 0.000000e+000
    endloop
  endfacet
  facet normal -8.262389e-001 -5.633199e-001 -0.000000e+000
    outer loop
      vertex   6.810308e+000 5.809815e+001 3.750000e+000
      vertex   6.071474e+000 5.918182e+001 7.500000e+000
      vertex   6.071474e+000 5.918182e+001 0.000000e+000
    endloop
  endfacet
  facet normal -8.262388e-001 -5.633200e-001 -4.847488e-008
    outer loop
      vertex   6.810308e+000 5.809815e+001 3.750000e+000
      vertex   6.071474e+000 5.918182e+001 0.000000e+000
      vertex   7.549143e+000 5.701448e+001 0.000000e+000
    endloop
  endfacet
  facet normal -8.262387e-001 -5.633201e-001 0.000000e+000
    outer loop
      vertex   6.810308e+000 5.809815e+001 3.750000e+000
      vertex   7.549143e+000 5.701448e+001 0.000000e+000
      vertex   7.549143e+000 5.701448e+001 7.500000e+000
    endloop
  endfacet
  facet normal -5.555677e-001 8.314712e-001 0.000000e+000
    outer loop
      vertex   1.313469e+001 5.615352e+001 3.750000e+000
      vertex   1.264805e+001 5.582836e+001 0.000000e+000
      vertex   1.264805e+001 5.582836e+001 7.500000e+000
    endloop
  endfacet
  facet normal -6.234903e-001 -7.818311e-001 -0.000000e+000
    outer loop
      vertex   8.574572e+000 5.619673e+001 3.750000e+000
      vertex   7.549143e+000 5.701448e+001 7.500000e+000
      vertex   7.549143e+000 5.701448e+001 0.000000e+000
    endloop
  endfacet
  facet normal -6.234903e-001 -7.818312e-001 -4.847485e-008
    outer loop
      vertex   8.574572e+000 5.619673e+001 3.750000e+000
      vertex   7.549143e+000 5.701448e+001 0.000000e+000
      vertex   9.600000e+000 5.537897e+001 0.000000e+000
    endloop
  endfacet
  facet normal -6.234902e-001 -7.818313e-001 0.000000e+000
    outer loop
      vertex   8.574572e+000 5.619673e+001 3.750000e+000
      vertex   9.600000e+000 5.537897e+001 0.000000e+000
      vertex   9.600000e+000 5.537897e+001 7.500000e+000
    endloop
  endfacet
  facet normal -5.555723e-001 8.314682e-001 0.000000e+000
    outer loop
      vertex   1.313469e+001 5.615352e+001 3.750000e+000
      vertex   1.362132e+001 5.647868e+001 7.500000e+000
      vertex   1.362132e+001 5.647868e+001 0.000000e+000
    endloop
  endfacet
  facet normal -3.653417e-001 -9.308735e-001 -0.000000e+000
    outer loop
      vertex   1.082091e+001 5.489980e+001 3.750000e+000
      vertex   9.600000e+000 5.537897e+001 7.500000e+000
      vertex   9.600000e+000 5.537897e+001 0.000000e+000
    endloop
  endfacet
  facet normal -3.653403e-001 -9.308740e-001 -5.211052e-007
    outer loop
      vertex   1.082091e+001 5.489980e+001 3.750000e+000
      vertex   9.600000e+000 5.537897e+001 0.000000e+000
      vertex   1.204182e+001 5.442064e+001 0.000000e+000
    endloop
  endfacet
  facet normal -3.653389e-001 -9.308746e-001 0.000000e+000
    outer loop
      vertex   1.082091e+001 5.489980e+001 3.750000e+000
      vertex   1.204182e+001 5.442064e+001 0.000000e+000
      vertex   1.204182e+001 5.442064e+001 7.500000e+000
    endloop
  endfacet
  facet normal -8.314708e-001 5.555685e-001 0.000000e+000
    outer loop
      vertex   1.394648e+001 5.696532e+001 3.750000e+000
      vertex   1.362132e+001 5.647868e+001 0.000000e+000
      vertex   1.362132e+001 5.647868e+001 7.500000e+000
    endloop
  endfacet
  facet normal -7.473081e-002 -9.972037e-001 -0.000000e+000
    outer loop
      vertex   1.334972e+001 5.432262e+001 3.750000e+000
      vertex   1.204182e+001 5.442064e+001 7.500000e+000
      vertex   1.204182e+001 5.442064e+001 0.000000e+000
    endloop
  endfacet
  facet normal -7.473080e-002 -9.972038e-001 -9.089038e-009
    outer loop
      vertex   1.334972e+001 5.432262e+001 3.750000e+000
      vertex   1.204182e+001 5.442064e+001 0.000000e+000
      vertex   1.465763e+001 5.422461e+001 0.000000e+000
    endloop
  endfacet
  facet normal -7.473076e-002 -9.972037e-001 0.000000e+000
    outer loop
      vertex   1.334972e+001 5.432262e+001 3.750000e+000
      vertex   1.465763e+001 5.422461e+001 0.000000e+000
      vertex   1.465763e+001 5.422461e+001 7.500000e+000
    endloop
  endfacet
  facet normal -8.314688e-001 5.555716e-001 0.000000e+000
    outer loop
      vertex   1.394648e+001 5.696532e+001 3.750000e+000
      vertex   1.427164e+001 5.745195e+001 7.500000e+000
      vertex   1.427164e+001 5.745195e+001 0.000000e+000
    endloop
  endfacet
  facet normal 2.225202e-001 -9.749281e-001 0.000000e+000
    outer loop
      vertex   1.593631e+001 5.451646e+001 3.750000e+000
      vertex   1.465763e+001 5.422461e+001 7.500000e+000
      vertex   1.465763e+001 5.422461e+001 0.000000e+000
    endloop
  endfacet
  facet normal 2.225216e-001 -9.749278e-001 -4.968676e-007
    outer loop
      vertex   1.593631e+001 5.451646e+001 3.750000e+000
      vertex   1.465763e+001 5.422461e+001 0.000000e+000
      vertex   1.721500e+001 5.480831e+001 0.000000e+000
    endloop
  endfacet
  facet normal 2.225229e-001 -9.749274e-001 0.000000e+000
    outer loop
      vertex   1.593631e+001 5.451646e+001 3.750000e+000
      vertex   1.721500e+001 5.480831e+001 0.000000e+000
      vertex   1.721500e+001 5.480831e+001 7.500000e+000
    endloop
  endfacet
  facet normal -9.807853e-001 1.950904e-001 0.000000e+000
    outer loop
      vertex   1.438582e+001 5.802597e+001 3.750000e+000
      vertex   1.427164e+001 5.745195e+001 0.000000e+000
      vertex   1.427164e+001 5.745195e+001 7.500000e+000
    endloop
  endfacet
  facet normal 4.999992e-001 -8.660259e-001 0.000000e+000
    outer loop
      vertex   1.835085e+001 5.546410e+001 3.750000e+000
      vertex   1.721500e+001 5.480831e+001 7.500000e+000
      vertex   1.721500e+001 5.480831e+001 0.000000e+000
    endloop
  endfacet
  facet normal 5.000003e-001 -8.660253e-001 -4.483925e-007
    outer loop
      vertex   1.835085e+001 5.546410e+001 3.750000e+000
      vertex   1.721500e+001 5.480831e+001 0.000000e+000
      vertex   1.948671e+001 5.611988e+001 0.000000e+000
    endloop
  endfacet
  facet normal 5.000014e-001 -8.660246e-001 0.000000e+000
    outer loop
      vertex   1.835085e+001 5.546410e+001 3.750000e+000
      vertex   1.948671e+001 5.611988e+001 0.000000e+000
      vertex   1.948671e+001 5.611988e+001 7.500000e+000
    endloop
  endfacet
  facet normal -9.807853e-001 1.950904e-001 0.000000e+000
    outer loop
      vertex   1.438582e+001 5.802597e+001 3.750000e+000
      vertex   1.450000e+001 5.860000e+001 7.500000e+000
      vertex   1.450000e+001 5.860000e+001 0.000000e+000
    endloop
  endfacet
  facet normal 7.330512e-001 -6.801733e-001 0.000000e+000
    outer loop
      vertex   2.037881e+001 5.708133e+001 3.750000e+000
      vertex   1.948671e+001 5.611988e+001 7.500000e+000
      vertex   1.948671e+001 5.611988e+001 0.000000e+000
    endloop
  endfacet
  facet normal 7.330512e-001 -6.801733e-001 0.000000e+000
    outer loop
      vertex   2.037881e+001 5.708133e+001 3.750000e+000
      vertex   1.948671e+001 5.611988e+001 0.000000e+000
      vertex   2.127090e+001 5.804278e+001 0.000000e+000
    endloop
  endfacet
  facet normal 7.330512e-001 -6.801733e-001 0.000000e+000
    outer loop
      vertex   2.037881e+001 5.708133e+001 3.750000e+000
      vertex   2.127090e+001 5.804278e+001 0.000000e+000
      vertex   2.127090e+001 5.804278e+001 7.500000e+000
    endloop
  endfacet
  facet normal 0.000000e+000 0.000000e+000 -1.000000e+000
    outer loop
      vertex   9.378679e+000 5.647868e+001 0.000000e+000
      vertex   9.600000e+000 5.537897e+001 0.000000e+000
      vertex   6.071474e+000 5.918182e+001 0.000000e+000
    endloop
  endfacet
  facet normal 9.009693e-001 -4.338830e-001 0.000000e+000
    outer loop
      vertex   2.183997e+001 5.922447e+001 3.750000e+000
      vertex   2.127090e+001 5.804278e+001 7.500000e+000
      vertex   2.127090e+001 5.804278e+001 0.000000e+000
    endloop
  endfacet
  facet normal 9.009690e-001 -4.338835e-001 2.302555e-007
    outer loop
      vertex   2.183997e+001 5.922447e+001 3.750000e+000
      vertex   2.127090e+001 5.804278e+001 0.000000e+000
      vertex   2.240904e+001 6.040615e+001 0.000000e+000
    endloop
  endfacet
  facet normal 9.009687e-001 -4.338841e-001 0.000000e+000
    outer loop
      vertex   2.183997e+001 5.922447e+001 3.750000e+000
      vertex   2.240904e+001 6.040615e+001 0.000000e+000
      vertex   2.240904e+001 6.040615e+001 7.500000e+000
    endloop
  endfacet
  facet normal 0.000000e+000 0.000000e+000 -1.000000e+000
    outer loop
      vertex   1.035195e+001 5.582836e+001 0.000000e+000
      vertex   9.600000e+000 5.537897e+001 0.000000e+000
      vertex   9.378679e+000 5.647868e+001 0.000000e+000
    endloop
  endfacet
  facet normal 9.888310e-001 -1.490412e-001 0.000000e+000
    outer loop
      vertex   2.260452e+001 6.170308e+001 3.750000e+000
      vertex   2.240904e+001 6.040615e+001 7.500000e+000
      vertex   2.240904e+001 6.040615e+001 0.000000e+000
    endloop
  endfacet
  facet normal 9.888308e-001 -1.490421e-001 3.272054e-007
    outer loop
      vertex   2.260452e+001 6.170308e+001 3.750000e+000
      vertex   2.240904e+001 6.040615e+001 0.000000e+000
      vertex   2.280000e+001 6.300000e+001 0.000000e+000
    endloop
  endfacet
  facet normal 9.888307e-001 -1.490430e-001 0.000000e+000
    outer loop
      vertex   2.260452e+001 6.170308e+001 3.750000e+000
      vertex   2.280000e+001 6.300000e+001 0.000000e+000
      vertex   2.280000e+001 6.300000e+001 7.500000e+000
    endloop
  endfacet
  facet normal -9.807854e-001 -1.950898e-001 9.844625e-008
    outer loop
      vertex   1.438582e+001 5.917403e+001 3.750000e+000
      vertex   1.427164e+001 5.974805e+001 0.000000e+000
      vertex   1.450000e+001 5.860000e+001 0.000000e+000
    endloop
  endfacet
  facet normal -9.807855e-001 -1.950892e-001 0.000000e+000
    outer loop
      vertex   1.438582e+001 5.917403e+001 3.750000e+000
      vertex   1.450000e+001 5.860000e+001 0.000000e+000
      vertex   1.450000e+001 5.860000e+001 7.500000e+000
    endloop
  endfacet
  facet normal 0.000000e+000 0.000000e+000 -1.000000e+000
    outer loop
      vertex   8.500000e+000 5.860000e+001 0.000000e+000
      vertex   8.728361e+000 5.745195e+001 0.000000e+000
      vertex   5.298289e+000 6.168843e+001 0.000000e+000
    endloop
  endfacet
  facet normal -9.807853e-001 -1.950904e-001 -0.000000e+000
    outer loop
      vertex   1.438582e+001 5.917403e+001 3.750000e+000
      vertex   1.427164e+001 5.974805e+001 7.500000e+000
      vertex   1.427164e+001 5.974805e+001 0.000000e+000
    endloop
  endfacet
  facet normal -8.314698e-001 -5.555701e-001 2.783657e-007
    outer loop
      vertex   1.394648e+001 6.023469e+001 3.750000e+000
      vertex   1.362132e+001 6.072132e+001 0.000000e+000
      vertex   1.427164e+001 5.974805e+001 0.000000e+000
    endloop
  endfacet
  facet normal -8.314708e-001 -5.555685e-001 0.000000e+000
    outer loop
      vertex   1.394648e+001 6.023469e+001 3.750000e+000
      vertex   1.427164e+001 5.974805e+001 0.000000e+000
      vertex   1.427164e+001 5.974805e+001 7.500000e+000
    endloop
  endfacet
  facet normal 0.000000e+000 0.000000e+000 -1.000000e+000
    outer loop
      vertex   8.728361e+000 5.974805e+001 0.000000e+000
      vertex   8.500000e+000 5.860000e+001 0.000000e+000
      vertex   5.298289e+000 6.168843e+001 0.000000e+000
    endloop
  endfacet
  facet normal -8.314688e-001 -5.555716e-001 -0.000000e+000
    outer loop
      vertex   1.394648e+001 6.023469e+001 3.750000e+000
      vertex   1.362132e+001 6.072132e+001 7.500000e+000
      vertex   1.362132e+001 6.072132e+001 0.000000e+000
    endloop
  endfacet
  facet normal -5.555701e-001 -8.314698e-001 -4.209432e-007
    outer loop
      vertex   1.313469e+001 6.104648e+001 3.750000e+000
      vertex   1.264805e+001 6.137164e+001 0.000000e+000
      vertex   1.362132e+001 6.072132e+001 0.000000e+000
    endloop
  endfacet
  facet normal -5.555677e-001 -8.314712e-001 0.000000e+000
    outer loop
      vertex   1.313469e+001 6.104648e+001 3.750000e+000
      vertex   1.362132e+001 6.072132e+001 0.000000e+000
      vertex   1.362132e+001 6.072132e+001 7.500000e+000
    endloop
  endfacet
  facet normal 0.000000e+000 0.000000e+000 -1.000000e+000
    outer loop
      vertex   1.465763e+001 5.422461e+001 0.000000e+000
      vertex   1.204182e+001 5.442064e+001 0.000000e+000
      vertex   1.264805e+001 5.582836e+001 0.000000e+000
    endloop
  endfacet
  facet normal -5.555723e-001 -8.314682e-001 -0.000000e+000
    outer loop
      vertex   1.313469e+001 6.104648e+001 3.750000e+000
      vertex   1.264805e+001 6.137164e+001 7.500000e+000
      vertex   1.264805e+001 6.137164e+001 0.000000e+000
    endloop
  endfacet
  facet normal -1.950885e-001 -9.807857e-001 -4.990216e-007
    outer loop
      vertex   1.207403e+001 6.148582e+001 3.750000e+000
      vertex   1.150000e+001 6.160000e+001 0.000000e+000
      vertex   1.264805e+001 6.137164e+001 0.000000e+000
    endloop
  endfacet
  facet normal -1.950854e-001 -9.807863e-001 0.000000e+000
    outer loop
      vertex   1.207403e+001 6.148582e+001 3.750000e+000
      vertex   1.264805e+001 6.137164e+001 0.000000e+000
      vertex   1.264805e+001 6.137164e+001 7.500000e+000
    endloop
  endfacet
  facet normal 0.000000e+000 0.000000e+000 -1.000000e+000
    outer loop
      vertex   9.378679e+000 6.072132e+001 0.000000e+000
      vertex   8.728361e+000 5.974805e+001 0.000000e+000
      vertex   5.298289e+000 6.431157e+001 0.000000e+000
    endloop
  endfacet
  facet normal -1.950917e-001 -9.807850e-001 -0.000000e+000
    outer loop
      vertex   1.207403e+001 6.148582e+001 3.750000e+000
      vertex   1.150000e+001 6.160000e+001 7.500000e+000
      vertex   1.150000e+001 6.160000e+001 0.000000e+000
    endloop
  endfacet
  facet normal 1.950885e-001 -9.807857e-001 -4.990216e-007
    outer loop
      vertex   1.092597e+001 6.148582e+001 3.750000e+000
      vertex   1.035195e+001 6.137164e+001 0.000000e+000
      vertex   1.150000e+001 6.160000e+001 0.000000e+000
    endloop
  endfacet
  facet normal 1.950917e-001 -9.807850e-001 0.000000e+000
    outer loop
      vertex   1.092597e+001 6.148582e+001 3.750000e+000
      vertex   1.150000e+001 6.160000e+001 0.000000e+000
      vertex   1.150000e+001 6.160000e+001 7.500000e+000
    endloop
  endfacet
  facet normal 0.000000e+000 0.000000e+000 -1.000000e+000
    outer loop
      vertex   1.035195e+001 6.137164e+001 0.000000e+000
      vertex   9.378679e+000 6.072132e+001 0.000000e+000
      vertex   5.298289e+000 6.431157e+001 0.000000e+000
    endloop
  endfacet
  facet normal 1.950854e-001 -9.807863e-001 0.000000e+000
    outer loop
      vertex   1.092597e+001 6.148582e+001 3.750000e+000
      vertex   1.035195e+001 6.137164e+001 7.500000e+000
      vertex   1.035195e+001 6.137164e+001 0.000000e+000
    endloop
  endfacet
  facet normal 5.555701e-001 -8.314698e-001 -4.209432e-007
    outer loop
      vertex   9.865314e+000 6.104648e+001 3.750000e+000
      vertex   9.378679e+000 6.072132e+001 0.000000e+000
      vertex   1.035195e+001 6.137164e+001 0.000000e+000
    endloop
  endfacet
  facet normal 5.555723e-001 -8.314682e-001 0.000000e+000
    outer loop
      vertex   9.865314e+000 6.104648e+001 3.750000e+000
      vertex   1.035195e+001 6.137164e+001 0.000000e+000
      vertex   1.035195e+001 6.137164e+001 7.500000e+000
    endloop
  endfacet
  facet normal 0.000000e+000 0.000000e+000 -1.000000e+000
    outer loop
      vertex   1.721500e+001 5.480831e+001 0.000000e+000
      vertex   1.465763e+001 5.422461e+001 0.000000e+000
      vertex   1.427164e+001 5.745195e+001 0.000000e+000
    endloop
  endfacet
  facet normal 5.555677e-001 -8.314712e-001 0.000000e+000
    outer loop
      vertex   9.865314e+000 6.104648e+001 3.750000e+000
      vertex   9.378679e+000 6.072132e+001 7.500000e+000
      vertex   9.378679e+000 6.072132e+001 0.000000e+000
    endloop
  endfacet
  facet normal 8.314698e-001 -5.555701e-001 2.851551e-007
    outer loop
      vertex   9.053520e+000 6.023469e+001 3.750000e+000
      vertex   8.728361e+000 5.974805e+001 0.000000e+000
      vertex   9.378679e+000 6.072132e+001 0.000000e+000
    endloop
  endfacet
  facet normal 8.314688e-001 -5.555716e-001 0.000000e+000
    outer loop
      vertex   9.053520e+000 6.023469e+001 3.750000e+000
      vertex   9.378679e+000 6.072132e+001 0.000000e+000
      vertex   9.378679e+000 6.072132e+001 7.500000e+000
    endloop
  endfacet
  facet normal 0.000000e+000 0.000000e+000 -1.000000e+000
    outer loop
      vertex   1.150000e+001 6.160000e+001 0.000000e+000
      vertex   1.035195e+001 6.137164e+001 0.000000e+000
      vertex   6.071474e+000 6.681818e+001 0.000000e+000
    endloop
  endfacet
  facet normal 0.000000e+000 0.000000e+000 -1.000000e+000
    outer loop
      vertex   1.948671e+001 6.988012e+001 0.000000e+000
      vertex   2.127090e+001 6.795721e+001 0.000000e+000
      vertex   1.721500e+001 7.119169e+001 0.000000e+000
    endloop
  endfacet
  facet normal 9.807854e-001 -1.950898e-001 9.844625e-008
    outer loop
      vertex   8.614181e+000 5.917403e+001 3.750000e+000
      vertex   8.500000e+000 5.860000e+001 0.000000e+000
      vertex   8.728361e+000 5.974805e+001 0.000000e+000
    endloop
  endfacet
  facet normal 0.000000e+000 0.000000e+000 -1.000000e+000
    outer loop
      vertex   6.071474e+000 5.918182e+001 0.000000e+000
      vertex   9.600000e+000 5.537897e+001 0.000000e+000
      vertex   7.549143e+000 5.701448e+001 0.000000e+000
    endloop
  endfacet
  facet normal 0.000000e+000 0.000000e+000 -1.000000e+000
    outer loop
      vertex   2.127090e+001 6.795721e+001 0.000000e+000
      vertex   2.240904e+001 6.559385e+001 0.000000e+000
      vertex   1.721500e+001 7.119169e+001 0.000000e+000
    endloop
  endfacet
  facet normal 0.000000e+000 0.000000e+000 -1.000000e+000
    outer loop
      vertex   1.721500e+001 7.119169e+001 0.000000e+000
      vertex   2.240904e+001 6.559385e+001 0.000000e+000
      vertex   1.465763e+001 7.177539e+001 0.000000e+000
    endloop
  endfacet
  facet normal 9.807853e-001 1.950904e-001 0.000000e+000
    outer loop
      vertex   8.614181e+000 5.802597e+001 3.750000e+000
      vertex   8.728361e+000 5.745195e+001 0.000000e+000
      vertex   8.500000e+000 5.860000e+001 0.000000e+000
    endloop
  endfacet
  facet normal 0.000000e+000 0.000000e+000 -1.000000e+000
    outer loop
      vertex   1.465763e+001 7.177539e+001 0.000000e+000
      vertex   2.280000e+001 6.300000e+001 0.000000e+000
      vertex   1.204182e+001 7.157937e+001 0.000000e+000
    endloop
  endfacet
  facet normal 0.000000e+000 0.000000e+000 -1.000000e+000
    outer loop
      vertex   2.280000e+001 6.300000e+001 0.000000e+000
      vertex   2.240904e+001 6.040615e+001 0.000000e+000
      vertex   1.204182e+001 7.157937e+001 0.000000e+000
    endloop
  endfacet
  facet normal 0.000000e+000 0.000000e+000 -1.000000e+000
    outer loop
      vertex   1.204182e+001 7.157937e+001 0.000000e+000
      vertex   2.240904e+001 6.040615e+001 0.000000e+000
      vertex   9.600000e+000 7.062103e+001 0.000000e+000
    endloop
  endfacet
  facet normal 8.314698e-001 5.555701e-001 -2.851551e-007
    outer loop
      vertex   9.053520e+000 5.696532e+001 3.750000e+000
      vertex   9.378679e+000 5.647868e+001 0.000000e+000
      vertex   8.728361e+000 5.745195e+001 0.000000e+000
    endloop
  endfacet
  facet normal 0.000000e+000 0.000000e+000 -1.000000e+000
    outer loop
      vertex   2.240904e+001 6.040615e+001 0.000000e+000
      vertex   2.127090e+001 5.804278e+001 0.000000e+000
      vertex   9.600000e+000 7.062103e+001 0.000000e+000
    endloop
  endfacet
  facet normal 0.000000e+000 0.000000e+000 -1.000000e+000
    outer loop
      vertex   9.600000e+000 7.062103e+001 0.000000e+000
      vertex   2.127090e+001 5.804278e+001 0.000000e+000
      vertex   7.549143e+000 6.898552e+001 0.000000e+000
    endloop
  endfacet
  facet normal 0.000000e+000 0.000000e+000 -1.000000e+000
    outer loop
      vertex   2.127090e+001 5.804278e+001 0.000000e+000
      vertex   1.948671e+001 5.611988e+001 0.000000e+000
      vertex   7.549143e+000 6.898552e+001 0.000000e+000
    endloop
  endfacet
  facet normal 5.555701e-001 8.314698e-001 4.209432e-007
    outer loop
      vertex   9.865314e+000 5.615352e+001 3.750000e+000
      vertex   1.035195e+001 5.582836e+001 0.000000e+000
      vertex   9.378679e+000 5.647868e+001 0.000000e+000
    endloop
  endfacet
  facet normal 0.000000e+000 0.000000e+000 -1.000000e+000
    outer loop
      vertex   7.549143e+000 6.898552e+001 0.000000e+000
      vertex   1.948671e+001 5.611988e+001 0.000000e+000
      vertex   6.071474e+000 6.681818e+001 0.000000e+000
    endloop
  endfacet
  facet normal 0.000000e+000 0.000000e+000 -1.000000e+000
    outer loop
      vertex   1.948671e+001 5.611988e+001 0.000000e+000
      vertex   1.721500e+001 5.480831e+001 0.000000e+000
      vertex   1.427164e+001 5.974805e+001 0.000000e+000
    endloop
  endfacet
  facet normal 0.000000e+000 0.000000e+000 -1.000000e+000
    outer loop
      vertex   1.948671e+001 5.611988e+001 0.000000e+000
      vertex   1.427164e+001 5.974805e+001 0.000000e+000
      vertex   1.362132e+001 6.072132e+001 0.000000e+000
    endloop
  endfacet
  facet normal 1.950917e-001 9.807850e-001 0.000000e+000
    outer loop
      vertex   1.092597e+001 5.571418e+001 3.750000e+000
      vertex   1.150000e+001 5.560000e+001 0.000000e+000
      vertex   1.035195e+001 5.582836e+001 0.000000e+000
    endloop
  endfacet
  facet normal 0.000000e+000 0.000000e+000 -1.000000e+000
    outer loop
      vertex   1.948671e+001 5.611988e+001 0.000000e+000
      vertex   1.362132e+001 6.072132e+001 0.000000e+000
      vertex   6.071474e+000 6.681818e+001 0.000000e+000
    endloop
  endfacet
  facet normal 0.000000e+000 0.000000e+000 -1.000000e+000
    outer loop
      vertex   8.728361e+000 5.745195e+001 0.000000e+000
      vertex   9.378679e+000 5.647868e+001 0.000000e+000
      vertex   6.071474e+000 5.918182e+001 0.000000e+000
    endloop
  endfacet
  facet normal 0.000000e+000 0.000000e+000 -1.000000e+000
    outer loop
      vertex   1.264805e+001 6.137164e+001 0.000000e+000
      vertex   1.150000e+001 6.160000e+001 0.000000e+000
      vertex   6.071474e+000 6.681818e+001 0.000000e+000
    endloop
  endfacet
  facet normal -1.950917e-001 9.807850e-001 0.000000e+000
    outer loop
      vertex   1.207403e+001 5.571418e+001 3.750000e+000
      vertex   1.264805e+001 5.582836e+001 0.000000e+000
      vertex   1.150000e+001 5.560000e+001 0.000000e+000
    endloop
  endfacet
  facet normal 0.000000e+000 0.000000e+000 -1.000000e+000
    outer loop
      vertex   1.427164e+001 5.974805e+001 0.000000e+000
      vertex   1.721500e+001 5.480831e+001 0.000000e+000
      vertex   1.450000e+001 5.860000e+001 0.000000e+000
    endloop
  endfacet
  facet normal 0.000000e+000 0.000000e+000 -1.000000e+000
    outer loop
      vertex   1.450000e+001 5.860000e+001 0.000000e+000
      vertex   1.721500e+001 5.480831e+001 0.000000e+000
      vertex   1.427164e+001 5.745195e+001 0.000000e+000
    endloop
  endfacet
  facet normal 0.000000e+000 0.000000e+000 -1.000000e+000
    outer loop
      vertex   6.071474e+000 6.681818e+001 0.000000e+000
      vertex   1.035195e+001 6.137164e+001 0.000000e+000
      vertex   5.298289e+000 6.431157e+001 0.000000e+000
    endloop
  endfacet
  facet normal -5.555701e-001 8.314698e-001 4.209432e-007
    outer loop
      vertex   1.313469e+001 5.615352e+001 3.750000e+000
      vertex   1.362132e+001 5.647868e+001 0.000000e+000
      vertex   1.264805e+001 5.582836e+001 0.000000e+000
    endloop
  endfacet
  facet normal 0.000000e+000 0.000000e+000 -1.000000e+000
    outer loop
      vertex   1.427164e+001 5.745195e+001 0.000000e+000
      vertex   1.465763e+001 5.422461e+001 0.000000e+000
      vertex   1.362132e+001 5.647868e+001 0.000000e+000
    endloop
  endfacet
  facet normal 0.000000e+000 0.000000e+000 -1.000000e+000
    outer loop
      vertex   1.362132e+001 5.647868e+001 0.000000e+000
      vertex   1.465763e+001 5.422461e+001 0.000000e+000
      vertex   1.264805e+001 5.582836e+001 0.000000e+000
    endloop
  endfacet
  facet normal 0.000000e+000 0.000000e+000 -1.000000e+000
    outer loop
      vertex   1.362132e+001 6.072132e+001 0.000000e+000
      vertex   1.264805e+001 6.137164e+001 0.000000e+000
      vertex   6.071474e+000 6.681818e+001 0.000000e+000
    endloop
  endfacet
  facet normal -8.314698e-001 5.555701e-001 -2.783657e-007
    outer loop
      vertex   1.394648e+001 5.696532e+001 3.750000e+000
      vertex   1.427164e+001 5.745195e+001 0.000000e+000
      vertex   1.362132e+001 5.647868e+001 0.000000e+000
    endloop
  endfacet
  facet normal 0.000000e+000 0.000000e+000 -1.000000e+000
    outer loop
      vertex   5.298289e+000 6.431157e+001 0.000000e+000
      vertex   8.728361e+000 5.974805e+001 0.000000e+000
      vertex   5.298289e+000 6.168843e+001 0.000000e+000
    endloop
  endfacet
  facet normal 0.000000e+000 0.000000e+000 -1.000000e+000
    outer loop
      vertex   1.264805e+001 5.582836e+001 0.000000e+000
      vertex   1.204182e+001 5.442064e+001 0.000000e+000
      vertex   1.150000e+001 5.560000e+001 0.000000e+000
    endloop
  endfacet
  facet normal 0.000000e+000 0.000000e+000 -1.000000e+000
    outer loop
      vertex   1.150000e+001 5.560000e+001 0.000000e+000
      vertex   1.204182e+001 5.442064e+001 0.000000e+000
      vertex   1.035195e+001 5.582836e+001 0.000000e+000
    endloop
  endfacet
  facet normal -9.807853e-001 1.950904e-001 0.000000e+000
    outer loop
      vertex   1.438582e+001 5.802597e+001 3.750000e+000
      vertex   1.450000e+001 5.860000e+001 0.000000e+000
      vertex   1.427164e+001 5.745195e+001 0.000000e+000
    endloop
  endfacet
  facet normal 0.000000e+000 0.000000e+000 -1.000000e+000
    outer loop
      vertex   5.298289e+000 6.168843e+001 0.000000e+000
      vertex   8.728361e+000 5.745195e+001 0.000000e+000
      vertex   6.071474e+000 5.918182e+001 0.000000e+000
    endloop
  endfacet
  facet normal 0.000000e+000 0.000000e+000 -1.000000e+000
    outer loop
      vertex   2.240904e+001 6.559385e+001 0.000000e+000
      vertex   2.280000e+001 6.300000e+001 0.000000e+000
      vertex   1.465763e+001 7.177539e+001 0.000000e+000
    endloop
  endfacet
  facet normal 0.000000e+000 0.000000e+000 -1.000000e+000
    outer loop
      vertex   1.204182e+001 5.442064e+001 0.000000e+000
      vertex   9.600000e+000 5.537897e+001 0.000000e+000
      vertex   1.035195e+001 5.582836e+001 0.000000e+000
    endloop
  endfacet
  facet normal 2.225216e-001 -9.749278e-001 4.968676e-007
    outer loop
      vertex   1.593631e+001 5.451646e+001 3.750000e+000
      vertex   1.721500e+001 5.480831e+001 7.500000e+000
      vertex   1.465763e+001 5.422461e+001 7.500000e+000
    endloop
  endfacet
  facet normal -3.653403e-001 -9.308740e-001 5.211052e-007
    outer loop
      vertex   1.082091e+001 5.489980e+001 3.750000e+000
      vertex   1.204182e+001 5.442064e+001 7.500000e+000
      vertex   9.600000e+000 5.537897e+001 7.500000e+000
    endloop
  endfacet
  facet normal 9.888308e-001 -1.490421e-001 -3.272054e-007
    outer loop
      vertex   2.260452e+001 6.170308e+001 3.750000e+000
      vertex   2.280000e+001 6.300000e+001 7.500000e+000
      vertex   2.240904e+001 6.040615e+001 7.500000e+000
    endloop
  endfacet
  facet normal -9.807853e-001 1.950904e-001 0.000000e+000
    outer loop
      vertex   1.438582e+001 5.802597e+001 3.750000e+000
      vertex   1.427164e+001 5.745195e+001 7.500000e+000
      vertex   1.450000e+001 5.860000e+001 7.500000e+000
    endloop
  endfacet
  facet normal 5.000003e-001 -8.660253e-001 4.362738e-007
    outer loop
      vertex   1.835085e+001 5.546410e+001 3.750000e+000
      vertex   1.948671e+001 5.611988e+001 7.500000e+000
      vertex   1.721500e+001 5.480831e+001 7.500000e+000
    endloop
  endfacet
  facet normal -8.314698e-001 5.555701e-001 2.851551e-007
    outer loop
      vertex   1.394648e+001 5.696532e+001 3.750000e+000
      vertex   1.362132e+001 5.647868e+001 7.500000e+000
      vertex   1.427164e+001 5.745195e+001 7.500000e+000
    endloop
  endfacet
  facet normal -9.807854e-001 -1.950898e-001 -9.844625e-008
    outer loop
      vertex   1.438582e+001 5.917403e+001 3.750000e+000
      vertex   1.450000e+001 5.860000e+001 7.500000e+000
      vertex   1.427164e+001 5.974805e+001 7.500000e+000
    endloop
  endfacet
  facet normal -7.473080e-002 -9.972038e-001 9.089038e-009
    outer loop
      vertex   1.334972e+001 5.432262e+001 3.750000e+000
      vertex   1.465763e+001 5.422461e+001 7.500000e+000
      vertex   1.204182e+001 5.442064e+001 7.500000e+000
    endloop
  endfacet
  facet normal -8.314698e-001 -5.555701e-001 -2.851551e-007
    outer loop
      vertex   1.394648e+001 6.023469e+001 3.750000e+000
      vertex   1.427164e+001 5.974805e+001 7.500000e+000
      vertex   1.362132e+001 6.072132e+001 7.500000e+000
    endloop
  endfacet
  facet normal -5.555701e-001 8.314698e-001 -4.209432e-007
    outer loop
      vertex   1.313469e+001 5.615352e+001 3.750000e+000
      vertex   1.264805e+001 5.582836e+001 7.500000e+000
      vertex   1.362132e+001 5.647868e+001 7.500000e+000
    endloop
  endfacet
  facet normal -5.555701e-001 -8.314698e-001 4.209432e-007
    outer loop
      vertex   1.313469e+001 6.104648e+001 3.750000e+000
      vertex   1.362132e+001 6.072132e+001 7.500000e+000
      vertex   1.264805e+001 6.137164e+001 7.500000e+000
    endloop
  endfacet
  facet normal -6.234903e-001 -7.818312e-001 3.635613e-008
    outer loop
      vertex   8.574572e+000 5.619673e+001 3.750000e+000
      vertex   9.600000e+000 5.537897e+001 7.500000e+000
      vertex   7.549143e+000 5.701448e+001 7.500000e+000
    endloop
  endfacet
  facet normal -1.950885e-001 -9.807857e-001 4.990216e-007
    outer loop
      vertex   1.207403e+001 6.148582e+001 3.750000e+000
      vertex   1.264805e+001 6.137164e+001 7.500000e+000
      vertex   1.150000e+001 6.160000e+001 7.500000e+000
    endloop
  endfacet
  facet normal -8.262388e-001 -5.633200e-001 6.059360e-008
    outer loop
      vertex   6.810308e+000 5.809815e+001 3.750000e+000
      vertex   7.549143e+000 5.701448e+001 7.500000e+000
      vertex   6.071474e+000 5.918182e+001 7.500000e+000
    endloop
  endfacet
  facet normal 1.950885e-001 -9.807857e-001 4.990216e-007
    outer loop
      vertex   1.092597e+001 6.148582e+001 3.750000e+000
      vertex   1.150000e+001 6.160000e+001 7.500000e+000
      vertex   1.035195e+001 6.137164e+001 7.500000e+000
    endloop
  endfacet
  facet normal -1.950917e-001 9.807850e-001 0.000000e+000
    outer loop
      vertex   1.207403e+001 5.571418e+001 3.750000e+000
      vertex   1.150000e+001 5.560000e+001 7.500000e+000
      vertex   1.264805e+001 5.582836e+001 7.500000e+000
    endloop
  endfacet
  facet normal 5.555701e-001 -8.314698e-001 4.209432e-007
    outer loop
      vertex   9.865314e+000 6.104648e+001 3.750000e+000
      vertex   1.035195e+001 6.137164e+001 7.500000e+000
      vertex   9.378679e+000 6.072132e+001 7.500000e+000
    endloop
  endfacet
  facet normal -9.555727e-001 -2.947553e-001 -9.089045e-008
    outer loop
      vertex   5.684881e+000 6.043513e+001 3.750000e+000
      vertex   6.071474e+000 5.918182e+001 7.500000e+000
      vertex   5.298289e+000 6.168843e+001 7.500000e+000
    endloop
  endfacet
  facet normal 9.888309e-001 1.490419e-001 -4.059766e-007
    outer loop
      vertex   2.260452e+001 6.429692e+001 3.750000e+000
      vertex   2.240904e+001 6.559385e+001 7.500000e+000
      vertex   2.280000e+001 6.300000e+001 7.500000e+000
    endloop
  endfacet
  facet normal -9.555729e-001 2.947550e-001 6.059355e-008
    outer loop
      vertex   5.684881e+000 6.556487e+001 3.750000e+000
      vertex   5.298289e+000 6.431157e+001 7.500000e+000
      vertex   6.071474e+000 6.681818e+001 7.500000e+000
    endloop
  endfacet
  facet normal -1.000000e+000 0.000000e+000 0.000000e+000
    outer loop
      vertex   5.298289e+000 6.300000e+001 3.750000e+000
      vertex   5.298289e+000 6.168843e+001 7.500000e+000
      vertex   5.298289e+000 6.431157e+001 7.500000e+000
    endloop
  endfacet
  facet normal 1.950917e-001 9.807850e-001 0.000000e+000
    outer loop
      vertex   1.092597e+001 5.571418e+001 3.750000e+000
      vertex   1.035195e+001 5.582836e+001 7.500000e+000
      vertex   1.150000e+001 5.560000e+001 7.500000e+000
    endloop
  endfacet
  facet normal -8.262388e-001 5.633200e-001 4.847488e-008
    outer loop
      vertex   6.810308e+000 6.790185e+001 3.750000e+000
      vertex   6.071474e+000 6.681818e+001 7.500000e+000
      vertex   7.549143e+000 6.898552e+001 7.500000e+000
    endloop
  endfacet
  facet normal 5.555701e-001 8.314698e-001 -4.209432e-007
    outer loop
      vertex   9.865314e+000 5.615352e+001 3.750000e+000
      vertex   9.378679e+000 5.647868e+001 7.500000e+000
      vertex   1.035195e+001 5.582836e+001 7.500000e+000
    endloop
  endfacet
  facet normal -6.234903e-001 7.818312e-001 -7.513601e-007
    outer loop
      vertex   8.574572e+000 6.980327e+001 3.750000e+000
      vertex   7.549143e+000 6.898552e+001 7.500000e+000
      vertex   9.600000e+000 7.062103e+001 7.500000e+000
    endloop
  endfacet
  facet normal -3.653415e-001 9.308736e-001 4.847487e-008
    outer loop
      vertex   1.082091e+001 7.110020e+001 3.750000e+000
      vertex   9.600000e+000 7.062103e+001 7.500000e+000
      vertex   1.204182e+001 7.157937e+001 7.500000e+000
    endloop
  endfacet
  facet normal 8.314698e-001 5.555701e-001 2.783657e-007
    outer loop
      vertex   9.053520e+000 5.696532e+001 3.750000e+000
      vertex   8.728361e+000 5.745195e+001 7.500000e+000
      vertex   9.378679e+000 5.647868e+001 7.500000e+000
    endloop
  endfacet
  facet normal -7.472790e-002 9.972039e-001 1.024032e-006
    outer loop
      vertex   1.334972e+001 7.167738e+001 3.750000e+000
      vertex   1.204182e+001 7.157937e+001 7.500000e+000
      vertex   1.465763e+001 7.177539e+001 7.500000e+000
    endloop
  endfacet
  facet normal 2.225202e-001 9.749281e-001 -9.937356e-007
    outer loop
      vertex   1.593631e+001 7.148354e+001 3.750000e+000
      vertex   1.465763e+001 7.177539e+001 7.500000e+000
      vertex   1.721500e+001 7.119169e+001 7.500000e+000
    endloop
  endfacet
  facet normal 9.807853e-001 1.950904e-001 0.000000e+000
    outer loop
      vertex   8.614181e+000 5.802597e+001 3.750000e+000
      vertex   8.500000e+000 5.860000e+001 7.500000e+000
      vertex   8.728361e+000 5.745195e+001 7.500000e+000
    endloop
  endfacet
  facet normal 4.999992e-001 8.660259e-001 0.000000e+000
    outer loop
      vertex   1.835085e+001 7.053590e+001 3.750000e+000
      vertex   1.721500e+001 7.119169e+001 7.500000e+000
      vertex   1.948671e+001 6.988012e+001 7.500000e+000
    endloop
  endfacet
  facet normal 7.330526e-001 6.801719e-001 6.907661e-007
    outer loop
      vertex   2.037881e+001 6.891867e+001 3.750000e+000
      vertex   1.948671e+001 6.988012e+001 7.500000e+000
      vertex   2.127090e+001 6.795721e+001 7.500000e+000
    endloop
  endfacet
  facet normal 9.009690e-001 -4.338835e-001 -2.302555e-007
    outer loop
      vertex   2.183997e+001 5.922447e+001 3.750000e+000
      vertex   2.240904e+001 6.040615e+001 7.500000e+000
      vertex   2.127090e+001 5.804278e+001 7.500000e+000
    endloop
  endfacet
  facet normal 9.807854e-001 -1.950898e-001 -9.844625e-008
    outer loop
      vertex   8.614181e+000 5.917403e+001 3.750000e+000
      vertex   8.728361e+000 5.974805e+001 7.500000e+000
      vertex   8.500000e+000 5.860000e+001 7.500000e+000
    endloop
  endfacet
  facet normal 9.009684e-001 4.338847e-001 -6.665309e-007
    outer loop
      vertex   2.183997e+001 6.677553e+001 3.750000e+000
      vertex   2.127090e+001 6.795721e+001 7.500000e+000
      vertex   2.240904e+001 6.559385e+001 7.500000e+000
    endloop
  endfacet
  facet normal 7.330512e-001 -6.801733e-001 0.000000e+000
    outer loop
      vertex   2.037881e+001 5.708133e+001 3.750000e+000
      vertex   2.127090e+001 5.804278e+001 7.500000e+000
      vertex   1.948671e+001 5.611988e+001 7.500000e+000
    endloop
  endfacet
  facet normal 8.314698e-001 -5.555701e-001 -2.783657e-007
    outer loop
      vertex   9.053520e+000 6.023469e+001 3.750000e+000
      vertex   9.378679e+000 6.072132e+001 7.500000e+000
      vertex   8.728361e+000 5.974805e+001 7.500000e+000
    endloop
  endfacet
  facet normal 0.000000e+000 0.000000e+000 1.000000e+000
    outer loop
      vertex   1.150000e+001 6.160000e+001 7.500000e+000
      vertex   6.071474e+000 6.681818e+001 7.500000e+000
      vertex   1.035195e+001 6.137164e+001 7.500000e+000
    endloop
  endfacet
  facet normal 0.000000e+000 0.000000e+000 1.000000e+000
    outer loop
      vertex   9.378679e+000 5.647868e+001 7.500000e+000
      vertex   6.071474e+000 5.918182e+001 7.500000e+000
      vertex   9.600000e+000 5.537897e+001 7.500000e+000
    endloop
  endfacet
  facet normal 0.000000e+000 0.000000e+000 1.000000e+000
    outer loop
      vertex   8.728361e+000 5.745195e+001 7.500000e+000
      vertex   6.071474e+000 5.918182e+001 7.500000e+000
      vertex   9.378679e+000 5.647868e+001 7.500000e+000
    endloop
  endfacet
  facet normal 0.000000e+000 0.000000e+000 1.000000e+000
    outer loop
      vertex   1.035195e+001 5.582836e+001 7.500000e+000
      vertex   9.378679e+000 5.647868e+001 7.500000e+000
      vertex   9.600000e+000 5.537897e+001 7.500000e+000
    endloop
  endfacet
  facet normal 0.000000e+000 0.000000e+000 1.000000e+000
    outer loop
      vertex   1.204182e+001 5.442064e+001 7.500000e+000
      vertex   1.035195e+001 5.582836e+001 7.500000e+000
      vertex   9.600000e+000 5.537897e+001 7.500000e+000
    endloop
  endfacet
  facet normal -0.000000e+000 -0.000000e+000 1.000000e+000
    outer loop
      vertex   5.298289e+000 6.168843e+001 7.500000e+000
      vertex   6.071474e+000 5.918182e+001 7.500000e+000
      vertex   8.728361e+000 5.745195e+001 7.500000e+000
    endloop
  endfacet
  facet normal 0.000000e+000 0.000000e+000 1.000000e+000
    outer loop
      vertex   8.500000e+000 5.860000e+001 7.500000e+000
      vertex   5.298289e+000 6.168843e+001 7.500000e+000
      vertex   8.728361e+000 5.745195e+001 7.500000e+000
    endloop
  endfacet
  facet normal 0.000000e+000 0.000000e+000 1.000000e+000
    outer loop
      vertex   1.150000e+001 5.560000e+001 7.500000e+000
      vertex   1.035195e+001 5.582836e+001 7.500000e+000
      vertex   1.204182e+001 5.442064e+001 7.500000e+000
    endloop
  endfacet
  facet normal 0.000000e+000 0.000000e+000 1.000000e+000
    outer loop
      vertex   8.728361e+000 5.974805e+001 7.500000e+000
      vertex   5.298289e+000 6.168843e+001 7.500000e+000
      vertex   8.500000e+000 5.860000e+001 7.500000e+000
    endloop
  endfacet
  facet normal -0.000000e+000 0.000000e+000 1.000000e+000
    outer loop
      vertex   1.264805e+001 5.582836e+001 7.500000e+000
      vertex   1.150000e+001 5.560000e+001 7.500000e+000
      vertex   1.204182e+001 5.442064e+001 7.500000e+000
    endloop
  endfacet
  facet normal 0.000000e+000 0.000000e+000 1.000000e+000
    outer loop
      vertex   1.465763e+001 5.422461e+001 7.500000e+000
      vertex   1.264805e+001 5.582836e+001 7.500000e+000
      vertex   1.204182e+001 5.442064e+001 7.500000e+000
    endloop
  endfacet
  facet normal -0.000000e+000 0.000000e+000 1.000000e+000
    outer loop
      vertex   5.298289e+000 6.431157e+001 7.500000e+000
      vertex   5.298289e+000 6.168843e+001 7.500000e+000
      vertex   8.728361e+000 5.974805e+001 7.500000e+000
    endloop
  endfacet
  facet normal 0.000000e+000 0.000000e+000 1.000000e+000
    outer loop
      vertex   9.378679e+000 6.072132e+001 7.500000e+000
      vertex   5.298289e+000 6.431157e+001 7.500000e+000
      vertex   8.728361e+000 5.974805e+001 7.500000e+000
    endloop
  endfacet
  facet normal -0.000000e+000 0.000000e+000 1.000000e+000
    outer loop
      vertex   1.362132e+001 5.647868e+001 7.500000e+000
      vertex   1.264805e+001 5.582836e+001 7.500000e+000
      vertex   1.465763e+001 5.422461e+001 7.500000e+000
    endloop
  endfacet
  facet normal 0.000000e+000 0.000000e+000 1.000000e+000
    outer loop
      vertex   1.035195e+001 6.137164e+001 7.500000e+000
      vertex   5.298289e+000 6.431157e+001 7.500000e+000
      vertex   9.378679e+000 6.072132e+001 7.500000e+000
    endloop
  endfacet
  facet normal -0.000000e+000 0.000000e+000 1.000000e+000
    outer loop
      vertex   1.427164e+001 5.745195e+001 7.500000e+000
      vertex   1.362132e+001 5.647868e+001 7.500000e+000
      vertex   1.465763e+001 5.422461e+001 7.500000e+000
    endloop
  endfacet
  facet normal 0.000000e+000 0.000000e+000 1.000000e+000
    outer loop
      vertex   1.721500e+001 5.480831e+001 7.500000e+000
      vertex   1.427164e+001 5.745195e+001 7.500000e+000
      vertex   1.465763e+001 5.422461e+001 7.500000e+000
    endloop
  endfacet
  facet normal -0.000000e+000 0.000000e+000 1.000000e+000
    outer loop
      vertex   6.071474e+000 6.681818e+001 7.500000e+000
      vertex   5.298289e+000 6.431157e+001 7.500000e+000
      vertex   1.035195e+001 6.137164e+001 7.500000e+000
    endloop
  endfacet
  facet normal -0.000000e+000 -0.000000e+000 1.000000e+000
    outer loop
      vertex   6.071474e+000 5.918182e+001 7.500000e+000
      vertex   7.549143e+000 5.701448e+001 7.500000e+000
      vertex   9.600000e+000 5.537897e+001 7.500000e+000
    endloop
  endfacet
  facet normal -0.000000e+000 0.000000e+000 1.000000e+000
    outer loop
      vertex   1.450000e+001 5.860000e+001 7.500000e+000
      vertex   1.427164e+001 5.745195e+001 7.500000e+000
      vertex   1.721500e+001 5.480831e+001 7.500000e+000
    endloop
  endfacet
  facet normal 0.000000e+000 0.000000e+000 1.000000e+000
    outer loop
      vertex   1.264805e+001 6.137164e+001 7.500000e+000
      vertex   6.071474e+000 6.681818e+001 7.500000e+000
      vertex   1.150000e+001 6.160000e+001 7.500000e+000
    endloop
  endfacet
  facet normal -0.000000e+000 -0.000000e+000 1.000000e+000
    outer loop
      vertex   1.427164e+001 5.974805e+001 7.500000e+000
      vertex   1.450000e+001 5.860000e+001 7.500000e+000
      vertex   1.721500e+001 5.480831e+001 7.500000e+000
    endloop
  endfacet
  facet normal 0.000000e+000 0.000000e+000 1.000000e+000
    outer loop
      vertex   1.362132e+001 6.072132e+001 7.500000e+000
      vertex   6.071474e+000 6.681818e+001 7.500000e+000
      vertex   1.264805e+001 6.137164e+001 7.500000e+000
    endloop
  endfacet
  facet normal 0.000000e+000 0.000000e+000 1.000000e+000
    outer loop
      vertex   1.948671e+001 5.611988e+001 7.500000e+000
      vertex   6.071474e+000 6.681818e+001 7.500000e+000
      vertex   1.362132e+001 6.072132e+001 7.500000e+000
    endloop
  endfacet
  facet normal 0.000000e+000 0.000000e+000 1.000000e+000
    outer loop
      vertex   1.948671e+001 5.611988e+001 7.500000e+000
      vertex   1.362132e+001 6.072132e+001 7.500000e+000
      vertex   1.427164e+001 5.974805e+001 7.500000e+000
    endloop
  endfacet
  facet normal 0.000000e+000 0.000000e+000 1.000000e+000
    outer loop
      vertex   1.948671e+001 5.611988e+001 7.500000e+000
      vertex   1.427164e+001 5.974805e+001 7.500000e+000
      vertex   1.721500e+001 5.480831e+001 7.500000e+000
    endloop
  endfacet
  facet normal -0.000000e+000 0.000000e+000 1.000000e+000
    outer loop
      vertex   7.549143e+000 6.898552e+001 7.500000e+000
      vertex   6.071474e+000 6.681818e+001 7.500000e+000
      vertex   1.948671e+001 5.611988e+001 7.500000e+000
    endloop
  endfacet
  facet normal 0.000000e+000 0.000000e+000 1.000000e+000
    outer loop
      vertex   2.127090e+001 5.804278e+001 7.500000e+000
      vertex   7.549143e+000 6.898552e+001 7.500000e+000
      vertex   1.948671e+001 5.611988e+001 7.500000e+000
    endloop
  endfacet
  facet normal -0.000000e+000 0.000000e+000 1.000000e+000
    outer loop
      vertex   9.600000e+000 7.062103e+001 7.500000e+000
      vertex   7.549143e+000 6.898552e+001 7.500000e+000
      vertex   2.127090e+001 5.804278e+001 7.500000e+000
    endloop
  endfacet
  facet normal 0.000000e+000 0.000000e+000 1.000000e+000
    outer loop
      vertex   2.240904e+001 6.040615e+001 7.500000e+000
      vertex   9.600000e+000 7.062103e+001 7.500000e+000
      vertex   2.127090e+001 5.804278e+001 7.500000e+000
    endloop
  endfacet
  facet normal -0.000000e+000 0.000000e+000 1.000000e+000
    outer loop
      vertex   1.204182e+001 7.157937e+001 7.500000e+000
      vertex   9.600000e+000 7.062103e+001 7.500000e+000
      vertex   2.240904e+001 6.040615e+001 7.500000e+000
    endloop
  endfacet
  facet normal 0.000000e+000 0.000000e+000 1.000000e+000
    outer loop
      vertex   2.280000e+001 6.300000e+001 7.500000e+000
      vertex   1.204182e+001 7.157937e+001 7.500000e+000
      vertex   2.240904e+001 6.040615e+001 7.500000e+000
    endloop
  endfacet
  facet normal -0.000000e+000 0.000000e+000 1.000000e+000
    outer loop
      vertex   1.465763e+001 7.177539e+001 7.500000e+000
      vertex   1.204182e+001 7.157937e+001 7.500000e+000
      vertex   2.280000e+001 6.300000e+001 7.500000e+000
    endloop
  endfacet
  facet normal 0.000000e+000 0.000000e+000 1.000000e+000
    outer loop
      vertex   2.240904e+001 6.559385e+001 7.500000e+000
      vertex   1.465763e+001 7.177539e+001 7.500000e+000
      vertex   2.280000e+001 6.300000e+001 7.500000e+000
    endloop
  endfacet
  facet normal 0.000000e+000 0.000000e+000 1.000000e+000
    outer loop
      vertex   1.721500e+001 7.119169e+001 7.500000e+000
      vertex   1.465763e+001 7.177539e+001 7.500000e+000
      vertex   2.240904e+001 6.559385e+001 7.500000e+000
    endloop
  endfacet
  facet normal 0.000000e+000 0.000000e+000 1.000000e+000
    outer loop
      vertex   2.127090e+001 6.795721e+001 7.500000e+000
      vertex   1.721500e+001 7.119169e+001 7.500000e+000
      vertex   2.240904e+001 6.559385e+001 7.500000e+000
    endloop
  endfacet
  facet normal 0.000000e+000 0.000000e+000 1.000000e+000
    outer loop
      vertex   1.948671e+001 6.988012e+001 7.500000e+000
      vertex   1.721500e+001 7.119169e+001 7.500000e+000
      vertex   2.127090e+001 6.795721e+001 7.500000e+000
    endloop
  endfacet
endsolid
