solid ascii
  facet normal -9.555736e-001 -2.947525e-001 0.000000e+000
    outer loop
      vertex   3.568488e+001 6.043513e+001 3.750000e+000
      vertex   3.607147e+001 5.918182e+001 0.000000e+000
      vertex   3.607147e+001 5.918182e+001 7.500000e+000
    endloop
  endfacet
  facet normal -9.807850e-001 -1.950920e-001 0.000000e+000
    outer loop
      vertex   4.408582e+001 5.927402e+001 3.750000e+000
      vertex   4.420000e+001 5.870000e+001 0.000000e+000
      vertex   4.420000e+001 5.870000e+001 7.500000e+000
    endloop
  endfacet
  facet normal -6.234919e-001 7.818298e-001 0.000000e+000
    outer loop
      vertex   3.857457e+001 6.980327e+001 3.750000e+000
      vertex   3.960000e+001 7.062103e+001 7.500000e+000
      vertex   3.960000e+001 7.062103e+001 0.000000e+000
    endloop
  endfacet
  facet normal -9.807850e-001 -1.950920e-001 -0.000000e+000
    outer loop
      vertex   4.408582e+001 5.927402e+001 3.750000e+000
      vertex   4.397164e+001 5.984805e+001 7.500000e+000
      vertex   4.397164e+001 5.984805e+001 0.000000e+000
    endloop
  endfacet
  facet normal -8.314698e-001 -5.555701e-001 -1.425775e-007
    outer loop
      vertex   4.364648e+001 6.033469e+001 3.750000e+000
      vertex   4.332132e+001 6.082132e+001 0.000000e+000
      vertex   4.397164e+001 5.984805e+001 0.000000e+000
    endloop
  endfacet
  facet normal -8.314692e-001 -5.555708e-001 0.000000e+000
    outer loop
      vertex   4.364648e+001 6.033469e+001 3.750000e+000
      vertex   4.397164e+001 5.984805e+001 0.000000e+000
      vertex   4.397164e+001 5.984805e+001 7.500000e+000
    endloop
  endfacet
  facet normal -6.234897e-001 7.818315e-001 0.000000e+000
    outer loop
      vertex   3.857457e+001 6.980327e+001 3.750000e+000
      vertex   3.754914e+001 6.898552e+001 0.000000e+000
      vertex   3.754914e+001 6.898552e+001 7.500000e+000
    endloop
  endfacet
  facet normal -8.314703e-001 -5.555693e-001 -0.000000e+000
    outer loop
      vertex   4.364648e+001 6.033469e+001 3.750000e+000
      vertex   4.332132e+001 6.082132e+001 7.500000e+000
      vertex   4.332132e+001 6.082132e+001 0.000000e+000
    endloop
  endfacet
  facet normal -5.555701e-001 -8.314698e-001 -1.357881e-007
    outer loop
      vertex   4.283469e+001 6.114648e+001 3.750000e+000
      vertex   4.234805e+001 6.147164e+001 0.000000e+000
      vertex   4.332132e+001 6.082132e+001 0.000000e+000
    endloop
  endfacet
  facet normal -5.555693e-001 -8.314703e-001 0.000000e+000
    outer loop
      vertex   4.283469e+001 6.114648e+001 3.750000e+000
      vertex   4.332132e+001 6.082132e+001 0.000000e+000
      vertex   4.332132e+001 6.082132e+001 7.500000e+000
    endloop
  endfacet
  facet normal -8.262389e-001 5.633199e-001 0.000000e+000
    outer loop
      vertex   3.681031e+001 6.790185e+001 3.750000e+000
      vertex   3.754914e+001 6.898552e+001 7.500000e+000
      vertex   3.754914e+001 6.898552e+001 0.000000e+000
    endloop
  endfacet
  facet normal -5.555708e-001 -8.314692e-001 -0.000000e+000
    outer loop
      vertex   4.283469e+001 6.114648e+001 3.750000e+000
      vertex   4.234805e+001 6.147164e+001 7.500000e+000
      vertex   4.234805e+001 6.147164e+001 0.000000e+000
    endloop
  endfacet
  facet normal -1.950920e-001 -9.807850e-001 0.000000e+000
    outer loop
      vertex   4.177402e+001 6.158582e+001 3.750000e+000
      vertex   4.120000e+001 6.170000e+001 0.000000e+000
      vertex   4.234805e+001 6.147164e+001 0.000000e+000
    endloop
  endfacet
  facet normal -1.950920e-001 -9.807850e-001 0.000000e+000
    outer loop
      vertex   4.177402e+001 6.158582e+001 3.750000e+000
      vertex   4.234805e+001 6.147164e+001 0.000000e+000
      vertex   4.234805e+001 6.147164e+001 7.500000e+000
    endloop
  endfacet
  facet normal -8.262376e-001 5.633219e-001 0.000000e+000
    outer loop
      vertex   3.681031e+001 6.790185e+001 3.750000e+000
      vertex   3.607147e+001 6.681818e+001 0.000000e+000
      vertex   3.607147e+001 6.681818e+001 7.500000e+000
    endloop
  endfacet
  facet normal -1.950920e-001 -9.807850e-001 -0.000000e+000
    outer loop
      vertex   4.177402e+001 6.158582e+001 3.750000e+000
      vertex   4.120000e+001 6.170000e+001 7.500000e+000
      vertex   4.120000e+001 6.170000e+001 0.000000e+000
    endloop
  endfacet
  facet normal 1.950913e-001 -9.807850e-001 -9.844621e-008
    outer loop
      vertex   4.062598e+001 6.158582e+001 3.750000e+000
      vertex   4.005195e+001 6.147164e+001 0.000000e+000
      vertex   4.120000e+001 6.170000e+001 0.000000e+000
    endloop
  endfacet
  facet normal 1.950920e-001 -9.807850e-001 0.000000e+000
    outer loop
      vertex   4.062598e+001 6.158582e+001 3.750000e+000
      vertex   4.120000e+001 6.170000e+001 0.000000e+000
      vertex   4.120000e+001 6.170000e+001 7.500000e+000
    endloop
  endfacet
  facet normal -9.555736e-001 2.947525e-001 0.000000e+000
    outer loop
      vertex   3.568488e+001 6.556487e+001 3.750000e+000
      vertex   3.607147e+001 6.681818e+001 7.500000e+000
      vertex   3.607147e+001 6.681818e+001 0.000000e+000
    endloop
  endfacet
  facet normal 1.950907e-001 -9.807852e-001 0.000000e+000
    outer loop
      vertex   4.062598e+001 6.158582e+001 3.750000e+000
      vertex   4.005195e+001 6.147164e+001 7.500000e+000
      vertex   4.005195e+001 6.147164e+001 0.000000e+000
    endloop
  endfacet
  facet normal 5.555701e-001 -8.314698e-001 -7.060982e-007
    outer loop
      vertex   3.956532e+001 6.114648e+001 3.750000e+000
      vertex   3.907868e+001 6.082132e+001 0.000000e+000
      vertex   4.005195e+001 6.147164e+001 0.000000e+000
    endloop
  endfacet
  facet normal 5.555738e-001 -8.314672e-001 0.000000e+000
    outer loop
      vertex   3.956532e+001 6.114648e+001 3.750000e+000
      vertex   4.005195e+001 6.147164e+001 0.000000e+000
      vertex   4.005195e+001 6.147164e+001 7.500000e+000
    endloop
  endfacet
  facet normal -9.555728e-001 2.947551e-001 0.000000e+000
    outer loop
      vertex   3.568488e+001 6.556487e+001 3.750000e+000
      vertex   3.529829e+001 6.431157e+001 0.000000e+000
      vertex   3.529829e+001 6.431157e+001 7.500000e+000
    endloop
  endfacet
  facet normal 5.555663e-001 -8.314723e-001 0.000000e+000
    outer loop
      vertex   3.956532e+001 6.114648e+001 3.750000e+000
      vertex   3.907868e+001 6.082132e+001 7.500000e+000
      vertex   3.907868e+001 6.082132e+001 0.000000e+000
    endloop
  endfacet
  facet normal 8.314698e-001 -5.555701e-001 7.060982e-007
    outer loop
      vertex   3.875352e+001 6.033469e+001 3.750000e+000
      vertex   3.842836e+001 5.984805e+001 0.000000e+000
      vertex   3.907868e+001 6.082132e+001 0.000000e+000
    endloop
  endfacet
  facet normal 8.314672e-001 -5.555738e-001 0.000000e+000
    outer loop
      vertex   3.875352e+001 6.033469e+001 3.750000e+000
      vertex   3.907868e+001 6.082132e+001 0.000000e+000
      vertex   3.907868e+001 6.082132e+001 7.500000e+000
    endloop
  endfacet
  facet normal -1.000000e+000 0.000000e+000 -0.000000e+000
    outer loop
      vertex   3.529829e+001 6.300000e+001 3.750000e+000
      vertex   3.529829e+001 6.431157e+001 7.500000e+000
      vertex   3.529829e+001 6.431157e+001 0.000000e+000
    endloop
  endfacet
  facet normal 8.314723e-001 -5.555663e-001 0.000000e+000
    outer loop
      vertex   3.875352e+001 6.033469e+001 3.750000e+000
      vertex   3.842836e+001 5.984805e+001 7.500000e+000
      vertex   3.842836e+001 5.984805e+001 0.000000e+000
    endloop
  endfacet
  facet normal 9.807856e-001 -1.950888e-001 4.990224e-007
    outer loop
      vertex   3.831418e+001 5.927402e+001 3.750000e+000
      vertex   3.820000e+001 5.870000e+001 0.000000e+000
      vertex   3.842836e+001 5.984805e+001 0.000000e+000
    endloop
  endfacet
  facet normal 9.807850e-001 -1.950920e-001 0.000000e+000
    outer loop
      vertex   3.831418e+001 5.927402e+001 3.750000e+000
      vertex   3.842836e+001 5.984805e+001 0.000000e+000
      vertex   3.842836e+001 5.984805e+001 7.500000e+000
    endloop
  endfacet
  facet normal -1.000000e+000 0.000000e+000 0.000000e+000
    outer loop
      vertex   3.529829e+001 6.300000e+001 3.750000e+000
      vertex   3.529829e+001 6.168843e+001 0.000000e+000
      vertex   3.529829e+001 6.168843e+001 7.500000e+000
    endloop
  endfacet
  facet normal 9.807863e-001 -1.950857e-001 0.000000e+000
    outer loop
      vertex   3.831418e+001 5.927402e+001 3.750000e+000
      vertex   3.820000e+001 5.870000e+001 7.500000e+000
      vertex   3.820000e+001 5.870000e+001 0.000000e+000
    endloop
  endfacet
  facet normal 9.807857e-001 1.950882e-001 4.005745e-007
    outer loop
      vertex   3.831418e+001 5.812598e+001 3.750000e+000
      vertex   3.842836e+001 5.755195e+001 0.000000e+000
      vertex   3.820000e+001 5.870000e+001 0.000000e+000
    endloop
  endfacet
  facet normal 9.807863e-001 1.950857e-001 -0.000000e+000
    outer loop
      vertex   3.831418e+001 5.812598e+001 3.750000e+000
      vertex   3.820000e+001 5.870000e+001 0.000000e+000
      vertex   3.820000e+001 5.870000e+001 7.500000e+000
    endloop
  endfacet
  facet normal -9.555726e-001 -2.947559e-001 -0.000000e+000
    outer loop
      vertex   3.568488e+001 6.043513e+001 3.750000e+000
      vertex   3.529829e+001 6.168843e+001 7.500000e+000
      vertex   3.529829e+001 6.168843e+001 0.000000e+000
    endloop
  endfacet
  facet normal 9.807852e-001 1.950907e-001 0.000000e+000
    outer loop
      vertex   3.831418e+001 5.812598e+001 3.750000e+000
      vertex   3.842836e+001 5.755195e+001 7.500000e+000
      vertex   3.842836e+001 5.755195e+001 0.000000e+000
    endloop
  endfacet
  facet normal 8.314698e-001 5.555701e-001 1.357881e-007
    outer loop
      vertex   3.875352e+001 5.706532e+001 3.750000e+000
      vertex   3.907868e+001 5.657868e+001 0.000000e+000
      vertex   3.842836e+001 5.755195e+001 0.000000e+000
    endloop
  endfacet
  facet normal 8.314703e-001 5.555693e-001 -0.000000e+000
    outer loop
      vertex   3.875352e+001 5.706532e+001 3.750000e+000
      vertex   3.842836e+001 5.755195e+001 0.000000e+000
      vertex   3.842836e+001 5.755195e+001 7.500000e+000
    endloop
  endfacet
  facet normal -9.807850e-001 -1.950920e-001 0.000000e+000
    outer loop
      vertex   4.408582e+001 5.927402e+001 3.750000e+000
      vertex   4.397164e+001 5.984805e+001 0.000000e+000
      vertex   4.420000e+001 5.870000e+001 0.000000e+000
    endloop
  endfacet
  facet normal 8.314692e-001 5.555708e-001 0.000000e+000
    outer loop
      vertex   3.875352e+001 5.706532e+001 3.750000e+000
      vertex   3.907868e+001 5.657868e+001 7.500000e+000
      vertex   3.907868e+001 5.657868e+001 0.000000e+000
    endloop
  endfacet
  facet normal 5.555701e-001 8.314698e-001 1.425775e-007
    outer loop
      vertex   3.956532e+001 5.625352e+001 3.750000e+000
      vertex   4.005195e+001 5.592836e+001 0.000000e+000
      vertex   3.907868e+001 5.657868e+001 0.000000e+000
    endloop
  endfacet
  facet normal 5.555708e-001 8.314692e-001 -0.000000e+000
    outer loop
      vertex   3.956532e+001 5.625352e+001 3.750000e+000
      vertex   3.907868e+001 5.657868e+001 0.000000e+000
      vertex   3.907868e+001 5.657868e+001 7.500000e+000
    endloop
  endfacet
  facet normal -8.262376e-001 -5.633219e-001 -0.000000e+000
    outer loop
      vertex   3.681031e+001 5.809815e+001 3.750000e+000
      vertex   3.607147e+001 5.918182e+001 7.500000e+000
      vertex   3.607147e+001 5.918182e+001 0.000000e+000
    endloop
  endfacet
  facet normal 5.555693e-001 8.314703e-001 0.000000e+000
    outer loop
      vertex   3.956532e+001 5.625352e+001 3.750000e+000
      vertex   4.005195e+001 5.592836e+001 7.500000e+000
      vertex   4.005195e+001 5.592836e+001 0.000000e+000
    endloop
  endfacet
  facet normal 1.950882e-001 9.807857e-001 4.005745e-007
    outer loop
      vertex   4.062598e+001 5.581418e+001 3.750000e+000
      vertex   4.120000e+001 5.570000e+001 0.000000e+000
      vertex   4.005195e+001 5.592836e+001 0.000000e+000
    endloop
  endfacet
  facet normal 1.950907e-001 9.807852e-001 -0.000000e+000
    outer loop
      vertex   4.062598e+001 5.581418e+001 3.750000e+000
      vertex   4.005195e+001 5.592836e+001 0.000000e+000
      vertex   4.005195e+001 5.592836e+001 7.500000e+000
    endloop
  endfacet
  facet normal -8.262389e-001 -5.633199e-001 0.000000e+000
    outer loop
      vertex   3.681031e+001 5.809815e+001 3.750000e+000
      vertex   3.754914e+001 5.701448e+001 0.000000e+000
      vertex   3.754914e+001 5.701448e+001 7.500000e+000
    endloop
  endfacet
  facet normal 1.950857e-001 9.807863e-001 0.000000e+000
    outer loop
      vertex   4.062598e+001 5.581418e+001 3.750000e+000
      vertex   4.120000e+001 5.570000e+001 7.500000e+000
      vertex   4.120000e+001 5.570000e+001 0.000000e+000
    endloop
  endfacet
  facet normal -1.950888e-001 9.807856e-001 4.956277e-007
    outer loop
      vertex   4.177402e+001 5.581418e+001 3.750000e+000
      vertex   4.234805e+001 5.592836e+001 0.000000e+000
      vertex   4.120000e+001 5.570000e+001 0.000000e+000
    endloop
  endfacet
  facet normal -1.950857e-001 9.807863e-001 0.000000e+000
    outer loop
      vertex   4.177402e+001 5.581418e+001 3.750000e+000
      vertex   4.120000e+001 5.570000e+001 0.000000e+000
      vertex   4.120000e+001 5.570000e+001 7.500000e+000
    endloop
  endfacet
  facet normal -6.234916e-001 -7.818301e-001 -0.000000e+000
    outer loop
      vertex   3.857457e+001 5.619673e+001 3.750000e+000
      vertex   3.754914e+001 5.701448e+001 7.500000e+000
      vertex   3.754914e+001 5.701448e+001 0.000000e+000
    endloop
  endfacet
  facet normal -1.950920e-001 9.807850e-001 0.000000e+000
    outer loop
      vertex   4.177402e+001 5.581418e+001 3.750000e+000
      vertex   4.234805e+001 5.592836e+001 7.500000e+000
      vertex   4.234805e+001 5.592836e+001 0.000000e+000
    endloop
  endfacet
  facet normal -5.555701e-001 8.314698e-001 6.993088e-007
    outer loop
      vertex   4.283469e+001 5.625352e+001 3.750000e+000
      vertex   4.332132e+001 5.657868e+001 0.000000e+000
      vertex   4.234805e+001 5.592836e+001 0.000000e+000
    endloop
  endfacet
  facet normal -5.555663e-001 8.314723e-001 0.000000e+000
    outer loop
      vertex   4.283469e+001 5.625352e+001 3.750000e+000
      vertex   4.234805e+001 5.592836e+001 0.000000e+000
      vertex   4.234805e+001 5.592836e+001 7.500000e+000
    endloop
  endfacet
  facet normal -6.234902e-001 -7.818313e-001 0.000000e+000
    outer loop
      vertex   3.857457e+001 5.619673e+001 3.750000e+000
      vertex   3.960000e+001 5.537897e+001 0.000000e+000
      vertex   3.960000e+001 5.537897e+001 7.500000e+000
    endloop
  endfacet
  facet normal -5.555738e-001 8.314672e-001 0.000000e+000
    outer loop
      vertex   4.283469e+001 5.625352e+001 3.750000e+000
      vertex   4.332132e+001 5.657868e+001 7.500000e+000
      vertex   4.332132e+001 5.657868e+001 0.000000e+000
    endloop
  endfacet
  facet normal -8.314698e-001 5.555701e-001 -6.993088e-007
    outer loop
      vertex   4.364648e+001 5.706532e+001 3.750000e+000
      vertex   4.397164e+001 5.755195e+001 0.000000e+000
      vertex   4.332132e+001 5.657868e+001 0.000000e+000
    endloop
  endfacet
  facet normal -8.314723e-001 5.555663e-001 0.000000e+000
    outer loop
      vertex   4.364648e+001 5.706532e+001 3.750000e+000
      vertex   4.332132e+001 5.657868e+001 0.000000e+000
      vertex   4.332132e+001 5.657868e+001 7.500000e+000
    endloop
  endfacet
  facet normal -3.653412e-001 -9.308738e-001 -0.000000e+000
    outer loop
      vertex   4.082091e+001 5.489980e+001 3.750000e+000
      vertex   3.960000e+001 5.537897e+001 7.500000e+000
      vertex   3.960000e+001 5.537897e+001 0.000000e+000
    endloop
  endfacet
  facet normal -8.314672e-001 5.555738e-001 0.000000e+000
    outer loop
      vertex   4.364648e+001 5.706532e+001 3.750000e+000
      vertex   4.397164e+001 5.755195e+001 7.500000e+000
      vertex   4.397164e+001 5.755195e+001 0.000000e+000
    endloop
  endfacet
  facet normal -9.807850e-001 1.950913e-001 -1.018409e-007
    outer loop
      vertex   4.408582e+001 5.812598e+001 3.750000e+000
      vertex   4.420000e+001 5.870000e+001 0.000000e+000
      vertex   4.397164e+001 5.755195e+001 0.000000e+000
    endloop
  endfacet
  facet normal -9.807852e-001 1.950907e-001 0.000000e+000
    outer loop
      vertex   4.408582e+001 5.812598e+001 3.750000e+000
      vertex   4.397164e+001 5.755195e+001 0.000000e+000
      vertex   4.397164e+001 5.755195e+001 7.500000e+000
    endloop
  endfacet
  facet normal -3.653387e-001 -9.308747e-001 0.000000e+000
    outer loop
      vertex   4.082091e+001 5.489980e+001 3.750000e+000
      vertex   4.204182e+001 5.442064e+001 0.000000e+000
      vertex   4.204182e+001 5.442064e+001 7.500000e+000
    endloop
  endfacet
  facet normal -9.807850e-001 1.950920e-001 0.000000e+000
    outer loop
      vertex   4.408582e+001 5.812598e+001 3.750000e+000
      vertex   4.420000e+001 5.870000e+001 7.500000e+000
      vertex   4.420000e+001 5.870000e+001 0.000000e+000
    endloop
  endfacet
  facet normal 0.000000e+000 0.000000e+000 -1.000000e+000
    outer loop
      vertex   5.127090e+001 6.795721e+001 0.000000e+000
      vertex   5.240904e+001 6.559385e+001 0.000000e+000
      vertex   4.721500e+001 7.119169e+001 0.000000e+000
    endloop
  endfacet
  facet normal 9.888312e-001 1.490402e-001 0.000000e+000
    outer loop
      vertex   5.260452e+001 6.429692e+001 3.750000e+000
      vertex   5.280000e+001 6.300000e+001 7.500000e+000
      vertex   5.280000e+001 6.300000e+001 0.000000e+000
    endloop
  endfacet
  facet normal 9.888310e-001 1.490412e-001 -3.514424e-007
    outer loop
      vertex   5.260452e+001 6.429692e+001 3.750000e+000
      vertex   5.280000e+001 6.300000e+001 0.000000e+000
      vertex   5.240904e+001 6.559385e+001 0.000000e+000
    endloop
  endfacet
  facet normal 9.888309e-001 1.490421e-001 -0.000000e+000
    outer loop
      vertex   5.260452e+001 6.429692e+001 3.750000e+000
      vertex   5.240904e+001 6.559385e+001 0.000000e+000
      vertex   5.240904e+001 6.559385e+001 7.500000e+000
    endloop
  endfacet
  facet normal -7.473088e-002 -9.972038e-001 -0.000000e+000
    outer loop
      vertex   4.334972e+001 5.432262e+001 3.750000e+000
      vertex   4.204182e+001 5.442064e+001 7.500000e+000
      vertex   4.204182e+001 5.442064e+001 0.000000e+000
    endloop
  endfacet
  facet normal 9.009681e-001 4.338852e-001 0.000000e+000
    outer loop
      vertex   5.183997e+001 6.677553e+001 3.750000e+000
      vertex   5.240904e+001 6.559385e+001 7.500000e+000
      vertex   5.240904e+001 6.559385e+001 0.000000e+000
    endloop
  endfacet
  facet normal 9.009682e-001 4.338853e-001 -1.211874e-008
    outer loop
      vertex   5.183997e+001 6.677553e+001 3.750000e+000
      vertex   5.240904e+001 6.559385e+001 0.000000e+000
      vertex   5.127090e+001 6.795721e+001 0.000000e+000
    endloop
  endfacet
  facet normal 9.009681e-001 4.338853e-001 -0.000000e+000
    outer loop
      vertex   5.183997e+001 6.677553e+001 3.750000e+000
      vertex   5.127090e+001 6.795721e+001 0.000000e+000
      vertex   5.127090e+001 6.795721e+001 7.500000e+000
    endloop
  endfacet
  facet normal -7.473088e-002 -9.972038e-001 0.000000e+000
    outer loop
      vertex   4.334972e+001 5.432262e+001 3.750000e+000
      vertex   4.465762e+001 5.422461e+001 0.000000e+000
      vertex   4.465762e+001 5.422461e+001 7.500000e+000
    endloop
  endfacet
  facet normal 7.330547e-001 6.801698e-001 0.000000e+000
    outer loop
      vertex   5.037881e+001 6.891867e+001 3.750000e+000
      vertex   5.127090e+001 6.795721e+001 7.500000e+000
      vertex   5.127090e+001 6.795721e+001 0.000000e+000
    endloop
  endfacet
  facet normal 7.330526e-001 6.801719e-001 -1.066446e-006
    outer loop
      vertex   5.037881e+001 6.891867e+001 3.750000e+000
      vertex   5.127090e+001 6.795721e+001 0.000000e+000
      vertex   4.948671e+001 6.988012e+001 0.000000e+000
    endloop
  endfacet
  facet normal 7.330505e-001 6.801742e-001 -0.000000e+000
    outer loop
      vertex   5.037881e+001 6.891867e+001 3.750000e+000
      vertex   4.948671e+001 6.988012e+001 0.000000e+000
      vertex   4.948671e+001 6.988012e+001 7.500000e+000
    endloop
  endfacet
  facet normal 2.225204e-001 -9.749281e-001 0.000000e+000
    outer loop
      vertex   4.593631e+001 5.451646e+001 3.750000e+000
      vertex   4.465762e+001 5.422461e+001 7.500000e+000
      vertex   4.465762e+001 5.422461e+001 0.000000e+000
    endloop
  endfacet
  facet normal 4.999985e-001 8.660262e-001 0.000000e+000
    outer loop
      vertex   4.835085e+001 7.053590e+001 3.750000e+000
      vertex   4.948671e+001 6.988012e+001 7.500000e+000
      vertex   4.948671e+001 6.988012e+001 0.000000e+000
    endloop
  endfacet
  facet normal 4.999992e-001 8.660259e-001 2.544932e-007
    outer loop
      vertex   4.835085e+001 7.053590e+001 3.750000e+000
      vertex   4.948671e+001 6.988012e+001 0.000000e+000
      vertex   4.721500e+001 7.119169e+001 0.000000e+000
    endloop
  endfacet
  facet normal 4.999998e-001 8.660255e-001 -0.000000e+000
    outer loop
      vertex   4.835085e+001 7.053590e+001 3.750000e+000
      vertex   4.721500e+001 7.119169e+001 0.000000e+000
      vertex   4.721500e+001 7.119169e+001 7.500000e+000
    endloop
  endfacet
  facet normal 2.225225e-001 -9.749276e-001 0.000000e+000
    outer loop
      vertex   4.593631e+001 5.451646e+001 3.750000e+000
      vertex   4.721500e+001 5.480831e+001 0.000000e+000
      vertex   4.721500e+001 5.480831e+001 7.500000e+000
    endloop
  endfacet
  facet normal 2.225170e-001 9.749288e-001 0.000000e+000
    outer loop
      vertex   4.593631e+001 7.148354e+001 3.750000e+000
      vertex   4.721500e+001 7.119169e+001 7.500000e+000
      vertex   4.721500e+001 7.119169e+001 0.000000e+000
    endloop
  endfacet
  facet normal 2.225200e-001 9.749281e-001 1.102803e-006
    outer loop
      vertex   4.593631e+001 7.148354e+001 3.750000e+000
      vertex   4.721500e+001 7.119169e+001 0.000000e+000
      vertex   4.465762e+001 7.177539e+001 0.000000e+000
    endloop
  endfacet
  facet normal 2.225231e-001 9.749274e-001 -0.000000e+000
    outer loop
      vertex   4.593631e+001 7.148354e+001 3.750000e+000
      vertex   4.465762e+001 7.177539e+001 0.000000e+000
      vertex   4.465762e+001 7.177539e+001 7.500000e+000
    endloop
  endfacet
  facet normal 4.999998e-001 -8.660255e-001 0.000000e+000
    outer loop
      vertex   4.835085e+001 5.546410e+001 3.750000e+000
      vertex   4.721500e+001 5.480831e+001 7.500000e+000
      vertex   4.721500e+001 5.480831e+001 0.000000e+000
    endloop
  endfacet
  facet normal -7.472509e-002 9.972042e-001 0.000000e+000
    outer loop
      vertex   4.334972e+001 7.167738e+001 3.750000e+000
      vertex   4.465762e+001 7.177539e+001 7.500000e+000
      vertex   4.465762e+001 7.177539e+001 0.000000e+000
    endloop
  endfacet
  facet normal -7.472798e-002 9.972039e-001 -1.014944e-006
    outer loop
      vertex   4.334972e+001 7.167738e+001 3.750000e+000
      vertex   4.465762e+001 7.177539e+001 0.000000e+000
      vertex   4.204182e+001 7.157937e+001 0.000000e+000
    endloop
  endfacet
  facet normal -7.473088e-002 9.972038e-001 0.000000e+000
    outer loop
      vertex   4.334972e+001 7.167738e+001 3.750000e+000
      vertex   4.204182e+001 7.157937e+001 0.000000e+000
      vertex   4.204182e+001 7.157937e+001 7.500000e+000
    endloop
  endfacet
  facet normal 5.000007e-001 -8.660250e-001 0.000000e+000
    outer loop
      vertex   4.835085e+001 5.546410e+001 3.750000e+000
      vertex   4.948671e+001 5.611988e+001 0.000000e+000
      vertex   4.948671e+001 5.611988e+001 7.500000e+000
    endloop
  endfacet
  facet normal -3.653412e-001 9.308738e-001 0.000000e+000
    outer loop
      vertex   4.082091e+001 7.110020e+001 3.750000e+000
      vertex   4.204182e+001 7.157937e+001 7.500000e+000
      vertex   4.204182e+001 7.157937e+001 0.000000e+000
    endloop
  endfacet
  facet normal -3.653412e-001 9.308738e-001 0.000000e+000
    outer loop
      vertex   4.082091e+001 7.110020e+001 3.750000e+000
      vertex   4.204182e+001 7.157937e+001 0.000000e+000
      vertex   3.960000e+001 7.062103e+001 0.000000e+000
    endloop
  endfacet
  facet normal -3.653412e-001 9.308738e-001 0.000000e+000
    outer loop
      vertex   4.082091e+001 7.110020e+001 3.750000e+000
      vertex   3.960000e+001 7.062103e+001 0.000000e+000
      vertex   3.960000e+001 7.062103e+001 7.500000e+000
    endloop
  endfacet
  facet normal 7.330505e-001 -6.801742e-001 0.000000e+000
    outer loop
      vertex   5.037881e+001 5.708133e+001 3.750000e+000
      vertex   4.948671e+001 5.611988e+001 7.500000e+000
      vertex   4.948671e+001 5.611988e+001 0.000000e+000
    endloop
  endfacet
  facet normal 0.000000e+000 0.000000e+000 -1.000000e+000
    outer loop
      vertex   4.948671e+001 6.988012e+001 0.000000e+000
      vertex   5.127090e+001 6.795721e+001 0.000000e+000
      vertex   4.721500e+001 7.119169e+001 0.000000e+000
    endloop
  endfacet
  facet normal -6.234908e-001 7.818306e-001 4.726301e-007
    outer loop
      vertex   3.857457e+001 6.980327e+001 3.750000e+000
      vertex   3.960000e+001 7.062103e+001 0.000000e+000
      vertex   3.754914e+001 6.898552e+001 0.000000e+000
    endloop
  endfacet
  facet normal 7.330512e-001 -6.801733e-001 -3.756806e-007
    outer loop
      vertex   5.037881e+001 5.708133e+001 3.750000e+000
      vertex   4.948671e+001 5.611988e+001 0.000000e+000
      vertex   5.127090e+001 5.804278e+001 0.000000e+000
    endloop
  endfacet
  facet normal 7.330520e-001 -6.801726e-001 0.000000e+000
    outer loop
      vertex   5.037881e+001 5.708133e+001 3.750000e+000
      vertex   5.127090e+001 5.804278e+001 0.000000e+000
      vertex   5.127090e+001 5.804278e+001 7.500000e+000
    endloop
  endfacet
  facet normal 0.000000e+000 0.000000e+000 -1.000000e+000
    outer loop
      vertex   4.465762e+001 7.177539e+001 0.000000e+000
      vertex   5.280000e+001 6.300000e+001 0.000000e+000
      vertex   4.204182e+001 7.157937e+001 0.000000e+000
    endloop
  endfacet
  facet normal -8.262382e-001 5.633209e-001 4.241549e-007
    outer loop
      vertex   3.681031e+001 6.790185e+001 3.750000e+000
      vertex   3.754914e+001 6.898552e+001 0.000000e+000
      vertex   3.607147e+001 6.681818e+001 0.000000e+000
    endloop
  endfacet
  facet normal 0.000000e+000 0.000000e+000 -1.000000e+000
    outer loop
      vertex   5.240904e+001 6.559385e+001 0.000000e+000
      vertex   5.280000e+001 6.300000e+001 0.000000e+000
      vertex   4.465762e+001 7.177539e+001 0.000000e+000
    endloop
  endfacet
  facet normal 0.000000e+000 0.000000e+000 -1.000000e+000
    outer loop
      vertex   5.280000e+001 6.300000e+001 0.000000e+000
      vertex   5.240904e+001 6.040615e+001 0.000000e+000
      vertex   4.204182e+001 7.157937e+001 0.000000e+000
    endloop
  endfacet
  facet normal 0.000000e+000 0.000000e+000 -1.000000e+000
    outer loop
      vertex   4.204182e+001 7.157937e+001 0.000000e+000
      vertex   5.240904e+001 6.040615e+001 0.000000e+000
      vertex   3.960000e+001 7.062103e+001 0.000000e+000
    endloop
  endfacet
  facet normal -9.555733e-001 2.947538e-001 4.847486e-007
    outer loop
      vertex   3.568488e+001 6.556487e+001 3.750000e+000
      vertex   3.607147e+001 6.681818e+001 0.000000e+000
      vertex   3.529829e+001 6.431157e+001 0.000000e+000
    endloop
  endfacet
  facet normal 0.000000e+000 0.000000e+000 -1.000000e+000
    outer loop
      vertex   3.960000e+001 7.062103e+001 0.000000e+000
      vertex   5.127090e+001 5.804278e+001 0.000000e+000
      vertex   3.754914e+001 6.898552e+001 0.000000e+000
    endloop
  endfacet
  facet normal 0.000000e+000 0.000000e+000 -1.000000e+000
    outer loop
      vertex   5.127090e+001 5.804278e+001 0.000000e+000
      vertex   4.948671e+001 5.611988e+001 0.000000e+000
      vertex   3.754914e+001 6.898552e+001 0.000000e+000
    endloop
  endfacet
  facet normal 0.000000e+000 0.000000e+000 -1.000000e+000
    outer loop
      vertex   3.754914e+001 6.898552e+001 0.000000e+000
      vertex   4.948671e+001 5.611988e+001 0.000000e+000
      vertex   3.607147e+001 6.681818e+001 0.000000e+000
    endloop
  endfacet
  facet normal -1.000000e+000 0.000000e+000 0.000000e+000
    outer loop
      vertex   3.529829e+001 6.300000e+001 3.750000e+000
      vertex   3.529829e+001 6.431157e+001 0.000000e+000
      vertex   3.529829e+001 6.168843e+001 0.000000e+000
    endloop
  endfacet
  facet normal 0.000000e+000 0.000000e+000 -1.000000e+000
    outer loop
      vertex   4.948671e+001 5.611988e+001 0.000000e+000
      vertex   4.721500e+001 5.480831e+001 0.000000e+000
      vertex   4.397164e+001 5.984805e+001 0.000000e+000
    endloop
  endfacet
  facet normal 0.000000e+000 0.000000e+000 -1.000000e+000
    outer loop
      vertex   4.948671e+001 5.611988e+001 0.000000e+000
      vertex   4.397164e+001 5.984805e+001 0.000000e+000
      vertex   4.332132e+001 6.082132e+001 0.000000e+000
    endloop
  endfacet
  facet normal 0.000000e+000 0.000000e+000 -1.000000e+000
    outer loop
      vertex   4.948671e+001 5.611988e+001 0.000000e+000
      vertex   4.332132e+001 6.082132e+001 0.000000e+000
      vertex   3.607147e+001 6.681818e+001 0.000000e+000
    endloop
  endfacet
  facet normal -9.555731e-001 -2.947542e-001 6.362334e-007
    outer loop
      vertex   3.568488e+001 6.043513e+001 3.750000e+000
      vertex   3.529829e+001 6.168843e+001 0.000000e+000
      vertex   3.607147e+001 5.918182e+001 0.000000e+000
    endloop
  endfacet
  facet normal 0.000000e+000 0.000000e+000 -1.000000e+000
    outer loop
      vertex   4.332132e+001 6.082132e+001 0.000000e+000
      vertex   4.234805e+001 6.147164e+001 0.000000e+000
      vertex   3.607147e+001 6.681818e+001 0.000000e+000
    endloop
  endfacet
  facet normal 0.000000e+000 0.000000e+000 -1.000000e+000
    outer loop
      vertex   4.397164e+001 5.984805e+001 0.000000e+000
      vertex   4.721500e+001 5.480831e+001 0.000000e+000
      vertex   4.420000e+001 5.870000e+001 0.000000e+000
    endloop
  endfacet
  facet normal 0.000000e+000 0.000000e+000 -1.000000e+000
    outer loop
      vertex   4.234805e+001 6.147164e+001 0.000000e+000
      vertex   4.120000e+001 6.170000e+001 0.000000e+000
      vertex   3.607147e+001 6.681818e+001 0.000000e+000
    endloop
  endfacet
  facet normal -8.262382e-001 -5.633209e-001 4.120362e-007
    outer loop
      vertex   3.681031e+001 5.809815e+001 3.750000e+000
      vertex   3.607147e+001 5.918182e+001 0.000000e+000
      vertex   3.754914e+001 5.701448e+001 0.000000e+000
    endloop
  endfacet
  facet normal 0.000000e+000 0.000000e+000 -1.000000e+000
    outer loop
      vertex   4.420000e+001 5.870000e+001 0.000000e+000
      vertex   4.721500e+001 5.480831e+001 0.000000e+000
      vertex   4.397164e+001 5.755195e+001 0.000000e+000
    endloop
  endfacet
  facet normal 9.009681e-001 -4.338853e-001 0.000000e+000
    outer loop
      vertex   5.183997e+001 5.922447e+001 3.750000e+000
      vertex   5.127090e+001 5.804278e+001 7.500000e+000
      vertex   5.127090e+001 5.804278e+001 0.000000e+000
    endloop
  endfacet
  facet normal 0.000000e+000 0.000000e+000 -1.000000e+000
    outer loop
      vertex   4.721500e+001 5.480831e+001 0.000000e+000
      vertex   4.465762e+001 5.422461e+001 0.000000e+000
      vertex   4.397164e+001 5.755195e+001 0.000000e+000
    endloop
  endfacet
  facet normal -6.234908e-001 -7.818306e-001 -3.150868e-007
    outer loop
      vertex   3.857457e+001 5.619673e+001 3.750000e+000
      vertex   3.754914e+001 5.701448e+001 0.000000e+000
      vertex   3.960000e+001 5.537897e+001 0.000000e+000
    endloop
  endfacet
  facet normal 0.000000e+000 0.000000e+000 -1.000000e+000
    outer loop
      vertex   3.607147e+001 6.681818e+001 0.000000e+000
      vertex   4.005195e+001 6.147164e+001 0.000000e+000
      vertex   3.529829e+001 6.431157e+001 0.000000e+000
    endloop
  endfacet
  facet normal 0.000000e+000 0.000000e+000 -1.000000e+000
    outer loop
      vertex   4.397164e+001 5.755195e+001 0.000000e+000
      vertex   4.465762e+001 5.422461e+001 0.000000e+000
      vertex   4.332132e+001 5.657868e+001 0.000000e+000
    endloop
  endfacet
  facet normal 0.000000e+000 0.000000e+000 -1.000000e+000
    outer loop
      vertex   4.005195e+001 6.147164e+001 0.000000e+000
      vertex   3.907868e+001 6.082132e+001 0.000000e+000
      vertex   3.529829e+001 6.431157e+001 0.000000e+000
    endloop
  endfacet
  facet normal -3.653399e-001 -9.308742e-001 -4.847485e-007
    outer loop
      vertex   4.082091e+001 5.489980e+001 3.750000e+000
      vertex   3.960000e+001 5.537897e+001 0.000000e+000
      vertex   4.204182e+001 5.442064e+001 0.000000e+000
    endloop
  endfacet
  facet normal 0.000000e+000 0.000000e+000 -1.000000e+000
    outer loop
      vertex   4.721500e+001 7.119169e+001 0.000000e+000
      vertex   5.240904e+001 6.559385e+001 0.000000e+000
      vertex   4.465762e+001 7.177539e+001 0.000000e+000
    endloop
  endfacet
  facet normal 9.009687e-001 -4.338841e-001 -4.605108e-007
    outer loop
      vertex   5.183997e+001 5.922447e+001 3.750000e+000
      vertex   5.127090e+001 5.804278e+001 0.000000e+000
      vertex   5.240904e+001 6.040615e+001 0.000000e+000
    endloop
  endfacet
  facet normal 9.009693e-001 -4.338830e-001 0.000000e+000
    outer loop
      vertex   5.183997e+001 5.922447e+001 3.750000e+000
      vertex   5.240904e+001 6.040615e+001 0.000000e+000
      vertex   5.240904e+001 6.040615e+001 7.500000e+000
    endloop
  endfacet
  facet normal -7.473088e-002 -9.972038e-001 0.000000e+000
    outer loop
      vertex   4.334972e+001 5.432262e+001 3.750000e+000
      vertex   4.204182e+001 5.442064e+001 0.000000e+000
      vertex   4.465762e+001 5.422461e+001 0.000000e+000
    endloop
  endfacet
  facet normal 0.000000e+000 0.000000e+000 -1.000000e+000
    outer loop
      vertex   3.907868e+001 6.082132e+001 0.000000e+000
      vertex   3.842836e+001 5.984805e+001 0.000000e+000
      vertex   3.529829e+001 6.431157e+001 0.000000e+000
    endloop
  endfacet
  facet normal 0.000000e+000 0.000000e+000 -1.000000e+000
    outer loop
      vertex   3.529829e+001 6.431157e+001 0.000000e+000
      vertex   3.842836e+001 5.984805e+001 0.000000e+000
      vertex   3.529829e+001 6.168843e+001 0.000000e+000
    endloop
  endfacet
  facet normal 0.000000e+000 0.000000e+000 -1.000000e+000
    outer loop
      vertex   4.465762e+001 5.422461e+001 0.000000e+000
      vertex   4.204182e+001 5.442064e+001 0.000000e+000
      vertex   4.234805e+001 5.592836e+001 0.000000e+000
    endloop
  endfacet
  facet normal 2.225214e-001 -9.749278e-001 -3.817395e-007
    outer loop
      vertex   4.593631e+001 5.451646e+001 3.750000e+000
      vertex   4.465762e+001 5.422461e+001 0.000000e+000
      vertex   4.721500e+001 5.480831e+001 0.000000e+000
    endloop
  endfacet
  facet normal 0.000000e+000 0.000000e+000 -1.000000e+000
    outer loop
      vertex   4.234805e+001 5.592836e+001 0.000000e+000
      vertex   4.204182e+001 5.442064e+001 0.000000e+000
      vertex   4.120000e+001 5.570000e+001 0.000000e+000
    endloop
  endfacet
  facet normal 0.000000e+000 0.000000e+000 -1.000000e+000
    outer loop
      vertex   3.842836e+001 5.984805e+001 0.000000e+000
      vertex   3.820000e+001 5.870000e+001 0.000000e+000
      vertex   3.529829e+001 6.168843e+001 0.000000e+000
    endloop
  endfacet
  facet normal 0.000000e+000 0.000000e+000 -1.000000e+000
    outer loop
      vertex   4.120000e+001 5.570000e+001 0.000000e+000
      vertex   4.204182e+001 5.442064e+001 0.000000e+000
      vertex   4.005195e+001 5.592836e+001 0.000000e+000
    endloop
  endfacet
  facet normal 5.000003e-001 -8.660253e-001 -1.938995e-007
    outer loop
      vertex   4.835085e+001 5.546410e+001 3.750000e+000
      vertex   4.721500e+001 5.480831e+001 0.000000e+000
      vertex   4.948671e+001 5.611988e+001 0.000000e+000
    endloop
  endfacet
  facet normal 0.000000e+000 0.000000e+000 -1.000000e+000
    outer loop
      vertex   3.820000e+001 5.870000e+001 0.000000e+000
      vertex   3.842836e+001 5.755195e+001 0.000000e+000
      vertex   3.529829e+001 6.168843e+001 0.000000e+000
    endloop
  endfacet
  facet normal 0.000000e+000 0.000000e+000 -1.000000e+000
    outer loop
      vertex   3.529829e+001 6.168843e+001 0.000000e+000
      vertex   3.842836e+001 5.755195e+001 0.000000e+000
      vertex   3.607147e+001 5.918182e+001 0.000000e+000
    endloop
  endfacet
  facet normal 0.000000e+000 0.000000e+000 -1.000000e+000
    outer loop
      vertex   4.204182e+001 5.442064e+001 0.000000e+000
      vertex   3.960000e+001 5.537897e+001 0.000000e+000
      vertex   4.005195e+001 5.592836e+001 0.000000e+000
    endloop
  endfacet
  facet normal 0.000000e+000 0.000000e+000 -1.000000e+000
    outer loop
      vertex   5.240904e+001 6.040615e+001 0.000000e+000
      vertex   5.127090e+001 5.804278e+001 0.000000e+000
      vertex   3.960000e+001 7.062103e+001 0.000000e+000
    endloop
  endfacet
  facet normal 0.000000e+000 0.000000e+000 -1.000000e+000
    outer loop
      vertex   4.120000e+001 6.170000e+001 0.000000e+000
      vertex   4.005195e+001 6.147164e+001 0.000000e+000
      vertex   3.607147e+001 6.681818e+001 0.000000e+000
    endloop
  endfacet
  facet normal 0.000000e+000 0.000000e+000 -1.000000e+000
    outer loop
      vertex   4.332132e+001 5.657868e+001 0.000000e+000
      vertex   4.465762e+001 5.422461e+001 0.000000e+000
      vertex   4.234805e+001 5.592836e+001 0.000000e+000
    endloop
  endfacet
  facet normal 9.888308e-001 -1.490426e-001 0.000000e+000
    outer loop
      vertex   5.260452e+001 6.170308e+001 3.750000e+000
      vertex   5.240904e+001 6.040615e+001 7.500000e+000
      vertex   5.240904e+001 6.040615e+001 0.000000e+000
    endloop
  endfacet
  facet normal 0.000000e+000 0.000000e+000 -1.000000e+000
    outer loop
      vertex   3.842836e+001 5.755195e+001 0.000000e+000
      vertex   3.907868e+001 5.657868e+001 0.000000e+000
      vertex   3.607147e+001 5.918182e+001 0.000000e+000
    endloop
  endfacet
  facet normal 0.000000e+000 0.000000e+000 -1.000000e+000
    outer loop
      vertex   4.005195e+001 5.592836e+001 0.000000e+000
      vertex   3.960000e+001 5.537897e+001 0.000000e+000
      vertex   3.907868e+001 5.657868e+001 0.000000e+000
    endloop
  endfacet
  facet normal 0.000000e+000 0.000000e+000 -1.000000e+000
    outer loop
      vertex   3.607147e+001 5.918182e+001 0.000000e+000
      vertex   3.960000e+001 5.537897e+001 0.000000e+000
      vertex   3.754914e+001 5.701448e+001 0.000000e+000
    endloop
  endfacet
  facet normal 9.888310e-001 -1.490414e-001 -4.302146e-007
    outer loop
      vertex   5.260452e+001 6.170308e+001 3.750000e+000
      vertex   5.240904e+001 6.040615e+001 0.000000e+000
      vertex   5.280000e+001 6.300000e+001 0.000000e+000
    endloop
  endfacet
  facet normal 9.888312e-001 -1.490402e-001 0.000000e+000
    outer loop
      vertex   5.260452e+001 6.170308e+001 3.750000e+000
      vertex   5.280000e+001 6.300000e+001 0.000000e+000
      vertex   5.280000e+001 6.300000e+001 7.500000e+000
    endloop
  endfacet
  facet normal 0.000000e+000 0.000000e+000 -1.000000e+000
    outer loop
      vertex   3.907868e+001 5.657868e+001 0.000000e+000
      vertex   3.960000e+001 5.537897e+001 0.000000e+000
      vertex   3.607147e+001 5.918182e+001 0.000000e+000
    endloop
  endfacet
  facet normal -8.314698e-001 5.555701e-001 7.060982e-007
    outer loop
      vertex   4.364648e+001 5.706532e+001 3.750000e+000
      vertex   4.332132e+001 5.657868e+001 7.500000e+000
      vertex   4.397164e+001 5.755195e+001 7.500000e+000
    endloop
  endfacet
  facet normal 9.888310e-001 1.490412e-001 3.514424e-007
    outer loop
      vertex   5.260452e+001 6.429692e+001 3.750000e+000
      vertex   5.240904e+001 6.559385e+001 7.500000e+000
      vertex   5.280000e+001 6.300000e+001 7.500000e+000
    endloop
  endfacet
  facet normal -6.234908e-001 7.818306e-001 -4.847489e-007
    outer loop
      vertex   3.857457e+001 6.980327e+001 3.750000e+000
      vertex   3.754914e+001 6.898552e+001 7.500000e+000
      vertex   3.960000e+001 7.062103e+001 7.500000e+000
    endloop
  endfacet
  facet normal 7.330512e-001 -6.801733e-001 3.756806e-007
    outer loop
      vertex   5.037881e+001 5.708133e+001 3.750000e+000
      vertex   5.127090e+001 5.804278e+001 7.500000e+000
      vertex   4.948671e+001 5.611988e+001 7.500000e+000
    endloop
  endfacet
  facet normal -3.653412e-001 9.308738e-001 0.000000e+000
    outer loop
      vertex   4.082091e+001 7.110020e+001 3.750000e+000
      vertex   3.960000e+001 7.062103e+001 7.500000e+000
      vertex   4.204182e+001 7.157937e+001 7.500000e+000
    endloop
  endfacet
  facet normal -7.472798e-002 9.972039e-001 1.011914e-006
    outer loop
      vertex   4.334972e+001 7.167738e+001 3.750000e+000
      vertex   4.204182e+001 7.157937e+001 7.500000e+000
      vertex   4.465762e+001 7.177539e+001 7.500000e+000
    endloop
  endfacet
  facet normal 5.000003e-001 -8.660253e-001 1.817807e-007
    outer loop
      vertex   4.835085e+001 5.546410e+001 3.750000e+000
      vertex   4.948671e+001 5.611988e+001 7.500000e+000
      vertex   4.721500e+001 5.480831e+001 7.500000e+000
    endloop
  endfacet
  facet normal 2.225200e-001 9.749281e-001 -1.102803e-006
    outer loop
      vertex   4.593631e+001 7.148354e+001 3.750000e+000
      vertex   4.465762e+001 7.177539e+001 7.500000e+000
      vertex   4.721500e+001 7.119169e+001 7.500000e+000
    endloop
  endfacet
  facet normal 4.999992e-001 8.660259e-001 -2.544932e-007
    outer loop
      vertex   4.835085e+001 7.053590e+001 3.750000e+000
      vertex   4.721500e+001 7.119169e+001 7.500000e+000
      vertex   4.948671e+001 6.988012e+001 7.500000e+000
    endloop
  endfacet
  facet normal 2.225214e-001 -9.749278e-001 3.817395e-007
    outer loop
      vertex   4.593631e+001 5.451646e+001 3.750000e+000
      vertex   4.721500e+001 5.480831e+001 7.500000e+000
      vertex   4.465762e+001 5.422461e+001 7.500000e+000
    endloop
  endfacet
  facet normal 7.330526e-001 6.801719e-001 1.066446e-006
    outer loop
      vertex   5.037881e+001 6.891867e+001 3.750000e+000
      vertex   4.948671e+001 6.988012e+001 7.500000e+000
      vertex   5.127090e+001 6.795721e+001 7.500000e+000
    endloop
  endfacet
  facet normal 9.009682e-001 4.338853e-001 2.423748e-008
    outer loop
      vertex   5.183997e+001 6.677553e+001 3.750000e+000
      vertex   5.127090e+001 6.795721e+001 7.500000e+000
      vertex   5.240904e+001 6.559385e+001 7.500000e+000
    endloop
  endfacet
  facet normal 9.888310e-001 -1.490414e-001 4.241553e-007
    outer loop
      vertex   5.260452e+001 6.170308e+001 3.750000e+000
      vertex   5.280000e+001 6.300000e+001 7.500000e+000
      vertex   5.240904e+001 6.040615e+001 7.500000e+000
    endloop
  endfacet
  facet normal -3.653399e-001 -9.308742e-001 4.726298e-007
    outer loop
      vertex   4.082091e+001 5.489980e+001 3.750000e+000
      vertex   4.204182e+001 5.442064e+001 7.500000e+000
      vertex   3.960000e+001 5.537897e+001 7.500000e+000
    endloop
  endfacet
  facet normal -5.555701e-001 8.314698e-001 -7.060982e-007
    outer loop
      vertex   4.283469e+001 5.625352e+001 3.750000e+000
      vertex   4.234805e+001 5.592836e+001 7.500000e+000
      vertex   4.332132e+001 5.657868e+001 7.500000e+000
    endloop
  endfacet
  facet normal 1.950882e-001 9.807857e-001 -4.005745e-007
    outer loop
      vertex   4.062598e+001 5.581418e+001 3.750000e+000
      vertex   4.005195e+001 5.592836e+001 7.500000e+000
      vertex   4.120000e+001 5.570000e+001 7.500000e+000
    endloop
  endfacet
  facet normal -1.950888e-001 9.807856e-001 -4.990224e-007
    outer loop
      vertex   4.177402e+001 5.581418e+001 3.750000e+000
      vertex   4.120000e+001 5.570000e+001 7.500000e+000
      vertex   4.234805e+001 5.592836e+001 7.500000e+000
    endloop
  endfacet
  facet normal -6.234908e-001 -7.818306e-001 3.150868e-007
    outer loop
      vertex   3.857457e+001 5.619673e+001 3.750000e+000
      vertex   3.960000e+001 5.537897e+001 7.500000e+000
      vertex   3.754914e+001 5.701448e+001 7.500000e+000
    endloop
  endfacet
  facet normal 5.555701e-001 8.314698e-001 -1.357881e-007
    outer loop
      vertex   3.956532e+001 5.625352e+001 3.750000e+000
      vertex   3.907868e+001 5.657868e+001 7.500000e+000
      vertex   4.005195e+001 5.592836e+001 7.500000e+000
    endloop
  endfacet
  facet normal -9.807850e-001 -1.950920e-001 0.000000e+000
    outer loop
      vertex   4.408582e+001 5.927402e+001 3.750000e+000
      vertex   4.420000e+001 5.870000e+001 7.500000e+000
      vertex   4.397164e+001 5.984805e+001 7.500000e+000
    endloop
  endfacet
  facet normal 8.314698e-001 5.555701e-001 -1.425775e-007
    outer loop
      vertex   3.875352e+001 5.706532e+001 3.750000e+000
      vertex   3.842836e+001 5.755195e+001 7.500000e+000
      vertex   3.907868e+001 5.657868e+001 7.500000e+000
    endloop
  endfacet
  facet normal 9.807857e-001 1.950882e-001 -4.005745e-007
    outer loop
      vertex   3.831418e+001 5.812598e+001 3.750000e+000
      vertex   3.820000e+001 5.870000e+001 7.500000e+000
      vertex   3.842836e+001 5.755195e+001 7.500000e+000
    endloop
  endfacet
  facet normal -9.555731e-001 -2.947542e-001 -6.362334e-007
    outer loop
      vertex   3.568488e+001 6.043513e+001 3.750000e+000
      vertex   3.607147e+001 5.918182e+001 7.500000e+000
      vertex   3.529829e+001 6.168843e+001 7.500000e+000
    endloop
  endfacet
  facet normal 9.807856e-001 -1.950888e-001 -4.956277e-007
    outer loop
      vertex   3.831418e+001 5.927402e+001 3.750000e+000
      vertex   3.842836e+001 5.984805e+001 7.500000e+000
      vertex   3.820000e+001 5.870000e+001 7.500000e+000
    endloop
  endfacet
  facet normal 8.314698e-001 -5.555701e-001 -6.993088e-007
    outer loop
      vertex   3.875352e+001 6.033469e+001 3.750000e+000
      vertex   3.907868e+001 6.082132e+001 7.500000e+000
      vertex   3.842836e+001 5.984805e+001 7.500000e+000
    endloop
  endfacet
  facet normal -1.000000e+000 0.000000e+000 0.000000e+000
    outer loop
      vertex   3.529829e+001 6.300000e+001 3.750000e+000
      vertex   3.529829e+001 6.168843e+001 7.500000e+000
      vertex   3.529829e+001 6.431157e+001 7.500000e+000
    endloop
  endfacet
  facet normal 5.555701e-001 -8.314698e-001 6.993088e-007
    outer loop
      vertex   3.956532e+001 6.114648e+001 3.750000e+000
      vertex   4.005195e+001 6.147164e+001 7.500000e+000
      vertex   3.907868e+001 6.082132e+001 7.500000e+000
    endloop
  endfacet
  facet normal 1.950913e-001 -9.807850e-001 1.018409e-007
    outer loop
      vertex   4.062598e+001 6.158582e+001 3.750000e+000
      vertex   4.120000e+001 6.170000e+001 7.500000e+000
      vertex   4.005195e+001 6.147164e+001 7.500000e+000
    endloop
  endfacet
  facet normal 9.009687e-001 -4.338841e-001 4.605108e-007
    outer loop
      vertex   5.183997e+001 5.922447e+001 3.750000e+000
      vertex   5.240904e+001 6.040615e+001 7.500000e+000
      vertex   5.127090e+001 5.804278e+001 7.500000e+000
    endloop
  endfacet
  facet normal -9.555733e-001 2.947538e-001 -4.847486e-007
    outer loop
      vertex   3.568488e+001 6.556487e+001 3.750000e+000
      vertex   3.529829e+001 6.431157e+001 7.500000e+000
      vertex   3.607147e+001 6.681818e+001 7.500000e+000
    endloop
  endfacet
  facet normal -1.950920e-001 -9.807850e-001 0.000000e+000
    outer loop
      vertex   4.177402e+001 6.158582e+001 3.750000e+000
      vertex   4.234805e+001 6.147164e+001 7.500000e+000
      vertex   4.120000e+001 6.170000e+001 7.500000e+000
    endloop
  endfacet
  facet normal -8.314698e-001 -5.555701e-001 1.357881e-007
    outer loop
      vertex   4.364648e+001 6.033469e+001 3.750000e+000
      vertex   4.397164e+001 5.984805e+001 7.500000e+000
      vertex   4.332132e+001 6.082132e+001 7.500000e+000
    endloop
  endfacet
  facet normal -5.555701e-001 -8.314698e-001 1.425775e-007
    outer loop
      vertex   4.283469e+001 6.114648e+001 3.750000e+000
      vertex   4.332132e+001 6.082132e+001 7.500000e+000
      vertex   4.234805e+001 6.147164e+001 7.500000e+000
    endloop
  endfacet
  facet normal -8.262382e-001 5.633209e-001 -4.120362e-007
    outer loop
      vertex   3.681031e+001 6.790185e+001 3.750000e+000
      vertex   3.607147e+001 6.681818e+001 7.500000e+000
      vertex   3.754914e+001 6.898552e+001 7.500000e+000
    endloop
  endfacet
  facet normal -9.807850e-001 1.950913e-001 9.844621e-008
    outer loop
      vertex   4.408582e+001 5.812598e+001 3.750000e+000
      vertex   4.397164e+001 5.755195e+001 7.500000e+000
      vertex   4.420000e+001 5.870000e+001 7.500000e+000
    endloop
  endfacet
  facet normal -7.473088e-002 -9.972038e-001 0.000000e+000
    outer loop
      vertex   4.334972e+001 5.432262e+001 3.750000e+000
      vertex   4.465762e+001 5.422461e+001 7.500000e+000
      vertex   4.204182e+001 5.442064e+001 7.500000e+000
    endloop
  endfacet
  facet normal -8.262382e-001 -5.633209e-001 -4.241549e-007
    outer loop
      vertex   3.681031e+001 5.809815e+001 3.750000e+000
      vertex   3.754914e+001 5.701448e+001 7.500000e+000
      vertex   3.607147e+001 5.918182e+001 7.500000e+000
    endloop
  endfacet
  facet normal 0.000000e+000 0.000000e+000 1.000000e+000
    outer loop
      vertex   4.120000e+001 6.170000e+001 7.500000e+000
      vertex   3.607147e+001 6.681818e+001 7.500000e+000
      vertex   4.005195e+001 6.147164e+001 7.500000e+000
    endloop
  endfacet
  facet normal 0.000000e+000 0.000000e+000 1.000000e+000
    outer loop
      vertex   3.907868e+001 5.657868e+001 7.500000e+000
      vertex   3.607147e+001 5.918182e+001 7.500000e+000
      vertex   3.960000e+001 5.537897e+001 7.500000e+000
    endloop
  endfacet
  facet normal 0.000000e+000 0.000000e+000 1.000000e+000
    outer loop
      vertex   3.842836e+001 5.755195e+001 7.500000e+000
      vertex   3.607147e+001 5.918182e+001 7.500000e+000
      vertex   3.907868e+001 5.657868e+001 7.500000e+000
    endloop
  endfacet
  facet normal 0.000000e+000 0.000000e+000 1.000000e+000
    outer loop
      vertex   4.005195e+001 5.592836e+001 7.500000e+000
      vertex   3.907868e+001 5.657868e+001 7.500000e+000
      vertex   3.960000e+001 5.537897e+001 7.500000e+000
    endloop
  endfacet
  facet normal 0.000000e+000 0.000000e+000 1.000000e+000
    outer loop
      vertex   4.204182e+001 5.442064e+001 7.500000e+000
      vertex   4.005195e+001 5.592836e+001 7.500000e+000
      vertex   3.960000e+001 5.537897e+001 7.500000e+000
    endloop
  endfacet
  facet normal -0.000000e+000 -0.000000e+000 1.000000e+000
    outer loop
      vertex   3.529829e+001 6.168843e+001 7.500000e+000
      vertex   3.607147e+001 5.918182e+001 7.500000e+000
      vertex   3.842836e+001 5.755195e+001 7.500000e+000
    endloop
  endfacet
  facet normal 0.000000e+000 0.000000e+000 1.000000e+000
    outer loop
      vertex   3.820000e+001 5.870000e+001 7.500000e+000
      vertex   3.529829e+001 6.168843e+001 7.500000e+000
      vertex   3.842836e+001 5.755195e+001 7.500000e+000
    endloop
  endfacet
  facet normal 0.000000e+000 0.000000e+000 1.000000e+000
    outer loop
      vertex   4.120000e+001 5.570000e+001 7.500000e+000
      vertex   4.005195e+001 5.592836e+001 7.500000e+000
      vertex   4.204182e+001 5.442064e+001 7.500000e+000
    endloop
  endfacet
  facet normal 0.000000e+000 0.000000e+000 1.000000e+000
    outer loop
      vertex   3.842836e+001 5.984805e+001 7.500000e+000
      vertex   3.529829e+001 6.168843e+001 7.500000e+000
      vertex   3.820000e+001 5.870000e+001 7.500000e+000
    endloop
  endfacet
  facet normal -0.000000e+000 0.000000e+000 1.000000e+000
    outer loop
      vertex   4.234805e+001 5.592836e+001 7.500000e+000
      vertex   4.120000e+001 5.570000e+001 7.500000e+000
      vertex   4.204182e+001 5.442064e+001 7.500000e+000
    endloop
  endfacet
  facet normal 0.000000e+000 0.000000e+000 1.000000e+000
    outer loop
      vertex   4.465762e+001 5.422461e+001 7.500000e+000
      vertex   4.234805e+001 5.592836e+001 7.500000e+000
      vertex   4.204182e+001 5.442064e+001 7.500000e+000
    endloop
  endfacet
  facet normal -0.000000e+000 0.000000e+000 1.000000e+000
    outer loop
      vertex   3.529829e+001 6.431157e+001 7.500000e+000
      vertex   3.529829e+001 6.168843e+001 7.500000e+000
      vertex   3.842836e+001 5.984805e+001 7.500000e+000
    endloop
  endfacet
  facet normal 0.000000e+000 0.000000e+000 1.000000e+000
    outer loop
      vertex   3.907868e+001 6.082132e+001 7.500000e+000
      vertex   3.529829e+001 6.431157e+001 7.500000e+000
      vertex   3.842836e+001 5.984805e+001 7.500000e+000
    endloop
  endfacet
  facet normal -0.000000e+000 0.000000e+000 1.000000e+000
    outer loop
      vertex   4.332132e+001 5.657868e+001 7.500000e+000
      vertex   4.234805e+001 5.592836e+001 7.500000e+000
      vertex   4.465762e+001 5.422461e+001 7.500000e+000
    endloop
  endfacet
  facet normal 0.000000e+000 0.000000e+000 1.000000e+000
    outer loop
      vertex   4.005195e+001 6.147164e+001 7.500000e+000
      vertex   3.529829e+001 6.431157e+001 7.500000e+000
      vertex   3.907868e+001 6.082132e+001 7.500000e+000
    endloop
  endfacet
  facet normal -0.000000e+000 0.000000e+000 1.000000e+000
    outer loop
      vertex   4.397164e+001 5.755195e+001 7.500000e+000
      vertex   4.332132e+001 5.657868e+001 7.500000e+000
      vertex   4.465762e+001 5.422461e+001 7.500000e+000
    endloop
  endfacet
  facet normal 0.000000e+000 0.000000e+000 1.000000e+000
    outer loop
      vertex   4.721500e+001 5.480831e+001 7.500000e+000
      vertex   4.397164e+001 5.755195e+001 7.500000e+000
      vertex   4.465762e+001 5.422461e+001 7.500000e+000
    endloop
  endfacet
  facet normal -0.000000e+000 0.000000e+000 1.000000e+000
    outer loop
      vertex   3.607147e+001 6.681818e+001 7.500000e+000
      vertex   3.529829e+001 6.431157e+001 7.500000e+000
      vertex   4.005195e+001 6.147164e+001 7.500000e+000
    endloop
  endfacet
  facet normal -0.000000e+000 -0.000000e+000 1.000000e+000
    outer loop
      vertex   3.607147e+001 5.918182e+001 7.500000e+000
      vertex   3.754914e+001 5.701448e+001 7.500000e+000
      vertex   3.960000e+001 5.537897e+001 7.500000e+000
    endloop
  endfacet
  facet normal -0.000000e+000 0.000000e+000 1.000000e+000
    outer loop
      vertex   4.420000e+001 5.870000e+001 7.500000e+000
      vertex   4.397164e+001 5.755195e+001 7.500000e+000
      vertex   4.721500e+001 5.480831e+001 7.500000e+000
    endloop
  endfacet
  facet normal 0.000000e+000 0.000000e+000 1.000000e+000
    outer loop
      vertex   4.234805e+001 6.147164e+001 7.500000e+000
      vertex   3.607147e+001 6.681818e+001 7.500000e+000
      vertex   4.120000e+001 6.170000e+001 7.500000e+000
    endloop
  endfacet
  facet normal -0.000000e+000 -0.000000e+000 1.000000e+000
    outer loop
      vertex   4.397164e+001 5.984805e+001 7.500000e+000
      vertex   4.420000e+001 5.870000e+001 7.500000e+000
      vertex   4.721500e+001 5.480831e+001 7.500000e+000
    endloop
  endfacet
  facet normal 0.000000e+000 0.000000e+000 1.000000e+000
    outer loop
      vertex   4.332132e+001 6.082132e+001 7.500000e+000
      vertex   3.607147e+001 6.681818e+001 7.500000e+000
      vertex   4.234805e+001 6.147164e+001 7.500000e+000
    endloop
  endfacet
  facet normal 0.000000e+000 0.000000e+000 1.000000e+000
    outer loop
      vertex   4.948671e+001 5.611988e+001 7.500000e+000
      vertex   3.607147e+001 6.681818e+001 7.500000e+000
      vertex   4.332132e+001 6.082132e+001 7.500000e+000
    endloop
  endfacet
  facet normal 0.000000e+000 0.000000e+000 1.000000e+000
    outer loop
      vertex   4.948671e+001 5.611988e+001 7.500000e+000
      vertex   4.332132e+001 6.082132e+001 7.500000e+000
      vertex   4.397164e+001 5.984805e+001 7.500000e+000
    endloop
  endfacet
  facet normal 0.000000e+000 0.000000e+000 1.000000e+000
    outer loop
      vertex   4.948671e+001 5.611988e+001 7.500000e+000
      vertex   4.397164e+001 5.984805e+001 7.500000e+000
      vertex   4.721500e+001 5.480831e+001 7.500000e+000
    endloop
  endfacet
  facet normal -0.000000e+000 0.000000e+000 1.000000e+000
    outer loop
      vertex   3.754914e+001 6.898552e+001 7.500000e+000
      vertex   3.607147e+001 6.681818e+001 7.500000e+000
      vertex   4.948671e+001 5.611988e+001 7.500000e+000
    endloop
  endfacet
  facet normal 0.000000e+000 0.000000e+000 1.000000e+000
    outer loop
      vertex   5.127090e+001 5.804278e+001 7.500000e+000
      vertex   3.754914e+001 6.898552e+001 7.500000e+000
      vertex   4.948671e+001 5.611988e+001 7.500000e+000
    endloop
  endfacet
  facet normal -0.000000e+000 0.000000e+000 1.000000e+000
    outer loop
      vertex   3.960000e+001 7.062103e+001 7.500000e+000
      vertex   3.754914e+001 6.898552e+001 7.500000e+000
      vertex   5.127090e+001 5.804278e+001 7.500000e+000
    endloop
  endfacet
  facet normal 0.000000e+000 0.000000e+000 1.000000e+000
    outer loop
      vertex   5.240904e+001 6.040615e+001 7.500000e+000
      vertex   3.960000e+001 7.062103e+001 7.500000e+000
      vertex   5.127090e+001 5.804278e+001 7.500000e+000
    endloop
  endfacet
  facet normal -0.000000e+000 0.000000e+000 1.000000e+000
    outer loop
      vertex   4.204182e+001 7.157937e+001 7.500000e+000
      vertex   3.960000e+001 7.062103e+001 7.500000e+000
      vertex   5.240904e+001 6.040615e+001 7.500000e+000
    endloop
  endfacet
  facet normal 0.000000e+000 0.000000e+000 1.000000e+000
    outer loop
      vertex   5.280000e+001 6.300000e+001 7.500000e+000
      vertex   4.204182e+001 7.157937e+001 7.500000e+000
      vertex   5.240904e+001 6.040615e+001 7.500000e+000
    endloop
  endfacet
  facet normal -0.000000e+000 0.000000e+000 1.000000e+000
    outer loop
      vertex   4.465762e+001 7.177539e+001 7.500000e+000
      vertex   4.204182e+001 7.157937e+001 7.500000e+000
      vertex   5.280000e+001 6.300000e+001 7.500000e+000
    endloop
  endfacet
  facet normal 0.000000e+000 0.000000e+000 1.000000e+000
    outer loop
      vertex   5.240904e+001 6.559385e+001 7.500000e+000
      vertex   4.465762e+001 7.177539e+001 7.500000e+000
      vertex   5.280000e+001 6.300000e+001 7.500000e+000
    endloop
  endfacet
  facet normal 0.000000e+000 0.000000e+000 1.000000e+000
    outer loop
      vertex   4.721500e+001 7.119169e+001 7.500000e+000
      vertex   4.465762e+001 7.177539e+001 7.500000e+000
      vertex   5.240904e+001 6.559385e+001 7.500000e+000
    endloop
  endfacet
  facet normal 0.000000e+000 0.000000e+000 1.000000e+000
    outer loop
      vertex   5.127090e+001 6.795721e+001 7.500000e+000
      vertex   4.721500e+001 7.119169e+001 7.500000e+000
      vertex   5.240904e+001 6.559385e+001 7.500000e+000
    endloop
  endfacet
  facet normal 0.000000e+000 0.000000e+000 1.000000e+000
    outer loop
      vertex   4.948671e+001 6.988012e+001 7.500000e+000
      vertex   4.721500e+001 7.119169e+001 7.500000e+000
      vertex   5.127090e+001 6.795721e+001 7.500000e+000
    endloop
  endfacet
endsolid
