solid ascii
  facet normal -1.950904e-001 9.807853e-001 0.000000e+000
    outer loop
      vertex   2.434123e+001 2.557612e+001 2.735000e+001
      vertex   2.472392e+001 2.565224e+001 2.970000e+001
      vertex   2.472392e+001 2.565224e+001 2.500000e+001
    endloop
  endfacet
  facet normal 0.000000e+000 0.000000e+000 -1.000000e+000
    outer loop
      vertex   3.799099e+001 3.150000e+001 2.500000e+001
      vertex   3.799099e+001 1.300901e+001 2.500000e+001
      vertex   2.395855e+001 3.150000e+001 2.500000e+001
    endloop
  endfacet
  facet normal 0.000000e+000 0.000000e+000 -1.000000e+000
    outer loop
      vertex   2.395855e+001 3.150000e+001 2.500000e+001
      vertex   2.537276e+001 2.891421e+001 2.500000e+001
      vertex   2.242781e+001 3.119552e+001 2.500000e+001
    endloop
  endfacet
  facet normal 0.000000e+000 0.000000e+000 -1.000000e+000
    outer loop
      vertex   2.395855e+001 3.150000e+001 2.500000e+001
      vertex   3.799099e+001 1.300901e+001 2.500000e+001
      vertex   2.537276e+001 2.891421e+001 2.500000e+001
    endloop
  endfacet
  facet normal 0.000000e+000 0.000000e+000 -1.000000e+000
    outer loop
      vertex   3.799099e+001 1.300901e+001 2.500000e+001
      vertex   1.995855e+001 1.300901e+001 2.500000e+001
      vertex   2.580631e+001 2.673463e+001 2.500000e+001
    endloop
  endfacet
  facet normal 0.000000e+000 0.000000e+000 -1.000000e+000
    outer loop
      vertex   3.799099e+001 1.300901e+001 2.500000e+001
      vertex   2.580631e+001 2.673463e+001 2.500000e+001
      vertex   2.595855e+001 2.750000e+001 2.500000e+001
    endloop
  endfacet
  facet normal 0.000000e+000 0.000000e+000 -1.000000e+000
    outer loop
      vertex   3.799099e+001 1.300901e+001 2.500000e+001
      vertex   2.595855e+001 2.750000e+001 2.500000e+001
      vertex   2.580631e+001 2.826537e+001 2.500000e+001
    endloop
  endfacet
  facet normal 7.071041e-001 0.000000e+000 -7.071095e-001
    outer loop
      vertex   3.849090e+001 2.225441e+001 2.549990e+001
      vertex   3.799099e+001 1.300901e+001 2.500000e+001
      vertex   3.799099e+001 3.150000e+001 2.500000e+001
    endloop
  endfacet
  facet normal 7.071041e-001 -2.164812e-009 -7.071095e-001
    outer loop
      vertex   3.849090e+001 2.225441e+001 2.549990e+001
      vertex   3.799099e+001 3.150000e+001 2.500000e+001
      vertex   3.849043e+001 3.199944e+001 2.549944e+001
    endloop
  endfacet
  facet normal -5.555713e-001 8.314689e-001 3.412763e-007
    outer loop
      vertex   2.504834e+001 2.586901e+001 2.735000e+001
      vertex   2.537276e+001 2.608579e+001 2.500000e+001
      vertex   2.472392e+001 2.565224e+001 2.500000e+001
    endloop
  endfacet
  facet normal 5.555708e-001 8.314692e-001 -0.000000e+000
    outer loop
      vertex   2.286876e+001 2.586901e+001 2.735000e+001
      vertex   2.254433e+001 2.608579e+001 2.500000e+001
      vertex   2.254433e+001 2.608579e+001 2.970000e+001
    endloop
  endfacet
  facet normal -7.002144e-001 1.392822e-001 -7.002144e-001
    outer loop
      vertex   1.962982e+001 2.836104e+001 2.550000e+001
      vertex   1.995855e+001 2.750000e+001 2.500000e+001
      vertex   1.895855e+001 2.750000e+001 2.600000e+001
    endloop
  endfacet
  facet normal 7.071066e-001 -2.767895e-007 -7.071069e-001
    outer loop
      vertex   3.849090e+001 2.225441e+001 2.549990e+001
      vertex   3.849099e+001 1.250901e+001 2.550000e+001
      vertex   3.799099e+001 1.300901e+001 2.500000e+001
    endloop
  endfacet
  facet normal -7.079598e-008 -7.071061e-001 -7.071075e-001
    outer loop
      vertex   2.897486e+001 1.250910e+001 2.549990e+001
      vertex   1.945911e+001 1.250957e+001 2.549944e+001
      vertex   1.995855e+001 1.300901e+001 2.500000e+001
    endloop
  endfacet
  facet normal 8.314700e-001 5.555696e-001 0.000000e+000
    outer loop
      vertex   2.232756e+001 2.641021e+001 2.735000e+001
      vertex   2.254433e+001 2.608579e+001 2.970000e+001
      vertex   2.254433e+001 2.608579e+001 2.500000e+001
    endloop
  endfacet
  facet normal -7.002149e-001 1.392803e-001 -7.002144e-001
    outer loop
      vertex   1.962982e+001 2.836104e+001 2.550000e+001
      vertex   1.933915e+001 2.941342e+001 2.600000e+001
      vertex   2.026303e+001 2.903073e+001 2.500000e+001
    endloop
  endfacet
  facet normal 0.000000e+000 0.000000e+000 -1.000000e+000
    outer loop
      vertex   3.799099e+001 1.300901e+001 2.500000e+001
      vertex   2.580631e+001 2.826537e+001 2.500000e+001
      vertex   2.537276e+001 2.891421e+001 2.500000e+001
    endloop
  endfacet
  facet normal -5.936122e-001 3.966396e-001 -7.002153e-001
    outer loop
      vertex   2.028883e+001 2.995203e+001 2.550000e+001
      vertex   2.113012e+001 3.032843e+001 2.500000e+001
      vertex   2.026303e+001 2.903073e+001 2.500000e+001
    endloop
  endfacet
  facet normal -7.071068e-001 -0.000000e+000 -7.071068e-001
    outer loop
      vertex   1.945866e+001 1.870597e+001 2.549989e+001
      vertex   1.995855e+001 2.750000e+001 2.500000e+001
      vertex   1.995855e+001 1.300901e+001 2.500000e+001
    endloop
  endfacet
  facet normal -7.071068e-001 0.000000e+000 -7.071068e-001
    outer loop
      vertex   1.945866e+001 1.870597e+001 2.549989e+001
      vertex   1.995855e+001 1.300901e+001 2.500000e+001
      vertex   1.945911e+001 1.250957e+001 2.549944e+001
    endloop
  endfacet
  facet normal 0.000000e+000 0.000000e+000 -1.000000e+000
    outer loop
      vertex   2.026303e+001 2.903073e+001 2.500000e+001
      vertex   2.254433e+001 2.608579e+001 2.500000e+001
      vertex   1.995855e+001 2.750000e+001 2.500000e+001
    endloop
  endfacet
  facet normal -5.936136e-001 3.966392e-001 -7.002144e-001
    outer loop
      vertex   2.028883e+001 2.995203e+001 2.550000e+001
      vertex   2.026303e+001 2.903073e+001 2.500000e+001
      vertex   1.933915e+001 2.941342e+001 2.600000e+001
    endloop
  endfacet
  facet normal -7.071068e-001 0.000000e+000 -7.071068e-001
    outer loop
      vertex   1.945866e+001 1.870597e+001 2.549989e+001
      vertex   1.895855e+001 2.750000e+001 2.600000e+001
      vertex   1.995855e+001 2.750000e+001 2.500000e+001
    endloop
  endfacet
  facet normal 0.000000e+000 7.071068e-001 -7.071068e-001
    outer loop
      vertex   3.247745e+001 3.199989e+001 2.549989e+001
      vertex   3.799099e+001 3.150000e+001 2.500000e+001
      vertex   2.395855e+001 3.150000e+001 2.500000e+001
    endloop
  endfacet
  facet normal 0.000000e+000 7.071068e-001 -7.071068e-001
    outer loop
      vertex   3.247745e+001 3.199989e+001 2.549989e+001
      vertex   2.395855e+001 3.150000e+001 2.500000e+001
      vertex   2.395855e+001 3.250000e+001 2.600000e+001
    endloop
  endfacet
  facet normal -5.936123e-001 3.966401e-001 -7.002150e-001
    outer loop
      vertex   2.028883e+001 2.995203e+001 2.550000e+001
      vertex   2.042301e+001 3.103553e+001 2.600000e+001
      vertex   2.113012e+001 3.032843e+001 2.500000e+001
    endloop
  endfacet
  facet normal -1.950895e-001 9.807854e-001 0.000000e+000
    outer loop
      vertex   2.434123e+001 2.557612e+001 2.735000e+001
      vertex   2.395855e+001 2.550000e+001 2.500000e+001
      vertex   2.395855e+001 2.550000e+001 2.970000e+001
    endloop
  endfacet
  facet normal 0.000000e+000 7.071068e-001 -7.071068e-001
    outer loop
      vertex   3.247745e+001 3.199989e+001 2.549989e+001
      vertex   3.849043e+001 3.199944e+001 2.549944e+001
      vertex   3.799099e+001 3.150000e+001 2.500000e+001
    endloop
  endfacet
  facet normal 0.000000e+000 0.000000e+000 -1.000000e+000
    outer loop
      vertex   2.537276e+001 2.891421e+001 2.500000e+001
      vertex   2.472392e+001 2.934776e+001 2.500000e+001
      vertex   2.242781e+001 3.119552e+001 2.500000e+001
    endloop
  endfacet
  facet normal -3.966396e-001 5.936123e-001 -7.002153e-001
    outer loop
      vertex   2.150652e+001 3.116972e+001 2.550000e+001
      vertex   2.242781e+001 3.119552e+001 2.500000e+001
      vertex   2.113012e+001 3.032843e+001 2.500000e+001
    endloop
  endfacet
  facet normal -3.966401e-001 5.936123e-001 -7.002150e-001
    outer loop
      vertex   2.150652e+001 3.116972e+001 2.550000e+001
      vertex   2.113012e+001 3.032843e+001 2.500000e+001
      vertex   2.042301e+001 3.103553e+001 2.600000e+001
    endloop
  endfacet
  facet normal -3.966394e-001 5.936128e-001 -7.002150e-001
    outer loop
      vertex   2.150652e+001 3.116972e+001 2.550000e+001
      vertex   2.204513e+001 3.211940e+001 2.600000e+001
      vertex   2.242781e+001 3.119552e+001 2.500000e+001
    endloop
  endfacet
  facet normal -1.392812e-001 7.002144e-001 -7.002147e-001
    outer loop
      vertex   2.309751e+001 3.182873e+001 2.550000e+001
      vertex   2.395855e+001 3.150000e+001 2.500000e+001
      vertex   2.242781e+001 3.119552e+001 2.500000e+001
    endloop
  endfacet
  facet normal -1.392806e-001 7.002141e-001 -7.002152e-001
    outer loop
      vertex   2.309751e+001 3.182873e+001 2.550000e+001
      vertex   2.242781e+001 3.119552e+001 2.500000e+001
      vertex   2.204513e+001 3.211940e+001 2.600000e+001
    endloop
  endfacet
  facet normal -1.392810e-001 7.002146e-001 -7.002146e-001
    outer loop
      vertex   2.309751e+001 3.182873e+001 2.550000e+001
      vertex   2.395855e+001 3.250000e+001 2.600000e+001
      vertex   2.395855e+001 3.150000e+001 2.500000e+001
    endloop
  endfacet
  facet normal 0.000000e+000 0.000000e+000 -1.000000e+000
    outer loop
      vertex   2.472392e+001 2.934776e+001 2.500000e+001
      vertex   2.395855e+001 2.950000e+001 2.500000e+001
      vertex   2.242781e+001 3.119552e+001 2.500000e+001
    endloop
  endfacet
  facet normal 1.950904e-001 9.807853e-001 0.000000e+000
    outer loop
      vertex   2.357586e+001 2.557612e+001 2.735000e+001
      vertex   2.395855e+001 2.550000e+001 2.500000e+001
      vertex   2.319318e+001 2.565224e+001 2.500000e+001
    endloop
  endfacet
  facet normal 0.000000e+000 0.000000e+000 -1.000000e+000
    outer loop
      vertex   2.395855e+001 2.950000e+001 2.500000e+001
      vertex   2.319318e+001 2.934776e+001 2.500000e+001
      vertex   2.242781e+001 3.119552e+001 2.500000e+001
    endloop
  endfacet
  facet normal 0.000000e+000 0.000000e+000 -1.000000e+000
    outer loop
      vertex   2.242781e+001 3.119552e+001 2.500000e+001
      vertex   2.319318e+001 2.934776e+001 2.500000e+001
      vertex   2.113012e+001 3.032843e+001 2.500000e+001
    endloop
  endfacet
  facet normal 0.000000e+000 0.000000e+000 -1.000000e+000
    outer loop
      vertex   2.580631e+001 2.673463e+001 2.500000e+001
      vertex   1.995855e+001 1.300901e+001 2.500000e+001
      vertex   2.537276e+001 2.608579e+001 2.500000e+001
    endloop
  endfacet
  facet normal 0.000000e+000 0.000000e+000 -1.000000e+000
    outer loop
      vertex   2.319318e+001 2.934776e+001 2.500000e+001
      vertex   2.254433e+001 2.891421e+001 2.500000e+001
      vertex   2.113012e+001 3.032843e+001 2.500000e+001
    endloop
  endfacet
  facet normal -8.314689e-001 5.555713e-001 3.331506e-007
    outer loop
      vertex   2.558953e+001 2.641021e+001 2.735000e+001
      vertex   2.580631e+001 2.673463e+001 2.500000e+001
      vertex   2.537276e+001 2.608579e+001 2.500000e+001
    endloop
  endfacet
  facet normal -9.807853e-001 1.950904e-001 0.000000e+000
    outer loop
      vertex   2.588243e+001 2.711732e+001 2.735000e+001
      vertex   2.595855e+001 2.750000e+001 2.970000e+001
      vertex   2.595855e+001 2.750000e+001 2.500000e+001
    endloop
  endfacet
  facet normal 1.950904e-001 9.807853e-001 -0.000000e+000
    outer loop
      vertex   2.357586e+001 2.557612e+001 2.735000e+001
      vertex   2.319318e+001 2.565224e+001 2.500000e+001
      vertex   2.319318e+001 2.565224e+001 2.970000e+001
    endloop
  endfacet
  facet normal 0.000000e+000 0.000000e+000 -1.000000e+000
    outer loop
      vertex   2.537276e+001 2.608579e+001 2.500000e+001
      vertex   1.995855e+001 1.300901e+001 2.500000e+001
      vertex   2.472392e+001 2.565224e+001 2.500000e+001
    endloop
  endfacet
  facet normal 1.950904e-001 9.807853e-001 0.000000e+000
    outer loop
      vertex   2.357586e+001 2.557612e+001 2.735000e+001
      vertex   2.395855e+001 2.550000e+001 2.970000e+001
      vertex   2.395855e+001 2.550000e+001 2.500000e+001
    endloop
  endfacet
  facet normal 0.000000e+000 0.000000e+000 -1.000000e+000
    outer loop
      vertex   2.254433e+001 2.891421e+001 2.500000e+001
      vertex   2.211079e+001 2.826537e+001 2.500000e+001
      vertex   2.113012e+001 3.032843e+001 2.500000e+001
    endloop
  endfacet
  facet normal 0.000000e+000 0.000000e+000 -1.000000e+000
    outer loop
      vertex   2.113012e+001 3.032843e+001 2.500000e+001
      vertex   2.211079e+001 2.826537e+001 2.500000e+001
      vertex   2.026303e+001 2.903073e+001 2.500000e+001
    endloop
  endfacet
  facet normal 0.000000e+000 0.000000e+000 -1.000000e+000
    outer loop
      vertex   2.472392e+001 2.565224e+001 2.500000e+001
      vertex   1.995855e+001 1.300901e+001 2.500000e+001
      vertex   2.395855e+001 2.550000e+001 2.500000e+001
    endloop
  endfacet
  facet normal 0.000000e+000 0.000000e+000 -1.000000e+000
    outer loop
      vertex   2.211079e+001 2.826537e+001 2.500000e+001
      vertex   2.195855e+001 2.750000e+001 2.500000e+001
      vertex   2.026303e+001 2.903073e+001 2.500000e+001
    endloop
  endfacet
  facet normal 0.000000e+000 0.000000e+000 -1.000000e+000
    outer loop
      vertex   2.395855e+001 2.550000e+001 2.500000e+001
      vertex   1.995855e+001 1.300901e+001 2.500000e+001
      vertex   2.319318e+001 2.565224e+001 2.500000e+001
    endloop
  endfacet
  facet normal 0.000000e+000 0.000000e+000 -1.000000e+000
    outer loop
      vertex   2.195855e+001 2.750000e+001 2.500000e+001
      vertex   2.211079e+001 2.673463e+001 2.500000e+001
      vertex   2.026303e+001 2.903073e+001 2.500000e+001
    endloop
  endfacet
  facet normal 0.000000e+000 0.000000e+000 -1.000000e+000
    outer loop
      vertex   2.319318e+001 2.565224e+001 2.500000e+001
      vertex   1.995855e+001 1.300901e+001 2.500000e+001
      vertex   2.254433e+001 2.608579e+001 2.500000e+001
    endloop
  endfacet
  facet normal 0.000000e+000 -7.071054e-001 -7.071081e-001
    outer loop
      vertex   2.897486e+001 1.250910e+001 2.549990e+001
      vertex   1.995855e+001 1.300901e+001 2.500000e+001
      vertex   3.799099e+001 1.300901e+001 2.500000e+001
    endloop
  endfacet
  facet normal 1.417292e-007 -7.071067e-001 -7.071069e-001
    outer loop
      vertex   2.897486e+001 1.250910e+001 2.549990e+001
      vertex   3.799099e+001 1.300901e+001 2.500000e+001
      vertex   3.849099e+001 1.250901e+001 2.550000e+001
    endloop
  endfacet
  facet normal 5.555702e-001 8.314696e-001 1.056329e-007
    outer loop
      vertex   2.286876e+001 2.586901e+001 2.735000e+001
      vertex   2.319318e+001 2.565224e+001 2.500000e+001
      vertex   2.254433e+001 2.608579e+001 2.500000e+001
    endloop
  endfacet
  facet normal 8.314689e-001 5.555713e-001 -3.331506e-007
    outer loop
      vertex   2.232756e+001 2.641021e+001 2.735000e+001
      vertex   2.254433e+001 2.608579e+001 2.500000e+001
      vertex   2.211079e+001 2.673463e+001 2.500000e+001
    endloop
  endfacet
  facet normal 9.807853e-001 1.950899e-001 -7.922473e-008
    outer loop
      vertex   2.203467e+001 2.711732e+001 2.735000e+001
      vertex   2.211079e+001 2.673463e+001 2.500000e+001
      vertex   2.195855e+001 2.750000e+001 2.500000e+001
    endloop
  endfacet
  facet normal 8.314677e-001 5.555730e-001 -0.000000e+000
    outer loop
      vertex   2.232756e+001 2.641021e+001 2.735000e+001
      vertex   2.211079e+001 2.673463e+001 2.500000e+001
      vertex   2.211079e+001 2.673463e+001 2.970000e+001
    endloop
  endfacet
  facet normal 0.000000e+000 0.000000e+000 -1.000000e+000
    outer loop
      vertex   2.211079e+001 2.673463e+001 2.500000e+001
      vertex   2.254433e+001 2.608579e+001 2.500000e+001
      vertex   2.026303e+001 2.903073e+001 2.500000e+001
    endloop
  endfacet
  facet normal -5.555696e-001 -8.314700e-001 -0.000000e+000
    outer loop
      vertex   2.504834e+001 2.913099e+001 2.735000e+001
      vertex   2.472392e+001 2.934776e+001 2.970000e+001
      vertex   2.472392e+001 2.934776e+001 2.500000e+001
    endloop
  endfacet
  facet normal 0.000000e+000 0.000000e+000 -1.000000e+000
    outer loop
      vertex   2.254433e+001 2.608579e+001 2.500000e+001
      vertex   1.995855e+001 1.300901e+001 2.500000e+001
      vertex   1.995855e+001 2.750000e+001 2.500000e+001
    endloop
  endfacet
  facet normal -7.002153e-001 1.392814e-001 -7.002136e-001
    outer loop
      vertex   1.962982e+001 2.836104e+001 2.550000e+001
      vertex   2.026303e+001 2.903073e+001 2.500000e+001
      vertex   1.995855e+001 2.750000e+001 2.500000e+001
    endloop
  endfacet
  facet normal -5.555730e-001 -8.314677e-001 0.000000e+000
    outer loop
      vertex   2.504834e+001 2.913099e+001 2.735000e+001
      vertex   2.537276e+001 2.891421e+001 2.500000e+001
      vertex   2.537276e+001 2.891421e+001 2.970000e+001
    endloop
  endfacet
  facet normal -1.950899e-001 9.807853e-001 7.922473e-008
    outer loop
      vertex   2.434123e+001 2.557612e+001 2.735000e+001
      vertex   2.472392e+001 2.565224e+001 2.500000e+001
      vertex   2.395855e+001 2.550000e+001 2.500000e+001
    endloop
  endfacet
  facet normal -5.555730e-001 8.314677e-001 0.000000e+000
    outer loop
      vertex   2.504834e+001 2.586901e+001 2.735000e+001
      vertex   2.537276e+001 2.608579e+001 2.970000e+001
      vertex   2.537276e+001 2.608579e+001 2.500000e+001
    endloop
  endfacet
  facet normal -5.555696e-001 8.314700e-001 0.000000e+000
    outer loop
      vertex   2.504834e+001 2.586901e+001 2.735000e+001
      vertex   2.472392e+001 2.565224e+001 2.500000e+001
      vertex   2.472392e+001 2.565224e+001 2.970000e+001
    endloop
  endfacet
  facet normal 5.555696e-001 8.314700e-001 0.000000e+000
    outer loop
      vertex   2.286876e+001 2.586901e+001 2.735000e+001
      vertex   2.319318e+001 2.565224e+001 2.970000e+001
      vertex   2.319318e+001 2.565224e+001 2.500000e+001
    endloop
  endfacet
  facet normal -8.314700e-001 5.555696e-001 0.000000e+000
    outer loop
      vertex   2.558953e+001 2.641021e+001 2.735000e+001
      vertex   2.580631e+001 2.673463e+001 2.970000e+001
      vertex   2.580631e+001 2.673463e+001 2.500000e+001
    endloop
  endfacet
  facet normal -8.314677e-001 5.555730e-001 0.000000e+000
    outer loop
      vertex   2.558953e+001 2.641021e+001 2.735000e+001
      vertex   2.537276e+001 2.608579e+001 2.500000e+001
      vertex   2.537276e+001 2.608579e+001 2.970000e+001
    endloop
  endfacet
  facet normal -1.950899e-001 -9.807853e-001 7.922473e-008
    outer loop
      vertex   2.434123e+001 2.942388e+001 2.735000e+001
      vertex   2.395855e+001 2.950000e+001 2.500000e+001
      vertex   2.472392e+001 2.934776e+001 2.500000e+001
    endloop
  endfacet
  facet normal -1.950904e-001 -9.807853e-001 0.000000e+000
    outer loop
      vertex   2.434123e+001 2.942388e+001 2.735000e+001
      vertex   2.472392e+001 2.934776e+001 2.500000e+001
      vertex   2.472392e+001 2.934776e+001 2.970000e+001
    endloop
  endfacet
  facet normal -9.807854e-001 1.950895e-001 0.000000e+000
    outer loop
      vertex   2.588243e+001 2.711732e+001 2.735000e+001
      vertex   2.580631e+001 2.673463e+001 2.500000e+001
      vertex   2.580631e+001 2.673463e+001 2.970000e+001
    endloop
  endfacet
  facet normal -9.807853e-001 1.950899e-001 -7.922473e-008
    outer loop
      vertex   2.588243e+001 2.711732e+001 2.735000e+001
      vertex   2.595855e+001 2.750000e+001 2.500000e+001
      vertex   2.580631e+001 2.673463e+001 2.500000e+001
    endloop
  endfacet
  facet normal -9.807854e-001 -1.950895e-001 -0.000000e+000
    outer loop
      vertex   2.588243e+001 2.788268e+001 2.735000e+001
      vertex   2.580631e+001 2.826537e+001 2.970000e+001
      vertex   2.580631e+001 2.826537e+001 2.500000e+001
    endloop
  endfacet
  facet normal -9.807853e-001 -1.950904e-001 0.000000e+000
    outer loop
      vertex   2.588243e+001 2.788268e+001 2.735000e+001
      vertex   2.595855e+001 2.750000e+001 2.500000e+001
      vertex   2.595855e+001 2.750000e+001 2.970000e+001
    endloop
  endfacet
  facet normal -9.807853e-001 -1.950899e-001 -7.922473e-008
    outer loop
      vertex   2.588243e+001 2.788268e+001 2.735000e+001
      vertex   2.580631e+001 2.826537e+001 2.500000e+001
      vertex   2.595855e+001 2.750000e+001 2.500000e+001
    endloop
  endfacet
  facet normal -8.314677e-001 -5.555730e-001 -0.000000e+000
    outer loop
      vertex   2.558953e+001 2.858979e+001 2.735000e+001
      vertex   2.537276e+001 2.891421e+001 2.970000e+001
      vertex   2.537276e+001 2.891421e+001 2.500000e+001
    endloop
  endfacet
  facet normal -8.314700e-001 -5.555696e-001 0.000000e+000
    outer loop
      vertex   2.558953e+001 2.858979e+001 2.735000e+001
      vertex   2.580631e+001 2.826537e+001 2.500000e+001
      vertex   2.580631e+001 2.826537e+001 2.970000e+001
    endloop
  endfacet
  facet normal -8.314689e-001 -5.555713e-001 3.412763e-007
    outer loop
      vertex   2.558953e+001 2.858979e+001 2.735000e+001
      vertex   2.537276e+001 2.891421e+001 2.500000e+001
      vertex   2.580631e+001 2.826537e+001 2.500000e+001
    endloop
  endfacet
  facet normal 5.555708e-001 -8.314692e-001 0.000000e+000
    outer loop
      vertex   2.286876e+001 2.913099e+001 2.735000e+001
      vertex   2.254433e+001 2.891421e+001 2.970000e+001
      vertex   2.254433e+001 2.891421e+001 2.500000e+001
    endloop
  endfacet
  facet normal 1.950904e-001 -9.807853e-001 0.000000e+000
    outer loop
      vertex   2.357586e+001 2.942388e+001 2.735000e+001
      vertex   2.319318e+001 2.934776e+001 2.500000e+001
      vertex   2.395855e+001 2.950000e+001 2.500000e+001
    endloop
  endfacet
  facet normal -5.555713e-001 -8.314689e-001 3.331506e-007
    outer loop
      vertex   2.504834e+001 2.913099e+001 2.735000e+001
      vertex   2.472392e+001 2.934776e+001 2.500000e+001
      vertex   2.537276e+001 2.891421e+001 2.500000e+001
    endloop
  endfacet
  facet normal -1.950895e-001 -9.807854e-001 -0.000000e+000
    outer loop
      vertex   2.434123e+001 2.942388e+001 2.735000e+001
      vertex   2.395855e+001 2.950000e+001 2.970000e+001
      vertex   2.395855e+001 2.950000e+001 2.500000e+001
    endloop
  endfacet
  facet normal 9.807854e-001 1.950895e-001 0.000000e+000
    outer loop
      vertex   2.203467e+001 2.711732e+001 2.735000e+001
      vertex   2.211079e+001 2.673463e+001 2.970000e+001
      vertex   2.211079e+001 2.673463e+001 2.500000e+001
    endloop
  endfacet
  facet normal 9.807853e-001 1.950904e-001 -0.000000e+000
    outer loop
      vertex   2.203467e+001 2.711732e+001 2.735000e+001
      vertex   2.195855e+001 2.750000e+001 2.500000e+001
      vertex   2.195855e+001 2.750000e+001 2.970000e+001
    endloop
  endfacet
  facet normal 1.950904e-001 -9.807853e-001 0.000000e+000
    outer loop
      vertex   2.357586e+001 2.942388e+001 2.735000e+001
      vertex   2.319318e+001 2.934776e+001 2.970000e+001
      vertex   2.319318e+001 2.934776e+001 2.500000e+001
    endloop
  endfacet
  facet normal 1.950904e-001 -9.807853e-001 0.000000e+000
    outer loop
      vertex   2.357586e+001 2.942388e+001 2.735000e+001
      vertex   2.395855e+001 2.950000e+001 2.500000e+001
      vertex   2.395855e+001 2.950000e+001 2.970000e+001
    endloop
  endfacet
  facet normal 9.807854e-001 -1.950895e-001 0.000000e+000
    outer loop
      vertex   2.203467e+001 2.788268e+001 2.735000e+001
      vertex   2.211079e+001 2.826537e+001 2.500000e+001
      vertex   2.211079e+001 2.826537e+001 2.970000e+001
    endloop
  endfacet
  facet normal 9.807853e-001 -1.950899e-001 -7.922473e-008
    outer loop
      vertex   2.203467e+001 2.788268e+001 2.735000e+001
      vertex   2.195855e+001 2.750000e+001 2.500000e+001
      vertex   2.211079e+001 2.826537e+001 2.500000e+001
    endloop
  endfacet
  facet normal 5.555696e-001 -8.314700e-001 0.000000e+000
    outer loop
      vertex   2.286876e+001 2.913099e+001 2.735000e+001
      vertex   2.319318e+001 2.934776e+001 2.500000e+001
      vertex   2.319318e+001 2.934776e+001 2.970000e+001
    endloop
  endfacet
  facet normal 5.555702e-001 -8.314696e-001 1.137585e-007
    outer loop
      vertex   2.286876e+001 2.913099e+001 2.735000e+001
      vertex   2.254433e+001 2.891421e+001 2.500000e+001
      vertex   2.319318e+001 2.934776e+001 2.500000e+001
    endloop
  endfacet
  facet normal 8.314677e-001 -5.555730e-001 0.000000e+000
    outer loop
      vertex   2.232756e+001 2.858979e+001 2.735000e+001
      vertex   2.211079e+001 2.826537e+001 2.970000e+001
      vertex   2.211079e+001 2.826537e+001 2.500000e+001
    endloop
  endfacet
  facet normal 8.314700e-001 -5.555696e-001 0.000000e+000
    outer loop
      vertex   2.232756e+001 2.858979e+001 2.735000e+001
      vertex   2.254433e+001 2.891421e+001 2.500000e+001
      vertex   2.254433e+001 2.891421e+001 2.970000e+001
    endloop
  endfacet
  facet normal 8.314689e-001 -5.555713e-001 -3.412763e-007
    outer loop
      vertex   2.232756e+001 2.858979e+001 2.735000e+001
      vertex   2.211079e+001 2.826537e+001 2.500000e+001
      vertex   2.254433e+001 2.891421e+001 2.500000e+001
    endloop
  endfacet
  facet normal 9.807853e-001 -1.950904e-001 0.000000e+000
    outer loop
      vertex   2.203467e+001 2.788268e+001 2.735000e+001
      vertex   2.195855e+001 2.750000e+001 2.970000e+001
      vertex   2.195855e+001 2.750000e+001 2.500000e+001
    endloop
  endfacet
  facet normal 0.000000e+000 7.071068e-001 -7.071068e-001
    outer loop
      vertex   3.247745e+001 3.199989e+001 2.549989e+001
      vertex   3.798874e+001 3.250000e+001 2.600000e+001
      vertex   3.849043e+001 3.199944e+001 2.549944e+001
    endloop
  endfacet
  facet normal -7.071068e-001 0.000000e+000 -7.071068e-001
    outer loop
      vertex   1.945866e+001 1.870597e+001 2.549989e+001
      vertex   1.945911e+001 1.250957e+001 2.549944e+001
      vertex   1.895855e+001 1.301127e+001 2.600000e+001
    endloop
  endfacet
  facet normal 7.063099e-001 7.079028e-001 3.334889e-007
    outer loop
      vertex   3.848997e+001 3.199989e+001 2.737989e+001
      vertex   3.849043e+001 3.199944e+001 2.549944e+001
      vertex   3.798874e+001 3.250000e+001 2.600000e+001
    endloop
  endfacet
  facet normal 7.063104e-001 7.079022e-001 3.361174e-007
    outer loop
      vertex   3.848997e+001 3.199989e+001 2.737989e+001
      vertex   3.899099e+001 3.150000e+001 2.600000e+001
      vertex   3.849043e+001 3.199944e+001 2.549944e+001
    endloop
  endfacet
  facet normal -7.079028e-008 -7.071075e-001 -7.071061e-001
    outer loop
      vertex   2.897486e+001 1.250910e+001 2.549990e+001
      vertex   1.995855e+001 1.200901e+001 2.600000e+001
      vertex   1.945911e+001 1.250957e+001 2.549944e+001
    endloop
  endfacet
  facet normal -7.079039e-001 -7.063088e-001 -3.834486e-007
    outer loop
      vertex   1.945866e+001 1.251002e+001 2.737989e+001
      vertex   1.945911e+001 1.250957e+001 2.549944e+001
      vertex   1.995855e+001 1.200901e+001 2.600000e+001
    endloop
  endfacet
  facet normal -7.079031e-001 -7.063095e-001 -4.026242e-007
    outer loop
      vertex   1.945866e+001 1.251002e+001 2.737989e+001
      vertex   1.895855e+001 1.301127e+001 2.600000e+001
      vertex   1.945911e+001 1.250957e+001 2.549944e+001
    endloop
  endfacet
  facet normal 7.071095e-001 2.594715e-010 -7.071041e-001
    outer loop
      vertex   3.849090e+001 2.225441e+001 2.549990e+001
      vertex   3.849043e+001 3.199944e+001 2.549944e+001
      vertex   3.899099e+001 3.150000e+001 2.600000e+001
    endloop
  endfacet
  facet normal -7.071068e-001 0.000000e+000 -7.071068e-001
    outer loop
      vertex   1.945866e+001 1.870597e+001 2.549989e+001
      vertex   1.895855e+001 1.301127e+001 2.600000e+001
      vertex   1.895855e+001 2.750000e+001 2.600000e+001
    endloop
  endfacet
  facet normal 0.000000e+000 7.071068e-001 -7.071068e-001
    outer loop
      vertex   3.247745e+001 3.199989e+001 2.549989e+001
      vertex   2.395855e+001 3.250000e+001 2.600000e+001
      vertex   3.798874e+001 3.250000e+001 2.600000e+001
    endloop
  endfacet
  facet normal 1.417264e-007 -7.071069e-001 -7.071067e-001
    outer loop
      vertex   2.897486e+001 1.250910e+001 2.549990e+001
      vertex   3.849099e+001 1.250901e+001 2.550000e+001
      vertex   3.799099e+001 1.200901e+001 2.600000e+001
    endloop
  endfacet
  facet normal -0.000000e+000 -7.071081e-001 -7.071055e-001
    outer loop
      vertex   2.897486e+001 1.250910e+001 2.549990e+001
      vertex   3.799099e+001 1.200901e+001 2.600000e+001
      vertex   1.995855e+001 1.200901e+001 2.600000e+001
    endloop
  endfacet
  facet normal 7.071095e-001 0.000000e+000 -7.071040e-001
    outer loop
      vertex   3.849090e+001 2.225441e+001 2.549990e+001
      vertex   3.899099e+001 3.150000e+001 2.600000e+001
      vertex   3.899099e+001 1.300901e+001 2.600000e+001
    endloop
  endfacet
  facet normal 7.071069e-001 -2.767841e-007 -7.071066e-001
    outer loop
      vertex   3.849090e+001 2.225441e+001 2.549990e+001
      vertex   3.899099e+001 1.300901e+001 2.600000e+001
      vertex   3.849099e+001 1.250901e+001 2.550000e+001
    endloop
  endfacet
  facet normal -5.936137e-001 3.966399e-001 -7.002140e-001
    outer loop
      vertex   2.028883e+001 2.995203e+001 2.550000e+001
      vertex   1.933915e+001 2.941342e+001 2.600000e+001
      vertex   2.042301e+001 3.103553e+001 2.600000e+001
    endloop
  endfacet
  facet normal -1.392805e-001 7.002141e-001 -7.002150e-001
    outer loop
      vertex   2.309751e+001 3.182873e+001 2.550000e+001
      vertex   2.204513e+001 3.211940e+001 2.600000e+001
      vertex   2.395855e+001 3.250000e+001 2.600000e+001
    endloop
  endfacet
  facet normal 7.071068e-001 -7.071068e-001 0.000000e+000
    outer loop
      vertex   3.849099e+001 1.250901e+001 2.738000e+001
      vertex   3.849099e+001 1.250901e+001 2.550000e+001
      vertex   3.899099e+001 1.300901e+001 2.600000e+001
    endloop
  endfacet
  facet normal 7.071068e-001 -7.071068e-001 0.000000e+000
    outer loop
      vertex   3.849099e+001 1.250901e+001 2.738000e+001
      vertex   3.799099e+001 1.200901e+001 2.600000e+001
      vertex   3.849099e+001 1.250901e+001 2.550000e+001
    endloop
  endfacet
  facet normal -3.966400e-001 5.936128e-001 -7.002145e-001
    outer loop
      vertex   2.150652e+001 3.116972e+001 2.550000e+001
      vertex   2.042301e+001 3.103553e+001 2.600000e+001
      vertex   2.204513e+001 3.211940e+001 2.600000e+001
    endloop
  endfacet
  facet normal -7.002137e-001 1.392811e-001 -7.002154e-001
    outer loop
      vertex   1.962982e+001 2.836104e+001 2.550000e+001
      vertex   1.895855e+001 2.750000e+001 2.600000e+001
      vertex   1.933915e+001 2.941342e+001 2.600000e+001
    endloop
  endfacet
  facet normal 0.000000e+000 -1.000000e+000 0.000000e+000
    outer loop
      vertex   2.897477e+001 1.200901e+001 2.785000e+001
      vertex   1.995855e+001 1.200901e+001 2.970000e+001
      vertex   1.995855e+001 1.200901e+001 2.600000e+001
    endloop
  endfacet
  facet normal 7.063103e-001 7.079023e-001 -0.000000e+000
    outer loop
      vertex   3.848997e+001 3.199989e+001 2.737989e+001
      vertex   3.798874e+001 3.250000e+001 2.600000e+001
      vertex   3.798874e+001 3.250000e+001 2.970000e+001
    endloop
  endfacet
  facet normal 7.071068e-001 -7.071068e-001 0.000000e+000
    outer loop
      vertex   3.849099e+001 1.250901e+001 2.738000e+001
      vertex   3.899099e+001 1.300901e+001 2.600000e+001
      vertex   3.899099e+001 1.300901e+001 2.970000e+001
    endloop
  endfacet
  facet normal 7.071068e-001 -7.071068e-001 0.000000e+000
    outer loop
      vertex   3.849099e+001 1.250901e+001 2.738000e+001
      vertex   3.799099e+001 1.200901e+001 2.970000e+001
      vertex   3.799099e+001 1.200901e+001 2.600000e+001
    endloop
  endfacet
  facet normal 7.063100e-001 7.079027e-001 0.000000e+000
    outer loop
      vertex   3.848997e+001 3.199989e+001 2.737989e+001
      vertex   3.899099e+001 3.150000e+001 2.970000e+001
      vertex   3.899099e+001 3.150000e+001 2.600000e+001
    endloop
  endfacet
  facet normal -7.079037e-001 -7.063090e-001 -0.000000e+000
    outer loop
      vertex   1.945866e+001 1.251002e+001 2.737989e+001
      vertex   1.895855e+001 1.301127e+001 2.970000e+001
      vertex   1.895855e+001 1.301127e+001 2.600000e+001
    endloop
  endfacet
  facet normal -7.079033e-001 -7.063093e-001 0.000000e+000
    outer loop
      vertex   1.945866e+001 1.251002e+001 2.737989e+001
      vertex   1.995855e+001 1.200901e+001 2.600000e+001
      vertex   1.995855e+001 1.200901e+001 2.970000e+001
    endloop
  endfacet
  facet normal 0.000000e+000 -1.000000e+000 0.000000e+000
    outer loop
      vertex   2.897477e+001 1.200901e+001 2.785000e+001
      vertex   1.995855e+001 1.200901e+001 2.600000e+001
      vertex   3.799099e+001 1.200901e+001 2.600000e+001
    endloop
  endfacet
  facet normal 0.000000e+000 -1.000000e+000 0.000000e+000
    outer loop
      vertex   2.897477e+001 1.200901e+001 2.785000e+001
      vertex   3.799099e+001 1.200901e+001 2.600000e+001
      vertex   3.799099e+001 1.200901e+001 2.970000e+001
    endloop
  endfacet
  facet normal -9.807853e-001 1.950902e-001 3.481548e-007
    outer loop
      vertex   1.914885e+001 2.845671e+001 2.815000e+001
      vertex   1.933915e+001 2.941342e+001 2.600000e+001
      vertex   1.895855e+001 2.750000e+001 2.600000e+001
    endloop
  endfacet
  facet normal -8.314690e-001 5.555713e-001 0.000000e+000
    outer loop
      vertex   1.988108e+001 3.022447e+001 2.815000e+001
      vertex   1.933915e+001 2.941342e+001 2.600000e+001
      vertex   1.933915e+001 2.941342e+001 3.030000e+001
    endloop
  endfacet
  facet normal -1.000000e+000 0.000000e+000 0.000000e+000
    outer loop
      vertex   1.895855e+001 2.750000e+001 3.030000e+001
      vertex   1.895855e+001 2.750000e+001 2.600000e+001
      vertex   1.895855e+001 2.679830e+001 3.030000e+001
    endloop
  endfacet
  facet normal -1.000000e+000 0.000000e+000 0.000000e+000
    outer loop
      vertex   1.895855e+001 2.679830e+001 3.030000e+001
      vertex   1.895855e+001 2.750000e+001 2.600000e+001
      vertex   1.895855e+001 2.679830e+001 2.970000e+001
    endloop
  endfacet
  facet normal -1.000000e+000 0.000000e+000 0.000000e+000
    outer loop
      vertex   1.895855e+001 2.679830e+001 2.970000e+001
      vertex   1.895855e+001 2.750000e+001 2.600000e+001
      vertex   1.895855e+001 1.998496e+001 2.970000e+001
    endloop
  endfacet
  facet normal -8.314704e-001 5.555689e-001 0.000000e+000
    outer loop
      vertex   1.988108e+001 3.022447e+001 2.815000e+001
      vertex   2.042301e+001 3.103553e+001 3.030000e+001
      vertex   2.042301e+001 3.103553e+001 2.600000e+001
    endloop
  endfacet
  facet normal -5.555708e-001 8.314693e-001 2.415763e-007
    outer loop
      vertex   2.123407e+001 3.157747e+001 2.815000e+001
      vertex   2.204513e+001 3.211940e+001 2.600000e+001
      vertex   2.042301e+001 3.103553e+001 2.600000e+001
    endloop
  endfacet
  facet normal -9.807855e-001 1.950895e-001 0.000000e+000
    outer loop
      vertex   1.914885e+001 2.845671e+001 2.815000e+001
      vertex   1.933915e+001 2.941342e+001 3.030000e+001
      vertex   1.933915e+001 2.941342e+001 2.600000e+001
    endloop
  endfacet
  facet normal -1.000000e+000 0.000000e+000 0.000000e+000
    outer loop
      vertex   1.895855e+001 2.750000e+001 2.600000e+001
      vertex   1.895855e+001 1.301127e+001 2.600000e+001
      vertex   1.895855e+001 1.814805e+001 2.722836e+001
    endloop
  endfacet
  facet normal -8.314697e-001 5.555701e-001 6.110463e-007
    outer loop
      vertex   1.988108e+001 3.022447e+001 2.815000e+001
      vertex   2.042301e+001 3.103553e+001 2.600000e+001
      vertex   1.933915e+001 2.941342e+001 2.600000e+001
    endloop
  endfacet
  facet normal -1.000000e+000 0.000000e+000 0.000000e+000
    outer loop
      vertex   1.895855e+001 2.750000e+001 2.600000e+001
      vertex   1.895855e+001 1.814805e+001 2.722836e+001
      vertex   1.895855e+001 1.912132e+001 2.787868e+001
    endloop
  endfacet
  facet normal 0.000000e+000 1.000000e+000 0.000000e+000
    outer loop
      vertex   2.466025e+001 3.250000e+001 2.970000e+001
      vertex   2.395855e+001 3.250000e+001 2.600000e+001
      vertex   2.395855e+001 3.250000e+001 3.030000e+001
    endloop
  endfacet
  facet normal 1.000000e+000 -0.000000e+000 0.000000e+000
    outer loop
      vertex   3.899099e+001 3.150000e+001 2.970000e+001
      vertex   3.899099e+001 1.998496e+001 2.970000e+001
      vertex   3.899099e+001 3.150000e+001 2.600000e+001
    endloop
  endfacet
  facet normal 0.000000e+000 1.000000e+000 0.000000e+000
    outer loop
      vertex   3.400000e+001 3.250000e+001 2.700000e+001
      vertex   2.395855e+001 3.250000e+001 2.600000e+001
      vertex   3.285195e+001 3.250000e+001 2.722836e+001
    endloop
  endfacet
  facet normal 0.000000e+000 1.000000e+000 0.000000e+000
    outer loop
      vertex   3.285195e+001 3.250000e+001 2.722836e+001
      vertex   2.395855e+001 3.250000e+001 2.600000e+001
      vertex   3.187868e+001 3.250000e+001 2.787868e+001
    endloop
  endfacet
  facet normal 1.000000e+000 0.000000e+000 0.000000e+000
    outer loop
      vertex   3.899099e+001 1.700000e+001 2.700000e+001
      vertex   3.899099e+001 1.585195e+001 2.722836e+001
      vertex   3.899099e+001 1.300901e+001 2.600000e+001
    endloop
  endfacet
  facet normal 1.000000e+000 0.000000e+000 0.000000e+000
    outer loop
      vertex   3.899099e+001 1.487868e+001 2.787868e+001
      vertex   3.899099e+001 1.300901e+001 2.970000e+001
      vertex   3.899099e+001 1.300901e+001 2.600000e+001
    endloop
  endfacet
  facet normal 1.000000e+000 -0.000000e+000 0.000000e+000
    outer loop
      vertex   3.899099e+001 1.814805e+001 2.722836e+001
      vertex   3.899099e+001 1.700000e+001 2.700000e+001
      vertex   3.899099e+001 1.300901e+001 2.600000e+001
    endloop
  endfacet
  facet normal 1.000000e+000 0.000000e+000 0.000000e+000
    outer loop
      vertex   3.899099e+001 1.585195e+001 2.722836e+001
      vertex   3.899099e+001 1.487868e+001 2.787868e+001
      vertex   3.899099e+001 1.300901e+001 2.600000e+001
    endloop
  endfacet
  facet normal 0.000000e+000 1.000000e+000 0.000000e+000
    outer loop
      vertex   3.187868e+001 3.250000e+001 2.787868e+001
      vertex   2.395855e+001 3.250000e+001 2.600000e+001
      vertex   2.466025e+001 3.250000e+001 2.970000e+001
    endloop
  endfacet
  facet normal -1.950893e-001 9.807855e-001 8.526241e-008
    outer loop
      vertex   2.300184e+001 3.230970e+001 2.815000e+001
      vertex   2.395855e+001 3.250000e+001 2.600000e+001
      vertex   2.204513e+001 3.211940e+001 2.600000e+001
    endloop
  endfacet
  facet normal -1.000000e+000 0.000000e+000 0.000000e+000
    outer loop
      vertex   1.895855e+001 2.750000e+001 2.600000e+001
      vertex   1.895855e+001 1.912132e+001 2.787868e+001
      vertex   1.895855e+001 1.977164e+001 2.885195e+001
    endloop
  endfacet
  facet normal -1.000000e+000 0.000000e+000 0.000000e+000
    outer loop
      vertex   1.895855e+001 2.750000e+001 2.600000e+001
      vertex   1.895855e+001 1.977164e+001 2.885195e+001
      vertex   1.895855e+001 1.998496e+001 2.970000e+001
    endloop
  endfacet
  facet normal -1.000000e+000 0.000000e+000 0.000000e+000
    outer loop
      vertex   1.895855e+001 1.814805e+001 2.722836e+001
      vertex   1.895855e+001 1.301127e+001 2.600000e+001
      vertex   1.895855e+001 1.700000e+001 2.700000e+001
    endloop
  endfacet
  facet normal -1.000000e+000 0.000000e+000 0.000000e+000
    outer loop
      vertex   1.895855e+001 1.700000e+001 2.700000e+001
      vertex   1.895855e+001 1.301127e+001 2.600000e+001
      vertex   1.895855e+001 1.585195e+001 2.722836e+001
    endloop
  endfacet
  facet normal -1.000000e+000 0.000000e+000 0.000000e+000
    outer loop
      vertex   1.895855e+001 1.585195e+001 2.722836e+001
      vertex   1.895855e+001 1.301127e+001 2.600000e+001
      vertex   1.895855e+001 1.487868e+001 2.787868e+001
    endloop
  endfacet
  facet normal -1.000000e+000 0.000000e+000 0.000000e+000
    outer loop
      vertex   1.895855e+001 1.487868e+001 2.787868e+001
      vertex   1.895855e+001 1.301127e+001 2.600000e+001
      vertex   1.895855e+001 1.301127e+001 2.970000e+001
    endloop
  endfacet
  facet normal 0.000000e+000 1.000000e+000 -0.000000e+000
    outer loop
      vertex   3.798874e+001 3.250000e+001 2.970000e+001
      vertex   3.798874e+001 3.250000e+001 2.600000e+001
      vertex   3.698496e+001 3.250000e+001 2.970000e+001
    endloop
  endfacet
  facet normal 0.000000e+000 1.000000e+000 0.000000e+000
    outer loop
      vertex   3.698496e+001 3.250000e+001 2.970000e+001
      vertex   3.798874e+001 3.250000e+001 2.600000e+001
      vertex   3.677164e+001 3.250000e+001 2.885195e+001
    endloop
  endfacet
  facet normal 0.000000e+000 1.000000e+000 0.000000e+000
    outer loop
      vertex   3.677164e+001 3.250000e+001 2.885195e+001
      vertex   3.798874e+001 3.250000e+001 2.600000e+001
      vertex   3.612132e+001 3.250000e+001 2.787868e+001
    endloop
  endfacet
  facet normal 0.000000e+000 1.000000e+000 0.000000e+000
    outer loop
      vertex   3.798874e+001 3.250000e+001 2.600000e+001
      vertex   2.395855e+001 3.250000e+001 2.600000e+001
      vertex   3.400000e+001 3.250000e+001 2.700000e+001
    endloop
  endfacet
  facet normal -0.000000e+000 1.000000e+000 0.000000e+000
    outer loop
      vertex   3.798874e+001 3.250000e+001 2.600000e+001
      vertex   3.400000e+001 3.250000e+001 2.700000e+001
      vertex   3.514805e+001 3.250000e+001 2.722836e+001
    endloop
  endfacet
  facet normal -0.000000e+000 1.000000e+000 0.000000e+000
    outer loop
      vertex   3.798874e+001 3.250000e+001 2.600000e+001
      vertex   3.514805e+001 3.250000e+001 2.722836e+001
      vertex   3.612132e+001 3.250000e+001 2.787868e+001
    endloop
  endfacet
  facet normal -1.950891e-001 9.807856e-001 0.000000e+000
    outer loop
      vertex   2.300184e+001 3.230970e+001 2.815000e+001
      vertex   2.204513e+001 3.211940e+001 2.600000e+001
      vertex   2.204513e+001 3.211940e+001 3.030000e+001
    endloop
  endfacet
  facet normal -5.555713e-001 8.314690e-001 0.000000e+000
    outer loop
      vertex   2.123407e+001 3.157747e+001 2.815000e+001
      vertex   2.204513e+001 3.211940e+001 3.030000e+001
      vertex   2.204513e+001 3.211940e+001 2.600000e+001
    endloop
  endfacet
  facet normal -1.950895e-001 9.807855e-001 0.000000e+000
    outer loop
      vertex   2.300184e+001 3.230970e+001 2.815000e+001
      vertex   2.395855e+001 3.250000e+001 3.030000e+001
      vertex   2.395855e+001 3.250000e+001 2.600000e+001
    endloop
  endfacet
  facet normal 1.000000e+000 0.000000e+000 0.000000e+000
    outer loop
      vertex   3.899099e+001 3.150000e+001 2.600000e+001
      vertex   3.899099e+001 1.998496e+001 2.970000e+001
      vertex   3.899099e+001 1.977164e+001 2.885195e+001
    endloop
  endfacet
  facet normal 1.000000e+000 0.000000e+000 0.000000e+000
    outer loop
      vertex   3.899099e+001 3.150000e+001 2.600000e+001
      vertex   3.899099e+001 1.814805e+001 2.722836e+001
      vertex   3.899099e+001 1.300901e+001 2.600000e+001
    endloop
  endfacet
  facet normal -9.807852e-001 1.950910e-001 0.000000e+000
    outer loop
      vertex   1.914885e+001 2.845671e+001 2.815000e+001
      vertex   1.895855e+001 2.750000e+001 2.600000e+001
      vertex   1.895855e+001 2.750000e+001 3.030000e+001
    endloop
  endfacet
  facet normal 1.000000e+000 0.000000e+000 0.000000e+000
    outer loop
      vertex   3.899099e+001 3.150000e+001 2.600000e+001
      vertex   3.899099e+001 1.912132e+001 2.787868e+001
      vertex   3.899099e+001 1.814805e+001 2.722836e+001
    endloop
  endfacet
  facet normal -5.555703e-001 8.314695e-001 0.000000e+000
    outer loop
      vertex   2.123407e+001 3.157747e+001 2.815000e+001
      vertex   2.042301e+001 3.103553e+001 2.600000e+001
      vertex   2.042301e+001 3.103553e+001 3.030000e+001
    endloop
  endfacet
  facet normal 1.000000e+000 0.000000e+000 0.000000e+000
    outer loop
      vertex   3.899099e+001 3.150000e+001 2.600000e+001
      vertex   3.899099e+001 1.977164e+001 2.885195e+001
      vertex   3.899099e+001 1.912132e+001 2.787868e+001
    endloop
  endfacet
  facet normal 0.000000e+000 1.950906e-001 9.807852e-001
    outer loop
      vertex   2.997982e+001 1.654078e+001 2.709134e+001
      vertex   3.400000e+001 1.700000e+001 2.700000e+001
      vertex   1.895855e+001 1.700000e+001 2.700000e+001
    endloop
  endfacet
  facet normal -5.072491e-007 -1.950896e-001 9.807854e-001
    outer loop
      vertex   3.678251e+001 1.757402e+001 2.711418e+001
      vertex   3.514805e+001 1.814805e+001 2.722836e+001
      vertex   3.400000e+001 1.700000e+001 2.700000e+001
    endloop
  endfacet
  facet normal 0.000000e+000 -1.950920e-001 9.807850e-001
    outer loop
      vertex   2.619226e+001 1.757402e+001 2.711418e+001
      vertex   1.895855e+001 1.700000e+001 2.700000e+001
      vertex   3.400000e+001 1.700000e+001 2.700000e+001
    endloop
  endfacet
  facet normal -2.021341e-008 1.950901e-001 9.807853e-001
    outer loop
      vertex   2.997982e+001 1.654078e+001 2.709134e+001
      vertex   1.895855e+001 1.700000e+001 2.700000e+001
      vertex   1.895855e+001 1.585195e+001 2.722836e+001
    endloop
  endfacet
  facet normal -1.950904e-001 1.245214e-007 9.807853e-001
    outer loop
      vertex   3.457402e+001 2.503701e+001 2.711418e+001
      vertex   3.514805e+001 3.250000e+001 2.722836e+001
      vertex   3.400000e+001 3.250000e+001 2.700000e+001
    endloop
  endfacet
  facet normal 1.548655e-007 -1.950899e-001 9.807853e-001
    outer loop
      vertex   2.619226e+001 1.757402e+001 2.711418e+001
      vertex   3.400000e+001 1.700000e+001 2.700000e+001
      vertex   3.285195e+001 1.814805e+001 2.722836e+001
    endloop
  endfacet
  facet normal 1.950897e-001 -7.505378e-008 9.807854e-001
    outer loop
      vertex   3.342597e+001 2.503701e+001 2.711418e+001
      vertex   3.285195e+001 1.814805e+001 2.722836e+001
      vertex   3.400000e+001 1.700000e+001 2.700000e+001
    endloop
  endfacet
  facet normal 1.950907e-001 -0.000000e+000 9.807852e-001
    outer loop
      vertex   3.342597e+001 2.503701e+001 2.711418e+001
      vertex   3.400000e+001 1.700000e+001 2.700000e+001
      vertex   3.400000e+001 3.250000e+001 2.700000e+001
    endloop
  endfacet
  facet normal -1.548654e-007 -1.950901e-001 9.807853e-001
    outer loop
      vertex   2.619226e+001 1.757402e+001 2.711418e+001
      vertex   1.895855e+001 1.814805e+001 2.722836e+001
      vertex   1.895855e+001 1.700000e+001 2.700000e+001
    endloop
  endfacet
  facet normal -1.950920e-001 0.000000e+000 9.807850e-001
    outer loop
      vertex   3.457402e+001 2.503701e+001 2.711418e+001
      vertex   3.400000e+001 3.250000e+001 2.700000e+001
      vertex   3.400000e+001 1.700000e+001 2.700000e+001
    endloop
  endfacet
  facet normal 5.072501e-007 -1.950901e-001 9.807854e-001
    outer loop
      vertex   3.678251e+001 1.757402e+001 2.711418e+001
      vertex   3.899099e+001 1.700000e+001 2.700000e+001
      vertex   3.899099e+001 1.814805e+001 2.722836e+001
    endloop
  endfacet
  facet normal 0.000000e+000 -1.950920e-001 9.807850e-001
    outer loop
      vertex   3.678251e+001 1.757402e+001 2.711418e+001
      vertex   3.400000e+001 1.700000e+001 2.700000e+001
      vertex   3.899099e+001 1.700000e+001 2.700000e+001
    endloop
  endfacet
  facet normal 1.950898e-001 7.675952e-008 9.807854e-001
    outer loop
      vertex   3.342597e+001 2.503701e+001 2.711418e+001
      vertex   3.400000e+001 3.250000e+001 2.700000e+001
      vertex   3.285195e+001 3.250000e+001 2.722836e+001
    endloop
  endfacet
  facet normal 0.000000e+000 1.950906e-001 9.807853e-001
    outer loop
      vertex   2.997982e+001 1.654078e+001 2.709134e+001
      vertex   3.899099e+001 1.700000e+001 2.700000e+001
      vertex   3.400000e+001 1.700000e+001 2.700000e+001
    endloop
  endfacet
  facet normal 2.401600e-008 1.950901e-001 9.807853e-001
    outer loop
      vertex   2.997982e+001 1.654078e+001 2.709134e+001
      vertex   3.899099e+001 1.585195e+001 2.722836e+001
      vertex   3.899099e+001 1.700000e+001 2.700000e+001
    endloop
  endfacet
  facet normal -1.950903e-001 -1.245214e-007 9.807853e-001
    outer loop
      vertex   3.457402e+001 2.503701e+001 2.711418e+001
      vertex   3.400000e+001 1.700000e+001 2.700000e+001
      vertex   3.514805e+001 1.814805e+001 2.722836e+001
    endloop
  endfacet
  facet normal -0.000000e+000 1.950898e-001 9.807854e-001
    outer loop
      vertex   2.997982e+001 1.654078e+001 2.709134e+001
      vertex   1.895855e+001 1.585195e+001 2.722836e+001
      vertex   3.899099e+001 1.585195e+001 2.722836e+001
    endloop
  endfacet
  facet normal -1.950888e-001 0.000000e+000 9.807855e-001
    outer loop
      vertex   3.457402e+001 2.503701e+001 2.711418e+001
      vertex   3.514805e+001 1.814805e+001 2.722836e+001
      vertex   3.514805e+001 3.250000e+001 2.722836e+001
    endloop
  endfacet
  facet normal 0.000000e+000 -1.950882e-001 9.807858e-001
    outer loop
      vertex   3.678251e+001 1.757402e+001 2.711418e+001
      vertex   3.899099e+001 1.814805e+001 2.722836e+001
      vertex   3.514805e+001 1.814805e+001 2.722836e+001
    endloop
  endfacet
  facet normal 0.000000e+000 -1.950882e-001 9.807856e-001
    outer loop
      vertex   2.619226e+001 1.757402e+001 2.711418e+001
      vertex   3.285195e+001 1.814805e+001 2.722836e+001
      vertex   1.895855e+001 1.814805e+001 2.722836e+001
    endloop
  endfacet
  facet normal 1.950888e-001 0.000000e+000 9.807855e-001
    outer loop
      vertex   3.342597e+001 2.503701e+001 2.711418e+001
      vertex   3.285195e+001 3.250000e+001 2.722836e+001
      vertex   3.285195e+001 1.814805e+001 2.722836e+001
    endloop
  endfacet
  facet normal 5.555708e-001 7.345035e-008 8.314692e-001
    outer loop
      vertex   3.236531e+001 2.556734e+001 2.755352e+001
      vertex   3.285195e+001 3.250000e+001 2.722836e+001
      vertex   3.187868e+001 3.250000e+001 2.787868e+001
    endloop
  endfacet
  facet normal 0.000000e+000 5.555701e-001 8.314698e-001
    outer loop
      vertex   2.897477e+001 1.536531e+001 2.755352e+001
      vertex   1.895855e+001 1.585195e+001 2.722836e+001
      vertex   1.895855e+001 1.487868e+001 2.787868e+001
    endloop
  endfacet
  facet normal 0.000000e+000 5.555701e-001 8.314698e-001
    outer loop
      vertex   2.897477e+001 1.536531e+001 2.755352e+001
      vertex   3.899099e+001 1.487868e+001 2.787868e+001
      vertex   3.899099e+001 1.585195e+001 2.722836e+001
    endloop
  endfacet
  facet normal 0.000000e+000 5.555701e-001 8.314697e-001
    outer loop
      vertex   2.897477e+001 1.536531e+001 2.755352e+001
      vertex   3.899099e+001 1.585195e+001 2.722836e+001
      vertex   1.895855e+001 1.585195e+001 2.722836e+001
    endloop
  endfacet
  facet normal 5.555707e-001 -7.712286e-008 8.314692e-001
    outer loop
      vertex   3.236531e+001 2.556734e+001 2.755352e+001
      vertex   3.187868e+001 1.912132e+001 2.787868e+001
      vertex   3.285195e+001 1.814805e+001 2.722836e+001
    endloop
  endfacet
  facet normal 5.555715e-001 -0.000000e+000 8.314688e-001
    outer loop
      vertex   3.236531e+001 2.556734e+001 2.755352e+001
      vertex   3.285195e+001 1.814805e+001 2.722836e+001
      vertex   3.285195e+001 3.250000e+001 2.722836e+001
    endloop
  endfacet
  facet normal 0.000000e+000 -5.555700e-001 8.314698e-001
    outer loop
      vertex   3.731284e+001 1.863469e+001 2.755352e+001
      vertex   3.899099e+001 1.814805e+001 2.722836e+001
      vertex   3.899099e+001 1.912132e+001 2.787868e+001
    endloop
  endfacet
  facet normal 0.000000e+000 -5.555700e-001 8.314698e-001
    outer loop
      vertex   3.731284e+001 1.863469e+001 2.755352e+001
      vertex   3.612132e+001 1.912132e+001 2.787868e+001
      vertex   3.514805e+001 1.814805e+001 2.722836e+001
    endloop
  endfacet
  facet normal 0.000000e+000 -5.555701e-001 8.314698e-001
    outer loop
      vertex   2.566193e+001 1.863469e+001 2.755352e+001
      vertex   1.895855e+001 1.912132e+001 2.787868e+001
      vertex   1.895855e+001 1.814805e+001 2.722836e+001
    endloop
  endfacet
  facet normal 0.000000e+000 -5.555700e-001 8.314697e-001
    outer loop
      vertex   2.566193e+001 1.863469e+001 2.755352e+001
      vertex   1.895855e+001 1.814805e+001 2.722836e+001
      vertex   3.285195e+001 1.814805e+001 2.722836e+001
    endloop
  endfacet
  facet normal 0.000000e+000 -5.555701e-001 8.314698e-001
    outer loop
      vertex   2.566193e+001 1.863469e+001 2.755352e+001
      vertex   3.285195e+001 1.814805e+001 2.722836e+001
      vertex   3.187868e+001 1.912132e+001 2.787868e+001
    endloop
  endfacet
  facet normal -5.555685e-001 0.000000e+000 8.314707e-001
    outer loop
      vertex   3.563469e+001 2.556734e+001 2.755352e+001
      vertex   3.514805e+001 3.250000e+001 2.722836e+001
      vertex   3.514805e+001 1.814805e+001 2.722836e+001
    endloop
  endfacet
  facet normal 0.000000e+000 -5.555701e-001 8.314697e-001
    outer loop
      vertex   3.731284e+001 1.863469e+001 2.755352e+001
      vertex   3.514805e+001 1.814805e+001 2.722836e+001
      vertex   3.899099e+001 1.814805e+001 2.722836e+001
    endloop
  endfacet
  facet normal -5.555701e-001 -1.505730e-007 8.314698e-001
    outer loop
      vertex   3.563469e+001 2.556734e+001 2.755352e+001
      vertex   3.612132e+001 3.250000e+001 2.787868e+001
      vertex   3.514805e+001 3.250000e+001 2.722836e+001
    endloop
  endfacet
  facet normal -5.555701e-001 1.542456e-007 8.314697e-001
    outer loop
      vertex   3.563469e+001 2.556734e+001 2.755352e+001
      vertex   3.514805e+001 1.814805e+001 2.722836e+001
      vertex   3.612132e+001 1.912132e+001 2.787868e+001
    endloop
  endfacet
  facet normal 8.314689e-001 5.555713e-001 3.412763e-007
    outer loop
      vertex   2.232756e+001 2.641021e+001 2.735000e+001
      vertex   2.211079e+001 2.673463e+001 2.970000e+001
      vertex   2.254433e+001 2.608579e+001 2.970000e+001
    endloop
  endfacet
  facet normal 5.555702e-001 8.314696e-001 -1.137585e-007
    outer loop
      vertex   2.286876e+001 2.586901e+001 2.735000e+001
      vertex   2.254433e+001 2.608579e+001 2.970000e+001
      vertex   2.319318e+001 2.565224e+001 2.970000e+001
    endloop
  endfacet
  facet normal 9.807853e-001 -1.950899e-001 7.922473e-008
    outer loop
      vertex   2.203467e+001 2.788268e+001 2.735000e+001
      vertex   2.211079e+001 2.826537e+001 2.970000e+001
      vertex   2.195855e+001 2.750000e+001 2.970000e+001
    endloop
  endfacet
  facet normal 1.950904e-001 9.807853e-001 0.000000e+000
    outer loop
      vertex   2.357586e+001 2.557612e+001 2.735000e+001
      vertex   2.319318e+001 2.565224e+001 2.970000e+001
      vertex   2.395855e+001 2.550000e+001 2.970000e+001
    endloop
  endfacet
  facet normal 9.807853e-001 1.950899e-001 7.922473e-008
    outer loop
      vertex   2.203467e+001 2.711732e+001 2.735000e+001
      vertex   2.195855e+001 2.750000e+001 2.970000e+001
      vertex   2.211079e+001 2.673463e+001 2.970000e+001
    endloop
  endfacet
  facet normal 8.314689e-001 -5.555713e-001 3.331506e-007
    outer loop
      vertex   2.232756e+001 2.858979e+001 2.735000e+001
      vertex   2.254433e+001 2.891421e+001 2.970000e+001
      vertex   2.211079e+001 2.826537e+001 2.970000e+001
    endloop
  endfacet
  facet normal 5.555702e-001 -8.314696e-001 -1.056329e-007
    outer loop
      vertex   2.286876e+001 2.913099e+001 2.735000e+001
      vertex   2.319318e+001 2.934776e+001 2.970000e+001
      vertex   2.254433e+001 2.891421e+001 2.970000e+001
    endloop
  endfacet
  facet normal 1.950904e-001 -9.807853e-001 0.000000e+000
    outer loop
      vertex   2.357586e+001 2.942388e+001 2.735000e+001
      vertex   2.395855e+001 2.950000e+001 2.970000e+001
      vertex   2.319318e+001 2.934776e+001 2.970000e+001
    endloop
  endfacet
  facet normal -9.807853e-001 -1.950899e-001 7.922473e-008
    outer loop
      vertex   2.588243e+001 2.788268e+001 2.735000e+001
      vertex   2.595855e+001 2.750000e+001 2.970000e+001
      vertex   2.580631e+001 2.826537e+001 2.970000e+001
    endloop
  endfacet
  facet normal -1.950899e-001 9.807853e-001 -7.922473e-008
    outer loop
      vertex   2.434123e+001 2.557612e+001 2.735000e+001
      vertex   2.395855e+001 2.550000e+001 2.970000e+001
      vertex   2.472392e+001 2.565224e+001 2.970000e+001
    endloop
  endfacet
  facet normal -1.950899e-001 -9.807853e-001 -7.922473e-008
    outer loop
      vertex   2.434123e+001 2.942388e+001 2.735000e+001
      vertex   2.472392e+001 2.934776e+001 2.970000e+001
      vertex   2.395855e+001 2.950000e+001 2.970000e+001
    endloop
  endfacet
  facet normal -5.555713e-001 8.314689e-001 -3.331506e-007
    outer loop
      vertex   2.504834e+001 2.586901e+001 2.735000e+001
      vertex   2.472392e+001 2.565224e+001 2.970000e+001
      vertex   2.537276e+001 2.608579e+001 2.970000e+001
    endloop
  endfacet
  facet normal -8.314689e-001 5.555713e-001 -3.412763e-007
    outer loop
      vertex   2.558953e+001 2.641021e+001 2.735000e+001
      vertex   2.537276e+001 2.608579e+001 2.970000e+001
      vertex   2.580631e+001 2.673463e+001 2.970000e+001
    endloop
  endfacet
  facet normal -9.807853e-001 1.950899e-001 7.922473e-008
    outer loop
      vertex   2.588243e+001 2.711732e+001 2.735000e+001
      vertex   2.580631e+001 2.673463e+001 2.970000e+001
      vertex   2.595855e+001 2.750000e+001 2.970000e+001
    endloop
  endfacet
  facet normal -5.555713e-001 -8.314689e-001 -3.412763e-007
    outer loop
      vertex   2.504834e+001 2.913099e+001 2.735000e+001
      vertex   2.537276e+001 2.891421e+001 2.970000e+001
      vertex   2.472392e+001 2.934776e+001 2.970000e+001
    endloop
  endfacet
  facet normal -8.314689e-001 -5.555713e-001 -3.331506e-007
    outer loop
      vertex   2.558953e+001 2.858979e+001 2.735000e+001
      vertex   2.580631e+001 2.826537e+001 2.970000e+001
      vertex   2.537276e+001 2.891421e+001 2.970000e+001
    endloop
  endfacet
  facet normal 7.063101e-001 7.079025e-001 -7.258154e-008
    outer loop
      vertex   3.848997e+001 3.199989e+001 2.737989e+001
      vertex   3.798874e+001 3.250000e+001 2.970000e+001
      vertex   3.899099e+001 3.150000e+001 2.970000e+001
    endloop
  endfacet
  facet normal -7.079035e-001 -7.063091e-001 7.258144e-008
    outer loop
      vertex   1.945866e+001 1.251002e+001 2.737989e+001
      vertex   1.995855e+001 1.200901e+001 2.970000e+001
      vertex   1.895855e+001 1.301127e+001 2.970000e+001
    endloop
  endfacet
  facet normal 7.071068e-001 -7.071068e-001 0.000000e+000
    outer loop
      vertex   3.849099e+001 1.250901e+001 2.738000e+001
      vertex   3.899099e+001 1.300901e+001 2.970000e+001
      vertex   3.799099e+001 1.200901e+001 2.970000e+001
    endloop
  endfacet
  facet normal 0.000000e+000 -5.555700e-001 8.314698e-001
    outer loop
      vertex   2.566193e+001 1.863469e+001 2.755352e+001
      vertex   3.187868e+001 1.912132e+001 2.787868e+001
      vertex   1.895855e+001 1.912132e+001 2.787868e+001
    endloop
  endfacet
  facet normal 0.000000e+000 -5.555700e-001 8.314697e-001
    outer loop
      vertex   3.731284e+001 1.863469e+001 2.755352e+001
      vertex   3.899099e+001 1.912132e+001 2.787868e+001
      vertex   3.612132e+001 1.912132e+001 2.787868e+001
    endloop
  endfacet
  facet normal -0.000000e+000 5.555701e-001 8.314697e-001
    outer loop
      vertex   2.897477e+001 1.536531e+001 2.755352e+001
      vertex   1.895855e+001 1.487868e+001 2.787868e+001
      vertex   3.899099e+001 1.487868e+001 2.787868e+001
    endloop
  endfacet
  facet normal -5.555715e-001 0.000000e+000 8.314688e-001
    outer loop
      vertex   3.563469e+001 2.556734e+001 2.755352e+001
      vertex   3.612132e+001 1.912132e+001 2.787868e+001
      vertex   3.612132e+001 3.250000e+001 2.787868e+001
    endloop
  endfacet
  facet normal 5.555700e-001 0.000000e+000 8.314698e-001
    outer loop
      vertex   3.236531e+001 2.556734e+001 2.755352e+001
      vertex   3.187868e+001 3.250000e+001 2.787868e+001
      vertex   3.187868e+001 1.912132e+001 2.787868e+001
    endloop
  endfacet
  facet normal -0.000000e+000 -1.000000e+000 0.000000e+000
    outer loop
      vertex   2.897477e+001 1.200901e+001 2.785000e+001
      vertex   3.799099e+001 1.200901e+001 2.970000e+001
      vertex   1.995855e+001 1.200901e+001 2.970000e+001
    endloop
  endfacet
  facet normal 8.314698e-001 -0.000000e+000 5.555700e-001
    outer loop
      vertex   3.155352e+001 2.597324e+001 2.836531e+001
      vertex   3.187868e+001 1.912132e+001 2.787868e+001
      vertex   3.187868e+001 3.250000e+001 2.787868e+001
    endloop
  endfacet
  facet normal 0.000000e+000 -8.314698e-001 5.555700e-001
    outer loop
      vertex   2.525603e+001 1.944648e+001 2.836531e+001
      vertex   3.187868e+001 1.912132e+001 2.787868e+001
      vertex   3.122836e+001 1.977164e+001 2.885195e+001
    endloop
  endfacet
  facet normal -8.314682e-001 0.000000e+000 5.555723e-001
    outer loop
      vertex   3.644648e+001 2.597324e+001 2.836531e+001
      vertex   3.612132e+001 3.250000e+001 2.787868e+001
      vertex   3.612132e+001 1.912132e+001 2.787868e+001
    endloop
  endfacet
  facet normal 8.314697e-001 0.000000e+000 5.555700e-001
    outer loop
      vertex   3.155352e+001 2.597324e+001 2.836531e+001
      vertex   3.122836e+001 1.977164e+001 2.885195e+001
      vertex   3.187868e+001 1.912132e+001 2.787868e+001
    endloop
  endfacet
  facet normal -8.314697e-001 -2.418561e-007 5.555700e-001
    outer loop
      vertex   3.644648e+001 2.597324e+001 2.836531e+001
      vertex   3.677164e+001 3.250000e+001 2.885195e+001
      vertex   3.612132e+001 3.250000e+001 2.787868e+001
    endloop
  endfacet
  facet normal 8.314697e-001 0.000000e+000 5.555700e-001
    outer loop
      vertex   3.155352e+001 2.597324e+001 2.836531e+001
      vertex   3.187868e+001 3.250000e+001 2.787868e+001
      vertex   3.122836e+001 3.250000e+001 2.885195e+001
    endloop
  endfacet
  facet normal -8.314698e-001 2.418561e-007 5.555699e-001
    outer loop
      vertex   3.644648e+001 2.597324e+001 2.836531e+001
      vertex   3.612132e+001 1.912132e+001 2.787868e+001
      vertex   3.677164e+001 1.977164e+001 2.885195e+001
    endloop
  endfacet
  facet normal 0.000000e+000 -8.314697e-001 5.555700e-001
    outer loop
      vertex   3.771873e+001 1.944648e+001 2.836531e+001
      vertex   3.899099e+001 1.912132e+001 2.787868e+001
      vertex   3.899099e+001 1.977164e+001 2.885195e+001
    endloop
  endfacet
  facet normal -1.000000e+000 0.000000e+000 0.000000e+000
    outer loop
      vertex   1.895855e+001 1.422836e+001 2.885195e+001
      vertex   1.895855e+001 1.487868e+001 2.787868e+001
      vertex   1.895855e+001 1.301127e+001 2.970000e+001
    endloop
  endfacet
  facet normal 0.000000e+000 -8.314697e-001 5.555700e-001
    outer loop
      vertex   3.771873e+001 1.944648e+001 2.836531e+001
      vertex   3.612132e+001 1.912132e+001 2.787868e+001
      vertex   3.899099e+001 1.912132e+001 2.787868e+001
    endloop
  endfacet
  facet normal 0.000000e+000 8.314698e-001 5.555701e-001
    outer loop
      vertex   2.897477e+001 1.455352e+001 2.836531e+001
      vertex   1.895855e+001 1.487868e+001 2.787868e+001
      vertex   1.895855e+001 1.422836e+001 2.885195e+001
    endloop
  endfacet
  facet normal 0.000000e+000 -8.314698e-001 5.555700e-001
    outer loop
      vertex   2.525603e+001 1.944648e+001 2.836531e+001
      vertex   1.895855e+001 1.912132e+001 2.787868e+001
      vertex   3.187868e+001 1.912132e+001 2.787868e+001
    endloop
  endfacet
  facet normal 0.000000e+000 -8.314698e-001 5.555700e-001
    outer loop
      vertex   3.771873e+001 1.944648e+001 2.836531e+001
      vertex   3.677164e+001 1.977164e+001 2.885195e+001
      vertex   3.612132e+001 1.912132e+001 2.787868e+001
    endloop
  endfacet
  facet normal 1.000000e+000 0.000000e+000 0.000000e+000
    outer loop
      vertex   3.899099e+001 1.422836e+001 2.885195e+001
      vertex   3.899099e+001 1.300901e+001 2.970000e+001
      vertex   3.899099e+001 1.487868e+001 2.787868e+001
    endloop
  endfacet
  facet normal 0.000000e+000 1.000000e+000 0.000000e+000
    outer loop
      vertex   3.122836e+001 3.250000e+001 2.885195e+001
      vertex   3.187868e+001 3.250000e+001 2.787868e+001
      vertex   2.466025e+001 3.250000e+001 2.970000e+001
    endloop
  endfacet
  facet normal 0.000000e+000 8.314698e-001 5.555701e-001
    outer loop
      vertex   2.897477e+001 1.455352e+001 2.836531e+001
      vertex   3.899099e+001 1.422836e+001 2.885195e+001
      vertex   3.899099e+001 1.487868e+001 2.787868e+001
    endloop
  endfacet
  facet normal 0.000000e+000 8.314697e-001 5.555701e-001
    outer loop
      vertex   2.897477e+001 1.455352e+001 2.836531e+001
      vertex   3.899099e+001 1.487868e+001 2.787868e+001
      vertex   1.895855e+001 1.487868e+001 2.787868e+001
    endloop
  endfacet
  facet normal 0.000000e+000 -8.314697e-001 5.555700e-001
    outer loop
      vertex   2.525603e+001 1.944648e+001 2.836531e+001
      vertex   1.895855e+001 1.977164e+001 2.885195e+001
      vertex   1.895855e+001 1.912132e+001 2.787868e+001
    endloop
  endfacet
  facet normal -8.314697e-001 5.555701e-001 -6.110463e-007
    outer loop
      vertex   1.988108e+001 3.022447e+001 2.815000e+001
      vertex   1.933915e+001 2.941342e+001 3.030000e+001
      vertex   2.042301e+001 3.103553e+001 3.030000e+001
    endloop
  endfacet
  facet normal -5.555708e-001 8.314693e-001 -2.557867e-007
    outer loop
      vertex   2.123407e+001 3.157747e+001 2.815000e+001
      vertex   2.042301e+001 3.103553e+001 3.030000e+001
      vertex   2.204513e+001 3.211940e+001 3.030000e+001
    endloop
  endfacet
  facet normal -1.950893e-001 9.807855e-001 -8.526241e-008
    outer loop
      vertex   2.300184e+001 3.230970e+001 2.815000e+001
      vertex   2.204513e+001 3.211940e+001 3.030000e+001
      vertex   2.395855e+001 3.250000e+001 3.030000e+001
    endloop
  endfacet
  facet normal -9.807853e-001 1.950902e-001 -3.481548e-007
    outer loop
      vertex   1.914885e+001 2.845671e+001 2.815000e+001
      vertex   1.895855e+001 2.750000e+001 3.030000e+001
      vertex   1.933915e+001 2.941342e+001 3.030000e+001
    endloop
  endfacet
  facet normal -8.314713e-001 0.000000e+000 5.555677e-001
    outer loop
      vertex   3.644648e+001 2.597324e+001 2.836531e+001
      vertex   3.677164e+001 1.977164e+001 2.885195e+001
      vertex   3.677164e+001 3.250000e+001 2.885195e+001
    endloop
  endfacet
  facet normal -0.000000e+000 8.314697e-001 5.555701e-001
    outer loop
      vertex   2.897477e+001 1.455352e+001 2.836531e+001
      vertex   1.895855e+001 1.422836e+001 2.885195e+001
      vertex   3.899099e+001 1.422836e+001 2.885195e+001
    endloop
  endfacet
  facet normal 8.314698e-001 0.000000e+000 5.555700e-001
    outer loop
      vertex   3.155352e+001 2.597324e+001 2.836531e+001
      vertex   3.122836e+001 3.250000e+001 2.885195e+001
      vertex   3.122836e+001 1.977164e+001 2.885195e+001
    endloop
  endfacet
  facet normal 0.000000e+000 -8.314698e-001 5.555700e-001
    outer loop
      vertex   2.525603e+001 1.944648e+001 2.836531e+001
      vertex   3.122836e+001 1.977164e+001 2.885195e+001
      vertex   1.895855e+001 1.977164e+001 2.885195e+001
    endloop
  endfacet
  facet normal 0.000000e+000 -8.314697e-001 5.555700e-001
    outer loop
      vertex   3.771873e+001 1.944648e+001 2.836531e+001
      vertex   3.899099e+001 1.977164e+001 2.885195e+001
      vertex   3.677164e+001 1.977164e+001 2.885195e+001
    endloop
  endfacet
  facet normal 0.000000e+000 -9.697891e-001 2.439446e-001
    outer loop
      vertex   3.793465e+001 1.987830e+001 2.927597e+001
      vertex   3.677164e+001 1.977164e+001 2.885195e+001
      vertex   3.899099e+001 1.977164e+001 2.885195e+001
    endloop
  endfacet
  facet normal -6.533165e-007 -9.697887e-001 2.439463e-001
    outer loop
      vertex   3.793465e+001 1.987830e+001 2.927597e+001
      vertex   3.698496e+001 1.998496e+001 2.970000e+001
      vertex   3.677164e+001 1.977164e+001 2.885195e+001
    endloop
  endfacet
  facet normal 6.533190e-007 -9.697888e-001 2.439462e-001
    outer loop
      vertex   3.793465e+001 1.987830e+001 2.927597e+001
      vertex   3.899099e+001 1.977164e+001 2.885195e+001
      vertex   3.899099e+001 1.998496e+001 2.970000e+001
    endloop
  endfacet
  facet normal 0.000000e+000 -9.697891e-001 2.439446e-001
    outer loop
      vertex   2.504012e+001 1.987830e+001 2.927597e+001
      vertex   1.895855e+001 1.977164e+001 2.885195e+001
      vertex   3.122836e+001 1.977164e+001 2.885195e+001
    endloop
  endfacet
  facet normal -1.134787e-007 -9.697888e-001 2.439462e-001
    outer loop
      vertex   2.504012e+001 1.987830e+001 2.927597e+001
      vertex   1.895855e+001 1.998496e+001 2.970000e+001
      vertex   1.895855e+001 1.977164e+001 2.885195e+001
    endloop
  endfacet
  facet normal 1.134786e-007 -9.697888e-001 2.439462e-001
    outer loop
      vertex   2.504012e+001 1.987830e+001 2.927597e+001
      vertex   3.122836e+001 1.977164e+001 2.885195e+001
      vertex   3.101504e+001 1.998496e+001 2.970000e+001
    endloop
  endfacet
  facet normal -9.697883e-001 3.645197e-008 2.439482e-001
    outer loop
      vertex   3.687830e+001 2.618915e+001 2.927597e+001
      vertex   3.677164e+001 1.977164e+001 2.885195e+001
      vertex   3.698496e+001 1.998496e+001 2.970000e+001
    endloop
  endfacet
  facet normal 0.000000e+000 1.000000e+000 0.000000e+000
    outer loop
      vertex   3.101504e+001 3.250000e+001 2.970000e+001
      vertex   3.122836e+001 3.250000e+001 2.885195e+001
      vertex   2.466025e+001 3.250000e+001 2.970000e+001
    endloop
  endfacet
  facet normal 9.697888e-001 -1.836100e-007 2.439462e-001
    outer loop
      vertex   3.112170e+001 2.618915e+001 2.927597e+001
      vertex   3.122836e+001 3.250000e+001 2.885195e+001
      vertex   3.101504e+001 3.250000e+001 2.970000e+001
    endloop
  endfacet
  facet normal -9.697883e-001 -3.780204e-008 2.439483e-001
    outer loop
      vertex   3.687830e+001 2.618915e+001 2.927597e+001
      vertex   3.698496e+001 3.250000e+001 2.970000e+001
      vertex   3.677164e+001 3.250000e+001 2.885195e+001
    endloop
  endfacet
  facet normal -1.000000e+000 0.000000e+000 0.000000e+000
    outer loop
      vertex   1.895855e+001 1.401504e+001 2.970000e+001
      vertex   1.895855e+001 1.422836e+001 2.885195e+001
      vertex   1.895855e+001 1.301127e+001 2.970000e+001
    endloop
  endfacet
  facet normal -2.296705e-008 9.697887e-001 2.439462e-001
    outer loop
      vertex   2.897477e+001 1.412170e+001 2.927597e+001
      vertex   3.899099e+001 1.401504e+001 2.970000e+001
      vertex   3.899099e+001 1.422836e+001 2.885195e+001
    endloop
  endfacet
  facet normal -9.697881e-001 0.000000e+000 2.439488e-001
    outer loop
      vertex   3.687830e+001 2.618915e+001 2.927597e+001
      vertex   3.677164e+001 3.250000e+001 2.885195e+001
      vertex   3.677164e+001 1.977164e+001 2.885195e+001
    endloop
  endfacet
  facet normal 9.697881e-001 -0.000000e+000 2.439488e-001
    outer loop
      vertex   3.112170e+001 2.618915e+001 2.927597e+001
      vertex   3.122836e+001 1.977164e+001 2.885195e+001
      vertex   3.122836e+001 3.250000e+001 2.885195e+001
    endloop
  endfacet
  facet normal 1.000000e+000 -0.000000e+000 0.000000e+000
    outer loop
      vertex   3.899099e+001 1.401504e+001 2.970000e+001
      vertex   3.899099e+001 1.300901e+001 2.970000e+001
      vertex   3.899099e+001 1.422836e+001 2.885195e+001
    endloop
  endfacet
  facet normal 0.000000e+000 9.697887e-001 2.439467e-001
    outer loop
      vertex   2.897477e+001 1.412170e+001 2.927597e+001
      vertex   3.899099e+001 1.422836e+001 2.885195e+001
      vertex   1.895855e+001 1.422836e+001 2.885195e+001
    endloop
  endfacet
  facet normal 9.697888e-001 1.836100e-007 2.439461e-001
    outer loop
      vertex   3.112170e+001 2.618915e+001 2.927597e+001
      vertex   3.101504e+001 1.998496e+001 2.970000e+001
      vertex   3.122836e+001 1.977164e+001 2.885195e+001
    endloop
  endfacet
  facet normal 2.381767e-008 9.697887e-001 2.439462e-001
    outer loop
      vertex   2.897477e+001 1.412170e+001 2.927597e+001
      vertex   1.895855e+001 1.422836e+001 2.885195e+001
      vertex   1.895855e+001 1.401504e+001 2.970000e+001
    endloop
  endfacet
  facet normal 9.697894e-001 0.000000e+000 2.439436e-001
    outer loop
      vertex   3.112170e+001 2.618915e+001 2.927597e+001
      vertex   3.101504e+001 3.250000e+001 2.970000e+001
      vertex   3.101504e+001 1.998496e+001 2.970000e+001
    endloop
  endfacet
  facet normal 0.000000e+000 -9.697884e-001 2.439477e-001
    outer loop
      vertex   2.504012e+001 1.987830e+001 2.927597e+001
      vertex   3.101504e+001 1.998496e+001 2.970000e+001
      vertex   1.895855e+001 1.998496e+001 2.970000e+001
    endloop
  endfacet
  facet normal -0.000000e+000 9.697889e-001 2.439457e-001
    outer loop
      vertex   2.897477e+001 1.412170e+001 2.927597e+001
      vertex   1.895855e+001 1.401504e+001 2.970000e+001
      vertex   3.899099e+001 1.401504e+001 2.970000e+001
    endloop
  endfacet
  facet normal -9.697884e-001 0.000000e+000 2.439477e-001
    outer loop
      vertex   3.687830e+001 2.618915e+001 2.927597e+001
      vertex   3.698496e+001 1.998496e+001 2.970000e+001
      vertex   3.698496e+001 3.250000e+001 2.970000e+001
    endloop
  endfacet
  facet normal 0.000000e+000 -9.697884e-001 2.439477e-001
    outer loop
      vertex   3.793465e+001 1.987830e+001 2.927597e+001
      vertex   3.899099e+001 1.998496e+001 2.970000e+001
      vertex   3.698496e+001 1.998496e+001 2.970000e+001
    endloop
  endfacet
  facet normal 7.071068e-001 -7.071068e-001 0.000000e+000
    outer loop
      vertex   2.180940e+001 2.964915e+001 3.000000e+001
      vertex   2.466025e+001 3.250000e+001 2.970000e+001
      vertex   2.466025e+001 3.250000e+001 3.030000e+001
    endloop
  endfacet
  facet normal 0.000000e+000 0.000000e+000 1.000000e+000
    outer loop
      vertex   3.807176e+001 2.807833e+001 2.970000e+001
      vertex   3.899099e+001 3.150000e+001 2.970000e+001
      vertex   3.848993e+001 3.200006e+001 2.970000e+001
    endloop
  endfacet
  facet normal 7.071068e-001 -7.071068e-001 0.000000e+000
    outer loop
      vertex   2.180940e+001 2.964915e+001 3.000000e+001
      vertex   1.895855e+001 2.679830e+001 3.030000e+001
      vertex   1.895855e+001 2.679830e+001 2.970000e+001
    endloop
  endfacet
  facet normal 0.000000e+000 0.000000e+000 1.000000e+000
    outer loop
      vertex   3.807176e+001 2.807833e+001 2.970000e+001
      vertex   3.848993e+001 3.200006e+001 2.970000e+001
      vertex   3.798874e+001 3.250000e+001 2.970000e+001
    endloop
  endfacet
  facet normal 0.000000e+000 0.000000e+000 -1.000000e+000
    outer loop
      vertex   1.895855e+001 1.301127e+001 2.970000e+001
      vertex   1.995855e+001 1.200901e+001 2.970000e+001
      vertex   1.945848e+001 1.251007e+001 2.970000e+001
    endloop
  endfacet
  facet normal 0.000000e+000 1.000000e+000 -0.000000e+000
    outer loop
      vertex   2.466025e+001 3.250000e+001 3.030000e+001
      vertex   2.466025e+001 3.250000e+001 2.970000e+001
      vertex   2.395855e+001 3.250000e+001 3.030000e+001
    endloop
  endfacet
  facet normal 0.000000e+000 0.000000e+000 1.000000e+000
    outer loop
      vertex   3.807176e+001 2.807833e+001 2.970000e+001
      vertex   3.798874e+001 3.250000e+001 2.970000e+001
      vertex   3.698496e+001 3.250000e+001 2.970000e+001
    endloop
  endfacet
  facet normal -0.000000e+000 0.000000e+000 1.000000e+000
    outer loop
      vertex   2.761530e+001 1.293978e+001 2.970000e+001
      vertex   1.945848e+001 1.251007e+001 2.970000e+001
      vertex   1.995855e+001 1.200901e+001 2.970000e+001
    endloop
  endfacet
  facet normal 0.000000e+000 0.000000e+000 1.000000e+000
    outer loop
      vertex   2.761530e+001 1.293978e+001 2.970000e+001
      vertex   3.899099e+001 1.401504e+001 2.970000e+001
      vertex   1.895855e+001 1.401504e+001 2.970000e+001
    endloop
  endfacet
  facet normal 0.000000e+000 0.000000e+000 1.000000e+000
    outer loop
      vertex   2.761530e+001 1.293978e+001 2.970000e+001
      vertex   1.995855e+001 1.200901e+001 2.970000e+001
      vertex   3.799099e+001 1.200901e+001 2.970000e+001
    endloop
  endfacet
  facet normal 0.000000e+000 -0.000000e+000 1.000000e+000
    outer loop
      vertex   2.761530e+001 1.293978e+001 2.970000e+001
      vertex   3.799099e+001 1.200901e+001 2.970000e+001
      vertex   3.899099e+001 1.300901e+001 2.970000e+001
    endloop
  endfacet
  facet normal 0.000000e+000 -0.000000e+000 1.000000e+000
    outer loop
      vertex   2.761530e+001 1.293978e+001 2.970000e+001
      vertex   3.899099e+001 1.300901e+001 2.970000e+001
      vertex   3.899099e+001 1.401504e+001 2.970000e+001
    endloop
  endfacet
  facet normal 0.000000e+000 0.000000e+000 1.000000e+000
    outer loop
      vertex   2.761530e+001 1.293978e+001 2.970000e+001
      vertex   1.895855e+001 1.401504e+001 2.970000e+001
      vertex   1.895855e+001 1.301127e+001 2.970000e+001
    endloop
  endfacet
  facet normal 0.000000e+000 0.000000e+000 1.000000e+000
    outer loop
      vertex   3.807176e+001 2.807833e+001 2.970000e+001
      vertex   3.698496e+001 3.250000e+001 2.970000e+001
      vertex   3.698496e+001 1.998496e+001 2.970000e+001
    endloop
  endfacet
  facet normal 0.000000e+000 0.000000e+000 1.000000e+000
    outer loop
      vertex   3.807176e+001 2.807833e+001 2.970000e+001
      vertex   3.698496e+001 1.998496e+001 2.970000e+001
      vertex   3.899099e+001 1.998496e+001 2.970000e+001
    endloop
  endfacet
  facet normal 0.000000e+000 0.000000e+000 1.000000e+000
    outer loop
      vertex   2.761530e+001 1.293978e+001 2.970000e+001
      vertex   1.895855e+001 1.301127e+001 2.970000e+001
      vertex   1.945848e+001 1.251007e+001 2.970000e+001
    endloop
  endfacet
  facet normal 0.000000e+000 -0.000000e+000 1.000000e+000
    outer loop
      vertex   3.807176e+001 2.807833e+001 2.970000e+001
      vertex   3.899099e+001 1.998496e+001 2.970000e+001
      vertex   3.899099e+001 3.150000e+001 2.970000e+001
    endloop
  endfacet
  facet normal 7.071068e-001 -7.071068e-001 0.000000e+000
    outer loop
      vertex   2.180940e+001 2.964915e+001 3.000000e+001
      vertex   1.895855e+001 2.679830e+001 2.970000e+001
      vertex   2.466025e+001 3.250000e+001 2.970000e+001
    endloop
  endfacet
  facet normal -0.000000e+000 0.000000e+000 1.000000e+000
    outer loop
      vertex   2.195855e+001 2.750000e+001 2.970000e+001
      vertex   1.895855e+001 2.679830e+001 2.970000e+001
      vertex   2.211079e+001 2.673463e+001 2.970000e+001
    endloop
  endfacet
  facet normal -0.000000e+000 0.000000e+000 1.000000e+000
    outer loop
      vertex   2.472392e+001 2.565224e+001 2.970000e+001
      vertex   2.395855e+001 2.550000e+001 2.970000e+001
      vertex   3.101504e+001 1.998496e+001 2.970000e+001
    endloop
  endfacet
  facet normal -0.000000e+000 0.000000e+000 1.000000e+000
    outer loop
      vertex   3.101504e+001 3.250000e+001 2.970000e+001
      vertex   2.466025e+001 3.250000e+001 2.970000e+001
      vertex   3.101504e+001 1.998496e+001 2.970000e+001
    endloop
  endfacet
  facet normal -0.000000e+000 -0.000000e+000 -1.000000e+000
    outer loop
      vertex   3.798874e+001 3.250000e+001 2.970000e+001
      vertex   3.848993e+001 3.200006e+001 2.970000e+001
      vertex   3.899099e+001 3.150000e+001 2.970000e+001
    endloop
  endfacet
  facet normal -0.000000e+000 0.000000e+000 1.000000e+000
    outer loop
      vertex   2.537276e+001 2.608579e+001 2.970000e+001
      vertex   2.472392e+001 2.565224e+001 2.970000e+001
      vertex   3.101504e+001 1.998496e+001 2.970000e+001
    endloop
  endfacet
  facet normal -0.000000e+000 0.000000e+000 1.000000e+000
    outer loop
      vertex   2.466025e+001 3.250000e+001 2.970000e+001
      vertex   2.395855e+001 2.950000e+001 2.970000e+001
      vertex   2.472392e+001 2.934776e+001 2.970000e+001
    endloop
  endfacet
  facet normal -0.000000e+000 -0.000000e+000 1.000000e+000
    outer loop
      vertex   2.466025e+001 3.250000e+001 2.970000e+001
      vertex   2.580631e+001 2.826537e+001 2.970000e+001
      vertex   3.101504e+001 1.998496e+001 2.970000e+001
    endloop
  endfacet
  facet normal 0.000000e+000 0.000000e+000 1.000000e+000
    outer loop
      vertex   2.466025e+001 3.250000e+001 2.970000e+001
      vertex   2.319318e+001 2.934776e+001 2.970000e+001
      vertex   2.395855e+001 2.950000e+001 2.970000e+001
    endloop
  endfacet
  facet normal -0.000000e+000 -0.000000e+000 1.000000e+000
    outer loop
      vertex   2.466025e+001 3.250000e+001 2.970000e+001
      vertex   2.537276e+001 2.891421e+001 2.970000e+001
      vertex   2.580631e+001 2.826537e+001 2.970000e+001
    endloop
  endfacet
  facet normal 0.000000e+000 0.000000e+000 1.000000e+000
    outer loop
      vertex   3.101504e+001 1.998496e+001 2.970000e+001
      vertex   1.895855e+001 2.679830e+001 2.970000e+001
      vertex   1.895855e+001 1.998496e+001 2.970000e+001
    endloop
  endfacet
  facet normal 0.000000e+000 0.000000e+000 1.000000e+000
    outer loop
      vertex   2.319318e+001 2.565224e+001 2.970000e+001
      vertex   1.895855e+001 2.679830e+001 2.970000e+001
      vertex   3.101504e+001 1.998496e+001 2.970000e+001
    endloop
  endfacet
  facet normal 0.000000e+000 0.000000e+000 1.000000e+000
    outer loop
      vertex   2.254433e+001 2.608579e+001 2.970000e+001
      vertex   1.895855e+001 2.679830e+001 2.970000e+001
      vertex   2.319318e+001 2.565224e+001 2.970000e+001
    endloop
  endfacet
  facet normal 0.000000e+000 0.000000e+000 1.000000e+000
    outer loop
      vertex   2.395855e+001 2.550000e+001 2.970000e+001
      vertex   2.319318e+001 2.565224e+001 2.970000e+001
      vertex   3.101504e+001 1.998496e+001 2.970000e+001
    endloop
  endfacet
  facet normal 0.000000e+000 0.000000e+000 1.000000e+000
    outer loop
      vertex   2.211079e+001 2.673463e+001 2.970000e+001
      vertex   1.895855e+001 2.679830e+001 2.970000e+001
      vertex   2.254433e+001 2.608579e+001 2.970000e+001
    endloop
  endfacet
  facet normal 0.000000e+000 0.000000e+000 1.000000e+000
    outer loop
      vertex   2.466025e+001 3.250000e+001 2.970000e+001
      vertex   1.895855e+001 2.679830e+001 2.970000e+001
      vertex   2.319318e+001 2.934776e+001 2.970000e+001
    endloop
  endfacet
  facet normal -0.000000e+000 -0.000000e+000 1.000000e+000
    outer loop
      vertex   2.580631e+001 2.826537e+001 2.970000e+001
      vertex   2.595855e+001 2.750000e+001 2.970000e+001
      vertex   3.101504e+001 1.998496e+001 2.970000e+001
    endloop
  endfacet
  facet normal -0.000000e+000 -0.000000e+000 1.000000e+000
    outer loop
      vertex   2.466025e+001 3.250000e+001 2.970000e+001
      vertex   2.472392e+001 2.934776e+001 2.970000e+001
      vertex   2.537276e+001 2.891421e+001 2.970000e+001
    endloop
  endfacet
  facet normal 0.000000e+000 0.000000e+000 1.000000e+000
    outer loop
      vertex   2.211079e+001 2.826537e+001 2.970000e+001
      vertex   1.895855e+001 2.679830e+001 2.970000e+001
      vertex   2.195855e+001 2.750000e+001 2.970000e+001
    endloop
  endfacet
  facet normal -0.000000e+000 0.000000e+000 1.000000e+000
    outer loop
      vertex   2.580631e+001 2.673463e+001 2.970000e+001
      vertex   2.537276e+001 2.608579e+001 2.970000e+001
      vertex   3.101504e+001 1.998496e+001 2.970000e+001
    endloop
  endfacet
  facet normal 0.000000e+000 0.000000e+000 1.000000e+000
    outer loop
      vertex   2.254433e+001 2.891421e+001 2.970000e+001
      vertex   1.895855e+001 2.679830e+001 2.970000e+001
      vertex   2.211079e+001 2.826537e+001 2.970000e+001
    endloop
  endfacet
  facet normal -0.000000e+000 0.000000e+000 1.000000e+000
    outer loop
      vertex   2.595855e+001 2.750000e+001 2.970000e+001
      vertex   2.580631e+001 2.673463e+001 2.970000e+001
      vertex   3.101504e+001 1.998496e+001 2.970000e+001
    endloop
  endfacet
  facet normal 0.000000e+000 0.000000e+000 1.000000e+000
    outer loop
      vertex   2.319318e+001 2.934776e+001 2.970000e+001
      vertex   1.895855e+001 2.679830e+001 2.970000e+001
      vertex   2.254433e+001 2.891421e+001 2.970000e+001
    endloop
  endfacet
  facet normal 7.071068e-001 -7.071068e-001 0.000000e+000
    outer loop
      vertex   2.180940e+001 2.964915e+001 3.000000e+001
      vertex   2.466025e+001 3.250000e+001 3.030000e+001
      vertex   1.895855e+001 2.679830e+001 3.030000e+001
    endloop
  endfacet
  facet normal 0.000000e+000 0.000000e+000 1.000000e+000
    outer loop
      vertex   2.119188e+001 3.026666e+001 3.030000e+001
      vertex   1.895855e+001 2.679830e+001 3.030000e+001
      vertex   2.466025e+001 3.250000e+001 3.030000e+001
    endloop
  endfacet
  facet normal 0.000000e+000 0.000000e+000 1.000000e+000
    outer loop
      vertex   2.119188e+001 3.026666e+001 3.030000e+001
      vertex   2.466025e+001 3.250000e+001 3.030000e+001
      vertex   2.395855e+001 3.250000e+001 3.030000e+001
    endloop
  endfacet
  facet normal 0.000000e+000 0.000000e+000 1.000000e+000
    outer loop
      vertex   2.119188e+001 3.026666e+001 3.030000e+001
      vertex   2.042301e+001 3.103553e+001 3.030000e+001
      vertex   1.933915e+001 2.941342e+001 3.030000e+001
    endloop
  endfacet
  facet normal -0.000000e+000 0.000000e+000 1.000000e+000
    outer loop
      vertex   2.119188e+001 3.026666e+001 3.030000e+001
      vertex   1.895855e+001 2.750000e+001 3.030000e+001
      vertex   1.895855e+001 2.679830e+001 3.030000e+001
    endloop
  endfacet
  facet normal -0.000000e+000 0.000000e+000 1.000000e+000
    outer loop
      vertex   2.119188e+001 3.026666e+001 3.030000e+001
      vertex   1.933915e+001 2.941342e+001 3.030000e+001
      vertex   1.895855e+001 2.750000e+001 3.030000e+001
    endloop
  endfacet
  facet normal 0.000000e+000 0.000000e+000 1.000000e+000
    outer loop
      vertex   2.119188e+001 3.026666e+001 3.030000e+001
      vertex   2.204513e+001 3.211940e+001 3.030000e+001
      vertex   2.042301e+001 3.103553e+001 3.030000e+001
    endloop
  endfacet
  facet normal 0.000000e+000 0.000000e+000 1.000000e+000
    outer loop
      vertex   2.119188e+001 3.026666e+001 3.030000e+001
      vertex   2.395855e+001 3.250000e+001 3.030000e+001
      vertex   2.204513e+001 3.211940e+001 3.030000e+001
    endloop
  endfacet
endsolid
