solid ascii
  facet normal 0.000000e+000 -1.950932e-001 -9.807848e-001
    outer loop
      vertex   3.257008e+001 1.061760e+002 8.761418e+001
      vertex   3.125769e+001 1.067500e+002 8.750000e+001
      vertex   3.375000e+001 1.067500e+002 8.750000e+001
    endloop
  endfacet
  facet normal -0.000000e+000 0.000000e+000 -1.000000e+000
    outer loop
      vertex   -7.424999e+001 1.332500e+002 8.750000e+001
      vertex   -7.255000e+001 1.312500e+002 8.750000e+001
      vertex   -7.424999e+001 1.100500e+002 8.750000e+001
    endloop
  endfacet
  facet normal 1.000000e+000 -0.000000e+000 0.000000e+000
    outer loop
      vertex   3.375000e+001 1.133881e+002 9.016590e+001
      vertex   3.375000e+001 1.118000e+002 8.985000e+001
      vertex   3.375000e+001 1.067500e+002 8.750000e+001
    endloop
  endfacet
  facet normal -0.000000e+000 0.000000e+000 -1.000000e+000
    outer loop
      vertex   -7.255000e+001 1.312500e+002 8.750000e+001
      vertex   -7.255000e+001 1.115500e+002 8.750000e+001
      vertex   -7.424999e+001 1.100500e+002 8.750000e+001
    endloop
  endfacet
  facet normal -3.674500e-005 9.743912e-001 2.248596e-001
    outer loop
      vertex   -7.245000e+001 1.100911e+002 9.382191e+001
      vertex   -7.235000e+001 1.086322e+002 1.001438e+002
      vertex   -7.235000e+001 1.115500e+002 8.750000e+001
    endloop
  endfacet
  facet normal 0.000000e+000 9.743910e-001 2.248602e-001
    outer loop
      vertex   -7.245000e+001 1.100911e+002 9.382191e+001
      vertex   -7.235000e+001 1.115500e+002 8.750000e+001
      vertex   -7.255000e+001 1.115500e+002 8.750000e+001
    endloop
  endfacet
  facet normal 3.675061e-005 9.743912e-001 2.248596e-001
    outer loop
      vertex   -7.245000e+001 1.100911e+002 9.382191e+001
      vertex   -7.255000e+001 1.115500e+002 8.750000e+001
      vertex   -7.255000e+001 1.086322e+002 1.001438e+002
    endloop
  endfacet
  facet normal 0.000000e+000 0.000000e+000 -1.000000e+000
    outer loop
      vertex   -7.155000e+001 1.109500e+002 8.750000e+001
      vertex   -7.175770e+001 1.100500e+002 8.750000e+001
      vertex   -7.235000e+001 1.115500e+002 8.750000e+001
    endloop
  endfacet
  facet normal 1.000000e+000 0.000000e+000 0.000000e+000
    outer loop
      vertex   -7.155000e+001 1.110474e+002 8.792194e+001
      vertex   -7.155000e+001 1.112421e+002 8.750000e+001
      vertex   -7.155000e+001 1.109500e+002 8.876583e+001
    endloop
  endfacet
  facet normal 1.000000e+000 0.000000e+000 0.000000e+000
    outer loop
      vertex   -7.155000e+001 1.110474e+002 8.792194e+001
      vertex   -7.155000e+001 1.109500e+002 8.876583e+001
      vertex   -7.155000e+001 1.109500e+002 8.750000e+001
    endloop
  endfacet
  facet normal 1.000000e+000 0.000000e+000 0.000000e+000
    outer loop
      vertex   -7.155000e+001 1.110474e+002 8.792194e+001
      vertex   -7.155000e+001 1.109500e+002 8.750000e+001
      vertex   -7.155000e+001 1.112421e+002 8.750000e+001
    endloop
  endfacet
  facet normal 1.000000e+000 0.000000e+000 0.000000e+000
    outer loop
      vertex   3.375000e+001 1.118000e+002 8.985000e+001
      vertex   3.375000e+001 1.102119e+002 9.016590e+001
      vertex   3.375000e+001 1.067500e+002 8.750000e+001
    endloop
  endfacet
  facet normal 0.000000e+000 -1.000000e+000 0.000000e+000
    outer loop
      vertex   -2.024999e+001 1.312500e+002 9.400000e+001
      vertex   -7.255000e+001 1.312500e+002 1.005000e+002
      vertex   -7.255000e+001 1.312500e+002 8.750000e+001
    endloop
  endfacet
  facet normal 0.000000e+000 -1.000000e+000 0.000000e+000
    outer loop
      vertex   -2.024999e+001 1.312500e+002 9.400000e+001
      vertex   -7.255000e+001 1.312500e+002 8.750000e+001
      vertex   3.205000e+001 1.312500e+002 8.750000e+001
    endloop
  endfacet
  facet normal 0.000000e+000 -1.000000e+000 0.000000e+000
    outer loop
      vertex   -2.024999e+001 1.312500e+002 9.400000e+001
      vertex   3.205000e+001 1.312500e+002 8.750000e+001
      vertex   3.205000e+001 1.312500e+002 1.005000e+002
    endloop
  endfacet
  facet normal -1.000000e+000 0.000000e+000 0.000000e+000
    outer loop
      vertex   -7.424999e+001 1.166881e+002 9.016590e+001
      vertex   -7.424999e+001 1.100500e+002 8.750000e+001
      vertex   -7.424999e+001 1.151000e+002 8.985000e+001
    endloop
  endfacet
  facet normal 1.000000e+000 0.000000e+000 0.000000e+000
    outer loop
      vertex   3.375000e+001 1.102119e+002 9.016590e+001
      vertex   3.375000e+001 1.088655e+002 9.106551e+001
      vertex   3.375000e+001 1.067500e+002 8.750000e+001
    endloop
  endfacet
  facet normal 1.000000e+000 -0.000000e+000 0.000000e+000
    outer loop
      vertex   3.375000e+001 1.088655e+002 9.106551e+001
      vertex   3.375000e+001 1.037500e+002 9.050000e+001
      vertex   3.375000e+001 1.067500e+002 8.750000e+001
    endloop
  endfacet
  facet normal 1.000000e+000 -0.000000e+000 0.000000e+000
    outer loop
      vertex   -7.255000e+001 1.312500e+002 1.005000e+002
      vertex   -7.255000e+001 1.178591e+002 1.005000e+002
      vertex   -7.255000e+001 1.312500e+002 8.750000e+001
    endloop
  endfacet
  facet normal 1.000000e+000 -0.000000e+000 -0.000000e+000
    outer loop
      vertex   3.375000e+001 1.037500e+002 9.050000e+001
      vertex   3.375000e+001 1.039784e+002 8.935195e+001
      vertex   3.375000e+001 1.067500e+002 8.750000e+001
    endloop
  endfacet
  facet normal 1.000000e+000 0.000000e+000 0.000000e+000
    outer loop
      vertex   3.375000e+001 1.067500e+002 8.750000e+001
      vertex   3.375000e+001 1.039784e+002 8.935195e+001
      vertex   3.375000e+001 1.056020e+002 8.772836e+001
    endloop
  endfacet
  facet normal -1.000000e+000 0.000000e+000 0.000000e+000
    outer loop
      vertex   -7.424999e+001 1.151000e+002 8.985000e+001
      vertex   -7.424999e+001 1.100500e+002 8.750000e+001
      vertex   -7.424999e+001 1.135119e+002 9.016590e+001
    endloop
  endfacet
  facet normal 0.000000e+000 -1.950907e-001 -9.807851e-001
    outer loop
      vertex   -7.307008e+001 1.094760e+002 8.761418e+001
      vertex   -7.424999e+001 1.100500e+002 8.750000e+001
      vertex   -7.175770e+001 1.100500e+002 8.750000e+001
    endloop
  endfacet
  facet normal 1.000000e+000 -0.000000e+000 0.000000e+000
    outer loop
      vertex   3.375000e+001 1.332500e+002 1.005000e+002
      vertex   3.375000e+001 1.145591e+002 1.005000e+002
      vertex   3.375000e+001 1.332500e+002 8.750000e+001
    endloop
  endfacet
  facet normal 1.000000e+000 0.000000e+000 0.000000e+000
    outer loop
      vertex   3.375000e+001 1.332500e+002 8.750000e+001
      vertex   3.375000e+001 1.133881e+002 9.016590e+001
      vertex   3.375000e+001 1.067500e+002 8.750000e+001
    endloop
  endfacet
  facet normal 0.000000e+000 -1.950907e-001 -9.807852e-001
    outer loop
      vertex   -7.307008e+001 1.094760e+002 8.761418e+001
      vertex   -7.424999e+001 1.089019e+002 8.772836e+001
      vertex   -7.424999e+001 1.100500e+002 8.750000e+001
    endloop
  endfacet
  facet normal 9.743936e-001 -2.248490e-001 3.758647e-007
    outer loop
      vertex   -7.210668e+001 1.085377e+002 9.232648e+001
      vertex   -7.202262e+001 1.089019e+002 8.772836e+001
      vertex   -7.175770e+001 1.100500e+002 8.750000e+001
    endloop
  endfacet
  facet normal 9.743885e-001 -2.248716e-001 -7.066213e-006
    outer loop
      vertex   -7.210668e+001 1.085377e+002 9.232648e+001
      vertex   -7.175770e+001 1.100500e+002 8.750000e+001
      vertex   -7.155000e+001 1.109500e+002 8.750000e+001
    endloop
  endfacet
  facet normal 9.743915e-001 -2.248582e-001 0.000000e+000
    outer loop
      vertex   -7.210668e+001 1.085377e+002 9.232648e+001
      vertex   -7.155000e+001 1.109500e+002 8.750000e+001
      vertex   -7.155000e+001 1.109500e+002 8.876583e+001
    endloop
  endfacet
  facet normal 1.000000e+000 0.000000e+000 0.000000e+000
    outer loop
      vertex   3.375000e+001 1.332500e+002 8.750000e+001
      vertex   3.375000e+001 1.147345e+002 9.106551e+001
      vertex   3.375000e+001 1.133881e+002 9.016590e+001
    endloop
  endfacet
  facet normal -3.511207e-001 9.123520e-001 2.105423e-001
    outer loop
      vertex   3.148084e+001 1.068845e+002 9.280136e+001
      vertex   3.105000e+001 1.079421e+002 8.750000e+001
      vertex   3.105000e+001 1.076500e+002 8.876583e+001
    endloop
  endfacet
  facet normal 1.000000e+000 0.000000e+000 0.000000e+000
    outer loop
      vertex   3.375000e+001 1.332500e+002 8.750000e+001
      vertex   3.375000e+001 1.156341e+002 9.241187e+001
      vertex   3.375000e+001 1.147345e+002 9.106551e+001
    endloop
  endfacet
  facet normal -1.000000e+000 0.000000e+000 0.000000e+000
    outer loop
      vertex   3.205000e+001 1.312500e+002 1.005000e+002
      vertex   3.205000e+001 1.312500e+002 8.750000e+001
      vertex   3.205000e+001 1.145591e+002 1.005000e+002
    endloop
  endfacet
  facet normal -3.511229e-001 9.123511e-001 2.105427e-001
    outer loop
      vertex   3.148084e+001 1.068845e+002 9.280136e+001
      vertex   3.185000e+001 1.053322e+002 1.001438e+002
      vertex   3.185000e+001 1.082500e+002 8.750000e+001
    endloop
  endfacet
  facet normal -3.511249e-001 9.123505e-001 2.105424e-001
    outer loop
      vertex   3.148084e+001 1.068845e+002 9.280136e+001
      vertex   3.185000e+001 1.082500e+002 8.750000e+001
      vertex   3.105000e+001 1.079421e+002 8.750000e+001
    endloop
  endfacet
  facet normal 1.000000e+000 0.000000e+000 0.000000e+000
    outer loop
      vertex   3.375000e+001 1.332500e+002 8.750000e+001
      vertex   3.375000e+001 1.159500e+002 9.400000e+001
      vertex   3.375000e+001 1.156341e+002 9.241187e+001
    endloop
  endfacet
  facet normal 6.365514e-007 -1.950918e-001 -9.807850e-001
    outer loop
      vertex   3.257008e+001 1.061760e+002 8.761418e+001
      vertex   3.152263e+001 1.056020e+002 8.772836e+001
      vertex   3.125769e+001 1.067500e+002 8.750000e+001
    endloop
  endfacet
  facet normal -1.000000e+000 0.000000e+000 0.000000e+000
    outer loop
      vertex   3.205000e+001 1.312500e+002 8.750000e+001
      vertex   3.205000e+001 1.082500e+002 8.750000e+001
      vertex   3.205000e+001 1.133881e+002 9.016590e+001
    endloop
  endfacet
  facet normal -3.674500e-005 9.743912e-001 2.248596e-001
    outer loop
      vertex   3.195000e+001 1.067911e+002 9.382191e+001
      vertex   3.185000e+001 1.082500e+002 8.750000e+001
      vertex   3.185000e+001 1.053322e+002 1.001438e+002
    endloop
  endfacet
  facet normal -1.000000e+000 0.000000e+000 0.000000e+000
    outer loop
      vertex   3.205000e+001 1.312500e+002 8.750000e+001
      vertex   3.205000e+001 1.133881e+002 9.016590e+001
      vertex   3.205000e+001 1.147345e+002 9.106551e+001
    endloop
  endfacet
  facet normal -1.000000e+000 0.000000e+000 0.000000e+000
    outer loop
      vertex   3.205000e+001 1.312500e+002 8.750000e+001
      vertex   3.205000e+001 1.147345e+002 9.106551e+001
      vertex   3.205000e+001 1.156341e+002 9.241187e+001
    endloop
  endfacet
  facet normal -1.000000e+000 0.000000e+000 0.000000e+000
    outer loop
      vertex   3.205000e+001 1.312500e+002 8.750000e+001
      vertex   3.205000e+001 1.156341e+002 9.241187e+001
      vertex   3.205000e+001 1.159500e+002 9.400000e+001
    endloop
  endfacet
  facet normal 1.000000e+000 0.000000e+000 0.000000e+000
    outer loop
      vertex   -7.255000e+001 1.312500e+002 8.750000e+001
      vertex   -7.255000e+001 1.166881e+002 9.016590e+001
      vertex   -7.255000e+001 1.115500e+002 8.750000e+001
    endloop
  endfacet
  facet normal -1.000000e+000 0.000000e+000 0.000000e+000
    outer loop
      vertex   3.105000e+001 1.077474e+002 8.792194e+001
      vertex   3.105000e+001 1.076500e+002 8.750000e+001
      vertex   3.105000e+001 1.076500e+002 8.876583e+001
    endloop
  endfacet
  facet normal -1.000000e+000 0.000000e+000 0.000000e+000
    outer loop
      vertex   3.105000e+001 1.077474e+002 8.792194e+001
      vertex   3.105000e+001 1.076500e+002 8.876583e+001
      vertex   3.105000e+001 1.079421e+002 8.750000e+001
    endloop
  endfacet
  facet normal -1.000000e+000 0.000000e+000 0.000000e+000
    outer loop
      vertex   3.105000e+001 1.077474e+002 8.792194e+001
      vertex   3.105000e+001 1.079421e+002 8.750000e+001
      vertex   3.105000e+001 1.076500e+002 8.750000e+001
    endloop
  endfacet
  facet normal 3.511230e-001 9.123510e-001 2.105427e-001
    outer loop
      vertex   -7.198084e+001 1.101845e+002 9.280136e+001
      vertex   -7.235000e+001 1.115500e+002 8.750000e+001
      vertex   -7.235000e+001 1.086322e+002 1.001438e+002
    endloop
  endfacet
  facet normal -1.000000e+000 0.000000e+000 0.000000e+000
    outer loop
      vertex   3.205000e+001 1.312500e+002 8.750000e+001
      vertex   3.205000e+001 1.159500e+002 9.400000e+001
      vertex   3.205000e+001 1.158437e+002 9.493317e+001
    endloop
  endfacet
  facet normal -6.257598e-007 -1.950920e-001 -9.807850e-001
    outer loop
      vertex   3.257008e+001 1.061760e+002 8.761418e+001
      vertex   3.375000e+001 1.067500e+002 8.750000e+001
      vertex   3.375000e+001 1.056020e+002 8.772836e+001
    endloop
  endfacet
  facet normal 3.511294e-001 9.123489e-001 2.105416e-001
    outer loop
      vertex   -7.198084e+001 1.101845e+002 9.280136e+001
      vertex   -7.155000e+001 1.109500e+002 8.876583e+001
      vertex   -7.155000e+001 1.112421e+002 8.750000e+001
    endloop
  endfacet
  facet normal 3.511296e-001 9.123488e-001 2.105416e-001
    outer loop
      vertex   -7.198084e+001 1.101845e+002 9.280136e+001
      vertex   -7.155000e+001 1.112421e+002 8.750000e+001
      vertex   -7.235000e+001 1.115500e+002 8.750000e+001
    endloop
  endfacet
  facet normal -1.000000e+000 0.000000e+000 0.000000e+000
    outer loop
      vertex   3.205000e+001 1.312500e+002 8.750000e+001
      vertex   3.205000e+001 1.158437e+002 9.493317e+001
      vertex   3.205000e+001 1.145591e+002 1.005000e+002
    endloop
  endfacet
  facet normal 1.000000e+000 0.000000e+000 0.000000e+000
    outer loop
      vertex   -7.255000e+001 1.312500e+002 8.750000e+001
      vertex   -7.255000e+001 1.180345e+002 9.106551e+001
      vertex   -7.255000e+001 1.166881e+002 9.016590e+001
    endloop
  endfacet
  facet normal -1.000000e+000 -0.000000e+000 -0.000000e+000
    outer loop
      vertex   3.205000e+001 1.053322e+002 1.001438e+002
      vertex   3.205000e+001 1.077563e+002 9.306683e+001
      vertex   3.205000e+001 1.082500e+002 8.750000e+001
    endloop
  endfacet
  facet normal -1.000000e+000 0.000000e+000 0.000000e+000
    outer loop
      vertex   3.205000e+001 1.133881e+002 9.016590e+001
      vertex   3.205000e+001 1.082500e+002 8.750000e+001
      vertex   3.205000e+001 1.118000e+002 8.985000e+001
    endloop
  endfacet
  facet normal 0.000000e+000 1.000000e+000 0.000000e+000
    outer loop
      vertex   -2.024999e+001 1.332500e+002 9.400000e+001
      vertex   3.375000e+001 1.332500e+002 8.750000e+001
      vertex   -7.424999e+001 1.332500e+002 8.750000e+001
    endloop
  endfacet
  facet normal 0.000000e+000 1.000000e+000 0.000000e+000
    outer loop
      vertex   -2.024999e+001 1.332500e+002 9.400000e+001
      vertex   -7.424999e+001 1.332500e+002 8.750000e+001
      vertex   -7.424999e+001 1.332500e+002 1.005000e+002
    endloop
  endfacet
  facet normal -1.000000e+000 0.000000e+000 0.000000e+000
    outer loop
      vertex   3.205000e+001 1.118000e+002 8.985000e+001
      vertex   3.205000e+001 1.082500e+002 8.750000e+001
      vertex   3.205000e+001 1.102119e+002 9.016590e+001
    endloop
  endfacet
  facet normal 0.000000e+000 1.000000e+000 0.000000e+000
    outer loop
      vertex   -2.024999e+001 1.332500e+002 9.400000e+001
      vertex   3.375000e+001 1.332500e+002 1.005000e+002
      vertex   3.375000e+001 1.332500e+002 8.750000e+001
    endloop
  endfacet
  facet normal -9.743916e-001 -2.248575e-001 -0.000000e+000
    outer loop
      vertex   3.160669e+001 1.052377e+002 9.232648e+001
      vertex   3.105000e+001 1.076500e+002 8.876583e+001
      vertex   3.105000e+001 1.076500e+002 8.750000e+001
    endloop
  endfacet
  facet normal -9.743924e-001 -2.248541e-001 1.791615e-006
    outer loop
      vertex   3.160669e+001 1.052377e+002 9.232648e+001
      vertex   3.105000e+001 1.076500e+002 8.750000e+001
      vertex   3.125769e+001 1.067500e+002 8.750000e+001
    endloop
  endfacet
  facet normal -9.743903e-001 -2.248630e-001 -1.168119e-006
    outer loop
      vertex   3.160669e+001 1.052377e+002 9.232648e+001
      vertex   3.125769e+001 1.067500e+002 8.750000e+001
      vertex   3.152263e+001 1.056020e+002 8.772836e+001
    endloop
  endfacet
  facet normal 1.000000e+000 0.000000e+000 0.000000e+000
    outer loop
      vertex   -7.255000e+001 1.086322e+002 1.001438e+002
      vertex   -7.255000e+001 1.115500e+002 8.750000e+001
      vertex   -7.255000e+001 1.110563e+002 9.306683e+001
    endloop
  endfacet
  facet normal 0.000000e+000 0.000000e+000 -1.000000e+000
    outer loop
      vertex   -7.235000e+001 1.115500e+002 8.750000e+001
      vertex   -7.175770e+001 1.100500e+002 8.750000e+001
      vertex   -7.255000e+001 1.115500e+002 8.750000e+001
    endloop
  endfacet
  facet normal -1.000000e+000 0.000000e+000 0.000000e+000
    outer loop
      vertex   -7.424999e+001 1.135119e+002 9.016590e+001
      vertex   -7.424999e+001 1.100500e+002 8.750000e+001
      vertex   -7.424999e+001 1.121655e+002 9.106551e+001
    endloop
  endfacet
  facet normal 1.000000e+000 -0.000000e+000 0.000000e+000
    outer loop
      vertex   -7.255000e+001 1.166881e+002 9.016590e+001
      vertex   -7.255000e+001 1.151000e+002 8.985000e+001
      vertex   -7.255000e+001 1.115500e+002 8.750000e+001
    endloop
  endfacet
  facet normal -1.000000e+000 -0.000000e+000 -0.000000e+000
    outer loop
      vertex   3.205000e+001 1.077563e+002 9.306683e+001
      vertex   3.205000e+001 1.079659e+002 9.241187e+001
      vertex   3.205000e+001 1.082500e+002 8.750000e+001
    endloop
  endfacet
  facet normal -1.000000e+000 -0.000000e+000 0.000000e+000
    outer loop
      vertex   3.205000e+001 1.079659e+002 9.241187e+001
      vertex   3.205000e+001 1.088655e+002 9.106551e+001
      vertex   3.205000e+001 1.082500e+002 8.750000e+001
    endloop
  endfacet
  facet normal -1.000000e+000 0.000000e+000 0.000000e+000
    outer loop
      vertex   3.205000e+001 1.102119e+002 9.016590e+001
      vertex   3.205000e+001 1.082500e+002 8.750000e+001
      vertex   3.205000e+001 1.088655e+002 9.106551e+001
    endloop
  endfacet
  facet normal 1.000000e+000 0.000000e+000 0.000000e+000
    outer loop
      vertex   -7.255000e+001 1.110563e+002 9.306683e+001
      vertex   -7.255000e+001 1.115500e+002 8.750000e+001
      vertex   -7.255000e+001 1.112659e+002 9.241187e+001
    endloop
  endfacet
  facet normal 3.674711e-005 9.743911e-001 2.248596e-001
    outer loop
      vertex   3.195000e+001 1.067911e+002 9.382191e+001
      vertex   3.205000e+001 1.053322e+002 1.001438e+002
      vertex   3.205000e+001 1.082500e+002 8.750000e+001
    endloop
  endfacet
  facet normal 0.000000e+000 9.743913e-001 2.248591e-001
    outer loop
      vertex   3.195000e+001 1.067911e+002 9.382191e+001
      vertex   3.205000e+001 1.082500e+002 8.750000e+001
      vertex   3.185000e+001 1.082500e+002 8.750000e+001
    endloop
  endfacet
  facet normal 1.000000e+000 0.000000e+000 -0.000000e+000
    outer loop
      vertex   -7.255000e+001 1.112659e+002 9.241187e+001
      vertex   -7.255000e+001 1.115500e+002 8.750000e+001
      vertex   -7.255000e+001 1.121655e+002 9.106551e+001
    endloop
  endfacet
  facet normal -1.000000e+000 0.000000e+000 0.000000e+000
    outer loop
      vertex   -7.424999e+001 1.332500e+002 1.005000e+002
      vertex   -7.424999e+001 1.332500e+002 8.750000e+001
      vertex   -7.424999e+001 1.178591e+002 1.005000e+002
    endloop
  endfacet
  facet normal -1.000000e+000 0.000000e+000 0.000000e+000
    outer loop
      vertex   -7.424999e+001 1.178591e+002 1.005000e+002
      vertex   -7.424999e+001 1.332500e+002 8.750000e+001
      vertex   -7.424999e+001 1.191437e+002 9.493317e+001
    endloop
  endfacet
  facet normal 0.000000e+000 -1.950907e-001 -9.807852e-001
    outer loop
      vertex   -7.307008e+001 1.094760e+002 8.761418e+001
      vertex   -7.175770e+001 1.100500e+002 8.750000e+001
      vertex   -7.202262e+001 1.089019e+002 8.772836e+001
    endloop
  endfacet
  facet normal 1.000000e+000 0.000000e+000 0.000000e+000
    outer loop
      vertex   3.375000e+001 1.332500e+002 8.750000e+001
      vertex   3.375000e+001 1.158437e+002 9.493317e+001
      vertex   3.375000e+001 1.159500e+002 9.400000e+001
    endloop
  endfacet
  facet normal 1.000000e+000 0.000000e+000 0.000000e+000
    outer loop
      vertex   3.375000e+001 1.332500e+002 8.750000e+001
      vertex   3.375000e+001 1.145591e+002 1.005000e+002
      vertex   3.375000e+001 1.158437e+002 9.493317e+001
    endloop
  endfacet
  facet normal 1.000000e+000 0.000000e+000 0.000000e+000
    outer loop
      vertex   -7.255000e+001 1.312500e+002 8.750000e+001
      vertex   -7.255000e+001 1.189341e+002 9.241187e+001
      vertex   -7.255000e+001 1.180345e+002 9.106551e+001
    endloop
  endfacet
  facet normal 1.000000e+000 0.000000e+000 0.000000e+000
    outer loop
      vertex   -7.255000e+001 1.312500e+002 8.750000e+001
      vertex   -7.255000e+001 1.192500e+002 9.400000e+001
      vertex   -7.255000e+001 1.189341e+002 9.241187e+001
    endloop
  endfacet
  facet normal 1.000000e+000 0.000000e+000 0.000000e+000
    outer loop
      vertex   -7.255000e+001 1.312500e+002 8.750000e+001
      vertex   -7.255000e+001 1.191437e+002 9.493317e+001
      vertex   -7.255000e+001 1.192500e+002 9.400000e+001
    endloop
  endfacet
  facet normal 1.000000e+000 0.000000e+000 0.000000e+000
    outer loop
      vertex   -7.255000e+001 1.312500e+002 8.750000e+001
      vertex   -7.255000e+001 1.178591e+002 1.005000e+002
      vertex   -7.255000e+001 1.191437e+002 9.493317e+001
    endloop
  endfacet
  facet normal -1.000000e+000 0.000000e+000 0.000000e+000
    outer loop
      vertex   -7.424999e+001 1.332500e+002 8.750000e+001
      vertex   -7.424999e+001 1.100500e+002 8.750000e+001
      vertex   -7.424999e+001 1.166881e+002 9.016590e+001
    endloop
  endfacet
  facet normal -1.000000e+000 0.000000e+000 0.000000e+000
    outer loop
      vertex   -7.424999e+001 1.332500e+002 8.750000e+001
      vertex   -7.424999e+001 1.166881e+002 9.016590e+001
      vertex   -7.424999e+001 1.180345e+002 9.106551e+001
    endloop
  endfacet
  facet normal 0.000000e+000 0.000000e+000 -1.000000e+000
    outer loop
      vertex   3.205000e+001 1.082500e+002 8.750000e+001
      vertex   3.125769e+001 1.067500e+002 8.750000e+001
      vertex   3.185000e+001 1.082500e+002 8.750000e+001
    endloop
  endfacet
  facet normal 0.000000e+000 0.000000e+000 -1.000000e+000
    outer loop
      vertex   3.375000e+001 1.067500e+002 8.750000e+001
      vertex   3.125769e+001 1.067500e+002 8.750000e+001
      vertex   3.205000e+001 1.082500e+002 8.750000e+001
    endloop
  endfacet
  facet normal 1.000000e+000 0.000000e+000 0.000000e+000
    outer loop
      vertex   -7.255000e+001 1.151000e+002 8.985000e+001
      vertex   -7.255000e+001 1.135119e+002 9.016590e+001
      vertex   -7.255000e+001 1.115500e+002 8.750000e+001
    endloop
  endfacet
  facet normal -1.000000e+000 0.000000e+000 0.000000e+000
    outer loop
      vertex   -7.424999e+001 1.121655e+002 9.106551e+001
      vertex   -7.424999e+001 1.100500e+002 8.750000e+001
      vertex   -7.424999e+001 1.070500e+002 9.050000e+001
    endloop
  endfacet
  facet normal 1.000000e+000 0.000000e+000 0.000000e+000
    outer loop
      vertex   -7.255000e+001 1.135119e+002 9.016590e+001
      vertex   -7.255000e+001 1.121655e+002 9.106551e+001
      vertex   -7.255000e+001 1.115500e+002 8.750000e+001
    endloop
  endfacet
  facet normal 0.000000e+000 0.000000e+000 -1.000000e+000
    outer loop
      vertex   3.185000e+001 1.082500e+002 8.750000e+001
      vertex   3.125769e+001 1.067500e+002 8.750000e+001
      vertex   3.105000e+001 1.079421e+002 8.750000e+001
    endloop
  endfacet
  facet normal 0.000000e+000 0.000000e+000 -1.000000e+000
    outer loop
      vertex   3.375000e+001 1.332500e+002 8.750000e+001
      vertex   3.205000e+001 1.312500e+002 8.750000e+001
      vertex   -7.424999e+001 1.332500e+002 8.750000e+001
    endloop
  endfacet
  facet normal 0.000000e+000 0.000000e+000 -1.000000e+000
    outer loop
      vertex   3.375000e+001 1.332500e+002 8.750000e+001
      vertex   3.375000e+001 1.067500e+002 8.750000e+001
      vertex   3.205000e+001 1.312500e+002 8.750000e+001
    endloop
  endfacet
  facet normal 0.000000e+000 0.000000e+000 -1.000000e+000
    outer loop
      vertex   3.205000e+001 1.312500e+002 8.750000e+001
      vertex   3.375000e+001 1.067500e+002 8.750000e+001
      vertex   3.205000e+001 1.082500e+002 8.750000e+001
    endloop
  endfacet
  facet normal 0.000000e+000 0.000000e+000 -1.000000e+000
    outer loop
      vertex   3.205000e+001 1.312500e+002 8.750000e+001
      vertex   -7.255000e+001 1.312500e+002 8.750000e+001
      vertex   -7.424999e+001 1.332500e+002 8.750000e+001
    endloop
  endfacet
  facet normal -1.000000e+000 0.000000e+000 0.000000e+000
    outer loop
      vertex   -7.424999e+001 1.332500e+002 8.750000e+001
      vertex   -7.424999e+001 1.192500e+002 9.400000e+001
      vertex   -7.424999e+001 1.191437e+002 9.493317e+001
    endloop
  endfacet
  facet normal -1.000000e+000 0.000000e+000 0.000000e+000
    outer loop
      vertex   -7.424999e+001 1.100500e+002 8.750000e+001
      vertex   -7.424999e+001 1.089019e+002 8.772836e+001
      vertex   -7.424999e+001 1.072784e+002 8.935195e+001
    endloop
  endfacet
  facet normal 0.000000e+000 0.000000e+000 -1.000000e+000
    outer loop
      vertex   3.105000e+001 1.079421e+002 8.750000e+001
      vertex   3.125769e+001 1.067500e+002 8.750000e+001
      vertex   3.105000e+001 1.076500e+002 8.750000e+001
    endloop
  endfacet
  facet normal 0.000000e+000 0.000000e+000 -1.000000e+000
    outer loop
      vertex   -7.255000e+001 1.115500e+002 8.750000e+001
      vertex   -7.175770e+001 1.100500e+002 8.750000e+001
      vertex   -7.424999e+001 1.100500e+002 8.750000e+001
    endloop
  endfacet
  facet normal -1.000000e+000 0.000000e+000 0.000000e+000
    outer loop
      vertex   -7.424999e+001 1.332500e+002 8.750000e+001
      vertex   -7.424999e+001 1.180345e+002 9.106551e+001
      vertex   -7.424999e+001 1.189341e+002 9.241187e+001
    endloop
  endfacet
  facet normal 0.000000e+000 0.000000e+000 -1.000000e+000
    outer loop
      vertex   -7.155000e+001 1.112421e+002 8.750000e+001
      vertex   -7.155000e+001 1.109500e+002 8.750000e+001
      vertex   -7.235000e+001 1.115500e+002 8.750000e+001
    endloop
  endfacet
  facet normal -1.000000e+000 0.000000e+000 0.000000e+000
    outer loop
      vertex   -7.424999e+001 1.070500e+002 9.050000e+001
      vertex   -7.424999e+001 1.100500e+002 8.750000e+001
      vertex   -7.424999e+001 1.072784e+002 8.935195e+001
    endloop
  endfacet
  facet normal -1.000000e+000 0.000000e+000 0.000000e+000
    outer loop
      vertex   -7.424999e+001 1.332500e+002 8.750000e+001
      vertex   -7.424999e+001 1.189341e+002 9.241187e+001
      vertex   -7.424999e+001 1.192500e+002 9.400000e+001
    endloop
  endfacet
  facet normal -0.000000e+000 -1.950907e-001 -9.807852e-001
    outer loop
      vertex   -7.307008e+001 1.094760e+002 8.761418e+001
      vertex   -7.202262e+001 1.089019e+002 8.772836e+001
      vertex   -7.424999e+001 1.089019e+002 8.772836e+001
    endloop
  endfacet
  facet normal -0.000000e+000 -1.950907e-001 -9.807852e-001
    outer loop
      vertex   3.257008e+001 1.061760e+002 8.761418e+001
      vertex   3.375000e+001 1.056020e+002 8.772836e+001
      vertex   3.152263e+001 1.056020e+002 8.772836e+001
    endloop
  endfacet
  facet normal 9.743890e-001 -2.248693e-001 -1.312076e-006
    outer loop
      vertex   -7.210668e+001 1.085377e+002 9.232648e+001
      vertex   -7.224723e+001 1.079287e+002 8.837868e+001
      vertex   -7.202262e+001 1.089019e+002 8.772836e+001
    endloop
  endfacet
  facet normal -9.743910e-001 -2.248601e-001 -9.198188e-007
    outer loop
      vertex   3.160669e+001 1.052377e+002 9.232648e+001
      vertex   3.152263e+001 1.056020e+002 8.772836e+001
      vertex   3.174723e+001 1.046287e+002 8.837868e+001
    endloop
  endfacet
  facet normal 1.000000e+000 -0.000000e+000 -0.000000e+000
    outer loop
      vertex   3.375000e+001 1.039784e+002 8.935195e+001
      vertex   3.375000e+001 1.046287e+002 8.837868e+001
      vertex   3.375000e+001 1.056020e+002 8.772836e+001
    endloop
  endfacet
  facet normal 2.022311e-006 -5.555663e-001 -8.314723e-001
    outer loop
      vertex   3.269247e+001 1.051153e+002 8.805352e+001
      vertex   3.375000e+001 1.056020e+002 8.772836e+001
      vertex   3.375000e+001 1.046287e+002 8.837868e+001
    endloop
  endfacet
  facet normal 0.000000e+000 -5.555692e-001 -8.314703e-001
    outer loop
      vertex   -7.319247e+001 1.084153e+002 8.805352e+001
      vertex   -7.424999e+001 1.079287e+002 8.837868e+001
      vertex   -7.424999e+001 1.089019e+002 8.772836e+001
    endloop
  endfacet
  facet normal 0.000000e+000 -5.555693e-001 -8.314703e-001
    outer loop
      vertex   -7.319247e+001 1.084153e+002 8.805352e+001
      vertex   -7.424999e+001 1.089019e+002 8.772836e+001
      vertex   -7.202262e+001 1.089019e+002 8.772836e+001
    endloop
  endfacet
  facet normal -1.000000e+000 0.000000e+000 0.000000e+000
    outer loop
      vertex   -7.424999e+001 1.072784e+002 8.935195e+001
      vertex   -7.424999e+001 1.089019e+002 8.772836e+001
      vertex   -7.424999e+001 1.079287e+002 8.837868e+001
    endloop
  endfacet
  facet normal 0.000000e+000 -5.555633e-001 -8.314743e-001
    outer loop
      vertex   3.269247e+001 1.051153e+002 8.805352e+001
      vertex   3.152263e+001 1.056020e+002 8.772836e+001
      vertex   3.375000e+001 1.056020e+002 8.772836e+001
    endloop
  endfacet
  facet normal -1.998226e-006 -5.555665e-001 -8.314720e-001
    outer loop
      vertex   3.269247e+001 1.051153e+002 8.805352e+001
      vertex   3.174723e+001 1.046287e+002 8.837868e+001
      vertex   3.152263e+001 1.056020e+002 8.772836e+001
    endloop
  endfacet
  facet normal 0.000000e+000 -5.555693e-001 -8.314703e-001
    outer loop
      vertex   -7.319247e+001 1.084153e+002 8.805352e+001
      vertex   -7.202262e+001 1.089019e+002 8.772836e+001
      vertex   -7.224723e+001 1.079287e+002 8.837868e+001
    endloop
  endfacet
  facet normal -0.000000e+000 -5.555693e-001 -8.314703e-001
    outer loop
      vertex   3.269247e+001 1.051153e+002 8.805352e+001
      vertex   3.375000e+001 1.046287e+002 8.837868e+001
      vertex   3.174723e+001 1.046287e+002 8.837868e+001
    endloop
  endfacet
  facet normal -0.000000e+000 -5.555693e-001 -8.314703e-001
    outer loop
      vertex   -7.319247e+001 1.084153e+002 8.805352e+001
      vertex   -7.224723e+001 1.079287e+002 8.837868e+001
      vertex   -7.424999e+001 1.079287e+002 8.837868e+001
    endloop
  endfacet
  facet normal -2.218828e-006 -8.314724e-001 -5.555660e-001
    outer loop
      vertex   3.278613e+001 1.043035e+002 8.886531e+001
      vertex   3.189730e+001 1.039784e+002 8.935195e+001
      vertex   3.174723e+001 1.046287e+002 8.837868e+001
    endloop
  endfacet
  facet normal 0.000000e+000 -8.314703e-001 -5.555693e-001
    outer loop
      vertex   3.278613e+001 1.043035e+002 8.886531e+001
      vertex   3.174723e+001 1.046287e+002 8.837868e+001
      vertex   3.375000e+001 1.046287e+002 8.837868e+001
    endloop
  endfacet
  facet normal 9.743911e-001 -2.248602e-001 -2.793607e-006
    outer loop
      vertex   -7.210668e+001 1.085377e+002 9.232648e+001
      vertex   -7.239730e+001 1.072784e+002 8.935195e+001
      vertex   -7.224723e+001 1.079287e+002 8.837868e+001
    endloop
  endfacet
  facet normal 2.192419e-006 -8.314722e-001 -5.555663e-001
    outer loop
      vertex   3.278613e+001 1.043035e+002 8.886531e+001
      vertex   3.375000e+001 1.046287e+002 8.837868e+001
      vertex   3.375000e+001 1.039784e+002 8.935195e+001
    endloop
  endfacet
  facet normal -9.743915e-001 -2.248580e-001 -1.265854e-006
    outer loop
      vertex   3.160669e+001 1.052377e+002 9.232648e+001
      vertex   3.174723e+001 1.046287e+002 8.837868e+001
      vertex   3.189730e+001 1.039784e+002 8.935195e+001
    endloop
  endfacet
  facet normal 0.000000e+000 -8.314703e-001 -5.555693e-001
    outer loop
      vertex   -7.328613e+001 1.076035e+002 8.886531e+001
      vertex   -7.424999e+001 1.079287e+002 8.837868e+001
      vertex   -7.224723e+001 1.079287e+002 8.837868e+001
    endloop
  endfacet
  facet normal -2.218834e-006 -8.314722e-001 -5.555663e-001
    outer loop
      vertex   -7.328613e+001 1.076035e+002 8.886531e+001
      vertex   -7.424999e+001 1.072784e+002 8.935195e+001
      vertex   -7.424999e+001 1.079287e+002 8.837868e+001
    endloop
  endfacet
  facet normal 2.192435e-006 -8.314724e-001 -5.555660e-001
    outer loop
      vertex   -7.328613e+001 1.076035e+002 8.886531e+001
      vertex   -7.224723e+001 1.079287e+002 8.837868e+001
      vertex   -7.239730e+001 1.072784e+002 8.935195e+001
    endloop
  endfacet
  facet normal -9.743920e-001 -2.248561e-001 9.517984e-007
    outer loop
      vertex   3.160669e+001 1.052377e+002 9.232648e+001
      vertex   3.160422e+001 1.052484e+002 1.000971e+002
      vertex   3.105000e+001 1.076500e+002 8.876583e+001
    endloop
  endfacet
  facet normal 3.511410e-001 9.123443e-001 2.105420e-001
    outer loop
      vertex   -7.198084e+001 1.101845e+002 9.280136e+001
      vertex   -7.210423e+001 1.085484e+002 1.000971e+002
      vertex   -7.155000e+001 1.109500e+002 8.876583e+001
    endloop
  endfacet
  facet normal -3.511219e-001 9.123515e-001 2.105424e-001
    outer loop
      vertex   3.148084e+001 1.068845e+002 9.280136e+001
      vertex   3.105000e+001 1.076500e+002 8.876583e+001
      vertex   3.160422e+001 1.052484e+002 1.000971e+002
    endloop
  endfacet
  facet normal 9.743921e-001 -2.248558e-001 1.688229e-006
    outer loop
      vertex   -7.210668e+001 1.085377e+002 9.232648e+001
      vertex   -7.155000e+001 1.109500e+002 8.876583e+001
      vertex   -7.210423e+001 1.085484e+002 1.000971e+002
    endloop
  endfacet
  facet normal -0.000000e+000 -8.314743e-001 -5.555633e-001
    outer loop
      vertex   -7.328613e+001 1.076035e+002 8.886531e+001
      vertex   -7.239730e+001 1.072784e+002 8.935195e+001
      vertex   -7.424999e+001 1.072784e+002 8.935195e+001
    endloop
  endfacet
  facet normal -0.000000e+000 -8.314743e-001 -5.555633e-001
    outer loop
      vertex   3.278613e+001 1.043035e+002 8.886531e+001
      vertex   3.375000e+001 1.039784e+002 8.935195e+001
      vertex   3.189730e+001 1.039784e+002 8.935195e+001
    endloop
  endfacet
  facet normal 0.000000e+000 -9.807848e-001 -1.950932e-001
    outer loop
      vertex   3.283683e+001 1.038642e+002 8.992597e+001
      vertex   3.189730e+001 1.039784e+002 8.935195e+001
      vertex   3.375000e+001 1.039784e+002 8.935195e+001
    endloop
  endfacet
  facet normal 8.085561e-007 -9.807850e-001 -1.950920e-001
    outer loop
      vertex   3.283683e+001 1.038642e+002 8.992597e+001
      vertex   3.375000e+001 1.039784e+002 8.935195e+001
      vertex   3.375000e+001 1.037500e+002 9.050000e+001
    endloop
  endfacet
  facet normal -8.224898e-007 -9.807850e-001 -1.950920e-001
    outer loop
      vertex   -7.333681e+001 1.071642e+002 8.992597e+001
      vertex   -7.424999e+001 1.070500e+002 9.050000e+001
      vertex   -7.424999e+001 1.072784e+002 8.935195e+001
    endloop
  endfacet
  facet normal -8.224879e-007 -9.807850e-001 -1.950919e-001
    outer loop
      vertex   3.283683e+001 1.038642e+002 8.992597e+001
      vertex   3.195000e+001 1.037500e+002 9.050000e+001
      vertex   3.189730e+001 1.039784e+002 8.935195e+001
    endloop
  endfacet
  facet normal 0.000000e+000 -9.807847e-001 -1.950932e-001
    outer loop
      vertex   -7.333681e+001 1.071642e+002 8.992597e+001
      vertex   -7.424999e+001 1.072784e+002 8.935195e+001
      vertex   -7.239730e+001 1.072784e+002 8.935195e+001
    endloop
  endfacet
  facet normal 9.743887e-001 -2.248703e-001 1.725245e-006
    outer loop
      vertex   -7.210668e+001 1.085377e+002 9.232648e+001
      vertex   -7.245000e+001 1.070500e+002 9.050000e+001
      vertex   -7.239730e+001 1.072784e+002 8.935195e+001
    endloop
  endfacet
  facet normal 8.085627e-007 -9.807850e-001 -1.950919e-001
    outer loop
      vertex   -7.333681e+001 1.071642e+002 8.992597e+001
      vertex   -7.239730e+001 1.072784e+002 8.935195e+001
      vertex   -7.245000e+001 1.070500e+002 9.050000e+001
    endloop
  endfacet
  facet normal -9.743897e-001 -2.248665e-001 2.528084e-006
    outer loop
      vertex   3.160669e+001 1.052377e+002 9.232648e+001
      vertex   3.189730e+001 1.039784e+002 8.935195e+001
      vertex   3.195000e+001 1.037500e+002 9.050000e+001
    endloop
  endfacet
  facet normal 0.000000e+000 1.950922e-001 9.807850e-001
    outer loop
      vertex   -7.339999e+001 1.143059e+002 9.000795e+001
      vertex   -7.255000e+001 1.135119e+002 9.016590e+001
      vertex   -7.255000e+001 1.151000e+002 8.985000e+001
    endloop
  endfacet
  facet normal -8.661244e-007 -1.950913e-001 9.807851e-001
    outer loop
      vertex   -7.339999e+001 1.158941e+002 9.000795e+001
      vertex   -7.255000e+001 1.151000e+002 8.985000e+001
      vertex   -7.255000e+001 1.166881e+002 9.016590e+001
    endloop
  endfacet
  facet normal 0.000000e+000 1.950921e-001 9.807850e-001
    outer loop
      vertex   -7.339999e+001 1.143059e+002 9.000795e+001
      vertex   -7.255000e+001 1.151000e+002 8.985000e+001
      vertex   -7.424999e+001 1.151000e+002 8.985000e+001
    endloop
  endfacet
  facet normal 0.000000e+000 1.950921e-001 9.807850e-001
    outer loop
      vertex   -7.339999e+001 1.143059e+002 9.000795e+001
      vertex   -7.424999e+001 1.151000e+002 8.985000e+001
      vertex   -7.424999e+001 1.135119e+002 9.016590e+001
    endloop
  endfacet
  facet normal 0.000000e+000 1.950921e-001 9.807850e-001
    outer loop
      vertex   3.290000e+001 1.110059e+002 9.000795e+001
      vertex   3.205000e+001 1.118000e+002 8.985000e+001
      vertex   3.205000e+001 1.102119e+002 9.016590e+001
    endloop
  endfacet
  facet normal 8.877616e-007 -1.950912e-001 9.807851e-001
    outer loop
      vertex   -7.339999e+001 1.158941e+002 9.000795e+001
      vertex   -7.424999e+001 1.166881e+002 9.016590e+001
      vertex   -7.424999e+001 1.151000e+002 8.985000e+001
    endloop
  endfacet
  facet normal 0.000000e+000 1.950921e-001 9.807850e-001
    outer loop
      vertex   3.290000e+001 1.110059e+002 9.000795e+001
      vertex   3.375000e+001 1.102119e+002 9.016590e+001
      vertex   3.375000e+001 1.118000e+002 8.985000e+001
    endloop
  endfacet
  facet normal 0.000000e+000 -1.950903e-001 9.807853e-001
    outer loop
      vertex   -7.339999e+001 1.158941e+002 9.000795e+001
      vertex   -7.424999e+001 1.151000e+002 8.985000e+001
      vertex   -7.255000e+001 1.151000e+002 8.985000e+001
    endloop
  endfacet
  facet normal 0.000000e+000 -1.950921e-001 9.807850e-001
    outer loop
      vertex   3.290000e+001 1.125941e+002 9.000795e+001
      vertex   3.205000e+001 1.133881e+002 9.016590e+001
      vertex   3.205000e+001 1.118000e+002 8.985000e+001
    endloop
  endfacet
  facet normal 0.000000e+000 1.950921e-001 9.807850e-001
    outer loop
      vertex   3.290000e+001 1.110059e+002 9.000795e+001
      vertex   3.375000e+001 1.118000e+002 8.985000e+001
      vertex   3.205000e+001 1.118000e+002 8.985000e+001
    endloop
  endfacet
  facet normal 0.000000e+000 -1.950921e-001 9.807850e-001
    outer loop
      vertex   3.290000e+001 1.125941e+002 9.000795e+001
      vertex   3.375000e+001 1.118000e+002 8.985000e+001
      vertex   3.375000e+001 1.133881e+002 9.016590e+001
    endloop
  endfacet
  facet normal 0.000000e+000 -1.950921e-001 9.807850e-001
    outer loop
      vertex   3.290000e+001 1.125941e+002 9.000795e+001
      vertex   3.205000e+001 1.118000e+002 8.985000e+001
      vertex   3.375000e+001 1.118000e+002 8.985000e+001
    endloop
  endfacet
  facet normal -0.000000e+000 -9.807853e-001 -1.950907e-001
    outer loop
      vertex   -7.333681e+001 1.071642e+002 8.992597e+001
      vertex   -7.245000e+001 1.070500e+002 9.050000e+001
      vertex   -7.424999e+001 1.070500e+002 9.050000e+001
    endloop
  endfacet
  facet normal -0.000000e+000 -9.807851e-001 -1.950907e-001
    outer loop
      vertex   3.283683e+001 1.038642e+002 8.992597e+001
      vertex   3.375000e+001 1.037500e+002 9.050000e+001
      vertex   3.195000e+001 1.037500e+002 9.050000e+001
    endloop
  endfacet
  facet normal 0.000000e+000 -1.950921e-001 9.807850e-001
    outer loop
      vertex   3.290000e+001 1.125941e+002 9.000795e+001
      vertex   3.375000e+001 1.133881e+002 9.016590e+001
      vertex   3.205000e+001 1.133881e+002 9.016590e+001
    endloop
  endfacet
  facet normal 0.000000e+000 -1.950921e-001 9.807850e-001
    outer loop
      vertex   -7.339999e+001 1.158941e+002 9.000795e+001
      vertex   -7.255000e+001 1.166881e+002 9.016590e+001
      vertex   -7.424999e+001 1.166881e+002 9.016590e+001
    endloop
  endfacet
  facet normal -0.000000e+000 1.950921e-001 9.807850e-001
    outer loop
      vertex   3.290000e+001 1.110059e+002 9.000795e+001
      vertex   3.205000e+001 1.102119e+002 9.016590e+001
      vertex   3.375000e+001 1.102119e+002 9.016590e+001
    endloop
  endfacet
  facet normal -0.000000e+000 1.950921e-001 9.807850e-001
    outer loop
      vertex   -7.339999e+001 1.143059e+002 9.000795e+001
      vertex   -7.424999e+001 1.135119e+002 9.016590e+001
      vertex   -7.255000e+001 1.135119e+002 9.016590e+001
    endloop
  endfacet
  facet normal -8.747809e-006 -5.555686e-001 8.314707e-001
    outer loop
      vertex   3.290000e+001 1.140613e+002 9.061571e+001
      vertex   3.205000e+001 1.147345e+002 9.106551e+001
      vertex   3.205000e+001 1.133881e+002 9.016590e+001
    endloop
  endfacet
  facet normal 0.000000e+000 5.555676e-001 8.314714e-001
    outer loop
      vertex   3.290000e+001 1.095387e+002 9.061571e+001
      vertex   3.375000e+001 1.102119e+002 9.016590e+001
      vertex   3.205000e+001 1.102119e+002 9.016590e+001
    endloop
  endfacet
  facet normal -1.255874e-006 5.555686e-001 8.314707e-001
    outer loop
      vertex   3.290000e+001 1.095387e+002 9.061571e+001
      vertex   3.375000e+001 1.088655e+002 9.106551e+001
      vertex   3.375000e+001 1.102119e+002 9.016590e+001
    endloop
  endfacet
  facet normal 0.000000e+000 -5.555763e-001 8.314655e-001
    outer loop
      vertex   -7.339999e+001 1.173613e+002 9.061571e+001
      vertex   -7.424999e+001 1.166881e+002 9.016590e+001
      vertex   -7.255000e+001 1.166881e+002 9.016590e+001
    endloop
  endfacet
  facet normal 1.255874e-006 5.555686e-001 8.314707e-001
    outer loop
      vertex   3.290000e+001 1.095387e+002 9.061571e+001
      vertex   3.205000e+001 1.102119e+002 9.016590e+001
      vertex   3.205000e+001 1.088655e+002 9.106551e+001
    endloop
  endfacet
  facet normal 0.000000e+000 -5.555763e-001 8.314655e-001
    outer loop
      vertex   3.290000e+001 1.140613e+002 9.061571e+001
      vertex   3.205000e+001 1.133881e+002 9.016590e+001
      vertex   3.375000e+001 1.133881e+002 9.016590e+001
    endloop
  endfacet
  facet normal 8.747809e-006 -5.555686e-001 8.314707e-001
    outer loop
      vertex   3.290000e+001 1.140613e+002 9.061571e+001
      vertex   3.375000e+001 1.133881e+002 9.016590e+001
      vertex   3.375000e+001 1.147345e+002 9.106551e+001
    endloop
  endfacet
  facet normal 3.767654e-006 5.555686e-001 8.314707e-001
    outer loop
      vertex   -7.339999e+001 1.128387e+002 9.061571e+001
      vertex   -7.255000e+001 1.121655e+002 9.106551e+001
      vertex   -7.255000e+001 1.135119e+002 9.016590e+001
    endloop
  endfacet
  facet normal 0.000000e+000 5.555719e-001 8.314685e-001
    outer loop
      vertex   -7.339999e+001 1.128387e+002 9.061571e+001
      vertex   -7.255000e+001 1.135119e+002 9.016590e+001
      vertex   -7.424999e+001 1.135119e+002 9.016590e+001
    endloop
  endfacet
  facet normal -3.724281e-006 5.555686e-001 8.314707e-001
    outer loop
      vertex   -7.339999e+001 1.128387e+002 9.061571e+001
      vertex   -7.424999e+001 1.135119e+002 9.016590e+001
      vertex   -7.424999e+001 1.121655e+002 9.106551e+001
    endloop
  endfacet
  facet normal -6.236030e-006 -5.555708e-001 8.314692e-001
    outer loop
      vertex   -7.339999e+001 1.173613e+002 9.061571e+001
      vertex   -7.424999e+001 1.180345e+002 9.106551e+001
      vertex   -7.424999e+001 1.166881e+002 9.016590e+001
    endloop
  endfacet
  facet normal 6.236142e-006 -5.555708e-001 8.314692e-001
    outer loop
      vertex   -7.339999e+001 1.173613e+002 9.061571e+001
      vertex   -7.255000e+001 1.166881e+002 9.016590e+001
      vertex   -7.255000e+001 1.180345e+002 9.106551e+001
    endloop
  endfacet
  facet normal -1.000000e+000 -0.000000e+000 0.000000e+000
    outer loop
      vertex   -7.424999e+001 1.112659e+002 9.241187e+001
      vertex   -7.424999e+001 1.121655e+002 9.106551e+001
      vertex   -7.424999e+001 1.070500e+002 9.050000e+001
    endloop
  endfacet
  facet normal 0.000000e+000 -1.000000e+000 0.000000e+000
    outer loop
      vertex   -7.335000e+001 1.070500e+002 9.400000e+001
      vertex   -7.424999e+001 1.070500e+002 9.050000e+001
      vertex   -7.245000e+001 1.070500e+002 9.050000e+001
    endloop
  endfacet
  facet normal -9.743903e-001 -2.248635e-001 0.000000e+000
    outer loop
      vertex   3.160669e+001 1.052377e+002 9.232648e+001
      vertex   3.195000e+001 1.037500e+002 9.050000e+001
      vertex   3.195000e+001 1.037500e+002 9.750000e+001
    endloop
  endfacet
  facet normal -1.000000e+000 -0.000000e+000 0.000000e+000
    outer loop
      vertex   -7.424999e+001 1.110563e+002 9.306683e+001
      vertex   -7.424999e+001 1.112659e+002 9.241187e+001
      vertex   -7.424999e+001 1.070500e+002 9.050000e+001
    endloop
  endfacet
  facet normal 9.743892e-001 -2.248683e-001 0.000000e+000
    outer loop
      vertex   -7.210668e+001 1.085377e+002 9.232648e+001
      vertex   -7.245000e+001 1.070500e+002 9.750000e+001
      vertex   -7.245000e+001 1.070500e+002 9.050000e+001
    endloop
  endfacet
  facet normal 0.000000e+000 -1.000000e+000 0.000000e+000
    outer loop
      vertex   -7.335000e+001 1.070500e+002 9.400000e+001
      vertex   -7.245000e+001 1.070500e+002 9.050000e+001
      vertex   -7.245000e+001 1.070500e+002 9.750000e+001
    endloop
  endfacet
  facet normal 0.000000e+000 -1.000000e+000 0.000000e+000
    outer loop
      vertex   -7.335000e+001 1.070500e+002 9.400000e+001
      vertex   -7.424999e+001 1.070500e+002 9.750000e+001
      vertex   -7.424999e+001 1.070500e+002 9.050000e+001
    endloop
  endfacet
  facet normal -1.000000e+000 -0.000000e+000 0.000000e+000
    outer loop
      vertex   -7.424999e+001 1.070500e+002 9.750000e+001
      vertex   -7.424999e+001 1.110563e+002 9.306683e+001
      vertex   -7.424999e+001 1.070500e+002 9.050000e+001
    endloop
  endfacet
  facet normal 1.000000e+000 0.000000e+000 0.000000e+000
    outer loop
      vertex   3.375000e+001 1.037500e+002 9.750000e+001
      vertex   3.375000e+001 1.037500e+002 9.050000e+001
      vertex   3.375000e+001 1.077563e+002 9.306683e+001
    endloop
  endfacet
  facet normal 0.000000e+000 -1.000000e+000 0.000000e+000
    outer loop
      vertex   3.285000e+001 1.037500e+002 9.400000e+001
      vertex   3.195000e+001 1.037500e+002 9.750000e+001
      vertex   3.195000e+001 1.037500e+002 9.050000e+001
    endloop
  endfacet
  facet normal 1.000000e+000 0.000000e+000 0.000000e+000
    outer loop
      vertex   3.375000e+001 1.077563e+002 9.306683e+001
      vertex   3.375000e+001 1.037500e+002 9.050000e+001
      vertex   3.375000e+001 1.079659e+002 9.241187e+001
    endloop
  endfacet
  facet normal 1.000000e+000 0.000000e+000 0.000000e+000
    outer loop
      vertex   3.375000e+001 1.079659e+002 9.241187e+001
      vertex   3.375000e+001 1.037500e+002 9.050000e+001
      vertex   3.375000e+001 1.088655e+002 9.106551e+001
    endloop
  endfacet
  facet normal 0.000000e+000 -1.000000e+000 0.000000e+000
    outer loop
      vertex   3.285000e+001 1.037500e+002 9.400000e+001
      vertex   3.195000e+001 1.037500e+002 9.050000e+001
      vertex   3.375000e+001 1.037500e+002 9.050000e+001
    endloop
  endfacet
  facet normal 0.000000e+000 -1.000000e+000 0.000000e+000
    outer loop
      vertex   3.285000e+001 1.037500e+002 9.400000e+001
      vertex   3.375000e+001 1.037500e+002 9.050000e+001
      vertex   3.375000e+001 1.037500e+002 9.750000e+001
    endloop
  endfacet
  facet normal -0.000000e+000 5.555654e-001 8.314729e-001
    outer loop
      vertex   -7.339999e+001 1.128387e+002 9.061571e+001
      vertex   -7.424999e+001 1.121655e+002 9.106551e+001
      vertex   -7.255000e+001 1.121655e+002 9.106551e+001
    endloop
  endfacet
  facet normal 0.000000e+000 -5.555654e-001 8.314729e-001
    outer loop
      vertex   -7.339999e+001 1.173613e+002 9.061571e+001
      vertex   -7.255000e+001 1.180345e+002 9.106551e+001
      vertex   -7.424999e+001 1.180345e+002 9.106551e+001
    endloop
  endfacet
  facet normal 0.000000e+000 -5.555611e-001 8.314758e-001
    outer loop
      vertex   3.290000e+001 1.140613e+002 9.061571e+001
      vertex   3.375000e+001 1.147345e+002 9.106551e+001
      vertex   3.205000e+001 1.147345e+002 9.106551e+001
    endloop
  endfacet
  facet normal -0.000000e+000 5.555698e-001 8.314700e-001
    outer loop
      vertex   3.290000e+001 1.095387e+002 9.061571e+001
      vertex   3.205000e+001 1.088655e+002 9.106551e+001
      vertex   3.375000e+001 1.088655e+002 9.106551e+001
    endloop
  endfacet
  facet normal 0.000000e+000 8.314685e-001 5.555719e-001
    outer loop
      vertex   3.290000e+001 1.084157e+002 9.173869e+001
      vertex   3.375000e+001 1.088655e+002 9.106551e+001
      vertex   3.205000e+001 1.088655e+002 9.106551e+001
    endloop
  endfacet
  facet normal 0.000000e+000 8.314685e-001 5.555719e-001
    outer loop
      vertex   3.290000e+001 1.084157e+002 9.173869e+001
      vertex   3.375000e+001 1.079659e+002 9.241187e+001
      vertex   3.375000e+001 1.088655e+002 9.106551e+001
    endloop
  endfacet
  facet normal -3.767654e-006 8.314707e-001 5.555686e-001
    outer loop
      vertex   -7.339999e+001 1.117157e+002 9.173869e+001
      vertex   -7.255000e+001 1.112659e+002 9.241187e+001
      vertex   -7.255000e+001 1.121655e+002 9.106551e+001
    endloop
  endfacet
  facet normal 3.724281e-006 8.314707e-001 5.555686e-001
    outer loop
      vertex   -7.339999e+001 1.117157e+002 9.173869e+001
      vertex   -7.424999e+001 1.121655e+002 9.106551e+001
      vertex   -7.424999e+001 1.112659e+002 9.241187e+001
    endloop
  endfacet
  facet normal 3.767621e-006 -8.314707e-001 5.555686e-001
    outer loop
      vertex   3.290000e+001 1.151843e+002 9.173869e+001
      vertex   3.375000e+001 1.147345e+002 9.106551e+001
      vertex   3.375000e+001 1.156341e+002 9.241187e+001
    endloop
  endfacet
  facet normal 0.000000e+000 8.314685e-001 5.555719e-001
    outer loop
      vertex   -7.339999e+001 1.117157e+002 9.173869e+001
      vertex   -7.255000e+001 1.121655e+002 9.106551e+001
      vertex   -7.424999e+001 1.121655e+002 9.106551e+001
    endloop
  endfacet
  facet normal -3.724315e-006 -8.314707e-001 5.555686e-001
    outer loop
      vertex   3.290000e+001 1.151843e+002 9.173869e+001
      vertex   3.205000e+001 1.156341e+002 9.241187e+001
      vertex   3.205000e+001 1.147345e+002 9.106551e+001
    endloop
  endfacet
  facet normal 0.000000e+000 -8.314729e-001 5.555654e-001
    outer loop
      vertex   3.290000e+001 1.151843e+002 9.173869e+001
      vertex   3.205000e+001 1.147345e+002 9.106551e+001
      vertex   3.375000e+001 1.147345e+002 9.106551e+001
    endloop
  endfacet
  facet normal -3.724348e-006 -8.314707e-001 5.555686e-001
    outer loop
      vertex   -7.339999e+001 1.184843e+002 9.173869e+001
      vertex   -7.255000e+001 1.180345e+002 9.106551e+001
      vertex   -7.255000e+001 1.189341e+002 9.241187e+001
    endloop
  endfacet
  facet normal 0.000000e+000 8.314685e-001 5.555719e-001
    outer loop
      vertex   3.290000e+001 1.084157e+002 9.173869e+001
      vertex   3.205000e+001 1.088655e+002 9.106551e+001
      vertex   3.205000e+001 1.079659e+002 9.241187e+001
    endloop
  endfacet
  facet normal 3.767587e-006 -8.314707e-001 5.555686e-001
    outer loop
      vertex   -7.339999e+001 1.184843e+002 9.173869e+001
      vertex   -7.424999e+001 1.189341e+002 9.241187e+001
      vertex   -7.424999e+001 1.180345e+002 9.106551e+001
    endloop
  endfacet
  facet normal 0.000000e+000 -8.314685e-001 5.555719e-001
    outer loop
      vertex   -7.339999e+001 1.184843e+002 9.173869e+001
      vertex   -7.424999e+001 1.180345e+002 9.106551e+001
      vertex   -7.255000e+001 1.180345e+002 9.106551e+001
    endloop
  endfacet
  facet normal -0.000000e+000 8.314729e-001 5.555654e-001
    outer loop
      vertex   -7.339999e+001 1.117157e+002 9.173869e+001
      vertex   -7.424999e+001 1.112659e+002 9.241187e+001
      vertex   -7.255000e+001 1.112659e+002 9.241187e+001
    endloop
  endfacet
  facet normal 0.000000e+000 -8.314685e-001 5.555719e-001
    outer loop
      vertex   3.290000e+001 1.151843e+002 9.173869e+001
      vertex   3.375000e+001 1.156341e+002 9.241187e+001
      vertex   3.205000e+001 1.156341e+002 9.241187e+001
    endloop
  endfacet
  facet normal -0.000000e+000 8.314685e-001 5.555719e-001
    outer loop
      vertex   3.290000e+001 1.084157e+002 9.173869e+001
      vertex   3.205000e+001 1.079659e+002 9.241187e+001
      vertex   3.375000e+001 1.079659e+002 9.241187e+001
    endloop
  endfacet
  facet normal 0.000000e+000 -8.314729e-001 5.555654e-001
    outer loop
      vertex   -7.339999e+001 1.184843e+002 9.173869e+001
      vertex   -7.255000e+001 1.189341e+002 9.241187e+001
      vertex   -7.424999e+001 1.189341e+002 9.241187e+001
    endloop
  endfacet
  facet normal 9.743882e-001 -2.248725e-001 -1.271368e-006
    outer loop
      vertex   -7.210668e+001 1.085377e+002 9.232648e+001
      vertex   -7.239730e+001 1.072784e+002 9.864805e+001
      vertex   -7.245000e+001 1.070500e+002 9.750000e+001
    endloop
  endfacet
  facet normal 9.743914e-001 -2.248585e-001 1.655560e-006
    outer loop
      vertex   -7.210668e+001 1.085377e+002 9.232648e+001
      vertex   -7.224723e+001 1.079287e+002 9.962132e+001
      vertex   -7.239730e+001 1.072784e+002 9.864805e+001
    endloop
  endfacet
  facet normal -9.743922e-001 -2.248549e-001 9.507837e-007
    outer loop
      vertex   3.160669e+001 1.052377e+002 9.232648e+001
      vertex   3.174723e+001 1.046287e+002 9.962132e+001
      vertex   3.160422e+001 1.052484e+002 1.000971e+002
    endloop
  endfacet
  facet normal 9.743916e-001 -2.248581e-001 1.690560e-006
    outer loop
      vertex   -7.210668e+001 1.085377e+002 9.232648e+001
      vertex   -7.210423e+001 1.085484e+002 1.000971e+002
      vertex   -7.224723e+001 1.079287e+002 9.962132e+001
    endloop
  endfacet
  facet normal -9.743918e-001 -2.248572e-001 7.481992e-007
    outer loop
      vertex   3.160669e+001 1.052377e+002 9.232648e+001
      vertex   3.189730e+001 1.039784e+002 9.864805e+001
      vertex   3.174723e+001 1.046287e+002 9.962132e+001
    endloop
  endfacet
  facet normal -9.743889e-001 -2.248697e-001 -1.856802e-006
    outer loop
      vertex   3.160669e+001 1.052377e+002 9.232648e+001
      vertex   3.195000e+001 1.037500e+002 9.750000e+001
      vertex   3.189730e+001 1.039784e+002 9.864805e+001
    endloop
  endfacet
  facet normal 0.000000e+000 9.524092e-001 3.048224e-001
    outer loop
      vertex   -7.339999e+001 1.111611e+002 9.273935e+001
      vertex   -7.255000e+001 1.110563e+002 9.306683e+001
      vertex   -7.255000e+001 1.112659e+002 9.241187e+001
    endloop
  endfacet
  facet normal 0.000000e+000 9.524091e-001 3.048224e-001
    outer loop
      vertex   -7.339999e+001 1.111611e+002 9.273935e+001
      vertex   -7.255000e+001 1.112659e+002 9.241187e+001
      vertex   -7.424999e+001 1.112659e+002 9.241187e+001
    endloop
  endfacet
  facet normal 4.269938e-006 9.524124e-001 3.048124e-001
    outer loop
      vertex   3.290000e+001 1.078611e+002 9.273935e+001
      vertex   3.205000e+001 1.079659e+002 9.241187e+001
      vertex   3.205000e+001 1.077563e+002 9.306683e+001
    endloop
  endfacet
  facet normal 0.000000e+000 9.524091e-001 3.048224e-001
    outer loop
      vertex   -7.339999e+001 1.111611e+002 9.273935e+001
      vertex   -7.424999e+001 1.112659e+002 9.241187e+001
      vertex   -7.424999e+001 1.110563e+002 9.306683e+001
    endloop
  endfacet
  facet normal 0.000000e+000 9.524091e-001 3.048224e-001
    outer loop
      vertex   3.290000e+001 1.078611e+002 9.273935e+001
      vertex   3.375000e+001 1.079659e+002 9.241187e+001
      vertex   3.205000e+001 1.079659e+002 9.241187e+001
    endloop
  endfacet
  facet normal -4.282684e-006 9.524124e-001 3.048124e-001
    outer loop
      vertex   3.290000e+001 1.078611e+002 9.273935e+001
      vertex   3.375000e+001 1.077563e+002 9.306683e+001
      vertex   3.375000e+001 1.079659e+002 9.241187e+001
    endloop
  endfacet
  facet normal 0.000000e+000 -9.807850e-001 1.950922e-001
    outer loop
      vertex   -7.339999e+001 1.190920e+002 9.320593e+001
      vertex   -7.255000e+001 1.189341e+002 9.241187e+001
      vertex   -7.255000e+001 1.192500e+002 9.400000e+001
    endloop
  endfacet
  facet normal 4.395566e-006 -9.807858e-001 1.950876e-001
    outer loop
      vertex   3.290000e+001 1.157921e+002 9.320593e+001
      vertex   3.205000e+001 1.159500e+002 9.400000e+001
      vertex   3.205000e+001 1.156341e+002 9.241187e+001
    endloop
  endfacet
  facet normal -4.395566e-006 -9.807858e-001 1.950876e-001
    outer loop
      vertex   3.290000e+001 1.157921e+002 9.320593e+001
      vertex   3.375000e+001 1.156341e+002 9.241187e+001
      vertex   3.375000e+001 1.159500e+002 9.400000e+001
    endloop
  endfacet
  facet normal 0.000000e+000 -9.807850e-001 1.950921e-001
    outer loop
      vertex   -7.339999e+001 1.190920e+002 9.320593e+001
      vertex   -7.424999e+001 1.189341e+002 9.241187e+001
      vertex   -7.255000e+001 1.189341e+002 9.241187e+001
    endloop
  endfacet
  facet normal 0.000000e+000 -9.807850e-001 1.950921e-001
    outer loop
      vertex   3.290000e+001 1.157921e+002 9.320593e+001
      vertex   3.205000e+001 1.156341e+002 9.241187e+001
      vertex   3.375000e+001 1.156341e+002 9.241187e+001
    endloop
  endfacet
  facet normal 0.000000e+000 -9.807850e-001 1.950921e-001
    outer loop
      vertex   -7.339999e+001 1.190920e+002 9.320593e+001
      vertex   -7.424999e+001 1.192500e+002 9.400000e+001
      vertex   -7.424999e+001 1.189341e+002 9.241187e+001
    endloop
  endfacet
  facet normal -0.000000e+000 9.524091e-001 3.048224e-001
    outer loop
      vertex   -7.339999e+001 1.111611e+002 9.273935e+001
      vertex   -7.424999e+001 1.110563e+002 9.306683e+001
      vertex   -7.255000e+001 1.110563e+002 9.306683e+001
    endloop
  endfacet
  facet normal -0.000000e+000 9.524156e-001 3.048023e-001
    outer loop
      vertex   3.290000e+001 1.078611e+002 9.273935e+001
      vertex   3.205000e+001 1.077563e+002 9.306683e+001
      vertex   3.375000e+001 1.077563e+002 9.306683e+001
    endloop
  endfacet
  facet normal 3.511376e-001 9.123455e-001 2.105423e-001
    outer loop
      vertex   -7.198084e+001 1.101845e+002 9.280136e+001
      vertex   -7.235000e+001 1.086322e+002 1.001438e+002
      vertex   -7.210423e+001 1.085484e+002 1.000971e+002
    endloop
  endfacet
  facet normal -3.511126e-001 9.123550e-001 2.105430e-001
    outer loop
      vertex   3.148084e+001 1.068845e+002 9.280136e+001
      vertex   3.160422e+001 1.052484e+002 1.000971e+002
      vertex   3.185000e+001 1.053322e+002 1.001438e+002
    endloop
  endfacet
  facet normal 1.000000e+000 -0.000000e+000 0.000000e+000
    outer loop
      vertex   3.375000e+001 1.046287e+002 9.962132e+001
      vertex   3.375000e+001 1.039784e+002 9.864805e+001
      vertex   3.375000e+001 1.077563e+002 9.306683e+001
    endloop
  endfacet
  facet normal 1.000000e+000 -0.000000e+000 0.000000e+000
    outer loop
      vertex   3.375000e+001 1.056020e+002 1.002716e+002
      vertex   3.375000e+001 1.046287e+002 9.962132e+001
      vertex   3.375000e+001 1.077563e+002 9.306683e+001
    endloop
  endfacet
  facet normal 1.000000e+000 -0.000000e+000 0.000000e+000
    outer loop
      vertex   3.375000e+001 1.039784e+002 9.864805e+001
      vertex   3.375000e+001 1.037500e+002 9.750000e+001
      vertex   3.375000e+001 1.077563e+002 9.306683e+001
    endloop
  endfacet
  facet normal -1.000000e+000 0.000000e+000 0.000000e+000
    outer loop
      vertex   -7.424999e+001 1.079287e+002 9.962132e+001
      vertex   -7.424999e+001 1.110563e+002 9.306683e+001
      vertex   -7.424999e+001 1.072784e+002 9.864805e+001
    endloop
  endfacet
  facet normal -1.000000e+000 0.000000e+000 0.000000e+000
    outer loop
      vertex   -7.424999e+001 1.089019e+002 1.002716e+002
      vertex   -7.424999e+001 1.110563e+002 9.306683e+001
      vertex   -7.424999e+001 1.079287e+002 9.962132e+001
    endloop
  endfacet
  facet normal -1.000000e+000 0.000000e+000 0.000000e+000
    outer loop
      vertex   -7.424999e+001 1.093595e+002 1.004195e+002
      vertex   -7.424999e+001 1.110563e+002 9.306683e+001
      vertex   -7.424999e+001 1.089019e+002 1.002716e+002
    endloop
  endfacet
  facet normal 1.000000e+000 -0.000000e+000 0.000000e+000
    outer loop
      vertex   3.375000e+001 1.060595e+002 1.004195e+002
      vertex   3.375000e+001 1.056020e+002 1.002716e+002
      vertex   3.375000e+001 1.077563e+002 9.306683e+001
    endloop
  endfacet
  facet normal -1.000000e+000 0.000000e+000 0.000000e+000
    outer loop
      vertex   -7.424999e+001 1.072784e+002 9.864805e+001
      vertex   -7.424999e+001 1.110563e+002 9.306683e+001
      vertex   -7.424999e+001 1.070500e+002 9.750000e+001
    endloop
  endfacet
  facet normal -1.000000e+000 0.000000e+000 0.000000e+000
    outer loop
      vertex   3.205000e+001 1.056020e+002 1.002716e+002
      vertex   3.205000e+001 1.077563e+002 9.306683e+001
      vertex   3.205000e+001 1.053322e+002 1.001438e+002
    endloop
  endfacet
  facet normal 1.000000e+000 -0.000000e+000 0.000000e+000
    outer loop
      vertex   -7.255000e+001 1.089019e+002 1.002716e+002
      vertex   -7.255000e+001 1.086322e+002 1.001438e+002
      vertex   -7.255000e+001 1.110563e+002 9.306683e+001
    endloop
  endfacet
  facet normal 1.000000e+000 -0.000000e+000 0.000000e+000
    outer loop
      vertex   -7.255000e+001 1.093595e+002 1.004195e+002
      vertex   -7.255000e+001 1.089019e+002 1.002716e+002
      vertex   -7.255000e+001 1.110563e+002 9.306683e+001
    endloop
  endfacet
  facet normal -1.000000e+000 0.000000e+000 0.000000e+000
    outer loop
      vertex   3.205000e+001 1.060595e+002 1.004195e+002
      vertex   3.205000e+001 1.077563e+002 9.306683e+001
      vertex   3.205000e+001 1.056020e+002 1.002716e+002
    endloop
  endfacet
  facet normal -1.040809e-006 9.743911e-001 2.248599e-001
    outer loop
      vertex   3.290000e+001 1.069079e+002 9.674315e+001
      vertex   3.205000e+001 1.077563e+002 9.306683e+001
      vertex   3.205000e+001 1.060595e+002 1.004195e+002
    endloop
  endfacet
  facet normal 0.000000e+000 9.743916e-001 2.248577e-001
    outer loop
      vertex   -7.340000e+001 1.102079e+002 9.674315e+001
      vertex   -7.255000e+001 1.110563e+002 9.306683e+001
      vertex   -7.424999e+001 1.110563e+002 9.306683e+001
    endloop
  endfacet
  facet normal 9.664654e-007 9.743911e-001 2.248599e-001
    outer loop
      vertex   3.290000e+001 1.069079e+002 9.674315e+001
      vertex   3.375000e+001 1.060595e+002 1.004195e+002
      vertex   3.375000e+001 1.077563e+002 9.306683e+001
    endloop
  endfacet
  facet normal 9.738910e-006 9.743911e-001 2.248599e-001
    outer loop
      vertex   -7.340000e+001 1.102079e+002 9.674315e+001
      vertex   -7.255000e+001 1.093595e+002 1.004195e+002
      vertex   -7.255000e+001 1.110563e+002 9.306683e+001
    endloop
  endfacet
  facet normal 0.000000e+000 9.743912e-001 2.248597e-001
    outer loop
      vertex   3.290000e+001 1.069079e+002 9.674315e+001
      vertex   3.375000e+001 1.077563e+002 9.306683e+001
      vertex   3.205000e+001 1.077563e+002 9.306683e+001
    endloop
  endfacet
  facet normal -9.739085e-006 9.743911e-001 2.248599e-001
    outer loop
      vertex   -7.340000e+001 1.102079e+002 9.674315e+001
      vertex   -7.424999e+001 1.110563e+002 9.306683e+001
      vertex   -7.424999e+001 1.093595e+002 1.004195e+002
    endloop
  endfacet
  facet normal 0.000000e+000 -9.807867e-001 1.950831e-001
    outer loop
      vertex   3.290000e+001 1.157921e+002 9.320593e+001
      vertex   3.375000e+001 1.159500e+002 9.400000e+001
      vertex   3.205000e+001 1.159500e+002 9.400000e+001
    endloop
  endfacet
  facet normal 0.000000e+000 -9.807850e-001 1.950921e-001
    outer loop
      vertex   -7.339999e+001 1.190920e+002 9.320593e+001
      vertex   -7.255000e+001 1.192500e+002 9.400000e+001
      vertex   -7.424999e+001 1.192500e+002 9.400000e+001
    endloop
  endfacet
  facet normal -0.000000e+000 9.743910e-001 2.248602e-001
    outer loop
      vertex   3.195000e+001 1.067911e+002 9.382191e+001
      vertex   3.185000e+001 1.053322e+002 1.001438e+002
      vertex   3.205000e+001 1.053322e+002 1.001438e+002
    endloop
  endfacet
  facet normal -0.000000e+000 9.743913e-001 2.248591e-001
    outer loop
      vertex   -7.245000e+001 1.100911e+002 9.382191e+001
      vertex   -7.255000e+001 1.086322e+002 1.001438e+002
      vertex   -7.235000e+001 1.086322e+002 1.001438e+002
    endloop
  endfacet
  facet normal -0.000000e+000 -1.000000e+000 0.000000e+000
    outer loop
      vertex   3.285000e+001 1.037500e+002 9.400000e+001
      vertex   3.375000e+001 1.037500e+002 9.750000e+001
      vertex   3.195000e+001 1.037500e+002 9.750000e+001
    endloop
  endfacet
  facet normal -8.922207e-006 -9.935771e-001 -1.131576e-001
    outer loop
      vertex   3.290000e+001 1.158969e+002 9.446658e+001
      vertex   3.375000e+001 1.159500e+002 9.400000e+001
      vertex   3.375000e+001 1.158437e+002 9.493317e+001
    endloop
  endfacet
  facet normal -0.000000e+000 1.000000e+000 0.000000e+000
    outer loop
      vertex   -2.024999e+001 1.332500e+002 9.400000e+001
      vertex   -7.424999e+001 1.332500e+002 1.005000e+002
      vertex   3.375000e+001 1.332500e+002 1.005000e+002
    endloop
  endfacet
  facet normal -0.000000e+000 -1.000000e+000 0.000000e+000
    outer loop
      vertex   -7.335000e+001 1.070500e+002 9.400000e+001
      vertex   -7.245000e+001 1.070500e+002 9.750000e+001
      vertex   -7.424999e+001 1.070500e+002 9.750000e+001
    endloop
  endfacet
  facet normal 0.000000e+000 -9.935771e-001 -1.131576e-001
    outer loop
      vertex   -7.339999e+001 1.191969e+002 9.446658e+001
      vertex   -7.424999e+001 1.191437e+002 9.493317e+001
      vertex   -7.424999e+001 1.192500e+002 9.400000e+001
    endloop
  endfacet
  facet normal 0.000000e+000 -9.935770e-001 -1.131576e-001
    outer loop
      vertex   -7.339999e+001 1.191969e+002 9.446658e+001
      vertex   -7.255000e+001 1.192500e+002 9.400000e+001
      vertex   -7.255000e+001 1.191437e+002 9.493317e+001
    endloop
  endfacet
  facet normal 0.000000e+000 -9.935789e-001 -1.131415e-001
    outer loop
      vertex   3.290000e+001 1.158969e+002 9.446658e+001
      vertex   3.205000e+001 1.159500e+002 9.400000e+001
      vertex   3.375000e+001 1.159500e+002 9.400000e+001
    endloop
  endfacet
  facet normal 0.000000e+000 -9.935771e-001 -1.131576e-001
    outer loop
      vertex   -7.339999e+001 1.191969e+002 9.446658e+001
      vertex   -7.424999e+001 1.192500e+002 9.400000e+001
      vertex   -7.255000e+001 1.192500e+002 9.400000e+001
    endloop
  endfacet
  facet normal 8.917540e-006 -9.935771e-001 -1.131576e-001
    outer loop
      vertex   3.290000e+001 1.158969e+002 9.446658e+001
      vertex   3.205000e+001 1.158437e+002 9.493317e+001
      vertex   3.205000e+001 1.159500e+002 9.400000e+001
    endloop
  endfacet
  facet normal -0.000000e+000 -1.000000e+000 0.000000e+000
    outer loop
      vertex   -2.024999e+001 1.312500e+002 9.400000e+001
      vertex   3.205000e+001 1.312500e+002 1.005000e+002
      vertex   -7.255000e+001 1.312500e+002 1.005000e+002
    endloop
  endfacet
  facet normal -0.000000e+000 -9.935753e-001 -1.131736e-001
    outer loop
      vertex   3.290000e+001 1.158969e+002 9.446658e+001
      vertex   3.375000e+001 1.158437e+002 9.493317e+001
      vertex   3.205000e+001 1.158437e+002 9.493317e+001
    endloop
  endfacet
  facet normal -0.000000e+000 -9.935771e-001 -1.131576e-001
    outer loop
      vertex   -7.339999e+001 1.191969e+002 9.446658e+001
      vertex   -7.255000e+001 1.191437e+002 9.493317e+001
      vertex   -7.424999e+001 1.191437e+002 9.493317e+001
    endloop
  endfacet
  facet normal 0.000000e+000 -9.743912e-001 -2.248593e-001
    outer loop
      vertex   -7.340000e+001 1.185014e+002 9.771658e+001
      vertex   -7.424999e+001 1.178591e+002 1.005000e+002
      vertex   -7.424999e+001 1.191437e+002 9.493317e+001
    endloop
  endfacet
  facet normal 0.000000e+000 -9.743918e-001 -2.248568e-001
    outer loop
      vertex   3.290000e+001 1.152014e+002 9.771658e+001
      vertex   3.205000e+001 1.158437e+002 9.493317e+001
      vertex   3.375000e+001 1.158437e+002 9.493317e+001
    endloop
  endfacet
  facet normal 8.739107e-006 -9.743912e-001 -2.248593e-001
    outer loop
      vertex   3.290000e+001 1.152014e+002 9.771658e+001
      vertex   3.205000e+001 1.145591e+002 1.005000e+002
      vertex   3.205000e+001 1.158437e+002 9.493317e+001
    endloop
  endfacet
  facet normal 0.000000e+000 -9.743912e-001 -2.248593e-001
    outer loop
      vertex   -7.340000e+001 1.185014e+002 9.771658e+001
      vertex   -7.424999e+001 1.191437e+002 9.493317e+001
      vertex   -7.255000e+001 1.191437e+002 9.493317e+001
    endloop
  endfacet
  facet normal 0.000000e+000 -9.743912e-001 -2.248593e-001
    outer loop
      vertex   -7.340000e+001 1.185014e+002 9.771658e+001
      vertex   -7.255000e+001 1.191437e+002 9.493317e+001
      vertex   -7.255000e+001 1.178591e+002 1.005000e+002
    endloop
  endfacet
  facet normal -8.739107e-006 -9.743912e-001 -2.248593e-001
    outer loop
      vertex   3.290000e+001 1.152014e+002 9.771658e+001
      vertex   3.375000e+001 1.158437e+002 9.493317e+001
      vertex   3.375000e+001 1.145591e+002 1.005000e+002
    endloop
  endfacet
  facet normal -0.000000e+000 9.743907e-001 2.248620e-001
    outer loop
      vertex   -7.340000e+001 1.102079e+002 9.674315e+001
      vertex   -7.424999e+001 1.093595e+002 1.004195e+002
      vertex   -7.255000e+001 1.093595e+002 1.004195e+002
    endloop
  endfacet
  facet normal -0.000000e+000 9.743911e-001 2.248601e-001
    outer loop
      vertex   3.290000e+001 1.069079e+002 9.674315e+001
      vertex   3.205000e+001 1.060595e+002 1.004195e+002
      vertex   3.375000e+001 1.060595e+002 1.004195e+002
    endloop
  endfacet
  facet normal 0.000000e+000 -9.807851e-001 1.950907e-001
    outer loop
      vertex   3.283683e+001 1.038642e+002 9.807403e+001
      vertex   3.195000e+001 1.037500e+002 9.750000e+001
      vertex   3.375000e+001 1.037500e+002 9.750000e+001
    endloop
  endfacet
  facet normal 8.224967e-007 -9.807850e-001 1.950920e-001
    outer loop
      vertex   3.283683e+001 1.038642e+002 9.807403e+001
      vertex   3.375000e+001 1.037500e+002 9.750000e+001
      vertex   3.375000e+001 1.039784e+002 9.864805e+001
    endloop
  endfacet
  facet normal -8.085493e-007 -9.807850e-001 1.950920e-001
    outer loop
      vertex   -7.333681e+001 1.071642e+002 9.807403e+001
      vertex   -7.424999e+001 1.072784e+002 9.864805e+001
      vertex   -7.424999e+001 1.070500e+002 9.750000e+001
    endloop
  endfacet
  facet normal 0.000000e+000 -9.807853e-001 1.950907e-001
    outer loop
      vertex   -7.333681e+001 1.071642e+002 9.807403e+001
      vertex   -7.424999e+001 1.070500e+002 9.750000e+001
      vertex   -7.245000e+001 1.070500e+002 9.750000e+001
    endloop
  endfacet
  facet normal 8.225034e-007 -9.807850e-001 1.950919e-001
    outer loop
      vertex   -7.333681e+001 1.071642e+002 9.807403e+001
      vertex   -7.245000e+001 1.070500e+002 9.750000e+001
      vertex   -7.239730e+001 1.072784e+002 9.864805e+001
    endloop
  endfacet
  facet normal -8.085474e-007 -9.807850e-001 1.950919e-001
    outer loop
      vertex   3.283683e+001 1.038642e+002 9.807403e+001
      vertex   3.189730e+001 1.039784e+002 9.864805e+001
      vertex   3.195000e+001 1.037500e+002 9.750000e+001
    endloop
  endfacet
  facet normal -0.000000e+000 -9.743907e-001 -2.248618e-001
    outer loop
      vertex   3.290000e+001 1.152014e+002 9.771658e+001
      vertex   3.375000e+001 1.145591e+002 1.005000e+002
      vertex   3.205000e+001 1.145591e+002 1.005000e+002
    endloop
  endfacet
  facet normal -0.000000e+000 -9.743912e-001 -2.248593e-001
    outer loop
      vertex   -7.340000e+001 1.185014e+002 9.771658e+001
      vertex   -7.255000e+001 1.178591e+002 1.005000e+002
      vertex   -7.424999e+001 1.178591e+002 1.005000e+002
    endloop
  endfacet
  facet normal 0.000000e+000 -9.807847e-001 1.950932e-001
    outer loop
      vertex   -7.333681e+001 1.071642e+002 9.807403e+001
      vertex   -7.239730e+001 1.072784e+002 9.864805e+001
      vertex   -7.424999e+001 1.072784e+002 9.864805e+001
    endloop
  endfacet
  facet normal 0.000000e+000 -9.807848e-001 1.950932e-001
    outer loop
      vertex   3.283683e+001 1.038642e+002 9.807403e+001
      vertex   3.375000e+001 1.039784e+002 9.864805e+001
      vertex   3.189730e+001 1.039784e+002 9.864805e+001
    endloop
  endfacet
  facet normal -2.192419e-006 -8.314722e-001 5.555663e-001
    outer loop
      vertex   -7.328613e+001 1.076035e+002 9.913469e+001
      vertex   -7.424999e+001 1.079287e+002 9.962132e+001
      vertex   -7.424999e+001 1.072784e+002 9.864805e+001
    endloop
  endfacet
  facet normal 2.218850e-006 -8.314724e-001 5.555660e-001
    outer loop
      vertex   -7.328613e+001 1.076035e+002 9.913469e+001
      vertex   -7.239730e+001 1.072784e+002 9.864805e+001
      vertex   -7.224723e+001 1.079287e+002 9.962132e+001
    endloop
  endfacet
  facet normal 0.000000e+000 -8.314743e-001 5.555633e-001
    outer loop
      vertex   -7.328613e+001 1.076035e+002 9.913469e+001
      vertex   -7.424999e+001 1.072784e+002 9.864805e+001
      vertex   -7.239730e+001 1.072784e+002 9.864805e+001
    endloop
  endfacet
  facet normal 0.000000e+000 -8.314743e-001 5.555633e-001
    outer loop
      vertex   3.278613e+001 1.043035e+002 9.913469e+001
      vertex   3.189730e+001 1.039784e+002 9.864805e+001
      vertex   3.375000e+001 1.039784e+002 9.864805e+001
    endloop
  endfacet
  facet normal -2.192414e-006 -8.314724e-001 5.555660e-001
    outer loop
      vertex   3.278613e+001 1.043035e+002 9.913469e+001
      vertex   3.174723e+001 1.046287e+002 9.962132e+001
      vertex   3.189730e+001 1.039784e+002 9.864805e+001
    endloop
  endfacet
  facet normal 2.218834e-006 -8.314722e-001 5.555663e-001
    outer loop
      vertex   3.278613e+001 1.043035e+002 9.913469e+001
      vertex   3.375000e+001 1.039784e+002 9.864805e+001
      vertex   3.375000e+001 1.046287e+002 9.962132e+001
    endloop
  endfacet
  facet normal 0.000000e+000 -8.314703e-001 5.555693e-001
    outer loop
      vertex   -7.328613e+001 1.076035e+002 9.913469e+001
      vertex   -7.224723e+001 1.079287e+002 9.962132e+001
      vertex   -7.424999e+001 1.079287e+002 9.962132e+001
    endloop
  endfacet
  facet normal 0.000000e+000 -8.314703e-001 5.555693e-001
    outer loop
      vertex   3.278613e+001 1.043035e+002 9.913469e+001
      vertex   3.375000e+001 1.046287e+002 9.962132e+001
      vertex   3.174723e+001 1.046287e+002 9.962132e+001
    endloop
  endfacet
  facet normal 5.314462e-002 -6.003969e-001 7.979344e-001
    outer loop
      vertex   3.185000e+001 1.053322e+002 1.001438e+002
      vertex   3.160422e+001 1.052484e+002 1.000971e+002
      vertex   3.174723e+001 1.046287e+002 9.962132e+001
    endloop
  endfacet
  facet normal 0.000000e+000 -5.962477e-001 8.028005e-001
    outer loop
      vertex   3.205000e+001 1.053322e+002 1.001438e+002
      vertex   3.185000e+001 1.053322e+002 1.001438e+002
      vertex   3.174723e+001 1.046287e+002 9.962132e+001
    endloop
  endfacet
  facet normal 1.000691e-001 -4.260097e-001 8.991673e-001
    outer loop
      vertex   3.375000e+001 1.046287e+002 9.962132e+001
      vertex   3.205000e+001 1.056020e+002 1.002716e+002
      vertex   3.205000e+001 1.053322e+002 1.001438e+002
    endloop
  endfacet
  facet normal 0.000000e+000 -5.962477e-001 8.028005e-001
    outer loop
      vertex   3.375000e+001 1.046287e+002 9.962132e+001
      vertex   3.205000e+001 1.053322e+002 1.001438e+002
      vertex   3.174723e+001 1.046287e+002 9.962132e+001
    endloop
  endfacet
  facet normal 0.000000e+000 -5.555663e-001 8.314723e-001
    outer loop
      vertex   3.375000e+001 1.056020e+002 1.002716e+002
      vertex   3.205000e+001 1.056020e+002 1.002716e+002
      vertex   3.375000e+001 1.046287e+002 9.962132e+001
    endloop
  endfacet
  facet normal 0.000000e+000 -5.555693e-001 8.314703e-001
    outer loop
      vertex   -7.224723e+001 1.079287e+002 9.962132e+001
      vertex   -7.424999e+001 1.089019e+002 1.002716e+002
      vertex   -7.424999e+001 1.079287e+002 9.962132e+001
    endloop
  endfacet
  facet normal -3.639624e-002 -6.059005e-001 7.947075e-001
    outer loop
      vertex   -7.255000e+001 1.086322e+002 1.001438e+002
      vertex   -7.424999e+001 1.089019e+002 1.002716e+002
      vertex   -7.224723e+001 1.079287e+002 9.962132e+001
    endloop
  endfacet
  facet normal -5.316408e-002 -6.003980e-001 7.979322e-001
    outer loop
      vertex   -7.210423e+001 1.085484e+002 1.000971e+002
      vertex   -7.235000e+001 1.086322e+002 1.001438e+002
      vertex   -7.224723e+001 1.079287e+002 9.962132e+001
    endloop
  endfacet
  facet normal 0.000000e+000 -5.962477e-001 8.028005e-001
    outer loop
      vertex   -7.235000e+001 1.086322e+002 1.001438e+002
      vertex   -7.255000e+001 1.086322e+002 1.001438e+002
      vertex   -7.224723e+001 1.079287e+002 9.962132e+001
    endloop
  endfacet
  facet normal 0.000000e+000 -4.281687e-001 9.036988e-001
    outer loop
      vertex   -7.255000e+001 1.089019e+002 1.002716e+002
      vertex   -7.424999e+001 1.089019e+002 1.002716e+002
      vertex   -7.255000e+001 1.086322e+002 1.001438e+002
    endloop
  endfacet
  facet normal -4.274697e-006 -3.074130e-001 9.515762e-001
    outer loop
      vertex   3.290000e+001 1.058307e+002 1.003456e+002
      vertex   3.205000e+001 1.060595e+002 1.004195e+002
      vertex   3.205000e+001 1.056020e+002 1.002716e+002
    endloop
  endfacet
  facet normal 0.000000e+000 -3.074181e-001 9.515745e-001
    outer loop
      vertex   -7.339999e+001 1.091307e+002 1.003456e+002
      vertex   -7.424999e+001 1.089019e+002 1.002716e+002
      vertex   -7.255000e+001 1.089019e+002 1.002716e+002
    endloop
  endfacet
  facet normal 4.265582e-006 -3.074130e-001 9.515762e-001
    outer loop
      vertex   3.290000e+001 1.058307e+002 1.003456e+002
      vertex   3.375000e+001 1.056020e+002 1.002716e+002
      vertex   3.375000e+001 1.060595e+002 1.004195e+002
    endloop
  endfacet
  facet normal -1.512992e-006 -3.074130e-001 9.515762e-001
    outer loop
      vertex   -7.339999e+001 1.091307e+002 1.003456e+002
      vertex   -7.424999e+001 1.093595e+002 1.004195e+002
      vertex   -7.424999e+001 1.089019e+002 1.002716e+002
    endloop
  endfacet
  facet normal 0.000000e+000 -3.074274e-001 9.515715e-001
    outer loop
      vertex   3.290000e+001 1.058307e+002 1.003456e+002
      vertex   3.205000e+001 1.056020e+002 1.002716e+002
      vertex   3.375000e+001 1.056020e+002 1.002716e+002
    endloop
  endfacet
  facet normal 1.513019e-006 -3.074130e-001 9.515762e-001
    outer loop
      vertex   -7.339999e+001 1.091307e+002 1.003456e+002
      vertex   -7.255000e+001 1.089019e+002 1.002716e+002
      vertex   -7.255000e+001 1.093595e+002 1.004195e+002
    endloop
  endfacet
  facet normal 0.000000e+000 -3.074079e-001 9.515778e-001
    outer loop
      vertex   -7.339999e+001 1.091307e+002 1.003456e+002
      vertex   -7.255000e+001 1.093595e+002 1.004195e+002
      vertex   -7.424999e+001 1.093595e+002 1.004195e+002
    endloop
  endfacet
  facet normal 0.000000e+000 -3.073987e-001 9.515808e-001
    outer loop
      vertex   3.290000e+001 1.058307e+002 1.003456e+002
      vertex   3.375000e+001 1.060595e+002 1.004195e+002
      vertex   3.205000e+001 1.060595e+002 1.004195e+002
    endloop
  endfacet
  facet normal 0.000000e+000 0.000000e+000 1.000000e+000
    outer loop
      vertex   3.205000e+001 1.312500e+002 1.005000e+002
      vertex   3.205000e+001 1.145591e+002 1.005000e+002
      vertex   3.375000e+001 1.145591e+002 1.005000e+002
    endloop
  endfacet
  facet normal -0.000000e+000 0.000000e+000 1.000000e+000
    outer loop
      vertex   3.375000e+001 1.332500e+002 1.005000e+002
      vertex   -7.424999e+001 1.332500e+002 1.005000e+002
      vertex   3.205000e+001 1.312500e+002 1.005000e+002
    endloop
  endfacet
  facet normal 0.000000e+000 0.000000e+000 1.000000e+000
    outer loop
      vertex   -7.255000e+001 1.312500e+002 1.005000e+002
      vertex   -7.424999e+001 1.332500e+002 1.005000e+002
      vertex   -7.255000e+001 1.178591e+002 1.005000e+002
    endloop
  endfacet
  facet normal 0.000000e+000 0.000000e+000 1.000000e+000
    outer loop
      vertex   3.205000e+001 1.312500e+002 1.005000e+002
      vertex   -7.424999e+001 1.332500e+002 1.005000e+002
      vertex   -7.255000e+001 1.312500e+002 1.005000e+002
    endloop
  endfacet
  facet normal -0.000000e+000 0.000000e+000 1.000000e+000
    outer loop
      vertex   3.375000e+001 1.332500e+002 1.005000e+002
      vertex   3.205000e+001 1.312500e+002 1.005000e+002
      vertex   3.375000e+001 1.145591e+002 1.005000e+002
    endloop
  endfacet
  facet normal 0.000000e+000 0.000000e+000 1.000000e+000
    outer loop
      vertex   -7.424999e+001 1.332500e+002 1.005000e+002
      vertex   -7.424999e+001 1.178591e+002 1.005000e+002
      vertex   -7.255000e+001 1.178591e+002 1.005000e+002
    endloop
  endfacet
endsolid
