solid ascii
  facet normal 0.000000e+000 1.000000e+000 0.000000e+000
    outer loop
      vertex   7.397566e+001 4.149857e+001 4.083092e+001
      vertex   7.997566e+001 4.149857e+001 2.083092e+001
      vertex   6.797566e+001 4.149857e+001 2.083092e+001
    endloop
  endfacet
  facet normal 0.000000e+000 1.000000e+000 0.000000e+000
    outer loop
      vertex   6.497566e+001 6.799857e+001 4.083092e+001
      vertex   6.797566e+001 6.799857e+001 2.083092e+001
      vertex   6.197566e+001 6.799857e+001 2.083092e+001
    endloop
  endfacet
  facet normal 0.000000e+000 1.000000e+000 0.000000e+000
    outer loop
      vertex   6.497566e+001 6.799857e+001 4.083092e+001
      vertex   6.197566e+001 6.799857e+001 2.083092e+001
      vertex   6.197566e+001 6.799857e+001 6.083092e+001
    endloop
  endfacet
  facet normal 0.000000e+000 1.000000e+000 0.000000e+000
    outer loop
      vertex   7.397566e+001 4.149857e+001 4.083092e+001
      vertex   6.797566e+001 4.149857e+001 2.083092e+001
      vertex   6.797566e+001 4.149857e+001 6.083092e+001
    endloop
  endfacet
  facet normal 0.000000e+000 -1.000000e+000 0.000000e+000
    outer loop
      vertex   6.582566e+001 6.599857e+001 4.083092e+001
      vertex   6.597566e+001 6.599857e+001 2.083092e+001
      vertex   6.597566e+001 6.599857e+001 6.083092e+001
    endloop
  endfacet
  facet normal 0.000000e+000 0.000000e+000 -1.000000e+000
    outer loop
      vertex   6.567566e+001 6.599857e+001 2.083092e+001
      vertex   6.197566e+001 6.739857e+001 2.083092e+001
      vertex   6.197566e+001 6.799857e+001 2.083092e+001
    endloop
  endfacet
  facet normal 0.000000e+000 -1.000000e+000 0.000000e+000
    outer loop
      vertex   6.582566e+001 6.599857e+001 4.083092e+001
      vertex   6.567566e+001 6.599857e+001 6.083092e+001
      vertex   6.567566e+001 6.599857e+001 2.083092e+001
    endloop
  endfacet
  facet normal 0.000000e+000 -1.000000e+000 0.000000e+000
    outer loop
      vertex   6.582566e+001 6.599857e+001 4.083092e+001
      vertex   6.567566e+001 6.599857e+001 2.083092e+001
      vertex   6.597566e+001 6.599857e+001 2.083092e+001
    endloop
  endfacet
  facet normal 0.000000e+000 -1.000000e+000 0.000000e+000
    outer loop
      vertex   7.297566e+001 3.949857e+001 4.083092e+001
      vertex   6.597566e+001 3.949857e+001 6.083092e+001
      vertex   6.597566e+001 3.949857e+001 2.083092e+001
    endloop
  endfacet
  facet normal 0.000000e+000 -1.000000e+000 0.000000e+000
    outer loop
      vertex   7.297566e+001 3.949857e+001 4.083092e+001
      vertex   6.597566e+001 3.949857e+001 2.083092e+001
      vertex   7.997566e+001 3.949857e+001 2.083092e+001
    endloop
  endfacet
  facet normal 0.000000e+000 -1.000000e+000 0.000000e+000
    outer loop
      vertex   7.297566e+001 3.949857e+001 4.083092e+001
      vertex   7.997566e+001 3.949857e+001 2.083092e+001
      vertex   7.997566e+001 3.949857e+001 6.083092e+001
    endloop
  endfacet
  facet normal 0.000000e+000 1.000000e+000 0.000000e+000
    outer loop
      vertex   6.497566e+001 6.799857e+001 4.083092e+001
      vertex   6.797566e+001 6.799857e+001 6.083092e+001
      vertex   6.797566e+001 6.799857e+001 2.083092e+001
    endloop
  endfacet
  facet normal 1.000000e+000 0.000000e+000 0.000000e+000
    outer loop
      vertex   6.797566e+001 5.474857e+001 4.083092e+001
      vertex   6.797566e+001 4.149857e+001 6.083092e+001
      vertex   6.797566e+001 4.149857e+001 2.083092e+001
    endloop
  endfacet
  facet normal 1.000000e+000 0.000000e+000 0.000000e+000
    outer loop
      vertex   6.797566e+001 5.474857e+001 4.083092e+001
      vertex   6.797566e+001 4.149857e+001 2.083092e+001
      vertex   6.797566e+001 6.799857e+001 2.083092e+001
    endloop
  endfacet
  facet normal 1.000000e+000 0.000000e+000 -0.000000e+000
    outer loop
      vertex   6.797566e+001 5.474857e+001 4.083092e+001
      vertex   6.797566e+001 6.799857e+001 2.083092e+001
      vertex   6.797566e+001 6.799857e+001 6.083092e+001
    endloop
  endfacet
  facet normal -1.000000e+000 0.000000e+000 0.000000e+000
    outer loop
      vertex   6.597566e+001 5.274857e+001 4.083092e+001
      vertex   6.597566e+001 6.599857e+001 2.083092e+001
      vertex   6.597566e+001 3.949857e+001 2.083092e+001
    endloop
  endfacet
  facet normal 1.000000e+000 0.000000e+000 0.000000e+000
    outer loop
      vertex   7.997566e+001 4.049857e+001 4.083092e+001
      vertex   7.997566e+001 3.949857e+001 6.083092e+001
      vertex   7.997566e+001 3.949857e+001 2.083092e+001
    endloop
  endfacet
  facet normal 1.000000e+000 0.000000e+000 0.000000e+000
    outer loop
      vertex   7.997566e+001 4.049857e+001 4.083092e+001
      vertex   7.997566e+001 3.949857e+001 2.083092e+001
      vertex   7.997566e+001 4.149857e+001 2.083092e+001
    endloop
  endfacet
  facet normal 1.000000e+000 0.000000e+000 -0.000000e+000
    outer loop
      vertex   7.997566e+001 4.049857e+001 4.083092e+001
      vertex   7.997566e+001 4.149857e+001 2.083092e+001
      vertex   7.997566e+001 4.149857e+001 6.083092e+001
    endloop
  endfacet
  facet normal -3.538927e-001 -9.352860e-001 1.777891e-007
    outer loop
      vertex   6.382566e+001 6.669858e+001 4.083092e+001
      vertex   6.197566e+001 6.739857e+001 2.083092e+001
      vertex   6.567566e+001 6.599857e+001 2.083092e+001
    endloop
  endfacet
  facet normal 0.000000e+000 1.000000e+000 0.000000e+000
    outer loop
      vertex   7.397566e+001 4.149857e+001 4.083092e+001
      vertex   7.997566e+001 4.149857e+001 6.083092e+001
      vertex   7.997566e+001 4.149857e+001 2.083092e+001
    endloop
  endfacet
  facet normal 0.000000e+000 0.000000e+000 -1.000000e+000
    outer loop
      vertex   7.997566e+001 3.949857e+001 2.083092e+001
      vertex   6.597566e+001 3.949857e+001 2.083092e+001
      vertex   6.797566e+001 4.149857e+001 2.083092e+001
    endloop
  endfacet
  facet normal 0.000000e+000 0.000000e+000 -1.000000e+000
    outer loop
      vertex   6.597566e+001 6.599857e+001 2.083092e+001
      vertex   6.567566e+001 6.599857e+001 2.083092e+001
      vertex   6.197566e+001 6.799857e+001 2.083092e+001
    endloop
  endfacet
  facet normal 0.000000e+000 0.000000e+000 -1.000000e+000
    outer loop
      vertex   7.997566e+001 4.149857e+001 2.083092e+001
      vertex   7.997566e+001 3.949857e+001 2.083092e+001
      vertex   6.797566e+001 4.149857e+001 2.083092e+001
    endloop
  endfacet
  facet normal -1.000000e+000 0.000000e+000 0.000000e+000
    outer loop
      vertex   6.597566e+001 5.274857e+001 4.083092e+001
      vertex   6.597566e+001 3.949857e+001 2.083092e+001
      vertex   6.597566e+001 3.949857e+001 6.083092e+001
    endloop
  endfacet
  facet normal -1.000000e+000 0.000000e+000 0.000000e+000
    outer loop
      vertex   6.197566e+001 6.769858e+001 4.083092e+001
      vertex   6.197566e+001 6.739857e+001 2.083092e+001
      vertex   6.197566e+001 6.739857e+001 6.083092e+001
    endloop
  endfacet
  facet normal -1.000000e+000 0.000000e+000 -0.000000e+000
    outer loop
      vertex   6.597566e+001 5.274857e+001 4.083092e+001
      vertex   6.597566e+001 6.599857e+001 6.083092e+001
      vertex   6.597566e+001 6.599857e+001 2.083092e+001
    endloop
  endfacet
  facet normal -0.000000e+000 0.000000e+000 -1.000000e+000
    outer loop
      vertex   6.597566e+001 6.599857e+001 2.083092e+001
      vertex   6.797566e+001 4.149857e+001 2.083092e+001
      vertex   6.597566e+001 3.949857e+001 2.083092e+001
    endloop
  endfacet
  facet normal -3.538910e-001 -9.352866e-001 -0.000000e+000
    outer loop
      vertex   6.382566e+001 6.669858e+001 4.083092e+001
      vertex   6.197566e+001 6.739857e+001 6.083092e+001
      vertex   6.197566e+001 6.739857e+001 2.083092e+001
    endloop
  endfacet
  facet normal -3.538944e-001 -9.352854e-001 0.000000e+000
    outer loop
      vertex   6.382566e+001 6.669858e+001 4.083092e+001
      vertex   6.567566e+001 6.599857e+001 2.083092e+001
      vertex   6.567566e+001 6.599857e+001 6.083092e+001
    endloop
  endfacet
  facet normal -1.000000e+000 0.000000e+000 0.000000e+000
    outer loop
      vertex   6.197566e+001 6.769858e+001 4.083092e+001
      vertex   6.197566e+001 6.799857e+001 2.083092e+001
      vertex   6.197566e+001 6.739857e+001 2.083092e+001
    endloop
  endfacet
  facet normal 0.000000e+000 0.000000e+000 -1.000000e+000
    outer loop
      vertex   6.797566e+001 6.799857e+001 2.083092e+001
      vertex   6.797566e+001 4.149857e+001 2.083092e+001
      vertex   6.597566e+001 6.599857e+001 2.083092e+001
    endloop
  endfacet
  facet normal -1.000000e+000 0.000000e+000 -0.000000e+000
    outer loop
      vertex   6.197566e+001 6.769858e+001 4.083092e+001
      vertex   6.197566e+001 6.799857e+001 6.083092e+001
      vertex   6.197566e+001 6.799857e+001 2.083092e+001
    endloop
  endfacet
  facet normal 0.000000e+000 0.000000e+000 -1.000000e+000
    outer loop
      vertex   6.797566e+001 6.799857e+001 2.083092e+001
      vertex   6.597566e+001 6.599857e+001 2.083092e+001
      vertex   6.197566e+001 6.799857e+001 2.083092e+001
    endloop
  endfacet
  facet normal 1.000000e+000 0.000000e+000 0.000000e+000
    outer loop
      vertex   6.797566e+001 5.474857e+001 4.083092e+001
      vertex   6.797566e+001 6.799857e+001 6.083092e+001
      vertex   6.797566e+001 4.149857e+001 6.083092e+001
    endloop
  endfacet
  facet normal -3.538927e-001 -9.352860e-001 -1.777891e-007
    outer loop
      vertex   6.382566e+001 6.669858e+001 4.083092e+001
      vertex   6.567566e+001 6.599857e+001 6.083092e+001
      vertex   6.197566e+001 6.739857e+001 6.083092e+001
    endloop
  endfacet
  facet normal 1.000000e+000 0.000000e+000 0.000000e+000
    outer loop
      vertex   7.997566e+001 4.049857e+001 4.083092e+001
      vertex   7.997566e+001 4.149857e+001 6.083092e+001
      vertex   7.997566e+001 3.949857e+001 6.083092e+001
    endloop
  endfacet
  facet normal -0.000000e+000 -1.000000e+000 0.000000e+000
    outer loop
      vertex   7.297566e+001 3.949857e+001 4.083092e+001
      vertex   7.997566e+001 3.949857e+001 6.083092e+001
      vertex   6.597566e+001 3.949857e+001 6.083092e+001
    endloop
  endfacet
  facet normal -1.000000e+000 0.000000e+000 0.000000e+000
    outer loop
      vertex   6.197566e+001 6.769858e+001 4.083092e+001
      vertex   6.197566e+001 6.739857e+001 6.083092e+001
      vertex   6.197566e+001 6.799857e+001 6.083092e+001
    endloop
  endfacet
  facet normal -0.000000e+000 1.000000e+000 0.000000e+000
    outer loop
      vertex   6.497566e+001 6.799857e+001 4.083092e+001
      vertex   6.197566e+001 6.799857e+001 6.083092e+001
      vertex   6.797566e+001 6.799857e+001 6.083092e+001
    endloop
  endfacet
  facet normal -0.000000e+000 -1.000000e+000 0.000000e+000
    outer loop
      vertex   6.582566e+001 6.599857e+001 4.083092e+001
      vertex   6.597566e+001 6.599857e+001 6.083092e+001
      vertex   6.567566e+001 6.599857e+001 6.083092e+001
    endloop
  endfacet
  facet normal -0.000000e+000 1.000000e+000 0.000000e+000
    outer loop
      vertex   7.397566e+001 4.149857e+001 4.083092e+001
      vertex   6.797566e+001 4.149857e+001 6.083092e+001
      vertex   7.997566e+001 4.149857e+001 6.083092e+001
    endloop
  endfacet
  facet normal -1.000000e+000 0.000000e+000 0.000000e+000
    outer loop
      vertex   6.597566e+001 5.274857e+001 4.083092e+001
      vertex   6.597566e+001 3.949857e+001 6.083092e+001
      vertex   6.597566e+001 6.599857e+001 6.083092e+001
    endloop
  endfacet
  facet normal -0.000000e+000 0.000000e+000 1.000000e+000
    outer loop
      vertex   6.797566e+001 6.799857e+001 6.083092e+001
      vertex   6.197566e+001 6.799857e+001 6.083092e+001
      vertex   6.597566e+001 6.599857e+001 6.083092e+001
    endloop
  endfacet
  facet normal 0.000000e+000 0.000000e+000 1.000000e+000
    outer loop
      vertex   6.597566e+001 6.599857e+001 6.083092e+001
      vertex   6.197566e+001 6.799857e+001 6.083092e+001
      vertex   6.567566e+001 6.599857e+001 6.083092e+001
    endloop
  endfacet
  facet normal 0.000000e+000 0.000000e+000 1.000000e+000
    outer loop
      vertex   6.597566e+001 6.599857e+001 6.083092e+001
      vertex   6.597566e+001 3.949857e+001 6.083092e+001
      vertex   6.797566e+001 4.149857e+001 6.083092e+001
    endloop
  endfacet
  facet normal 0.000000e+000 0.000000e+000 1.000000e+000
    outer loop
      vertex   6.567566e+001 6.599857e+001 6.083092e+001
      vertex   6.197566e+001 6.799857e+001 6.083092e+001
      vertex   6.197566e+001 6.739857e+001 6.083092e+001
    endloop
  endfacet
  facet normal -0.000000e+000 0.000000e+000 1.000000e+000
    outer loop
      vertex   7.997566e+001 4.149857e+001 6.083092e+001
      vertex   6.797566e+001 4.149857e+001 6.083092e+001
      vertex   7.997566e+001 3.949857e+001 6.083092e+001
    endloop
  endfacet
  facet normal 0.000000e+000 0.000000e+000 1.000000e+000
    outer loop
      vertex   7.997566e+001 3.949857e+001 6.083092e+001
      vertex   6.797566e+001 4.149857e+001 6.083092e+001
      vertex   6.597566e+001 3.949857e+001 6.083092e+001
    endloop
  endfacet
  facet normal -0.000000e+000 0.000000e+000 1.000000e+000
    outer loop
      vertex   6.797566e+001 6.799857e+001 6.083092e+001
      vertex   6.597566e+001 6.599857e+001 6.083092e+001
      vertex   6.797566e+001 4.149857e+001 6.083092e+001
    endloop
  endfacet
endsolid
